<?xml version="1.0" standalone="no"?>
<!DOCTYPE svg PUBLIC "-//W3C//DTD SVG 1.1//EN" "http://www.w3.org/Graphics/SVG/1.1/DTD/svg11.dtd" >
<svg>
<metadata>
Created by FontForge 20090622 at Sat Apr 27 14:01:13 2019
 By deploy user
&#194;&#169; 2014 Apple Inc. All rights reserved.
</metadata>
<defs>
<font id="SFUIDisplay-Light" horiz-adv-x="0" >
  <font-face 
    font-family="SFUIDisplay Display"
    font-weight="300"
    font-stretch="normal"
    units-per-em="2048"
    panose-1="0 0 4 0 0 0 0 0 0 0"
    ascent="1638"
    descent="-410"
    x-height="1077"
    cap-height="1443"
    bbox="-516 -882 2507 2091"
    underline-thickness="50"
    underline-position="-75"
    unicode-range="U+0020-U+FB02"
  />
<missing-glyph horiz-adv-x="1293" 
d="M119 1365h1053v-1365h-1053v1365zM533 236q34 -30 87 -30q55 0 89 30q33 29 33 77q0 49 -33 78q-34 30 -89 30q-54 0 -87 -30t-33 -78q0 -47 33 -77zM507 888q1 59 34 95q34 35 91 35q54 0 87 -30t33 -80q0 -38 -20 -66q-21 -27 -83 -72q-128 -90 -118 -221l1 -18h166v15
q0 48 19 76t88 77q133 96 133 218q0 113 -81 182q-81 68 -215 68q-143 0 -225 -76q-83 -76 -79 -203h169z" />
    <glyph glyph-name=".notdef" horiz-adv-x="1293" 
d="M119 1365h1053v-1365h-1053v1365zM533 236q34 -30 87 -30q55 0 89 30q33 29 33 77q0 49 -33 78q-34 30 -89 30q-54 0 -87 -30t-33 -78q0 -47 33 -77zM507 888q1 59 34 95q34 35 91 35q54 0 87 -30t33 -80q0 -38 -20 -66q-21 -27 -83 -72q-128 -90 -118 -221l1 -18h166v15
q0 48 19 76t88 77q133 96 133 218q0 113 -81 182q-81 68 -215 68q-143 0 -225 -76q-83 -76 -79 -203h169z" />
    <glyph glyph-name="glyph1" 
 />
    <glyph glyph-name="glyph2" 
 />
    <glyph glyph-name="space" unicode=" " horiz-adv-x="454" 
 />
    <glyph glyph-name="exclam" unicode="!" horiz-adv-x="531" 
d="M333 1443l-8 -987h-121l-9 987h138zM197 18q-28 27 -28 67t28 68q27 27 67 27q41 0 68 -27q28 -28 28 -68t-28 -67q-28 -28 -68 -28t-67 28z" />
    <glyph glyph-name="quotedbl" unicode="&#x22;" horiz-adv-x="703" 
d="M122 955v488h123v-488h-123zM456 955v488h123v-488h-123z" />
    <glyph glyph-name="numbersign" unicode="#" horiz-adv-x="1214" 
d="M929 918l-77 -381h235l-21 -111h-237l-87 -426h-112l88 426h-341l-87 -426h-111l87 426h-229l21 111h232l76 381h-218l22 110h218l87 417h111l-85 -417h339l87 417h111l-86 -417h248l-21 -110h-250zM399 535h342l77 384h-341z" />
    <glyph glyph-name="dollar" unicode="$" horiz-adv-x="1219" 
d="M557 -150v141q-203 13 -331 123t-130 277h130q8 -115 99 -191q90 -77 232 -90v579l-55 15q-371 94 -371 371q0 161 117 267q116 105 309 119v138h104v-137q186 -13 305 -120q120 -106 125 -262h-130q-4 104 -88 178q-85 74 -212 85v-544l58 -15q210 -53 304 -144
q94 -92 94 -245q0 -172 -123 -281q-123 -108 -333 -122v-142h-104zM910 563q-76 66 -249 105v-560q147 7 236 82q88 76 88 195q0 112 -75 178zM557 822v521q-128 -6 -211 -79q-84 -74 -84 -182q0 -195 295 -260z" />
    <glyph glyph-name="percent" unicode="%" horiz-adv-x="1470" 
d="M1344 83q-76 -97 -205 -97t-206 97q-76 96 -76 257q0 160 76 256q77 97 206 97t205 -97q76 -96 76 -256q0 -161 -76 -257zM1255 151q42 70 42 189t-41 188q-43 69 -117 69t-117 -70q-42 -69 -42 -187q0 -119 42 -188q43 -71 117 -71q73 0 116 70zM536 848
q-76 -97 -205 -97t-206 97q-76 96 -76 257q0 160 76 256q77 97 206 97t205 -97q76 -96 76 -256q0 -161 -76 -257zM447 916q42 70 42 189t-41 188q-43 69 -117 69t-117 -70q-42 -69 -42 -187q0 -119 42 -188q43 -71 117 -71q73 0 116 70zM131 0l1065 1443h134l-1063 -1443
h-136z" />
    <glyph glyph-name="ampersand" unicode="&#x26;" horiz-adv-x="1372" 
d="M1024 168q-196 -191 -475 -191q-208 0 -340 112q-131 111 -131 287q0 242 279 391l44 23q29 15 32 16q-196 203 -196 347q0 133 102 222q103 90 254 90q152 0 252 -88t100 -224q0 -108 -76 -196q-76 -89 -250 -179l397 -425q93 158 93 401v58h127v-59q0 -291 -131 -491
l250 -262h-172zM213 384q0 -128 96 -209q97 -82 251 -82q235 0 382 162l-434 468q-40 -18 -72 -39q-223 -128 -223 -300zM817 1148q0 90 -63 149q-64 59 -161 59q-96 0 -161 -60q-65 -61 -65 -150q0 -112 177 -290q273 135 273 292z" />
    <glyph glyph-name="quotesingle" unicode="'" horiz-adv-x="369" 
d="M122 955v488h123v-488h-123z" />
    <glyph glyph-name="parenleft" unicode="(" horiz-adv-x="607" 
d="M434 -268q-269 341 -269 866q0 490 276 844h115q-257 -319 -257 -842q0 -476 255 -868h-120z" />
    <glyph glyph-name="parenright" unicode=")" horiz-adv-x="607" 
d="M51 -268q255 392 255 868q0 280 -86 523q-68 192 -170 319h115q276 -354 276 -844q0 -524 -270 -866h-120z" />
    <glyph glyph-name="asterisk" unicode="*" horiz-adv-x="973" 
d="M527 1033l11 -312h-105l11 313l-265 -168l-51 91l275 147l-275 145l51 93l265 -169l-11 315h105l-11 -315l265 169l51 -92l-275 -146l275 -147l-51 -91z" />
    <glyph glyph-name="plus" unicode="+" horiz-adv-x="1218" 
d="M670 32h-124v478h-438v124h438v465h124v-465h438v-124h-438v-478z" />
    <glyph glyph-name="comma" unicode="," horiz-adv-x="522" 
d="M122 -242l86 434h141l-123 -434h-104z" />
    <glyph glyph-name="hyphen" unicode="-" horiz-adv-x="874" 
d="M108 510v124h656v-124h-656z" />
    <glyph glyph-name="period" unicode="." horiz-adv-x="509" 
d="M187 18q-28 27 -28 67t28 68q27 27 67 27q41 0 68 -27t27 -68q0 -40 -27 -67q-28 -28 -68 -28t-67 28z" />
    <glyph glyph-name="slash" unicode="/" horiz-adv-x="559" 
d="M0 -330l443 1774h116l-446 -1774h-113z" />
    <glyph glyph-name="zero" unicode="0" horiz-adv-x="1222" 
d="M226 179q-139 199 -139 543q0 342 139 542q141 202 384 202q244 0 384 -202q138 -199 138 -541q0 -344 -138 -544q-140 -202 -384 -202q-245 0 -384 202zM894 266q101 167 101 456q0 287 -102 454q-103 169 -283 169q-179 0 -283 -170q-102 -168 -102 -452
q0 -290 101 -457q103 -169 284 -169t284 169z" />
    <glyph glyph-name="one" unicode="1" horiz-adv-x="863" 
d="M484 1298h-4l-159 -112q-160 -112 -228 -154v146q20 12 196 135q172 119 193 132h134v-1445h-132v1298z" />
    <glyph glyph-name="two" unicode="2" horiz-adv-x="1152" 
d="M114 1039q1 184 133 306q131 121 329 121q189 0 319 -114t130 -280q0 -118 -65 -229q-66 -110 -246 -297l-402 -420v-4h750v-122h-941v96l510 539q155 163 206 249q52 86 52 180q0 118 -92 200t-225 82q-139 0 -232 -87q-92 -88 -94 -220v-1h-132v1z" />
    <glyph glyph-name="three" unicode="3" horiz-adv-x="1183" 
d="M398 803h168q141 0 230 78t89 199q0 119 -83 192q-86 74 -230 74q-134 0 -222 -74t-99 -194h-132q13 174 138 281q126 107 321 107q191 0 318 -104q127 -105 127 -265q0 -135 -81 -227t-220 -117v-4q166 -10 264 -105q99 -96 99 -249q0 -182 -144 -300
q-142 -118 -355 -118q-216 0 -354 112q-136 110 -143 285h132q8 -122 108 -199q101 -78 256 -78q157 0 259 83t102 211q0 138 -100 217t-274 79h-174v116z" />
    <glyph glyph-name="four" unicode="4" horiz-adv-x="1214" 
d="M806 326h-732v125q222 373 665 994h200v-998h215v-121h-215v-326h-133v326zM212 447h594v878h-2q-364 -504 -592 -874v-4z" />
    <glyph glyph-name="five" unicode="5" horiz-adv-x="1186" 
d="M270 89q-137 112 -150 287h134q14 -121 113 -200q99 -78 239 -78q161 0 265 103q103 102 103 261q0 158 -103 262q-102 104 -259 104q-232 0 -339 -184h-131l82 799h800v-122h-687l-54 -533h4q114 159 347 159q206 0 342 -137q135 -137 135 -345q0 -214 -143 -351
t-364 -137q-198 0 -334 112z" />
    <glyph glyph-name="six" unicode="6" horiz-adv-x="1206" 
d="M187 250q-97 169 -97 441q0 363 146 569q145 206 402 206q180 0 307 -100t158 -266h-138q-27 110 -117 178q-90 67 -211 67q-198 0 -306 -176q-109 -177 -109 -498h3q44 122 162 198q117 76 263 76q206 0 342 -136q137 -136 137 -341q0 -212 -142 -352
q-142 -139 -359 -139q-302 0 -441 273zM885 205q105 106 105 259q0 155 -103 258q-102 102 -259 102q-154 0 -261 -101q-106 -102 -106 -249q0 -158 105 -266q106 -109 261 -109q152 0 258 106z" />
    <glyph glyph-name="seven" unicode="7" horiz-adv-x="1105" 
d="M881 1317v4h-803v122h940v-128l-661 -1315h-145z" />
    <glyph glyph-name="eight" unicode="8" horiz-adv-x="1211" 
d="M233 94q-143 117 -143 298q0 136 89 238t233 133v3q-123 34 -195 120q-72 87 -72 203q0 164 130 270q130 107 329 107q200 0 329 -107q129 -106 129 -270q0 -114 -72 -201t-194 -122v-3q144 -31 233 -133t89 -238q0 -182 -143 -298q-144 -117 -371 -117q-226 0 -371 117z
M875 183q104 85 104 217q0 130 -104 213q-105 83 -271 83q-165 0 -270 -83t-105 -213q0 -132 104 -217q105 -86 271 -86t271 86zM836 891q90 73 90 187q0 117 -89 193q-90 76 -233 76t-233 -76t-90 -193q0 -114 91 -187q90 -73 232 -73q141 0 232 73z" />
    <glyph glyph-name="nine" unicode="9" horiz-adv-x="1206" 
d="M258 78q-127 100 -157 265h139q27 -110 115 -177q90 -69 213 -69q193 0 302 171q107 168 112 473l-1 33h-2q-41 -122 -159 -199t-266 -77q-206 0 -343 135q-136 136 -136 339q0 214 142 354t359 140q303 0 441 -273q97 -169 97 -441q0 -363 -144 -569
q-146 -206 -403 -206q-182 0 -309 101zM838 721q106 102 106 248q0 157 -105 265q-107 109 -262 109q-154 0 -259 -106t-105 -261q0 -152 102 -254q104 -103 261 -103q155 0 262 102z" />
    <glyph glyph-name="colon" unicode=":" horiz-adv-x="509" 
d="M187 18q-28 27 -28 67t28 68q27 27 67 27q41 0 68 -27t27 -68q0 -40 -27 -67q-28 -28 -68 -28t-67 28zM187 769q-28 27 -28 67t28 68q27 27 67 27q41 0 68 -27t27 -68q0 -40 -27 -67q-28 -28 -68 -28t-67 28z" />
    <glyph glyph-name="semicolon" unicode=";" horiz-adv-x="509" 
d="M187 769q-28 27 -28 67t28 68q27 27 67 27q41 0 68 -27t27 -68q0 -40 -27 -67q-28 -28 -68 -28t-67 28zM95 -242l84 434h142l-123 -434h-103z" />
    <glyph glyph-name="less" unicode="&#x3c;" horiz-adv-x="1219" 
d="M317 565v-8l717 -431v-142l-851 518v109l851 543v-143z" />
    <glyph glyph-name="equal" unicode="=" horiz-adv-x="1219" 
d="M122 323v118h973v-118h-973zM122 703v118h973v-118h-973z" />
    <glyph glyph-name="greater" unicode="&#x3e;" horiz-adv-x="1219" 
d="M183 1155l851 -543v-109l-851 -519v143l717 431v8l-717 446v143z" />
    <glyph glyph-name="question" unicode="?" horiz-adv-x="972" 
d="M57 1079q9 165 117 268q114 109 302 109q179 0 295 -102q115 -102 115 -256q0 -205 -211 -341q-98 -63 -133 -116q-35 -52 -35 -136v-75h-133v94q-1 98 46 169q45 69 151 138q95 63 134 121q40 60 40 140q0 107 -77 176t-197 69t-197 -70t-87 -188h-130zM375 18
q-28 27 -28 67t28 68q27 27 67 27q41 0 68 -27t27 -68q0 -40 -27 -67q-28 -28 -68 -28t-67 28z" />
    <glyph glyph-name="at" unicode="@" horiz-adv-x="1770" 
d="M701 821q-67 -86 -67 -227q0 -142 66 -226t176 -84q111 0 177 86t66 229q0 141 -65 224t-177 83q-110 0 -176 -85zM1484 1228q225 -207 225 -538q0 -241 -93 -381q-94 -141 -258 -141q-92 0 -155 50q-65 52 -74 134h-7q-72 -177 -262 -177q-155 0 -252 117t-97 305
q0 184 98 300q97 116 251 116q86 0 156 -44t98 -117h7v141h116v-575q0 -148 141 -148q101 0 161 110q61 113 61 312q0 286 -195 465q-195 178 -505 178q-306 0 -505 -207q-199 -208 -199 -528q0 -338 205 -539q199 -194 519 -194q221 0 332 44v-99q-129 -44 -333 -44
q-371 0 -598 222q-235 228 -235 614q0 367 231 599q230 231 592 231q352 0 575 -206z" />
    <glyph glyph-name="A" unicode="A" horiz-adv-x="1262" 
d="M933 442h-606l-160 -442h-145l540 1443h136l539 -1443h-144zM368 560h524l-259 714h-6z" />
    <glyph glyph-name="B" unicode="B" horiz-adv-x="1217" 
d="M134 0v1443h531q186 0 302 -98q115 -98 115 -258q0 -120 -75 -212q-74 -92 -189 -113v-7q152 -18 244 -113q94 -98 94 -246q0 -185 -130 -290q-130 -106 -358 -106h-534zM270 802h326q164 0 256 71q92 72 92 199q0 118 -82 184t-226 66h-366v-520zM650 121q176 0 271 74
q95 73 95 208t-99 208q-100 73 -286 73h-361v-563h380z" />
    <glyph glyph-name="C" unicode="C" horiz-adv-x="1371" 
d="M250 180q-174 202 -174 545q0 339 175 540q174 201 468 201q229 0 392 -135q164 -134 193 -346h-137q-30 156 -155 255t-293 99q-230 0 -366 -166q-137 -167 -137 -448q0 -285 137 -453q136 -168 367 -168q173 0 294 87t153 236h137q-38 -211 -194 -330
q-156 -120 -391 -120q-295 0 -469 203z" />
    <glyph glyph-name="D" unicode="D" horiz-adv-x="1370" 
d="M609 1443q324 0 504 -189q180 -190 180 -532q0 -343 -180 -532q-179 -190 -504 -190h-475v1443h475zM271 124h330q266 0 410 155q143 155 143 442q0 288 -143 443q-144 155 -410 155h-330v-1195z" />
    <glyph glyph-name="E" unicode="E" horiz-adv-x="1104" 
d="M1005 0h-871v1443h871v-124h-735v-519h698v-122h-698v-554h735v-124z" />
    <glyph glyph-name="F" unicode="F" horiz-adv-x="1061" 
d="M134 0v1443h856v-124h-720v-542h662v-122h-662v-655h-136z" />
    <glyph glyph-name="G" unicode="G" horiz-adv-x="1409" 
d="M1323 586q0 -286 -159 -447q-159 -162 -440 -162q-293 0 -471 206q-177 206 -177 547q0 335 176 536q177 200 472 200q227 0 388 -125t202 -332h-142q-44 154 -164 242q-119 88 -284 88q-235 0 -371 -163q-137 -164 -137 -446q0 -286 138 -456t370 -170q209 0 336 123
t127 327v51h-448v120h584v-139z" />
    <glyph glyph-name="H" unicode="H" horiz-adv-x="1387" 
d="M1114 0v677h-844v-677h-136v1443h136v-642h844v642h137v-1443h-137z" />
    <glyph glyph-name="I" unicode="I" horiz-adv-x="406" 
d="M134 0v1443h136v-1443h-136z" />
    <glyph glyph-name="J" unicode="J" horiz-adv-x="987" 
d="M176 331q5 -104 77 -169q73 -65 185 -65q132 0 205 78q72 78 72 222v1046h136v-1048q0 -199 -109 -312q-110 -113 -304 -113q-173 0 -284 101q-112 101 -113 260h135z" />
    <glyph glyph-name="K" unicode="K" horiz-adv-x="1209" 
d="M134 0v1443h136v-748h8l686 748h173l-593 -638l652 -805h-175l-573 708l-178 -193v-515h-136z" />
    <glyph glyph-name="L" unicode="L" horiz-adv-x="1052" 
d="M993 0h-859v1443h136v-1319h723v-124z" />
    <glyph glyph-name="M" unicode="M" horiz-adv-x="1660" 
d="M1524 0h-128v1184h-6l-502 -1177h-119l-501 1177h-6v-1184h-128v1443h157l535 -1263h6l534 1263h158v-1443z" />
    <glyph glyph-name="N" unicode="N" horiz-adv-x="1393" 
d="M134 0v1443h135l846 -1205h7v1205h135v-1443h-132l-849 1206h-7v-1206h-135z" />
    <glyph glyph-name="O" unicode="O" horiz-adv-x="1465" 
d="M1210 1265q177 -201 177 -544t-177 -543q-177 -201 -479 -201t-478 201q-177 200 -177 543t177 544t478 201q302 0 479 -201zM355 1172q-139 -167 -139 -451q0 -283 139 -450q140 -167 376 -167q237 0 377 167q139 167 139 450q0 284 -139 451q-140 167 -377 167
t-376 -167z" />
    <glyph glyph-name="P" unicode="P" horiz-adv-x="1171" 
d="M646 1443q206 0 335 -124q128 -124 128 -325t-129 -325q-129 -125 -335 -125h-375v-544h-136v1443h512zM270 666h344q166 0 261 87q94 87 94 241t-94 240q-94 87 -261 87h-344v-655z" />
    <glyph glyph-name="Q" unicode="Q" horiz-adv-x="1465" 
d="M1145 -169l-145 198q-122 -52 -269 -52q-302 0 -479 201q-176 200 -176 543t177 544t478 201q302 0 479 -201t177 -544q0 -436 -276 -632l188 -258h-154zM921 138l-187 257h154l143 -196q215 160 215 522q0 284 -139 451t-376 167t-376 -167t-139 -451q0 -283 139 -450
q140 -167 376 -167q102 0 190 34z" />
    <glyph glyph-name="R" unicode="R" horiz-adv-x="1199" 
d="M270 712h369q157 0 244 80q88 80 88 225q0 143 -90 224q-89 80 -247 80h-364v-609zM270 0h-136v1443h516q211 0 337 -115q125 -114 125 -307q0 -153 -82 -262t-227 -146l349 -613h-159l-332 591h-391v-591z" />
    <glyph glyph-name="S" unicode="S" horiz-adv-x="1182" 
d="M201 392q11 -130 123 -210q112 -81 281 -81q162 0 267 79q104 79 104 201q0 101 -73 165q-73 63 -234 104l-179 46q-201 51 -293 140q-93 89 -93 231q0 174 141 287q139 112 353 112q210 0 350 -112q139 -111 145 -283h-137q-10 122 -109 197q-99 74 -253 74
q-151 0 -249 -75q-99 -76 -99 -195q0 -93 72 -152q70 -58 230 -99l156 -40q218 -55 315 -144q97 -91 97 -241q0 -190 -142 -304q-142 -115 -381 -115q-226 0 -372 115q-146 114 -157 300h137z" />
    <glyph glyph-name="T" unicode="T" horiz-adv-x="1179" 
d="M520 0v1319h-483v124h1103v-124h-483v-1319h-137z" />
    <glyph glyph-name="U" unicode="U" horiz-adv-x="1386" 
d="M270 512q0 -184 112 -295q114 -113 310 -113t310 113q112 111 112 295v931h137v-939q0 -236 -149 -380q-153 -147 -410 -147t-409 147q-149 144 -149 380v939h136v-931z" />
    <glyph glyph-name="V" unicode="V" horiz-adv-x="1262" 
d="M562 0l-540 1443h145l460 -1273h6l461 1273h144l-540 -1443h-136z" />
    <glyph glyph-name="W" unicode="W" horiz-adv-x="1854" 
d="M567 0h-127l-397 1443h142l318 -1233h6l349 1233h136l348 -1233h7l317 1233h143l-398 -1443h-126l-355 1209h-8z" />
    <glyph glyph-name="X" unicode="X" horiz-adv-x="1263" 
d="M545 722v5l-498 716h165l421 -613h5l424 613h157l-507 -722v-4l499 -717h-164l-419 610h-5l-425 -610h-155z" />
    <glyph glyph-name="Y" unicode="Y" horiz-adv-x="1219" 
d="M540 0v624l-517 819h156l427 -685h5l427 685h156l-517 -819v-624h-137z" />
    <glyph glyph-name="Z" unicode="Z" horiz-adv-x="1224" 
d="M86 99l866 1214v6h-838v124h1011v-100l-864 -1213v-6h876v-124h-1051v99z" />
    <glyph glyph-name="bracketleft" unicode="[" horiz-adv-x="628" 
d="M602 1444v-106h-288v-1472h301v-104h-430v1682h417z" />
    <glyph glyph-name="backslash" unicode="\" horiz-adv-x="559" 
d="M0 1444h116l443 -1774h-113z" />
    <glyph glyph-name="bracketright" unicode="]" horiz-adv-x="628" 
d="M442 -238h-430v104h302v1472h-288v106h416v-1682z" />
    <glyph glyph-name="asciicircum" unicode="^" horiz-adv-x="847" 
d="M183 819h-130l299 617h141l299 -617h-130l-234 493h-11z" />
    <glyph glyph-name="underscore" unicode="_" horiz-adv-x="819" 
d="M-58 -222v100h935v-100h-935z" />
    <glyph glyph-name="grave" unicode="`" horiz-adv-x="899" 
d="M522 1251l-256 301h153l220 -301h-117z" />
    <glyph glyph-name="a" unicode="a" horiz-adv-x="1048" 
d="M704 191q98 86 98 214v119l-315 -22q-277 -18 -277 -203q0 -87 70 -141t182 -54q145 0 242 87zM175 74q-100 87 -100 226q0 281 396 309l331 22v92q0 118 -71 183q-72 65 -202 65q-113 0 -187 -54q-74 -55 -92 -151h-127q8 142 123 232q114 91 284 91q185 0 295 -96
q109 -96 109 -259v-734h-126v206h-3q-44 -98 -144 -158q-101 -60 -225 -60q-161 0 -261 86z" />
    <glyph glyph-name="b" unicode="b" horiz-adv-x="1154" 
d="M404 51q-99 64 -147 177h-3v-228h-126v1506h132v-650h3q47 109 145 171t225 62q203 0 329 -152t126 -398q0 -247 -126 -399q-127 -152 -331 -152q-129 0 -227 63zM356 850q-97 -121 -97 -312t97 -311q98 -120 252 -120q155 0 250 119q95 118 95 313q0 194 -95 313
q-94 119 -249 119t-253 -121z" />
    <glyph glyph-name="c" unicode="c" horiz-adv-x="1046" 
d="M860 738q-20 103 -101 166q-85 67 -210 67q-158 0 -254 -118t-96 -314q0 -199 96 -316q96 -116 255 -116q124 0 206 60q82 59 105 165h131q-23 -154 -143 -248q-122 -96 -299 -96q-221 0 -353 148q-133 149 -133 403q0 250 133 400q132 150 351 150q182 0 306 -104
q117 -98 137 -247h-131z" />
    <glyph glyph-name="d" unicode="d" horiz-adv-x="1157" 
d="M193 140q-129 153 -129 399q0 245 129 398q127 152 329 152q128 0 229 -64q97 -63 141 -169h3v650h133v-1506h-126v229h-3q-47 -111 -145 -175q-100 -66 -229 -66q-203 0 -332 152zM295 852q-96 -119 -96 -313t96 -313t251 -119t253 120q97 120 97 312q0 191 -97 312
q-98 120 -253 120t-251 -119z" />
    <glyph glyph-name="e" unicode="e" horiz-adv-x="1075" 
d="M304 873q-94 -98 -103 -259h670q-2 161 -92 259q-91 99 -237 99q-145 0 -238 -99zM995 305q-24 -139 -146 -227q-123 -90 -297 -90q-224 0 -356 147q-132 148 -132 401q0 251 131 402q132 151 349 151q212 0 339 -142q126 -143 126 -383v-58h-808v-7q0 -182 97 -288
q96 -106 257 -106q119 0 203 56q82 54 106 144h131z" />
    <glyph glyph-name="f" unicode="f" horiz-adv-x="589" 
d="M172 966h-150v111h150v123q0 141 66 207q65 65 200 65q49 0 89 -9v-111q-35 8 -78 8q-73 0 -108 -37q-35 -39 -36 -125v-121h219v-111h-219v-966h-133v966z" />
    <glyph glyph-name="g" unicode="g" horiz-adv-x="1144" 
d="M795 233q97 118 97 308q0 191 -97 311q-97 119 -253 119q-154 0 -249 -118q-94 -118 -94 -312q0 -193 94 -310t249 -117q156 0 253 119zM255 -299q-118 76 -138 200h138q20 -73 101 -116q83 -44 203 -44q151 0 242 72q91 73 91 197v219h-3q-46 -106 -143 -169
q-100 -65 -227 -65q-203 0 -329 151t-126 395q0 247 126 397q126 151 332 151q127 0 228 -65q98 -63 146 -170h2v223h126v-1057q0 -184 -128 -290q-128 -105 -345 -105q-178 0 -296 76z" />
    <glyph glyph-name="h" unicode="h" horiz-adv-x="1136" 
d="M128 1506h132v-630h3q95 213 363 213q178 0 287 -109q109 -110 109 -290v-690h-133v669q0 141 -81 222q-80 80 -219 80q-147 0 -238 -95t-91 -248v-628h-132v1506z" />
    <glyph glyph-name="i" unicode="i" horiz-adv-x="390" 
d="M128 1077h132v-1077h-132v1077zM131 1317q-27 26 -27 62q0 37 27 64q26 26 63 26t63 -26q26 -27 26 -64q0 -36 -26 -62q-26 -27 -63 -27t-63 27z" />
    <glyph glyph-name="j" unicode="j" horiz-adv-x="390" 
d="M261 -81q0 -156 -75 -227q-74 -71 -233 -71h-31v113h27q97 0 138 42q42 41 42 140v1161h132v-1158zM132 1317q-27 26 -27 62q0 37 27 64q26 26 63 26t63 -26q26 -27 26 -64q0 -36 -26 -62q-26 -27 -63 -27t-63 27z" />
    <glyph glyph-name="k" unicode="k" horiz-adv-x="988" 
d="M798 1077h164l-486 -465l496 -612h-156l-434 531l-122 -111v-420h-132v1506h132v-941z" />
    <glyph glyph-name="l" unicode="l" horiz-adv-x="390" 
d="M128 1506h132v-1506h-132v1506z" />
    <glyph glyph-name="m" unicode="m" horiz-adv-x="1677" 
d="M118 1077h124v-201h4q35 97 117 154q84 59 197 59q115 0 199 -62q81 -60 112 -164h3q39 102 129 163q93 63 212 63q158 0 253 -97q95 -98 95 -261v-731h-133v701q0 126 -66 198q-67 72 -185 72q-120 0 -197 -84q-76 -83 -76 -214v-673h-132v714q0 115 -69 186t-180 71
q-120 0 -197 -88q-78 -88 -78 -226v-657h-132v1077z" />
    <glyph glyph-name="n" unicode="n" horiz-adv-x="1111" 
d="M118 1077h124v-201h4q95 213 362 213q178 0 283 -106q106 -107 106 -290v-693h-132v672q0 142 -78 221q-78 78 -216 78q-144 0 -232 -94q-89 -93 -89 -244v-633h-132v1077z" />
    <glyph glyph-name="o" unicode="o" horiz-adv-x="1109" 
d="M198 138q-134 149 -134 401q0 251 134 401q133 149 355 149q223 0 356 -149q134 -150 134 -401t-134 -401q-133 -150 -356 -150q-222 0 -355 150zM813 222q95 116 95 317t-95 317q-95 115 -260 115q-164 0 -259 -115q-95 -116 -95 -317t95 -317q95 -115 259 -115
q165 0 260 115z" />
    <glyph glyph-name="p" unicode="p" horiz-adv-x="1144" 
d="M951 937q127 -152 127 -398t-127 -399q-126 -152 -330 -152q-127 0 -226 65q-96 62 -142 169h-3v-575h-132v1430h125v-223h3q43 104 144 169q103 66 229 66q204 0 332 -152zM848 225q95 119 95 313t-95 314q-96 119 -252 119q-154 0 -250 -120q-97 -121 -97 -312
q0 -192 97 -312q96 -120 250 -120q156 0 252 118z" />
    <glyph glyph-name="q" unicode="q" horiz-adv-x="1147" 
d="M754 1025q99 -63 145 -171h3v223h126v-1430h-133v575h-3q-46 -107 -143 -169q-101 -65 -228 -65q-203 0 -330 152q-127 153 -127 399t128 398q127 152 332 152q130 0 230 -64zM797 227q98 120 98 312q0 191 -98 312q-98 120 -253 120t-250 -119t-95 -314t95 -313
t250 -118t253 120z" />
    <glyph glyph-name="r" unicode="r" horiz-adv-x="634" 
d="M118 1077h124v-191h4q28 96 100 150q72 53 173 53q43 0 80 -11v-132q-34 16 -98 16q-114 0 -183 -82q-68 -81 -68 -212v-668h-132v1077z" />
    <glyph glyph-name="s" unicode="s" horiz-adv-x="958" 
d="M206 1005q109 84 277 84q163 0 271 -88t116 -227h-127q-10 92 -80 147q-71 56 -184 56q-109 0 -180 -51q-72 -51 -72 -132q0 -123 201 -173l165 -40q162 -41 230 -105q68 -65 68 -180q0 -136 -117 -222q-116 -86 -298 -86q-172 0 -287 89q-114 88 -125 226h134
q12 -93 88 -148q77 -56 198 -56q122 0 197 51q76 52 76 137q0 69 -46 109q-46 41 -155 68l-182 46q-278 70 -278 277q0 133 110 218z" />
    <glyph glyph-name="t" unicode="t" horiz-adv-x="598" 
d="M308 1335v-258h216v-111h-216v-696q0 -84 35 -122q34 -38 109 -38q45 0 77 4v-113q-24 -7 -103 -7q-134 0 -192 63t-58 208v701h-154v111h154v258h132z" />
    <glyph glyph-name="u" unicode="u" horiz-adv-x="1111" 
d="M992 0h-125v202h-3q-45 -100 -141 -156q-98 -58 -225 -58q-176 0 -281 106q-105 107 -105 289v694h132v-672q0 -143 78 -221q76 -77 214 -77q142 0 232 92q91 93 91 245v633h133v-1077z" />
    <glyph glyph-name="v" unicode="v" horiz-adv-x="977" 
d="M558 0h-140l-402 1077h139l331 -936h3l332 936h138z" />
    <glyph glyph-name="w" unicode="w" horiz-adv-x="1477" 
d="M1148 0h-139l-270 897h-3l-270 -897h-139l-307 1077h133l244 -927h3l270 927h134l271 -927h3l244 927h133z" />
    <glyph glyph-name="x" unicode="x" horiz-adv-x="950" 
d="M471 444l-298 -444h-150l380 542l-376 535h150l299 -434h3l296 434h150l-377 -530l374 -547h-150l-297 444h-4z" />
    <glyph glyph-name="y" unicode="y" horiz-adv-x="980" 
d="M132 -367v113q30 -7 65 -7q73 0 119 43q45 42 81 144l24 67l-405 1084h142l330 -943h3l331 943h140l-420 -1129q-70 -190 -142 -256q-71 -67 -202 -67q-34 0 -66 8z" />
    <glyph glyph-name="z" unicode="z" horiz-adv-x="963" 
d="M82 100l645 864v2h-645v111h796v-101l-644 -862v-3h646v-111h-798v100z" />
    <glyph glyph-name="braceleft" unicode="{" horiz-adv-x="717" 
d="M255 607q175 -16 175 -233v-360q0 -119 58 -175q58 -55 183 -55h53v-109h-56q-188 0 -276 82t-88 258v309q0 121 -39 169q-39 47 -138 47v158q99 0 138 48t39 170v268q0 172 88 251q87 80 276 80h56v-109h-53q-127 0 -184 -55q-57 -54 -57 -176v-313q0 -215 -175 -231
v-24z" />
    <glyph glyph-name="bar" unicode="|" horiz-adv-x="407" 
d="M146 -328v1771h113v-1771h-113z" />
    <glyph glyph-name="braceright" unicode="}" horiz-adv-x="717" 
d="M461 631q-175 16 -175 231v313q0 122 -57 176q-57 55 -184 55h-54v109h56q190 0 277 -80q88 -79 88 -251v-268q0 -122 39 -170t137 -48v-158q-99 0 -137 -47q-39 -47 -39 -169v-309q0 -176 -88 -258q-89 -82 -277 -82h-56v109h54q125 0 183 55q58 56 58 175v360
q0 217 175 233v24z" />
    <glyph glyph-name="asciitilde" unicode="~" horiz-adv-x="1219" 
d="M396 755q-67 0 -107 -51q-39 -52 -44 -145h-123q0 148 74 235q75 87 203 87q110 0 241 -125q105 -104 176 -104q68 0 110 53t46 147h123q0 -147 -77 -236q-77 -90 -204 -90q-116 0 -245 124q-106 105 -173 105z" />
    <glyph glyph-name="uni00A0" unicode="&#xa0;" horiz-adv-x="454" 
 />
    <glyph glyph-name="exclamdown" unicode="&#xa1;" horiz-adv-x="531" 
d="M204 646h121l8 -986h-138zM197 951q-28 28 -28 68t28 68q27 27 67 27q41 0 68 -27q28 -28 28 -68t-28 -68t-68 -28t-67 28z" />
    <glyph glyph-name="cent" unicode="&#xa2;" horiz-adv-x="1219" 
d="M1106 512q-19 -145 -135 -243q-115 -97 -280 -111v-187h-131v189q-203 23 -325 172q-125 151 -125 382q0 229 125 379q123 147 325 170v183h131v-182q165 -14 282 -115q118 -102 134 -245h-133q-22 113 -118 180q-95 65 -229 65q-167 0 -274 -119q-108 -121 -108 -316
q0 -196 108 -319q107 -122 274 -122q140 0 230 59q95 62 116 180h133z" />
    <glyph glyph-name="sterling" unicode="&#xa3;" horiz-adv-x="1219" 
d="M1147 118v-118h-1064v117q143 34 234 127q95 97 95 225q0 81 -37 196h-277v112h236q-69 187 -69 294q0 188 130 296q131 109 363 109q196 0 308 -56v-123q-99 57 -302 57q-170 0 -266 -76q-94 -75 -94 -204q0 -106 69 -297h470v-112h-431q34 -105 34 -191
q0 -237 -240 -352v-4h841z" />
    <glyph glyph-name="currency" unicode="&#xa4;" horiz-adv-x="1219" 
d="M408 454q83 -84 201 -84t202 84t84 202t-84 202t-202 84t-201 -84q-84 -84 -84 -202t84 -202zM920 884q75 -102 75 -228q0 -128 -76 -229l168 -168l-83 -82l-167 168q-102 -75 -228 -75t-228 75l-169 -168l-82 82l169 169q-75 102 -75 228t75 228l-169 168l82 82
l168 -168q101 76 229 76q127 0 229 -75l166 167l83 -82z" />
    <glyph glyph-name="yen" unicode="&#xa5;" horiz-adv-x="1219" 
d="M677 310v-310h-136v310h-305v105h305v184h-305v106h259l-472 738h157l426 -675h6l425 675h157l-471 -738h258v-106h-304v-184h304v-105h-304z" />
    <glyph glyph-name="brokenbar" unicode="&#xa6;" horiz-adv-x="408" 
d="M147 765v678h113v-678h-113zM147 -328v680h113v-680h-113z" />
    <glyph glyph-name="section" unicode="&#xa7;" horiz-adv-x="973" 
d="M507 362q108 1 179 61t71 149q0 147 -211 193l-81 18q-107 -1 -179 -61q-72 -61 -72 -149q0 -145 212 -193zM213 -170q-111 79 -122 207h134q12 -79 87 -126q75 -48 185 -48q113 0 184 51q72 51 72 131q0 128 -222 183l-129 33q-167 43 -245 112q-78 70 -78 176
q0 99 64 169t178 97v12q-230 79 -230 268q0 133 108 216q108 84 279 84q164 0 270 -75q106 -76 123 -204h-132q-12 76 -83 121q-72 46 -180 46q-112 0 -182 -51q-71 -50 -71 -130q0 -129 220 -184l130 -34q165 -42 242 -110t77 -172t-72 -181q-73 -77 -191 -99v-12
q254 -60 254 -257q0 -133 -110 -218t-282 -85q-167 0 -278 80z" />
    <glyph glyph-name="dieresis" unicode="&#xa8;" horiz-adv-x="898" 
d="M205 1286q-28 28 -28 65q0 38 28 66q27 27 65 27t66 -27q27 -28 27 -66t-27 -65q-28 -27 -66 -27t-65 27zM560 1286q-27 27 -27 65t27 66q28 27 66 27t66 -27q27 -28 27 -66t-27 -65q-28 -27 -66 -27t-66 27z" />
    <glyph glyph-name="copyright" unicode="&#xa9;" horiz-adv-x="1717" 
d="M302 67q-227 225 -227 559q0 335 227 560q225 224 556 224q332 0 557 -224q226 -225 226 -560q0 -334 -226 -559q-225 -225 -557 -225q-331 0 -556 225zM1337 144q194 194 194 482q0 290 -194 483q-193 192 -479 192q-285 0 -479 -192q-195 -194 -195 -483
q0 -288 195 -482q194 -193 479 -193t479 193zM1116 780q-21 77 -83 124q-68 51 -166 51q-128 0 -205 -86q-79 -89 -79 -239q0 -153 79 -243q77 -88 205 -88q99 0 165 46q64 45 83 123h109q-20 -119 -112 -191q-97 -75 -245 -75q-178 0 -286 115q-109 116 -109 313
q0 194 109 309q108 114 286 114q146 0 245 -81q92 -76 112 -192h-108z" />
    <glyph glyph-name="ordfeminine" unicode="&#xaa;" horiz-adv-x="883" 
d="M278 737q50 -42 134 -42q105 0 177 64q71 64 71 157v106l-232 -18q-201 -15 -201 -154q0 -70 51 -113zM183 666q-75 69 -75 179t78 173q78 64 226 74l246 17v75q0 81 -54 127q-53 46 -148 46q-171 0 -200 -126h-116q11 103 96 165q87 63 223 63q146 0 230 -74
q84 -75 84 -204v-568h-110v135h-9q-84 -151 -275 -151q-121 0 -196 69z" />
    <glyph glyph-name="guillemotleft" unicode="&#xab;" horiz-adv-x="1252" 
d="M751 560l357 -411h-157l-359 414v6l359 414h157l-357 -411v-12zM300 560l357 -411h-157l-358 414v6l358 414h157l-357 -411v-12z" />
    <glyph glyph-name="logicalnot" unicode="&#xac;" horiz-adv-x="1219" 
d="M1085 145h-115v418h-838v114h953v-532z" />
    <glyph glyph-name="registered" unicode="&#xae;" horiz-adv-x="1129" 
d="M241 745q-133 131 -133 319t132 319q133 131 323 131q191 0 324 -130q132 -131 132 -320q0 -188 -132 -319q-133 -131 -324 -131q-190 0 -322 131zM829 799q109 108 109 265t-109 266q-108 108 -266 108q-157 0 -265 -108q-109 -109 -109 -266t109 -265
q108 -109 265 -109t266 109zM387 853v453h199q68 0 111 -38q44 -38 44 -100q0 -54 -31 -90q-29 -35 -77 -42l130 -183h-90l-117 173h-97v-173h-72zM459 1084h112q93 0 93 82q0 78 -91 78h-114v-160z" />
    <glyph glyph-name="macron" unicode="&#xaf;" horiz-adv-x="938" 
d="M777 1315h-618v85h618v-85z" />
    <glyph glyph-name="degree" unicode="&#xb0;" horiz-adv-x="672" 
d="M152 996q-75 76 -75 183t75 182q75 76 182 76t183 -76q76 -75 76 -182t-76 -183q-76 -75 -183 -75t-182 75zM447 1067q47 47 47 112q0 66 -47 113q-46 46 -113 46q-64 0 -111 -46q-48 -48 -48 -113t48 -112q47 -47 111 -47q67 0 113 47z" />
    <glyph glyph-name="plusminus" unicode="&#xb1;" horiz-adv-x="1219" 
d="M108 112v114h1001v-114h-1001zM665 354h-113v317h-444v105h444v309h113v-309h444v-105h-444v-317z" />
    <glyph glyph-name="uni00B2" unicode="&#xb2;" horiz-adv-x="595" 
d="M52 1597q0 94 68 154q67 59 174 59q105 0 171 -54q65 -54 65 -140q0 -94 -130 -221l-178 -175v-3h322v-98h-486v84l256 249q96 97 96 156q0 47 -34 76q-34 30 -87 30q-52 0 -87 -33q-35 -34 -35 -84v-3h-115v3z" />
    <glyph glyph-name="uni00B3" unicode="&#xb3;" horiz-adv-x="613" 
d="M215 1511h82q54 0 87 29q33 28 33 75q0 44 -33 72t-87 28q-53 0 -87 -29q-35 -30 -37 -77h-114q3 91 70 146q66 55 173 55q103 0 168 -50t65 -129q0 -61 -38 -104t-103 -54v-3q77 -6 123 -50q45 -45 45 -114q0 -89 -73 -145t-190 -56q-111 0 -180 57q-69 56 -73 147h118
q3 -47 40 -76t96 -29t97 31t38 79q0 50 -37 80q-37 29 -101 29h-82v88z" />
    <glyph glyph-name="acute" unicode="&#xb4;" horiz-adv-x="899" 
d="M257 1251l220 301h153l-256 -301h-117z" />
    <glyph glyph-name="paragraph" unicode="&#xb6;" horiz-adv-x="1186" 
d="M623 -195v770h-20q-205 0 -339 122q-135 122 -135 307q0 193 134 316q133 123 341 123h155v-1638h-136zM918 1443h137v-1638h-137v1638z" />
    <glyph glyph-name="periodcentered" unicode="&#xb7;" horiz-adv-x="509" 
d="M187 535q-28 27 -28 67t28 68q27 27 67 27q41 0 68 -27t27 -68q0 -40 -27 -67q-28 -28 -68 -28t-67 28z" />
    <glyph glyph-name="cedilla" unicode="&#xb8;" horiz-adv-x="899" 
d="M318 -154l65 161l87 -7l-54 -141q208 0 208 -152q0 -76 -61 -124q-62 -49 -157 -50q-84 0 -139 17v80q41 -16 122 -16q63 0 100 24q37 25 37 66q0 82 -155 82h-53v60z" />
    <glyph glyph-name="uni00B9" unicode="&#xb9;" horiz-adv-x="470" 
d="M244 1687h-3l-178 -121v111l177 120h121v-678h-117v568z" />
    <glyph glyph-name="ordmasculine" unicode="&#xba;" horiz-adv-x="958" 
d="M290 783q68 -86 188 -86q121 0 189 86q69 87 69 241t-69 241q-68 86 -189 86q-120 0 -188 -86q-69 -87 -69 -242q0 -153 69 -240zM200 709q-102 115 -102 314q0 200 103 316q102 116 277 116t277 -115q103 -116 103 -316q0 -199 -103 -315q-102 -116 -277 -116
q-176 0 -278 116z" />
    <glyph glyph-name="guillemotright" unicode="&#xbb;" horiz-adv-x="1251" 
d="M142 983h157l358 -414v-6l-358 -414h-157l357 411v12zM592 983h157l359 -414v-6l-359 -414h-157l357 411v12z" />
    <glyph glyph-name="onequarter" unicode="&#xbc;" horiz-adv-x="1433" 
d="M1186 130h-339v106q89 158 284 442h174v-449h92v-99h-92v-130h-119v130zM957 226h232v363h-2q-156 -230 -230 -361v-2zM251 1333h-3l-178 -121v111l177 120h121v-678h-117v568zM89 0l1065 1443h134l-1063 -1443h-136z" />
    <glyph glyph-name="onehalf" unicode="&#xbd;" horiz-adv-x="1439" 
d="M909 478q0 94 68 154q67 59 174 59q105 0 171 -54q65 -54 65 -140q0 -94 -130 -221l-178 -175v-3h322v-98h-486v84l256 249q96 97 96 156q0 47 -34 76q-34 30 -87 30q-52 0 -87 -33q-35 -34 -35 -84v-3h-115v3zM251 1333h-3l-178 -121v111l177 120h121v-678h-117v568z
M89 0l1065 1443h134l-1063 -1443h-136z" />
    <glyph glyph-name="threequarters" unicode="&#xbe;" horiz-adv-x="1524" 
d="M212 1157h82q54 0 87 29q33 28 33 75q0 44 -33 72t-87 28q-53 0 -87 -29q-35 -30 -37 -77h-114q3 91 70 146q66 55 173 55q103 0 168 -50t65 -129q0 -61 -38 -104t-103 -54v-3q77 -6 123 -50q45 -45 45 -114q0 -89 -73 -145t-190 -56q-111 0 -180 57q-69 56 -73 147h118
q3 -47 40 -76t96 -29t97 31t38 79q0 50 -37 80q-37 29 -101 29h-82v88zM1277 130h-339v106q89 158 284 442h174v-449h92v-99h-92v-130h-119v130zM1048 226h232v363h-2q-156 -230 -230 -361v-2zM193 0l1065 1443h134l-1063 -1443h-136z" />
    <glyph glyph-name="questiondown" unicode="&#xbf;" horiz-adv-x="972" 
d="M913 19q-9 -165 -117 -269q-115 -109 -302 -109q-180 0 -295 103q-115 101 -115 256q0 204 210 341q98 63 134 115q34 52 34 136v75h133v-94q1 -98 -45 -168q-45 -69 -152 -139q-173 -114 -173 -259q0 -108 76 -177q77 -70 198 -70q120 0 197 70t87 189h130zM451 951
q-28 28 -28 68t28 68q27 27 67 27q41 0 68 -27t27 -68q0 -40 -27 -68q-28 -28 -68 -28t-67 28z" />
    <glyph glyph-name="Agrave" unicode="&#xc0;" horiz-adv-x="1262" 
d="M933 442h-606l-160 -442h-145l540 1443h136l539 -1443h-144zM368 560h524l-259 714h-6zM286 1846h154l252 -295h-117z" />
    <glyph glyph-name="Aacute" unicode="&#xc1;" horiz-adv-x="1262" 
d="M933 442h-606l-160 -442h-145l540 1443h136l539 -1443h-144zM368 560h524l-259 714h-6zM570 1551l252 295h154l-289 -295h-117z" />
    <glyph glyph-name="Acircumflex" unicode="&#xc2;" horiz-adv-x="1262" 
d="M933 442h-606l-160 -442h-145l540 1443h136l539 -1443h-144zM368 560h524l-259 714h-6zM685 1846l283 -295h-131l-206 217h-2l-206 -217h-131l283 295h110z" />
    <glyph glyph-name="Atilde" unicode="&#xc3;" horiz-adv-x="1262" 
d="M933 442h-606l-160 -442h-145l540 1443h136l539 -1443h-144zM368 560h524l-259 714h-6zM616 1620q-74 78 -113 78q-78 0 -78 -144h-91q0 109 43 171q44 63 123 63q75 0 150 -78q76 -79 111 -79q73 0 73 144h91q0 -107 -43 -170q-44 -64 -121 -64q-70 0 -145 79z" />
    <glyph glyph-name="Adieresis" unicode="&#xc4;" horiz-adv-x="1262" 
d="M933 442h-606l-160 -442h-145l540 1443h136l539 -1443h-144zM368 560h524l-259 714h-6zM387 1603q-28 28 -28 65q0 38 28 66q27 27 65 27t66 -27q27 -28 27 -66t-27 -65q-28 -27 -66 -27t-65 27zM742 1603q-27 27 -27 65t27 66q28 27 66 27t66 -27q27 -28 27 -66t-27 -65
q-28 -27 -66 -27t-66 27z" />
    <glyph glyph-name="Aring" unicode="&#xc5;" horiz-adv-x="1262" 
d="M933 442h-606l-160 -442h-145l540 1443h136l539 -1443h-144zM368 560h524l-259 714h-6zM498 1562q-55 56 -55 133t55 133q55 55 132 55t133 -55q55 -56 55 -133t-55 -133q-56 -55 -133 -55t-132 55zM715 1610q35 35 35 85t-35 85t-85 35q-49 0 -84 -35t-35 -85t35 -85
t84 -35q50 0 85 35z" />
    <glyph glyph-name="AE" unicode="&#xc6;" horiz-adv-x="1941" 
d="M433 561h544v766h-170zM977 443h-600l-214 -443h-141l702 1443h1091v-124h-702v-526h665v-122h-665v-547h702v-124h-838v443z" />
    <glyph glyph-name="Ccedilla" unicode="&#xc7;" horiz-adv-x="1371" 
d="M1167 985q-30 156 -155 255t-293 99q-230 0 -366 -166q-137 -167 -137 -448q0 -285 137 -453q136 -168 367 -168q173 0 294 87t153 236h137q-37 -200 -180 -319q-143 -118 -360 -130l-46 -119q208 0 208 -152q0 -76 -61 -124q-62 -49 -157 -50q-84 0 -139 17v80
q41 -16 122 -16q63 0 100 24q37 25 37 66q0 82 -155 82h-53v60l53 132q-275 17 -436 217q-161 201 -161 530q0 339 175 540q174 201 468 201q229 0 392 -135q164 -134 193 -346h-137z" />
    <glyph glyph-name="Egrave" unicode="&#xc8;" horiz-adv-x="1104" 
d="M225 1846h154l252 -295h-117zM1005 0h-871v1443h871v-124h-735v-519h698v-122h-698v-554h735v-124z" />
    <glyph glyph-name="Eacute" unicode="&#xc9;" horiz-adv-x="1104" 
d="M509 1551l252 295h154l-289 -295h-117zM1005 0h-871v1443h871v-124h-735v-519h698v-122h-698v-554h735v-124z" />
    <glyph glyph-name="Ecircumflex" unicode="&#xca;" horiz-adv-x="1104" 
d="M624 1846l283 -295h-131l-206 217h-2l-206 -217h-131l283 295h110zM1005 0h-871v1443h871v-124h-735v-519h698v-122h-698v-554h735v-124z" />
    <glyph glyph-name="Edieresis" unicode="&#xcb;" horiz-adv-x="1104" 
d="M326 1603q-28 28 -28 65q0 38 28 66q27 27 65 27t66 -27q27 -28 27 -66t-27 -65q-28 -27 -66 -27t-65 27zM681 1603q-27 27 -27 65t27 66q28 27 66 27t66 -27q27 -28 27 -66t-27 -65q-28 -27 -66 -27t-66 27zM1005 0h-871v1443h871v-124h-735v-519h698v-122h-698v-554
h735v-124z" />
    <glyph glyph-name="Igrave" unicode="&#xcc;" horiz-adv-x="406" 
d="M135 0v1443h136v-1443h-136zM-141 1846h154l252 -295h-117z" />
    <glyph glyph-name="Iacute" unicode="&#xcd;" horiz-adv-x="406" 
d="M134 0v1443h136v-1443h-136zM142 1551l252 295h154l-289 -295h-117z" />
    <glyph glyph-name="Icircumflex" unicode="&#xce;" horiz-adv-x="406" 
d="M135 0v1443h136v-1443h-136zM258 1846l283 -295h-131l-206 217h-2l-206 -217h-131l283 295h110z" />
    <glyph glyph-name="Idieresis" unicode="&#xcf;" horiz-adv-x="406" 
d="M135 0v1443h136v-1443h-136zM-40 1603q-28 28 -28 65q0 38 28 66q27 27 65 27t66 -27q27 -28 27 -66t-27 -65q-28 -27 -66 -27t-65 27zM315 1603q-27 27 -27 65t27 66q28 27 66 27t66 -27q27 -28 27 -66t-27 -65q-28 -27 -66 -27t-66 27z" />
    <glyph glyph-name="Eth" unicode="&#xd0;" horiz-adv-x="1429" 
d="M602 124q266 0 410 155q143 155 143 442q0 288 -143 443q-144 155 -410 155h-330v-514h312v-124h-312v-557h330zM610 1443q324 0 504 -189q180 -190 180 -532q0 -343 -180 -532q-179 -190 -504 -190h-475v681h-123v124h123v638h475z" />
    <glyph glyph-name="Ntilde" unicode="&#xd1;" horiz-adv-x="1393" 
d="M681 1620q-74 78 -113 78q-78 0 -78 -144h-91q0 109 43 171q44 63 123 63q75 0 150 -78q76 -79 111 -79q73 0 73 144h91q0 -107 -43 -170q-44 -64 -121 -64q-70 0 -145 79zM134 0v1443h135l846 -1205h7v1205h135v-1443h-132l-849 1206h-7v-1206h-135z" />
    <glyph glyph-name="Ograve" unicode="&#xd2;" horiz-adv-x="1465" 
d="M387 1846h154l252 -295h-117zM1210 1265q177 -201 177 -544t-177 -543q-177 -201 -479 -201t-478 201q-177 200 -177 543t177 544t478 201q302 0 479 -201zM355 1172q-139 -167 -139 -451q0 -283 139 -450q140 -167 376 -167q237 0 377 167q139 167 139 450
q0 284 -139 451q-140 167 -377 167t-376 -167z" />
    <glyph glyph-name="Oacute" unicode="&#xd3;" horiz-adv-x="1465" 
d="M671 1551l252 295h154l-289 -295h-117zM1210 1265q177 -201 177 -544t-177 -543q-177 -201 -479 -201t-478 201q-177 200 -177 543t177 544t478 201q302 0 479 -201zM355 1172q-139 -167 -139 -451q0 -283 139 -450q140 -167 376 -167q237 0 377 167q139 167 139 450
q0 284 -139 451q-140 167 -377 167t-376 -167z" />
    <glyph glyph-name="Ocircumflex" unicode="&#xd4;" horiz-adv-x="1465" 
d="M786 1846l283 -295h-131l-206 217h-2l-206 -217h-131l283 295h110zM1210 1265q177 -201 177 -544t-177 -543q-177 -201 -479 -201t-478 201q-177 200 -177 543t177 544t478 201q302 0 479 -201zM355 1172q-139 -167 -139 -451q0 -283 139 -450q140 -167 376 -167
q237 0 377 167q139 167 139 450q0 284 -139 451q-140 167 -377 167t-376 -167z" />
    <glyph glyph-name="Otilde" unicode="&#xd5;" horiz-adv-x="1465" 
d="M1210 1265q177 -201 177 -544t-177 -543q-177 -201 -479 -201t-478 201q-177 200 -177 543t177 544t478 201q302 0 479 -201zM355 1172q-139 -167 -139 -451q0 -283 139 -450q140 -167 376 -167q237 0 377 167q139 167 139 450q0 284 -139 451q-140 167 -377 167
t-376 -167zM717 1620q-74 78 -113 78q-78 0 -78 -144h-91q0 109 43 171q44 63 123 63q75 0 150 -78q76 -79 111 -79q73 0 73 144h91q0 -107 -43 -170q-44 -64 -121 -64q-70 0 -145 79z" />
    <glyph glyph-name="Odieresis" unicode="&#xd6;" horiz-adv-x="1465" 
d="M488 1603q-28 28 -28 65q0 38 28 66q27 27 65 27t66 -27q27 -28 27 -66t-27 -65q-28 -27 -66 -27t-65 27zM843 1603q-27 27 -27 65t27 66q28 27 66 27t66 -27q27 -28 27 -66t-27 -65q-28 -27 -66 -27t-66 27zM1210 1265q177 -201 177 -544t-177 -543q-177 -201 -479 -201
t-478 201q-177 200 -177 543t177 544t478 201q302 0 479 -201zM355 1172q-139 -167 -139 -451q0 -283 139 -450q140 -167 376 -167q237 0 377 167q139 167 139 450q0 284 -139 451q-140 167 -377 167t-376 -167z" />
    <glyph glyph-name="multiply" unicode="&#xd7;" horiz-adv-x="1219" 
d="M295 185l-81 80l314 315l-314 314l81 81l314 -314l313 313l81 -80l-313 -314l313 -314l-81 -81l-313 314z" />
    <glyph glyph-name="Oslash" unicode="&#xd8;" horiz-adv-x="1465" 
d="M418 208q129 -104 313 -104q237 0 377 167q139 167 139 450q0 253 -113 416zM1072 1211q-136 128 -341 128q-237 0 -376 -167t-139 -451q0 -276 133 -442zM1222 1250q165 -199 165 -529q0 -343 -177 -543q-177 -201 -479 -201q-233 0 -396 124l-126 -164l-79 59l132 171
q-186 202 -186 554q0 343 177 544t478 201q255 0 424 -147l130 167l77 -54z" />
    <glyph glyph-name="Ugrave" unicode="&#xd9;" horiz-adv-x="1386" 
d="M348 1846h154l252 -295h-117zM270 512q0 -184 112 -295q114 -113 310 -113t310 113q112 111 112 295v931h137v-939q0 -236 -149 -380q-153 -147 -410 -147t-409 147q-149 144 -149 380v939h136v-931z" />
    <glyph glyph-name="Uacute" unicode="&#xda;" horiz-adv-x="1386" 
d="M632 1551l252 295h154l-289 -295h-117zM270 512q0 -184 112 -295q114 -113 310 -113t310 113q112 111 112 295v931h137v-939q0 -236 -149 -380q-153 -147 -410 -147t-409 147q-149 144 -149 380v939h136v-931z" />
    <glyph glyph-name="Ucircumflex" unicode="&#xdb;" horiz-adv-x="1386" 
d="M747 1846l283 -295h-131l-206 217h-2l-206 -217h-131l283 295h110zM270 512q0 -184 112 -295q114 -113 310 -113t310 113q112 111 112 295v931h137v-939q0 -236 -149 -380q-153 -147 -410 -147t-409 147q-149 144 -149 380v939h136v-931z" />
    <glyph glyph-name="Udieresis" unicode="&#xdc;" horiz-adv-x="1386" 
d="M449 1603q-28 28 -28 65q0 38 28 66q27 27 65 27t66 -27q27 -28 27 -66t-27 -65q-28 -27 -66 -27t-65 27zM804 1603q-27 27 -27 65t27 66q28 27 66 27t66 -27q27 -28 27 -66t-27 -65q-28 -27 -66 -27t-66 27zM270 512q0 -184 112 -295q114 -113 310 -113t310 113
q112 111 112 295v931h137v-939q0 -236 -149 -380q-153 -147 -410 -147t-409 147q-149 144 -149 380v939h136v-931z" />
    <glyph glyph-name="Yacute" unicode="&#xdd;" horiz-adv-x="1219" 
d="M540 0v624l-517 819h156l427 -685h5l427 685h156l-517 -819v-624h-137zM548 1551l252 295h154l-289 -295h-117z" />
    <glyph glyph-name="Thorn" unicode="&#xde;" horiz-adv-x="1222" 
d="M297 1443v-274h386q184 0 304 -108q127 -114 127 -302q0 -189 -127 -303q-120 -108 -305 -108h-385v-348h-137v1443h137zM297 470h352q149 0 235 74q90 77 90 215q0 137 -90 213q-86 74 -235 74h-352v-576z" />
    <glyph glyph-name="germandbls" unicode="&#xdf;" horiz-adv-x="1174" 
d="M160 0v1089q0 178 108 283q109 104 294 104q178 0 290 -101q112 -100 112 -260q0 -126 -68 -221q-66 -93 -174 -123v-4q163 -20 258 -118q96 -99 96 -252q0 -183 -125 -298q-126 -115 -326 -115q-86 0 -156 14v119q62 -16 147 -16q145 0 237 83q92 82 92 214
q0 137 -101 217t-273 80h-77v129h70q121 0 196 79t75 206q0 111 -75 181q-75 69 -195 69q-129 0 -201 -75q-73 -74 -73 -207v-1077h-131z" />
    <glyph glyph-name="agrave" unicode="&#xe0;" horiz-adv-x="1048" 
d="M704 191q98 86 98 214v119l-315 -22q-277 -18 -277 -203q0 -87 70 -141t182 -54q145 0 242 87zM175 74q-100 87 -100 226q0 281 396 309l331 22v92q0 118 -71 183q-72 65 -202 65q-113 0 -187 -54q-74 -55 -92 -151h-127q8 142 123 232q114 91 284 91q185 0 295 -96
q109 -96 109 -259v-734h-126v206h-3q-44 -98 -144 -158q-101 -60 -225 -60q-161 0 -261 86zM470 1251l-256 301h153l220 -301h-117z" />
    <glyph glyph-name="aacute" unicode="&#xe1;" horiz-adv-x="1048" 
d="M704 191q98 86 98 214v119l-315 -22q-277 -18 -277 -203q0 -87 70 -141t182 -54q145 0 242 87zM175 74q-100 87 -100 226q0 281 396 309l331 22v92q0 118 -71 183q-72 65 -202 65q-113 0 -187 -54q-74 -55 -92 -151h-127q8 142 123 232q114 91 284 91q185 0 295 -96
q109 -96 109 -259v-734h-126v206h-3q-44 -98 -144 -158q-101 -60 -225 -60q-161 0 -261 86zM461 1251l220 301h153l-256 -301h-117z" />
    <glyph glyph-name="acircumflex" unicode="&#xe2;" horiz-adv-x="1048" 
d="M704 191q98 86 98 214v119l-315 -22q-277 -18 -277 -203q0 -87 70 -141t182 -54q145 0 242 87zM175 74q-100 87 -100 226q0 281 396 309l331 22v92q0 118 -71 183q-72 65 -202 65q-113 0 -187 -54q-74 -55 -92 -151h-127q8 142 123 232q114 91 284 91q185 0 295 -96
q109 -96 109 -259v-734h-126v206h-3q-44 -98 -144 -158q-101 -60 -225 -60q-161 0 -261 86zM848 1251h-127l-192 220h-5l-192 -220h-127l273 301h97z" />
    <glyph glyph-name="atilde" unicode="&#xe3;" horiz-adv-x="1048" 
d="M704 191q98 86 98 214v119l-315 -22q-277 -18 -277 -203q0 -87 70 -141t182 -54q145 0 242 87zM175 74q-100 87 -100 226q0 281 396 309l331 22v92q0 118 -71 183q-72 65 -202 65q-113 0 -187 -54q-74 -55 -92 -151h-127q8 142 123 232q114 91 284 91q185 0 295 -96
q109 -96 109 -259v-734h-126v206h-3q-44 -98 -144 -158q-101 -60 -225 -60q-161 0 -261 86zM516 1336q-74 78 -113 78q-78 0 -78 -144h-91q0 109 43 171q44 63 123 63q75 0 150 -78q76 -79 111 -79q73 0 73 144h91q0 -107 -43 -170q-44 -64 -121 -64q-70 0 -145 79z" />
    <glyph glyph-name="adieresis" unicode="&#xe4;" horiz-adv-x="1048" 
d="M704 191q98 86 98 214v119l-315 -22q-277 -18 -277 -203q0 -87 70 -141t182 -54q145 0 242 87zM175 74q-100 87 -100 226q0 281 396 309l331 22v92q0 118 -71 183q-72 65 -202 65q-113 0 -187 -54q-74 -55 -92 -151h-127q8 142 123 232q114 91 284 91q185 0 295 -96
q109 -96 109 -259v-734h-126v206h-3q-44 -98 -144 -158q-101 -60 -225 -60q-161 0 -261 86zM284 1286q-28 28 -28 65q0 38 28 66q27 27 65 27t66 -27q27 -28 27 -66t-27 -65q-28 -27 -66 -27t-65 27zM639 1286q-27 27 -27 65t27 66q28 27 66 27t66 -27q27 -28 27 -66
t-27 -65q-28 -27 -66 -27t-66 27z" />
    <glyph glyph-name="aring" unicode="&#xe5;" horiz-adv-x="1048" 
d="M704 191q98 86 98 214v119l-315 -22q-277 -18 -277 -203q0 -87 70 -141t182 -54q145 0 242 87zM175 74q-100 87 -100 226q0 281 396 309l331 22v92q0 118 -71 183q-72 65 -202 65q-113 0 -187 -54q-74 -55 -92 -151h-127q8 142 123 232q114 91 284 91q185 0 295 -96
q109 -96 109 -259v-734h-126v206h-3q-44 -98 -144 -158q-101 -60 -225 -60q-161 0 -261 86zM395 1261q-55 56 -55 133t55 133q55 55 132 55t133 -55q55 -56 55 -133t-55 -133q-56 -55 -133 -55t-132 55zM612 1309q35 35 35 85t-35 85t-85 35q-49 0 -84 -35t-35 -85t35 -85
t84 -35q50 0 85 35z" />
    <glyph glyph-name="ae" unicode="&#xe6;" horiz-adv-x="1795" 
d="M880 246h-8q-119 -258 -418 -258q-172 0 -276 84q-103 84 -103 224q0 136 101 214q102 79 292 89l333 19v98q0 116 -76 186q-76 69 -202 69q-119 0 -193 -55q-75 -55 -86 -150h-130q12 144 122 233q112 90 283 90q142 0 242 -64q101 -66 129 -180h8q108 244 386 244
q205 0 325 -141t120 -381v-58h-795v-10q0 -179 96 -287q96 -107 256 -107q116 0 195 55q78 53 102 145h132q-25 -141 -142 -228q-119 -89 -289 -89q-297 0 -404 258zM1036 874q-93 -97 -102 -258h658q-2 163 -88 259q-86 97 -229 97q-146 0 -239 -98zM701 192
q100 88 100 215v104l-318 -19q-273 -15 -273 -194q0 -87 68 -140q68 -54 179 -54q145 0 244 88z" />
    <glyph glyph-name="ccedilla" unicode="&#xe7;" horiz-adv-x="1046" 
d="M992 332q-22 -143 -127 -235q-107 -94 -266 -107l-50 -131q208 0 208 -152q0 -76 -61 -124q-62 -49 -157 -50q-84 0 -139 17v80q41 -16 122 -16q63 0 100 24q37 25 37 66q0 82 -155 82h-53v60l58 143q-204 14 -324 161q-121 148 -121 389q0 250 133 400q132 150 351 150
q182 0 306 -104q117 -98 137 -247h-131q-20 103 -101 166q-85 67 -210 67q-158 0 -254 -118t-96 -314q0 -199 96 -316q96 -116 255 -116q124 0 206 60q82 59 105 165h131z" />
    <glyph glyph-name="egrave" unicode="&#xe8;" horiz-adv-x="1075" 
d="M487 1251l-256 301h153l220 -301h-117zM304 873q-94 -98 -103 -259h670q-2 161 -92 259q-91 99 -237 99q-145 0 -238 -99zM995 305q-24 -139 -146 -227q-123 -90 -297 -90q-224 0 -356 147q-132 148 -132 401q0 251 131 402q132 151 349 151q212 0 339 -142
q126 -143 126 -383v-58h-808v-7q0 -182 97 -288q96 -106 257 -106q119 0 203 56q82 54 106 144h131z" />
    <glyph glyph-name="eacute" unicode="&#xe9;" horiz-adv-x="1075" 
d="M478 1251l220 301h153l-256 -301h-117zM304 873q-94 -98 -103 -259h670q-2 161 -92 259q-91 99 -237 99q-145 0 -238 -99zM995 305q-24 -139 -146 -227q-123 -90 -297 -90q-224 0 -356 147q-132 148 -132 401q0 251 131 402q132 151 349 151q212 0 339 -142
q126 -143 126 -383v-58h-808v-7q0 -182 97 -288q96 -106 257 -106q119 0 203 56q82 54 106 144h131z" />
    <glyph glyph-name="ecircumflex" unicode="&#xea;" horiz-adv-x="1075" 
d="M865 1251h-127l-192 220h-5l-192 -220h-127l273 301h97zM304 873q-94 -98 -103 -259h670q-2 161 -92 259q-91 99 -237 99q-145 0 -238 -99zM995 305q-24 -139 -146 -227q-123 -90 -297 -90q-224 0 -356 147q-132 148 -132 401q0 251 131 402q132 151 349 151
q212 0 339 -142q126 -143 126 -383v-58h-808v-7q0 -182 97 -288q96 -106 257 -106q119 0 203 56q82 54 106 144h131z" />
    <glyph glyph-name="edieresis" unicode="&#xeb;" horiz-adv-x="1075" 
d="M304 873q-94 -98 -103 -259h670q-2 161 -92 259q-91 99 -237 99q-145 0 -238 -99zM995 305q-24 -139 -146 -227q-123 -90 -297 -90q-224 0 -356 147q-132 148 -132 401q0 251 131 402q132 151 349 151q212 0 339 -142q126 -143 126 -383v-58h-808v-7q0 -182 97 -288
q96 -106 257 -106q119 0 203 56q82 54 106 144h131zM301 1286q-28 28 -28 65q0 38 28 66q27 27 65 27t66 -27q27 -28 27 -66t-27 -65q-28 -27 -66 -27t-65 27zM656 1286q-27 27 -27 65t27 66q28 27 66 27t66 -27q27 -28 27 -66t-27 -65q-28 -27 -66 -27t-66 27z" />
    <glyph glyph-name="igrave" unicode="&#xec;" horiz-adv-x="390" 
d="M138 1251l-256 301h153l220 -301h-117zM129 1077h132v-1077h-132v1077z" />
    <glyph glyph-name="iacute" unicode="&#xed;" horiz-adv-x="390" 
d="M128 1251l220 301h153l-256 -301h-117zM128 1077h132v-1077h-132v1077z" />
    <glyph glyph-name="icircumflex" unicode="&#xee;" horiz-adv-x="390" 
d="M516 1251h-127l-192 220h-5l-192 -220h-127l273 301h97zM129 1077h132v-1077h-132v1077z" />
    <glyph glyph-name="idieresis" unicode="&#xef;" horiz-adv-x="390" 
d="M129 1077h132v-1077h-132v1077zM-48 1286q-28 28 -28 65q0 38 28 66q27 27 65 27t66 -27q27 -28 27 -66t-27 -65q-28 -27 -66 -27t-65 27zM307 1286q-27 27 -27 65t27 66q28 27 66 27t66 -27q27 -28 27 -66t-27 -65q-28 -27 -66 -27t-66 27z" />
    <glyph glyph-name="eth" unicode="&#xf0;" horiz-adv-x="1131" 
d="M209 129q-132 148 -132 396q0 238 130 384q129 146 339 146q105 0 198 -53q92 -54 134 -140h11q-52 226 -200 393l-282 -102l-29 88l246 89q-72 77 -214 180h164q95 -66 166 -141l257 92l29 -88l-221 -78q233 -297 233 -729q0 -269 -128 -427q-128 -157 -347 -157
q-222 0 -354 147zM309 823q-97 -114 -97 -298q0 -191 96 -308q97 -116 255 -116q157 0 252 115q96 115 96 305q0 189 -95 303q-96 113 -255 113q-156 0 -252 -114z" />
    <glyph glyph-name="ntilde" unicode="&#xf1;" horiz-adv-x="1111" 
d="M547 1336q-74 78 -113 78q-78 0 -78 -144h-91q0 109 43 171q44 63 123 63q75 0 150 -78q76 -79 111 -79q73 0 73 144h91q0 -107 -43 -170q-44 -64 -121 -64q-70 0 -145 79zM118 1077h124v-201h4q95 213 362 213q178 0 283 -106q106 -107 106 -290v-693h-132v672
q0 142 -78 221q-78 78 -216 78q-144 0 -232 -94q-89 -93 -89 -244v-633h-132v1077z" />
    <glyph glyph-name="ograve" unicode="&#xf2;" horiz-adv-x="1109" 
d="M496 1251l-256 301h153l220 -301h-117zM198 138q-134 149 -134 401q0 251 134 401q133 149 355 149q223 0 356 -149q134 -150 134 -401t-134 -401q-133 -150 -356 -150q-222 0 -355 150zM813 222q95 116 95 317t-95 317q-95 115 -260 115q-164 0 -259 -115
q-95 -116 -95 -317t95 -317q95 -115 259 -115q165 0 260 115z" />
    <glyph glyph-name="oacute" unicode="&#xf3;" horiz-adv-x="1109" 
d="M487 1251l220 301h153l-256 -301h-117zM198 138q-134 149 -134 401q0 251 134 401q133 149 355 149q223 0 356 -149q134 -150 134 -401t-134 -401q-133 -150 -356 -150q-222 0 -355 150zM813 222q95 116 95 317t-95 317q-95 115 -260 115q-164 0 -259 -115
q-95 -116 -95 -317t95 -317q95 -115 259 -115q165 0 260 115z" />
    <glyph glyph-name="ocircumflex" unicode="&#xf4;" horiz-adv-x="1109" 
d="M874 1251h-127l-192 220h-5l-192 -220h-127l273 301h97zM198 138q-134 149 -134 401q0 251 134 401q133 149 355 149q223 0 356 -149q134 -150 134 -401t-134 -401q-133 -150 -356 -150q-222 0 -355 150zM813 222q95 116 95 317t-95 317q-95 115 -260 115
q-164 0 -259 -115q-95 -116 -95 -317t95 -317q95 -115 259 -115q165 0 260 115z" />
    <glyph glyph-name="otilde" unicode="&#xf5;" horiz-adv-x="1109" 
d="M542 1336q-74 78 -113 78q-78 0 -78 -144h-91q0 109 43 171q44 63 123 63q75 0 150 -78q76 -79 111 -79q73 0 73 144h91q0 -107 -43 -170q-44 -64 -121 -64q-70 0 -145 79zM198 138q-134 149 -134 401q0 251 134 401q133 149 355 149q223 0 356 -149q134 -150 134 -401
t-134 -401q-133 -150 -356 -150q-222 0 -355 150zM813 222q95 116 95 317t-95 317q-95 115 -260 115q-164 0 -259 -115q-95 -116 -95 -317t95 -317q95 -115 259 -115q165 0 260 115z" />
    <glyph glyph-name="odieresis" unicode="&#xf6;" horiz-adv-x="1109" 
d="M310 1286q-28 28 -28 65q0 38 28 66q27 27 65 27t66 -27q27 -28 27 -66t-27 -65q-28 -27 -66 -27t-65 27zM665 1286q-27 27 -27 65t27 66q28 27 66 27t66 -27q27 -28 27 -66t-27 -65q-28 -27 -66 -27t-66 27zM198 138q-134 149 -134 401q0 251 134 401q133 149 355 149
q223 0 356 -149q134 -150 134 -401t-134 -401q-133 -150 -356 -150q-222 0 -355 150zM813 222q95 116 95 317t-95 317q-95 115 -260 115q-164 0 -259 -115q-95 -116 -95 -317t95 -317q95 -115 259 -115q165 0 260 115z" />
    <glyph glyph-name="divide" unicode="&#xf7;" horiz-adv-x="1219" 
d="M533 845q-31 31 -31 77t31 76q30 30 76 30q45 0 76 -30q31 -31 31 -76q0 -46 -31 -77q-31 -30 -76 -30q-46 0 -76 30zM533 140q-31 30 -31 76t31 76q30 31 76 31q45 0 76 -31q31 -30 31 -76t-31 -76q-31 -31 -76 -31q-46 0 -76 31zM108 516v113h1001v-113h-1001z" />
    <glyph glyph-name="oslash" unicode="&#xf8;" horiz-adv-x="1109" 
d="M360 162q81 -55 193 -55q165 0 260 115q95 116 95 317q0 183 -81 298zM760 906q-87 65 -207 65q-164 0 -259 -115q-95 -116 -95 -317q0 -193 89 -309zM903 946q140 -149 140 -407q0 -251 -134 -401q-133 -150 -356 -150q-152 0 -264 72l-81 -117l-82 55l86 124
q-148 151 -148 417q0 251 134 401q133 149 355 149q162 0 278 -81l81 116l79 -51z" />
    <glyph glyph-name="ugrave" unicode="&#xf9;" horiz-adv-x="1111" 
d="M495 1251l-256 301h153l220 -301h-117zM992 0h-125v202h-3q-45 -100 -141 -156q-98 -58 -225 -58q-176 0 -281 106q-105 107 -105 289v694h132v-672q0 -143 78 -221q76 -77 214 -77q142 0 232 92q91 93 91 245v633h133v-1077z" />
    <glyph glyph-name="uacute" unicode="&#xfa;" horiz-adv-x="1111" 
d="M486 1251l220 301h153l-256 -301h-117zM992 0h-125v202h-3q-45 -100 -141 -156q-98 -58 -225 -58q-176 0 -281 106q-105 107 -105 289v694h132v-672q0 -143 78 -221q76 -77 214 -77q142 0 232 92q91 93 91 245v633h133v-1077z" />
    <glyph glyph-name="ucircumflex" unicode="&#xfb;" horiz-adv-x="1111" 
d="M873 1251h-127l-192 220h-5l-192 -220h-127l273 301h97zM992 0h-125v202h-3q-45 -100 -141 -156q-98 -58 -225 -58q-176 0 -281 106q-105 107 -105 289v694h132v-672q0 -143 78 -221q76 -77 214 -77q142 0 232 92q91 93 91 245v633h133v-1077z" />
    <glyph glyph-name="udieresis" unicode="&#xfc;" horiz-adv-x="1111" 
d="M992 0h-125v202h-3q-45 -100 -141 -156q-98 -58 -225 -58q-176 0 -281 106q-105 107 -105 289v694h132v-672q0 -143 78 -221q76 -77 214 -77q142 0 232 92q91 93 91 245v633h133v-1077zM309 1286q-28 28 -28 65q0 38 28 66q27 27 65 27t66 -27q27 -28 27 -66t-27 -65
q-28 -27 -66 -27t-65 27zM664 1286q-27 27 -27 65t27 66q28 27 66 27t66 -27q27 -28 27 -66t-27 -65q-28 -27 -66 -27t-66 27z" />
    <glyph glyph-name="yacute" unicode="&#xfd;" horiz-adv-x="980" 
d="M132 -367v113q30 -7 65 -7q73 0 119 43q45 42 81 144l24 67l-405 1084h142l330 -943h3l331 943h140l-420 -1129q-70 -190 -142 -256q-71 -67 -202 -67q-34 0 -66 8zM424 1251l220 301h153l-256 -301h-117z" />
    <glyph glyph-name="thorn" unicode="&#xfe;" horiz-adv-x="1153" 
d="M963 943q124 -153 124 -404t-125 -404q-124 -153 -329 -153q-125 0 -222 59q-97 60 -141 164h-11v-576h-131v1867h125v-639h12q50 111 148 174q98 64 220 64q205 0 330 -152zM858 219q93 118 93 319q0 202 -93 320q-93 119 -252 119t-255 -120t-96 -318t96 -318t254 -120
q160 0 253 118z" />
    <glyph glyph-name="ydieresis" unicode="&#xff;" horiz-adv-x="980" 
d="M132 -367v113q30 -7 65 -7q73 0 119 43q45 42 81 144l24 67l-405 1084h142l330 -943h3l331 943h140l-420 -1129q-70 -190 -142 -256q-71 -67 -202 -67q-34 0 -66 8zM247 1286q-28 28 -28 65q0 38 28 66q27 27 65 27t66 -27q27 -28 27 -66t-27 -65q-28 -27 -66 -27t-65 27
zM602 1286q-27 27 -27 65t27 66q28 27 66 27t66 -27q27 -28 27 -66t-27 -65q-28 -27 -66 -27t-66 27z" />
    <glyph glyph-name="Amacron" unicode="&#x100;" horiz-adv-x="1262" 
d="M933 442h-606l-160 -442h-145l540 1443h136l539 -1443h-144zM368 560h524l-259 714h-6zM935 1633h-610v85h610v-85z" />
    <glyph glyph-name="amacron" unicode="&#x101;" horiz-adv-x="1048" 
d="M704 191q98 86 98 214v119l-315 -22q-277 -18 -277 -203q0 -87 70 -141t182 -54q145 0 242 87zM175 74q-100 87 -100 226q0 281 396 309l331 22v92q0 118 -71 183q-72 65 -202 65q-113 0 -187 -54q-74 -55 -92 -151h-127q8 142 123 232q114 91 284 91q185 0 295 -96
q109 -96 109 -259v-734h-126v206h-3q-44 -98 -144 -158q-101 -60 -225 -60q-161 0 -261 86zM834 1315h-618v85h618v-85z" />
    <glyph glyph-name="Abreve" unicode="&#x102;" horiz-adv-x="1262" 
d="M933 442h-606l-160 -442h-145l540 1443h136l539 -1443h-144zM368 560h524l-259 714h-6zM432 1823q0 -80 56 -134q56 -55 142 -55t142 55q56 54 56 134h94q0 -121 -81 -197q-82 -75 -211 -75t-210 75q-82 76 -82 197h94z" />
    <glyph glyph-name="abreve" unicode="&#x103;" horiz-adv-x="1048" 
d="M704 191q98 86 98 214v119l-315 -22q-277 -18 -277 -203q0 -87 70 -141t182 -54q145 0 242 87zM175 74q-100 87 -100 226q0 281 396 309l331 22v92q0 118 -71 183q-72 65 -202 65q-113 0 -187 -54q-74 -55 -92 -151h-127q8 142 123 232q114 91 284 91q185 0 295 -96
q109 -96 109 -259v-734h-126v206h-3q-44 -98 -144 -158q-101 -60 -225 -60q-161 0 -261 86zM322 1530q0 -86 58 -143t146 -57t146 57t58 143h97q0 -129 -84 -208q-83 -78 -217 -78t-217 78q-84 79 -84 208h97z" />
    <glyph glyph-name="Aogonek" unicode="&#x104;" horiz-adv-x="1262" 
d="M1007 -364q-61 58 -61 151q0 135 141 232l-154 423h-606l-160 -442h-145l540 1443h136l536 -1434q-164 -80 -164 -203q0 -56 36 -90q36 -35 94 -35q19 0 37 2v-99q-27 -7 -71 -7q-97 0 -159 59zM368 560h524l-256 704h-12z" />
    <glyph glyph-name="aogonek" unicode="&#x105;" horiz-adv-x="1048" 
d="M711 -367q-60 56 -60 147q0 144 157 240v186h-3q-44 -98 -144 -158q-101 -60 -225 -60q-161 0 -261 86q-100 87 -100 226q0 281 396 309l331 22v92q0 118 -71 183q-72 65 -202 65q-113 0 -187 -54q-74 -55 -92 -151h-127q8 142 123 232q114 91 284 91q185 0 295 -96
q109 -96 109 -259v-722q-162 -84 -162 -206q0 -56 35 -91q35 -34 93 -34q18 0 34 2v-99q-24 -7 -67 -7q-97 0 -156 56zM704 191q98 86 98 214v119l-315 -22q-277 -18 -277 -203q0 -87 70 -141t182 -54q145 0 242 87z" />
    <glyph glyph-name="Cacute" unicode="&#x106;" horiz-adv-x="1371" 
d="M659 1552l252 295h154l-289 -295h-117zM250 180q-174 202 -174 545q0 339 175 540q174 201 468 201q229 0 392 -135q164 -134 193 -346h-137q-30 156 -155 255t-293 99q-230 0 -366 -166q-137 -167 -137 -448q0 -285 137 -453q136 -168 367 -168q173 0 294 87t153 236
h137q-38 -211 -194 -330q-156 -120 -391 -120q-295 0 -469 203z" />
    <glyph glyph-name="cacute" unicode="&#x107;" horiz-adv-x="1046" 
d="M860 738q-20 103 -101 166q-85 67 -210 67q-158 0 -254 -118t-96 -314q0 -199 96 -316q96 -116 255 -116q124 0 206 60q82 59 105 165h131q-23 -154 -143 -248q-122 -96 -299 -96q-221 0 -353 148q-133 149 -133 403q0 250 133 400q132 150 351 150q182 0 306 -104
q117 -98 137 -247h-131zM482 1251l220 301h153l-256 -301h-117z" />
    <glyph glyph-name="Ccircumflex" unicode="&#x108;" horiz-adv-x="1371" 
d="M250 180q-174 202 -174 545q0 339 175 540q174 201 468 201q229 0 392 -135q164 -134 193 -346h-137q-30 156 -155 255t-293 99q-230 0 -366 -166q-137 -167 -137 -448q0 -285 137 -453q136 -168 367 -168q173 0 294 87t153 236h137q-38 -211 -194 -330
q-156 -120 -391 -120q-295 0 -469 203zM774 1847l283 -295h-131l-206 217h-2l-206 -217h-131l283 295h110z" />
    <glyph glyph-name="ccircumflex" unicode="&#x109;" horiz-adv-x="1046" 
d="M869 1251h-127l-192 220h-5l-192 -220h-127l273 301h97zM860 738q-20 103 -101 166q-85 67 -210 67q-158 0 -254 -118t-96 -314q0 -199 96 -316q96 -116 255 -116q124 0 206 60q82 59 105 165h131q-23 -154 -143 -248q-122 -96 -299 -96q-221 0 -353 148
q-133 149 -133 403q0 250 133 400q132 150 351 150q182 0 306 -104q117 -98 137 -247h-131z" />
    <glyph glyph-name="Cdotaccent" unicode="&#x10a;" horiz-adv-x="1371" 
d="M647 1606q-30 30 -30 72t30 72t72 30t72 -30t30 -72t-30 -72t-72 -30t-72 30zM250 180q-174 202 -174 545q0 339 175 540q174 201 468 201q229 0 392 -135q164 -134 193 -346h-137q-30 156 -155 255t-293 99q-230 0 -366 -166q-137 -167 -137 -448q0 -285 137 -453
q136 -168 367 -168q173 0 294 87t153 236h137q-38 -211 -194 -330q-156 -120 -391 -120q-295 0 -469 203z" />
    <glyph glyph-name="cdotaccent" unicode="&#x10b;" horiz-adv-x="1046" 
d="M860 738q-20 103 -101 166q-85 67 -210 67q-158 0 -254 -118t-96 -314q0 -199 96 -316q96 -116 255 -116q124 0 206 60q82 59 105 165h131q-23 -154 -143 -248q-122 -96 -299 -96q-221 0 -353 148q-133 149 -133 403q0 250 133 400q132 150 351 150q182 0 306 -104
q117 -98 137 -247h-131zM475 1290q-31 30 -31 73t31 73q30 31 73 31t73 -31q31 -30 31 -73t-31 -73q-30 -31 -73 -31t-73 31z" />
    <glyph glyph-name="Ccaron" unicode="&#x10c;" horiz-adv-x="1371" 
d="M250 180q-174 202 -174 545q0 339 175 540q174 201 468 201q229 0 392 -135q164 -134 193 -346h-137q-30 156 -155 255t-293 99q-230 0 -366 -166q-137 -167 -137 -448q0 -285 137 -453q136 -168 367 -168q173 0 294 87t153 236h137q-38 -211 -194 -330
q-156 -120 -391 -120q-295 0 -469 203zM381 1847h131l206 -217h2l206 217h131l-283 -295h-110z" />
    <glyph glyph-name="ccaron" unicode="&#x10d;" horiz-adv-x="1046" 
d="M499 1251l-273 301h127l192 -219h5l192 219h127l-273 -301h-97zM860 738q-20 103 -101 166q-85 67 -210 67q-158 0 -254 -118t-96 -314q0 -199 96 -316q96 -116 255 -116q124 0 206 60q82 59 105 165h131q-23 -154 -143 -248q-122 -96 -299 -96q-221 0 -353 148
q-133 149 -133 403q0 250 133 400q132 150 351 150q182 0 306 -104q117 -98 137 -247h-131z" />
    <glyph glyph-name="Dcaron" unicode="&#x10e;" horiz-adv-x="1370" 
d="M212 1846h131l206 -217h2l206 217h131l-283 -295h-110zM609 1443q324 0 504 -189q180 -190 180 -532q0 -343 -180 -532q-179 -190 -504 -190h-475v1443h475zM271 124h330q266 0 410 155q143 155 143 442q0 288 -143 443q-144 155 -410 155h-330v-1195z" />
    <glyph glyph-name="dcaron" unicode="&#x10f;" horiz-adv-x="1274" 
d="M1303 1496l-24 -444h-85v444h109zM193 140q-129 153 -129 399q0 245 129 398q127 152 329 152q128 0 229 -64q97 -63 141 -169h3v650h133v-1506h-126v229h-3q-47 -111 -145 -175q-100 -66 -229 -66q-203 0 -332 152zM295 852q-96 -119 -96 -313t96 -313t251 -119t253 120
q97 120 97 312q0 191 -97 312q-98 120 -253 120t-251 -119z" />
    <glyph glyph-name="Dcroat" unicode="&#x110;" horiz-adv-x="1476" 
d="M668 124q266 0 410 155q143 155 143 442q0 288 -143 443q-144 155 -410 155h-330v-514h312v-124h-312v-557h330zM676 1443q324 0 504 -189q180 -190 180 -532q0 -343 -180 -532q-179 -190 -504 -190h-475v681h-123v124h123v638h475z" />
    <glyph glyph-name="dcroat" unicode="&#x111;" horiz-adv-x="1183" 
d="M816 220q95 120 95 319q0 198 -96 318t-254 120q-159 0 -254 -119t-95 -319q0 -201 95 -319q95 -119 254 -119t255 119zM1158 1285h-119v-1285h-125v215h-12q-48 -108 -145 -170q-99 -63 -223 -63q-206 0 -332 153q-125 152 -125 403q0 250 126 404q125 153 331 153
q123 0 221 -61q96 -62 142 -167h11v418h-272v98h272v163h131v-163h119v-98z" />
    <glyph glyph-name="Emacron" unicode="&#x112;" horiz-adv-x="1104" 
d="M1005 0h-871v1443h871v-124h-735v-519h698v-122h-698v-554h735v-124zM874 1633h-610v85h610v-85z" />
    <glyph glyph-name="emacron" unicode="&#x113;" horiz-adv-x="1075" 
d="M304 873q-94 -98 -103 -259h670q-2 161 -92 259q-91 99 -237 99q-145 0 -238 -99zM995 305q-24 -139 -146 -227q-123 -90 -297 -90q-224 0 -356 147q-132 148 -132 401q0 251 131 402q132 151 349 151q212 0 339 -142q126 -143 126 -383v-58h-808v-7q0 -182 97 -288
q96 -106 257 -106q119 0 203 56q82 54 106 144h131zM851 1315h-618v85h618v-85z" />
    <glyph glyph-name="Ebreve" unicode="&#x114;" horiz-adv-x="1104" 
d="M1005 0h-871v1443h871v-124h-735v-519h698v-122h-698v-554h735v-124zM371 1823q0 -80 56 -134q56 -55 142 -55t142 55q56 54 56 134h94q0 -121 -81 -197q-82 -75 -211 -75t-210 75q-82 76 -82 197h94z" />
    <glyph glyph-name="ebreve" unicode="&#x115;" horiz-adv-x="1075" 
d="M304 873q-94 -98 -103 -259h670q-2 161 -92 259q-91 99 -237 99q-145 0 -238 -99zM995 305q-24 -139 -146 -227q-123 -90 -297 -90q-224 0 -356 147q-132 148 -132 401q0 251 131 402q132 151 349 151q212 0 339 -142q126 -143 126 -383v-58h-808v-7q0 -182 97 -288
q96 -106 257 -106q119 0 203 56q82 54 106 144h131zM339 1530q0 -86 58 -143t146 -57t146 57t58 143h97q0 -129 -84 -208q-83 -78 -217 -78t-217 78q-84 79 -84 208h97z" />
    <glyph glyph-name="Edotaccent" unicode="&#x116;" horiz-adv-x="1104" 
d="M497 1605q-30 30 -30 72t30 72t72 30t72 -30t30 -72t-30 -72t-72 -30t-72 30zM1005 0h-871v1443h871v-124h-735v-519h698v-122h-698v-554h735v-124z" />
    <glyph glyph-name="edotaccent" unicode="&#x117;" horiz-adv-x="1075" 
d="M471 1290q-31 30 -31 73t31 73q30 31 73 31t73 -31q31 -30 31 -73t-31 -73q-30 -31 -73 -31t-73 31zM304 873q-94 -98 -103 -259h670q-2 161 -92 259q-91 99 -237 99q-145 0 -238 -99zM995 305q-24 -139 -146 -227q-123 -90 -297 -90q-224 0 -356 147q-132 148 -132 401
q0 251 131 402q132 151 349 151q212 0 339 -142q126 -143 126 -383v-58h-808v-7q0 -182 97 -288q96 -106 257 -106q119 0 203 56q82 54 106 144h131z" />
    <glyph glyph-name="Eogonek" unicode="&#x118;" horiz-adv-x="1104" 
d="M134 0v1443h871v-124h-735v-519h698v-122h-698v-554h735v-98q-187 -89 -187 -223q0 -54 36 -88q37 -34 95 -34q40 0 56 6v-97q-23 -13 -90 -13q-100 0 -162 56q-61 56 -61 147q0 124 126 220h-684z" />
    <glyph glyph-name="eogonek" unicode="&#x119;" horiz-adv-x="1075" 
d="M590 -364q-61 59 -61 148q0 110 108 208v2q-34 -6 -85 -6q-225 0 -356 148q-132 147 -132 400q0 251 131 402q132 151 349 151q212 0 339 -142q126 -143 126 -383v-58h-808v-7q0 -181 96 -287q96 -107 258 -107q117 0 201 54q83 54 108 146h131q-23 -139 -183 -266
q-162 -122 -162 -232q0 -52 36 -86q35 -34 91 -34q37 0 55 6v-103q-23 -13 -89 -13q-92 0 -153 59zM304 873q-94 -98 -103 -259h670q-1 160 -92 259t-237 99q-145 0 -238 -99z" />
    <glyph glyph-name="Ecaron" unicode="&#x11a;" horiz-adv-x="1104" 
d="M231 1846h131l206 -217h2l206 217h131l-283 -295h-110zM1005 0h-871v1443h871v-124h-735v-519h698v-122h-698v-554h735v-124z" />
    <glyph glyph-name="ecaron" unicode="&#x11b;" horiz-adv-x="1075" 
d="M495 1251l-273 301h127l192 -219h5l192 219h127l-273 -301h-97zM304 873q-94 -98 -103 -259h670q-2 161 -92 259q-91 99 -237 99q-145 0 -238 -99zM995 305q-24 -139 -146 -227q-123 -90 -297 -90q-224 0 -356 147q-132 148 -132 401q0 251 131 402q132 151 349 151
q212 0 339 -142q126 -143 126 -383v-58h-808v-7q0 -182 97 -288q96 -106 257 -106q119 0 203 56q82 54 106 144h131z" />
    <glyph glyph-name="Gcircumflex" unicode="&#x11c;" horiz-adv-x="1409" 
d="M779 1846l283 -295h-131l-206 217h-2l-206 -217h-131l283 295h110zM1323 586q0 -286 -159 -447q-159 -162 -440 -162q-293 0 -471 206q-177 206 -177 547q0 335 176 536q177 200 472 200q227 0 388 -125t202 -332h-142q-44 154 -164 242q-119 88 -284 88
q-235 0 -371 -163q-137 -164 -137 -446q0 -286 138 -456t370 -170q209 0 336 123t127 327v51h-448v120h584v-139z" />
    <glyph glyph-name="gcircumflex" unicode="&#x11d;" horiz-adv-x="1144" 
d="M876 1251h-127l-192 220h-5l-192 -220h-127l273 301h97zM795 233q97 118 97 308q0 191 -97 311q-97 119 -253 119q-154 0 -249 -118q-94 -118 -94 -312q0 -193 94 -310t249 -117q156 0 253 119zM255 -299q-118 76 -138 200h138q20 -73 101 -116q83 -44 203 -44
q151 0 242 72q91 73 91 197v219h-3q-46 -106 -143 -169q-100 -65 -227 -65q-203 0 -329 151t-126 395q0 247 126 397q126 151 332 151q127 0 228 -65q98 -63 146 -170h2v223h126v-1057q0 -184 -128 -290q-128 -105 -345 -105q-178 0 -296 76z" />
    <glyph glyph-name="Gbreve" unicode="&#x11e;" horiz-adv-x="1409" 
d="M1323 586q0 -286 -159 -447q-159 -162 -440 -162q-293 0 -471 206q-177 206 -177 547q0 335 176 536q177 200 472 200q227 0 388 -125t202 -332h-142q-44 154 -164 242q-119 88 -284 88q-235 0 -371 -163q-137 -164 -137 -446q0 -286 138 -456t370 -170q209 0 336 123
t127 327v51h-448v120h584v-139zM526 1823q0 -80 56 -134q56 -55 142 -55t142 55q56 54 56 134h94q0 -121 -81 -197q-82 -75 -211 -75t-210 75q-82 76 -82 197h94z" />
    <glyph glyph-name="gbreve" unicode="&#x11f;" horiz-adv-x="1144" 
d="M350 1530q0 -86 58 -143t146 -57t146 57t58 143h97q0 -129 -84 -208q-83 -78 -217 -78t-217 78q-84 79 -84 208h97zM795 233q97 118 97 308q0 191 -97 311q-97 119 -253 119q-154 0 -249 -118q-94 -118 -94 -312q0 -193 94 -310t249 -117q156 0 253 119zM255 -299
q-118 76 -138 200h138q20 -73 101 -116q83 -44 203 -44q151 0 242 72q91 73 91 197v219h-3q-46 -106 -143 -169q-100 -65 -227 -65q-203 0 -329 151t-126 395q0 247 126 397q126 151 332 151q127 0 228 -65q98 -63 146 -170h2v223h126v-1057q0 -184 -128 -290
q-128 -105 -345 -105q-178 0 -296 76z" />
    <glyph glyph-name="Gdotaccent" unicode="&#x120;" horiz-adv-x="1409" 
d="M652 1605q-30 30 -30 72t30 72t72 30t72 -30t30 -72t-30 -72t-72 -30t-72 30zM1323 586q0 -286 -159 -447q-159 -162 -440 -162q-293 0 -471 206q-177 206 -177 547q0 335 176 536q177 200 472 200q227 0 388 -125t202 -332h-142q-44 154 -164 242q-119 88 -284 88
q-235 0 -371 -163q-137 -164 -137 -446q0 -286 138 -456t370 -170q209 0 336 123t127 327v51h-448v120h584v-139z" />
    <glyph glyph-name="gdotaccent" unicode="&#x121;" horiz-adv-x="1144" 
d="M482 1290q-31 30 -31 73t31 73q30 31 73 31t73 -31q31 -30 31 -73t-31 -73q-30 -31 -73 -31t-73 31zM795 233q97 118 97 308q0 191 -97 311q-97 119 -253 119q-154 0 -249 -118q-94 -118 -94 -312q0 -193 94 -310t249 -117q156 0 253 119zM255 -299q-118 76 -138 200h138
q20 -73 101 -116q83 -44 203 -44q151 0 242 72q91 73 91 197v219h-3q-46 -106 -143 -169q-100 -65 -227 -65q-203 0 -329 151t-126 395q0 247 126 397q126 151 332 151q127 0 228 -65q98 -63 146 -170h2v223h126v-1057q0 -184 -128 -290q-128 -105 -345 -105q-178 0 -296 76
z" />
    <glyph glyph-name="uni0122" unicode="&#x122;" horiz-adv-x="1409" 
d="M591 -520l95 358h121l-116 -358h-100zM1323 586q0 -286 -159 -447q-159 -162 -440 -162q-293 0 -471 206q-177 206 -177 547q0 335 176 536q177 200 472 200q227 0 388 -125t202 -332h-142q-44 154 -164 242q-119 88 -284 88q-235 0 -371 -163q-137 -164 -137 -446
q0 -286 138 -456t370 -170q209 0 336 123t127 327v51h-448v120h584v-139z" />
    <glyph glyph-name="uni0123" unicode="&#x123;" horiz-adv-x="1144" 
d="M418 -882l95 358h121l-116 -358h-100zM795 233q97 118 97 308q0 191 -97 311q-97 119 -253 119q-154 0 -249 -118q-94 -118 -94 -312q0 -193 94 -310t249 -117q156 0 253 119zM255 -299q-118 76 -138 200h138q20 -73 101 -116q83 -44 203 -44q151 0 242 72q91 73 91 197
v219h-3q-46 -106 -143 -169q-100 -65 -227 -65q-203 0 -329 151t-126 395q0 247 126 397q126 151 332 151q127 0 228 -65q98 -63 146 -170h2v223h126v-1057q0 -184 -128 -290q-128 -105 -345 -105q-178 0 -296 76z" />
    <glyph glyph-name="Hcircumflex" unicode="&#x124;" horiz-adv-x="1387" 
d="M1114 0v677h-844v-677h-136v1443h136v-642h844v642h137v-1443h-137zM747 1846l283 -295h-131l-206 217h-2l-206 -217h-131l283 295h110z" />
    <glyph glyph-name="hcircumflex" unicode="&#x125;" horiz-adv-x="1136" 
d="M129 1506h132v-630h3q95 213 363 213q178 0 287 -109q109 -110 109 -290v-690h-133v669q0 141 -81 222q-80 80 -219 80q-147 0 -238 -95t-91 -248v-628h-132v1506zM251 1909l283 -295h-131l-206 217h-2l-206 -217h-131l283 295h110z" />
    <glyph glyph-name="Hbar" unicode="&#x126;" horiz-adv-x="1413" 
d="M1128 1095h-844v-294h844v294zM1403 1095h-138v-1095h-137v677h-844v-677h-136v1095h-138v111h138v237h136v-237h844v237h137v-237h138v-111z" />
    <glyph glyph-name="hbar" unicode="&#x127;" horiz-adv-x="1187" 
d="M289 879q96 210 361 210q177 0 286 -108q110 -109 110 -288v-693h-132v669q0 139 -82 221q-82 81 -218 81q-145 0 -236 -94q-93 -96 -93 -250v-627h-133v1258h-130v97h130v186h133v-186h272v-97h-272v-379h4z" />
    <glyph glyph-name="Itilde" unicode="&#x128;" horiz-adv-x="406" 
d="M135 0v1443h136v-1443h-136zM189 1620q-74 78 -113 78q-78 0 -78 -144h-91q0 109 43 171q44 63 123 63q75 0 150 -78q76 -79 111 -79q73 0 73 144h91q0 -107 -43 -170q-44 -64 -121 -64q-70 0 -145 79z" />
    <glyph glyph-name="itilde" unicode="&#x129;" horiz-adv-x="390" 
d="M129 1077h132v-1077h-132v1077zM184 1336q-74 78 -113 78q-78 0 -78 -144h-91q0 109 43 171q44 63 123 63q75 0 150 -78q76 -79 111 -79q73 0 73 144h91q0 -107 -43 -170q-44 -64 -121 -64q-70 0 -145 79z" />
    <glyph glyph-name="Imacron" unicode="&#x12a;" horiz-adv-x="406" 
d="M135 0v1443h136v-1443h-136zM508 1633h-610v85h610v-85z" />
    <glyph glyph-name="imacron" unicode="&#x12b;" horiz-adv-x="390" 
d="M129 1077h132v-1077h-132v1077zM502 1315h-618v85h618v-85z" />
    <glyph glyph-name="Ibreve" unicode="&#x12c;" horiz-adv-x="406" 
d="M135 0v1443h136v-1443h-136zM5 1823q0 -80 56 -134q56 -55 142 -55t142 55q56 54 56 134h94q0 -121 -81 -197q-82 -75 -211 -75t-210 75q-82 76 -82 197h94z" />
    <glyph glyph-name="ibreve" unicode="&#x12d;" horiz-adv-x="390" 
d="M129 1077h132v-1077h-132v1077zM-10 1530q0 -86 58 -143t146 -57t146 57t58 143h97q0 -129 -84 -208q-83 -78 -217 -78t-217 78q-84 79 -84 208h97z" />
    <glyph glyph-name="Iogonek" unicode="&#x12e;" horiz-adv-x="406" 
d="M45 -367q-60 56 -60 147q0 140 150 240v1423h136v-1436q-165 -85 -165 -201q0 -56 36 -91q35 -34 92 -34q17 0 35 2v-99q-27 -7 -67 -7q-97 0 -157 56z" />
    <glyph glyph-name="iogonek" unicode="&#x12f;" horiz-adv-x="390" 
d="M132 1317q-27 26 -27 62q0 37 27 64q26 26 63 26t63 -26q26 -27 26 -64q0 -36 -26 -62q-26 -27 -63 -27t-63 27zM37 -367q-60 56 -60 147q0 147 152 240v1057h132v-1065q-163 -85 -163 -206q0 -56 35 -91q35 -34 93 -34q18 0 34 2v-99q-25 -7 -67 -7q-97 0 -156 56z" />
    <glyph glyph-name="Idotaccent" unicode="&#x130;" horiz-adv-x="406" 
d="M134 0v1443h136v-1443h-136zM130 1605q-30 30 -30 72t30 72t72 30t72 -30t30 -72t-30 -72t-72 -30t-72 30z" />
    <glyph glyph-name="dotlessi" unicode="&#x131;" horiz-adv-x="390" 
d="M128 1077h132v-1077h-132v1077z" />
    <glyph glyph-name="IJ" unicode="&#x132;" horiz-adv-x="1393" 
d="M134 0v1443h136v-1443h-136zM582 331q5 -104 77 -169q73 -65 185 -65q132 0 205 78q72 78 72 222v1046h136v-1048q0 -199 -109 -312q-110 -113 -304 -113q-173 0 -284 101q-112 101 -113 260h135z" />
    <glyph glyph-name="ij" unicode="&#x133;" horiz-adv-x="779" 
d="M128 1077h132v-1077h-132v1077zM131 1317q-27 26 -27 62q0 37 27 64q26 26 63 26t63 -26q26 -27 26 -64q0 -36 -26 -62q-26 -27 -63 -27t-63 27zM650 -81q0 -156 -75 -227q-74 -71 -233 -71h-31v113h27q97 0 138 42q42 41 42 140v1161h132v-1158zM521 1317q-27 26 -27 62
q0 37 27 64q26 26 63 26t63 -26q26 -27 26 -64q0 -36 -26 -62q-26 -27 -63 -27t-63 27z" />
    <glyph glyph-name="Jcircumflex" unicode="&#x134;" horiz-adv-x="987" 
d="M176 331q5 -104 77 -169q73 -65 185 -65q132 0 205 78q72 78 72 222v1046h136v-1048q0 -199 -109 -312q-110 -113 -304 -113q-173 0 -284 101q-112 101 -113 260h135zM838 1846l283 -295h-131l-206 217h-2l-206 -217h-131l283 295h110z" />
    <glyph glyph-name="jcircumflex" unicode="&#x135;" horiz-adv-x="388" 
d="M260 -81q0 -156 -75 -228q-74 -70 -233 -70h-30v113h27q97 0 138 42q42 41 42 140v1161h131v-1158zM515 1251h-127l-192 220h-5l-192 -220h-127l273 301h97z" />
    <glyph glyph-name="uni0136" unicode="&#x136;" horiz-adv-x="1209" 
d="M134 0v1443h136v-748h8l686 748h173l-593 -638l652 -805h-175l-573 708l-178 -193v-515h-136zM447 -520l95 358h121l-116 -358h-100z" />
    <glyph glyph-name="uni0137" unicode="&#x137;" horiz-adv-x="988" 
d="M798 1077h164l-486 -465l496 -612h-156l-434 531l-122 -111v-420h-132v1506h132v-941zM392 -520l95 358h121l-116 -358h-100z" />
    <glyph glyph-name="Lacute" unicode="&#x139;" horiz-adv-x="1052" 
d="M142 1551l252 295h154l-289 -295h-117zM993 0h-859v1443h136v-1319h723v-124z" />
    <glyph glyph-name="lacute" unicode="&#x13a;" horiz-adv-x="390" 
d="M134 1614l252 295h154l-289 -295h-117zM128 1506h132v-1506h-132v1506z" />
    <glyph glyph-name="uni013B" unicode="&#x13b;" horiz-adv-x="1052" 
d="M430 -520l95 358h121l-116 -358h-100zM993 0h-859v1443h136v-1319h723v-124z" />
    <glyph glyph-name="uni013C" unicode="&#x13c;" horiz-adv-x="390" 
d="M61 -520l95 358h121l-116 -358h-100zM128 1506h132v-1506h-132v1506z" />
    <glyph glyph-name="Lcaron" unicode="&#x13d;" horiz-adv-x="1052" 
d="M657 1443l-37 -444h-92v444h129zM993 0h-859v1443h136v-1319h723v-124z" />
    <glyph glyph-name="lcaron" unicode="&#x13e;" horiz-adv-x="508" 
d="M535 1496l-23 -444h-86v444h109zM128 1506h132v-1506h-132v1506z" />
    <glyph glyph-name="Lslash" unicode="&#x141;" horiz-adv-x="1065" 
d="M1005 124v-124h-859v705l-124 -60v111l124 60v627h136v-560l360 175v-111l-360 -175v-648h723z" />
    <glyph glyph-name="lslash" unicode="&#x142;" horiz-adv-x="416" 
d="M394 850l-134 -69v-781h-132v714l-114 -59v113l114 58v680h132v-612l134 68v-112z" />
    <glyph glyph-name="Nacute" unicode="&#x143;" horiz-adv-x="1393" 
d="M635 1551l252 295h154l-289 -295h-117zM134 0v1443h135l846 -1205h7v1205h135v-1443h-132l-849 1206h-7v-1206h-135z" />
    <glyph glyph-name="nacute" unicode="&#x144;" horiz-adv-x="1111" 
d="M492 1251l220 301h153l-256 -301h-117zM118 1077h124v-201h4q95 213 362 213q178 0 283 -106q106 -107 106 -290v-693h-132v672q0 142 -78 221q-78 78 -216 78q-144 0 -232 -94q-89 -93 -89 -244v-633h-132v1077z" />
    <glyph glyph-name="uni0145" unicode="&#x145;" horiz-adv-x="1393" 
d="M562 -520l95 358h121l-116 -358h-100zM134 0v1443h135l846 -1205h7v1205h135v-1443h-132l-849 1206h-7v-1206h-135z" />
    <glyph glyph-name="uni0146" unicode="&#x146;" horiz-adv-x="1111" 
d="M419 -520l95 358h121l-116 -358h-100zM118 1077h124v-201h4q95 213 362 213q178 0 283 -106q106 -107 106 -290v-693h-132v672q0 142 -78 221q-78 78 -216 78q-144 0 -232 -94q-89 -93 -89 -244v-633h-132v1077z" />
    <glyph glyph-name="Ncaron" unicode="&#x147;" horiz-adv-x="1393" 
d="M357 1846h131l206 -217h2l206 217h131l-283 -295h-110zM134 0v1443h135l846 -1205h7v1205h135v-1443h-132l-849 1206h-7v-1206h-135z" />
    <glyph glyph-name="ncaron" unicode="&#x148;" horiz-adv-x="1111" 
d="M509 1251l-273 301h127l192 -219h5l192 219h127l-273 -301h-97zM118 1077h124v-201h4q95 213 362 213q178 0 283 -106q106 -107 106 -290v-693h-132v672q0 142 -78 221q-78 78 -216 78q-144 0 -232 -94q-89 -93 -89 -244v-633h-132v1077z" />
    <glyph glyph-name="Omacron" unicode="&#x14c;" horiz-adv-x="1465" 
d="M1210 1265q177 -201 177 -544t-177 -543q-177 -201 -479 -201t-478 201q-177 200 -177 543t177 544t478 201q302 0 479 -201zM355 1172q-139 -167 -139 -451q0 -283 139 -450q140 -167 376 -167q237 0 377 167q139 167 139 450q0 284 -139 451q-140 167 -377 167
t-376 -167zM1036 1633h-610v85h610v-85z" />
    <glyph glyph-name="omacron" unicode="&#x14d;" horiz-adv-x="1109" 
d="M860 1315h-618v85h618v-85zM198 138q-134 149 -134 401q0 251 134 401q133 149 355 149q223 0 356 -149q134 -150 134 -401t-134 -401q-133 -150 -356 -150q-222 0 -355 150zM813 222q95 116 95 317t-95 317q-95 115 -260 115q-164 0 -259 -115q-95 -116 -95 -317
t95 -317q95 -115 259 -115q165 0 260 115z" />
    <glyph glyph-name="Obreve" unicode="&#x14e;" horiz-adv-x="1465" 
d="M1210 1265q177 -201 177 -544t-177 -543q-177 -201 -479 -201t-478 201q-177 200 -177 543t177 544t478 201q302 0 479 -201zM355 1172q-139 -167 -139 -451q0 -283 139 -450q140 -167 376 -167q237 0 377 167q139 167 139 450q0 284 -139 451q-140 167 -377 167
t-376 -167zM533 1823q0 -80 56 -134q56 -55 142 -55t142 55q56 54 56 134h94q0 -121 -81 -197q-82 -75 -211 -75t-210 75q-82 76 -82 197h94z" />
    <glyph glyph-name="obreve" unicode="&#x14f;" horiz-adv-x="1109" 
d="M348 1530q0 -86 58 -143t146 -57t146 57t58 143h97q0 -129 -84 -208q-83 -78 -217 -78t-217 78q-84 79 -84 208h97zM198 138q-134 149 -134 401q0 251 134 401q133 149 355 149q223 0 356 -149q134 -150 134 -401t-134 -401q-133 -150 -356 -150q-222 0 -355 150z
M813 222q95 116 95 317t-95 317q-95 115 -260 115q-164 0 -259 -115q-95 -116 -95 -317t95 -317q95 -115 259 -115q165 0 260 115z" />
    <glyph glyph-name="Ohungarumlaut" unicode="&#x150;" horiz-adv-x="1465" 
d="M824 1551l252 295h147l-288 -295h-111zM533 1551l252 295h147l-288 -295h-111zM1210 1265q177 -201 177 -544t-177 -543q-177 -201 -479 -201t-478 201q-177 200 -177 543t177 544t478 201q302 0 479 -201zM355 1172q-139 -167 -139 -451q0 -283 139 -450
q140 -167 376 -167q237 0 377 167q139 167 139 450q0 284 -139 451q-140 167 -377 167t-376 -167z" />
    <glyph glyph-name="ohungarumlaut" unicode="&#x151;" horiz-adv-x="1109" 
d="M850 1552h151l-252 -301h-108zM565 1552h151l-252 -301h-108zM198 138q-134 149 -134 401q0 251 134 401q133 149 355 149q223 0 356 -149q134 -150 134 -401t-134 -401q-133 -150 -356 -150q-222 0 -355 150zM813 222q95 116 95 317t-95 317q-95 115 -260 115
q-164 0 -259 -115q-95 -116 -95 -317t95 -317q95 -115 259 -115q165 0 260 115z" />
    <glyph glyph-name="OE" unicode="&#x152;" horiz-adv-x="2200" 
d="M357 1172q-141 -167 -141 -451q0 -283 141 -450t381 -167q239 0 380 167t141 450t-141 451q-141 167 -380 167q-240 0 -381 -167zM1261 290q-71 -149 -208 -231t-315 -82q-305 0 -484 200q-178 201 -178 544q0 344 178 545q179 200 484 200q180 0 316 -81
q136 -80 207 -229v287h849v-124h-712v-519h674v-122h-674v-554h712v-124h-849v290z" />
    <glyph glyph-name="oe" unicode="&#x153;" horiz-adv-x="1919" 
d="M1137 62q-112 73 -160 196h-7q-113 -271 -417 -271q-223 0 -356 149t-133 401t133 402q133 149 356 149q301 0 417 -272h7q48 125 158 198q111 75 253 75q213 0 339 -142t126 -383v-58h-808v-8q0 -177 97 -285t257 -108q119 0 203 56q82 54 106 144h132
q-24 -139 -146 -227q-124 -90 -297 -90q-146 0 -260 74zM1716 613q-2 161 -93 260q-92 99 -237 99q-144 0 -238 -99t-103 -260h671zM294 221q95 -115 259 -115q165 0 260 115t95 316q0 202 -95 318q-95 115 -260 115q-164 0 -259 -116t-95 -317t95 -316z" />
    <glyph glyph-name="Racute" unicode="&#x154;" horiz-adv-x="1199" 
d="M457 1551l252 295h154l-289 -295h-117zM270 712h369q157 0 244 80q88 80 88 225q0 143 -90 224q-89 80 -247 80h-364v-609zM270 0h-136v1443h516q211 0 337 -115q125 -114 125 -307q0 -153 -82 -262t-227 -146l349 -613h-159l-332 591h-391v-591z" />
    <glyph glyph-name="racute" unicode="&#x155;" horiz-adv-x="634" 
d="M288 1251l220 301h153l-256 -301h-117zM118 1077h124v-191h4q28 96 100 150q72 53 173 53q43 0 80 -11v-132q-34 16 -98 16q-114 0 -183 -82q-68 -81 -68 -212v-668h-132v1077z" />
    <glyph glyph-name="uni0156" unicode="&#x156;" horiz-adv-x="1199" 
d="M270 712h369q157 0 244 80q88 80 88 225q0 143 -90 224q-89 80 -247 80h-364v-609zM270 0h-136v1443h516q211 0 337 -115q125 -114 125 -307q0 -153 -82 -262t-227 -146l349 -613h-159l-332 591h-391v-591zM384 -520l95 358h121l-116 -358h-100z" />
    <glyph glyph-name="uni0157" unicode="&#x157;" horiz-adv-x="634" 
d="M118 1077h124v-191h4q28 96 100 150q72 53 173 53q43 0 80 -11v-132q-34 16 -98 16q-114 0 -183 -82q-68 -81 -68 -212v-668h-132v1077zM51 -520l95 358h121l-116 -358h-100z" />
    <glyph glyph-name="Rcaron" unicode="&#x158;" horiz-adv-x="1199" 
d="M270 712h369q157 0 244 80q88 80 88 225q0 143 -90 224q-89 80 -247 80h-364v-609zM270 0h-136v1443h516q211 0 337 -115q125 -114 125 -307q0 -153 -82 -262t-227 -146l349 -613h-159l-332 591h-391v-591zM179 1846h131l206 -217h2l206 217h131l-283 -295h-110z" />
    <glyph glyph-name="rcaron" unicode="&#x159;" horiz-adv-x="634" 
d="M305 1251l-273 301h127l192 -219h5l192 219h127l-273 -301h-97zM118 1077h124v-191h4q28 96 100 150q72 53 173 53q43 0 80 -11v-132q-34 16 -98 16q-114 0 -183 -82q-68 -81 -68 -212v-668h-132v1077z" />
    <glyph glyph-name="Sacute" unicode="&#x15a;" horiz-adv-x="1182" 
d="M538 1551l252 295h154l-289 -295h-117zM201 392q11 -130 123 -210q112 -81 281 -81q162 0 267 79q104 79 104 201q0 101 -73 165q-73 63 -234 104l-179 46q-201 51 -293 140q-93 89 -93 231q0 174 141 287q139 112 353 112q210 0 350 -112q139 -111 145 -283h-137
q-10 122 -109 197q-99 74 -253 74q-151 0 -249 -75q-99 -76 -99 -195q0 -93 72 -152q70 -58 230 -99l156 -40q218 -55 315 -144q97 -91 97 -241q0 -190 -142 -304q-142 -115 -381 -115q-226 0 -372 115q-146 114 -157 300h137z" />
    <glyph glyph-name="sacute" unicode="&#x15b;" horiz-adv-x="958" 
d="M206 1005q109 84 277 84q163 0 271 -88t116 -227h-127q-10 92 -80 147q-71 56 -184 56q-109 0 -180 -51q-72 -51 -72 -132q0 -123 201 -173l165 -40q162 -41 230 -105q68 -65 68 -180q0 -136 -117 -222q-116 -86 -298 -86q-172 0 -287 89q-114 88 -125 226h134
q12 -93 88 -148q77 -56 198 -56q122 0 197 51q76 52 76 137q0 69 -46 109q-46 41 -155 68l-182 46q-278 70 -278 277q0 133 110 218zM417 1251l220 301h153l-256 -301h-117z" />
    <glyph glyph-name="Scircumflex" unicode="&#x15c;" horiz-adv-x="1182" 
d="M201 392q11 -130 123 -210q112 -81 281 -81q162 0 267 79q104 79 104 201q0 101 -73 165q-73 63 -234 104l-179 46q-201 51 -293 140q-93 89 -93 231q0 174 141 287q139 112 353 112q210 0 350 -112q139 -111 145 -283h-137q-10 122 -109 197q-99 74 -253 74
q-151 0 -249 -75q-99 -76 -99 -195q0 -93 72 -152q70 -58 230 -99l156 -40q218 -55 315 -144q97 -91 97 -241q0 -190 -142 -304q-142 -115 -381 -115q-226 0 -372 115q-146 114 -157 300h137zM653 1846l283 -295h-131l-206 217h-2l-206 -217h-131l283 295h110z" />
    <glyph glyph-name="scircumflex" unicode="&#x15d;" horiz-adv-x="958" 
d="M804 1251h-127l-192 220h-5l-192 -220h-127l273 301h97zM206 1005q109 84 277 84q163 0 271 -88t116 -227h-127q-10 92 -80 147q-71 56 -184 56q-109 0 -180 -51q-72 -51 -72 -132q0 -123 201 -173l165 -40q162 -41 230 -105q68 -65 68 -180q0 -136 -117 -222
q-116 -86 -298 -86q-172 0 -287 89q-114 88 -125 226h134q12 -93 88 -148q77 -56 198 -56q122 0 197 51q76 52 76 137q0 69 -46 109q-46 41 -155 68l-182 46q-278 70 -278 277q0 133 110 218z" />
    <glyph glyph-name="Scedilla" unicode="&#x15e;" horiz-adv-x="1182" 
d="M704 781q218 -55 315 -144q97 -91 97 -241q0 -181 -129 -294t-349 -124l-46 -119q208 0 208 -152q0 -76 -61 -124q-62 -49 -157 -50q-84 0 -139 17v80q41 -16 122 -16q63 0 100 24q37 25 37 66q0 82 -155 82h-53v60l53 132q-208 12 -340 125q-133 113 -143 289h137
q11 -130 123 -210q112 -81 281 -81q162 0 267 79q104 79 104 201q0 101 -73 165q-73 63 -234 104l-179 46q-201 51 -293 140q-93 89 -93 231q0 174 141 287q139 112 353 112q210 0 350 -112q139 -111 145 -283h-137q-10 122 -109 197q-99 74 -253 74q-151 0 -249 -75
q-99 -76 -99 -195q0 -93 72 -152q70 -58 230 -99z" />
    <glyph glyph-name="scedilla" unicode="&#x15f;" horiz-adv-x="958" 
d="M593 581q162 -41 230 -105q68 -65 68 -180q0 -126 -101 -210t-264 -96l-50 -131q208 0 208 -152q0 -76 -61 -124q-62 -49 -157 -50q-84 0 -139 17v80q41 -16 122 -16q63 0 100 24q37 25 37 66q0 82 -155 82h-53v60l58 143q-157 11 -259 98t-113 216h134q12 -93 88 -148
q77 -56 198 -56q122 0 197 51q76 52 76 137q0 69 -46 109q-46 41 -155 68l-182 46q-278 70 -278 277q0 133 110 218q109 84 277 84q163 0 271 -88t116 -227h-127q-10 92 -80 147q-71 56 -184 56q-109 0 -180 -51q-72 -51 -72 -132q0 -123 201 -173z" />
    <glyph glyph-name="Scaron" unicode="&#x160;" horiz-adv-x="1182" 
d="M201 392q11 -130 123 -210q112 -81 281 -81q162 0 267 79q104 79 104 201q0 101 -73 165q-73 63 -234 104l-179 46q-201 51 -293 140q-93 89 -93 231q0 174 141 287q139 112 353 112q210 0 350 -112q139 -111 145 -283h-137q-10 122 -109 197q-99 74 -253 74
q-151 0 -249 -75q-99 -76 -99 -195q0 -93 72 -152q70 -58 230 -99l156 -40q218 -55 315 -144q97 -91 97 -241q0 -190 -142 -304q-142 -115 -381 -115q-226 0 -372 115q-146 114 -157 300h137zM260 1846h131l206 -217h2l206 217h131l-283 -295h-110z" />
    <glyph glyph-name="scaron" unicode="&#x161;" horiz-adv-x="958" 
d="M434 1251l-273 301h127l192 -219h5l192 219h127l-273 -301h-97zM206 1005q109 84 277 84q163 0 271 -88t116 -227h-127q-10 92 -80 147q-71 56 -184 56q-109 0 -180 -51q-72 -51 -72 -132q0 -123 201 -173l165 -40q162 -41 230 -105q68 -65 68 -180q0 -136 -117 -222
q-116 -86 -298 -86q-172 0 -287 89q-114 88 -125 226h134q12 -93 88 -148q77 -56 198 -56q122 0 197 51q76 52 76 137q0 69 -46 109q-46 41 -155 68l-182 46q-278 70 -278 277q0 133 110 218z" />
    <glyph glyph-name="uni0162" unicode="&#x162;" horiz-adv-x="1179" 
d="M642 0l-54 -141q208 0 208 -152q0 -76 -61 -124q-62 -49 -157 -50q-84 0 -139 17v80q41 -16 122 -16q63 0 100 24q37 25 37 66q0 82 -155 82h-53v60l62 154h-32v1319h-483v124h1103v-124h-483v-1319h-15z" />
    <glyph glyph-name="uni0163" unicode="&#x163;" horiz-adv-x="598" 
d="M360 -141q208 0 208 -152q0 -76 -61 -124q-62 -49 -157 -50q-84 0 -139 17v80q41 -16 122 -16q63 0 100 24q37 25 37 66q0 82 -155 82h-53v60l64 159q-150 39 -150 260v701h-154v111h154v258h132v-258h216v-111h-216v-696q0 -84 35 -122q34 -38 109 -38q45 0 77 4v-113
q-24 -7 -103 -7h-14z" />
    <glyph glyph-name="Tcaron" unicode="&#x164;" horiz-adv-x="1179" 
d="M251 1846h131l206 -217h2l206 217h131l-283 -295h-110zM520 0v1319h-483v124h1103v-124h-483v-1319h-137z" />
    <glyph glyph-name="tcaron" unicode="&#x165;" horiz-adv-x="694" 
d="M565 1677l-24 -444h-85v444h109zM308 1335v-258h216v-111h-216v-696q0 -84 35 -122q34 -38 109 -38q45 0 77 4v-113q-24 -7 -103 -7q-134 0 -192 63t-58 208v701h-154v111h154v258h132z" />
    <glyph glyph-name="Tbar" unicode="&#x166;" horiz-adv-x="1207" 
d="M657 1319v-531h317v-110h-317v-678h-137v678h-289v110h289v531h-483v124h1103v-124h-483z" />
    <glyph glyph-name="tbar" unicode="&#x167;" horiz-adv-x="600" 
d="M308 270q0 -84 35 -122q34 -38 109 -38q45 0 77 4v-113q-24 -7 -103 -7q-134 0 -192 63t-58 208v274h-154v111h154v316h-154v111h154v258h132v-258h216v-111h-216v-316h217v-111h-217v-269z" />
    <glyph glyph-name="Utilde" unicode="&#x168;" horiz-adv-x="1386" 
d="M270 512q0 -184 112 -295q114 -113 310 -113t310 113q112 111 112 295v931h137v-939q0 -236 -149 -380q-153 -147 -410 -147t-409 147q-149 144 -149 380v939h136v-931zM678 1620q-74 78 -113 78q-78 0 -78 -144h-91q0 109 43 171q44 63 123 63q75 0 150 -78
q76 -79 111 -79q73 0 73 144h91q0 -107 -43 -170q-44 -64 -121 -64q-70 0 -145 79z" />
    <glyph glyph-name="utilde" unicode="&#x169;" horiz-adv-x="1111" 
d="M992 0h-125v202h-3q-45 -100 -141 -156q-98 -58 -225 -58q-176 0 -281 106q-105 107 -105 289v694h132v-672q0 -143 78 -221q76 -77 214 -77q142 0 232 92q91 93 91 245v633h133v-1077zM540 1336q-74 78 -113 78q-78 0 -78 -144h-91q0 109 43 171q44 63 123 63
q75 0 150 -78q76 -79 111 -79q73 0 73 144h91q0 -107 -43 -170q-44 -64 -121 -64q-70 0 -145 79z" />
    <glyph glyph-name="Umacron" unicode="&#x16a;" horiz-adv-x="1386" 
d="M270 512q0 -184 112 -295q114 -113 310 -113t310 113q112 111 112 295v931h137v-939q0 -236 -149 -380q-153 -147 -410 -147t-409 147q-149 144 -149 380v939h136v-931zM997 1633h-610v85h610v-85z" />
    <glyph glyph-name="umacron" unicode="&#x16b;" horiz-adv-x="1111" 
d="M992 0h-125v202h-3q-45 -100 -141 -156q-98 -58 -225 -58q-176 0 -281 106q-105 107 -105 289v694h132v-672q0 -143 78 -221q76 -77 214 -77q142 0 232 92q91 93 91 245v633h133v-1077zM859 1315h-618v85h618v-85z" />
    <glyph glyph-name="Ubreve" unicode="&#x16c;" horiz-adv-x="1386" 
d="M270 512q0 -184 112 -295q114 -113 310 -113t310 113q112 111 112 295v931h137v-939q0 -236 -149 -380q-153 -147 -410 -147t-409 147q-149 144 -149 380v939h136v-931zM494 1823q0 -80 56 -134q56 -55 142 -55t142 55q56 54 56 134h94q0 -121 -81 -197q-82 -75 -211 -75
t-210 75q-82 76 -82 197h94z" />
    <glyph glyph-name="ubreve" unicode="&#x16d;" horiz-adv-x="1111" 
d="M992 0h-125v202h-3q-45 -100 -141 -156q-98 -58 -225 -58q-176 0 -281 106q-105 107 -105 289v694h132v-672q0 -143 78 -221q76 -77 214 -77q142 0 232 92q91 93 91 245v633h133v-1077zM347 1530q0 -86 58 -143t146 -57t146 57t58 143h97q0 -129 -84 -208
q-83 -78 -217 -78t-217 78q-84 79 -84 208h97z" />
    <glyph glyph-name="Uring" unicode="&#x16e;" horiz-adv-x="1386" 
d="M560 1562q-55 56 -55 133t55 133q55 55 132 55t133 -55q55 -56 55 -133t-55 -133q-56 -55 -133 -55t-132 55zM777 1610q35 35 35 85t-35 85t-85 35q-49 0 -84 -35t-35 -85t35 -85t84 -35q50 0 85 35zM270 512q0 -184 112 -295q114 -113 310 -113t310 113q112 111 112 295
v931h137v-939q0 -236 -149 -380q-153 -147 -410 -147t-409 147q-149 144 -149 380v939h136v-931z" />
    <glyph glyph-name="uring" unicode="&#x16f;" horiz-adv-x="1111" 
d="M992 0h-125v202h-3q-45 -100 -141 -156q-98 -58 -225 -58q-176 0 -281 106q-105 107 -105 289v694h132v-672q0 -143 78 -221q76 -77 214 -77q142 0 232 92q91 93 91 245v633h133v-1077zM420 1261q-55 56 -55 133t55 133q55 55 132 55t133 -55q55 -56 55 -133t-55 -133
q-56 -55 -133 -55t-132 55zM637 1309q35 35 35 85t-35 85t-85 35q-49 0 -84 -35t-35 -85t35 -85t84 -35q50 0 85 35z" />
    <glyph glyph-name="Uhungarumlaut" unicode="&#x170;" horiz-adv-x="1386" 
d="M270 512q0 -184 112 -295q114 -113 310 -113t310 113q112 111 112 295v931h137v-939q0 -236 -149 -380q-153 -147 -410 -147t-409 147q-149 144 -149 380v939h136v-931zM785 1551l252 295h147l-288 -295h-111zM494 1551l252 295h147l-288 -295h-111z" />
    <glyph glyph-name="uhungarumlaut" unicode="&#x171;" horiz-adv-x="1111" 
d="M849 1552h151l-252 -301h-108zM564 1552h151l-252 -301h-108zM992 0h-125v202h-3q-45 -100 -141 -156q-98 -58 -225 -58q-176 0 -281 106q-105 107 -105 289v694h132v-672q0 -143 78 -221q76 -77 214 -77q142 0 232 92q91 93 91 245v633h133v-1077z" />
    <glyph glyph-name="Uogonek" unicode="&#x172;" horiz-adv-x="1386" 
d="M768 -367q-62 57 -62 143q0 119 111 217v4q-63 -20 -125 -20q-254 0 -406 144q-152 143 -152 383v939h136v-931q0 -185 115 -297q116 -111 307 -111t307 111q115 112 115 297v931h137v-939q0 -275 -236 -450q-100 -79 -132 -117q-55 -64 -55 -133q0 -53 38 -87
q37 -35 94 -35q29 0 49 4v-98q-35 -11 -83 -11q-95 0 -158 56z" />
    <glyph glyph-name="uogonek" unicode="&#x173;" horiz-adv-x="1111" 
d="M992 -416q-25 -7 -67 -7q-97 0 -157 56t-60 147q0 143 159 240v180h-4q-98 -212 -364 -212q-177 0 -282 107q-105 106 -105 287v695h132v-671q0 -141 77 -220t215 -79q144 0 234 94q89 93 89 244v632h133v-1065q-163 -84 -163 -206q0 -56 36 -91q35 -34 92 -34q17 0 35 2
v-99z" />
    <glyph glyph-name="Wcircumflex" unicode="&#x174;" horiz-adv-x="1854" 
d="M981 1846l283 -295h-131l-206 217h-2l-206 -217h-131l283 295h110zM567 0h-127l-397 1443h142l318 -1233h6l349 1233h136l348 -1233h7l317 1233h143l-398 -1443h-126l-355 1209h-8z" />
    <glyph glyph-name="wcircumflex" unicode="&#x175;" horiz-adv-x="1477" 
d="M1058 1251h-127l-192 220h-5l-192 -220h-127l273 301h97zM1148 0h-139l-270 897h-3l-270 -897h-139l-307 1077h133l244 -927h3l270 927h134l271 -927h3l244 927h133z" />
    <glyph glyph-name="Ycircumflex" unicode="&#x176;" horiz-adv-x="1219" 
d="M540 0v624l-517 819h156l427 -685h5l427 685h156l-517 -819v-624h-137zM663 1846l283 -295h-131l-206 217h-2l-206 -217h-131l283 295h110z" />
    <glyph glyph-name="ycircumflex" unicode="&#x177;" horiz-adv-x="980" 
d="M132 -367v113q30 -7 65 -7q73 0 119 43q45 42 81 144l24 67l-405 1084h142l330 -943h3l331 943h140l-420 -1129q-70 -190 -142 -256q-71 -67 -202 -67q-34 0 -66 8zM811 1251h-127l-192 220h-5l-192 -220h-127l273 301h97z" />
    <glyph glyph-name="Ydieresis" unicode="&#x178;" horiz-adv-x="1219" 
d="M540 0v624l-517 819h156l427 -685h5l427 685h156l-517 -819v-624h-137zM365 1603q-28 28 -28 65q0 38 28 66q27 27 65 27t66 -27q27 -28 27 -66t-27 -65q-28 -27 -66 -27t-65 27zM720 1603q-27 27 -27 65t27 66q28 27 66 27t66 -27q27 -28 27 -66t-27 -65
q-28 -27 -66 -27t-66 27z" />
    <glyph glyph-name="Zacute" unicode="&#x179;" horiz-adv-x="1224" 
d="M551 1551l252 295h154l-289 -295h-117zM86 99l866 1214v6h-838v124h1011v-100l-864 -1213v-6h876v-124h-1051v99z" />
    <glyph glyph-name="zacute" unicode="&#x17a;" horiz-adv-x="963" 
d="M415 1251l220 301h153l-256 -301h-117zM82 100l645 864v2h-645v111h796v-101l-644 -862v-3h646v-111h-798v100z" />
    <glyph glyph-name="Zdotaccent" unicode="&#x17b;" horiz-adv-x="1224" 
d="M539 1605q-30 30 -30 72t30 72t72 30t72 -30t30 -72t-30 -72t-72 -30t-72 30zM86 99l866 1214v6h-838v124h1011v-100l-864 -1213v-6h876v-124h-1051v99z" />
    <glyph glyph-name="zdotaccent" unicode="&#x17c;" horiz-adv-x="963" 
d="M408 1290q-31 30 -31 73t31 73q30 31 73 31t73 -31q31 -30 31 -73t-31 -73q-30 -31 -73 -31t-73 31zM82 100l645 864v2h-645v111h796v-101l-644 -862v-3h646v-111h-798v100z" />
    <glyph glyph-name="Zcaron" unicode="&#x17d;" horiz-adv-x="1224" 
d="M86 99l866 1214v6h-838v124h1011v-100l-864 -1213v-6h876v-124h-1051v99zM273 1846h131l206 -217h2l206 217h131l-283 -295h-110z" />
    <glyph glyph-name="zcaron" unicode="&#x17e;" horiz-adv-x="963" 
d="M432 1251l-273 301h127l192 -219h5l192 219h127l-273 -301h-97zM82 100l645 864v2h-645v111h796v-101l-644 -862v-3h646v-111h-798v100z" />
    <glyph glyph-name="florin" unicode="&#x192;" horiz-adv-x="1219" 
d="M1179 1306q-75 40 -180 40q-118 0 -182 -57q-65 -58 -84 -183l-39 -254h389v-111h-406l-63 -406q-55 -357 -376 -357q-116 0 -199 43v127q79 -49 187 -49q115 0 176 60q61 59 81 192l60 390h-361v111h378l41 263q56 351 383 351q119 0 195 -39v-121z" />
    <glyph glyph-name="Ohorn" unicode="&#x1a0;" horiz-adv-x="1501" 
d="M355 1172q-139 -167 -139 -451q0 -283 139 -450q140 -167 376 -167q237 0 377 167q139 167 139 450q0 284 -139 451q-140 167 -377 167t-376 -167zM1211 177q-177 -200 -480 -200q-302 0 -479 200q-176 201 -176 544q0 344 177 544q176 201 479 201q163 0 318 -81
t206 -81q108 0 108 162v149h122v-183q0 -109 -44 -170t-122 -61q-45 0 -75 16l-3 -3q145 -214 145 -493q0 -344 -176 -544z" />
    <glyph glyph-name="ohorn" unicode="&#x1a1;" horiz-adv-x="1220" 
d="M813 223q95 116 95 316t-95 316t-260 116t-260 -116t-95 -316t95 -316q96 -116 260 -116q165 0 260 116zM910 138q-133 -150 -357 -150q-223 0 -356 150t-133 401q0 252 133 401t358 149q143 0 268 -76q125 -77 165 -77q112 0 112 162v149h122v-182q0 -108 -59 -172
q-59 -65 -157 -65q-11 0 -21 4l-4 -1q62 -122 62 -292q0 -252 -133 -401z" />
    <glyph glyph-name="Uhorn" unicode="&#x1af;" horiz-adv-x="1591" 
d="M1251 1328q27 -30 91 -30q69 0 100 39q30 39 30 128v144h122v-179q0 -111 -61 -175q-62 -65 -168 -65q-76 0 -114 30v-716q0 -240 -153 -383q-152 -144 -406 -144t-406 144q-152 143 -152 383v939h136v-931q0 -185 115 -297q116 -111 307 -111q192 0 307 111
q115 112 115 297v931h137v-115z" />
    <glyph glyph-name="uhorn" unicode="&#x1b0;" horiz-adv-x="1351" 
d="M863 200q-98 -212 -364 -212q-177 0 -282 107q-105 106 -105 287v695h132v-671q0 -141 77 -220t215 -79q144 0 234 94q89 93 89 244v632h133v-117q26 -24 82 -24q69 0 99 39t30 128v144h123v-179q0 -111 -62 -176q-61 -65 -167 -65q-69 0 -105 27v-854h-125v200h-4z" />
    <glyph glyph-name="uni01C4" unicode="&#x1c4;" horiz-adv-x="2594" 
d="M609 1443q324 0 504 -189q180 -190 180 -532q0 -343 -180 -532q-179 -190 -504 -190h-475v1443h475zM271 124h330q266 0 410 155q143 155 143 442q0 288 -143 443q-144 155 -410 155h-330v-1195zM1456 99l866 1214v6h-838v124h1011v-100l-864 -1213v-6h876v-124h-1051v99
zM1643 1846h131l206 -217h2l206 217h131l-283 -295h-110z" />
    <glyph glyph-name="uni01C5" unicode="&#x1c5;" horiz-adv-x="2334" 
d="M609 1443q324 0 504 -189q180 -190 180 -532q0 -343 -180 -532q-179 -190 -504 -190h-475v1443h475zM271 124h330q266 0 410 155q143 155 143 442q0 288 -143 443q-144 155 -410 155h-330v-1195zM1802 1251l-273 301h127l192 -219h5l192 219h127l-273 -301h-97zM1452 100
l645 864v2h-645v111h796v-101l-644 -862v-3h646v-111h-798v100z" />
    <glyph glyph-name="uni01C6" unicode="&#x1c6;" horiz-adv-x="2121" 
d="M193 140q-129 153 -129 399q0 245 129 398q127 152 329 152q128 0 229 -64q97 -63 141 -169h3v650h133v-1506h-126v229h-3q-47 -111 -145 -175q-100 -66 -229 -66q-203 0 -332 152zM295 852q-96 -119 -96 -313t96 -313t251 -119t253 120q97 120 97 312q0 191 -97 312
q-98 120 -253 120t-251 -119zM1589 1251l-273 301h127l192 -219h5l192 219h127l-273 -301h-97zM1239 100l645 864v2h-645v111h796v-101l-644 -862v-3h646v-111h-798v100z" />
    <glyph glyph-name="uni01C7" unicode="&#x1c7;" horiz-adv-x="2037" 
d="M1226 331q5 -104 77 -169q73 -65 185 -65q132 0 205 78q72 78 72 222v1046h136v-1048q0 -199 -109 -312q-110 -113 -304 -113q-173 0 -284 101q-112 101 -113 260h135zM993 0h-859v1443h136v-1319h723v-124z" />
    <glyph glyph-name="uni01C8" unicode="&#x1c8;" horiz-adv-x="1439" 
d="M1310 -81q0 -156 -75 -227q-74 -71 -233 -71h-31v113h27q97 0 138 42q42 41 42 140v1161h132v-1158zM1181 1317q-27 26 -27 62q0 37 27 64q26 26 63 26t63 -26q26 -27 26 -64q0 -36 -26 -62q-26 -27 -63 -27t-63 27zM993 0h-859v1443h136v-1319h723v-124z" />
    <glyph glyph-name="uni01C9" unicode="&#x1c9;" horiz-adv-x="779" 
d="M650 -81q0 -156 -75 -227q-74 -71 -233 -71h-31v113h27q97 0 138 42q42 41 42 140v1161h132v-1158zM521 1317q-27 26 -27 62q0 37 27 64q26 26 63 26t63 -26q26 -27 26 -64q0 -36 -26 -62q-26 -27 -63 -27t-63 27zM128 1506h132v-1506h-132v1506z" />
    <glyph glyph-name="uni01CA" unicode="&#x1ca;" horiz-adv-x="2380" 
d="M1569 331q5 -104 77 -169q73 -65 185 -65q132 0 205 78q72 78 72 222v1046h136v-1048q0 -199 -109 -312q-110 -113 -304 -113q-173 0 -284 101q-112 101 -113 260h135zM134 0v1443h135l846 -1205h7v1205h135v-1443h-132l-849 1206h-7v-1206h-135z" />
    <glyph glyph-name="uni01CB" unicode="&#x1cb;" horiz-adv-x="1783" 
d="M1653 -81q0 -156 -75 -227q-74 -71 -233 -71h-31v113h27q97 0 138 42q42 41 42 140v1161h132v-1158zM1524 1317q-27 26 -27 62q0 37 27 64q26 26 63 26t63 -26q26 -27 26 -64q0 -36 -26 -62q-26 -27 -63 -27t-63 27zM134 0v1443h135l846 -1205h7v1205h135v-1443h-132
l-849 1206h-7v-1206h-135z" />
    <glyph glyph-name="uni01CC" unicode="&#x1cc;" horiz-adv-x="1501" 
d="M1371 -81q0 -156 -75 -227q-74 -71 -233 -71h-31v113h27q97 0 138 42q42 41 42 140v1161h132v-1158zM1242 1317q-27 26 -27 62q0 37 27 64q26 26 63 26t63 -26q26 -27 26 -64q0 -36 -26 -62q-26 -27 -63 -27t-63 27zM118 1077h124v-201h4q95 213 362 213q178 0 283 -106
q106 -107 106 -290v-693h-132v672q0 142 -78 221q-78 78 -216 78q-144 0 -232 -94q-89 -93 -89 -244v-633h-132v1077z" />
    <glyph glyph-name="uni01CD" unicode="&#x1cd;" horiz-adv-x="1262" 
d="M933 442h-606l-160 -442h-145l540 1443h136l539 -1443h-144zM368 560h524l-259 714h-6zM292 1846h131l206 -217h2l206 217h131l-283 -295h-110z" />
    <glyph glyph-name="uni01CE" unicode="&#x1ce;" horiz-adv-x="1048" 
d="M704 191q98 86 98 214v119l-315 -22q-277 -18 -277 -203q0 -87 70 -141t182 -54q145 0 242 87zM175 74q-100 87 -100 226q0 281 396 309l331 22v92q0 118 -71 183q-72 65 -202 65q-113 0 -187 -54q-74 -55 -92 -151h-127q8 142 123 232q114 91 284 91q185 0 295 -96
q109 -96 109 -259v-734h-126v206h-3q-44 -98 -144 -158q-101 -60 -225 -60q-161 0 -261 86zM478 1251l-273 301h127l192 -219h5l192 219h127l-273 -301h-97z" />
    <glyph glyph-name="uni01CF" unicode="&#x1cf;" horiz-adv-x="406" 
d="M135 0v1443h136v-1443h-136zM-135 1846h131l206 -217h2l206 217h131l-283 -295h-110z" />
    <glyph glyph-name="uni01D0" unicode="&#x1d0;" horiz-adv-x="390" 
d="M146 1251l-273 301h127l192 -219h5l192 219h127l-273 -301h-97zM129 1077h132v-1077h-132v1077z" />
    <glyph glyph-name="uni01D1" unicode="&#x1d1;" horiz-adv-x="1465" 
d="M393 1846h131l206 -217h2l206 217h131l-283 -295h-110zM1210 1265q177 -201 177 -544t-177 -543q-177 -201 -479 -201t-478 201q-177 200 -177 543t177 544t478 201q302 0 479 -201zM355 1172q-139 -167 -139 -451q0 -283 139 -450q140 -167 376 -167q237 0 377 167
q139 167 139 450q0 284 -139 451q-140 167 -377 167t-376 -167z" />
    <glyph glyph-name="uni01D2" unicode="&#x1d2;" horiz-adv-x="1109" 
d="M504 1251l-273 301h127l192 -219h5l192 219h127l-273 -301h-97zM198 138q-134 149 -134 401q0 251 134 401q133 149 355 149q223 0 356 -149q134 -150 134 -401t-134 -401q-133 -150 -356 -150q-222 0 -355 150zM813 222q95 116 95 317t-95 317q-95 115 -260 115
q-164 0 -259 -115q-95 -116 -95 -317t95 -317q95 -115 259 -115q165 0 260 115z" />
    <glyph glyph-name="uni01D3" unicode="&#x1d3;" horiz-adv-x="1386" 
d="M354 1846h131l206 -217h2l206 217h131l-283 -295h-110zM270 512q0 -184 112 -295q114 -113 310 -113t310 113q112 111 112 295v931h137v-939q0 -236 -149 -380q-153 -147 -410 -147t-409 147q-149 144 -149 380v939h136v-931z" />
    <glyph glyph-name="uni01D4" unicode="&#x1d4;" horiz-adv-x="1111" 
d="M503 1251l-273 301h127l192 -219h5l192 219h127l-273 -301h-97zM992 0h-125v202h-3q-45 -100 -141 -156q-98 -58 -225 -58q-176 0 -281 106q-105 107 -105 289v694h132v-672q0 -143 78 -221q76 -77 214 -77q142 0 232 92q91 93 91 245v633h133v-1077z" />
    <glyph glyph-name="uni01D5" unicode="&#x1d5;" horiz-adv-x="1386" 
d="M270 512q0 -184 112 -295q114 -113 310 -113t310 113q112 111 112 295v931h137v-939q0 -236 -149 -380q-153 -147 -410 -147t-409 147q-149 144 -149 380v939h136v-931zM580 1722q25 -24 25 -58q0 -35 -25 -60q-24 -24 -58 -24q-35 0 -60 24q-24 25 -24 60q0 34 24 58
q25 25 60 25q34 0 58 -25zM997 1979v-84h-610v84h610zM922 1722q24 -24 24 -58q0 -35 -24 -60q-25 -24 -60 -24q-34 0 -58 24q-25 25 -25 60q0 34 25 58q24 25 58 25q35 0 60 -25z" />
    <glyph glyph-name="uni01D6" unicode="&#x1d6;" horiz-adv-x="1111" 
d="M992 0h-125v202h-3q-45 -100 -141 -156q-98 -58 -225 -58q-176 0 -281 106q-105 107 -105 289v694h132v-672q0 -143 78 -221q76 -77 214 -77q142 0 232 92q91 93 91 245v633h133v-1077zM311 1285q-26 26 -26 63t26 63t63 26q38 0 64 -26t26 -63t-26 -63q-27 -26 -64 -26
t-63 26zM667 1285q-27 26 -27 63t27 63q26 26 63 26q38 0 63 -26q26 -25 26 -63q0 -37 -26 -63t-63 -26t-63 26zM859 1634h-618v85h618v-85z" />
    <glyph glyph-name="uni01D7" unicode="&#x1d7;" horiz-adv-x="1386" 
d="M827 2021h145l-231 -203h-109zM462 1604q-24 25 -24 60q0 34 24 58q25 25 60 25q34 0 58 -25q25 -24 25 -58q0 -35 -25 -60q-24 -24 -58 -24q-35 0 -60 24zM804 1604q-25 25 -25 60q0 34 25 58q24 25 58 25q35 0 60 -25q24 -24 24 -58q0 -35 -24 -60q-25 -24 -60 -24
q-34 0 -58 24zM270 512q0 -184 112 -295q114 -113 310 -113t310 113q112 111 112 295v931h137v-939q0 -236 -149 -380q-153 -147 -410 -147t-409 147q-149 144 -149 380v939h136v-931z" />
    <glyph glyph-name="uni01D8" unicode="&#x1d8;" horiz-adv-x="1111" 
d="M676 1834h148l-217 -269h-118zM309 1286q-28 28 -28 65q0 38 28 66q27 27 65 27t66 -27q27 -28 27 -66t-27 -65q-28 -27 -66 -27t-65 27zM664 1286q-27 27 -27 65t27 66q28 27 66 27t66 -27q27 -28 27 -66t-27 -65q-28 -27 -66 -27t-66 27zM992 0h-125v202h-3
q-45 -100 -141 -156q-98 -58 -225 -58q-176 0 -281 106q-105 107 -105 289v694h132v-672q0 -143 78 -221q76 -77 214 -77q142 0 232 92q91 93 91 245v633h133v-1077z" />
    <glyph glyph-name="uni01D9" unicode="&#x1d9;" horiz-adv-x="1386" 
d="M367 2021h144l176 -135h10l176 135h144l-266 -203h-118zM580 1722q25 -24 25 -58q0 -35 -25 -60q-24 -24 -58 -24q-35 0 -60 24q-24 25 -24 60q0 34 24 58q25 25 60 25q34 0 58 -25zM922 1722q24 -24 24 -58q0 -35 -24 -60q-25 -24 -60 -24q-34 0 -58 24q-25 25 -25 60
q0 34 25 58q24 25 58 25q35 0 60 -25zM270 512q0 -184 112 -295q114 -113 310 -113t310 113q112 111 112 295v931h137v-939q0 -236 -149 -380q-153 -147 -410 -147t-409 147q-149 144 -149 380v939h136v-931z" />
    <glyph glyph-name="uni01DA" unicode="&#x1da;" horiz-adv-x="1111" 
d="M309 1286q-28 28 -28 65q0 38 28 66q27 27 65 27t66 -27q27 -28 27 -66t-27 -65q-28 -27 -66 -27t-65 27zM664 1286q-27 27 -27 65t27 66q28 27 66 27t66 -27q27 -28 27 -66t-27 -65q-28 -27 -66 -27t-66 27zM487 1565l-261 269h125l199 -205h4l199 205h125l-261 -269
h-130zM992 0h-125v202h-3q-45 -100 -141 -156q-98 -58 -225 -58q-176 0 -281 106q-105 107 -105 289v694h132v-672q0 -143 78 -221q76 -77 214 -77q142 0 232 92q91 93 91 245v633h133v-1077z" />
    <glyph glyph-name="uni01DB" unicode="&#x1db;" horiz-adv-x="1386" 
d="M643 1818l-231 203h145l195 -203h-109zM462 1604q-24 25 -24 60q0 34 24 58q25 25 60 25q34 0 58 -25q25 -24 25 -58q0 -35 -25 -60q-24 -24 -58 -24q-35 0 -60 24zM804 1604q-25 25 -25 60q0 34 25 58q24 25 58 25q35 0 60 -25q24 -24 24 -58q0 -35 -24 -60
q-25 -24 -60 -24q-34 0 -58 24zM270 512q0 -184 112 -295q114 -113 310 -113t310 113q112 111 112 295v931h137v-939q0 -236 -149 -380q-153 -147 -410 -147t-409 147q-149 144 -149 380v939h136v-931z" />
    <glyph glyph-name="uni01DC" unicode="&#x1dc;" horiz-adv-x="1111" 
d="M497 1565l-217 269h148l187 -269h-118zM309 1286q-28 28 -28 65q0 38 28 66q27 27 65 27t66 -27q27 -28 27 -66t-27 -65q-28 -27 -66 -27t-65 27zM664 1286q-27 27 -27 65t27 66q28 27 66 27t66 -27q27 -28 27 -66t-27 -65q-28 -27 -66 -27t-66 27zM992 0h-125v202h-3
q-45 -100 -141 -156q-98 -58 -225 -58q-176 0 -281 106q-105 107 -105 289v694h132v-672q0 -143 78 -221q76 -77 214 -77q142 0 232 92q91 93 91 245v633h133v-1077z" />
    <glyph glyph-name="uni01DE" unicode="&#x1de;" horiz-adv-x="1262" 
d="M933 442h-606l-160 -442h-145l540 1443h136l539 -1443h-144zM368 560h524l-259 714h-6zM518 1722q25 -24 25 -58q0 -35 -25 -60q-24 -24 -58 -24q-35 0 -60 24q-24 25 -24 60q0 34 24 58q25 25 60 25q34 0 58 -25zM935 1979v-84h-610v84h610zM860 1722q24 -24 24 -58
q0 -35 -24 -60q-25 -24 -60 -24q-34 0 -58 24q-25 25 -25 60q0 34 25 58q24 25 58 25q35 0 60 -25z" />
    <glyph glyph-name="uni01DF" unicode="&#x1df;" horiz-adv-x="1048" 
d="M704 191q98 86 98 214v119l-315 -22q-277 -18 -277 -203q0 -87 70 -141t182 -54q145 0 242 87zM175 74q-100 87 -100 226q0 281 396 309l331 22v92q0 118 -71 183q-72 65 -202 65q-113 0 -187 -54q-74 -55 -92 -151h-127q8 142 123 232q114 91 284 91q185 0 295 -96
q109 -96 109 -259v-734h-126v206h-3q-44 -98 -144 -158q-101 -60 -225 -60q-161 0 -261 86zM286 1285q-26 26 -26 63t26 63t63 26q38 0 64 -26t26 -63t-26 -63q-27 -26 -64 -26t-63 26zM642 1285q-27 26 -27 63t27 63q26 26 63 26q38 0 63 -26q26 -25 26 -63q0 -37 -26 -63
t-63 -26t-63 26zM834 1634h-618v85h618v-85z" />
    <glyph glyph-name="uni01E0" unicode="&#x1e0;" horiz-adv-x="1262" 
d="M933 442h-606l-160 -442h-145l540 1443h136l539 -1443h-144zM368 560h524l-259 714h-6zM560 1597q-29 29 -29 70q0 40 29 68q29 29 70 29t70 -29q29 -28 29 -68q0 -41 -29 -70t-70 -29t-70 29zM935 1895h-610v84h610v-84z" />
    <glyph glyph-name="uni01E1" unicode="&#x1e1;" horiz-adv-x="1048" 
d="M704 191q98 86 98 214v119l-315 -22q-277 -18 -277 -203q0 -87 70 -141t182 -54q145 0 242 87zM175 74q-100 87 -100 226q0 281 396 309l331 22v92q0 118 -71 183q-72 65 -202 65q-113 0 -187 -54q-74 -55 -92 -151h-127q8 142 123 232q114 91 284 91q185 0 295 -96
q109 -96 109 -259v-734h-126v206h-3q-44 -98 -144 -158q-101 -60 -225 -60q-161 0 -261 86zM455 1289q-31 30 -31 72t31 73q31 30 72 30t72 -30q31 -31 31 -73t-31 -72q-30 -30 -72 -30t-72 30zM834 1634h-618v85h618v-85z" />
    <glyph glyph-name="uni01E2" unicode="&#x1e2;" horiz-adv-x="1945" 
d="M433 561h544v766h-170zM977 443h-600l-214 -443h-141l702 1443h1091v-124h-702v-526h665v-122h-665v-547h702v-124h-838v443zM1674 1633h-610v85h610v-85z" />
    <glyph glyph-name="uni01E3" unicode="&#x1e3;" horiz-adv-x="1795" 
d="M880 246h-8q-119 -258 -418 -258q-172 0 -276 84q-103 84 -103 224q0 136 101 214q102 79 292 89l333 19v98q0 116 -76 186q-76 69 -202 69q-119 0 -193 -55q-75 -55 -86 -150h-130q12 144 122 233q112 90 283 90q142 0 242 -64q101 -66 129 -180h8q108 244 386 244
q205 0 325 -141t120 -381v-58h-795v-10q0 -179 96 -287q96 -107 256 -107q116 0 195 55q78 53 102 145h132q-25 -141 -142 -228q-119 -89 -289 -89q-297 0 -404 258zM1036 874q-93 -97 -102 -258h658q-2 163 -88 259q-86 97 -229 97q-146 0 -239 -98zM701 192
q100 88 100 215v104l-318 -19q-273 -15 -273 -194q0 -87 68 -140q68 -54 179 -54q145 0 244 88zM1211 1315h-618v85h618v-85z" />
    <glyph glyph-name="Gcaron" unicode="&#x1e6;" horiz-adv-x="1409" 
d="M386 1846h131l206 -217h2l206 217h131l-283 -295h-110zM1323 586q0 -286 -159 -447q-159 -162 -440 -162q-293 0 -471 206q-177 206 -177 547q0 335 176 536q177 200 472 200q227 0 388 -125t202 -332h-142q-44 154 -164 242q-119 88 -284 88q-235 0 -371 -163
q-137 -164 -137 -446q0 -286 138 -456t370 -170q209 0 336 123t127 327v51h-448v120h584v-139z" />
    <glyph glyph-name="gcaron" unicode="&#x1e7;" horiz-adv-x="1144" 
d="M506 1251l-273 301h127l192 -219h5l192 219h127l-273 -301h-97zM795 233q97 118 97 308q0 191 -97 311q-97 119 -253 119q-154 0 -249 -118q-94 -118 -94 -312q0 -193 94 -310t249 -117q156 0 253 119zM255 -299q-118 76 -138 200h138q20 -73 101 -116q83 -44 203 -44
q151 0 242 72q91 73 91 197v219h-3q-46 -106 -143 -169q-100 -65 -227 -65q-203 0 -329 151t-126 395q0 247 126 397q126 151 332 151q127 0 228 -65q98 -63 146 -170h2v223h126v-1057q0 -184 -128 -290q-128 -105 -345 -105q-178 0 -296 76z" />
    <glyph glyph-name="uni01E8" unicode="&#x1e8;" horiz-adv-x="1209" 
d="M134 0v1443h136v-748h8l686 748h173l-593 -638l652 -805h-175l-573 708l-178 -193v-515h-136zM242 1846h131l206 -217h2l206 217h131l-283 -295h-110z" />
    <glyph glyph-name="uni01E9" unicode="&#x1e9;" horiz-adv-x="988" 
d="M799 1077h164l-486 -465l496 -612h-156l-434 531l-122 -111v-420h-132v1506h132v-941zM-143 1909h131l206 -217h2l206 217h131l-283 -295h-110z" />
    <glyph glyph-name="uni01EA" unicode="&#x1ea;" horiz-adv-x="1464" 
d="M1055 -412q-27 -11 -81 -11q-98 0 -160 56q-61 56 -61 145q0 127 112 214v5q-61 -20 -133 -20q-305 0 -481 199q-175 199 -175 546q0 345 176 544q176 200 480 200t479 -199q175 -200 175 -545q0 -250 -95 -419q-65 -115 -200 -223q-130 -109 -153 -134q-64 -69 -64 -140
q0 -55 36 -90q36 -34 95 -34q33 0 50 5v-99zM355 1173q-139 -167 -139 -451q0 -286 139 -452q138 -166 377 -166q237 0 376 167q138 166 138 451t-138 451q-139 166 -376 166q-238 0 -377 -166z" />
    <glyph glyph-name="uni01EB" unicode="&#x1eb;" horiz-adv-x="1109" 
d="M590 -364q-60 59 -60 151q0 109 103 203v4q-38 -6 -80 -6q-224 0 -356 150q-133 149 -133 401t133 401q132 149 356 149t357 -149t133 -401q0 -307 -209 -472q-183 -149 -183 -262q0 -56 36 -90q35 -34 93 -34q32 0 60 6v-97q-39 -13 -94 -13q-95 0 -156 59zM813 223
q95 116 95 316t-95 316t-260 116t-260 -116t-95 -316t95 -316q96 -116 260 -116q165 0 260 116z" />
    <glyph glyph-name="uni01EC" unicode="&#x1ec;" horiz-adv-x="1464" 
d="M1055 -412q-27 -11 -81 -11q-98 0 -160 56q-61 56 -61 145q0 127 112 214v5q-61 -20 -133 -20q-305 0 -481 199q-175 199 -175 546q0 345 176 544q176 200 480 200t479 -199q175 -200 175 -545q0 -250 -95 -419q-65 -115 -200 -223q-130 -109 -153 -134q-64 -69 -64 -140
q0 -55 36 -90q36 -34 95 -34q33 0 50 5v-99zM355 1173q-139 -167 -139 -451q0 -286 139 -452q138 -166 377 -166q237 0 376 167q138 166 138 451t-138 451q-139 166 -376 166q-238 0 -377 -166zM1036 1633h-610v85h610v-85z" />
    <glyph glyph-name="uni01ED" unicode="&#x1ed;" horiz-adv-x="1109" 
d="M860 1315h-618v85h618v-85zM590 -364q-60 59 -60 151q0 109 103 203v4q-38 -6 -80 -6q-224 0 -356 150q-133 149 -133 401t133 401q132 149 356 149t357 -149t133 -401q0 -307 -209 -472q-183 -149 -183 -262q0 -56 36 -90q35 -34 93 -34q32 0 60 6v-97q-39 -13 -94 -13
q-95 0 -156 59zM813 223q95 116 95 316t-95 316t-260 116t-260 -116t-95 -316t95 -316q96 -116 260 -116q165 0 260 116z" />
    <glyph glyph-name="uni01F1" unicode="&#x1f1;" horiz-adv-x="2594" 
d="M1456 99l866 1214v6h-838v124h1011v-100l-864 -1213v-6h876v-124h-1051v99zM609 1443q324 0 504 -189q180 -190 180 -532q0 -343 -180 -532q-179 -190 -504 -190h-475v1443h475zM271 124h330q266 0 410 155q143 155 143 442q0 288 -143 443q-144 155 -410 155h-330v-1195
z" />
    <glyph glyph-name="uni01F2" unicode="&#x1f2;" horiz-adv-x="2334" 
d="M1452 100l645 864v2h-645v111h796v-101l-644 -862v-3h646v-111h-798v100zM609 1443q324 0 504 -189q180 -190 180 -532q0 -343 -180 -532q-179 -190 -504 -190h-475v1443h475zM271 124h330q266 0 410 155q143 155 143 442q0 288 -143 443q-144 155 -410 155h-330v-1195z
" />
    <glyph glyph-name="uni01F3" unicode="&#x1f3;" horiz-adv-x="2121" 
d="M1239 100l645 864v2h-645v111h796v-101l-644 -862v-3h646v-111h-798v100zM193 140q-129 153 -129 399q0 245 129 398q127 152 329 152q128 0 229 -64q97 -63 141 -169h3v650h133v-1506h-126v229h-3q-47 -111 -145 -175q-100 -66 -229 -66q-203 0 -332 152zM295 852
q-96 -119 -96 -313t96 -313t251 -119t253 120q97 120 97 312q0 191 -97 312q-98 120 -253 120t-251 -119z" />
    <glyph glyph-name="uni01F4" unicode="&#x1f4;" horiz-adv-x="1409" 
d="M664 1551l252 295h154l-289 -295h-117zM1323 586q0 -286 -159 -447q-159 -162 -440 -162q-293 0 -471 206q-177 206 -177 547q0 335 176 536q177 200 472 200q227 0 388 -125t202 -332h-142q-44 154 -164 242q-119 88 -284 88q-235 0 -371 -163q-137 -164 -137 -446
q0 -286 138 -456t370 -170q209 0 336 123t127 327v51h-448v120h584v-139z" />
    <glyph glyph-name="uni01F5" unicode="&#x1f5;" horiz-adv-x="1144" 
d="M489 1251l220 301h153l-256 -301h-117zM795 233q97 118 97 308q0 191 -97 311q-97 119 -253 119q-154 0 -249 -118q-94 -118 -94 -312q0 -193 94 -310t249 -117q156 0 253 119zM255 -299q-118 76 -138 200h138q20 -73 101 -116q83 -44 203 -44q151 0 242 72q91 73 91 197
v219h-3q-46 -106 -143 -169q-100 -65 -227 -65q-203 0 -329 151t-126 395q0 247 126 397q126 151 332 151q127 0 228 -65q98 -63 146 -170h2v223h126v-1057q0 -184 -128 -290q-128 -105 -345 -105q-178 0 -296 76z" />
    <glyph glyph-name="uni01F8" unicode="&#x1f8;" horiz-adv-x="1393" 
d="M351 1846h154l252 -295h-117zM134 0v1443h135l846 -1205h7v1205h135v-1443h-132l-849 1206h-7v-1206h-135z" />
    <glyph glyph-name="uni01F9" unicode="&#x1f9;" horiz-adv-x="1111" 
d="M501 1251l-256 301h153l220 -301h-117zM118 1077h124v-201h4q95 213 362 213q178 0 283 -106q106 -107 106 -290v-693h-132v672q0 142 -78 221q-78 78 -216 78q-144 0 -232 -94q-89 -93 -89 -244v-633h-132v1077z" />
    <glyph glyph-name="Aringacute" unicode="&#x1fa;" horiz-adv-x="1262" 
d="M933 442h-606l-160 -442h-145l540 1443h136l539 -1443h-144zM368 560h524l-259 714h-6zM497 1540q-55 56 -55 133t55 133q56 55 133 55t133 -55q55 -56 55 -133t-55 -133q-56 -55 -133 -55t-133 55zM715 1588q35 35 35 85t-35 86q-35 35 -85 35t-85 -35q-35 -36 -35 -86
t35 -85t85 -35t85 35zM851 2091l-173 -178h-95l131 178h137z" />
    <glyph glyph-name="aringacute" unicode="&#x1fb;" horiz-adv-x="1048" 
d="M704 191q98 86 98 214v119l-315 -22q-277 -18 -277 -203q0 -87 70 -141t182 -54q145 0 242 87zM175 74q-100 87 -100 226q0 281 396 309l331 22v92q0 118 -71 183q-72 65 -202 65q-113 0 -187 -54q-74 -55 -92 -151h-127q8 142 123 232q114 91 284 91q185 0 295 -96
q109 -96 109 -259v-734h-126v206h-3q-44 -98 -144 -158q-101 -60 -225 -60q-161 0 -261 86zM394 1255q-55 55 -55 132t55 133q56 55 133 55t133 -55q55 -56 55 -133t-55 -132q-56 -55 -133 -55t-133 55zM443 1303q35 -35 84 -35q50 0 84 35q35 35 35 84q0 50 -35 85
q-34 35 -84 35t-84 -35q-35 -35 -35 -85q0 -49 35 -84zM605 1837h125l-160 -186h-97z" />
    <glyph glyph-name="AEacute" unicode="&#x1fc;" horiz-adv-x="1945" 
d="M1309 1551l252 295h154l-289 -295h-117zM433 561h544v766h-170zM977 443h-600l-214 -443h-141l702 1443h1091v-124h-702v-526h665v-122h-665v-547h702v-124h-838v443z" />
    <glyph glyph-name="aeacute" unicode="&#x1fd;" horiz-adv-x="1795" 
d="M838 1251l220 301h153l-256 -301h-117zM880 246h-8q-119 -258 -418 -258q-172 0 -276 84q-103 84 -103 224q0 136 101 214q102 79 292 89l333 19v98q0 116 -76 186q-76 69 -202 69q-119 0 -193 -55q-75 -55 -86 -150h-130q12 144 122 233q112 90 283 90q142 0 242 -64
q101 -66 129 -180h8q108 244 386 244q205 0 325 -141t120 -381v-58h-795v-10q0 -179 96 -287q96 -107 256 -107q116 0 195 55q78 53 102 145h132q-25 -141 -142 -228q-119 -89 -289 -89q-297 0 -404 258zM1036 874q-93 -97 -102 -258h658q-2 163 -88 259q-86 97 -229 97
q-146 0 -239 -98zM701 192q100 88 100 215v104l-318 -19q-273 -15 -273 -194q0 -87 68 -140q68 -54 179 -54q145 0 244 88z" />
    <glyph glyph-name="Oslashacute" unicode="&#x1fe;" horiz-adv-x="1465" 
d="M821 1551h-117l252 295h154zM418 208q129 -104 313 -104q237 0 377 167q139 167 139 450q0 253 -113 416zM1072 1211q-136 128 -341 128q-237 0 -376 -167t-139 -451q0 -276 133 -442zM1222 1250q165 -199 165 -529q0 -343 -177 -543q-177 -201 -479 -201
q-233 0 -396 124l-126 -164l-79 59l132 171q-186 202 -186 554q0 343 177 544t478 201q255 0 424 -147l130 167l77 -54z" />
    <glyph glyph-name="oslashacute" unicode="&#x1ff;" horiz-adv-x="1109" 
d="M630 1251h-117l220 301h153zM360 162q81 -55 193 -55q165 0 260 115q95 116 95 317q0 183 -81 298zM760 906q-87 65 -207 65q-164 0 -259 -115q-95 -116 -95 -317q0 -193 89 -309zM903 946q140 -149 140 -407q0 -251 -134 -401q-133 -150 -356 -150q-152 0 -264 72
l-81 -117l-82 55l86 124q-148 151 -148 417q0 251 134 401q133 149 355 149q162 0 278 -81l81 116l79 -51z" />
    <glyph glyph-name="uni0200" unicode="&#x200;" horiz-adv-x="1262" 
d="M933 442h-606l-160 -442h-145l540 1443h136l539 -1443h-144zM368 560h524l-259 714h-6zM429 1846h147l252 -295h-111zM138 1846h147l252 -295h-111z" />
    <glyph glyph-name="uni0201" unicode="&#x201;" horiz-adv-x="1048" 
d="M704 191q98 86 98 214v119l-315 -22q-277 -18 -277 -203q0 -87 70 -141t182 -54q145 0 242 87zM175 74q-100 87 -100 226q0 281 396 309l331 22v92q0 118 -71 183q-72 65 -202 65q-113 0 -187 -54q-74 -55 -92 -151h-127q8 142 123 232q114 91 284 91q185 0 295 -96
q109 -96 109 -259v-734h-126v206h-3q-44 -98 -144 -158q-101 -60 -225 -60q-161 0 -261 86zM331 1251l-252 301h151l209 -301h-108zM616 1251l-252 301h151l209 -301h-108z" />
    <glyph glyph-name="uni0202" unicode="&#x202;" horiz-adv-x="1262" 
d="M933 442h-606l-160 -442h-145l540 1443h136l539 -1443h-144zM368 560h524l-259 714h-6zM338 1551q0 121 82 197q81 75 210 75t211 -75q81 -76 81 -197h-94q0 81 -56 135t-142 54t-142 -54t-56 -135h-94z" />
    <glyph glyph-name="uni0203" unicode="&#x203;" horiz-adv-x="1048" 
d="M704 191q98 86 98 214v119l-315 -22q-277 -18 -277 -203q0 -87 70 -141t182 -54q145 0 242 87zM175 74q-100 87 -100 226q0 281 396 309l331 22v92q0 118 -71 183q-72 65 -202 65q-113 0 -187 -54q-74 -55 -92 -151h-127q8 142 123 232q114 91 284 91q185 0 295 -96
q109 -96 109 -259v-734h-126v206h-3q-44 -98 -144 -158q-101 -60 -225 -60q-161 0 -261 86zM226 1251q0 129 84 208q83 78 217 78t217 -78q84 -79 84 -208h-97q0 86 -58 143t-146 57t-146 -57t-58 -143h-97z" />
    <glyph glyph-name="uni0204" unicode="&#x204;" horiz-adv-x="1104" 
d="M368 1846h147l252 -295h-111zM77 1846h147l252 -295h-111zM1005 0h-871v1443h871v-124h-735v-519h698v-122h-698v-554h735v-124z" />
    <glyph glyph-name="uni0205" unicode="&#x205;" horiz-adv-x="1075" 
d="M304 873q-94 -98 -103 -259h670q-2 161 -92 259q-91 99 -237 99q-145 0 -238 -99zM995 305q-24 -139 -146 -227q-123 -90 -297 -90q-224 0 -356 147q-132 148 -132 401q0 251 131 402q132 151 349 151q212 0 339 -142q126 -143 126 -383v-58h-808v-7q0 -182 97 -288
q96 -106 257 -106q119 0 203 56q82 54 106 144h131zM348 1251l-252 301h151l209 -301h-108zM633 1251l-252 301h151l209 -301h-108z" />
    <glyph glyph-name="uni0206" unicode="&#x206;" horiz-adv-x="1104" 
d="M1005 0h-871v1443h871v-124h-735v-519h698v-122h-698v-554h735v-124zM277 1551q0 121 82 197q81 75 210 75t211 -75q81 -76 81 -197h-94q0 81 -56 135t-142 54t-142 -54t-56 -135h-94z" />
    <glyph glyph-name="uni0207" unicode="&#x207;" horiz-adv-x="1075" 
d="M304 873q-94 -98 -103 -259h670q-2 161 -92 259q-91 99 -237 99q-145 0 -238 -99zM995 305q-24 -139 -146 -227q-123 -90 -297 -90q-224 0 -356 147q-132 148 -132 401q0 251 131 402q132 151 349 151q212 0 339 -142q126 -143 126 -383v-58h-808v-7q0 -182 97 -288
q96 -106 257 -106q119 0 203 56q82 54 106 144h131zM243 1251q0 129 84 208q83 78 217 78t217 -78q84 -79 84 -208h-97q0 86 -58 143t-146 57t-146 -57t-58 -143h-97z" />
    <glyph glyph-name="uni0208" unicode="&#x208;" horiz-adv-x="406" 
d="M135 0v1443h136v-1443h-136zM2 1846h147l252 -295h-111zM-289 1846h147l252 -295h-111z" />
    <glyph glyph-name="uni0209" unicode="&#x209;" horiz-adv-x="390" 
d="M129 1077h132v-1077h-132v1077zM-1 1251l-252 301h151l209 -301h-108zM284 1251l-252 301h151l209 -301h-108z" />
    <glyph glyph-name="uni020A" unicode="&#x20a;" horiz-adv-x="406" 
d="M135 0v1443h136v-1443h-136zM-89 1551q0 121 82 197q81 75 210 75t211 -75q81 -76 81 -197h-94q0 81 -56 135t-142 54t-142 -54t-56 -135h-94z" />
    <glyph glyph-name="uni020B" unicode="&#x20b;" horiz-adv-x="390" 
d="M129 1077h132v-1077h-132v1077zM-106 1251q0 129 84 208q83 78 217 78t217 -78q84 -79 84 -208h-97q0 86 -58 143t-146 57t-146 -57t-58 -143h-97z" />
    <glyph glyph-name="uni020C" unicode="&#x20c;" horiz-adv-x="1465" 
d="M530 1846h147l252 -295h-111zM239 1846h147l252 -295h-111zM1210 1265q177 -201 177 -544t-177 -543q-177 -201 -479 -201t-478 201q-177 200 -177 543t177 544t478 201q302 0 479 -201zM355 1172q-139 -167 -139 -451q0 -283 139 -450q140 -167 376 -167q237 0 377 167
q139 167 139 450q0 284 -139 451q-140 167 -377 167t-376 -167z" />
    <glyph glyph-name="uni020D" unicode="&#x20d;" horiz-adv-x="1109" 
d="M198 138q-134 149 -134 401q0 251 134 401q133 149 355 149q223 0 356 -149q134 -150 134 -401t-134 -401q-133 -150 -356 -150q-222 0 -355 150zM813 222q95 116 95 317t-95 317q-95 115 -260 115q-164 0 -259 -115q-95 -116 -95 -317t95 -317q95 -115 259 -115
q165 0 260 115zM357 1251l-252 301h151l209 -301h-108zM642 1251l-252 301h151l209 -301h-108z" />
    <glyph glyph-name="uni020E" unicode="&#x20e;" horiz-adv-x="1465" 
d="M439 1551q0 121 82 197q81 75 210 75t211 -75q81 -76 81 -197h-94q0 81 -56 135t-142 54t-142 -54t-56 -135h-94zM1210 1265q177 -201 177 -544t-177 -543q-177 -201 -479 -201t-478 201q-177 200 -177 543t177 544t478 201q302 0 479 -201zM355 1172
q-139 -167 -139 -451q0 -283 139 -450q140 -167 376 -167q237 0 377 167q139 167 139 450q0 284 -139 451q-140 167 -377 167t-376 -167z" />
    <glyph glyph-name="uni020F" unicode="&#x20f;" horiz-adv-x="1109" 
d="M198 138q-134 149 -134 401q0 251 134 401q133 149 355 149q223 0 356 -149q134 -150 134 -401t-134 -401q-133 -150 -356 -150q-222 0 -355 150zM813 222q95 116 95 317t-95 317q-95 115 -260 115q-164 0 -259 -115q-95 -116 -95 -317t95 -317q95 -115 259 -115
q165 0 260 115zM252 1251q0 129 84 208q83 78 217 78t217 -78q84 -79 84 -208h-97q0 86 -58 143t-146 57t-146 -57t-58 -143h-97z" />
    <glyph glyph-name="uni0210" unicode="&#x210;" horiz-adv-x="1199" 
d="M316 1846h147l252 -295h-111zM25 1846h147l252 -295h-111zM270 712h369q157 0 244 80q88 80 88 225q0 143 -90 224q-89 80 -247 80h-364v-609zM270 0h-136v1443h516q211 0 337 -115q125 -114 125 -307q0 -153 -82 -262t-227 -146l349 -613h-159l-332 591h-391v-591z" />
    <glyph glyph-name="uni0211" unicode="&#x211;" horiz-adv-x="634" 
d="M119 1077h124v-191h4q28 96 100 150q72 53 173 53q43 0 80 -11v-132q-34 16 -98 16q-114 0 -183 -82q-68 -81 -68 -212v-668h-132v1077zM159 1251l-252 301h151l209 -301h-108zM444 1251l-252 301h151l209 -301h-108z" />
    <glyph glyph-name="uni0212" unicode="&#x212;" horiz-adv-x="1199" 
d="M270 712h369q157 0 244 80q88 80 88 225q0 143 -90 224q-89 80 -247 80h-364v-609zM270 0h-136v1443h516q211 0 337 -115q125 -114 125 -307q0 -153 -82 -262t-227 -146l349 -613h-159l-332 591h-391v-591zM225 1551q0 121 82 197q81 75 210 75t211 -75q81 -76 81 -197
h-94q0 81 -56 135t-142 54t-142 -54t-56 -135h-94z" />
    <glyph glyph-name="uni0213" unicode="&#x213;" horiz-adv-x="634" 
d="M118 1077h124v-191h4q28 96 100 150q72 53 173 53q43 0 80 -11v-132q-34 16 -98 16q-114 0 -183 -82q-68 -81 -68 -212v-668h-132v1077zM53 1251q0 129 84 208q83 78 217 78t217 -78q84 -79 84 -208h-97q0 86 -58 143t-146 57t-146 -57t-58 -143h-97z" />
    <glyph glyph-name="uni0214" unicode="&#x214;" horiz-adv-x="1386" 
d="M491 1846h147l252 -295h-111zM200 1846h147l252 -295h-111zM270 512q0 -184 112 -295q114 -113 310 -113t310 113q112 111 112 295v931h137v-939q0 -236 -149 -380q-153 -147 -410 -147t-409 147q-149 144 -149 380v939h136v-931z" />
    <glyph glyph-name="uni0215" unicode="&#x215;" horiz-adv-x="1111" 
d="M992 0h-125v202h-3q-45 -100 -141 -156q-98 -58 -225 -58q-176 0 -281 106q-105 107 -105 289v694h132v-672q0 -143 78 -221q76 -77 214 -77q142 0 232 92q91 93 91 245v633h133v-1077zM356 1251l-252 301h151l209 -301h-108zM641 1251l-252 301h151l209 -301h-108z" />
    <glyph glyph-name="uni0216" unicode="&#x216;" horiz-adv-x="1386" 
d="M270 512q0 -184 112 -295q114 -113 310 -113t310 113q112 111 112 295v931h137v-939q0 -236 -149 -380q-153 -147 -410 -147t-409 147q-149 144 -149 380v939h136v-931zM400 1551q0 121 82 197q81 75 210 75t211 -75q81 -76 81 -197h-94q0 81 -56 135t-142 54t-142 -54
t-56 -135h-94z" />
    <glyph glyph-name="uni0217" unicode="&#x217;" horiz-adv-x="1111" 
d="M992 0h-125v202h-3q-45 -100 -141 -156q-98 -58 -225 -58q-176 0 -281 106q-105 107 -105 289v694h132v-672q0 -143 78 -221q76 -77 214 -77q142 0 232 92q91 93 91 245v633h133v-1077zM251 1251q0 129 84 208q83 78 217 78t217 -78q84 -79 84 -208h-97q0 86 -58 143
t-146 57t-146 -57t-58 -143h-97z" />
    <glyph glyph-name="uni0218" unicode="&#x218;" horiz-adv-x="1182" 
d="M201 392q11 -130 123 -210q112 -81 281 -81q162 0 267 79q104 79 104 201q0 101 -73 165q-73 63 -234 104l-179 46q-201 51 -293 140q-93 89 -93 231q0 174 141 287q139 112 353 112q210 0 350 -112q139 -111 145 -283h-137q-10 122 -109 197q-99 74 -253 74
q-151 0 -249 -75q-99 -76 -99 -195q0 -93 72 -152q70 -58 230 -99l156 -40q218 -55 315 -144q97 -91 97 -241q0 -190 -142 -304q-142 -115 -381 -115q-226 0 -372 115q-146 114 -157 300h137zM460 -520l95 358h121l-116 -358h-100z" />
    <glyph glyph-name="uni0219" unicode="&#x219;" horiz-adv-x="958" 
d="M206 1005q109 84 277 84q163 0 271 -88t116 -227h-127q-10 92 -80 147q-71 56 -184 56q-109 0 -180 -51q-72 -51 -72 -132q0 -123 201 -173l165 -40q162 -41 230 -105q68 -65 68 -180q0 -136 -117 -222q-116 -86 -298 -86q-172 0 -287 89q-114 88 -125 226h134
q12 -93 88 -148q77 -56 198 -56q122 0 197 51q76 52 76 137q0 69 -46 109q-46 41 -155 68l-182 46q-278 70 -278 277q0 133 110 218zM344 -520l95 358h121l-116 -358h-100z" />
    <glyph glyph-name="uni021A" unicode="&#x21a;" horiz-adv-x="1179" 
d="M456 -520l95 358h121l-116 -358h-100zM520 0v1319h-483v124h1103v-124h-483v-1319h-137z" />
    <glyph glyph-name="uni021B" unicode="&#x21b;" horiz-adv-x="598" 
d="M228 -520l95 358h121l-116 -358h-100zM308 1335v-258h216v-111h-216v-696q0 -84 35 -122q34 -38 109 -38q45 0 77 4v-113q-24 -7 -103 -7q-134 0 -192 63t-58 208v701h-154v111h154v258h132z" />
    <glyph glyph-name="uni021E" unicode="&#x21e;" horiz-adv-x="1387" 
d="M1114 0v677h-844v-677h-136v1443h136v-642h844v642h137v-1443h-137zM354 1846h131l206 -217h2l206 217h131l-283 -295h-110z" />
    <glyph glyph-name="uni021F" unicode="&#x21f;" horiz-adv-x="1136" 
d="M129 1506h132v-630h3q95 213 363 213q178 0 287 -109q109 -110 109 -290v-690h-133v669q0 141 -81 222q-80 80 -219 80q-147 0 -238 -95t-91 -248v-628h-132v1506zM-142 1909h131l206 -217h2l206 217h131l-283 -295h-110z" />
    <glyph glyph-name="uni0226" unicode="&#x226;" horiz-adv-x="1262" 
d="M933 442h-606l-160 -442h-145l540 1443h136l539 -1443h-144zM368 560h524l-259 714h-6zM558 1605q-30 30 -30 72t30 72t72 30t72 -30t30 -72t-30 -72t-72 -30t-72 30z" />
    <glyph glyph-name="uni0227" unicode="&#x227;" horiz-adv-x="1048" 
d="M704 191q98 86 98 214v119l-315 -22q-277 -18 -277 -203q0 -87 70 -141t182 -54q145 0 242 87zM175 74q-100 87 -100 226q0 281 396 309l331 22v92q0 118 -71 183q-72 65 -202 65q-113 0 -187 -54q-74 -55 -92 -151h-127q8 142 123 232q114 91 284 91q185 0 295 -96
q109 -96 109 -259v-734h-126v206h-3q-44 -98 -144 -158q-101 -60 -225 -60q-161 0 -261 86zM454 1290q-31 30 -31 73t31 73q30 31 73 31t73 -31q31 -30 31 -73t-31 -73q-30 -31 -73 -31t-73 31z" />
    <glyph glyph-name="uni0228" unicode="&#x228;" horiz-adv-x="1104" 
d="M270 1319v-519h698v-122h-698v-554h735v-124h-383l-54 -141q208 0 208 -152q0 -76 -61 -124q-62 -49 -157 -50q-84 0 -139 17v80q41 -16 122 -16q63 0 100 24q37 25 37 66q0 82 -155 82h-53v60l62 154h-398v1443h871v-124h-735z" />
    <glyph glyph-name="uni0229" unicode="&#x229;" horiz-adv-x="1075" 
d="M871 614q-2 161 -92 259q-91 99 -237 99q-145 0 -238 -99q-94 -98 -103 -259h670zM201 506v-7q0 -182 97 -288q96 -106 257 -106q119 0 203 56q82 54 106 144h131q-23 -129 -129 -215q-108 -87 -265 -100l-50 -131q208 0 208 -152q0 -76 -61 -124q-62 -49 -157 -50
q-84 0 -139 17v80q41 -16 122 -16q63 0 100 24q37 25 37 66q0 82 -155 82h-53v60l58 143q-207 14 -326 160q-121 146 -121 387q0 251 131 402q132 151 349 151q212 0 339 -142q126 -143 126 -383v-58h-808z" />
    <glyph glyph-name="uni022A" unicode="&#x22a;" horiz-adv-x="1465" 
d="M1210 1265q177 -201 177 -544t-177 -543q-177 -201 -479 -201t-478 201q-177 200 -177 543t177 544t478 201q302 0 479 -201zM355 1172q-139 -167 -139 -451q0 -283 139 -450q140 -167 376 -167q237 0 377 167q139 167 139 450q0 284 -139 451q-140 167 -377 167
t-376 -167zM619 1722q25 -24 25 -58q0 -35 -25 -60q-24 -24 -58 -24q-35 0 -60 24q-24 25 -24 60q0 34 24 58q25 25 60 25q34 0 58 -25zM1036 1979v-84h-610v84h610zM961 1722q24 -24 24 -58q0 -35 -24 -60q-25 -24 -60 -24q-34 0 -58 24q-25 25 -25 60q0 34 25 58
q24 25 58 25q35 0 60 -25z" />
    <glyph glyph-name="uni022B" unicode="&#x22b;" horiz-adv-x="1109" 
d="M312 1285q-26 26 -26 63t26 63t63 26q38 0 64 -26t26 -63t-26 -63q-27 -26 -64 -26t-63 26zM668 1285q-27 26 -27 63t27 63q26 26 63 26q38 0 63 -26q26 -25 26 -63q0 -37 -26 -63t-63 -26t-63 26zM860 1634h-618v85h618v-85zM198 138q-134 149 -134 401q0 251 134 401
q133 149 355 149q223 0 356 -149q134 -150 134 -401t-134 -401q-133 -150 -356 -150q-222 0 -355 150zM813 222q95 116 95 317t-95 317q-95 115 -260 115q-164 0 -259 -115q-95 -116 -95 -317t95 -317q95 -115 259 -115q165 0 260 115z" />
    <glyph glyph-name="uni022C" unicode="&#x22c;" horiz-adv-x="1465" 
d="M715 1617q-70 75 -107 75q-77 0 -77 -135h-91q0 104 43 164q44 60 122 60q73 0 144 -75q70 -76 104 -76q72 0 72 136h91q0 -102 -44 -163q-44 -62 -119 -62q-69 0 -138 76zM1036 1895h-610v84h610v-84zM1210 1265q177 -201 177 -544t-177 -543q-177 -201 -479 -201
t-478 201q-177 200 -177 543t177 544t478 201q302 0 479 -201zM355 1172q-139 -167 -139 -451q0 -283 139 -450q140 -167 376 -167q237 0 377 167q139 167 139 450q0 284 -139 451q-140 167 -377 167t-376 -167z" />
    <glyph glyph-name="uni022D" unicode="&#x22d;" horiz-adv-x="1109" 
d="M544 1322q-74 78 -113 78q-78 0 -78 -144h-91q0 109 43 171q44 63 123 63q75 0 150 -78q76 -79 111 -79q73 0 73 144h91q0 -107 -43 -170q-44 -64 -121 -64q-70 0 -145 79zM862 1634h-618v85h618v-85zM198 138q-134 149 -134 401q0 251 134 401q133 149 355 149
q223 0 356 -149q134 -150 134 -401t-134 -401q-133 -150 -356 -150q-222 0 -355 150zM813 222q95 116 95 317t-95 317q-95 115 -260 115q-164 0 -259 -115q-95 -116 -95 -317t95 -317q95 -115 259 -115q165 0 260 115z" />
    <glyph glyph-name="uni022E" unicode="&#x22e;" horiz-adv-x="1465" 
d="M659 1605q-30 30 -30 72t30 72t72 30t72 -30t30 -72t-30 -72t-72 -30t-72 30zM1210 1265q177 -201 177 -544t-177 -543q-177 -201 -479 -201t-478 201q-177 200 -177 543t177 544t478 201q302 0 479 -201zM355 1172q-139 -167 -139 -451q0 -283 139 -450
q140 -167 376 -167q237 0 377 167q139 167 139 450q0 284 -139 451q-140 167 -377 167t-376 -167z" />
    <glyph glyph-name="uni022F" unicode="&#x22f;" horiz-adv-x="1109" 
d="M480 1290q-31 30 -31 73t31 73q30 31 73 31t73 -31q31 -30 31 -73t-31 -73q-30 -31 -73 -31t-73 31zM198 138q-134 149 -134 401q0 251 134 401q133 149 355 149q223 0 356 -149q134 -150 134 -401t-134 -401q-133 -150 -356 -150q-222 0 -355 150zM813 222
q95 116 95 317t-95 317q-95 115 -260 115q-164 0 -259 -115q-95 -116 -95 -317t95 -317q95 -115 259 -115q165 0 260 115z" />
    <glyph glyph-name="uni0230" unicode="&#x230;" horiz-adv-x="1465" 
d="M661 1597q-29 29 -29 70q0 40 29 68q29 29 70 29t70 -29q29 -28 29 -68q0 -41 -29 -70t-70 -29t-70 29zM1036 1895h-610v84h610v-84zM1210 1265q177 -201 177 -544t-177 -543q-177 -201 -479 -201t-478 201q-177 200 -177 543t177 544t478 201q302 0 479 -201zM355 1172
q-139 -167 -139 -451q0 -283 139 -450q140 -167 376 -167q237 0 377 167q139 167 139 450q0 284 -139 451q-140 167 -377 167t-376 -167z" />
    <glyph glyph-name="uni0231" unicode="&#x231;" horiz-adv-x="1109" 
d="M198 138q-134 149 -134 401q0 251 134 401q133 149 355 149q223 0 356 -149q134 -150 134 -401t-134 -401q-133 -150 -356 -150q-222 0 -355 150zM813 222q95 116 95 317t-95 317q-95 115 -260 115q-164 0 -259 -115q-95 -116 -95 -317t95 -317q95 -115 259 -115
q165 0 260 115zM481 1289q-31 30 -31 72t31 73q31 30 72 30t72 -30q31 -31 31 -73t-31 -72q-30 -30 -72 -30t-72 30zM860 1634h-618v85h618v-85z" />
    <glyph glyph-name="uni0232" unicode="&#x232;" horiz-adv-x="1219" 
d="M540 0v624l-517 819h156l427 -685h5l427 685h156l-517 -819v-624h-137zM913 1633h-610v85h610v-85z" />
    <glyph glyph-name="uni0233" unicode="&#x233;" horiz-adv-x="980" 
d="M132 -367v113q30 -7 65 -7q73 0 119 43q45 42 81 144l24 67l-405 1084h142l330 -943h3l331 943h140l-420 -1129q-70 -190 -142 -256q-71 -67 -202 -67q-34 0 -66 8zM797 1315h-618v85h618v-85z" />
    <glyph glyph-name="uni0237" unicode="&#x237;" horiz-adv-x="388" 
d="M260 -81q0 -156 -75 -228q-74 -70 -233 -70h-30v113h27q97 0 138 42q42 41 42 140v1161h131v-1158z" />
    <glyph glyph-name="circumflex" unicode="&#x2c6;" horiz-adv-x="899" 
d="M770 1251h-127l-192 220h-5l-192 -220h-127l273 301h97z" />
    <glyph glyph-name="caron" unicode="&#x2c7;" horiz-adv-x="899" 
d="M400 1251l-273 301h127l192 -219h5l192 219h127l-273 -301h-97z" />
    <glyph glyph-name="breve" unicode="&#x2d8;" horiz-adv-x="938" 
d="M264 1530q0 -86 58 -143t146 -57t146 57t58 143h97q0 -129 -84 -208q-83 -78 -217 -78t-217 78q-84 79 -84 208h97z" />
    <glyph glyph-name="dotaccent" unicode="&#x2d9;" horiz-adv-x="868" 
d="M360 1290q-31 30 -31 73t31 73q30 31 73 31t73 -31q31 -30 31 -73t-31 -73q-30 -31 -73 -31t-73 31z" />
    <glyph glyph-name="ring" unicode="&#x2da;" horiz-adv-x="928" 
d="M331 1262q-55 56 -55 133t55 133q55 55 132 55t133 -55q55 -56 55 -133t-55 -133q-56 -55 -133 -55t-132 55zM548 1310q35 35 35 85t-35 85t-85 35q-49 0 -84 -35t-35 -85t35 -85t84 -35q50 0 85 35z" />
    <glyph glyph-name="ogonek" unicode="&#x2db;" horiz-adv-x="839" 
d="M582 -415q-49 -20 -115 -20q-92 0 -147 49t-55 131q0 149 164 262l88 -2q-140 -110 -140 -224q0 -53 33 -84q34 -31 91 -31q44 0 81 15v-96z" />
    <glyph glyph-name="tilde" unicode="&#x2dc;" horiz-adv-x="899" 
d="M435 1336q-74 78 -113 78q-78 0 -78 -144h-91q0 109 43 171q44 63 123 63q75 0 150 -78q76 -79 111 -79q73 0 73 144h91q0 -107 -43 -170q-44 -64 -121 -64q-70 0 -145 79z" />
    <glyph glyph-name="hungarumlaut" unicode="&#x2dd;" horiz-adv-x="938" 
d="M651 1552h151l-252 -301h-108zM366 1552h151l-252 -301h-108z" />
    <glyph glyph-name="gravecomb" unicode="&#x300;" 
d="M-57 1251l-256 301h153l220 -301h-117z" />
    <glyph glyph-name="acutecomb" unicode="&#x301;" 
d="M-66 1251l220 301h153l-256 -301h-117z" />
    <glyph glyph-name="uni0302" unicode="&#x302;" 
d="M321 1251h-127l-192 220h-5l-192 -220h-127l273 301h97z" />
    <glyph glyph-name="tildecomb" unicode="&#x303;" 
d="M-11 1336q-74 78 -113 78q-78 0 -78 -144h-91q0 109 43 171q44 63 123 63q75 0 150 -78q76 -79 111 -79q73 0 73 144h91q0 -107 -43 -170q-44 -64 -121 -64q-70 0 -145 79z" />
    <glyph glyph-name="uni0304" unicode="&#x304;" 
d="M307 1315h-618v85h618v-85z" />
    <glyph glyph-name="uni0306" unicode="&#x306;" 
d="M-205 1530q0 -86 58 -143t146 -57t146 57t58 143h97q0 -129 -84 -208q-83 -78 -217 -78t-217 78q-84 79 -84 208h97z" />
    <glyph glyph-name="uni0307" unicode="&#x307;" 
d="M-73 1290q-31 30 -31 73t31 73q30 31 73 31t73 -31q31 -30 31 -73t-31 -73q-30 -31 -73 -31t-73 31z" />
    <glyph glyph-name="uni0308" unicode="&#x308;" 
d="M-243 1286q-28 28 -28 65q0 38 28 66q27 27 65 27t66 -27q27 -28 27 -66t-27 -65q-28 -27 -66 -27t-65 27zM112 1286q-27 27 -27 65t27 66q28 27 66 27t66 -27q27 -28 27 -66t-27 -65q-28 -27 -66 -27t-66 27z" />
    <glyph glyph-name="hookabovecomb" unicode="&#x309;" 
d="M-115 1518q56 27 124 27q79 0 127 -44t48 -117q0 -57 -39 -105q-38 -48 -102 -72l-50 66q88 32 88 106q0 35 -27 58t-68 23q-48 0 -101 -27v85z" />
    <glyph glyph-name="uni030A" unicode="&#x30a;" 
d="M-132 1261q-55 56 -55 133t55 133q55 55 132 55t133 -55q55 -56 55 -133t-55 -133q-56 -55 -133 -55t-132 55zM85 1309q35 35 35 85t-35 85t-85 35q-49 0 -84 -35t-35 -85t35 -85t84 -35q50 0 85 35z" />
    <glyph glyph-name="uni030B" unicode="&#x30b;" 
d="M297 1552h151l-252 -301h-108zM12 1552h151l-252 -301h-108z" />
    <glyph glyph-name="uni030C" unicode="&#x30c;" 
d="M-49 1251l-273 301h127l192 -219h5l192 219h127l-273 -301h-97z" />
    <glyph glyph-name="uni030F" unicode="&#x30f;" 
d="M-196 1251l-252 301h151l209 -301h-108zM89 1251l-252 301h151l209 -301h-108z" />
    <glyph glyph-name="uni0311" unicode="&#x311;" 
d="M-301 1251q0 129 84 208q83 78 217 78t217 -78q84 -79 84 -208h-97q0 86 -58 143t-146 57t-146 -57t-58 -143h-97z" />
    <glyph glyph-name="uni031B" unicode="&#x31b;" 
d="M0 1104q27 -30 83 -30q135 0 135 169v142h122v-177q0 -111 -65 -177q-64 -65 -170 -65q-67 0 -105 30v108z" />
    <glyph glyph-name="dotbelowcomb" unicode="&#x323;" 
d="M-72 -321q-30 30 -30 72t30 72t72 30t72 -30t30 -72t-30 -72t-72 -30t-72 30z" />
    <glyph glyph-name="uni0324" unicode="&#x324;" 
d="M-243 -312q-28 28 -28 65q0 38 28 66q27 27 65 27t66 -27q27 -28 27 -66t-27 -65q-28 -27 -66 -27t-65 27zM112 -312q-27 27 -27 65t27 66q28 27 66 27t66 -27q27 -28 27 -66t-27 -65q-28 -27 -66 -27t-66 27z" />
    <glyph glyph-name="uni0325" unicode="&#x325;" 
d="M-132 -474q-55 56 -55 133t55 133q55 55 132 55t133 -55q55 -56 55 -133t-55 -133q-56 -55 -133 -55t-132 55zM85 -426q35 35 35 85t-35 85t-85 35q-49 0 -84 -35t-35 -85t35 -85t84 -35q50 0 85 35z" />
    <glyph glyph-name="uni0326" unicode="&#x326;" 
d="M-133 -520l95 358h121l-116 -358h-100z" />
    <glyph glyph-name="uni0327" unicode="&#x327;" 
d="M-99 -154l65 161l87 -7l-54 -141q208 0 208 -152q0 -76 -61 -124q-62 -49 -157 -50q-84 0 -139 17v80q41 -16 122 -16q63 0 100 24q37 25 37 66q0 82 -155 82h-53v60z" />
    <glyph glyph-name="uni0328" unicode="&#x328;" 
d="M116 -415q-49 -20 -115 -20q-92 0 -147 49t-55 131q0 149 164 262l88 -2q-140 -110 -140 -224q0 -53 33 -84q34 -31 91 -31q44 0 81 15v-96z" />
    <glyph glyph-name="uni032D" unicode="&#x32d;" 
d="M55 -158l283 -295h-131l-206 217h-2l-206 -217h-131l283 295h110z" />
    <glyph glyph-name="uni032E" unicode="&#x32e;" 
d="M-198 -179q0 -80 56 -134q56 -55 142 -55t142 55q56 54 56 134h94q0 -121 -81 -197q-82 -75 -211 -75t-210 75q-82 76 -82 197h94z" />
    <glyph glyph-name="uni0330" unicode="&#x330;" 
d="M-14 -315q-74 78 -113 78q-78 0 -78 -144h-91q0 109 43 171q44 63 123 63q75 0 150 -78q76 -79 111 -79q73 0 73 144h91q0 -107 -43 -170q-44 -64 -121 -64q-70 0 -145 79z" />
    <glyph glyph-name="uni0331" unicode="&#x331;" 
d="M305 -299h-610v85h610v-85z" />
    <glyph glyph-name="uni037E" unicode="&#x37e;" horiz-adv-x="509" 
d="M187 769q-28 27 -28 67t28 68q27 27 67 27q41 0 68 -27t27 -68q0 -40 -27 -67q-28 -28 -68 -28t-67 28zM95 -242l84 434h142l-123 -434h-103z" />
    <glyph glyph-name="tonos" unicode="&#x384;" horiz-adv-x="777" 
d="M340 1564h168l-140 -313h-111z" />
    <glyph glyph-name="dieresistonos" unicode="&#x385;" horiz-adv-x="1072" 
d="M225 1286q-28 28 -28 65q0 38 28 66q27 27 65 27t66 -27q27 -28 27 -66t-27 -65q-28 -27 -66 -27t-65 27zM714 1286q-27 27 -27 65t27 66q28 27 66 27t65 -27q27 -28 27 -66t-27 -65t-65 -27t-66 27zM452 1251l39 313h162l-97 -313h-104z" />
    <glyph glyph-name="Alphatonos" unicode="&#x386;" horiz-adv-x="1261" 
d="M933 442h-606l-160 -442h-145l540 1443h136l539 -1443h-144zM368 560h524l-259 714h-6zM116 1122l85 321h169l-143 -321h-111z" />
    <glyph glyph-name="anoteleia" unicode="&#x387;" horiz-adv-x="509" 
d="M187 922q-28 27 -28 67t28 68q27 27 67 27q41 0 68 -27t27 -68q0 -40 -27 -67q-28 -28 -68 -28t-67 28z" />
    <glyph glyph-name="Epsilontonos" unicode="&#x388;" horiz-adv-x="1390" 
d="M53 1122l85 321h169l-143 -321h-111zM1300 0h-871v1443h871v-124h-735v-519h698v-122h-698v-554h735v-124z" />
    <glyph glyph-name="Etatonos" unicode="&#x389;" horiz-adv-x="1682" 
d="M53 1122l85 321h169l-143 -321h-111zM1409 0v677h-844v-677h-136v1443h136v-642h844v642h137v-1443h-137z" />
    <glyph glyph-name="Iotatonos" unicode="&#x38a;" horiz-adv-x="701" 
d="M429 0v1443h136v-1443h-136zM53 1122l85 321h169l-143 -321h-111z" />
    <glyph glyph-name="Omicrontonos" unicode="&#x38c;" horiz-adv-x="1625" 
d="M1370 1265q177 -201 177 -544t-177 -543q-177 -201 -479 -201t-478 201q-177 200 -177 543t177 544t478 201q302 0 479 -201zM515 1172q-139 -167 -139 -451q0 -283 139 -450q140 -167 376 -167q237 0 377 167q139 167 139 450q0 284 -139 451q-140 167 -377 167
t-376 -167zM37 1122l85 321h169l-143 -321h-111z" />
    <glyph glyph-name="Upsilontonos" unicode="&#x38e;" horiz-adv-x="1561" 
d="M40 1122l85 321h169l-143 -321h-111zM883 0v624l-517 819h156l427 -685h5l427 685h156l-517 -819v-624h-137z" />
    <glyph glyph-name="Omegatonos" unicode="&#x38f;" horiz-adv-x="1671" 
d="M1286 1186q-141 153 -376 153q-236 0 -376 -152q-140 -151 -140 -403q0 -405 385 -630v-154h-526v124h366v6q-365 219 -365 657q0 301 181 490q182 189 475 189q292 0 474 -190q181 -189 181 -489q0 -437 -365 -657v-6h366v-124h-526v154q385 225 385 630q0 251 -139 402
zM37 1122l85 321h169l-143 -321h-111z" />
    <glyph glyph-name="iotadieresistonos" unicode="&#x390;" horiz-adv-x="541" 
d="M181 57q-66 66 -66 216v804h131v-776q0 -102 40 -148q41 -46 130 -46q49 0 85 9l7 -115q-47 -10 -108 -10q-152 0 -219 66zM-99 1286q-28 28 -28 65q0 38 28 66q27 27 65 27t66 -27q27 -28 27 -66t-27 -65q-28 -27 -66 -27t-65 27zM390 1286q-27 27 -27 65t27 66
q28 27 66 27t65 -27q27 -28 27 -66t-27 -65t-65 -27t-66 27zM128 1251l39 313h162l-97 -313h-104z" />
    <glyph glyph-name="Alpha" unicode="&#x391;" horiz-adv-x="1262" 
d="M933 442h-606l-160 -442h-145l540 1443h136l539 -1443h-144zM368 560h524l-259 714h-6z" />
    <glyph glyph-name="Beta" unicode="&#x392;" horiz-adv-x="1217" 
d="M134 0v1443h531q186 0 302 -98q115 -98 115 -258q0 -120 -75 -212q-74 -92 -189 -113v-7q152 -18 244 -113q94 -98 94 -246q0 -185 -130 -290q-130 -106 -358 -106h-534zM270 802h326q164 0 256 71q92 72 92 199q0 118 -82 184t-226 66h-366v-520zM650 121q176 0 271 74
q95 73 95 208t-99 208q-100 73 -286 73h-361v-563h380z" />
    <glyph glyph-name="Gamma" unicode="&#x393;" horiz-adv-x="1032" 
d="M134 0v1443h836v-124h-700v-1319h-136z" />
    <glyph glyph-name="uni0394" unicode="&#x394;" horiz-adv-x="1283" 
d="M49 0v97l524 1346h135l524 -1346v-97h-1183zM204 124h874v6l-435 1151h-5l-434 -1151v-6z" />
    <glyph glyph-name="Epsilon" unicode="&#x395;" horiz-adv-x="1095" 
d="M1005 0h-871v1443h871v-124h-735v-519h698v-122h-698v-554h735v-124z" />
    <glyph glyph-name="Zeta" unicode="&#x396;" horiz-adv-x="1224" 
d="M86 99l866 1214v6h-838v124h1011v-100l-864 -1213v-6h876v-124h-1051v99z" />
    <glyph glyph-name="Eta" unicode="&#x397;" horiz-adv-x="1387" 
d="M1114 0v677h-844v-677h-136v1443h136v-642h844v642h137v-1443h-137z" />
    <glyph glyph-name="Theta" unicode="&#x398;" horiz-adv-x="1471" 
d="M416 661v124h638v-124h-638zM1218 1265q176 -200 176 -544q0 -343 -176 -543q-178 -201 -483 -201t-482 201q-177 200 -177 543t177 544t482 201t483 -201zM356 1172q-140 -166 -140 -451q0 -284 140 -450q139 -167 379 -167t380 167q139 166 139 450q0 285 -139 451
q-140 167 -380 167t-379 -167z" />
    <glyph glyph-name="Iota" unicode="&#x399;" horiz-adv-x="406" 
d="M134 0v1443h136v-1443h-136z" />
    <glyph glyph-name="Kappa" unicode="&#x39a;" horiz-adv-x="1209" 
d="M134 0v1443h136v-748h8l686 748h173l-593 -638l652 -805h-175l-573 708l-178 -193v-515h-136z" />
    <glyph glyph-name="Lambda" unicode="&#x39b;" horiz-adv-x="1222" 
d="M613 1266h-6l-440 -1266h-145l520 1443h136l519 -1443h-144z" />
    <glyph glyph-name="Mu" unicode="&#x39c;" horiz-adv-x="1660" 
d="M1524 0h-128v1184h-6l-502 -1177h-119l-501 1177h-6v-1184h-128v1443h157l535 -1263h6l534 1263h158v-1443z" />
    <glyph glyph-name="Nu" unicode="&#x39d;" horiz-adv-x="1393" 
d="M134 0v1443h135l846 -1205h7v1205h135v-1443h-132l-849 1206h-7v-1206h-135z" />
    <glyph glyph-name="Xi" unicode="&#x39e;" horiz-adv-x="1220" 
d="M1130 1443v-126h-1042v126h1042zM165 676v124h888v-124h-888zM1130 126v-126h-1042v126h1042z" />
    <glyph glyph-name="Omicron" unicode="&#x39f;" horiz-adv-x="1465" 
d="M1210 1265q177 -201 177 -544t-177 -543q-177 -201 -479 -201t-478 201q-177 200 -177 543t177 544t478 201q302 0 479 -201zM355 1172q-139 -167 -139 -451q0 -283 139 -450q140 -167 376 -167q237 0 377 167q139 167 139 450q0 284 -139 451q-140 167 -377 167
t-376 -167z" />
    <glyph glyph-name="Pi" unicode="&#x3a0;" horiz-adv-x="1367" 
d="M1094 0v1319h-824v-1319h-136v1443h1097v-1443h-137z" />
    <glyph glyph-name="Rho" unicode="&#x3a1;" horiz-adv-x="1171" 
d="M646 1443q206 0 335 -124q128 -124 128 -325t-129 -325q-129 -125 -335 -125h-375v-544h-136v1443h512zM270 666h344q166 0 261 87q94 87 94 241t-94 240q-94 87 -261 87h-344v-655z" />
    <glyph glyph-name="Sigma" unicode="&#x3a3;" horiz-adv-x="1197" 
d="M252 124h858v-124h-1024v99l440 631l-423 604v109h981v-124h-810v-6l400 -571v-6l-422 -606v-6z" />
    <glyph glyph-name="Tau" unicode="&#x3a4;" horiz-adv-x="1179" 
d="M520 0v1319h-483v124h1103v-124h-483v-1319h-137z" />
    <glyph glyph-name="Upsilon" unicode="&#x3a5;" horiz-adv-x="1219" 
d="M540 0v624l-517 819h156l427 -685h5l427 685h156l-517 -819v-624h-137z" />
    <glyph glyph-name="Phi" unicode="&#x3a6;" horiz-adv-x="1576" 
d="M1239 1095q-139 138 -384 144v-1038q245 5 384 143t139 376t-139 375zM334 344q139 -138 384 -143v1038q-245 -6 -384 -144q-139 -137 -139 -375t139 -376zM718 -58v136q-307 9 -484 182q-178 172 -178 460t178 460q177 172 484 182v133h137v-133q307 -10 485 -182
t178 -460t-178 -460q-178 -173 -485 -182v-136h-137z" />
    <glyph glyph-name="Chi" unicode="&#x3a7;" horiz-adv-x="1263" 
d="M545 722v5l-498 716h165l421 -613h5l424 613h157l-507 -722v-4l499 -717h-164l-419 610h-5l-425 -610h-155z" />
    <glyph glyph-name="Psi" unicode="&#x3a8;" horiz-adv-x="1492" 
d="M676 0v345q-268 1 -422 150q-154 150 -154 409v539h137v-535q0 -209 113 -321q113 -113 326 -116v972h137v-972q213 3 327 116q113 112 113 321v535h137v-539q0 -259 -155 -409t-422 -150v-345h-137z" />
    <glyph glyph-name="uni03A9" unicode="&#x3a9;" horiz-adv-x="1521" 
d="M1136 1186q-141 153 -376 153q-236 0 -376 -152q-140 -151 -140 -403q0 -405 385 -630v-154h-526v124h366v6q-365 219 -365 657q0 301 181 490q182 189 475 189q292 0 474 -190q181 -189 181 -489q0 -437 -365 -657v-6h366v-124h-526v154q385 225 385 630q0 251 -139 402
z" />
    <glyph glyph-name="Iotadieresis" unicode="&#x3aa;" horiz-adv-x="422" 
d="M151 0v1443h136v-1443h-136zM-24 1603q-28 28 -28 65q0 38 28 66q27 27 65 27t66 -27q27 -28 27 -66t-27 -65q-28 -27 -66 -27t-65 27zM331 1603q-27 27 -27 65t27 66q28 27 66 27t66 -27q27 -28 27 -66t-27 -65q-28 -27 -66 -27t-66 27z" />
    <glyph glyph-name="Upsilondieresis" unicode="&#x3ab;" horiz-adv-x="1239" 
d="M560 0v624l-517 819h156l427 -685h5l427 685h156l-517 -819v-624h-137zM385 1603q-28 28 -28 65q0 38 28 66q27 27 65 27t66 -27q27 -28 27 -66t-27 -65q-28 -27 -66 -27t-65 27zM740 1603q-27 27 -27 65t27 66q28 27 66 27t66 -27q27 -28 27 -66t-27 -65
q-28 -27 -66 -27t-66 27z" />
    <glyph glyph-name="alphatonos" unicode="&#x3ac;" horiz-adv-x="1222" 
d="M779 228q96 121 96 312q0 189 -98 311q-97 121 -247 121q-146 0 -239 -120q-92 -121 -92 -312q0 -195 90 -313q91 -119 240 -119q153 0 250 120zM190 142q-126 153 -126 398q0 244 127 397q126 153 328 153q117 0 216 -64q100 -65 144 -171h3v223h126v-824q0 -75 24 -108
q23 -34 77 -34q31 0 59 9l8 -114q-35 -10 -88 -10q-193 0 -213 181l-1 45h-2q-39 -100 -138 -166q-101 -68 -215 -68q-202 0 -329 153zM569 1564h168l-140 -313h-111z" />
    <glyph glyph-name="epsilontonos" unicode="&#x3ad;" horiz-adv-x="1054" 
d="M554 1564h168l-140 -313h-111zM193 70q-112 81 -112 219q0 95 55 162q55 66 154 91v3q-189 49 -189 238q0 137 117 222q117 84 307 84q200 0 319 -93q115 -91 132 -251h-132q-33 226 -319 226q-137 0 -217 -51q-79 -51 -79 -140q0 -84 70 -129q70 -46 199 -46h151v-115
h-152q-131 0 -206 -51t-75 -139q0 -193 296 -193q142 0 233 57q90 58 114 162h133q-26 -153 -158 -245q-132 -93 -328 -93q-199 0 -313 82z" />
    <glyph glyph-name="etatonos" unicode="&#x3ae;" horiz-adv-x="1232" 
d="M986 -371v1030q0 147 -75 230q-76 82 -211 82q-143 0 -231 -94t-88 -246v-631h-132v824q0 142 -106 142q-39 0 -63 -8v114q51 10 94 10q164 0 193 -158l7 -48h3q100 213 357 213q176 0 280 -107t104 -288v-1065h-132zM554 1564h168l-140 -313h-111z" />
    <glyph glyph-name="iotatonos" unicode="&#x3af;" horiz-adv-x="541" 
d="M180 57q-66 66 -66 216v804h131v-776q0 -102 40 -148q41 -46 130 -46q49 0 85 9l7 -115q-47 -10 -108 -10q-152 0 -219 66zM211 1564h168l-140 -313h-111z" />
    <glyph glyph-name="upsilondieresistonos" unicode="&#x3b0;" horiz-adv-x="1082" 
d="M201 1286q-28 28 -28 65q0 38 28 66q27 27 65 27t66 -27q27 -28 27 -66t-27 -65q-28 -27 -66 -27t-65 27zM690 1286q-27 27 -27 65t27 66q28 27 66 27t65 -27q27 -28 27 -66t-27 -65t-65 -27t-66 27zM428 1251l39 313h162l-97 -313h-104zM222 101q-110 113 -110 319v657
h131v-650q0 -319 287 -319q158 0 241 120q82 117 82 330q0 294 -86 519h132q90 -219 90 -503q0 -275 -121 -430q-121 -156 -336 -156q-200 0 -310 113z" />
    <glyph glyph-name="alpha" unicode="&#x3b1;" horiz-adv-x="1222" 
d="M779 227q96 121 96 312q0 189 -98 311q-97 121 -247 121q-146 0 -239 -120q-92 -121 -92 -312q0 -195 90 -313q91 -119 240 -119q153 0 250 120zM190 141q-126 153 -126 398q0 244 127 397q126 153 328 153q117 0 216 -64q100 -65 144 -171h3v223h126v-824q0 -75 24 -108
q23 -34 77 -34q31 0 59 9l8 -114q-35 -10 -88 -10q-193 0 -213 181l-1 45h-2q-39 -100 -138 -166q-101 -68 -215 -68q-202 0 -329 153z" />
    <glyph glyph-name="beta" unicode="&#x3b2;" horiz-adv-x="1157" 
d="M456 871h107q141 0 219 71q77 71 77 198q0 117 -78 188t-207 71q-325 0 -325 -387v-471q0 -201 102 -317q102 -117 280 -117q148 0 237 89q87 86 87 226q0 161 -104 248q-104 86 -294 86h-101v115zM118 1025q0 238 118 366q117 127 334 127q195 0 308 -99
q112 -100 112 -271q0 -115 -62 -199q-63 -87 -177 -124v-2q166 -34 253 -136t87 -260q0 -194 -123 -317q-124 -122 -320 -122q-140 0 -244 61q-106 62 -151 173h-3v-593h-132v1396z" />
    <glyph glyph-name="gamma" unicode="&#x3b3;" horiz-adv-x="1054" 
d="M858 461q-85 -186 -304 -482v-330h-131v332l-380 1096h140l318 -964h4q173 239 247 412q81 191 81 387q0 79 -11 165h126q10 -81 10 -165q0 -233 -100 -451z" />
    <glyph glyph-name="delta" unicode="&#x3b4;" horiz-adv-x="1092" 
d="M196 127q-135 141 -135 370q0 214 117 348q115 131 304 145v3q-248 106 -248 268q0 121 98 190q95 67 259 67q197 0 331 -71l-7 -117q-169 72 -329 72q-107 0 -164 -37q-57 -36 -57 -103q0 -60 53 -104q53 -45 210 -116q205 -96 300 -220q100 -132 100 -323
q0 -230 -134 -371q-133 -140 -346 -140q-218 0 -352 139zM797 209q97 107 97 286q0 198 -105 307q-95 98 -246 98q-159 0 -253 -110q-95 -110 -95 -295q0 -176 96 -283q96 -108 253 -108t253 105z" />
    <glyph glyph-name="epsilon" unicode="&#x3b5;" horiz-adv-x="1054" 
d="M193 70q-112 81 -112 219q0 95 55 162q55 66 154 91v3q-189 49 -189 238q0 137 117 222q117 84 307 84q200 0 319 -93q115 -91 132 -251h-132q-33 226 -319 226q-137 0 -217 -51q-79 -51 -79 -140q0 -84 70 -129q70 -46 199 -46h151v-115h-152q-131 0 -206 -51t-75 -139
q0 -193 296 -193q142 0 233 57q90 58 114 162h133q-26 -153 -158 -245q-132 -93 -328 -93q-199 0 -313 82z" />
    <glyph glyph-name="zeta" unicode="&#x3b6;" horiz-adv-x="869" 
d="M693 -347q52 89 52 178q0 68 -45 110q-52 49 -188 95q-248 82 -348 200q-100 116 -100 320q0 226 162 450q157 218 423 377v4h-500v119h704v-118q-654 -371 -654 -827q0 -162 77 -248t290 -161q175 -60 244 -131q64 -66 64 -172q0 -110 -69 -220z" />
    <glyph glyph-name="eta" unicode="&#x3b7;" horiz-adv-x="1232" 
d="M986 -371v1030q0 147 -75 230q-76 82 -211 82q-143 0 -231 -94t-88 -246v-631h-132v824q0 142 -106 142q-39 0 -63 -8v114q51 10 94 10q164 0 193 -158l7 -48h3q100 213 357 213q176 0 280 -107t104 -288v-1065h-132z" />
    <glyph glyph-name="theta" unicode="&#x3b8;" horiz-adv-x="1157" 
d="M213 185q-124 196 -124 571q0 372 126 568q125 194 363 194t363 -196t125 -568q0 -374 -125 -570t-363 -196q-241 0 -365 197zM932 705h-708q10 -598 354 -598t354 598zM931 823q-15 576 -353 576t-353 -576h706z" />
    <glyph glyph-name="iota" unicode="&#x3b9;" horiz-adv-x="541" 
d="M180 57q-66 66 -66 216v804h131v-776q0 -102 40 -148q41 -46 130 -46q49 0 85 9l7 -115q-47 -10 -108 -10q-152 0 -219 66z" />
    <glyph glyph-name="kappa" unicode="&#x3ba;" horiz-adv-x="1092" 
d="M118 1077h131v-625h2l406 472q78 92 134 125q54 33 127 33q50 0 87 -10v-114q-22 8 -73 8q-47 0 -84 -25q-41 -26 -106 -103l-156 -182l448 -656h-150l-380 562l-255 -283v-279h-131v1077z" />
    <glyph glyph-name="lambda" unicode="&#x3bb;" horiz-adv-x="1107" 
d="M470 1027l-63 173q-45 124 -87 164q-39 37 -118 37q-37 0 -66 -9v115q47 11 88 11q119 0 182 -58q63 -59 121 -224l357 -1018q22 -62 51 -85q27 -22 78 -22q32 0 59 9l9 -114q-40 -10 -87 -10q-93 0 -140 38q-51 41 -91 156l-234 677h-2l-352 -867h-136z" />
    <glyph glyph-name="uni03BC" unicode="&#x3bc;" horiz-adv-x="1214" 
d="M118 1077h132v-665q0 -145 73 -225q74 -79 208 -79q146 0 235 92q89 93 89 245v632h132v-825q0 -141 101 -141q33 0 60 9l8 -114q-31 -10 -91 -10q-174 0 -201 166l-5 46h-2q-46 -102 -134 -161q-89 -59 -196 -59q-98 0 -172 45q-75 45 -103 121h-2v-525h-132v1448z" />
    <glyph glyph-name="nu" unicode="&#x3bd;" horiz-adv-x="1040" 
d="M43 1077h140l318 -964h4q310 428 310 799q0 72 -12 165h131q10 -71 10 -165q0 -233 -85 -438q-83 -200 -290 -474h-153z" />
    <glyph glyph-name="xi" unicode="&#x3be;" horiz-adv-x="906" 
d="M693 -347q52 87 52 181q0 67 -49 111q-54 47 -194 94q-249 84 -348 182q-90 90 -90 229q0 136 84 228q86 94 241 121v2q-261 82 -261 295q0 226 274 289v2h-272v119h711v-106l-107 -11q-483 -48 -483 -295q0 -225 396 -225h120v-119h-121q-447 0 -447 -287
q0 -104 76 -169q77 -67 285 -140q176 -60 246 -129q68 -67 68 -176q0 -110 -69 -220z" />
    <glyph glyph-name="omicron" unicode="&#x3bf;" horiz-adv-x="1099" 
d="M197 138q-133 150 -133 400q0 253 132 402q131 149 352 149q222 0 353 -149q132 -149 132 -402q0 -250 -133 -400t-352 -150t-351 150zM804 221q94 115 94 317q0 200 -95 317q-95 116 -255 116t-254 -116q-95 -117 -95 -317q0 -202 94 -317q93 -114 255 -114t256 114z
" />
    <glyph glyph-name="pi" unicode="&#x3c0;" horiz-adv-x="1323" 
d="M266 962h-199v115h1173v-115h-217v-715q0 -136 102 -136q29 0 59 9l8 -114q-39 -10 -89 -10q-108 0 -157 56q-50 57 -50 182v728h-502v-962h-128v962z" />
    <glyph glyph-name="rho" unicode="&#x3c1;" horiz-adv-x="1113" 
d="M817 226q94 119 94 325q0 191 -94 306q-94 114 -252 114q-162 0 -254 -114t-92 -314q0 -196 94 -316q93 -120 246 -120q163 0 258 119zM87 539q0 252 130 401q129 149 348 149q215 0 348 -150q134 -150 134 -391q0 -256 -126 -408q-125 -152 -336 -152q-123 0 -223 65
q-99 64 -140 169h-3v-593h-132v910z" />
    <glyph glyph-name="sigma1" unicode="&#x3c2;" horiz-adv-x="1034" 
d="M693 -347q52 89 52 178q0 68 -45 110q-52 49 -188 95q-248 82 -348 200q-100 117 -100 323q0 240 128 385q129 145 345 145q186 0 302 -93q114 -92 141 -257h-133q-22 108 -100 170q-81 62 -203 62q-160 0 -253 -114q-92 -111 -92 -297q0 -162 77 -247q77 -87 290 -161
q175 -60 244 -131q64 -66 64 -172q0 -110 -69 -220z" />
    <glyph glyph-name="sigma" unicode="&#x3c3;" horiz-adv-x="1236" 
d="M197 138q-133 150 -133 392q0 253 141 400q140 147 381 147h580v-115h-342v-3q94 -55 148 -169q53 -112 53 -253q0 -246 -132 -397q-133 -151 -349 -151q-215 0 -347 149zM801 224q96 116 96 310q0 197 -89 311q-89 113 -244 113q-168 0 -266 -116q-99 -116 -99 -313
q0 -192 94 -306q94 -115 250 -115q161 0 258 116z" />
    <glyph glyph-name="tau" unicode="&#x3c4;" horiz-adv-x="1012" 
d="M480 57q-67 64 -67 215v690h-354v115h899v-115h-414v-660q0 -104 43 -150q42 -45 139 -45q57 0 92 9l8 -115q-47 -10 -118 -10q-160 0 -228 66z" />
    <glyph glyph-name="upsilon" unicode="&#x3c5;" horiz-adv-x="1082" 
d="M222 101q-110 113 -110 319v657h131v-650q0 -319 287 -319q158 0 241 120q82 117 82 330q0 294 -86 519h132q90 -219 90 -503q0 -275 -121 -430q-121 -156 -336 -156q-200 0 -310 113z" />
    <glyph glyph-name="phi" unicode="&#x3c6;" horiz-adv-x="1406" 
d="M639 -11q-267 10 -425 160q-157 149 -157 390q0 245 155 393q157 151 427 157v288h127v-288q270 -6 427 -157q154 -148 154 -393q0 -241 -157 -390q-158 -150 -424 -160v-360h-127v360zM766 101q205 9 327 128q121 119 121 310q0 193 -119 312q-121 121 -329 126v-876z
M639 977q-209 -5 -330 -126q-119 -119 -119 -312q0 -191 122 -310t327 -128v876z" />
    <glyph glyph-name="chi" unicode="&#x3c7;" horiz-adv-x="1143" 
d="M525 352l-248 499q-35 69 -67 92t-89 23q-37 0 -61 -8v114q50 10 89 10q88 0 138 -37t102 -143l216 -434h2l324 609h141l-406 -731l242 -485q35 -71 66 -96t84 -25q31 0 58 9l9 -114q-33 -10 -82 -10q-94 0 -142 35q-47 34 -97 136l-219 435h-2l-321 -602h-141z" />
    <glyph glyph-name="psi" unicode="&#x3c8;" horiz-adv-x="1366" 
d="M611 -12q-236 2 -367 114q-132 114 -132 318v657h131v-644q0 -153 91 -237q95 -88 277 -88v1269h127v-1269q206 3 308 131q92 115 92 320q0 301 -96 518h136q95 -204 95 -496q0 -266 -132 -423q-141 -168 -403 -170v-359h-127v359z" />
    <glyph glyph-name="omega" unicode="&#x3c9;" horiz-adv-x="1512" 
d="M184 121q-93 133 -93 382q0 341 161 574h145q-171 -250 -171 -573q0 -397 236 -397q105 0 166 85t61 232v334h131v-334q0 -147 61 -232t167 -85q236 0 236 397q0 322 -172 573h146q161 -236 161 -574q0 -249 -94 -382q-93 -134 -268 -134q-223 0 -300 244h-5
q-77 -244 -300 -244q-175 0 -268 134z" />
    <glyph glyph-name="iotadieresis" unicode="&#x3ca;" horiz-adv-x="541" 
d="M-50 1286q-28 28 -28 65q0 38 28 66q27 27 65 27t66 -27q27 -28 27 -66t-27 -65q-28 -27 -66 -27t-65 27zM305 1286q-27 27 -27 65t27 66q28 27 66 27t66 -27q27 -28 27 -66t-27 -65q-28 -27 -66 -27t-66 27zM181 57q-66 66 -66 216v804h131v-776q0 -102 40 -148
q41 -46 130 -46q49 0 85 9l7 -115q-47 -10 -108 -10q-152 0 -219 66z" />
    <glyph glyph-name="upsilondieresis" unicode="&#x3cb;" horiz-adv-x="1082" 
d="M272 1286q-28 28 -28 65q0 38 28 66q27 27 65 27t66 -27q27 -28 27 -66t-27 -65q-28 -27 -66 -27t-65 27zM627 1286q-27 27 -27 65t27 66q28 27 66 27t66 -27q27 -28 27 -66t-27 -65q-28 -27 -66 -27t-66 27zM222 101q-110 113 -110 319v657h131v-650q0 -319 287 -319
q158 0 241 120q82 117 82 330q0 294 -86 519h132q90 -219 90 -503q0 -275 -121 -430q-121 -156 -336 -156q-200 0 -310 113z" />
    <glyph glyph-name="omicrontonos" unicode="&#x3cc;" horiz-adv-x="1099" 
d="M197 138q-133 150 -133 400q0 253 132 402q131 149 352 149q222 0 353 -149q132 -149 132 -402q0 -250 -133 -400t-352 -150t-351 150zM804 221q94 115 94 317q0 200 -95 317q-95 116 -255 116t-254 -116q-95 -117 -95 -317q0 -202 94 -317q93 -114 255 -114t256 114z
M579 1564h168l-140 -313h-111z" />
    <glyph glyph-name="upsilontonos" unicode="&#x3cd;" horiz-adv-x="1082" 
d="M523 1564h168l-140 -313h-111zM222 101q-110 113 -110 319v657h131v-650q0 -319 287 -319q158 0 241 120q82 117 82 330q0 294 -86 519h132q90 -219 90 -503q0 -275 -121 -430q-121 -156 -336 -156q-200 0 -310 113z" />
    <glyph glyph-name="omegatonos" unicode="&#x3ce;" horiz-adv-x="1512" 
d="M184 121q-93 133 -93 382q0 341 161 574h145q-171 -250 -171 -573q0 -397 236 -397q105 0 166 85t61 232v334h131v-334q0 -147 61 -232t167 -85q236 0 236 397q0 322 -172 573h146q161 -236 161 -574q0 -249 -94 -382q-93 -134 -268 -134q-223 0 -300 244h-5
q-77 -244 -300 -244q-175 0 -268 134zM784 1564h168l-140 -313h-111z" />
    <glyph glyph-name="uni0401" unicode="&#x401;" horiz-adv-x="1115" 
d="M336 1603q-28 28 -28 65q0 38 28 66q27 27 65 27t66 -27q27 -28 27 -66t-27 -65q-28 -27 -66 -27t-65 27zM691 1603q-27 27 -27 65t27 66q28 27 66 27t66 -27q27 -28 27 -66t-27 -65q-28 -27 -66 -27t-66 27zM1015 0h-871v1443h871v-124h-735v-519h698v-122h-698v-554
h735v-124z" />
    <glyph glyph-name="uni0402" unicode="&#x402;" horiz-adv-x="1626" 
d="M973 1v123q37 -13 119 -13q132 0 209 87t77 234q0 152 -92 243t-246 91q-115 0 -220 -56q-104 -56 -154 -142v-568h-136v1319h-483v124h1103v-124h-484v-578h7q141 149 375 149q211 0 338 -125q128 -126 128 -332q0 -202 -115 -325q-115 -122 -305 -122q-78 0 -121 15z
" />
    <glyph glyph-name="uni0403" unicode="&#x403;" horiz-adv-x="1051" 
d="M497 1551l252 295h154l-289 -295h-117zM144 0v1443h842v-125h-705v-1318h-137z" />
    <glyph glyph-name="uni0404" unicode="&#x404;" horiz-adv-x="1388" 
d="M1311 411q-41 -203 -196 -319q-155 -115 -386 -115q-295 0 -469 203q-174 202 -174 545q0 339 175 540q174 201 468 201q225 0 388 -130q162 -129 195 -334h-139q-33 149 -156 243q-124 94 -288 94q-214 0 -350 -145t-150 -393h684v-124h-686q7 -263 145 -418
q137 -155 358 -155q169 0 288 82q120 83 154 225h139z" />
    <glyph glyph-name="uni0405" unicode="&#x405;" horiz-adv-x="1201" 
d="M210 392q11 -130 123 -210q112 -81 281 -81q162 0 267 79q104 79 104 201q0 101 -73 165q-73 63 -234 104l-179 46q-201 51 -293 140q-93 89 -93 231q0 174 141 287q139 112 353 112q210 0 350 -112q139 -111 145 -283h-137q-10 122 -109 197q-99 74 -253 74
q-151 0 -249 -75q-99 -76 -99 -195q0 -93 72 -152q70 -58 230 -99l156 -40q218 -55 315 -144q97 -91 97 -241q0 -190 -142 -304q-142 -115 -381 -115q-226 0 -372 115q-146 114 -157 300h137z" />
    <glyph glyph-name="uni0406" unicode="&#x406;" horiz-adv-x="426" 
d="M144 0v1443h136v-1443h-136z" />
    <glyph glyph-name="uni0407" unicode="&#x407;" horiz-adv-x="426" 
d="M145 0v1443h136v-1443h-136zM-30 1603q-28 28 -28 65q0 38 28 66q27 27 65 27t66 -27q27 -28 27 -66t-27 -65q-28 -27 -66 -27t-65 27zM325 1603q-27 27 -27 65t27 66q28 27 66 27t66 -27q27 -28 27 -66t-27 -65q-28 -27 -66 -27t-66 27z" />
    <glyph glyph-name="uni0408" unicode="&#x408;" horiz-adv-x="1007" 
d="M186 331q5 -104 77 -169q73 -65 185 -65q132 0 205 78q72 78 72 222v1046h136v-1048q0 -199 -109 -312q-110 -113 -304 -113q-173 0 -284 101q-112 101 -113 260h135z" />
    <glyph glyph-name="uni0409" unicode="&#x409;" horiz-adv-x="2115" 
d="M437 510q-15 -254 -86 -377q-81 -142 -248 -142q-35 0 -65 10v123q19 -7 54 -7q111 0 162 114q41 92 53 286l54 926h837v-558h367q207 0 335 -122q129 -123 129 -321q0 -197 -128 -320q-128 -122 -334 -122h-506v1319h-574zM1534 124q167 0 262 84q94 84 94 234t-95 235
q-94 85 -261 85h-336v-638h336z" />
    <glyph glyph-name="uni040A" unicode="&#x40a;" horiz-adv-x="2130" 
d="M1564 124q167 0 261 76q94 75 94 209q0 126 -94 197t-261 71h-337v-553h337zM280 0h-136v1443h136v-642h811v642h136v-642h368q207 0 335 -108q129 -109 129 -284q0 -183 -128 -296q-129 -113 -335 -113h-505v677h-811v-677z" />
    <glyph glyph-name="uni040B" unicode="&#x40b;" horiz-adv-x="1646" 
d="M819 711q-103 -56 -153 -143v-568h-136v1319h-483v124h1103v-124h-484v-576h7q142 147 373 147q212 0 338 -132q127 -133 127 -355v-403h-137v392q0 175 -91 274q-90 100 -250 100q-112 0 -214 -55z" />
    <glyph glyph-name="uni040C" unicode="&#x40c;" horiz-adv-x="1223" 
d="M637 1551h-117l252 295h154zM1202 0h-190l-725 708h-7v-708h-136v1443h136v-671h7l677 671h175l-708 -693z" />
    <glyph glyph-name="uni040E" unicode="&#x40e;" horiz-adv-x="1185" 
d="M411 1823q0 -84 55 -138t140 -54t140 54t55 138h98q0 -122 -82 -197q-81 -75 -211 -75t-211 75q-82 75 -82 197h98zM204 2v124q32 -9 75 -9q152 0 255 207l-501 1119h147l422 -965h7l405 965h143l-453 -1044q-96 -223 -183 -311q-97 -98 -242 -98q-49 0 -75 12z" />
    <glyph glyph-name="uni040F" unicode="&#x40f;" horiz-adv-x="1389" 
d="M144 0v1443h136v-1319h827v1319h136v-1443h-486v-285h-127v285h-486z" />
    <glyph glyph-name="uni0410" unicode="&#x410;" horiz-adv-x="1282" 
d="M943 442h-606l-160 -442h-145l540 1443h136l539 -1443h-144zM378 560h524l-259 714h-6z" />
    <glyph glyph-name="uni0411" unicode="&#x411;" horiz-adv-x="1211" 
d="M980 118q-128 -118 -335 -118h-501v1443h829v-124h-693v-467h364q206 0 335 -118q129 -119 129 -309t-128 -307zM613 124q167 0 261 79q94 80 94 222t-94 223q-94 80 -261 80h-333v-604h333z" />
    <glyph glyph-name="uni0412" unicode="&#x412;" horiz-adv-x="1237" 
d="M144 0v1443h531q186 0 302 -98q115 -98 115 -258q0 -120 -75 -212q-74 -92 -189 -113v-7q152 -18 244 -113q94 -98 94 -246q0 -185 -130 -290q-130 -106 -358 -106h-534zM280 802h326q164 0 256 71q92 72 92 199q0 118 -82 184t-226 66h-366v-520zM660 121q176 0 271 74
q95 73 95 208t-99 208q-100 73 -286 73h-361v-563h380z" />
    <glyph glyph-name="uni0413" unicode="&#x413;" horiz-adv-x="1051" 
d="M144 0v1443h842v-125h-705v-1318h-137z" />
    <glyph glyph-name="uni0414" unicode="&#x414;" horiz-adv-x="1434" 
d="M411 503q-18 -274 -109 -372v-7h766v1195h-607zM150 -285h-127v409h102q138 72 156 384l57 935h867v-1319h183v-409h-128v285h-1110v-285z" />
    <glyph glyph-name="uni0415" unicode="&#x415;" horiz-adv-x="1115" 
d="M1015 0h-871v1443h871v-124h-735v-519h698v-122h-698v-554h735v-124z" />
    <glyph glyph-name="uni0416" unicode="&#x416;" horiz-adv-x="1897" 
d="M1876 0h-186l-669 708h-7v-708h-137v708h-6l-673 -708h-179l709 748l-654 695h176l621 -671h6v671h137v-671h7l622 671h171l-653 -693z" />
    <glyph glyph-name="uni0417" unicode="&#x417;" horiz-adv-x="1158" 
d="M379 803h185q152 0 246 78q92 78 92 202q0 119 -86 193q-88 75 -234 75q-143 0 -234 -73q-90 -73 -104 -195h-133q15 178 142 284q129 106 334 106q199 0 327 -108q126 -107 126 -271q0 -124 -77 -216q-78 -93 -207 -122v-7q155 -16 243 -113q88 -96 88 -246
q0 -179 -143 -299q-144 -121 -362 -121t-361 113q-141 111 -151 286h132q11 -121 116 -198q106 -78 264 -78q163 0 265 84q100 84 100 216q0 137 -97 212q-99 76 -280 76h-191v122z" />
    <glyph glyph-name="uni0418" unicode="&#x418;" horiz-adv-x="1413" 
d="M1132 1218h-12l-841 -1218h-135v1443h135v-1221h12l841 1221h135v-1443h-135v1218z" />
    <glyph glyph-name="uni0419" unicode="&#x419;" horiz-adv-x="1413" 
d="M510 1823q0 -84 55 -138t140 -54t140 54t55 138h98q0 -122 -82 -197q-81 -75 -211 -75t-211 75q-82 75 -82 197h98zM1132 1218h-12l-841 -1218h-135v1443h135v-1221h12l841 1221h135v-1443h-135v1218z" />
    <glyph glyph-name="uni041A" unicode="&#x41a;" horiz-adv-x="1231" 
d="M1202 0h-190l-725 708h-7v-708h-136v1443h136v-671h7l677 671h175l-708 -693z" />
    <glyph glyph-name="uni041B" unicode="&#x41b;" horiz-adv-x="1347" 
d="M1064 0v1319h-577l-50 -809q-16 -262 -92 -387q-81 -132 -242 -132q-32 0 -65 10v123q19 -7 54 -7q103 0 154 101q49 94 61 299l54 926h840v-1443h-137z" />
    <glyph glyph-name="uni041C" unicode="&#x41c;" horiz-adv-x="1680" 
d="M1534 0h-128v1184h-6l-502 -1177h-119l-501 1177h-6v-1184h-128v1443h157l535 -1263h6l534 1263h158v-1443z" />
    <glyph glyph-name="uni041D" unicode="&#x41d;" horiz-adv-x="1407" 
d="M1124 0v677h-844v-677h-136v1443h136v-642h844v642h137v-1443h-137z" />
    <glyph glyph-name="uni041E" unicode="&#x41e;" horiz-adv-x="1485" 
d="M1220 1265q177 -201 177 -544t-177 -543q-177 -201 -479 -201t-478 201q-177 200 -177 543t177 544t478 201q302 0 479 -201zM365 1172q-139 -167 -139 -451q0 -283 139 -450q140 -167 376 -167q237 0 377 167q139 167 139 450q0 284 -139 451q-140 167 -377 167
t-376 -167z" />
    <glyph glyph-name="uni041F" unicode="&#x41f;" horiz-adv-x="1389" 
d="M1108 0v1318h-827v-1318h-137v1443h1099v-1443h-135z" />
    <glyph glyph-name="uni0420" unicode="&#x420;" horiz-adv-x="1190" 
d="M656 1443q206 0 335 -124q128 -124 128 -325t-129 -325q-129 -125 -335 -125h-375v-544h-136v1443h512zM280 666h344q166 0 261 87q94 87 94 241t-94 240q-94 87 -261 87h-344v-655z" />
    <glyph glyph-name="uni0421" unicode="&#x421;" horiz-adv-x="1388" 
d="M260 180q-174 202 -174 545q0 339 175 540q174 201 468 201q225 0 388 -130q162 -129 195 -334h-139q-33 149 -156 243q-124 94 -288 94q-230 0 -366 -166q-137 -167 -137 -448q0 -285 137 -453q136 -168 367 -168q169 0 288 82q120 83 154 225h139q-41 -203 -196 -319
q-155 -115 -386 -115q-295 0 -469 203z" />
    <glyph glyph-name="uni0422" unicode="&#x422;" horiz-adv-x="1199" 
d="M530 0v1319h-483v124h1103v-124h-483v-1319h-137z" />
    <glyph glyph-name="uni0423" unicode="&#x423;" horiz-adv-x="1185" 
d="M204 2v124q32 -9 75 -9q152 0 255 207l-501 1119h147l422 -965h7l405 965h143l-453 -1044q-96 -223 -183 -311q-97 -98 -242 -98q-49 0 -75 12z" />
    <glyph glyph-name="uni0424" unicode="&#x424;" horiz-adv-x="1581" 
d="M723 1190q-234 -5 -371 -131q-137 -125 -137 -334q0 -210 137 -335t371 -130v930zM1228 1060q-137 126 -370 130v-930q233 5 370 131q137 125 137 334t-137 335zM723 137q-298 4 -472 163t-174 425t174 424t472 164v147h135v-147q297 -4 471 -163t174 -425t-174 -424
q-174 -159 -471 -164v-154h-135v154z" />
    <glyph glyph-name="uni0425" unicode="&#x425;" horiz-adv-x="1283" 
d="M555 722v5l-498 716h165l421 -613h5l424 613h157l-507 -722v-4l499 -717h-164l-419 610h-5l-425 -610h-155z" />
    <glyph glyph-name="uni0426" unicode="&#x426;" horiz-adv-x="1470" 
d="M1296 -285v285h-1152v1443h136v-1319h824v1319h137v-1319h183v-409h-128z" />
    <glyph glyph-name="uni0427" unicode="&#x427;" horiz-adv-x="1306" 
d="M1024 0v707h-6q-150 -154 -394 -154q-227 0 -367 139q-140 140 -140 369v382h137v-372q0 -180 102 -287q100 -104 267 -104q142 0 257 65q103 57 144 140v558h137v-1443h-137z" />
    <glyph glyph-name="uni0428" unicode="&#x428;" horiz-adv-x="1835" 
d="M144 1443h136v-1319h568v1319h137v-1319h568v1319h136v-1443h-1545v1443z" />
    <glyph glyph-name="uni0429" unicode="&#x429;" horiz-adv-x="1918" 
d="M1745 -285v285h-1601v1443h136v-1319h568v1319h137v-1319h568v1319h136v-1319h183v-409h-127z" />
    <glyph glyph-name="uni042A" unicode="&#x42a;" horiz-adv-x="1453" 
d="M414 0v1319h-340v124h476v-558h368q207 0 335 -122q129 -123 129 -321q0 -197 -128 -320q-129 -122 -335 -122h-505zM887 124q167 0 261 84t94 234t-94 235q-95 85 -261 85h-337v-638h337z" />
    <glyph glyph-name="uni042B" unicode="&#x42b;" horiz-adv-x="1601" 
d="M1319 0v1443h136v-1443h-136zM144 1443h136v-558h368q207 0 336 -122q128 -123 128 -321q0 -197 -128 -320q-128 -122 -335 -122h-505v1443zM617 124q167 0 261 84t94 234t-94 235q-95 85 -261 85h-337v-638h337z" />
    <glyph glyph-name="uni042C" unicode="&#x42c;" horiz-adv-x="1184" 
d="M144 1443h136v-558h368q207 0 336 -122q128 -123 128 -321q0 -197 -128 -320q-128 -122 -335 -122h-505v1443zM617 124q167 0 261 84t94 234t-94 235q-95 85 -261 85h-337v-638h337z" />
    <glyph glyph-name="uni042D" unicode="&#x42d;" horiz-adv-x="1392" 
d="M275 92q-158 115 -201 319h140q35 -141 158 -224t294 -83q221 0 356 155q134 155 141 418h-683v124h680q-14 247 -148 392q-133 146 -345 146q-165 0 -292 -94q-127 -95 -161 -243h-140q34 205 201 335q165 129 392 129q293 0 465 -202q172 -201 172 -542
q0 -344 -171 -544q-171 -201 -466 -201q-234 0 -392 115z" />
    <glyph glyph-name="uni042E" unicode="&#x42e;" horiz-adv-x="1932" 
d="M746 160q-169 189 -180 517h-286v-677h-136v1443h136v-642h287q20 313 190 492q170 180 448 180q296 0 468 -203q171 -201 171 -548t-170 -548q-172 -204 -469 -204q-288 0 -459 190zM839 1177q-135 -168 -135 -455q0 -286 134 -455q135 -170 367 -170q230 0 365 170
q134 169 134 455q0 287 -134 455q-134 169 -365 169q-230 0 -366 -169z" />
    <glyph glyph-name="uni042F" unicode="&#x42f;" horiz-adv-x="1231" 
d="M949 1319h-342q-169 0 -262 -81q-94 -80 -94 -226t94 -228q94 -81 262 -81h342v616zM208 0h-162l418 596q-160 31 -254 141q-98 112 -98 275q0 193 128 312q127 119 334 119h511v-1443h-136v579h-335z" />
    <glyph glyph-name="uni0430" unicode="&#x430;" horiz-adv-x="1061" 
d="M714 191q98 86 98 214v119l-315 -22q-277 -18 -277 -203q0 -87 70 -141t182 -54q145 0 242 87zM185 74q-100 87 -100 226q0 281 396 309l331 22v92q0 118 -71 183q-72 65 -202 65q-113 0 -187 -54q-74 -55 -92 -151h-127q8 142 123 232q114 91 284 91q185 0 295 -96
q109 -96 109 -259v-734h-126v206h-3q-44 -98 -144 -158q-101 -60 -225 -60q-161 0 -261 86z" />
    <glyph glyph-name="uni0431" unicode="&#x431;" horiz-adv-x="1147" 
d="M212 144q-126 163 -126 473q0 471 126 669q128 201 439 209q71 0 113 5q161 11 236 49v-116q-56 -44 -229 -54q-45 -5 -115 -5q-230 -6 -330 -128q-93 -116 -126 -411h6q107 228 390 228q217 0 346 -144q129 -145 129 -388q0 -254 -133 -402t-360 -148q-240 0 -366 163z
M841 214q95 115 95 317q0 194 -95 304q-96 110 -263 110t-262 -110t-95 -304q0 -202 95 -317t262 -115t263 115z" />
    <glyph glyph-name="uni0432" unicode="&#x432;" horiz-adv-x="1017" 
d="M259 966v-353h269q229 0 229 182q0 82 -54 126q-55 45 -155 45h-289zM259 502v-391h305q245 0 245 197q0 194 -271 194h-279zM128 1077h435q150 0 237 -72q87 -73 87 -198q0 -89 -53 -156t-135 -84v-6q106 -12 172 -80q68 -70 68 -175q0 -144 -99 -225t-273 -81h-439
v1077z" />
    <glyph glyph-name="uni0433" unicode="&#x433;" horiz-adv-x="876" 
d="M259 966v-966h-131v1077h683v-111h-552z" />
    <glyph glyph-name="uni0434" unicode="&#x434;" horiz-adv-x="1207" 
d="M867 966h-468q-15 -286 -37 -503q-21 -253 -97 -346v-6h602v855zM21 -285v396h87q108 70 131 357q30 370 42 609h718v-966h174v-396h-124v285h-904v-285h-124z" />
    <glyph glyph-name="uni0435" unicode="&#x435;" horiz-adv-x="1095" 
d="M314 873q-94 -98 -103 -259h670q-2 161 -92 259q-91 99 -237 99q-145 0 -238 -99zM1005 305q-24 -139 -146 -227q-123 -90 -297 -90q-224 0 -356 147q-132 148 -132 401q0 251 131 402q132 151 349 151q212 0 339 -142q126 -143 126 -383v-58h-808v-7q0 -182 97 -288
q96 -106 257 -106q119 0 203 56q82 54 106 144h131z" />
    <glyph glyph-name="uni0436" unicode="&#x436;" horiz-adv-x="1505" 
d="M1478 0h-174l-483 527h-6v-527h-131v527h-6l-483 -527h-170l521 562l-505 515h167l470 -485h6v485h131v-485h6l470 485h166l-503 -512z" />
    <glyph glyph-name="uni0437" unicode="&#x437;" horiz-adv-x="963" 
d="M192 62q-113 80 -131 213h134q18 -83 92 -131q76 -51 193 -51q127 0 201 57q72 56 72 151q0 201 -278 201h-167v111h167q117 0 180 49q62 48 62 138q0 82 -60 131q-62 51 -174 51t-185 -51q-70 -49 -86 -131h-129q20 133 124 213q108 82 276 82q171 0 269 -79
q94 -77 94 -208q0 -88 -54 -155q-55 -66 -142 -85v-6q108 -20 169 -85q64 -67 64 -169q0 -149 -111 -238q-110 -89 -292 -89q-174 0 -288 81z" />
    <glyph glyph-name="uni0438" unicode="&#x438;" horiz-adv-x="1137" 
d="M128 0v1077h131v-871h6l612 871h131v-1077h-131v871h-7l-611 -871h-131z" />
    <glyph glyph-name="uni0439" unicode="&#x439;" horiz-adv-x="1137" 
d="M378 1530q0 -90 54 -146q55 -57 146 -57t145 57q54 56 54 146h101q0 -129 -82 -207q-83 -79 -218 -79q-136 0 -218 79q-83 78 -83 207h101zM128 0v1077h131v-871h6l612 871h131v-1077h-131v871h-7l-611 -871h-131z" />
    <glyph glyph-name="uni043A" unicode="&#x43a;" horiz-adv-x="994" 
d="M968 0h-175l-528 527h-6v-527h-131v1077h131v-485h6l515 485h168l-549 -512z" />
    <glyph glyph-name="uni043B" unicode="&#x43b;" horiz-adv-x="1108" 
d="M299 123q-69 -132 -213 -132q-33 0 -60 10v121q24 -8 54 -8q79 0 120 98q35 84 48 256q23 240 42 609h689v-1077h-131v966h-439q-16 -308 -36 -503q-18 -232 -74 -340z" />
    <glyph glyph-name="uni043C" unicode="&#x43c;" horiz-adv-x="1423" 
d="M128 0v1077h157l426 -902h6l425 902h152v-1077h-132v837h-6l-394 -816h-103l-394 816h-6v-837h-131z" />
    <glyph glyph-name="uni043D" unicode="&#x43d;" horiz-adv-x="1124" 
d="M863 504h-604v-504h-131v1077h131v-462h604v462h131v-1077h-131v504z" />
    <glyph glyph-name="uni043E" unicode="&#x43e;" horiz-adv-x="1129" 
d="M208 138q-134 149 -134 401q0 251 134 401q133 149 355 149q223 0 356 -149q134 -150 134 -401t-134 -401q-133 -150 -356 -150q-222 0 -355 150zM823 222q95 116 95 317t-95 317q-95 115 -260 115q-164 0 -259 -115q-95 -116 -95 -317t95 -317q95 -115 259 -115
q165 0 260 115z" />
    <glyph glyph-name="uni043F" unicode="&#x43f;" horiz-adv-x="1114" 
d="M853 966h-594v-966h-131v1077h856v-1077h-131v966z" />
    <glyph glyph-name="uni0440" unicode="&#x440;" horiz-adv-x="1164" 
d="M961 937q127 -152 127 -398t-127 -399q-126 -152 -330 -152q-127 0 -226 65q-96 62 -142 169h-3v-575h-132v1430h125v-223h3q43 104 144 169q103 66 229 66q204 0 332 -152zM858 225q95 119 95 313t-95 314q-96 119 -252 119q-154 0 -250 -120q-97 -121 -97 -312
q0 -192 97 -312q96 -120 250 -120q156 0 252 118z" />
    <glyph glyph-name="uni0441" unicode="&#x441;" horiz-adv-x="1060" 
d="M862 759q-26 95 -104 152q-83 60 -202 60q-159 0 -255 -118t-96 -314q0 -199 97 -316q96 -116 255 -116q116 0 197 54q79 53 108 149h132q-30 -145 -147 -233q-120 -89 -290 -89q-221 0 -353 148q-133 149 -133 403q0 250 133 400q132 150 351 150q175 0 297 -97
q115 -91 142 -233h-132z" />
    <glyph glyph-name="uni0442" unicode="&#x442;" horiz-adv-x="947" 
d="M906 966h-368v-966h-131v966h-368v111h867v-111z" />
    <glyph glyph-name="uni0443" unicode="&#x443;" horiz-adv-x="1006" 
d="M145 -367v113q30 -7 65 -7q73 0 119 43q45 42 81 144l24 67l-405 1084h142l330 -943h3l331 943h140l-420 -1129q-70 -190 -142 -256q-71 -67 -202 -67q-34 0 -66 8z" />
    <glyph glyph-name="uni0444" unicode="&#x444;" horiz-adv-x="1407" 
d="M639 976q-198 -5 -314 -122q-118 -118 -118 -317t118 -316q116 -116 314 -122v877zM1080 855q-116 116 -313 121v-877q197 5 313 122q118 118 118 317t-118 317zM639 -15q-257 5 -410 153q-155 150 -155 399q0 250 155 400q153 148 410 153v363h128v-363q256 -5 409 -153
q155 -150 155 -399q0 -250 -155 -400q-153 -148 -409 -153v-356h-128v356z" />
    <glyph glyph-name="uni0445" unicode="&#x445;" horiz-adv-x="970" 
d="M481 444l-298 -444h-150l380 542l-376 535h150l299 -434h3l296 434h150l-377 -530l374 -547h-150l-297 444h-4z" />
    <glyph glyph-name="uni0446" unicode="&#x446;" horiz-adv-x="1186" 
d="M1028 -285v285h-900v1077h131v-966h587v966h131v-966h175v-396h-124z" />
    <glyph glyph-name="uni0447" unicode="&#x447;" horiz-adv-x="1043" 
d="M783 0v513h-6q-118 -120 -304 -120q-176 0 -276 107q-98 104 -98 279v298h131v-293q0 -127 66 -199q66 -74 186 -74q110 0 198 52q66 40 103 97v417h131v-1077h-131z" />
    <glyph glyph-name="uni0448" unicode="&#x448;" horiz-adv-x="1579" 
d="M128 1077h131v-966h464v966h131v-966h465v966h131v-1077h-1322v1077z" />
    <glyph glyph-name="uni0449" unicode="&#x449;" horiz-adv-x="1659" 
d="M1500 -285v285h-1372v1077h131v-966h464v966h131v-966h465v966h131v-966h174v-396h-124z" />
    <glyph glyph-name="uni044A" unicode="&#x44a;" horiz-adv-x="1155" 
d="M329 0v966h-290v111h421v-366h234q179 0 284 -96q106 -97 106 -260t-106 -259q-105 -96 -284 -96h-365zM460 599v-488h234q118 0 189 67q70 66 70 177q0 112 -71 178q-70 66 -188 66h-234z" />
    <glyph glyph-name="uni044B" unicode="&#x44b;" horiz-adv-x="1304" 
d="M1043 1077h131v-1077h-131v1077zM259 599v-488h233q118 0 189 67q70 66 70 177q0 112 -71 178q-70 66 -188 66h-233zM128 1077h131v-366h233q178 0 284 -96q107 -97 107 -260q0 -162 -107 -259q-106 -96 -284 -96h-364v1077z" />
    <glyph glyph-name="uni044C" unicode="&#x44c;" horiz-adv-x="954" 
d="M259 599v-488h233q118 0 189 67q70 66 70 177q0 112 -71 178q-70 66 -188 66h-233zM128 1077h131v-366h233q178 0 284 -96q107 -97 107 -260q0 -162 -107 -259q-106 -96 -284 -96h-364v1077z" />
    <glyph glyph-name="uni044D" unicode="&#x44d;" horiz-adv-x="1064" 
d="M197 309q29 -95 109 -149q81 -53 198 -53q153 0 247 106q95 108 101 291h-527v111h524q-16 164 -109 260t-235 96q-119 0 -203 -60q-79 -58 -105 -152h-132q27 141 143 233q123 97 298 97q219 0 351 -150q131 -150 131 -400q0 -254 -132 -403q-131 -148 -352 -148
q-170 0 -290 89q-119 88 -149 232h132z" />
    <glyph glyph-name="uni044E" unicode="&#x44e;" horiz-adv-x="1523" 
d="M626 121q-128 139 -138 383h-229v-504h-131v1077h131v-462h233q20 224 146 352t329 128q221 0 350 -149q130 -150 130 -409q0 -257 -130 -407q-129 -149 -350 -149q-213 0 -341 140zM1220 216q91 116 91 321q0 206 -91 323q-92 116 -253 116t-253 -116q-91 -117 -91 -323
q0 -205 91 -321q92 -117 253 -117t253 117z" />
    <glyph glyph-name="uni044F" unicode="&#x44f;" horiz-adv-x="992" 
d="M731 518v448h-243q-119 0 -189 -61q-70 -62 -70 -168q0 -98 71 -158q71 -61 188 -61h243zM731 407h-229l-296 -407h-154l315 429q-126 26 -197 106q-72 81 -72 199q0 159 106 251q105 92 284 92h374v-1077h-131v407z" />
    <glyph glyph-name="uni0451" unicode="&#x451;" horiz-adv-x="1095" 
d="M314 873q-94 -98 -103 -259h670q-2 161 -92 259q-91 99 -237 99q-145 0 -238 -99zM1005 305q-24 -139 -146 -227q-123 -90 -297 -90q-224 0 -356 147q-132 148 -132 401q0 251 131 402q132 151 349 151q212 0 339 -142q126 -143 126 -383v-58h-808v-7q0 -182 97 -288
q96 -106 257 -106q119 0 203 56q82 54 106 144h131zM311 1286q-28 28 -28 65q0 38 28 66q27 27 65 27t66 -27q27 -28 27 -66t-27 -65q-28 -27 -66 -27t-65 27zM666 1286q-27 27 -27 65t27 66q28 27 66 27t66 -27q27 -28 27 -66t-27 -65q-28 -27 -66 -27t-66 27z" />
    <glyph glyph-name="uni0452" unicode="&#x452;" horiz-adv-x="1180" 
d="M1056 -83q0 -155 -76 -227q-75 -69 -233 -69h-30v113h26q98 0 140 42q41 42 41 140v753q0 139 -82 221q-82 81 -218 81q-145 0 -236 -94q-93 -96 -93 -250v-627h-133v1258h-130v97h130v186h133v-186h272v-97h-272v-379h4q96 210 361 210q177 0 286 -108
q110 -109 110 -288v-776z" />
    <glyph glyph-name="uni0453" unicode="&#x453;" horiz-adv-x="882" 
d="M385 1251l220 301h153l-256 -301h-117zM259 966v-966h-131v1077h683v-111h-552z" />
    <glyph glyph-name="uni0454" unicode="&#x454;" horiz-adv-x="1071" 
d="M1001 309q-30 -145 -148 -232q-120 -89 -290 -89q-221 0 -353 148q-133 149 -133 403q0 250 133 400q132 150 351 150q175 0 297 -97q115 -92 142 -233h-132q-26 95 -104 152q-83 60 -202 60q-143 0 -236 -96q-94 -97 -109 -260h524v-111h-528q6 -183 102 -291
q95 -106 248 -106q117 0 197 53q79 53 108 149h133z" />
    <glyph glyph-name="uni0455" unicode="&#x455;" horiz-adv-x="977" 
d="M216 1005q109 84 277 84q163 0 271 -88t116 -227h-127q-10 92 -80 147q-71 56 -184 56q-109 0 -180 -51q-72 -51 -72 -132q0 -123 201 -173l165 -40q162 -41 230 -105q68 -65 68 -180q0 -136 -117 -222q-116 -86 -298 -86q-172 0 -287 89q-114 88 -125 226h134
q12 -93 88 -148q77 -56 198 -56q122 0 197 51q76 52 76 137q0 69 -46 109q-46 41 -155 68l-182 46q-278 70 -278 277q0 133 110 218z" />
    <glyph glyph-name="uni0456" unicode="&#x456;" horiz-adv-x="418" 
d="M142 1077h132v-1077h-132v1077zM145 1317q-27 26 -27 62q0 37 27 64q26 26 63 26t63 -26q26 -27 26 -64q0 -36 -26 -62q-26 -27 -63 -27t-63 27z" />
    <glyph glyph-name="uni0457" unicode="&#x457;" horiz-adv-x="410" 
d="M139 1077h132v-1077h-132v1077zM-38 1286q-28 28 -28 65q0 38 28 66q27 27 65 27t66 -27q27 -28 27 -66t-27 -65q-28 -27 -66 -27t-65 27zM317 1286q-27 27 -27 65t27 66q28 27 66 27t66 -27q27 -28 27 -66t-27 -65q-28 -27 -66 -27t-66 27z" />
    <glyph glyph-name="uni0458" unicode="&#x458;" horiz-adv-x="419" 
d="M271 -81q0 -156 -75 -227q-74 -71 -233 -71h-31v113h27q97 0 138 42q42 41 42 140v1161h132v-1158zM142 1317q-27 26 -27 62q0 37 27 64q26 26 63 26t63 -26q26 -27 26 -64q0 -36 -26 -62q-26 -27 -63 -27t-63 27z" />
    <glyph glyph-name="uni0459" unicode="&#x459;" horiz-adv-x="1673" 
d="M299 123q-69 -132 -213 -132q-33 0 -60 10v121q24 -8 54 -8q79 0 120 98q35 84 48 256q23 240 42 609h689v-366h233q179 0 284 -96q106 -97 106 -260t-106 -259q-105 -96 -284 -96h-364v966h-439q-16 -308 -36 -503q-18 -232 -74 -340zM979 599v-488h233q118 0 189 67
q70 66 70 177q0 112 -71 178q-70 66 -188 66h-233z" />
    <glyph glyph-name="uni045A" unicode="&#x45a;" horiz-adv-x="1669" 
d="M974 533v-422h241q115 0 183 58q69 57 69 153t-69 154q-69 57 -183 57h-241zM843 532h-584v-532h-131v1077h131v-434h584v434h131v-433h241q176 0 279 -87q104 -87 104 -235t-104 -235q-103 -87 -279 -87h-372v532z" />
    <glyph glyph-name="uni045B" unicode="&#x45b;" horiz-adv-x="1180" 
d="M299 879q96 210 361 210q177 0 286 -108q110 -109 110 -288v-693h-132v669q0 139 -82 221q-82 81 -218 81q-145 0 -236 -94q-93 -96 -93 -250v-627h-133v1258h-130v97h130v186h133v-186h272v-97h-272v-379h4z" />
    <glyph glyph-name="uni045C" unicode="&#x45c;" horiz-adv-x="994" 
d="M547 1251h-117l220 301h153zM968 0h-175l-528 527h-6v-527h-131v1077h131v-485h6l515 485h168l-549 -512z" />
    <glyph glyph-name="uni045E" unicode="&#x45e;" horiz-adv-x="1006" 
d="M310 1530q0 -90 54 -146q55 -57 146 -57t145 57q54 56 54 146h101q0 -129 -82 -207q-83 -79 -218 -79q-136 0 -218 79q-83 78 -83 207h101zM145 -367v113q30 -7 65 -7q73 0 119 43q45 42 81 144l24 67l-405 1084h142l330 -943h3l331 943h140l-420 -1129
q-70 -190 -142 -256q-71 -67 -202 -67q-34 0 -66 8z" />
    <glyph glyph-name="uni045F" unicode="&#x45f;" horiz-adv-x="1114" 
d="M618 0v-285h-124v285h-366v1077h131v-966h594v966h131v-1077h-366z" />
    <glyph glyph-name="uni0490" unicode="&#x490;" horiz-adv-x="1051" 
d="M281 0h-137v1443h714v273h128v-398h-705v-1318z" />
    <glyph glyph-name="uni0491" unicode="&#x491;" horiz-adv-x="876" 
d="M259 966v-966h-131v1077h559v274h124v-385h-552z" />
    <glyph glyph-name="uni0E3F" unicode="&#xe3f;" horiz-adv-x="1219" 
d="M589 121q179 1 274 74q94 73 94 211q0 133 -95 206q-94 72 -273 76v-567zM485 121v567h-228v-567h228zM257 807h228v515h-228v-515zM589 809q296 22 296 256q0 117 -79 184q-78 68 -217 73v-513zM758 756q153 -17 246 -112q93 -98 93 -245q0 -189 -129 -294
q-130 -105 -364 -105h-15v-150h-104v150h-365v1443h365v156h104v-156h4q199 0 315 -96q115 -96 115 -260q0 -121 -75 -210q-74 -88 -190 -108v-13z" />
    <glyph glyph-name="uni1E00" unicode="&#x1e00;" horiz-adv-x="1262" 
d="M933 442h-606l-160 -442h-145l540 1443h136l539 -1443h-144zM368 560h524l-259 714h-6zM498 -474q-55 56 -55 133t55 133q55 55 132 55t133 -55q55 -56 55 -133t-55 -133q-56 -55 -133 -55t-132 55zM715 -426q35 35 35 85t-35 85t-85 35q-49 0 -84 -35t-35 -85t35 -85
t84 -35q50 0 85 35z" />
    <glyph glyph-name="uni1E01" unicode="&#x1e01;" horiz-adv-x="1048" 
d="M704 191q98 86 98 214v119l-315 -22q-277 -18 -277 -203q0 -87 70 -141t182 -54q145 0 242 87zM175 74q-100 87 -100 226q0 281 396 309l331 22v92q0 118 -71 183q-72 65 -202 65q-113 0 -187 -54q-74 -55 -92 -151h-127q8 142 123 232q114 91 284 91q185 0 295 -96
q109 -96 109 -259v-734h-126v206h-3q-44 -98 -144 -158q-101 -60 -225 -60q-161 0 -261 86zM381 -474q-55 56 -55 133t55 133q55 55 132 55t133 -55q55 -56 55 -133t-55 -133q-56 -55 -133 -55t-132 55zM598 -426q35 35 35 85t-35 85t-85 35q-49 0 -84 -35t-35 -85t35 -85
t84 -35q50 0 85 35z" />
    <glyph glyph-name="uni1E02" unicode="&#x1e02;" horiz-adv-x="1217" 
d="M469 1605q-30 30 -30 72t30 72t72 30t72 -30t30 -72t-30 -72t-72 -30t-72 30zM134 0v1443h531q186 0 302 -98q115 -98 115 -258q0 -120 -75 -212q-74 -92 -189 -113v-7q152 -18 244 -113q94 -98 94 -246q0 -185 -130 -290q-130 -106 -358 -106h-534zM270 802h326
q164 0 256 71q92 72 92 199q0 118 -82 184t-226 66h-366v-520zM650 121q176 0 271 74q95 73 95 208t-99 208q-100 73 -286 73h-361v-563h380z" />
    <glyph glyph-name="uni1E03" unicode="&#x1e03;" horiz-adv-x="1154" 
d="M122 1668q-30 30 -30 72t30 72t72 30t72 -30t30 -72t-30 -72t-72 -30t-72 30zM404 51q-99 64 -147 177h-3v-228h-126v1506h132v-650h3q47 109 145 171t225 62q203 0 329 -152t126 -398q0 -247 -126 -399q-127 -152 -331 -152q-129 0 -227 63zM356 850q-97 -121 -97 -312
t97 -311q98 -120 252 -120q155 0 250 119q95 118 95 313q0 194 -95 313q-94 119 -249 119t-253 -121z" />
    <glyph glyph-name="uni1E04" unicode="&#x1e04;" horiz-adv-x="1217" 
d="M469 -321q-30 30 -30 72t30 72t72 30t72 -30t30 -72t-30 -72t-72 -30t-72 30zM134 0v1443h531q186 0 302 -98q115 -98 115 -258q0 -120 -75 -212q-74 -92 -189 -113v-7q152 -18 244 -113q94 -98 94 -246q0 -185 -130 -290q-130 -106 -358 -106h-534zM270 802h326
q164 0 256 71q92 72 92 199q0 118 -82 184t-226 66h-366v-520zM650 121q176 0 271 74q95 73 95 208t-99 208q-100 73 -286 73h-361v-563h380z" />
    <glyph glyph-name="uni1E05" unicode="&#x1e05;" horiz-adv-x="1154" 
d="M537 -321q-30 30 -30 72t30 72t72 30t72 -30t30 -72t-30 -72t-72 -30t-72 30zM404 51q-99 64 -147 177h-3v-228h-126v1506h132v-650h3q47 109 145 171t225 62q203 0 329 -152t126 -398q0 -247 -126 -399q-127 -152 -331 -152q-129 0 -227 63zM356 850q-97 -121 -97 -312
t97 -311q98 -120 252 -120q155 0 250 119q95 118 95 313q0 194 -95 313q-94 119 -249 119t-253 -121z" />
    <glyph glyph-name="uni1E06" unicode="&#x1e06;" horiz-adv-x="1217" 
d="M134 0v1443h531q186 0 302 -98q115 -98 115 -258q0 -120 -75 -212q-74 -92 -189 -113v-7q152 -18 244 -113q94 -98 94 -246q0 -185 -130 -290q-130 -106 -358 -106h-534zM270 802h326q164 0 256 71q92 72 92 199q0 118 -82 184t-226 66h-366v-520zM650 121q176 0 271 74
q95 73 95 208t-99 208q-100 73 -286 73h-361v-563h380zM846 -299h-610v85h610v-85z" />
    <glyph glyph-name="uni1E07" unicode="&#x1e07;" horiz-adv-x="1154" 
d="M914 -299h-610v85h610v-85zM404 51q-99 64 -147 177h-3v-228h-126v1506h132v-650h3q47 109 145 171t225 62q203 0 329 -152t126 -398q0 -247 -126 -399q-127 -152 -331 -152q-129 0 -227 63zM356 850q-97 -121 -97 -312t97 -311q98 -120 252 -120q155 0 250 119
q95 118 95 313q0 194 -95 313q-94 119 -249 119t-253 -121z" />
    <glyph glyph-name="uni1E08" unicode="&#x1e08;" horiz-adv-x="1371" 
d="M776 1552h-117l252 295h154zM1167 985q-30 156 -155 255t-293 99q-230 0 -366 -166q-137 -167 -137 -448q0 -285 137 -453q136 -168 367 -168q173 0 294 87t153 236h137q-37 -200 -180 -319q-143 -118 -360 -130l-46 -119q208 0 208 -152q0 -76 -61 -124
q-62 -49 -157 -50q-84 0 -139 17v80q41 -16 122 -16q63 0 100 24q37 25 37 66q0 82 -155 82h-53v60l53 132q-275 17 -436 217q-161 201 -161 530q0 339 175 540q174 201 468 201q229 0 392 -135q164 -134 193 -346h-137z" />
    <glyph glyph-name="uni1E09" unicode="&#x1e09;" horiz-adv-x="1046" 
d="M599 1251h-117l220 301h153zM992 332q-22 -143 -127 -235q-107 -94 -266 -107l-50 -131q208 0 208 -152q0 -76 -61 -124q-62 -49 -157 -50q-84 0 -139 17v80q41 -16 122 -16q63 0 100 24q37 25 37 66q0 82 -155 82h-53v60l58 143q-204 14 -324 161q-121 148 -121 389
q0 250 133 400q132 150 351 150q182 0 306 -104q117 -98 137 -247h-131q-20 103 -101 166q-85 67 -210 67q-158 0 -254 -118t-96 -314q0 -199 96 -316q96 -116 255 -116q124 0 206 60q82 59 105 165h131z" />
    <glyph glyph-name="uni1E0A" unicode="&#x1e0a;" horiz-adv-x="1370" 
d="M478 1605q-30 30 -30 72t30 72t72 30t72 -30t30 -72t-30 -72t-72 -30t-72 30zM609 1443q324 0 504 -189q180 -190 180 -532q0 -343 -180 -532q-179 -190 -504 -190h-475v1443h475zM271 124h330q266 0 410 155q143 155 143 442q0 288 -143 443q-144 155 -410 155h-330
v-1195z" />
    <glyph glyph-name="uni1E0B" unicode="&#x1e0b;" horiz-adv-x="1157" 
d="M889 1668q-30 30 -30 72t30 72t72 30t72 -30t30 -72t-30 -72t-72 -30t-72 30zM193 140q-129 153 -129 399q0 245 129 398q127 152 329 152q128 0 229 -64q97 -63 141 -169h3v650h133v-1506h-126v229h-3q-47 -111 -145 -175q-100 -66 -229 -66q-203 0 -332 152zM295 852
q-96 -119 -96 -313t96 -313t251 -119t253 120q97 120 97 312q0 191 -97 312q-98 120 -253 120t-251 -119z" />
    <glyph glyph-name="uni1E0C" unicode="&#x1e0c;" horiz-adv-x="1370" 
d="M478 -321q-30 30 -30 72t30 72t72 30t72 -30t30 -72t-30 -72t-72 -30t-72 30zM609 1443q324 0 504 -189q180 -190 180 -532q0 -343 -180 -532q-179 -190 -504 -190h-475v1443h475zM271 124h330q266 0 410 155q143 155 143 442q0 288 -143 443q-144 155 -410 155h-330
v-1195z" />
    <glyph glyph-name="uni1E0D" unicode="&#x1e0d;" horiz-adv-x="1157" 
d="M462 -321q-30 30 -30 72t30 72t72 30t72 -30t30 -72t-30 -72t-72 -30t-72 30zM193 140q-129 153 -129 399q0 245 129 398q127 152 329 152q128 0 229 -64q97 -63 141 -169h3v650h133v-1506h-126v229h-3q-47 -111 -145 -175q-100 -66 -229 -66q-203 0 -332 152zM295 852
q-96 -119 -96 -313t96 -313t251 -119t253 120q97 120 97 312q0 191 -97 312q-98 120 -253 120t-251 -119z" />
    <glyph glyph-name="uni1E0E" unicode="&#x1e0e;" horiz-adv-x="1370" 
d="M855 -299h-610v85h610v-85zM609 1443q324 0 504 -189q180 -190 180 -532q0 -343 -180 -532q-179 -190 -504 -190h-475v1443h475zM271 124h330q266 0 410 155q143 155 143 442q0 288 -143 443q-144 155 -410 155h-330v-1195z" />
    <glyph glyph-name="uni1E0F" unicode="&#x1e0f;" horiz-adv-x="1157" 
d="M839 -299h-610v85h610v-85zM193 140q-129 153 -129 399q0 245 129 398q127 152 329 152q128 0 229 -64q97 -63 141 -169h3v650h133v-1506h-126v229h-3q-47 -111 -145 -175q-100 -66 -229 -66q-203 0 -332 152zM295 852q-96 -119 -96 -313t96 -313t251 -119t253 120
q97 120 97 312q0 191 -97 312q-98 120 -253 120t-251 -119z" />
    <glyph glyph-name="uni1E10" unicode="&#x1e10;" horiz-adv-x="1370" 
d="M417 -520l95 358h121l-116 -358h-100zM609 1443q324 0 504 -189q180 -190 180 -532q0 -343 -180 -532q-179 -190 -504 -190h-475v1443h475zM271 124h330q266 0 410 155q143 155 143 442q0 288 -143 443q-144 155 -410 155h-330v-1195z" />
    <glyph glyph-name="uni1E11" unicode="&#x1e11;" horiz-adv-x="1157" 
d="M401 -520l95 358h121l-116 -358h-100zM193 140q-129 153 -129 399q0 245 129 398q127 152 329 152q128 0 229 -64q97 -63 141 -169h3v650h133v-1506h-126v229h-3q-47 -111 -145 -175q-100 -66 -229 -66q-203 0 -332 152zM295 852q-96 -119 -96 -313t96 -313t251 -119
t253 120q97 120 97 312q0 191 -97 312q-98 120 -253 120t-251 -119z" />
    <glyph glyph-name="uni1E12" unicode="&#x1e12;" horiz-adv-x="1370" 
d="M609 1443q324 0 504 -189q180 -190 180 -532q0 -343 -180 -532q-179 -190 -504 -190h-475v1443h475zM271 124h330q266 0 410 155q143 155 143 442q0 288 -143 443q-144 155 -410 155h-330v-1195zM605 -158l283 -295h-131l-206 217h-2l-206 -217h-131l283 295h110z" />
    <glyph glyph-name="uni1E13" unicode="&#x1e13;" horiz-adv-x="1157" 
d="M193 140q-129 153 -129 399q0 245 129 398q127 152 329 152q128 0 229 -64q97 -63 141 -169h3v650h133v-1506h-126v229h-3q-47 -111 -145 -175q-100 -66 -229 -66q-203 0 -332 152zM295 852q-96 -119 -96 -313t96 -313t251 -119t253 120q97 120 97 312q0 191 -97 312
q-98 120 -253 120t-251 -119zM589 -158l283 -295h-131l-206 217h-2l-206 -217h-131l283 295h110z" />
    <glyph glyph-name="uni1E14" unicode="&#x1e14;" horiz-adv-x="1104" 
d="M264 1718h610v-85h-610v85zM520 1818l-231 203h145l195 -203h-109zM1005 0h-871v1443h871v-124h-735v-519h698v-122h-698v-554h735v-124z" />
    <glyph glyph-name="uni1E15" unicode="&#x1e15;" horiz-adv-x="1075" 
d="M304 873q-94 -98 -103 -259h670q-2 161 -92 259q-91 99 -237 99q-145 0 -238 -99zM995 305q-24 -139 -146 -227q-123 -90 -297 -90q-224 0 -356 147q-132 148 -132 401q0 251 131 402q132 151 349 151q212 0 339 -142q126 -143 126 -383v-58h-808v-7q0 -182 97 -288
q96 -106 257 -106q119 0 203 56q82 54 106 144h131zM494 1563l-218 274h145l190 -274h-117zM851 1315h-618v85h618v-85z" />
    <glyph glyph-name="uni1E16" unicode="&#x1e16;" horiz-adv-x="1104" 
d="M264 1633v85h610v-85h-610zM704 2021h145l-231 -203h-109zM1005 0h-871v1443h871v-124h-735v-519h698v-122h-698v-554h735v-124z" />
    <glyph glyph-name="uni1E17" unicode="&#x1e17;" horiz-adv-x="1075" 
d="M304 873q-94 -98 -103 -259h670q-2 161 -92 259q-91 99 -237 99q-145 0 -238 -99zM995 305q-24 -139 -146 -227q-123 -90 -297 -90q-224 0 -356 147q-132 148 -132 401q0 251 131 402q132 151 349 151q212 0 339 -142q126 -143 126 -383v-58h-808v-7q0 -182 97 -288
q96 -106 257 -106q119 0 203 56q82 54 106 144h131zM667 1837h145l-218 -274h-117zM851 1315h-618v85h618v-85z" />
    <glyph glyph-name="uni1E18" unicode="&#x1e18;" horiz-adv-x="1104" 
d="M1005 0h-871v1443h871v-124h-735v-519h698v-122h-698v-554h735v-124zM624 -158l283 -295h-131l-206 217h-2l-206 -217h-131l283 295h110z" />
    <glyph glyph-name="uni1E19" unicode="&#x1e19;" horiz-adv-x="1075" 
d="M304 873q-94 -98 -103 -259h670q-2 161 -92 259q-91 99 -237 99q-145 0 -238 -99zM995 305q-24 -139 -146 -227q-123 -90 -297 -90q-224 0 -356 147q-132 148 -132 401q0 251 131 402q132 151 349 151q212 0 339 -142q126 -143 126 -383v-58h-808v-7q0 -182 97 -288
q96 -106 257 -106q119 0 203 56q82 54 106 144h131zM607 -158l283 -295h-131l-206 217h-2l-206 -217h-131l283 295h110z" />
    <glyph glyph-name="uni1E1A" unicode="&#x1e1a;" horiz-adv-x="1104" 
d="M555 -315q-74 78 -113 78q-78 0 -78 -144h-91q0 109 43 171q44 63 123 63q75 0 150 -78q76 -79 111 -79q73 0 73 144h91q0 -107 -43 -170q-44 -64 -121 -64q-70 0 -145 79zM1005 0h-871v1443h871v-124h-735v-519h698v-122h-698v-554h735v-124z" />
    <glyph glyph-name="uni1E1B" unicode="&#x1e1b;" horiz-adv-x="1075" 
d="M538 -315q-74 78 -113 78q-78 0 -78 -144h-91q0 109 43 171q44 63 123 63q75 0 150 -78q76 -79 111 -79q73 0 73 144h91q0 -107 -43 -170q-44 -64 -121 -64q-70 0 -145 79zM304 873q-94 -98 -103 -259h670q-2 161 -92 259q-91 99 -237 99q-145 0 -238 -99zM995 305
q-24 -139 -146 -227q-123 -90 -297 -90q-224 0 -356 147q-132 148 -132 401q0 251 131 402q132 151 349 151q212 0 339 -142q126 -143 126 -383v-58h-808v-7q0 -182 97 -288q96 -106 257 -106q119 0 203 56q82 54 106 144h131z" />
    <glyph glyph-name="uni1E1C" unicode="&#x1e1c;" horiz-adv-x="1104" 
d="M861 1823q0 -121 -81 -197q-82 -75 -211 -75t-210 75q-82 76 -82 197h94q0 -80 56 -134q56 -55 142 -55t142 55q56 54 56 134h94zM270 1319v-519h698v-122h-698v-554h735v-124h-383l-54 -141q208 0 208 -152q0 -76 -61 -124q-62 -49 -157 -50q-84 0 -139 17v80
q41 -16 122 -16q63 0 100 24q37 25 37 66q0 82 -155 82h-53v60l62 154h-398v1443h871v-124h-735z" />
    <glyph glyph-name="uni1E1D" unicode="&#x1e1d;" horiz-adv-x="1075" 
d="M844 1530q0 -129 -84 -208q-83 -78 -217 -78t-217 78q-84 79 -84 208h97q0 -86 58 -143t146 -57t146 57t58 143h97zM871 614q-2 161 -92 259q-91 99 -237 99q-145 0 -238 -99q-94 -98 -103 -259h670zM201 506v-7q0 -182 97 -288q96 -106 257 -106q119 0 203 56
q82 54 106 144h131q-23 -129 -129 -215q-108 -87 -265 -100l-50 -131q208 0 208 -152q0 -76 -61 -124q-62 -49 -157 -50q-84 0 -139 17v80q41 -16 122 -16q63 0 100 24q37 25 37 66q0 82 -155 82h-53v60l58 143q-207 14 -326 160q-121 146 -121 387q0 251 131 402
q132 151 349 151q212 0 339 -142q126 -143 126 -383v-58h-808z" />
    <glyph glyph-name="uni1E1E" unicode="&#x1e1e;" horiz-adv-x="1061" 
d="M490 1605q-30 30 -30 72t30 72t72 30t72 -30t30 -72t-30 -72t-72 -30t-72 30zM134 0v1443h856v-124h-720v-542h662v-122h-662v-655h-136z" />
    <glyph glyph-name="uni1E1F" unicode="&#x1e1f;" horiz-adv-x="589" 
d="M273 1627q-30 30 -30 72t30 72t72 30t72 -30t30 -72t-30 -72t-72 -30t-72 30zM172 966h-150v111h150v123q0 141 66 207q65 65 200 65q49 0 89 -9v-111q-35 8 -78 8q-73 0 -108 -37q-35 -39 -36 -125v-121h219v-111h-219v-966h-133v966z" />
    <glyph glyph-name="uni1E20" unicode="&#x1e20;" horiz-adv-x="1409" 
d="M1323 586q0 -286 -159 -447q-159 -162 -440 -162q-293 0 -471 206q-177 206 -177 547q0 335 176 536q177 200 472 200q227 0 388 -125t202 -332h-142q-44 154 -164 242q-119 88 -284 88q-235 0 -371 -163q-137 -164 -137 -446q0 -286 138 -456t370 -170q209 0 336 123
t127 327v51h-448v120h584v-139zM1029 1633h-610v85h610v-85z" />
    <glyph glyph-name="uni1E21" unicode="&#x1e21;" horiz-adv-x="1144" 
d="M862 1315h-618v85h618v-85zM795 233q97 118 97 308q0 191 -97 311q-97 119 -253 119q-154 0 -249 -118q-94 -118 -94 -312q0 -193 94 -310t249 -117q156 0 253 119zM255 -299q-118 76 -138 200h138q20 -73 101 -116q83 -44 203 -44q151 0 242 72q91 73 91 197v219h-3
q-46 -106 -143 -169q-100 -65 -227 -65q-203 0 -329 151t-126 395q0 247 126 397q126 151 332 151q127 0 228 -65q98 -63 146 -170h2v223h126v-1057q0 -184 -128 -290q-128 -105 -345 -105q-178 0 -296 76z" />
    <glyph glyph-name="uni1E22" unicode="&#x1e22;" horiz-adv-x="1387" 
d="M1114 0v677h-844v-677h-136v1443h136v-642h844v642h137v-1443h-137zM620 1605q-30 30 -30 72t30 72t72 30t72 -30t30 -72t-30 -72t-72 -30t-72 30z" />
    <glyph glyph-name="uni1E23" unicode="&#x1e23;" horiz-adv-x="1136" 
d="M128 1506h132v-630h3q95 213 363 213q178 0 287 -109q109 -110 109 -290v-690h-133v669q0 141 -81 222q-80 80 -219 80q-147 0 -238 -95t-91 -248v-628h-132v1506zM123 1668q-30 30 -30 72t30 72t72 30t72 -30t30 -72t-30 -72t-72 -30t-72 30z" />
    <glyph glyph-name="uni1E24" unicode="&#x1e24;" horiz-adv-x="1387" 
d="M1114 0v677h-844v-677h-136v1443h136v-642h844v642h137v-1443h-137zM620 -321q-30 30 -30 72t30 72t72 30t72 -30t30 -72t-30 -72t-72 -30t-72 30z" />
    <glyph glyph-name="uni1E25" unicode="&#x1e25;" horiz-adv-x="1136" 
d="M128 1506h132v-630h3q95 213 363 213q178 0 287 -109q109 -110 109 -290v-690h-133v669q0 141 -81 222q-80 80 -219 80q-147 0 -238 -95t-91 -248v-628h-132v1506zM502 -321q-30 30 -30 72t30 72t72 30t72 -30t30 -72t-30 -72t-72 -30t-72 30z" />
    <glyph glyph-name="uni1E26" unicode="&#x1e26;" horiz-adv-x="1387" 
d="M1114 0v677h-844v-677h-136v1443h136v-642h844v642h137v-1443h-137zM449 1603q-28 28 -28 65q0 38 28 66q27 27 65 27t66 -27q27 -28 27 -66t-27 -65q-28 -27 -66 -27t-65 27zM804 1603q-27 27 -27 65t27 66q28 27 66 27t66 -27q27 -28 27 -66t-27 -65q-28 -27 -66 -27
t-66 27z" />
    <glyph glyph-name="uni1E27" unicode="&#x1e27;" horiz-adv-x="1136" 
d="M129 1506h132v-630h3q95 213 363 213q178 0 287 -109q109 -110 109 -290v-690h-133v669q0 141 -81 222q-80 80 -219 80q-147 0 -238 -95t-91 -248v-628h-132v1506zM-47 1666q-28 28 -28 65q0 38 28 66q27 27 65 27t66 -27q27 -28 27 -66t-27 -65q-28 -27 -66 -27t-65 27z
M308 1666q-27 27 -27 65t27 66q28 27 66 27t66 -27q27 -28 27 -66t-27 -65q-28 -27 -66 -27t-66 27z" />
    <glyph glyph-name="uni1E28" unicode="&#x1e28;" horiz-adv-x="1387" 
d="M1251 1443v-1443h-137v677h-844v-677h-15l-54 -141q208 0 208 -152q0 -76 -61 -124q-62 -49 -157 -50q-84 0 -139 17v80q41 -16 122 -16q63 0 100 24q37 25 37 66q0 82 -155 82h-53v60l62 154h-31v1443h136v-642h844v642h137z" />
    <glyph glyph-name="uni1E29" unicode="&#x1e29;" horiz-adv-x="1136" 
d="M263 876q95 213 363 213q178 0 287 -109q109 -110 109 -290v-690h-133v669q0 141 -81 222q-80 80 -219 80q-147 0 -238 -95t-91 -248v-628h-12l-54 -141q208 0 208 -152q0 -76 -61 -124q-62 -49 -157 -50q-84 0 -139 17v80q41 -16 122 -16q63 0 100 24q37 25 37 66
q0 82 -155 82h-53v60l62 154h-30v1506h132v-630h3z" />
    <glyph glyph-name="uni1E2A" unicode="&#x1e2a;" horiz-adv-x="1387" 
d="M494 -179q0 -80 56 -134q56 -55 142 -55t142 55q56 54 56 134h94q0 -121 -81 -197q-82 -75 -211 -75t-210 75q-82 76 -82 197h94zM1114 0v677h-844v-677h-136v1443h136v-642h844v642h137v-1443h-137z" />
    <glyph glyph-name="uni1E2B" unicode="&#x1e2b;" horiz-adv-x="1136" 
d="M376 -179q0 -80 56 -134q56 -55 142 -55t142 55q56 54 56 134h94q0 -121 -81 -197q-82 -75 -211 -75t-210 75q-82 76 -82 197h94zM128 1506h132v-630h3q95 213 363 213q178 0 287 -109q109 -110 109 -290v-690h-133v669q0 141 -81 222q-80 80 -219 80q-147 0 -238 -95
t-91 -248v-628h-132v1506z" />
    </font>
</defs>
</svg>
