<?xml version="1.0" standalone="no"?>
<!DOCTYPE svg PUBLIC "-//W3C//DTD SVG 1.1//EN" "http://www.w3.org/Graphics/SVG/1.1/DTD/svg11.dtd" >
<svg>
<metadata>
Created by FontForge 20090622 at Sat Apr 27 14:01:01 2019
 By deploy user
&#194;&#169; 2014 Apple Inc. All rights reserved.
</metadata>
<defs>
<font id="SFUIDisplay-Medium" horiz-adv-x="0" >
  <font-face 
    font-family="SFUIDisplay Display"
    font-weight="500"
    font-stretch="normal"
    units-per-em="2048"
    panose-1="0 0 6 0 0 0 0 0 0 0"
    ascent="1638"
    descent="-410"
    x-height="1086"
    cap-height="1443"
    bbox="-544 -898 2591 2144"
    underline-thickness="50"
    underline-position="-75"
    unicode-range="U+0020-U+FB02"
  />
<missing-glyph horiz-adv-x="1293" 
d="M119 1365h1053v-1365h-1053v1365zM533 236q34 -30 87 -30q55 0 89 30q33 29 33 77q0 49 -33 78q-34 30 -89 30q-54 0 -87 -30t-33 -78q0 -47 33 -77zM507 888q1 59 34 95q34 35 91 35q54 0 87 -30t33 -80q0 -38 -20 -66q-21 -27 -83 -72q-128 -90 -118 -221l1 -18h166v15
q0 48 19 76t88 77q133 96 133 218q0 113 -81 182q-81 68 -215 68q-143 0 -225 -76q-83 -76 -79 -203h169z" />
    <glyph glyph-name=".notdef" horiz-adv-x="1293" 
d="M119 1365h1053v-1365h-1053v1365zM533 236q34 -30 87 -30q55 0 89 30q33 29 33 77q0 49 -33 78q-34 30 -89 30q-54 0 -87 -30t-33 -78q0 -47 33 -77zM507 888q1 59 34 95q34 35 91 35q54 0 87 -30t33 -80q0 -38 -20 -66q-21 -27 -83 -72q-128 -90 -118 -221l1 -18h166v15
q0 48 19 76t88 77q133 96 133 218q0 113 -81 182q-81 68 -215 68q-143 0 -225 -76q-83 -76 -79 -203h169z" />
    <glyph glyph-name="glyph1" 
 />
    <glyph glyph-name="glyph2" 
 />
    <glyph glyph-name="space" unicode=" " horiz-adv-x="472" 
 />
    <glyph glyph-name="exclam" unicode="!" horiz-adv-x="583" 
d="M402 1443l-16 -965h-191l-16 965h223zM197 22q-38 37 -38 92t38 92t93 37q56 0 94 -37t38 -92t-38 -92t-94 -37q-55 0 -93 37z" />
    <glyph glyph-name="quotedbl" unicode="&#x22;" horiz-adv-x="851" 
d="M124 910v533h193v-533h-193zM532 910v533h192v-533h-192z" />
    <glyph glyph-name="numbersign" unicode="#" horiz-adv-x="1229" 
d="M965 887l-64 -314h216l-33 -170h-217l-81 -403h-172l82 403h-282l-81 -403h-171l81 403h-212l32 170h215l63 314h-203l34 168h203l80 388h171l-78 -388h280l80 388h171l-79 -388h226l-32 -168h-229zM441 564h293l67 330h-293z" />
    <glyph glyph-name="dollar" unicode="$" horiz-adv-x="1270" 
d="M569 -137v132q-214 14 -341 124q-127 109 -128 282h212q8 -92 76 -152t181 -73v473l-89 23q-347 87 -347 384q0 171 116 279q116 107 320 126v139h137v-139q195 -16 314 -126q118 -109 123 -275h-209q-3 85 -66 146q-63 60 -162 73v-447l93 -21q369 -92 369 -395
q0 -182 -121 -292t-341 -128v-133h-137zM706 623v-450q119 7 185 65q65 59 65 158q0 175 -250 227zM569 861v418q-96 -5 -159 -63q-63 -59 -63 -145q0 -164 222 -210z" />
    <glyph glyph-name="percent" unicode="%" horiz-adv-x="1549" 
d="M1414 81q-84 -99 -226 -99q-143 0 -228 99q-85 100 -85 266t85 265t228 99q142 0 227 -99q84 -98 84 -265q0 -166 -85 -266zM1282 183q34 60 34 164q0 105 -34 164q-33 58 -94 58q-60 0 -95 -60q-35 -59 -35 -162t35 -163q35 -61 95 -61q59 0 94 60zM586 839
q-84 -99 -226 -99q-143 0 -228 99q-85 100 -85 266t85 265t228 99q142 0 227 -99q84 -98 84 -265q0 -166 -85 -266zM454 941q34 60 34 164q0 105 -34 164q-33 58 -94 58q-60 0 -95 -60q-35 -59 -35 -162t35 -163q35 -61 95 -61q59 0 94 60zM140 0l1055 1443h202l-1053 -1443
h-204z" />
    <glyph glyph-name="ampersand" unicode="&#x26;" horiz-adv-x="1394" 
d="M1023 136q-185 -161 -456 -161q-220 0 -355 113q-136 112 -136 294q0 245 277 394l59 30q-179 189 -179 334q0 140 108 232q109 93 272 93q166 0 272 -91t106 -234q0 -110 -72 -198q-71 -88 -231 -173l328 -353q62 115 62 343v55h194v-61q0 -301 -120 -480l259 -273h-263
zM288 398q0 -112 83 -181t217 -69q199 0 312 121l-379 414q-18 -9 -45 -24q-188 -116 -188 -261zM746 1000q50 56 50 129q0 78 -50 127q-51 49 -132 49q-79 0 -131 -50q-51 -50 -51 -127q0 -101 146 -246q118 61 168 118z" />
    <glyph glyph-name="quotesingle" unicode="'" horiz-adv-x="443" 
d="M124 910v533h193v-533h-193z" />
    <glyph glyph-name="parenleft" unicode="(" horiz-adv-x="663" 
d="M429 -277q-270 336 -270 876q0 490 280 843h190q-92 -108 -160 -299q-89 -251 -89 -542q0 -453 246 -878h-197z" />
    <glyph glyph-name="parenright" unicode=")" horiz-adv-x="663" 
d="M34 -277q245 423 245 878q0 292 -87 542q-68 193 -160 299h190q131 -168 193 -323q87 -222 87 -520q0 -539 -271 -876h-197z" />
    <glyph glyph-name="asterisk" unicode="*" horiz-adv-x="990" 
d="M549 1021l24 -290h-158l24 291l-239 -168l-78 137l264 124l-264 124l78 138l240 -170l-25 294h158l-25 -294l241 170l77 -138l-263 -124l263 -124l-77 -137z" />
    <glyph glyph-name="plus" unicode="+" horiz-adv-x="1270" 
d="M733 24h-198v451h-420v195h420v442h198v-442h420v-195h-420v-451z" />
    <glyph glyph-name="comma" unicode="," horiz-adv-x="552" 
d="M94 -262l94 488h217l-145 -488h-166z" />
    <glyph glyph-name="hyphen" unicode="-" horiz-adv-x="888" 
d="M115 475v195h656v-195h-656z" />
    <glyph glyph-name="period" unicode="." horiz-adv-x="538" 
d="M175 27q-38 38 -38 93t38 93t93 38q56 0 93 -38q38 -37 38 -93q0 -55 -38 -93t-93 -38t-93 38z" />
    <glyph glyph-name="slash" unicode="/" horiz-adv-x="625" 
d="M0 -316l431 1760h194l-436 -1760h-189z" />
    <glyph glyph-name="zero" unicode="0" horiz-adv-x="1275" 
d="M232 176q-146 200 -146 547q0 344 147 545q147 202 404 202t404 -202q145 -199 145 -544q0 -347 -145 -548q-146 -203 -404 -203t-405 203zM876 311q84 149 84 412q0 260 -85 409q-86 150 -238 150t-238 -151q-86 -149 -86 -408q0 -263 85 -411q85 -151 239 -151t239 150
z" />
    <glyph glyph-name="one" unicode="1" horiz-adv-x="935" 
d="M476 1221h-5l-377 -268v220l380 270h221v-1443h-219v1221z" />
    <glyph glyph-name="two" unicode="2" horiz-adv-x="1186" 
d="M99 1020q0 195 140 323q141 127 356 127q206 0 343 -116t137 -288q0 -121 -71 -236q-63 -102 -230 -273l-361 -363v-5h685v-189h-987v152l521 531q132 138 177 212q45 75 45 160q0 96 -77 163t-189 67q-118 0 -198 -76q-79 -75 -79 -188v-3h-212v2z" />
    <glyph glyph-name="three" unicode="3" horiz-adv-x="1240" 
d="M425 829h174q116 0 190 66q73 66 73 168q0 103 -67 162q-70 61 -196 61q-117 0 -190 -63q-73 -62 -83 -169h-211q13 190 146 303q134 113 348 113q206 0 338 -105q134 -106 134 -272q0 -134 -81 -226q-81 -91 -216 -115v-4q164 -11 260 -105q97 -94 97 -245
q0 -187 -152 -307q-150 -118 -378 -118q-231 0 -374 117q-140 114 -151 303h215q11 -105 92 -168q84 -65 218 -65q132 0 217 68q85 67 85 173q0 117 -83 185q-82 67 -225 67h-180v176z" />
    <glyph glyph-name="four" unicode="4" horiz-adv-x="1271" 
d="M797 285h-722v196q174 328 613 962h324v-970h198v-188h-198v-285h-215v285zM284 470h515v800h-4q-358 -517 -511 -795v-5z" />
    <glyph glyph-name="five" unicode="5" horiz-adv-x="1228" 
d="M269 93q-143 119 -153 308h214q12 -107 96 -174q83 -67 204 -67q136 0 222 86t86 222t-85 223q-86 88 -221 88q-199 0 -289 -152h-205l76 816h859v-189h-679l-40 -443h5q101 146 322 146q208 0 342 -136q134 -137 134 -347q0 -222 -148 -361q-147 -140 -381 -140
q-216 0 -359 120z" />
    <glyph glyph-name="six" unicode="6" horiz-adv-x="1259" 
d="M176 276q-89 173 -89 426q0 362 153 566q153 203 424 203q191 0 328 -105q136 -105 169 -278h-224q-26 89 -101 142t-174 53q-171 0 -265 -148q-94 -149 -95 -421h4q48 106 154 170q108 64 242 64q206 0 343 -136q136 -136 136 -341q0 -217 -149 -358t-378 -141
q-331 0 -478 304zM869 249q89 88 89 215q0 131 -86 216q-85 85 -218 85q-132 0 -219 -84q-88 -85 -88 -213q0 -129 88 -218t217 -89q128 0 217 88z" />
    <glyph glyph-name="seven" unicode="7" horiz-adv-x="1139" 
d="M832 1249v5h-761v189h982v-194l-627 -1249h-235z" />
    <glyph glyph-name="eight" unicode="8" horiz-adv-x="1266" 
d="M238 90q-152 117 -152 300q0 137 89 240q88 101 232 131v5q-120 33 -191 120q-72 88 -72 204q0 164 138 272t350 108q213 0 350 -108q137 -107 137 -273q0 -114 -71 -202q-71 -86 -191 -121v-5q144 -30 233 -132q88 -102 88 -239q0 -184 -153 -300q-153 -117 -393 -117
q-241 0 -394 117zM858 224q88 72 88 182q0 112 -88 183q-88 72 -226 72t-226 -72q-89 -72 -89 -183q0 -110 89 -182q88 -71 226 -71t226 71zM823 904q75 64 75 162q0 99 -74 163q-75 63 -192 63t-192 -63q-74 -64 -74 -163t74 -162q75 -63 192 -63q116 0 191 63z" />
    <glyph glyph-name="nine" unicode="9" horiz-adv-x="1260" 
d="M265 79q-137 105 -169 277h225q26 -89 101 -143q76 -54 176 -54q169 0 263 150t94 422h-4q-44 -107 -150 -171q-108 -65 -246 -65q-206 0 -342 136q-137 136 -137 341q0 217 149 358t378 141q160 0 285 -79q124 -78 194 -224q89 -173 89 -426q0 -362 -152 -566
q-153 -203 -424 -203q-192 0 -330 106zM824 763q88 84 88 212t-88 217q-89 88 -218 88t-218 -87q-89 -88 -89 -214q0 -130 86 -215q87 -86 218 -86q133 0 221 85z" />
    <glyph glyph-name="colon" unicode=":" horiz-adv-x="538" 
d="M175 27q-38 38 -38 93t38 93t93 38q56 0 93 -38q38 -37 38 -93q0 -55 -38 -93t-93 -38t-93 38zM175 756q-38 38 -38 93t38 93t93 38q56 0 93 -38q38 -37 38 -93q0 -55 -38 -93q-37 -38 -93 -38q-55 0 -93 38z" />
    <glyph glyph-name="semicolon" unicode=";" horiz-adv-x="538" 
d="M175 756q-38 38 -38 93t38 93t93 38q56 0 93 -38q38 -37 38 -93q0 -55 -38 -93q-37 -38 -93 -38q-55 0 -93 38zM58 -262l93 488h219l-146 -488h-166z" />
    <glyph glyph-name="less" unicode="&#x3c;" horiz-adv-x="1270" 
d="M398 582v-9l689 -353v-224l-906 490v172l906 519v-224z" />
    <glyph glyph-name="equal" unicode="=" horiz-adv-x="1270" 
d="M133 272v189h1002v-189h-1002zM133 685v189h1002v-189h-1002z" />
    <glyph glyph-name="greater" unicode="&#x3e;" horiz-adv-x="1270" 
d="M181 1178l906 -519v-172l-906 -490v224l689 353v9l-689 371v224z" />
    <glyph glyph-name="question" unicode="?" horiz-adv-x="1035" 
d="M54 1056q7 177 122 285q122 114 332 114q196 0 320 -105q122 -104 122 -266q0 -217 -210 -343q-96 -57 -131 -106q-35 -48 -35 -126v-61h-207l-1 80q-7 193 193 313q92 55 127 106q37 51 37 128q0 86 -62 140q-62 56 -164 56q-103 0 -166 -58t-70 -157h-207zM379 22
q-38 37 -38 92t38 92t93 37q56 0 94 -37t38 -92t-38 -92t-94 -37q-55 0 -93 37z" />
    <glyph glyph-name="at" unicode="@" horiz-adv-x="1798" 
d="M744 793q-52 -69 -52 -193q0 -122 52 -193q53 -70 144 -70q95 0 151 71t56 192t-56 192q-55 71 -150 71q-92 0 -145 -70zM1501 1237q226 -206 226 -535q0 -241 -102 -384q-103 -144 -280 -144q-89 0 -153 45q-65 46 -77 119h-10q-65 -157 -249 -157q-156 0 -252 117
t-96 307q0 182 96 297q96 114 248 114q80 0 146 -38q66 -39 94 -103h11v121h169v-568q0 -111 107 -111q85 0 138 99q54 103 54 281q0 272 -182 439q-182 166 -476 166q-292 0 -478 -196q-188 -198 -188 -506q0 -323 198 -510q190 -179 502 -179q210 0 313 43v-138
q-134 -44 -320 -44q-379 0 -610 218q-239 226 -239 616q0 372 232 604q232 230 601 230q353 0 577 -203z" />
    <glyph glyph-name="A" unicode="A" horiz-adv-x="1336" 
d="M940 390h-550l-132 -390h-233l521 1443h242l521 -1443h-237zM447 570h436l-215 633h-6z" />
    <glyph glyph-name="B" unicode="B" horiz-adv-x="1279" 
d="M132 0v1443h591q191 0 307 -98q116 -99 116 -262q0 -115 -74 -205q-74 -91 -182 -109v-8q147 -17 237 -113q91 -97 91 -240q0 -191 -131 -299q-131 -109 -362 -109h-593zM356 829h265q146 0 224 58t78 165q0 100 -66 154q-67 54 -189 54h-312v-431zM680 183
q309 0 309 239q0 236 -322 236h-311v-475h324z" />
    <glyph glyph-name="C" unicode="C" horiz-adv-x="1424" 
d="M259 177q-179 201 -179 545q0 342 179 544q179 201 482 201q246 0 414 -138q170 -139 198 -364h-222q-30 139 -136 222q-107 84 -254 84q-197 0 -314 -149q-118 -150 -118 -400q0 -253 117 -401q117 -149 316 -149q150 0 253 73q102 73 136 204h223q-41 -224 -203 -348
q-161 -125 -410 -125q-304 0 -482 201z" />
    <glyph glyph-name="D" unicode="D" horiz-adv-x="1413" 
d="M649 1443q323 0 503 -189t180 -530q0 -342 -180 -533t-503 -191h-517v1443h517zM356 194h272q230 0 353 136q123 137 123 392t-123 392q-123 136 -353 136h-272v-1056z" />
    <glyph glyph-name="E" unicode="E" horiz-adv-x="1146" 
d="M1048 0h-916v1443h916v-193h-692v-422h655v-186h-655v-448h692v-194z" />
    <glyph glyph-name="F" unicode="F" horiz-adv-x="1096" 
d="M132 0v1443h901v-193h-677v-457h620v-189h-620v-604h-224z" />
    <glyph glyph-name="G" unicode="G" horiz-adv-x="1462" 
d="M1375 600q0 -293 -164 -459q-165 -165 -458 -165q-310 0 -491 202q-182 203 -182 550q0 341 181 540q180 199 489 199q241 0 409 -131q167 -131 205 -347h-230q-40 134 -141 208t-242 74q-207 0 -324 -143q-118 -144 -118 -398q0 -259 120 -408q120 -150 326 -150
q175 0 286 102q111 103 113 267v25h-373v181h594v-147z" />
    <glyph glyph-name="H" unicode="H" horiz-adv-x="1454" 
d="M1097 0v639h-741v-639h-224v1443h224v-610h741v610h224v-1443h-224z" />
    <glyph glyph-name="I" unicode="I" horiz-adv-x="490" 
d="M132 0v1443h224v-1443h-224z" />
    <glyph glyph-name="J" unicode="J" horiz-adv-x="1060" 
d="M257 370q2 -90 62 -146q59 -56 153 -56q227 0 227 253v1022h224v-1023q0 -214 -119 -333t-330 -119q-195 0 -316 111t-121 291h220z" />
    <glyph glyph-name="K" unicode="K" horiz-adv-x="1293" 
d="M132 0v1443h224v-687h9l603 687h266l-572 -639l620 -804h-278l-500 650l-148 -169v-481h-224z" />
    <glyph glyph-name="L" unicode="L" horiz-adv-x="1088" 
d="M1028 0h-896v1443h224v-1249h672v-194z" />
    <glyph glyph-name="M" unicode="M" horiz-adv-x="1726" 
d="M1592 0h-205v1062h-7l-435 -1051h-166l-436 1051h-7v-1062h-204v1443h259l467 -1139h8l466 1139h260v-1443z" />
    <glyph glyph-name="N" unicode="N" horiz-adv-x="1443" 
d="M132 0v1443h203l748 -1064h8v1064h218v-1443h-202l-748 1063h-9v-1063h-218z" />
    <glyph glyph-name="O" unicode="O" horiz-adv-x="1513" 
d="M1250 1266q182 -201 182 -545t-182 -545q-182 -200 -494 -200t-494 200q-182 201 -182 545t182 545t494 201q311 0 494 -201zM430 1122q-121 -148 -121 -401q0 -252 121 -400q120 -148 326 -148q205 0 326 148q120 148 120 400q0 253 -120 401q-121 148 -326 148
q-206 0 -326 -148z" />
    <glyph glyph-name="P" unicode="P" horiz-adv-x="1237" 
d="M697 1443q210 0 343 -132t133 -342q0 -211 -135 -344q-135 -132 -348 -132h-334v-493h-224v1443h565zM356 681h282q146 0 226 75q80 76 80 212q0 137 -80 211q-80 75 -226 75h-282v-573z" />
    <glyph glyph-name="Q" unicode="Q" horiz-adv-x="1513" 
d="M1135 -153l-123 172q-114 -43 -256 -43q-312 0 -494 200t-182 545q0 344 182 545t494 201q311 0 494 -201q182 -202 182 -545q0 -412 -251 -607l188 -267h-234zM891 192l-172 243h227l102 -138q154 143 154 424q0 253 -120 401q-121 149 -326 149t-326 -149
q-121 -148 -121 -401q0 -252 121 -400q121 -149 326 -149q70 0 135 20z" />
    <glyph glyph-name="R" unicode="R" horiz-adv-x="1265" 
d="M356 736h322q130 0 201 68q72 68 72 192q0 121 -75 190q-74 69 -204 69h-316v-519zM356 0h-224v1443h567q222 0 352 -120q130 -119 130 -321q0 -147 -74 -257q-75 -111 -206 -155l324 -590h-259l-294 555h-316v-555z" />
    <glyph glyph-name="S" unicode="S" horiz-adv-x="1244" 
d="M289 402q12 -107 107 -172t238 -65q136 0 225 63q88 63 88 160q0 84 -63 137q-63 54 -203 88l-187 45q-388 94 -388 389q0 186 147 303q146 117 378 117q228 0 372 -117q144 -116 149 -303h-218q-10 107 -93 170q-82 61 -213 61q-130 0 -212 -60q-81 -60 -81 -156
q0 -76 61 -125q61 -48 201 -83l159 -39q222 -52 321 -147q98 -94 98 -253q0 -202 -150 -321q-150 -118 -407 -118q-241 0 -390 115q-150 116 -160 311h221z" />
    <glyph glyph-name="T" unicode="T" horiz-adv-x="1222" 
d="M498 0v1250h-450v193h1123v-193h-449v-1250h-224z" />
    <glyph glyph-name="U" unicode="U" horiz-adv-x="1434" 
d="M356 526q0 -158 94 -253q97 -98 266 -98t267 98q94 95 94 253v917h223v-936q0 -237 -156 -382q-160 -149 -428 -149t-428 149q-156 145 -156 382v936h224v-917z" />
    <glyph glyph-name="V" unicode="V" horiz-adv-x="1327" 
d="M540 0l-515 1443h243l393 -1191h6l394 1191h239l-515 -1443h-245z" />
    <glyph glyph-name="W" unicode="W" horiz-adv-x="1923" 
d="M644 0h-212l-389 1443h233l267 -1130h8l305 1130h208l306 -1130h8l267 1130h233l-390 -1443h-211l-312 1088h-10z" />
    <glyph glyph-name="X" unicode="X" horiz-adv-x="1337" 
d="M522 723v7l-474 713h267l356 -558h8l360 558h253l-489 -721v-6l480 -716h-262l-359 550h-7l-364 -550h-248z" />
    <glyph glyph-name="Y" unicode="Y" horiz-adv-x="1293" 
d="M533 0v591l-508 852h250l368 -637h7l368 637h248l-509 -852v-591h-224z" />
    <glyph glyph-name="Z" unicode="Z" horiz-adv-x="1273" 
d="M94 153l790 1089v8h-766v193h1041v-153l-787 -1089v-7h806v-194h-1084v153z" />
    <glyph glyph-name="bracketleft" unicode="[" horiz-adv-x="697" 
d="M679 1444v-164h-287v-1356h300v-164h-509v1684h496z" />
    <glyph glyph-name="backslash" unicode="\" horiz-adv-x="625" 
d="M0 1444h193l432 -1760h-189z" />
    <glyph glyph-name="bracketright" unicode="]" horiz-adv-x="697" 
d="M512 -240h-508v164h301v1356h-288v164h495v-1684z" />
    <glyph glyph-name="asciicircum" unicode="^" horiz-adv-x="926" 
d="M246 818h-199l308 622h215l307 -622h-201l-206 440h-17z" />
    <glyph glyph-name="underscore" unicode="_" horiz-adv-x="838" 
d="M-51 -267v160h941v-160h-941z" />
    <glyph glyph-name="grave" unicode="`" horiz-adv-x="1007" 
d="M543 1255l-262 303h225l215 -303h-178z" />
    <glyph glyph-name="a" unicode="a" horiz-adv-x="1092" 
d="M689 231q81 70 81 177v85l-264 -18q-225 -14 -225 -160q0 -70 56 -111q56 -42 150 -42q121 0 202 69zM164 77q-102 89 -102 234q0 142 107 223q106 81 308 94l293 17v84q0 93 -60 143q-59 49 -168 49q-88 0 -149 -42q-60 -42 -74 -113h-203q5 144 127 239t305 95
q199 0 317 -97q119 -97 119 -258v-745h-207v181h-5q-45 -88 -138 -140t-205 -52q-163 0 -265 88z" />
    <glyph glyph-name="b" unicode="b" horiz-adv-x="1201" 
d="M333 184h-5v-184h-209v1508h217v-602h4q103 191 344 191q206 0 330 -151t124 -403t-124 -403q-125 -151 -332 -151q-244 0 -349 195zM415 811q-80 -103 -80 -268q0 -166 80 -268q81 -102 212 -102t210 101q79 100 79 269t-79 269q-79 101 -210 101t-212 -102z" />
    <glyph glyph-name="c" unicode="c" horiz-adv-x="1089" 
d="M831 715q-16 90 -81 144q-70 58 -178 58q-132 0 -211 -101q-80 -103 -80 -273q0 -174 81 -275q79 -99 211 -99q220 0 260 196h207q-19 -171 -145 -274q-128 -104 -323 -104q-232 0 -371 149q-140 151 -140 407q0 253 139 405t370 152q201 0 331 -114q122 -107 137 -271
h-207z" />
    <glyph glyph-name="d" unicode="d" horiz-adv-x="1200" 
d="M188 141q-127 152 -127 403q0 249 127 402q126 151 329 151q243 0 342 -191h5v602h216v-1508h-210v184h-4q-101 -195 -347 -195q-205 0 -331 152zM363 812q-80 -101 -80 -269q0 -169 80 -269q79 -101 211 -101q131 0 211 102t80 268t-80 268q-81 102 -211 102
q-131 0 -211 -101z" />
    <glyph glyph-name="e" unicode="e" horiz-adv-x="1113" 
d="M368 845q-78 -78 -87 -203h551q-4 127 -78 204t-192 77q-117 0 -194 -78zM1038 318q-23 -146 -153 -239q-130 -92 -313 -92q-236 0 -374 149q-137 148 -137 403t137 408t365 153q224 0 355 -145q131 -144 131 -391v-76h-769v-13q0 -141 81 -226q81 -86 215 -86
q95 0 164 42t91 113h207z" />
    <glyph glyph-name="f" unicode="f" horiz-adv-x="667" 
d="M175 915h-150v171h150v100q0 153 74 222q74 70 238 70q52 0 110 -10v-165q-35 8 -81 8q-67 0 -96 -31q-30 -31 -31 -101v-93h209v-171h-207v-915h-216v915z" />
    <glyph glyph-name="g" unicode="g" horiz-adv-x="1192" 
d="M784 282q80 100 80 264q0 165 -80 266q-81 101 -213 101q-131 0 -210 -100q-78 -100 -78 -267q0 -166 78 -265q79 -98 210 -98q132 0 213 99zM248 -307q-128 84 -144 223h219q18 -63 88 -100t170 -37q129 0 206 63t77 169v179h-5q-101 -187 -345 -187q-204 0 -328 148
q-125 149 -125 396q0 251 125 401q124 149 333 149q240 0 347 -191h4v180h210v-1058q0 -194 -137 -307q-136 -112 -371 -112q-196 0 -324 84z" />
    <glyph glyph-name="h" unicode="h" horiz-adv-x="1195" 
d="M119 1508h215v-605h5q99 195 353 195q179 0 288 -110q108 -110 108 -294v-694h-216v652q0 122 -68 191t-187 69q-126 0 -203 -80q-78 -80 -78 -210v-622h-217v1508z" />
    <glyph glyph-name="i" unicode="i" horiz-adv-x="455" 
d="M118 1086h217v-1086h-217v1086zM137 1278q-37 36 -37 88q0 53 37 89t90 36t90 -36t37 -89q0 -52 -37 -88q-37 -37 -90 -37t-90 37z" />
    <glyph glyph-name="j" unicode="j" horiz-adv-x="455" 
d="M336 -65q0 -325 -353 -325q-43 0 -48 1v172l31 -1q84 0 119 35q34 35 34 119v1150h217v-1151zM138 1278q-37 36 -37 88q0 53 37 89t90 36t90 -36t37 -89q0 -52 -37 -88q-37 -37 -90 -37t-90 37z" />
    <glyph glyph-name="k" unicode="k" horiz-adv-x="1062" 
d="M784 1086h255l-454 -468l470 -618h-250l-375 486l-94 -92v-394h-217v1508h217v-891z" />
    <glyph glyph-name="l" unicode="l" horiz-adv-x="457" 
d="M119 1508h217v-1508h-217v1508z" />
    <glyph glyph-name="m" unicode="m" horiz-adv-x="1740" 
d="M110 1086h207v-184h4q37 91 120 144q82 52 189 52q235 0 304 -211h5q43 98 133 155q91 56 207 56q161 0 257 -98q97 -97 97 -260v-740h-216v688q0 107 -55 165q-56 59 -157 59q-100 0 -163 -67q-64 -67 -64 -171v-674h-213v706q0 94 -56 150q-57 56 -152 56
q-100 0 -165 -70q-65 -69 -65 -176v-666h-217v1086z" />
    <glyph glyph-name="n" unicode="n" horiz-adv-x="1168" 
d="M110 1086h207v-183h4q101 195 353 195q180 0 284 -107q103 -108 103 -295v-696h-217v655q0 124 -63 190q-63 67 -182 67q-123 0 -197 -78q-75 -79 -75 -207v-627h-217v1086z" />
    <glyph glyph-name="o" unicode="o" horiz-adv-x="1152" 
d="M200 137q-139 150 -139 406q0 255 140 406q139 151 374 151t374 -150q139 -151 139 -407t-139 -406q-138 -150 -374 -150t-375 150zM791 266q77 99 77 277t-77 277q-78 100 -216 100t-216 -100t-78 -277t78 -277q78 -99 216 -99t216 99z" />
    <glyph glyph-name="p" unicode="p" horiz-adv-x="1192" 
d="M1003 946q126 -151 126 -403q0 -251 -125 -403q-124 -151 -329 -151q-242 0 -344 189h-4v-533h-217v1441h209v-180h5q46 88 139 139q94 52 207 52q208 0 333 -151zM827 274q80 101 80 269t-80 269t-212 101q-129 0 -209 -102t-81 -268q1 -166 81 -268q79 -102 209 -102
q132 0 212 101z" />
    <glyph glyph-name="q" unicode="q" horiz-adv-x="1192" 
d="M866 906h4v180h210v-1441h-216v533h-5q-101 -189 -345 -189q-204 0 -328 152q-125 151 -125 403q0 251 126 402q125 151 332 151q246 0 347 -191zM783 275q81 102 81 268q0 165 -81 268q-81 102 -212 102t-210 -101q-78 -100 -78 -269t78 -270q79 -100 210 -100t212 102z
" />
    <glyph glyph-name="r" unicode="r" horiz-adv-x="688" 
d="M110 1086h207v-183h4q25 91 96 142q70 52 166 52q45 0 72 -8v-203q-36 14 -95 14q-107 0 -170 -69q-63 -68 -63 -183v-648h-217v1086z" />
    <glyph glyph-name="s" unicode="s" horiz-adv-x="1018" 
d="M209 1010q117 89 304 89q178 0 295 -91q116 -90 120 -232h-204q-7 72 -65 114t-151 42q-92 0 -149 -39q-56 -40 -56 -104q0 -98 169 -139l180 -43q164 -40 232 -106t68 -186q0 -145 -125 -237q-125 -91 -322 -91q-189 0 -310 90q-120 89 -132 237h214q26 -161 239 -161
q101 0 161 39q59 39 59 105q0 52 -36 82q-35 30 -121 52l-194 48q-293 72 -293 298q0 143 117 233z" />
    <glyph glyph-name="t" unicode="t" horiz-adv-x="672" 
d="M391 1330v-244h208v-171h-208v-607q0 -138 133 -138q39 0 74 5v-171q-44 -11 -122 -11q-163 0 -232 68q-69 67 -69 225v629h-150v171h150v244h216z" />
    <glyph glyph-name="u" unicode="u" horiz-adv-x="1168" 
d="M1056 0h-207v186h-4q-97 -198 -351 -198q-178 0 -283 108q-106 108 -106 294v696h217v-655q0 -125 64 -191q64 -65 182 -65q122 0 196 78q75 78 75 207v626h217v-1086z" />
    <glyph glyph-name="v" unicode="v" horiz-adv-x="1052" 
d="M641 0h-231l-392 1086h229l277 -872h5l278 872h225z" />
    <glyph glyph-name="w" unicode="w" horiz-adv-x="1563" 
d="M1237 0h-224l-231 818h-5l-229 -818h-223l-300 1086h216l202 -860h4l230 860h208l231 -860h4l202 860h214z" />
    <glyph glyph-name="x" unicode="x" horiz-adv-x="1032" 
d="M509 403l-244 -403h-235l361 542l-357 544h243l241 -395h5l239 395h238l-358 -536l354 -550h-239l-243 403h-5z" />
    <glyph glyph-name="y" unicode="y" horiz-adv-x="1066" 
d="M131 -389v176q20 -5 69 -5q78 0 123 36q46 37 74 123l17 56l-394 1089h233l279 -888h5l279 888h228l-407 -1136q-70 -195 -161 -270q-90 -75 -257 -75q-54 0 -88 6z" />
    <glyph glyph-name="z" unicode="z" horiz-adv-x="1015" 
d="M88 141l584 769v3h-581v173h828v-149l-570 -760v-4h576v-173h-837v141z" />
    <glyph glyph-name="braceleft" unicode="{" horiz-adv-x="771" 
d="M328 599q189 -18 189 -241v-309q0 -118 52 -168t175 -50h45v-166h-76q-206 0 -304 88q-97 88 -97 275v266q0 118 -38 164t-137 46v219q98 0 137 46q38 46 38 165v232q0 183 97 269t304 86h76v-167h-45q-124 0 -176 -50q-51 -50 -51 -169v-276q0 -215 -189 -233v-27z" />
    <glyph glyph-name="bar" unicode="|" horiz-adv-x="503" 
d="M154 -314v1757h192v-1757h-192z" />
    <glyph glyph-name="braceright" unicode="}" horiz-adv-x="771" 
d="M443 626q-190 18 -190 233v276q0 119 -51 169q-52 50 -176 50h-45v167h76q207 0 304 -86t97 -269v-232q0 -119 38 -165q39 -46 137 -46v-219q-99 0 -137 -46t-38 -164v-266q0 -187 -97 -275t-304 -88h-76v166h45q123 0 175 50t52 168v309q0 223 190 241v27z" />
    <glyph glyph-name="asciitilde" unicode="~" horiz-adv-x="1225" 
d="M417 726q-123 0 -132 -179h-184q-4 172 79 273q84 100 231 100q125 0 252 -127q90 -93 151 -93q124 0 132 179h184q4 -173 -80 -273q-83 -100 -230 -100q-126 0 -250 126q-93 94 -153 94z" />
    <glyph glyph-name="uni00A0" unicode="&#xa0;" horiz-adv-x="472" 
 />
    <glyph glyph-name="exclamdown" unicode="&#xa1;" horiz-adv-x="583" 
d="M195 630h191l16 -965h-223zM197 904q-38 37 -38 91q0 55 38 93q38 37 93 37q56 0 94 -37q38 -38 38 -93q0 -54 -38 -91q-38 -38 -94 -38q-55 0 -93 38z" />
    <glyph glyph-name="cent" unicode="&#xa2;" horiz-adv-x="1270" 
d="M1155 539q-16 -153 -128 -257q-112 -105 -281 -125v-174h-198v177q-199 33 -317 183t-118 374q0 221 119 370q117 149 316 181v177h198v-174q168 -21 283 -130q116 -110 126 -258h-209q-19 97 -98 155q-79 57 -194 57q-142 0 -231 -105q-90 -105 -90 -273q0 -170 90 -277
t231 -107q253 0 292 206h209z" />
    <glyph glyph-name="sterling" unicode="&#xa3;" horiz-adv-x="1270" 
d="M1184 188v-188h-1084v181q133 26 220 123q86 96 86 218q0 54 -17 124h-288v167h231q-61 160 -61 256q0 193 141 301q140 108 391 108q195 0 311 -52v-187q-104 53 -291 53q-153 0 -239 -62q-86 -63 -86 -174q0 -91 55 -243h450v-167h-396q14 -65 14 -113
q0 -221 -197 -340v-5h760z" />
    <glyph glyph-name="currency" unicode="&#xa4;" horiz-adv-x="1279" 
d="M461 475q75 -75 179 -75t178 75q74 74 74 178t-74 179t-178 75t-179 -75t-75 -179t75 -178zM987 874q64 -102 64 -221q0 -120 -65 -221l162 -162l-128 -127l-161 161q-101 -63 -219 -63q-120 0 -221 65l-162 -163l-128 127l162 163q-64 102 -64 220q0 119 64 221
l-162 162l128 127l162 -161q102 64 221 64q118 0 220 -64l160 161l128 -127z" />
    <glyph glyph-name="yen" unicode="&#xa5;" horiz-adv-x="1270" 
d="M747 248v-248h-224v248h-275v147h275v155h-275v147h213l-447 746h249l368 -635h7l367 635h249l-445 -746h212v-147h-274v-155h274v-147h-274z" />
    <glyph glyph-name="brokenbar" unicode="&#xa6;" horiz-adv-x="504" 
d="M155 774v669h192v-669h-192zM155 -314v669h192v-669h-192z" />
    <glyph glyph-name="section" unicode="&#xa7;" horiz-adv-x="990" 
d="M526 393q80 3 135 53t55 121q0 119 -160 158l-92 24q-79 -3 -135 -54t-56 -120q0 -119 161 -157zM204 -180q-117 86 -126 224h204q9 -64 71 -104q61 -39 151 -39q93 0 151 41q58 40 58 106q0 98 -180 148l-153 46q-163 46 -237 116q-75 70 -75 176q0 95 58 164
q59 70 163 100v17q-215 89 -215 273q0 144 115 233q114 88 300 88q173 0 283 -82q111 -81 126 -220h-201q-9 61 -66 98q-58 37 -145 37q-92 0 -149 -40q-56 -41 -56 -107q0 -98 177 -149l152 -45q161 -47 236 -116q74 -68 74 -170q0 -101 -68 -179t-178 -102v-17
q243 -67 243 -260q0 -143 -117 -234q-117 -90 -303 -90q-177 0 -293 87z" />
    <glyph glyph-name="dieresis" unicode="&#xa8;" horiz-adv-x="1006" 
d="M215 1295q-35 35 -35 84t35 84q36 35 86 35t85 -35q35 -34 35 -84q0 -49 -35 -84t-85 -35t-86 35zM618 1295q-35 35 -35 84t35 84q36 35 86 35t85 -35q35 -34 35 -84q0 -49 -35 -84t-85 -35t-86 35z" />
    <glyph glyph-name="copyright" unicode="&#xa9;" horiz-adv-x="1703" 
d="M289 70q-230 229 -230 565t230 565q228 227 561 227q335 0 563 -227q229 -228 229 -565q0 -336 -229 -565q-229 -228 -563 -228q-333 0 -561 228zM1306 176q186 185 186 459t-186 459q-184 184 -456 184q-270 0 -455 -184q-187 -185 -187 -459q0 -273 187 -459
q185 -185 455 -185q271 0 456 185zM1068 765q-16 65 -66 104q-55 42 -135 42q-104 0 -165 -73q-62 -74 -62 -202q0 -129 62 -204q61 -74 165 -74q167 0 201 141h156q-17 -125 -110 -200q-96 -78 -246 -78q-180 0 -285 112q-106 111 -106 303q0 189 106 301q105 111 283 111
q150 0 248 -82q93 -77 110 -201h-156z" />
    <glyph glyph-name="ordfeminine" unicode="&#xaa;" horiz-adv-x="914" 
d="M328 766q39 -32 107 -32q83 0 139 50q55 50 55 126v77l-185 -13q-155 -12 -155 -120q0 -55 39 -88zM173 658q-75 71 -75 187q0 113 82 179t238 76l209 13v69q0 59 -42 92t-116 33q-135 0 -155 -91h-185q10 113 103 180q93 66 243 66q158 0 249 -76q90 -76 90 -209v-571
h-181v107h-13q-83 -127 -251 -127q-121 0 -196 72z" />
    <glyph glyph-name="guillemotleft" unicode="&#xab;" horiz-adv-x="1322" 
d="M844 559l349 -412h-229l-348 414v8l349 415h228l-349 -412v-13zM354 559l349 -412h-229l-348 414v8l349 415h228l-349 -412v-13z" />
    <glyph glyph-name="logicalnot" unicode="&#xac;" horiz-adv-x="1270" 
d="M1125 104h-186v385h-796v184h982v-569z" />
    <glyph glyph-name="registered" unicode="&#xae;" horiz-adv-x="1093" 
d="M224 762q-132 130 -132 317q0 186 132 317q132 130 321 130q190 0 322 -130t132 -317t-132 -317t-322 -130q-188 0 -321 130zM789 836q99 100 99 243t-99 243q-100 99 -244 99q-143 0 -242 -99q-100 -100 -100 -243t100 -243q99 -100 242 -100q144 0 244 100zM366 881
v420h211q68 0 110 -36t42 -94q0 -105 -95 -125l116 -165h-121l-98 151h-67v-151h-98zM464 1106h93q67 0 67 60q0 55 -65 55h-95v-115z" />
    <glyph glyph-name="macron" unicode="&#xaf;" horiz-adv-x="1000" 
d="M822 1312h-646v119h646v-119z" />
    <glyph glyph-name="degree" unicode="&#xb0;" horiz-adv-x="728" 
d="M156 930q-84 84 -84 206t84 206q84 85 206 85t207 -85q85 -84 85 -206t-85 -206q-85 -85 -207 -85q-121 0 -206 85zM468 1032q43 43 43 104q0 62 -43 106q-43 43 -105 43q-60 0 -104 -43q-45 -44 -45 -106q0 -60 45 -104q44 -44 104 -44q62 0 105 44z" />
    <glyph glyph-name="plusminus" unicode="&#xb1;" horiz-adv-x="1270" 
d="M129 99v173h1010v-173h-1010zM726 386h-184v272h-413v165h413v272h184v-272h413v-165h-413v-272z" />
    <glyph glyph-name="uni00B2" unicode="&#xb2;" horiz-adv-x="635" 
d="M39 1591q0 104 76 168q75 64 198 64q118 0 192 -57q73 -56 73 -148q0 -98 -128 -214l-158 -144v-3h294v-143h-536v124l273 247q74 73 74 120q0 35 -26 57q-25 22 -66 22t-68 -27q-27 -26 -27 -66v-4h-171v4z" />
    <glyph glyph-name="uni00B3" unicode="&#xb3;" horiz-adv-x="662" 
d="M238 1530h85q42 0 67 22t25 57q0 76 -94 76q-43 0 -70 -23q-27 -24 -29 -63h-168q1 101 75 163q75 61 198 61q118 0 190 -52q72 -51 72 -136q0 -61 -39 -105q-39 -43 -105 -55v-4q79 -7 124 -52q45 -44 45 -113q0 -95 -79 -153q-80 -57 -212 -57q-124 0 -201 62t-81 165
h177q6 -81 106 -81q45 0 73 22q28 23 28 58q0 82 -103 82h-84v126z" />
    <glyph glyph-name="acute" unicode="&#xb4;" horiz-adv-x="1007" 
d="M283 1255l215 303h225l-262 -303h-178z" />
    <glyph glyph-name="paragraph" unicode="&#xb6;" horiz-adv-x="1299" 
d="M607 -233v765h-20q-210 0 -351 128q-141 129 -141 321q0 200 141 332q140 130 352 130h235v-1676h-216zM978 1443h216v-1676h-216v1676z" />
    <glyph glyph-name="periodcentered" unicode="&#xb7;" horiz-adv-x="560" 
d="M186 520q-38 38 -38 93t38 93t93 38q56 0 93 -38q38 -37 38 -93q0 -55 -38 -93t-93 -38t-93 38z" />
    <glyph glyph-name="cedilla" unicode="&#xb8;" horiz-adv-x="1007" 
d="M363 -146l63 155l122 -9l-51 -132q200 0 200 -154q0 -80 -62 -130q-63 -49 -164 -50q-85 -2 -145 17v105q37 -14 118 -14q115 0 115 66q0 63 -141 63h-55v83z" />
    <glyph glyph-name="uni00B9" unicode="&#xb9;" horiz-adv-x="516" 
d="M242 1647h-3l-176 -119v159l176 118h183v-691h-180v533z" />
    <glyph glyph-name="ordmasculine" unicode="&#xba;" horiz-adv-x="981" 
d="M338 810q54 -73 152 -73t151 74q53 73 53 208q0 134 -53 207t-151 73t-151 -73q-54 -74 -54 -208t53 -208zM194 696q-108 117 -108 322t108 323t296 118t295 -118q108 -117 108 -322q0 -206 -107 -323q-108 -117 -296 -117q-189 0 -296 117z" />
    <glyph glyph-name="guillemotright" unicode="&#xbb;" horiz-adv-x="1321" 
d="M126 984h228l349 -415v-8l-347 -414h-230l349 412v13zM616 984h228l349 -415v-8l-347 -414h-230l349 412v13z" />
    <glyph glyph-name="onequarter" unicode="&#xbc;" horiz-adv-x="1521" 
d="M1224 108h-341v156q81 156 259 427h259v-438h85v-145h-85v-108h-177v108zM1040 246h189v320h-3q-125 -199 -186 -317v-3zM252 1286h-3l-176 -119v159l176 118h183v-691h-180v533zM98 0l1055 1443h202l-1053 -1443h-204z" />
    <glyph glyph-name="onehalf" unicode="&#xbd;" horiz-adv-x="1520" 
d="M938 477q0 104 76 168q75 64 198 64q118 0 192 -57q73 -56 73 -148q0 -98 -128 -214l-158 -144v-3h294v-143h-536v124l273 247q74 73 74 120q0 35 -26 57q-25 22 -66 22t-68 -27q-27 -26 -27 -66v-4h-171v4zM252 1286h-3l-176 -119v159l176 118h183v-691h-180v533zM98 0
l1055 1443h202l-1053 -1443h-204z" />
    <glyph glyph-name="threequarters" unicode="&#xbe;" horiz-adv-x="1623" 
d="M238 1169h85q42 0 67 22t25 57q0 76 -94 76q-43 0 -70 -23q-27 -24 -29 -63h-168q1 101 75 163q75 61 198 61q118 0 190 -52q72 -51 72 -136q0 -61 -39 -105q-39 -43 -105 -55v-4q79 -7 124 -52q45 -44 45 -113q0 -95 -79 -153q-80 -57 -212 -57q-124 0 -201 62t-81 165
h177q6 -81 106 -81q45 0 73 22q28 23 28 58q0 82 -103 82h-84v126zM1327 108h-341v156q81 156 259 427h259v-438h85v-145h-85v-108h-177v108zM1143 246h189v320h-3q-125 -199 -186 -317v-3zM206 0l1055 1443h202l-1053 -1443h-204z" />
    <glyph glyph-name="questiondown" unicode="&#xbf;" horiz-adv-x="1035" 
d="M979 49q-7 -177 -122 -285q-122 -114 -331 -114q-198 0 -322 105q-122 104 -122 267q0 216 211 342q96 57 131 106q34 48 34 125v61h207l1 -80q4 -104 -42 -178q-45 -72 -150 -135q-91 -55 -127 -105q-37 -52 -37 -127q0 -87 62 -142q62 -56 164 -56q103 0 166 58
q62 58 69 158h208zM456 904q-38 37 -38 91q0 55 38 93q38 37 94 37t94 -37q38 -38 38 -93q0 -54 -38 -91q-39 -38 -94 -38t-94 38z" />
    <glyph glyph-name="Agrave" unicode="&#xc0;" horiz-adv-x="1336" 
d="M940 390h-550l-132 -390h-233l521 1443h242l521 -1443h-237zM447 570h436l-215 633h-6zM300 1856h225l231 -303h-176z" />
    <glyph glyph-name="Aacute" unicode="&#xc1;" horiz-adv-x="1336" 
d="M940 390h-550l-132 -390h-233l521 1443h242l521 -1443h-237zM447 570h436l-215 633h-6zM579 1551l231 303h225l-280 -303h-176z" />
    <glyph glyph-name="Acircumflex" unicode="&#xc2;" horiz-adv-x="1336" 
d="M940 390h-550l-132 -390h-233l521 1443h242l521 -1443h-237zM447 570h436l-215 633h-6zM753 1853l286 -306h-188l-182 200h-4l-182 -200h-188l286 306h172z" />
    <glyph glyph-name="Atilde" unicode="&#xc3;" horiz-adv-x="1336" 
d="M940 390h-550l-132 -390h-233l521 1443h242l521 -1443h-237zM447 570h436l-215 633h-6zM653 1610q-74 73 -106 73q-67 0 -69 -130h-129q0 120 52 189q51 68 139 68q78 0 153 -73t103 -73q63 0 63 132h130q0 -118 -53 -189q-52 -70 -136 -70q-73 0 -147 73z" />
    <glyph glyph-name="Adieresis" unicode="&#xc4;" horiz-adv-x="1336" 
d="M940 390h-550l-132 -390h-233l521 1443h242l521 -1443h-237zM447 570h436l-215 633h-6zM380 1611q-35 35 -35 84t35 84q36 35 86 35t85 -35q35 -34 35 -84q0 -49 -35 -84t-85 -35t-86 35zM783 1611q-35 35 -35 84t35 84q36 35 86 35t85 -35q35 -34 35 -84q0 -49 -35 -84
t-85 -35t-86 35z" />
    <glyph glyph-name="Aring" unicode="&#xc5;" horiz-adv-x="1336" 
d="M940 390h-550l-132 -390h-233l521 1443h242l521 -1443h-237zM447 570h436l-215 633h-6zM521 1570q-61 60 -61 144q0 85 61 145q61 61 146 61t146 -61q61 -60 61 -145q0 -84 -61 -144q-61 -61 -146 -61t-146 61zM745 1637q33 32 33 77q0 46 -33 78q-32 33 -78 33t-78 -33
q-33 -32 -33 -78q0 -45 33 -77q32 -33 78 -33t78 33z" />
    <glyph glyph-name="AE" unicode="&#xc6;" horiz-adv-x="1997" 
d="M514 607h449v656h-151zM963 428h-527l-196 -428h-227l661 1443h1189v-193h-685v-430h648v-186h-648v-441h685v-193h-900v428z" />
    <glyph glyph-name="Ccedilla" unicode="&#xc7;" horiz-adv-x="1424" 
d="M1354 449q-38 -208 -182 -331t-366 -140l-43 -110q200 0 200 -154q0 -80 -62 -130q-63 -49 -164 -50q-85 -2 -145 17v105q37 -14 118 -14q115 0 115 66q0 63 -141 63h-55v83l51 124q-278 21 -439 219q-161 199 -161 525q0 342 179 544q179 201 482 201q246 0 414 -138
q170 -139 198 -364h-222q-30 139 -136 222q-107 84 -254 84q-197 0 -314 -149q-118 -150 -118 -400q0 -253 117 -401q117 -149 316 -149q150 0 253 73q102 73 136 204h223z" />
    <glyph glyph-name="Egrave" unicode="&#xc8;" horiz-adv-x="1146" 
d="M223 1856h225l231 -303h-176zM1048 0h-916v1443h916v-193h-692v-422h655v-186h-655v-448h692v-194z" />
    <glyph glyph-name="Eacute" unicode="&#xc9;" horiz-adv-x="1146" 
d="M502 1551l231 303h225l-280 -303h-176zM1048 0h-916v1443h916v-193h-692v-422h655v-186h-655v-448h692v-194z" />
    <glyph glyph-name="Ecircumflex" unicode="&#xca;" horiz-adv-x="1146" 
d="M676 1853l286 -306h-188l-182 200h-4l-182 -200h-188l286 306h172zM1048 0h-916v1443h916v-193h-692v-422h655v-186h-655v-448h692v-194z" />
    <glyph glyph-name="Edieresis" unicode="&#xcb;" horiz-adv-x="1146" 
d="M303 1611q-35 35 -35 84t35 84q36 35 86 35t85 -35q35 -34 35 -84q0 -49 -35 -84t-85 -35t-86 35zM706 1611q-35 35 -35 84t35 84q36 35 86 35t85 -35q35 -34 35 -84q0 -49 -35 -84t-85 -35t-86 35zM1048 0h-916v1443h916v-193h-692v-422h655v-186h-655v-448h692v-194z
" />
    <glyph glyph-name="Igrave" unicode="&#xcc;" horiz-adv-x="490" 
d="M133 0v1443h224v-1443h-224zM-122 1856h225l231 -303h-176z" />
    <glyph glyph-name="Iacute" unicode="&#xcd;" horiz-adv-x="490" 
d="M132 0v1443h224v-1443h-224zM156 1551l231 303h225l-280 -303h-176z" />
    <glyph glyph-name="Icircumflex" unicode="&#xce;" horiz-adv-x="490" 
d="M133 0v1443h224v-1443h-224zM331 1853l286 -306h-188l-182 200h-4l-182 -200h-188l286 306h172z" />
    <glyph glyph-name="Idieresis" unicode="&#xcf;" horiz-adv-x="490" 
d="M133 0v1443h224v-1443h-224zM-42 1611q-35 35 -35 84t35 84q36 35 86 35t85 -35q35 -34 35 -84q0 -49 -35 -84t-85 -35t-86 35zM361 1611q-35 35 -35 84t35 84q36 35 86 35t85 -35q35 -34 35 -84q0 -49 -35 -84t-85 -35t-86 35z" />
    <glyph glyph-name="Eth" unicode="&#xd0;" horiz-adv-x="1462" 
d="M628 194q230 0 353 136q123 137 123 392t-123 392q-123 136 -353 136h-272v-418h272v-184h-272v-454h272zM649 1443q323 0 503 -189t180 -530q0 -342 -180 -533t-503 -191h-517v648h-114v184h114v611h517z" />
    <glyph glyph-name="Ntilde" unicode="&#xd1;" horiz-adv-x="1443" 
d="M707 1610q-74 73 -106 73q-67 0 -69 -130h-129q0 120 52 189q51 68 139 68q78 0 153 -73t103 -73q63 0 63 132h130q0 -118 -53 -189q-52 -70 -136 -70q-73 0 -147 73zM132 0v1443h203l748 -1064h8v1064h218v-1443h-202l-748 1063h-9v-1063h-218z" />
    <glyph glyph-name="Ograve" unicode="&#xd2;" horiz-adv-x="1513" 
d="M389 1856h225l231 -303h-176zM1250 1266q182 -201 182 -545t-182 -545q-182 -200 -494 -200t-494 200q-182 201 -182 545t182 545t494 201q311 0 494 -201zM430 1122q-121 -148 -121 -401q0 -252 121 -400q120 -148 326 -148q205 0 326 148q120 148 120 400
q0 253 -120 401q-121 148 -326 148q-206 0 -326 -148z" />
    <glyph glyph-name="Oacute" unicode="&#xd3;" horiz-adv-x="1513" 
d="M668 1551l231 303h225l-280 -303h-176zM1250 1266q182 -201 182 -545t-182 -545q-182 -200 -494 -200t-494 200q-182 201 -182 545t182 545t494 201q311 0 494 -201zM430 1122q-121 -148 -121 -401q0 -252 121 -400q120 -148 326 -148q205 0 326 148q120 148 120 400
q0 253 -120 401q-121 148 -326 148q-206 0 -326 -148z" />
    <glyph glyph-name="Ocircumflex" unicode="&#xd4;" horiz-adv-x="1513" 
d="M842 1853l286 -306h-188l-182 200h-4l-182 -200h-188l286 306h172zM1250 1266q182 -201 182 -545t-182 -545q-182 -200 -494 -200t-494 200q-182 201 -182 545t182 545t494 201q311 0 494 -201zM430 1122q-121 -148 -121 -401q0 -252 121 -400q120 -148 326 -148
q205 0 326 148q120 148 120 400q0 253 -120 401q-121 148 -326 148q-206 0 -326 -148z" />
    <glyph glyph-name="Otilde" unicode="&#xd5;" horiz-adv-x="1513" 
d="M1250 1266q182 -201 182 -545t-182 -545q-182 -200 -494 -200t-494 200q-182 201 -182 545t182 545t494 201q311 0 494 -201zM430 1122q-121 -148 -121 -401q0 -252 121 -400q120 -148 326 -148q205 0 326 148q120 148 120 400q0 253 -120 401q-121 148 -326 148
q-206 0 -326 -148zM742 1610q-74 73 -106 73q-67 0 -69 -130h-129q0 120 52 189q51 68 139 68q78 0 153 -73t103 -73q63 0 63 132h130q0 -118 -53 -189q-52 -70 -136 -70q-73 0 -147 73z" />
    <glyph glyph-name="Odieresis" unicode="&#xd6;" horiz-adv-x="1513" 
d="M469 1611q-35 35 -35 84t35 84q36 35 86 35t85 -35q35 -34 35 -84q0 -49 -35 -84t-85 -35t-86 35zM872 1611q-35 35 -35 84t35 84q36 35 86 35t85 -35q35 -34 35 -84q0 -49 -35 -84t-85 -35t-86 35zM1250 1266q182 -201 182 -545t-182 -545q-182 -200 -494 -200t-494 200
q-182 201 -182 545t182 545t494 201q311 0 494 -201zM430 1122q-121 -148 -121 -401q0 -252 121 -400q120 -148 326 -148q205 0 326 148q120 148 120 400q0 253 -120 401q-121 148 -326 148q-206 0 -326 -148z" />
    <glyph glyph-name="multiply" unicode="&#xd7;" horiz-adv-x="1271" 
d="M328 145l-130 130l306 306l-306 307l130 130l307 -306l306 306l129 -130l-305 -307l305 -306l-129 -130l-306 306z" />
    <glyph glyph-name="Oslash" unicode="&#xd8;" horiz-adv-x="1513" 
d="M508 248q104 -75 248 -75q205 0 326 148q120 148 120 400q0 216 -89 357zM1033 1173q-112 97 -277 97q-206 0 -326 -148q-121 -148 -121 -401q0 -240 110 -386zM1250 1266q182 -201 182 -545t-182 -545q-182 -200 -494 -200q-215 0 -374 99l-94 -129l-101 73l98 134
q-205 202 -205 568q0 344 182 545t494 201q238 0 404 -120l108 147l101 -65z" />
    <glyph glyph-name="Ugrave" unicode="&#xd9;" horiz-adv-x="1434" 
d="M349 1856h225l231 -303h-176zM356 526q0 -158 94 -253q97 -98 266 -98t267 98q94 95 94 253v917h223v-936q0 -237 -156 -382q-160 -149 -428 -149t-428 149q-156 145 -156 382v936h224v-917z" />
    <glyph glyph-name="Uacute" unicode="&#xda;" horiz-adv-x="1434" 
d="M628 1551l231 303h225l-280 -303h-176zM356 526q0 -158 94 -253q97 -98 266 -98t267 98q94 95 94 253v917h223v-936q0 -237 -156 -382q-160 -149 -428 -149t-428 149q-156 145 -156 382v936h224v-917z" />
    <glyph glyph-name="Ucircumflex" unicode="&#xdb;" horiz-adv-x="1434" 
d="M802 1853l286 -306h-188l-182 200h-4l-182 -200h-188l286 306h172zM356 526q0 -158 94 -253q97 -98 266 -98t267 98q94 95 94 253v917h223v-936q0 -237 -156 -382q-160 -149 -428 -149t-428 149q-156 145 -156 382v936h224v-917z" />
    <glyph glyph-name="Udieresis" unicode="&#xdc;" horiz-adv-x="1434" 
d="M429 1611q-35 35 -35 84t35 84q36 35 86 35t85 -35q35 -34 35 -84q0 -49 -35 -84t-85 -35t-86 35zM832 1611q-35 35 -35 84t35 84q36 35 86 35t85 -35q35 -34 35 -84q0 -49 -35 -84t-85 -35t-86 35zM356 526q0 -158 94 -253q97 -98 266 -98t267 98q94 95 94 253v917h223
v-936q0 -237 -156 -382q-160 -149 -428 -149t-428 149q-156 145 -156 382v936h224v-917z" />
    <glyph glyph-name="Yacute" unicode="&#xdd;" horiz-adv-x="1293" 
d="M533 0v591l-508 852h250l368 -637h7l368 637h248l-509 -852v-591h-224zM557 1551l231 303h225l-280 -303h-176z" />
    <glyph glyph-name="Thorn" unicode="&#xde;" horiz-adv-x="1267" 
d="M380 1443v-255h350q186 0 310 -113q131 -120 131 -317t-133 -318q-126 -114 -315 -114h-343v-326h-224v1443h224zM380 514h287q125 0 198 61q77 64 77 183q0 118 -77 181q-73 60 -198 60h-287v-485z" />
    <glyph glyph-name="germandbls" unicode="&#xdf;" horiz-adv-x="1282" 
d="M169 0v1094q0 181 122 289q121 108 326 108q196 0 319 -105q124 -105 124 -271q0 -125 -61 -217q-60 -91 -164 -122v-7q157 -19 247 -118q89 -98 89 -251q0 -188 -127 -301t-339 -113q-98 0 -157 14v181q53 -15 131 -15q127 0 201 66q75 65 75 176q0 118 -84 183
q-83 66 -232 66h-65v195h50q106 0 167 64q60 63 60 176q0 97 -64 157q-63 60 -166 60q-113 0 -176 -65q-62 -65 -62 -182v-1062h-214z" />
    <glyph glyph-name="agrave" unicode="&#xe0;" horiz-adv-x="1092" 
d="M689 231q81 70 81 177v85l-264 -18q-225 -14 -225 -160q0 -70 56 -111q56 -42 150 -42q121 0 202 69zM164 77q-102 89 -102 234q0 142 107 223q106 81 308 94l293 17v84q0 93 -60 143q-59 49 -168 49q-88 0 -149 -42q-60 -42 -74 -113h-203q5 144 127 239t305 95
q199 0 317 -97q119 -97 119 -258v-745h-207v181h-5q-45 -88 -138 -140t-205 -52q-163 0 -265 88zM451 1255l-262 303h225l215 -303h-178z" />
    <glyph glyph-name="aacute" unicode="&#xe1;" horiz-adv-x="1092" 
d="M689 231q81 70 81 177v85l-264 -18q-225 -14 -225 -160q0 -70 56 -111q56 -42 150 -42q121 0 202 69zM164 77q-102 89 -102 234q0 142 107 223q106 81 308 94l293 17v84q0 93 -60 143q-59 49 -168 49q-88 0 -149 -42q-60 -42 -74 -113h-203q5 144 127 239t305 95
q199 0 317 -97q119 -97 119 -258v-745h-207v181h-5q-45 -88 -138 -140t-205 -52q-163 0 -265 88zM453 1255l215 303h225l-262 -303h-178z" />
    <glyph glyph-name="acircumflex" unicode="&#xe2;" horiz-adv-x="1092" 
d="M689 231q81 70 81 177v85l-264 -18q-225 -14 -225 -160q0 -70 56 -111q56 -42 150 -42q121 0 202 69zM164 77q-102 89 -102 234q0 142 107 223q106 81 308 94l293 17v84q0 93 -60 143q-59 49 -168 49q-88 0 -149 -42q-60 -42 -74 -113h-203q5 144 127 239t305 95
q199 0 317 -97q119 -97 119 -258v-745h-207v181h-5q-45 -88 -138 -140t-205 -52q-163 0 -265 88zM896 1251h-185l-164 194h-6l-164 -194h-185l273 307h158z" />
    <glyph glyph-name="atilde" unicode="&#xe3;" horiz-adv-x="1092" 
d="M689 231q81 70 81 177v85l-264 -18q-225 -14 -225 -160q0 -70 56 -111q56 -42 150 -42q121 0 202 69zM164 77q-102 89 -102 234q0 142 107 223q106 81 308 94l293 17v84q0 93 -60 143q-59 49 -168 49q-88 0 -149 -42q-60 -42 -74 -113h-203q5 144 127 239t305 95
q199 0 317 -97q119 -97 119 -258v-745h-207v181h-5q-45 -88 -138 -140t-205 -52q-163 0 -265 88zM533 1331q-74 73 -106 73q-67 0 -69 -130h-129q0 120 52 189q51 68 139 68q78 0 153 -73t103 -73q63 0 63 132h130q0 -118 -53 -189q-52 -70 -136 -70q-73 0 -147 73z" />
    <glyph glyph-name="adieresis" unicode="&#xe4;" horiz-adv-x="1092" 
d="M689 231q81 70 81 177v85l-264 -18q-225 -14 -225 -160q0 -70 56 -111q56 -42 150 -42q121 0 202 69zM164 77q-102 89 -102 234q0 142 107 223q106 81 308 94l293 17v84q0 93 -60 143q-59 49 -168 49q-88 0 -149 -42q-60 -42 -74 -113h-203q5 144 127 239t305 95
q199 0 317 -97q119 -97 119 -258v-745h-207v181h-5q-45 -88 -138 -140t-205 -52q-163 0 -265 88zM257 1295q-35 35 -35 84t35 84q36 35 86 35t85 -35q35 -34 35 -84q0 -49 -35 -84t-85 -35t-86 35zM660 1295q-35 35 -35 84t35 84q36 35 86 35t85 -35q35 -34 35 -84
q0 -49 -35 -84t-85 -35t-86 35z" />
    <glyph glyph-name="aring" unicode="&#xe5;" horiz-adv-x="1092" 
d="M689 231q81 70 81 177v85l-264 -18q-225 -14 -225 -160q0 -70 56 -111q56 -42 150 -42q121 0 202 69zM164 77q-102 89 -102 234q0 142 107 223q106 81 308 94l293 17v84q0 93 -60 143q-59 49 -168 49q-88 0 -149 -42q-60 -42 -74 -113h-203q5 144 127 239t305 95
q199 0 317 -97q119 -97 119 -258v-745h-207v181h-5q-45 -88 -138 -140t-205 -52q-163 0 -265 88zM398 1254q-61 60 -61 144q0 85 61 145q61 61 146 61t146 -61q61 -60 61 -145q0 -84 -61 -144q-61 -61 -146 -61t-146 61zM622 1321q33 32 33 77q0 46 -33 78q-32 33 -78 33
t-78 -33q-33 -32 -33 -78q0 -45 33 -77q32 -33 78 -33t78 33z" />
    <glyph glyph-name="ae" unicode="&#xe6;" horiz-adv-x="1796" 
d="M875 204h-9q-131 -215 -406 -215q-181 0 -290 87q-108 87 -108 231q0 143 107 225q107 83 307 93l293 15v74q0 92 -65 150q-64 57 -168 57q-97 0 -156 -42q-60 -42 -67 -113h-206q9 148 125 240q117 94 298 94q133 0 231 -52q97 -52 138 -145h8q115 197 362 197
q213 0 339 -145q125 -145 125 -391v-75h-755v-14q0 -142 80 -227t214 -85q192 0 242 155h207q-24 -149 -149 -240t-304 -91q-281 0 -393 217zM1064 846q-76 -77 -85 -204h536q-3 130 -73 205q-69 76 -185 76q-117 0 -193 -77zM685 233q84 71 84 175v80l-266 -15
q-222 -12 -222 -158q0 -70 54 -111q54 -42 144 -42q122 0 206 71z" />
    <glyph glyph-name="ccedilla" unicode="&#xe7;" horiz-adv-x="1089" 
d="M1040 365q-17 -155 -125 -256q-107 -100 -275 -118l-47 -123q200 0 200 -154q0 -80 -62 -130q-63 -49 -164 -50q-85 -2 -145 17v105q37 -14 118 -14q115 0 115 66q0 63 -141 63h-55v83l55 136q-208 19 -330 165q-123 149 -123 388q0 253 139 405t370 152q201 0 331 -114
q122 -107 137 -271h-207q-16 90 -81 144q-70 58 -178 58q-132 0 -211 -101q-80 -103 -80 -273q0 -174 81 -275q79 -99 211 -99q220 0 260 196h207z" />
    <glyph glyph-name="egrave" unicode="&#xe8;" horiz-adv-x="1113" 
d="M470 1255l-262 303h225l215 -303h-178zM368 845q-78 -78 -87 -203h551q-4 127 -78 204t-192 77q-117 0 -194 -78zM1038 318q-23 -146 -153 -239q-130 -92 -313 -92q-236 0 -374 149q-137 148 -137 403t137 408t365 153q224 0 355 -145q131 -144 131 -391v-76h-769v-13
q0 -141 81 -226q81 -86 215 -86q95 0 164 42t91 113h207z" />
    <glyph glyph-name="eacute" unicode="&#xe9;" horiz-adv-x="1113" 
d="M472 1255l215 303h225l-262 -303h-178zM368 845q-78 -78 -87 -203h551q-4 127 -78 204t-192 77q-117 0 -194 -78zM1038 318q-23 -146 -153 -239q-130 -92 -313 -92q-236 0 -374 149q-137 148 -137 403t137 408t365 153q224 0 355 -145q131 -144 131 -391v-76h-769v-13
q0 -141 81 -226q81 -86 215 -86q95 0 164 42t91 113h207z" />
    <glyph glyph-name="ecircumflex" unicode="&#xea;" horiz-adv-x="1113" 
d="M915 1251h-185l-164 194h-6l-164 -194h-185l273 307h158zM368 845q-78 -78 -87 -203h551q-4 127 -78 204t-192 77q-117 0 -194 -78zM1038 318q-23 -146 -153 -239q-130 -92 -313 -92q-236 0 -374 149q-137 148 -137 403t137 408t365 153q224 0 355 -145
q131 -144 131 -391v-76h-769v-13q0 -141 81 -226q81 -86 215 -86q95 0 164 42t91 113h207z" />
    <glyph glyph-name="edieresis" unicode="&#xeb;" horiz-adv-x="1113" 
d="M368 845q-78 -78 -87 -203h551q-4 127 -78 204t-192 77q-117 0 -194 -78zM1038 318q-23 -146 -153 -239q-130 -92 -313 -92q-236 0 -374 149q-137 148 -137 403t137 408t365 153q224 0 355 -145q131 -144 131 -391v-76h-769v-13q0 -141 81 -226q81 -86 215 -86
q95 0 164 42t91 113h207zM276 1295q-35 35 -35 84t35 84q36 35 86 35t85 -35q35 -34 35 -84q0 -49 -35 -84t-85 -35t-86 35zM679 1295q-35 35 -35 84t35 84q36 35 86 35t85 -35q35 -34 35 -84q0 -49 -35 -84t-85 -35t-86 35z" />
    <glyph glyph-name="igrave" unicode="&#xec;" horiz-adv-x="455" 
d="M135 1255l-262 303h225l215 -303h-178zM119 1086h217v-1086h-217v1086z" />
    <glyph glyph-name="iacute" unicode="&#xed;" horiz-adv-x="455" 
d="M136 1255l215 303h225l-262 -303h-178zM118 1086h217v-1086h-217v1086z" />
    <glyph glyph-name="icircumflex" unicode="&#xee;" horiz-adv-x="455" 
d="M580 1251h-185l-164 194h-6l-164 -194h-185l273 307h158zM119 1086h217v-1086h-217v1086z" />
    <glyph glyph-name="idieresis" unicode="&#xef;" horiz-adv-x="455" 
d="M119 1086h217v-1086h-217v1086zM-59 1295q-35 35 -35 84t35 84q36 35 86 35t85 -35q35 -34 35 -84q0 -49 -35 -84t-85 -35t-86 35zM344 1295q-35 35 -35 84t35 84q36 35 86 35t85 -35q35 -34 35 -84q0 -49 -35 -84t-85 -35t-86 35z" />
    <glyph glyph-name="eth" unicode="&#xf0;" horiz-adv-x="1181" 
d="M219 128q-138 147 -138 397q0 241 130 387q128 144 340 144q89 0 172 -44q82 -44 119 -111h15q-46 172 -178 328l-280 -92l-42 123l229 75q-70 74 -214 188h262q76 -62 136 -128l255 84l43 -122l-203 -65q232 -305 232 -710q0 -277 -137 -439q-136 -161 -368 -161
q-235 0 -373 146zM382 785q-79 -97 -79 -261t79 -261q78 -97 212 -97t214 97q79 97 79 261q0 163 -80 261t-213 98t-212 -98z" />
    <glyph glyph-name="ntilde" unicode="&#xf1;" horiz-adv-x="1168" 
d="M574 1331q-74 73 -106 73q-67 0 -69 -130h-129q0 120 52 189q51 68 139 68q78 0 153 -73t103 -73q63 0 63 132h130q0 -118 -53 -189q-52 -70 -136 -70q-73 0 -147 73zM110 1086h207v-183h4q101 195 353 195q180 0 284 -107q103 -108 103 -295v-696h-217v655
q0 124 -63 190q-63 67 -182 67q-123 0 -197 -78q-75 -79 -75 -207v-627h-217v1086z" />
    <glyph glyph-name="ograve" unicode="&#xf2;" horiz-adv-x="1152" 
d="M482 1255l-262 303h225l215 -303h-178zM200 137q-139 150 -139 406q0 255 140 406q139 151 374 151t374 -150q139 -151 139 -407t-139 -406q-138 -150 -374 -150t-375 150zM791 266q77 99 77 277t-77 277q-78 100 -216 100t-216 -100t-78 -277t78 -277q78 -99 216 -99
t216 99z" />
    <glyph glyph-name="oacute" unicode="&#xf3;" horiz-adv-x="1152" 
d="M484 1255l215 303h225l-262 -303h-178zM200 137q-139 150 -139 406q0 255 140 406q139 151 374 151t374 -150q139 -151 139 -407t-139 -406q-138 -150 -374 -150t-375 150zM791 266q77 99 77 277t-77 277q-78 100 -216 100t-216 -100t-78 -277t78 -277q78 -99 216 -99
t216 99z" />
    <glyph glyph-name="ocircumflex" unicode="&#xf4;" horiz-adv-x="1152" 
d="M927 1251h-185l-164 194h-6l-164 -194h-185l273 307h158zM200 137q-139 150 -139 406q0 255 140 406q139 151 374 151t374 -150q139 -151 139 -407t-139 -406q-138 -150 -374 -150t-375 150zM791 266q77 99 77 277t-77 277q-78 100 -216 100t-216 -100t-78 -277t78 -277
q78 -99 216 -99t216 99z" />
    <glyph glyph-name="otilde" unicode="&#xf5;" horiz-adv-x="1152" 
d="M564 1331q-74 73 -106 73q-67 0 -69 -130h-129q0 120 52 189q51 68 139 68q78 0 153 -73t103 -73q63 0 63 132h130q0 -118 -53 -189q-52 -70 -136 -70q-73 0 -147 73zM200 137q-139 150 -139 406q0 255 140 406q139 151 374 151t374 -150q139 -151 139 -407t-139 -406
q-138 -150 -374 -150t-375 150zM791 266q77 99 77 277t-77 277q-78 100 -216 100t-216 -100t-78 -277t78 -277q78 -99 216 -99t216 99z" />
    <glyph glyph-name="odieresis" unicode="&#xf6;" horiz-adv-x="1152" 
d="M288 1295q-35 35 -35 84t35 84q36 35 86 35t85 -35q35 -34 35 -84q0 -49 -35 -84t-85 -35t-86 35zM691 1295q-35 35 -35 84t35 84q36 35 86 35t85 -35q35 -34 35 -84q0 -49 -35 -84t-85 -35t-86 35zM200 137q-139 150 -139 406q0 255 140 406q139 151 374 151t374 -150
q139 -151 139 -407t-139 -406q-138 -150 -374 -150t-375 150zM791 266q77 99 77 277t-77 277q-78 100 -216 100t-216 -100t-78 -277t78 -277q78 -99 216 -99t216 99z" />
    <glyph glyph-name="divide" unicode="&#xf7;" horiz-adv-x="1270" 
d="M534 843q-39 38 -39 99q0 60 39 99q40 38 101 38t100 -38q40 -39 40 -99t-40 -99q-39 -38 -100 -38q-62 0 -101 38zM534 106q-39 38 -39 99q0 60 39 99q40 38 101 38t100 -38q40 -39 40 -99t-40 -99q-39 -38 -100 -38q-62 0 -101 38zM115 487v173h1039v-173h-1039z" />
    <glyph glyph-name="oslash" unicode="&#xf8;" horiz-adv-x="1152" 
d="M429 204q63 -37 146 -37q138 0 216 99q77 99 77 277q0 149 -55 244zM729 878q-67 42 -154 42q-138 0 -216 -100t-78 -277q0 -154 59 -250zM932 967q156 -150 156 -424q0 -256 -139 -406q-138 -150 -374 -150q-141 0 -252 57l-61 -93l-104 67l64 97q-161 150 -161 428
q0 255 140 406q139 151 374 151q150 0 260 -62l65 98l102 -62z" />
    <glyph glyph-name="ugrave" unicode="&#xf9;" horiz-adv-x="1168" 
d="M488 1255l-262 303h225l215 -303h-178zM1056 0h-207v186h-4q-97 -198 -351 -198q-178 0 -283 108q-106 108 -106 294v696h217v-655q0 -125 64 -191q64 -65 182 -65q122 0 196 78q75 78 75 207v626h217v-1086z" />
    <glyph glyph-name="uacute" unicode="&#xfa;" horiz-adv-x="1168" 
d="M490 1255l215 303h225l-262 -303h-178zM1056 0h-207v186h-4q-97 -198 -351 -198q-178 0 -283 108q-106 108 -106 294v696h217v-655q0 -125 64 -191q64 -65 182 -65q122 0 196 78q75 78 75 207v626h217v-1086z" />
    <glyph glyph-name="ucircumflex" unicode="&#xfb;" horiz-adv-x="1168" 
d="M933 1251h-185l-164 194h-6l-164 -194h-185l273 307h158zM1056 0h-207v186h-4q-97 -198 -351 -198q-178 0 -283 108q-106 108 -106 294v696h217v-655q0 -125 64 -191q64 -65 182 -65q122 0 196 78q75 78 75 207v626h217v-1086z" />
    <glyph glyph-name="udieresis" unicode="&#xfc;" horiz-adv-x="1168" 
d="M1056 0h-207v186h-4q-97 -198 -351 -198q-178 0 -283 108q-106 108 -106 294v696h217v-655q0 -125 64 -191q64 -65 182 -65q122 0 196 78q75 78 75 207v626h217v-1086zM294 1295q-35 35 -35 84t35 84q36 35 86 35t85 -35q35 -34 35 -84q0 -49 -35 -84t-85 -35t-86 35z
M697 1295q-35 35 -35 84t35 84q36 35 86 35t85 -35q35 -34 35 -84q0 -49 -35 -84t-85 -35t-86 35z" />
    <glyph glyph-name="yacute" unicode="&#xfd;" horiz-adv-x="1066" 
d="M131 -389v176q20 -5 69 -5q78 0 123 36q46 37 74 123l17 56l-394 1089h233l279 -888h5l279 888h228l-407 -1136q-70 -195 -161 -270q-90 -75 -257 -75q-54 0 -88 6zM442 1255l215 303h225l-262 -303h-178z" />
    <glyph glyph-name="thorn" unicode="&#xfe;" horiz-adv-x="1201" 
d="M1014 953q122 -151 122 -410q0 -257 -122 -409t-328 -152q-247 0 -336 182h-16v-519h-215v1861h209v-600h16q50 93 140 146t201 53q208 0 329 -152zM838 266q77 100 77 277t-77 278q-78 100 -214 100t-215 -102q-79 -101 -79 -276q0 -174 79 -275q79 -102 214 -102
q137 0 215 100z" />
    <glyph glyph-name="ydieresis" unicode="&#xff;" horiz-adv-x="1066" 
d="M131 -389v176q20 -5 69 -5q78 0 123 36q46 37 74 123l17 56l-394 1089h233l279 -888h5l279 888h228l-407 -1136q-70 -195 -161 -270q-90 -75 -257 -75q-54 0 -88 6zM246 1295q-35 35 -35 84t35 84q36 35 86 35t85 -35q35 -34 35 -84q0 -49 -35 -84t-85 -35t-86 35z
M649 1295q-35 35 -35 84t35 84q36 35 86 35t85 -35q35 -34 35 -84q0 -49 -35 -84t-85 -35t-86 35z" />
    <glyph glyph-name="Amacron" unicode="&#x100;" horiz-adv-x="1336" 
d="M940 390h-550l-132 -390h-233l521 1443h242l521 -1443h-237zM447 570h436l-215 633h-6zM994 1636h-654v119h654v-119z" />
    <glyph glyph-name="amacron" unicode="&#x101;" horiz-adv-x="1092" 
d="M689 231q81 70 81 177v85l-264 -18q-225 -14 -225 -160q0 -70 56 -111q56 -42 150 -42q121 0 202 69zM164 77q-102 89 -102 234q0 142 107 223q106 81 308 94l293 17v84q0 93 -60 143q-59 49 -168 49q-88 0 -149 -42q-60 -42 -74 -113h-203q5 144 127 239t305 95
q199 0 317 -97q119 -97 119 -258v-745h-207v181h-5q-45 -88 -138 -140t-205 -52q-163 0 -265 88zM867 1312h-646v119h646v-119z" />
    <glyph glyph-name="Abreve" unicode="&#x102;" horiz-adv-x="1336" 
d="M940 390h-550l-132 -390h-233l521 1443h242l521 -1443h-237zM447 570h436l-215 633h-6zM482 1853q0 -80 52 -134q53 -54 133 -54t133 54q52 54 52 134h140q-1 -134 -90 -219q-90 -87 -235 -87t-235 87q-89 85 -90 219h140z" />
    <glyph glyph-name="abreve" unicode="&#x103;" horiz-adv-x="1092" 
d="M689 231q81 70 81 177v85l-264 -18q-225 -14 -225 -160q0 -70 56 -111q56 -42 150 -42q121 0 202 69zM164 77q-102 89 -102 234q0 142 107 223q106 81 308 94l293 17v84q0 93 -60 143q-59 49 -168 49q-88 0 -149 -42q-60 -42 -74 -113h-203q5 144 127 239t305 95
q199 0 317 -97q119 -97 119 -258v-745h-207v181h-5q-45 -88 -138 -140t-205 -52q-163 0 -265 88zM351 1557q1 -82 55 -137q55 -56 137 -56t137 56q54 55 55 137h143q-1 -139 -92 -226q-93 -88 -243 -88t-243 88q-91 87 -92 226h143z" />
    <glyph glyph-name="Aogonek" unicode="&#x104;" horiz-adv-x="1336" 
d="M1020 -376q-67 63 -67 162q0 139 140 232h-26l-127 372h-550l-132 -390h-233l521 1443h242l517 -1432h-20q-157 -72 -157 -190q0 -51 33 -83t86 -32q23 0 53 4v-136q-42 -14 -106 -14q-106 0 -174 64zM447 570h436l-211 622h-14z" />
    <glyph glyph-name="aogonek" unicode="&#x105;" horiz-adv-x="1092" 
d="M713 -380q-66 61 -66 158q0 147 156 241h-26v162h-5q-45 -88 -138 -140t-205 -52q-164 0 -265 89q-102 89 -102 233q0 142 107 223q106 81 308 94l293 17v84q0 92 -59 142t-169 50q-88 0 -148 -42q-61 -42 -75 -113h-203q5 145 127 239q122 95 305 95q198 0 317 -97
t119 -258v-729h-10q-156 -73 -156 -195q0 -52 32 -84q32 -31 85 -31q21 0 49 4v-136q-42 -14 -100 -14q-106 0 -171 60zM690 232q80 70 80 176v85l-264 -18q-225 -14 -225 -160q0 -70 56 -111q56 -42 150 -42q122 0 203 70z" />
    <glyph glyph-name="Cacute" unicode="&#x106;" horiz-adv-x="1424" 
d="M649 1553l231 303h225l-280 -303h-176zM259 177q-179 201 -179 545q0 342 179 544q179 201 482 201q246 0 414 -138q170 -139 198 -364h-222q-30 139 -136 222q-107 84 -254 84q-197 0 -314 -149q-118 -150 -118 -400q0 -253 117 -401q117 -149 316 -149q150 0 253 73
q102 73 136 204h223q-41 -224 -203 -348q-161 -125 -410 -125q-304 0 -482 201z" />
    <glyph glyph-name="cacute" unicode="&#x107;" horiz-adv-x="1089" 
d="M831 715q-16 90 -81 144q-70 58 -178 58q-132 0 -211 -101q-80 -103 -80 -273q0 -174 81 -275q79 -99 211 -99q220 0 260 196h207q-19 -171 -145 -274q-128 -104 -323 -104q-232 0 -371 149q-140 151 -140 407q0 253 139 405t370 152q201 0 331 -114q122 -107 137 -271
h-207zM474 1255l215 303h225l-262 -303h-178z" />
    <glyph glyph-name="Ccircumflex" unicode="&#x108;" horiz-adv-x="1424" 
d="M259 177q-179 201 -179 545q0 342 179 544q179 201 482 201q246 0 414 -138q170 -139 198 -364h-222q-30 139 -136 222q-107 84 -254 84q-197 0 -314 -149q-118 -150 -118 -400q0 -253 117 -401q117 -149 316 -149q150 0 253 73q102 73 136 204h223q-41 -224 -203 -348
q-161 -125 -410 -125q-304 0 -482 201zM823 1855l286 -306h-188l-182 200h-4l-182 -200h-188l286 306h172z" />
    <glyph glyph-name="ccircumflex" unicode="&#x109;" horiz-adv-x="1089" 
d="M917 1251h-185l-164 194h-6l-164 -194h-185l273 307h158zM831 715q-16 90 -81 144q-70 58 -178 58q-132 0 -211 -101q-80 -103 -80 -273q0 -174 81 -275q79 -99 211 -99q220 0 260 196h207q-19 -171 -145 -274q-128 -104 -323 -104q-232 0 -371 149q-140 151 -140 407
q0 253 139 405t370 152q201 0 331 -114q122 -107 137 -271h-207z" />
    <glyph glyph-name="Cdotaccent" unicode="&#x10a;" horiz-adv-x="1424" 
d="M644 1617q-38 38 -38 92q0 55 38 93t93 38t93 -38t38 -93q0 -54 -38 -92q-38 -39 -93 -39t-93 39zM259 177q-179 201 -179 545q0 342 179 544q179 201 482 201q246 0 414 -138q170 -139 198 -364h-222q-30 139 -136 222q-107 84 -254 84q-197 0 -314 -149
q-118 -150 -118 -400q0 -253 117 -401q117 -149 316 -149q150 0 253 73q102 73 136 204h223q-41 -224 -203 -348q-161 -125 -410 -125q-304 0 -482 201z" />
    <glyph glyph-name="cdotaccent" unicode="&#x10b;" horiz-adv-x="1089" 
d="M831 715q-16 90 -81 144q-70 58 -178 58q-132 0 -211 -101q-80 -103 -80 -273q0 -174 81 -275q79 -99 211 -99q220 0 260 196h207q-19 -171 -145 -274q-128 -104 -323 -104q-232 0 -371 149q-140 151 -140 407q0 253 139 405t370 152q201 0 331 -114q122 -107 137 -271
h-207zM470 1301q-39 39 -39 93q0 55 39 94q40 39 95 39t94 -39t39 -94q0 -54 -39 -93t-94 -39t-95 39z" />
    <glyph glyph-name="Ccaron" unicode="&#x10c;" horiz-adv-x="1424" 
d="M259 177q-179 201 -179 545q0 342 179 544q179 201 482 201q246 0 414 -138q170 -139 198 -364h-222q-30 139 -136 222q-107 84 -254 84q-197 0 -314 -149q-118 -150 -118 -400q0 -253 117 -401q117 -149 316 -149q150 0 253 73q102 73 136 204h223q-41 -224 -203 -348
q-161 -125 -410 -125q-304 0 -482 201zM365 1855h188l182 -199h4l182 199h188l-286 -306h-172z" />
    <glyph glyph-name="ccaron" unicode="&#x10d;" horiz-adv-x="1089" 
d="M486 1251l-273 307h185l164 -194h6l164 194h185l-273 -307h-158zM831 715q-16 90 -81 144q-70 58 -178 58q-132 0 -211 -101q-80 -103 -80 -273q0 -174 81 -275q79 -99 211 -99q220 0 260 196h207q-19 -171 -145 -274q-128 -104 -323 -104q-232 0 -371 149
q-140 151 -140 407q0 253 139 405t370 152q201 0 331 -114q122 -107 137 -271h-207z" />
    <glyph glyph-name="Dcaron" unicode="&#x10e;" horiz-adv-x="1413" 
d="M211 1853h188l182 -199h4l182 199h188l-286 -306h-172zM649 1443q323 0 503 -189t180 -530q0 -342 -180 -533t-503 -191h-517v1443h517zM356 194h272q230 0 353 136q123 137 123 392t-123 392q-123 136 -353 136h-272v-1056z" />
    <glyph glyph-name="dcaron" unicode="&#x10f;" horiz-adv-x="1358" 
d="M1399 1506l-34 -493h-134v493h168zM188 141q-127 152 -127 403q0 249 127 402q126 151 329 151q243 0 342 -191h5v602h216v-1508h-210v184h-4q-101 -195 -347 -195q-205 0 -331 152zM363 812q-80 -101 -80 -269q0 -169 80 -269q79 -101 211 -101q131 0 211 102t80 268
t-80 268q-81 102 -211 102q-131 0 -211 -101z" />
    <glyph glyph-name="Dcroat" unicode="&#x110;" horiz-adv-x="1526" 
d="M697 194q230 0 353 136q123 137 123 392t-123 392q-123 136 -353 136h-272v-418h273v-184h-273v-454h272zM718 1443q323 0 503 -189t180 -530q0 -342 -180 -533t-503 -191h-517v648h-114v184h114v611h517z" />
    <glyph glyph-name="dcroat" unicode="&#x111;" horiz-adv-x="1241" 
d="M809 267q78 100 78 276q0 174 -79 276q-78 102 -214 102t-213 -100q-78 -101 -78 -278t78 -277q77 -100 213 -100t215 101zM1212 1278h-114v-1278h-208v172h-17q-103 -190 -341 -190q-207 0 -329 152q-122 151 -122 410q0 256 123 409q123 152 329 152q113 0 202 -51
q88 -51 133 -140h16v364h-247v133h247v150h214v-150h114v-133z" />
    <glyph glyph-name="Emacron" unicode="&#x112;" horiz-adv-x="1146" 
d="M1048 0h-916v1443h916v-193h-692v-422h655v-186h-655v-448h692v-194zM917 1636h-654v119h654v-119z" />
    <glyph glyph-name="emacron" unicode="&#x113;" horiz-adv-x="1113" 
d="M368 845q-78 -78 -87 -203h551q-4 127 -78 204t-192 77q-117 0 -194 -78zM1038 318q-23 -146 -153 -239q-130 -92 -313 -92q-236 0 -374 149q-137 148 -137 403t137 408t365 153q224 0 355 -145q131 -144 131 -391v-76h-769v-13q0 -141 81 -226q81 -86 215 -86
q95 0 164 42t91 113h207zM886 1312h-646v119h646v-119z" />
    <glyph glyph-name="Ebreve" unicode="&#x114;" horiz-adv-x="1146" 
d="M1048 0h-916v1443h916v-193h-692v-422h655v-186h-655v-448h692v-194zM405 1853q0 -80 52 -134q53 -54 133 -54t133 54q52 54 52 134h140q-1 -134 -90 -219q-90 -87 -235 -87t-235 87q-89 85 -90 219h140z" />
    <glyph glyph-name="ebreve" unicode="&#x115;" horiz-adv-x="1113" 
d="M368 845q-78 -78 -87 -203h551q-4 127 -78 204t-192 77q-117 0 -194 -78zM1038 318q-23 -146 -153 -239q-130 -92 -313 -92q-236 0 -374 149q-137 148 -137 403t137 408t365 153q224 0 355 -145q131 -144 131 -391v-76h-769v-13q0 -141 81 -226q81 -86 215 -86
q95 0 164 42t91 113h207zM370 1557q1 -82 55 -137q55 -56 137 -56t137 56q54 55 55 137h143q-1 -139 -92 -226q-93 -88 -243 -88t-243 88q-91 87 -92 226h143z" />
    <glyph glyph-name="Edotaccent" unicode="&#x116;" horiz-adv-x="1146" 
d="M497 1615q-38 38 -38 92q0 55 38 93t93 38t93 -38t38 -93q0 -54 -38 -92q-38 -39 -93 -39t-93 39zM1048 0h-916v1443h916v-193h-692v-422h655v-186h-655v-448h692v-194z" />
    <glyph glyph-name="edotaccent" unicode="&#x117;" horiz-adv-x="1113" 
d="M468 1301q-39 39 -39 93q0 55 39 94q40 39 95 39t94 -39t39 -94q0 -54 -39 -93t-94 -39t-95 39zM368 845q-78 -78 -87 -203h551q-4 127 -78 204t-192 77q-117 0 -194 -78zM1038 318q-23 -146 -153 -239q-130 -92 -313 -92q-236 0 -374 149q-137 148 -137 403t137 408
t365 153q224 0 355 -145q131 -144 131 -391v-76h-769v-13q0 -141 81 -226q81 -86 215 -86q95 0 164 42t91 113h207z" />
    <glyph glyph-name="Eogonek" unicode="&#x118;" horiz-adv-x="1146" 
d="M132 0v1443h916v-193h-692v-422h655v-186h-655v-448h692v-159q-194 -89 -194 -220q0 -49 33 -79t87 -30q47 0 74 9v-134q-37 -21 -127 -21q-111 0 -178 59t-67 156q0 132 130 225h-674z" />
    <glyph glyph-name="eogonek" unicode="&#x119;" horiz-adv-x="1113" 
d="M589 -379q-66 60 -66 154q0 115 108 213v2q-22 -3 -59 -3q-236 0 -374 149q-137 148 -137 403t137 408t365 153q224 0 355 -145q131 -144 131 -391v-76h-769v-13q0 -141 81 -226q81 -86 215 -86q95 0 164 42q68 42 91 113h207q-20 -134 -191 -279q-153 -127 -153 -222
q0 -46 32 -75q33 -30 83 -30q45 0 75 9v-141q-38 -20 -128 -20q-102 0 -167 61zM368 845q-78 -78 -87 -203h551q-4 127 -78 204t-192 77q-117 0 -194 -78z" />
    <glyph glyph-name="Ecaron" unicode="&#x11a;" horiz-adv-x="1146" 
d="M218 1853h188l182 -199h4l182 199h188l-286 -306h-172zM1048 0h-916v1443h916v-193h-692v-422h655v-186h-655v-448h692v-194z" />
    <glyph glyph-name="ecaron" unicode="&#x11b;" horiz-adv-x="1113" 
d="M484 1251l-273 307h185l164 -194h6l164 194h185l-273 -307h-158zM368 845q-78 -78 -87 -203h551q-4 127 -78 204t-192 77q-117 0 -194 -78zM1038 318q-23 -146 -153 -239q-130 -92 -313 -92q-236 0 -374 149q-137 148 -137 403t137 408t365 153q224 0 355 -145
q131 -144 131 -391v-76h-769v-13q0 -141 81 -226q81 -86 215 -86q95 0 164 42t91 113h207z" />
    <glyph glyph-name="Gcircumflex" unicode="&#x11c;" horiz-adv-x="1462" 
d="M832 1853l286 -306h-188l-182 200h-4l-182 -200h-188l286 306h172zM1375 600q0 -293 -164 -459q-165 -165 -458 -165q-310 0 -491 202q-182 203 -182 550q0 341 181 540q180 199 489 199q241 0 409 -131q167 -131 205 -347h-230q-40 134 -141 208t-242 74
q-207 0 -324 -143q-118 -144 -118 -398q0 -259 120 -408q120 -150 326 -150q175 0 286 102q111 103 113 267v25h-373v181h594v-147z" />
    <glyph glyph-name="gcircumflex" unicode="&#x11d;" horiz-adv-x="1192" 
d="M925 1251h-185l-164 194h-6l-164 -194h-185l273 307h158zM784 282q80 100 80 264q0 165 -80 266q-81 101 -213 101q-131 0 -210 -100q-78 -100 -78 -267q0 -166 78 -265q79 -98 210 -98q132 0 213 99zM248 -307q-128 84 -144 223h219q18 -63 88 -100t170 -37
q129 0 206 63t77 169v179h-5q-101 -187 -345 -187q-204 0 -328 148q-125 149 -125 396q0 251 125 401q124 149 333 149q240 0 347 -191h4v180h210v-1058q0 -194 -137 -307q-136 -112 -371 -112q-196 0 -324 84z" />
    <glyph glyph-name="Gbreve" unicode="&#x11e;" horiz-adv-x="1462" 
d="M1375 600q0 -293 -164 -459q-165 -165 -458 -165q-310 0 -491 202q-182 203 -182 550q0 341 181 540q180 199 489 199q241 0 409 -131q167 -131 205 -347h-230q-40 134 -141 208t-242 74q-207 0 -324 -143q-118 -144 -118 -398q0 -259 120 -408q120 -150 326 -150
q175 0 286 102q111 103 113 267v25h-373v181h594v-147zM561 1853q0 -80 52 -134q53 -54 133 -54t133 54q52 54 52 134h140q-1 -134 -90 -219q-90 -87 -235 -87t-235 87q-89 85 -90 219h140z" />
    <glyph glyph-name="gbreve" unicode="&#x11f;" horiz-adv-x="1192" 
d="M380 1557q1 -82 55 -137q55 -56 137 -56t137 56q54 55 55 137h143q-1 -139 -92 -226q-93 -88 -243 -88t-243 88q-91 87 -92 226h143zM784 282q80 100 80 264q0 165 -80 266q-81 101 -213 101q-131 0 -210 -100q-78 -100 -78 -267q0 -166 78 -265q79 -98 210 -98
q132 0 213 99zM248 -307q-128 84 -144 223h219q18 -63 88 -100t170 -37q129 0 206 63t77 169v179h-5q-101 -187 -345 -187q-204 0 -328 148q-125 149 -125 396q0 251 125 401q124 149 333 149q240 0 347 -191h4v180h210v-1058q0 -194 -137 -307q-136 -112 -371 -112
q-196 0 -324 84z" />
    <glyph glyph-name="Gdotaccent" unicode="&#x120;" horiz-adv-x="1462" 
d="M653 1615q-38 38 -38 92q0 55 38 93t93 38t93 -38t38 -93q0 -54 -38 -92q-38 -39 -93 -39t-93 39zM1375 600q0 -293 -164 -459q-165 -165 -458 -165q-310 0 -491 202q-182 203 -182 550q0 341 181 540q180 199 489 199q241 0 409 -131q167 -131 205 -347h-230
q-40 134 -141 208t-242 74q-207 0 -324 -143q-118 -144 -118 -398q0 -259 120 -408q120 -150 326 -150q175 0 286 102q111 103 113 267v25h-373v181h594v-147z" />
    <glyph glyph-name="gdotaccent" unicode="&#x121;" horiz-adv-x="1192" 
d="M478 1301q-39 39 -39 93q0 55 39 94q40 39 95 39t94 -39t39 -94q0 -54 -39 -93t-94 -39t-95 39zM784 282q80 100 80 264q0 165 -80 266q-81 101 -213 101q-131 0 -210 -100q-78 -100 -78 -267q0 -166 78 -265q79 -98 210 -98q132 0 213 99zM248 -307q-128 84 -144 223
h219q18 -63 88 -100t170 -37q129 0 206 63t77 169v179h-5q-101 -187 -345 -187q-204 0 -328 148q-125 149 -125 396q0 251 125 401q124 149 333 149q240 0 347 -191h4v180h210v-1058q0 -194 -137 -307q-136 -112 -371 -112q-196 0 -324 84z" />
    <glyph glyph-name="uni0122" unicode="&#x122;" horiz-adv-x="1462" 
d="M570 -526l102 360h190l-133 -360h-159zM1375 600q0 -293 -164 -459q-165 -165 -458 -165q-310 0 -491 202q-182 203 -182 550q0 341 181 540q180 199 489 199q241 0 409 -131q167 -131 205 -347h-230q-40 134 -141 208t-242 74q-207 0 -324 -143q-118 -144 -118 -398
q0 -259 120 -408q120 -150 326 -150q175 0 286 102q111 103 113 267v25h-373v181h594v-147z" />
    <glyph glyph-name="uni0123" unicode="&#x123;" horiz-adv-x="1192" 
d="M399 -898l102 360h190l-133 -360h-159zM784 282q80 100 80 264q0 165 -80 266q-81 101 -213 101q-131 0 -210 -100q-78 -100 -78 -267q0 -166 78 -265q79 -98 210 -98q132 0 213 99zM248 -307q-128 84 -144 223h219q18 -63 88 -100t170 -37q129 0 206 63t77 169v179h-5
q-101 -187 -345 -187q-204 0 -328 148q-125 149 -125 396q0 251 125 401q124 149 333 149q240 0 347 -191h4v180h210v-1058q0 -194 -137 -307q-136 -112 -371 -112q-196 0 -324 84z" />
    <glyph glyph-name="Hcircumflex" unicode="&#x124;" horiz-adv-x="1454" 
d="M1097 0v639h-741v-639h-224v1443h224v-610h741v610h224v-1443h-224zM812 1853l286 -306h-188l-182 200h-4l-182 -200h-188l286 306h172z" />
    <glyph glyph-name="hcircumflex" unicode="&#x125;" horiz-adv-x="1195" 
d="M120 1508h215v-605h5q99 195 353 195q179 0 288 -110q108 -110 108 -294v-694h-216v652q0 122 -68 191t-187 69q-126 0 -203 -80q-78 -80 -78 -210v-622h-217v1508zM315 1918l286 -306h-188l-182 200h-4l-182 -200h-188l286 306h172z" />
    <glyph glyph-name="Hbar" unicode="&#x126;" horiz-adv-x="1470" 
d="M1104 1067h-741v-234h741v234zM1453 1067h-125v-1067h-224v639h-741v-639h-224v1067h-124v167h124v209h224v-209h741v209h224v-209h125v-167z" />
    <glyph glyph-name="hbar" unicode="&#x127;" horiz-adv-x="1235" 
d="M360 909q98 189 352 189q178 0 286 -110q109 -110 109 -294v-694h-216v652q0 122 -68 191t-187 69q-126 0 -203 -79q-78 -80 -78 -211v-622h-216v1245h-111v134h111v177h214v-177h250v-134h-250v-336h7z" />
    <glyph glyph-name="Itilde" unicode="&#x128;" horiz-adv-x="490" 
d="M133 0v1443h224v-1443h-224zM231 1610q-74 73 -106 73q-67 0 -69 -130h-129q0 120 52 189q51 68 139 68q78 0 153 -73t103 -73q63 0 63 132h130q0 -118 -53 -189q-52 -70 -136 -70q-73 0 -147 73z" />
    <glyph glyph-name="itilde" unicode="&#x129;" horiz-adv-x="455" 
d="M119 1086h217v-1086h-217v1086zM217 1331q-74 73 -106 73q-67 0 -69 -130h-129q0 120 52 189q51 68 139 68q78 0 153 -73t103 -73q63 0 63 132h130q0 -118 -53 -189q-52 -70 -136 -70q-73 0 -147 73z" />
    <glyph glyph-name="Imacron" unicode="&#x12a;" horiz-adv-x="490" 
d="M133 0v1443h224v-1443h-224zM572 1636h-654v119h654v-119z" />
    <glyph glyph-name="imacron" unicode="&#x12b;" horiz-adv-x="455" 
d="M119 1086h217v-1086h-217v1086zM551 1312h-646v119h646v-119z" />
    <glyph glyph-name="Ibreve" unicode="&#x12c;" horiz-adv-x="490" 
d="M133 0v1443h224v-1443h-224zM60 1853q0 -80 52 -134q53 -54 133 -54t133 54q52 54 52 134h140q-1 -134 -90 -219q-90 -87 -235 -87t-235 87q-89 85 -90 219h140z" />
    <glyph glyph-name="ibreve" unicode="&#x12d;" horiz-adv-x="455" 
d="M119 1086h217v-1086h-217v1086zM35 1557q1 -82 55 -137q55 -56 137 -56t137 56q54 55 55 137h143q-1 -139 -92 -226q-93 -88 -243 -88t-243 88q-91 87 -92 226h143z" />
    <glyph glyph-name="Iogonek" unicode="&#x12e;" horiz-adv-x="490" 
d="M73 -380q-66 61 -66 158q0 145 147 241h-21v1424h224v-1432h-20q-159 -76 -159 -190q0 -52 32 -84q32 -31 85 -31q21 0 49 4v-136q-45 -14 -100 -14q-106 0 -171 60z" />
    <glyph glyph-name="iogonek" unicode="&#x12f;" horiz-adv-x="455" 
d="M138 1278q-37 36 -37 88q0 53 37 89t90 36t90 -36t37 -89q0 -52 -37 -88q-37 -37 -90 -37t-90 37zM63 -380q-66 61 -66 158q0 152 150 241h-28v1067h217v-1070h-11q-156 -73 -156 -195q0 -52 32 -84q32 -31 85 -31q29 0 49 4v-136q-44 -14 -101 -14q-106 0 -171 60z" />
    <glyph glyph-name="Idotaccent" unicode="&#x130;" horiz-adv-x="490" 
d="M132 0v1443h224v-1443h-224zM151 1615q-38 38 -38 92q0 55 38 93t93 38t93 -38t38 -93q0 -54 -38 -92q-38 -39 -93 -39t-93 39z" />
    <glyph glyph-name="dotlessi" unicode="&#x131;" horiz-adv-x="455" 
d="M118 1086h217v-1086h-217v1086z" />
    <glyph glyph-name="IJ" unicode="&#x132;" horiz-adv-x="1550" 
d="M132 0v1443h224v-1443h-224zM747 370q2 -90 62 -146q59 -56 153 -56q227 0 227 253v1022h224v-1023q0 -214 -119 -333t-330 -119q-195 0 -316 111t-121 291h220z" />
    <glyph glyph-name="ij" unicode="&#x133;" horiz-adv-x="910" 
d="M118 1086h217v-1086h-217v1086zM137 1278q-37 36 -37 88q0 53 37 89t90 36t90 -36t37 -89q0 -52 -37 -88q-37 -37 -90 -37t-90 37zM790 -65q0 -325 -353 -325q-43 0 -48 1v172l31 -1q84 0 119 35q34 35 34 119v1150h217v-1151zM592 1278q-37 36 -37 88q0 53 37 89t90 36
t90 -36t37 -89q0 -52 -37 -88q-37 -37 -90 -37t-90 37z" />
    <glyph glyph-name="Jcircumflex" unicode="&#x134;" horiz-adv-x="1060" 
d="M257 370q2 -90 62 -146q59 -56 153 -56q227 0 227 253v1022h224v-1023q0 -214 -119 -333t-330 -119q-195 0 -316 111t-121 291h220zM898 1853l286 -306h-188l-182 200h-4l-182 -200h-188l286 306h172z" />
    <glyph glyph-name="jcircumflex" unicode="&#x135;" horiz-adv-x="454" 
d="M334 -65q0 -166 -86 -246q-86 -79 -266 -79q-42 0 -47 1v172l30 -1q85 0 119 35q35 35 35 119v1150h215v-1151zM579 1251h-185l-164 194h-6l-164 -194h-185l273 307h158z" />
    <glyph glyph-name="uni0136" unicode="&#x136;" horiz-adv-x="1293" 
d="M132 0v1443h224v-687h9l603 687h266l-572 -639l620 -804h-278l-500 650l-148 -169v-481h-224zM452 -526l102 360h190l-133 -360h-159z" />
    <glyph glyph-name="uni0137" unicode="&#x137;" horiz-adv-x="1062" 
d="M784 1086h255l-454 -468l470 -618h-250l-375 486l-94 -92v-394h-217v1508h217v-891zM389 -526l102 360h190l-133 -360h-159z" />
    <glyph glyph-name="Lacute" unicode="&#x139;" horiz-adv-x="1088" 
d="M156 1551l231 303h225l-280 -303h-176zM1028 0h-896v1443h224v-1249h672v-194z" />
    <glyph glyph-name="lacute" unicode="&#x13a;" horiz-adv-x="457" 
d="M140 1616l231 303h225l-280 -303h-176zM119 1508h217v-1508h-217v1508z" />
    <glyph glyph-name="uni013B" unicode="&#x13b;" horiz-adv-x="1088" 
d="M400 -526l102 360h190l-133 -360h-159zM1028 0h-896v1443h224v-1249h672v-194z" />
    <glyph glyph-name="uni013C" unicode="&#x13c;" horiz-adv-x="457" 
d="M52 -526l102 360h190l-133 -360h-159zM119 1508h217v-1508h-217v1508z" />
    <glyph glyph-name="Lcaron" unicode="&#x13d;" horiz-adv-x="1088" 
d="M816 1443l-50 -493h-147v493h197zM1028 0h-896v1443h224v-1249h672v-194z" />
    <glyph glyph-name="lcaron" unicode="&#x13e;" horiz-adv-x="619" 
d="M655 1506l-34 -493h-134v493h168zM119 1508h217v-1508h-217v1508z" />
    <glyph glyph-name="Lslash" unicode="&#x141;" horiz-adv-x="1093" 
d="M1034 194v-194h-896v677l-113 -54v164l113 53v603h224v-496l320 151v-163l-320 -152v-589h672z" />
    <glyph glyph-name="lslash" unicode="&#x142;" horiz-adv-x="497" 
d="M477 862l-140 -69v-793h-217v685l-107 -53v163l107 53v660h217v-552l140 69v-163z" />
    <glyph glyph-name="Nacute" unicode="&#x143;" horiz-adv-x="1443" 
d="M633 1551l231 303h225l-280 -303h-176zM132 0v1443h203l748 -1064h8v1064h218v-1443h-202l-748 1063h-9v-1063h-218z" />
    <glyph glyph-name="nacute" unicode="&#x144;" horiz-adv-x="1168" 
d="M494 1255l215 303h225l-262 -303h-178zM110 1086h207v-183h4q101 195 353 195q180 0 284 -107q103 -108 103 -295v-696h-217v655q0 124 -63 190q-63 67 -182 67q-123 0 -197 -78q-75 -79 -75 -207v-627h-217v1086z" />
    <glyph glyph-name="uni0145" unicode="&#x145;" horiz-adv-x="1443" 
d="M545 -526l102 360h190l-133 -360h-159zM132 0v1443h203l748 -1064h8v1064h218v-1443h-202l-748 1063h-9v-1063h-218z" />
    <glyph glyph-name="uni0146" unicode="&#x146;" horiz-adv-x="1168" 
d="M409 -526l102 360h190l-133 -360h-159zM110 1086h207v-183h4q101 195 353 195q180 0 284 -107q103 -108 103 -295v-696h-217v655q0 124 -63 190q-63 67 -182 67q-123 0 -197 -78q-75 -79 -75 -207v-627h-217v1086z" />
    <glyph glyph-name="Ncaron" unicode="&#x147;" horiz-adv-x="1443" 
d="M349 1853h188l182 -199h4l182 199h188l-286 -306h-172zM132 0v1443h203l748 -1064h8v1064h218v-1443h-202l-748 1063h-9v-1063h-218z" />
    <glyph glyph-name="ncaron" unicode="&#x148;" horiz-adv-x="1168" 
d="M506 1251l-273 307h185l164 -194h6l164 194h185l-273 -307h-158zM110 1086h207v-183h4q101 195 353 195q180 0 284 -107q103 -108 103 -295v-696h-217v655q0 124 -63 190q-63 67 -182 67q-123 0 -197 -78q-75 -79 -75 -207v-627h-217v1086z" />
    <glyph glyph-name="Omacron" unicode="&#x14c;" horiz-adv-x="1513" 
d="M1250 1266q182 -201 182 -545t-182 -545q-182 -200 -494 -200t-494 200q-182 201 -182 545t182 545t494 201q311 0 494 -201zM430 1122q-121 -148 -121 -401q0 -252 121 -400q120 -148 326 -148q205 0 326 148q120 148 120 400q0 253 -120 401q-121 148 -326 148
q-206 0 -326 -148zM1083 1636h-654v119h654v-119z" />
    <glyph glyph-name="omacron" unicode="&#x14d;" horiz-adv-x="1152" 
d="M898 1312h-646v119h646v-119zM200 137q-139 150 -139 406q0 255 140 406q139 151 374 151t374 -150q139 -151 139 -407t-139 -406q-138 -150 -374 -150t-375 150zM791 266q77 99 77 277t-77 277q-78 100 -216 100t-216 -100t-78 -277t78 -277q78 -99 216 -99t216 99z" />
    <glyph glyph-name="Obreve" unicode="&#x14e;" horiz-adv-x="1513" 
d="M1250 1266q182 -201 182 -545t-182 -545q-182 -200 -494 -200t-494 200q-182 201 -182 545t182 545t494 201q311 0 494 -201zM430 1122q-121 -148 -121 -401q0 -252 121 -400q120 -148 326 -148q205 0 326 148q120 148 120 400q0 253 -120 401q-121 148 -326 148
q-206 0 -326 -148zM571 1853q0 -80 52 -134q53 -54 133 -54t133 54q52 54 52 134h140q-1 -134 -90 -219q-90 -87 -235 -87t-235 87q-89 85 -90 219h140z" />
    <glyph glyph-name="obreve" unicode="&#x14f;" horiz-adv-x="1152" 
d="M382 1557q1 -82 55 -137q55 -56 137 -56t137 56q54 55 55 137h143q-1 -139 -92 -226q-93 -88 -243 -88t-243 88q-91 87 -92 226h143zM200 137q-139 150 -139 406q0 255 140 406q139 151 374 151t374 -150q139 -151 139 -407t-139 -406q-138 -150 -374 -150t-375 150z
M791 266q77 99 77 277t-77 277q-78 100 -216 100t-216 -100t-78 -277t78 -277q78 -99 216 -99t216 99z" />
    <glyph glyph-name="Ohungarumlaut" unicode="&#x150;" horiz-adv-x="1513" 
d="M841 1551l231 303h217l-280 -303h-168zM500 1551l231 303h217l-279 -303h-169zM1250 1266q182 -201 182 -545t-182 -545q-182 -200 -494 -200t-494 200q-182 201 -182 545t182 545t494 201q311 0 494 -201zM430 1122q-121 -148 -121 -401q0 -252 121 -400
q120 -148 326 -148q205 0 326 148q120 148 120 400q0 253 -120 401q-121 148 -326 148q-206 0 -326 -148z" />
    <glyph glyph-name="ohungarumlaut" unicode="&#x151;" horiz-adv-x="1152" 
d="M853 1558h215l-247 -303h-162zM518 1558h215l-247 -303h-162zM200 137q-139 150 -139 406q0 255 140 406q139 151 374 151t374 -150q139 -151 139 -407t-139 -406q-138 -150 -374 -150t-375 150zM791 266q77 99 77 277t-77 277q-78 100 -216 100t-216 -100t-78 -277
t78 -277q78 -99 216 -99t216 99z" />
    <glyph glyph-name="OE" unicode="&#x152;" horiz-adv-x="2216" 
d="M433 1122q-122 -148 -122 -401q0 -252 122 -400q122 -149 330 -149t330 149q122 148 122 400t-122 401q-123 149 -330 149q-208 0 -330 -149zM1229 231q-67 -121 -196 -189q-129 -69 -287 -69q-303 0 -484 203t-181 545t182 546q181 203 484 203q333 0 482 -256v229h889
v-193h-676v-422h638v-186h-638v-448h676v-194h-889v231z" />
    <glyph glyph-name="oe" unicode="&#x153;" horiz-adv-x="1916" 
d="M981 193h-10q-136 -206 -400 -206q-233 0 -372 151q-138 150 -138 404q0 255 139 407q138 151 370 151q264 0 401 -210h10q58 98 162 154t231 56q220 0 349 -145q130 -146 130 -391v-76h-765v-16q0 -140 81 -225q81 -84 215 -84q94 0 162 41q67 41 89 110h207
q-23 -143 -152 -235t-306 -92q-279 0 -403 206zM1635 642q-4 127 -77 204t-191 77q-117 0 -194 -78t-85 -203h547zM356 268q78 -99 215 -99q139 0 216 99t77 275t-77 275q-78 99 -216 99q-137 0 -215 -99q-77 -99 -77 -275t77 -275z" />
    <glyph glyph-name="Racute" unicode="&#x154;" horiz-adv-x="1265" 
d="M475 1551l231 303h225l-280 -303h-176zM356 736h322q130 0 201 68q72 68 72 192q0 121 -75 190q-74 69 -204 69h-316v-519zM356 0h-224v1443h567q222 0 352 -120q130 -119 130 -321q0 -147 -74 -257q-75 -111 -206 -155l324 -590h-259l-294 555h-316v-555z" />
    <glyph glyph-name="racute" unicode="&#x155;" horiz-adv-x="688" 
d="M287 1255l215 303h225l-262 -303h-178zM110 1086h207v-183h4q25 91 96 142q70 52 166 52q45 0 72 -8v-203q-36 14 -95 14q-107 0 -170 -69q-63 -68 -63 -183v-648h-217v1086z" />
    <glyph glyph-name="uni0156" unicode="&#x156;" horiz-adv-x="1265" 
d="M356 736h322q130 0 201 68q72 68 72 192q0 121 -75 190q-74 69 -204 69h-316v-519zM356 0h-224v1443h567q222 0 352 -120q130 -119 130 -321q0 -147 -74 -257q-75 -111 -206 -155l324 -590h-259l-294 555h-316v-555zM387 -526l102 360h190l-133 -360h-159z" />
    <glyph glyph-name="uni0157" unicode="&#x157;" horiz-adv-x="688" 
d="M110 1086h207v-183h4q25 91 96 142q70 52 166 52q45 0 72 -8v-203q-36 14 -95 14q-107 0 -170 -69q-63 -68 -63 -183v-648h-217v1086zM43 -526l102 360h190l-133 -360h-159z" />
    <glyph glyph-name="Rcaron" unicode="&#x158;" horiz-adv-x="1265" 
d="M356 736h322q130 0 201 68q72 68 72 192q0 121 -75 190q-74 69 -204 69h-316v-519zM356 0h-224v1443h567q222 0 352 -120q130 -119 130 -321q0 -147 -74 -257q-75 -111 -206 -155l324 -590h-259l-294 555h-316v-555zM191 1853h188l182 -199h4l182 199h188l-286 -306h-172
z" />
    <glyph glyph-name="rcaron" unicode="&#x159;" horiz-adv-x="688" 
d="M299 1251l-273 307h185l164 -194h6l164 194h185l-273 -307h-158zM110 1086h207v-183h4q25 91 96 142q70 52 166 52q45 0 72 -8v-203q-36 14 -95 14q-107 0 -170 -69q-63 -68 -63 -183v-648h-217v1086z" />
    <glyph glyph-name="Sacute" unicode="&#x15a;" horiz-adv-x="1244" 
d="M544 1551l231 303h225l-280 -303h-176zM289 402q12 -107 107 -172t238 -65q136 0 225 63q88 63 88 160q0 84 -63 137q-63 54 -203 88l-187 45q-388 94 -388 389q0 186 147 303q146 117 378 117q228 0 372 -117q144 -116 149 -303h-218q-10 107 -93 170q-82 61 -213 61
q-130 0 -212 -60q-81 -60 -81 -156q0 -76 61 -125q61 -48 201 -83l159 -39q222 -52 321 -147q98 -94 98 -253q0 -202 -150 -321q-150 -118 -407 -118q-241 0 -390 115q-150 116 -160 311h221z" />
    <glyph glyph-name="sacute" unicode="&#x15b;" horiz-adv-x="1018" 
d="M209 1010q117 89 304 89q178 0 295 -91q116 -90 120 -232h-204q-7 72 -65 114t-151 42q-92 0 -149 -39q-56 -40 -56 -104q0 -98 169 -139l180 -43q164 -40 232 -106t68 -186q0 -145 -125 -237q-125 -91 -322 -91q-189 0 -310 90q-120 89 -132 237h214q26 -161 239 -161
q101 0 161 39q59 39 59 105q0 52 -36 82q-35 30 -121 52l-194 48q-293 72 -293 298q0 143 117 233zM423 1255l215 303h225l-262 -303h-178z" />
    <glyph glyph-name="Scircumflex" unicode="&#x15c;" horiz-adv-x="1244" 
d="M289 402q12 -107 107 -172t238 -65q136 0 225 63q88 63 88 160q0 84 -63 137q-63 54 -203 88l-187 45q-388 94 -388 389q0 186 147 303q146 117 378 117q228 0 372 -117q144 -116 149 -303h-218q-10 107 -93 170q-82 61 -213 61q-130 0 -212 -60q-81 -60 -81 -156
q0 -76 61 -125q61 -48 201 -83l159 -39q222 -52 321 -147q98 -94 98 -253q0 -202 -150 -321q-150 -118 -407 -118q-241 0 -390 115q-150 116 -160 311h221zM718 1853l286 -306h-188l-182 200h-4l-182 -200h-188l286 306h172z" />
    <glyph glyph-name="scircumflex" unicode="&#x15d;" horiz-adv-x="1018" 
d="M866 1251h-185l-164 194h-6l-164 -194h-185l273 307h158zM209 1010q117 89 304 89q178 0 295 -91q116 -90 120 -232h-204q-7 72 -65 114t-151 42q-92 0 -149 -39q-56 -40 -56 -104q0 -98 169 -139l180 -43q164 -40 232 -106t68 -186q0 -145 -125 -237q-125 -91 -322 -91
q-189 0 -310 90q-120 89 -132 237h214q26 -161 239 -161q101 0 161 39q59 39 59 105q0 52 -36 82q-35 30 -121 52l-194 48q-293 72 -293 298q0 143 117 233z" />
    <glyph glyph-name="Scedilla" unicode="&#x15e;" horiz-adv-x="1244" 
d="M756 815q222 -52 321 -147q98 -94 98 -253q0 -188 -131 -304q-130 -116 -356 -133l-43 -110q200 0 200 -154q0 -80 -62 -130q-63 -49 -164 -50q-85 -2 -145 17v105q37 -14 118 -14q115 0 115 66q0 63 -141 63h-55v83l50 124q-217 14 -350 127q-133 114 -143 297h221
q12 -107 107 -172t238 -65q136 0 225 63q88 63 88 160q0 84 -63 137q-63 54 -203 88l-187 45q-388 94 -388 389q0 186 147 303q146 117 378 117q228 0 372 -117q144 -116 149 -303h-218q-10 107 -93 170q-82 61 -213 61q-130 0 -212 -60q-81 -60 -81 -156q0 -76 61 -125
q61 -48 201 -83z" />
    <glyph glyph-name="scedilla" unicode="&#x15f;" horiz-adv-x="1018" 
d="M652 607q164 -40 232 -106t68 -186q0 -131 -103 -220q-103 -87 -272 -104l-47 -123q200 0 200 -154q0 -80 -62 -130q-63 -49 -164 -50q-85 -2 -145 17v105q37 -14 118 -14q115 0 115 66q0 63 -141 63h-55v83l55 135q-167 13 -272 101q-105 87 -116 224h214
q26 -161 239 -161q101 0 161 39q59 39 59 105q0 52 -36 82q-35 30 -121 52l-194 48q-293 72 -293 298q0 143 117 233q117 89 304 89q178 0 295 -91q116 -90 120 -232h-204q-7 72 -65 114t-151 42q-92 0 -149 -39q-56 -40 -56 -104q0 -98 169 -139z" />
    <glyph glyph-name="Scaron" unicode="&#x160;" horiz-adv-x="1244" 
d="M289 402q12 -107 107 -172t238 -65q136 0 225 63q88 63 88 160q0 84 -63 137q-63 54 -203 88l-187 45q-388 94 -388 389q0 186 147 303q146 117 378 117q228 0 372 -117q144 -116 149 -303h-218q-10 107 -93 170q-82 61 -213 61q-130 0 -212 -60q-81 -60 -81 -156
q0 -76 61 -125q61 -48 201 -83l159 -39q222 -52 321 -147q98 -94 98 -253q0 -202 -150 -321q-150 -118 -407 -118q-241 0 -390 115q-150 116 -160 311h221zM260 1853h188l182 -199h4l182 199h188l-286 -306h-172z" />
    <glyph glyph-name="scaron" unicode="&#x161;" horiz-adv-x="1018" 
d="M435 1251l-273 307h185l164 -194h6l164 194h185l-273 -307h-158zM209 1010q117 89 304 89q178 0 295 -91q116 -90 120 -232h-204q-7 72 -65 114t-151 42q-92 0 -149 -39q-56 -40 -56 -104q0 -98 169 -139l180 -43q164 -40 232 -106t68 -186q0 -145 -125 -237
q-125 -91 -322 -91q-189 0 -310 90q-120 89 -132 237h214q26 -161 239 -161q101 0 161 39q59 39 59 105q0 52 -36 82q-35 30 -121 52l-194 48q-293 72 -293 298q0 143 117 233z" />
    <glyph glyph-name="uni0162" unicode="&#x162;" horiz-adv-x="1222" 
d="M687 0l-51 -132q200 0 200 -154q0 -80 -62 -130q-63 -49 -164 -50q-85 -2 -145 17v105q37 -14 118 -14q115 0 115 66q0 63 -141 63h-55v83l59 146h-63v1250h-450v193h1123v-193h-449v-1250h-35z" />
    <glyph glyph-name="uni0163" unicode="&#x163;" horiz-adv-x="672" 
d="M416 -132q200 0 200 -154q0 -80 -62 -130q-63 -49 -164 -50q-85 -2 -145 17v105q37 -14 118 -14q115 0 115 66q0 63 -141 63h-55v83l62 153q-89 24 -129 91q-40 66 -40 188v629h-150v171h150v244h216v-244h208v-171h-208v-607q0 -138 133 -138q39 0 74 5v-171
q-44 -11 -122 -11h-12z" />
    <glyph glyph-name="Tcaron" unicode="&#x164;" horiz-adv-x="1222" 
d="M238 1853h188l182 -199h4l182 199h188l-286 -306h-172zM498 0v1250h-450v193h1123v-193h-449v-1250h-224z" />
    <glyph glyph-name="tcaron" unicode="&#x165;" horiz-adv-x="763" 
d="M709 1729l-34 -494h-134v494h168zM391 1330v-244h208v-171h-208v-607q0 -138 133 -138q39 0 74 5v-171q-44 -11 -122 -11q-163 0 -232 68q-69 67 -69 225v629h-150v171h150v244h216z" />
    <glyph glyph-name="Tbar" unicode="&#x166;" horiz-adv-x="1267" 
d="M726 1250v-454h316v-168h-316v-628h-224v628h-278v168h278v454h-450v193h1123v-193h-449z" />
    <glyph glyph-name="tbar" unicode="&#x167;" horiz-adv-x="692" 
d="M391 494v-186q0 -138 133 -138q39 0 74 5v-171q-44 -11 -122 -11q-163 0 -232 68q-69 67 -69 225v208h-146v150h146v271h-150v171h150v244h216v-244h208v-171h-208v-271h219v-150h-219z" />
    <glyph glyph-name="Utilde" unicode="&#x168;" horiz-adv-x="1434" 
d="M356 526q0 -158 94 -253q97 -98 266 -98t267 98q94 95 94 253v917h223v-936q0 -237 -156 -382q-160 -149 -428 -149t-428 149q-156 145 -156 382v936h224v-917zM702 1610q-74 73 -106 73q-67 0 -69 -130h-129q0 120 52 189q51 68 139 68q78 0 153 -73t103 -73
q63 0 63 132h130q0 -118 -53 -189q-52 -70 -136 -70q-73 0 -147 73z" />
    <glyph glyph-name="utilde" unicode="&#x169;" horiz-adv-x="1168" 
d="M1056 0h-207v186h-4q-97 -198 -351 -198q-178 0 -283 108q-106 108 -106 294v696h217v-655q0 -125 64 -191q64 -65 182 -65q122 0 196 78q75 78 75 207v626h217v-1086zM570 1331q-74 73 -106 73q-67 0 -69 -130h-129q0 120 52 189q51 68 139 68q78 0 153 -73t103 -73
q63 0 63 132h130q0 -118 -53 -189q-52 -70 -136 -70q-73 0 -147 73z" />
    <glyph glyph-name="Umacron" unicode="&#x16a;" horiz-adv-x="1434" 
d="M356 526q0 -158 94 -253q97 -98 266 -98t267 98q94 95 94 253v917h223v-936q0 -237 -156 -382q-160 -149 -428 -149t-428 149q-156 145 -156 382v936h224v-917zM1043 1636h-654v119h654v-119z" />
    <glyph glyph-name="umacron" unicode="&#x16b;" horiz-adv-x="1168" 
d="M1056 0h-207v186h-4q-97 -198 -351 -198q-178 0 -283 108q-106 108 -106 294v696h217v-655q0 -125 64 -191q64 -65 182 -65q122 0 196 78q75 78 75 207v626h217v-1086zM904 1312h-646v119h646v-119z" />
    <glyph glyph-name="Ubreve" unicode="&#x16c;" horiz-adv-x="1434" 
d="M356 526q0 -158 94 -253q97 -98 266 -98t267 98q94 95 94 253v917h223v-936q0 -237 -156 -382q-160 -149 -428 -149t-428 149q-156 145 -156 382v936h224v-917zM531 1853q0 -80 52 -134q53 -54 133 -54t133 54q52 54 52 134h140q-1 -134 -90 -219q-90 -87 -235 -87
t-235 87q-89 85 -90 219h140z" />
    <glyph glyph-name="ubreve" unicode="&#x16d;" horiz-adv-x="1168" 
d="M1056 0h-207v186h-4q-97 -198 -351 -198q-178 0 -283 108q-106 108 -106 294v696h217v-655q0 -125 64 -191q64 -65 182 -65q122 0 196 78q75 78 75 207v626h217v-1086zM388 1557q1 -82 55 -137q55 -56 137 -56t137 56q54 55 55 137h143q-1 -139 -92 -226
q-93 -88 -243 -88t-243 88q-91 87 -92 226h143z" />
    <glyph glyph-name="Uring" unicode="&#x16e;" horiz-adv-x="1434" 
d="M570 1570q-61 60 -61 144q0 85 61 145q61 61 146 61t146 -61q61 -60 61 -145q0 -84 -61 -144q-61 -61 -146 -61t-146 61zM794 1637q33 32 33 77q0 46 -33 78q-32 33 -78 33t-78 -33q-33 -32 -33 -78q0 -45 33 -77q32 -33 78 -33t78 33zM356 526q0 -158 94 -253
q97 -98 266 -98t267 98q94 95 94 253v917h223v-936q0 -237 -156 -382q-160 -149 -428 -149t-428 149q-156 145 -156 382v936h224v-917z" />
    <glyph glyph-name="uring" unicode="&#x16f;" horiz-adv-x="1168" 
d="M1056 0h-207v186h-4q-97 -198 -351 -198q-178 0 -283 108q-106 108 -106 294v696h217v-655q0 -125 64 -191q64 -65 182 -65q122 0 196 78q75 78 75 207v626h217v-1086zM435 1254q-61 60 -61 144q0 85 61 145q61 61 146 61t146 -61q61 -60 61 -145q0 -84 -61 -144
q-61 -61 -146 -61t-146 61zM659 1321q33 32 33 77q0 46 -33 78q-32 33 -78 33t-78 -33q-33 -32 -33 -78q0 -45 33 -77q32 -33 78 -33t78 33z" />
    <glyph glyph-name="Uhungarumlaut" unicode="&#x170;" horiz-adv-x="1434" 
d="M356 526q0 -158 94 -253q97 -98 266 -98t267 98q94 95 94 253v917h223v-936q0 -237 -156 -382q-160 -149 -428 -149t-428 149q-156 145 -156 382v936h224v-917zM801 1551l231 303h217l-280 -303h-168zM460 1551l231 303h217l-279 -303h-169z" />
    <glyph glyph-name="uhungarumlaut" unicode="&#x171;" horiz-adv-x="1168" 
d="M859 1558h215l-247 -303h-162zM524 1558h215l-247 -303h-162zM1056 0h-207v186h-4q-97 -198 -351 -198q-178 0 -283 108q-106 108 -106 294v696h217v-655q0 -125 64 -191q64 -65 182 -65q122 0 196 78q75 78 75 207v626h217v-1086z" />
    <glyph glyph-name="Uogonek" unicode="&#x172;" horiz-adv-x="1434" 
d="M789 -381q-68 58 -68 149q0 126 108 222v3q-53 -17 -113 -17q-264 0 -424 145t-160 386v936h224v-917q0 -161 98 -256q97 -95 262 -95q166 0 263 95q98 95 98 256v917h223v-936q0 -247 -203 -428q-138 -120 -140 -123q-64 -68 -64 -140q0 -47 35 -78q35 -32 87 -32
q33 0 67 7v-135q-49 -18 -120 -18q-105 0 -173 59z" />
    <glyph glyph-name="uogonek" unicode="&#x173;" horiz-adv-x="1168" 
d="M1056 -426q-44 -14 -100 -14q-106 0 -172 60t-66 158q0 146 157 241h-26v167h-4q-97 -198 -351 -198q-179 0 -284 108q-105 109 -105 294v696h217v-655q0 -124 64 -190q63 -66 182 -66q122 0 197 78q74 78 74 207v626h217v-1070h-10q-156 -73 -156 -195q0 -52 32 -84
q32 -31 85 -31q21 0 49 4v-136z" />
    <glyph glyph-name="Wcircumflex" unicode="&#x174;" horiz-adv-x="1923" 
d="M1046 1853l286 -306h-188l-182 200h-4l-182 -200h-188l286 306h172zM644 0h-212l-389 1443h233l267 -1130h8l305 1130h208l306 -1130h8l267 1130h233l-390 -1443h-211l-312 1088h-10z" />
    <glyph glyph-name="wcircumflex" unicode="&#x175;" horiz-adv-x="1563" 
d="M1133 1251h-185l-164 194h-6l-164 -194h-185l273 307h158zM1237 0h-224l-231 818h-5l-229 -818h-223l-300 1086h216l202 -860h4l230 860h208l231 -860h4l202 860h214z" />
    <glyph glyph-name="Ycircumflex" unicode="&#x176;" horiz-adv-x="1293" 
d="M533 0v591l-508 852h250l368 -637h7l368 637h248l-509 -852v-591h-224zM731 1853l286 -306h-188l-182 200h-4l-182 -200h-188l286 306h172z" />
    <glyph glyph-name="ycircumflex" unicode="&#x177;" horiz-adv-x="1066" 
d="M131 -389v176q20 -5 69 -5q78 0 123 36q46 37 74 123l17 56l-394 1089h233l279 -888h5l279 888h228l-407 -1136q-70 -195 -161 -270q-90 -75 -257 -75q-54 0 -88 6zM885 1251h-185l-164 194h-6l-164 -194h-185l273 307h158z" />
    <glyph glyph-name="Ydieresis" unicode="&#x178;" horiz-adv-x="1293" 
d="M533 0v591l-508 852h250l368 -637h7l368 637h248l-509 -852v-591h-224zM358 1611q-35 35 -35 84t35 84q36 35 86 35t85 -35q35 -34 35 -84q0 -49 -35 -84t-85 -35t-86 35zM761 1611q-35 35 -35 84t35 84q36 35 86 35t85 -35q35 -34 35 -84q0 -49 -35 -84t-85 -35t-86 35z
" />
    <glyph glyph-name="Zacute" unicode="&#x179;" horiz-adv-x="1273" 
d="M548 1551l231 303h225l-280 -303h-176zM94 153l790 1089v8h-766v193h1041v-153l-787 -1089v-7h806v-194h-1084v153z" />
    <glyph glyph-name="zacute" unicode="&#x17a;" horiz-adv-x="1015" 
d="M415 1255l215 303h225l-262 -303h-178zM88 141l584 769v3h-581v173h828v-149l-570 -760v-4h576v-173h-837v141z" />
    <glyph glyph-name="Zdotaccent" unicode="&#x17b;" horiz-adv-x="1273" 
d="M543 1615q-38 38 -38 92q0 55 38 93t93 38t93 -38t38 -93q0 -54 -38 -92q-38 -39 -93 -39t-93 39zM94 153l790 1089v8h-766v193h1041v-153l-787 -1089v-7h806v-194h-1084v153z" />
    <glyph glyph-name="zdotaccent" unicode="&#x17c;" horiz-adv-x="1015" 
d="M411 1301q-39 39 -39 93q0 55 39 94q40 39 95 39t94 -39t39 -94q0 -54 -39 -93t-94 -39t-95 39zM88 141l584 769v3h-581v173h828v-149l-570 -760v-4h576v-173h-837v141z" />
    <glyph glyph-name="Zcaron" unicode="&#x17d;" horiz-adv-x="1273" 
d="M94 153l790 1089v8h-766v193h1041v-153l-787 -1089v-7h806v-194h-1084v153zM264 1853h188l182 -199h4l182 199h188l-286 -306h-172z" />
    <glyph glyph-name="zcaron" unicode="&#x17e;" horiz-adv-x="1015" 
d="M427 1251l-273 307h185l164 -194h6l164 194h185l-273 -307h-158zM88 141l584 769v3h-581v173h828v-149l-570 -760v-4h576v-173h-837v141z" />
    <glyph glyph-name="florin" unicode="&#x192;" horiz-adv-x="1270" 
d="M1223 1241q-83 39 -183 39q-215 0 -245 -206l-30 -201h362v-167h-386l-52 -349q-56 -381 -425 -381q-124 0 -217 44v193q83 -50 193 -50q107 0 161 51q55 51 72 168l48 324h-330v167h355l32 219q56 372 436 372q123 0 209 -39v-184z" />
    <glyph glyph-name="Ohorn" unicode="&#x1a0;" horiz-adv-x="1555" 
d="M430 1122q-121 -148 -121 -401q0 -252 121 -400q120 -148 326 -148q205 0 326 148q120 148 120 400q0 253 -120 401q-121 148 -326 148q-206 0 -326 -148zM1250 177q-183 -201 -494 -201q-312 0 -494 201q-182 200 -182 544q0 343 182 545q181 201 491 201q164 0 316 -79
t200 -79q102 0 102 157v165h185v-228q0 -114 -46 -179q-46 -66 -126 -66q-38 0 -60 11l-3 -4q111 -208 111 -445q0 -343 -182 -543z" />
    <glyph glyph-name="ohorn" unicode="&#x1a1;" horiz-adv-x="1279" 
d="M791 267q77 99 77 276q0 178 -77 277q-78 100 -216 100t-216 -100t-78 -277t78 -276q78 -100 216 -100t216 100zM950 137q-139 -150 -376 -150q-235 0 -374 150q-139 151 -139 405t139 406t371 152q144 0 274 -73q130 -74 164 -74q104 0 104 157v152h181v-203
q0 -119 -66 -193q-66 -73 -174 -73q-5 0 -7 1l-5 -2q46 -108 46 -251q0 -255 -138 -404z" />
    <glyph glyph-name="Uhorn" unicode="&#x1af;" horiz-adv-x="1658" 
d="M1301 1354q40 -36 95 -34t79 37q24 36 24 118v153h181v-204q0 -122 -69 -196q-69 -73 -185 -73q-81 0 -126 36v-684q0 -241 -160 -386t-424 -145t-424 145t-160 386v936h224v-917q0 -161 98 -256q97 -95 262 -95q166 0 263 95q98 95 98 256v917h224v-89z" />
    <glyph glyph-name="uhorn" unicode="&#x1b0;" horiz-adv-x="1441" 
d="M845 186q-97 -198 -351 -198q-179 0 -284 108q-105 109 -105 294v696h217v-655q0 -124 63 -190q64 -66 183 -66q122 0 197 78q74 78 74 207v626h217v-82q40 -29 89 -26q55 2 78 37q24 36 24 118v152h181v-202q0 -124 -67 -197t-182 -73q-80 0 -123 31v-844h-207v186h-4z
" />
    <glyph glyph-name="uni01C4" unicode="&#x1c4;" horiz-adv-x="2686" 
d="M649 1443q323 0 503 -189t180 -530q0 -342 -180 -533t-503 -191h-517v1443h517zM356 194h272q230 0 353 136q123 137 123 392t-123 392q-123 136 -353 136h-272v-1056zM1507 153l790 1089v8h-766v193h1041v-153l-787 -1089v-7h806v-194h-1084v153zM1677 1853h188
l182 -199h4l182 199h188l-286 -306h-172z" />
    <glyph glyph-name="uni01C5" unicode="&#x1c5;" horiz-adv-x="2428" 
d="M649 1443q323 0 503 -189t180 -530q0 -342 -180 -533t-503 -191h-517v1443h517zM356 194h272q230 0 353 136q123 137 123 392t-123 392q-123 136 -353 136h-272v-1056zM1840 1251l-273 307h185l164 -194h6l164 194h185l-273 -307h-158zM1501 141l584 769v3h-581v173h828
v-149l-570 -760v-4h576v-173h-837v141z" />
    <glyph glyph-name="uni01C6" unicode="&#x1c6;" horiz-adv-x="2215" 
d="M188 141q-127 152 -127 403q0 249 127 402q126 151 329 151q243 0 342 -191h5v602h216v-1508h-210v184h-4q-101 -195 -347 -195q-205 0 -331 152zM363 812q-80 -101 -80 -269q0 -169 80 -269q79 -101 211 -101q131 0 211 102t80 268t-80 268q-81 102 -211 102
q-131 0 -211 -101zM1627 1251l-273 307h185l164 -194h6l164 194h185l-273 -307h-158zM1288 141l584 769v3h-581v173h828v-149l-570 -760v-4h576v-173h-837v141z" />
    <glyph glyph-name="uni01C7" unicode="&#x1c7;" horiz-adv-x="2148" 
d="M1345 370q2 -90 62 -146q59 -56 153 -56q227 0 227 253v1022h224v-1023q0 -214 -119 -333t-330 -119q-195 0 -316 111t-121 291h220zM1028 0h-896v1443h224v-1249h672v-194z" />
    <glyph glyph-name="uni01C8" unicode="&#x1c8;" horiz-adv-x="1543" 
d="M1423 -65q0 -325 -353 -325q-43 0 -48 1v172l31 -1q84 0 119 35q34 35 34 119v1150h217v-1151zM1225 1278q-37 36 -37 88q0 53 37 89t90 36t90 -36t37 -89q0 -52 -37 -88q-37 -37 -90 -37t-90 37zM1028 0h-896v1443h224v-1249h672v-194z" />
    <glyph glyph-name="uni01C9" unicode="&#x1c9;" horiz-adv-x="912" 
d="M792 -65q0 -325 -353 -325q-43 0 -48 1v172l31 -1q84 0 119 35q34 35 34 119v1150h217v-1151zM594 1278q-37 36 -37 88q0 53 37 89t90 36t90 -36t37 -89q0 -52 -37 -88q-37 -37 -90 -37t-90 37zM119 1508h217v-1508h-217v1508z" />
    <glyph glyph-name="uni01CA" unicode="&#x1ca;" horiz-adv-x="2503" 
d="M1700 370q2 -90 62 -146q59 -56 153 -56q227 0 227 253v1022h224v-1023q0 -214 -119 -333t-330 -119q-195 0 -316 111t-121 291h220zM132 0v1443h203l748 -1064h8v1064h218v-1443h-202l-748 1063h-9v-1063h-218z" />
    <glyph glyph-name="uni01CB" unicode="&#x1cb;" horiz-adv-x="1898" 
d="M1778 -65q0 -325 -353 -325q-43 0 -48 1v172l31 -1q84 0 119 35q34 35 34 119v1150h217v-1151zM1580 1278q-37 36 -37 88q0 53 37 89t90 36t90 -36t37 -89q0 -52 -37 -88q-37 -37 -90 -37t-90 37zM132 0v1443h203l748 -1064h8v1064h218v-1443h-202l-748 1063h-9v-1063
h-218z" />
    <glyph glyph-name="uni01CC" unicode="&#x1cc;" horiz-adv-x="1623" 
d="M1503 -65q0 -325 -353 -325q-43 0 -48 1v172l31 -1q84 0 119 35q34 35 34 119v1150h217v-1151zM1305 1278q-37 36 -37 88q0 53 37 89t90 36t90 -36t37 -89q0 -52 -37 -88q-37 -37 -90 -37t-90 37zM110 1086h207v-183h4q101 195 353 195q180 0 284 -107q103 -108 103 -295
v-696h-217v655q0 124 -63 190q-63 67 -182 67q-123 0 -197 -78q-75 -79 -75 -207v-627h-217v1086z" />
    <glyph glyph-name="uni01CD" unicode="&#x1cd;" horiz-adv-x="1336" 
d="M940 390h-550l-132 -390h-233l521 1443h242l521 -1443h-237zM447 570h436l-215 633h-6zM295 1853h188l182 -199h4l182 199h188l-286 -306h-172z" />
    <glyph glyph-name="uni01CE" unicode="&#x1ce;" horiz-adv-x="1092" 
d="M689 231q81 70 81 177v85l-264 -18q-225 -14 -225 -160q0 -70 56 -111q56 -42 150 -42q121 0 202 69zM164 77q-102 89 -102 234q0 142 107 223q106 81 308 94l293 17v84q0 93 -60 143q-59 49 -168 49q-88 0 -149 -42q-60 -42 -74 -113h-203q5 144 127 239t305 95
q199 0 317 -97q119 -97 119 -258v-745h-207v181h-5q-45 -88 -138 -140t-205 -52q-163 0 -265 88zM465 1251l-273 307h185l164 -194h6l164 194h185l-273 -307h-158z" />
    <glyph glyph-name="uni01CF" unicode="&#x1cf;" horiz-adv-x="490" 
d="M133 0v1443h224v-1443h-224zM-127 1853h188l182 -199h4l182 199h188l-286 -306h-172z" />
    <glyph glyph-name="uni01D0" unicode="&#x1d0;" horiz-adv-x="455" 
d="M149 1251l-273 307h185l164 -194h6l164 194h185l-273 -307h-158zM119 1086h217v-1086h-217v1086z" />
    <glyph glyph-name="uni01D1" unicode="&#x1d1;" horiz-adv-x="1513" 
d="M384 1853h188l182 -199h4l182 199h188l-286 -306h-172zM1250 1266q182 -201 182 -545t-182 -545q-182 -200 -494 -200t-494 200q-182 201 -182 545t182 545t494 201q311 0 494 -201zM430 1122q-121 -148 -121 -401q0 -252 121 -400q120 -148 326 -148q205 0 326 148
q120 148 120 400q0 253 -120 401q-121 148 -326 148q-206 0 -326 -148z" />
    <glyph glyph-name="uni01D2" unicode="&#x1d2;" horiz-adv-x="1152" 
d="M496 1251l-273 307h185l164 -194h6l164 194h185l-273 -307h-158zM200 137q-139 150 -139 406q0 255 140 406q139 151 374 151t374 -150q139 -151 139 -407t-139 -406q-138 -150 -374 -150t-375 150zM791 266q77 99 77 277t-77 277q-78 100 -216 100t-216 -100t-78 -277
t78 -277q78 -99 216 -99t216 99z" />
    <glyph glyph-name="uni01D3" unicode="&#x1d3;" horiz-adv-x="1434" 
d="M344 1853h188l182 -199h4l182 199h188l-286 -306h-172zM356 526q0 -158 94 -253q97 -98 266 -98t267 98q94 95 94 253v917h223v-936q0 -237 -156 -382q-160 -149 -428 -149t-428 149q-156 145 -156 382v936h224v-917z" />
    <glyph glyph-name="uni01D4" unicode="&#x1d4;" horiz-adv-x="1168" 
d="M502 1251l-273 307h185l164 -194h6l164 194h185l-273 -307h-158zM1056 0h-207v186h-4q-97 -198 -351 -198q-178 0 -283 108q-106 108 -106 294v696h217v-655q0 -125 64 -191q64 -65 182 -65q122 0 196 78q75 78 75 207v626h217v-1086z" />
    <glyph glyph-name="uni01D5" unicode="&#x1d5;" horiz-adv-x="1434" 
d="M356 526q0 -158 94 -253q97 -98 266 -98t267 98q94 95 94 253v917h223v-936q0 -237 -156 -382q-160 -149 -428 -149t-428 149q-156 145 -156 382v936h224v-917zM601 1766q31 -32 31 -76q0 -45 -31 -76q-32 -32 -77 -32q-46 0 -78 32q-32 31 -32 76t32 76q32 32 78 32
q45 0 77 -32zM1043 2042v-119h-654v119h654zM986 1766q32 -31 32 -76t-32 -76q-32 -32 -78 -32q-45 0 -76 32q-32 31 -32 76q0 44 32 76q31 32 76 32q46 0 78 -32z" />
    <glyph glyph-name="uni01D6" unicode="&#x1d6;" horiz-adv-x="1168" 
d="M1056 0h-207v186h-4q-97 -198 -351 -198q-178 0 -283 108q-106 108 -106 294v696h217v-655q0 -125 64 -191q64 -65 182 -65q122 0 196 78q75 78 75 207v626h217v-1086zM301 1293q-34 33 -34 80t34 80q33 33 81 33q49 0 81 -33q33 -32 33 -80q0 -47 -33 -80t-81 -33
t-81 33zM699 1293q-33 33 -33 80t33 80t81 33q49 0 82 -33t33 -80t-33 -80q-34 -33 -82 -33t-81 33zM904 1658h-646v119h646v-119z" />
    <glyph glyph-name="uni01D7" unicode="&#x1d7;" horiz-adv-x="1434" 
d="M820 2081h212l-237 -218h-163zM446 1614q-32 31 -32 76t32 76q32 32 78 32q45 0 77 -32q31 -32 31 -76q0 -45 -31 -76q-32 -32 -77 -32q-46 0 -78 32zM832 1614q-32 31 -32 76q0 44 32 76q31 32 76 32q46 0 78 -32q32 -31 32 -76t-32 -76q-32 -32 -78 -32q-45 0 -76 32z
M356 526q0 -158 94 -253q97 -98 266 -98t267 98q94 95 94 253v917h223v-936q0 -237 -156 -382q-160 -149 -428 -149t-428 149q-156 145 -156 382v936h224v-917z" />
    <glyph glyph-name="uni01D8" unicode="&#x1d8;" horiz-adv-x="1168" 
d="M662 1864h212l-206 -261h-174zM294 1295q-35 35 -35 84t35 84q36 35 86 35t85 -35q35 -34 35 -84q0 -49 -35 -84t-85 -35t-86 35zM697 1295q-35 35 -35 84t35 84q36 35 86 35t85 -35q35 -34 35 -84q0 -49 -35 -84t-85 -35t-86 35zM1056 0h-207v186h-4q-97 -198 -351 -198
q-178 0 -283 108q-106 108 -106 294v696h217v-655q0 -125 64 -191q64 -65 182 -65q122 0 196 78q75 78 75 207v626h217v-1086z" />
    <glyph glyph-name="uni01D9" unicode="&#x1d9;" horiz-adv-x="1434" 
d="M364 2085h198l146 -125h16l146 125h198l-263 -222h-178zM601 1766q31 -32 31 -76q0 -45 -31 -76q-32 -32 -77 -32q-46 0 -78 32q-32 31 -32 76t32 76q32 32 78 32q45 0 77 -32zM986 1766q32 -31 32 -76t-32 -76q-32 -32 -78 -32q-45 0 -76 32q-32 31 -32 76q0 44 32 76
q31 32 76 32q46 0 78 -32zM356 526q0 -158 94 -253q97 -98 266 -98t267 98q94 95 94 253v917h223v-936q0 -237 -156 -382q-160 -149 -428 -149t-428 149q-156 145 -156 382v936h224v-917z" />
    <glyph glyph-name="uni01DA" unicode="&#x1da;" horiz-adv-x="1168" 
d="M298 1295q-35 34 -35 82q0 49 35 83q34 34 84 34q49 0 84 -34q34 -34 34 -83q0 -48 -34 -82q-35 -35 -84 -35t-84 35zM697 1295q-35 34 -35 82q0 49 35 83q34 34 83 34q50 0 84 -34q35 -34 35 -83q0 -48 -35 -82q-35 -35 -84 -35t-83 35zM483 1596l-260 271h183l172 -180
h6l172 180h183l-260 -271h-196zM1056 0h-207v186h-4q-97 -198 -351 -198q-178 0 -283 108q-106 108 -106 294v696h217v-655q0 -125 64 -191q64 -65 182 -65q122 0 196 78q75 78 75 207v626h217v-1086z" />
    <glyph glyph-name="uni01DB" unicode="&#x1db;" horiz-adv-x="1434" 
d="M637 1863l-237 218h212l188 -218h-163zM446 1614q-32 31 -32 76t32 76q32 32 78 32q45 0 77 -32q31 -32 31 -76q0 -45 -31 -76q-32 -32 -77 -32q-46 0 -78 32zM832 1614q-32 31 -32 76q0 44 32 76q31 32 76 32q46 0 78 -32q32 -31 32 -76t-32 -76q-32 -32 -78 -32
q-45 0 -76 32zM356 526q0 -158 94 -253q97 -98 266 -98t267 98q94 95 94 253v917h223v-936q0 -237 -156 -382q-160 -149 -428 -149t-428 149q-156 145 -156 382v936h224v-917z" />
    <glyph glyph-name="uni01DC" unicode="&#x1dc;" horiz-adv-x="1168" 
d="M496 1607l-207 260h216l165 -260h-174zM294 1295q-35 35 -35 84t35 84q36 35 86 35t85 -35q35 -34 35 -84q0 -49 -35 -84t-85 -35t-86 35zM697 1295q-35 35 -35 84t35 84q36 35 86 35t85 -35q35 -34 35 -84q0 -49 -35 -84t-85 -35t-86 35zM1056 0h-207v186h-4
q-97 -198 -351 -198q-178 0 -283 108q-106 108 -106 294v696h217v-655q0 -125 64 -191q64 -65 182 -65q122 0 196 78q75 78 75 207v626h217v-1086z" />
    <glyph glyph-name="uni01DE" unicode="&#x1de;" horiz-adv-x="1336" 
d="M940 390h-550l-132 -390h-233l521 1443h242l521 -1443h-237zM447 570h436l-215 633h-6zM552 1766q31 -32 31 -76q0 -45 -31 -76q-32 -32 -77 -32q-46 0 -78 32q-32 31 -32 76t32 76q32 32 78 32q45 0 77 -32zM994 2042v-119h-654v119h654zM937 1766q32 -31 32 -76
t-32 -76q-32 -32 -78 -32q-45 0 -76 32q-32 31 -32 76q0 44 32 76q31 32 76 32q46 0 78 -32z" />
    <glyph glyph-name="uni01DF" unicode="&#x1df;" horiz-adv-x="1092" 
d="M689 231q81 70 81 177v85l-264 -18q-225 -14 -225 -160q0 -70 56 -111q56 -42 150 -42q121 0 202 69zM164 77q-102 89 -102 234q0 142 107 223q106 81 308 94l293 17v84q0 93 -60 143q-59 49 -168 49q-88 0 -149 -42q-60 -42 -74 -113h-203q5 144 127 239t305 95
q199 0 317 -97q119 -97 119 -258v-745h-207v181h-5q-45 -88 -138 -140t-205 -52q-163 0 -265 88zM264 1293q-34 33 -34 80t34 80q33 33 81 33q49 0 81 -33q33 -32 33 -80q0 -47 -33 -80t-81 -33t-81 33zM662 1293q-33 33 -33 80t33 80t81 33q49 0 82 -33t33 -80t-33 -80
q-34 -33 -82 -33t-81 33zM867 1658h-646v119h646v-119z" />
    <glyph glyph-name="uni01E0" unicode="&#x1e0;" horiz-adv-x="1336" 
d="M940 390h-550l-132 -390h-233l521 1443h242l521 -1443h-237zM447 570h436l-215 633h-6zM579 1603q-36 36 -36 87q0 50 36 86q36 35 88 35t88 -35q36 -36 36 -86q0 -51 -36 -87t-88 -36t-88 36zM994 1923h-654v119h654v-119z" />
    <glyph glyph-name="uni01E1" unicode="&#x1e1;" horiz-adv-x="1092" 
d="M689 231q81 70 81 177v85l-264 -18q-225 -14 -225 -160q0 -70 56 -111q56 -42 150 -42q121 0 202 69zM164 77q-102 89 -102 234q0 142 107 223q106 81 308 94l293 17v84q0 93 -60 143q-59 49 -168 49q-88 0 -149 -42q-60 -42 -74 -113h-203q5 144 127 239t305 95
q199 0 317 -97q119 -97 119 -258v-745h-207v181h-5q-45 -88 -138 -140t-205 -52q-163 0 -265 88zM451 1296q-39 39 -39 93q0 53 39 92t93 39t93 -39t39 -92q0 -54 -39 -93q-39 -38 -93 -38t-93 38zM867 1660h-646v119h646v-119z" />
    <glyph glyph-name="uni01E2" unicode="&#x1e2;" horiz-adv-x="1997" 
d="M514 607h449v656h-151zM963 428h-527l-196 -428h-227l661 1443h1189v-193h-685v-430h648v-186h-648v-441h685v-193h-900v428zM1744 1636h-654v119h654v-119z" />
    <glyph glyph-name="uni01E3" unicode="&#x1e3;" horiz-adv-x="1796" 
d="M875 204h-9q-131 -215 -406 -215q-181 0 -290 87q-108 87 -108 231q0 143 107 225q107 83 307 93l293 15v74q0 92 -65 150q-64 57 -168 57q-97 0 -156 -42q-60 -42 -67 -113h-206q9 148 125 240q117 94 298 94q133 0 231 -52q97 -52 138 -145h8q115 197 362 197
q213 0 339 -145q125 -145 125 -391v-75h-755v-14q0 -142 80 -227t214 -85q192 0 242 155h207q-24 -149 -149 -240t-304 -91q-281 0 -393 217zM1064 846q-76 -77 -85 -204h536q-3 130 -73 205q-69 76 -185 76q-117 0 -193 -77zM685 233q84 71 84 175v80l-266 -15
q-222 -12 -222 -158q0 -70 54 -111q54 -42 144 -42q122 0 206 71zM1222 1312h-646v119h646v-119z" />
    <glyph glyph-name="Gcaron" unicode="&#x1e6;" horiz-adv-x="1462" 
d="M374 1853h188l182 -199h4l182 199h188l-286 -306h-172zM1375 600q0 -293 -164 -459q-165 -165 -458 -165q-310 0 -491 202q-182 203 -182 550q0 341 181 540q180 199 489 199q241 0 409 -131q167 -131 205 -347h-230q-40 134 -141 208t-242 74q-207 0 -324 -143
q-118 -144 -118 -398q0 -259 120 -408q120 -150 326 -150q175 0 286 102q111 103 113 267v25h-373v181h594v-147z" />
    <glyph glyph-name="gcaron" unicode="&#x1e7;" horiz-adv-x="1192" 
d="M494 1251l-273 307h185l164 -194h6l164 194h185l-273 -307h-158zM784 282q80 100 80 264q0 165 -80 266q-81 101 -213 101q-131 0 -210 -100q-78 -100 -78 -267q0 -166 78 -265q79 -98 210 -98q132 0 213 99zM248 -307q-128 84 -144 223h219q18 -63 88 -100t170 -37
q129 0 206 63t77 169v179h-5q-101 -187 -345 -187q-204 0 -328 148q-125 149 -125 396q0 251 125 401q124 149 333 149q240 0 347 -191h4v180h210v-1058q0 -194 -137 -307q-136 -112 -371 -112q-196 0 -324 84z" />
    <glyph glyph-name="uni01E8" unicode="&#x1e8;" horiz-adv-x="1293" 
d="M132 0v1443h224v-687h9l603 687h266l-572 -639l620 -804h-278l-500 650l-148 -169v-481h-224zM256 1853h188l182 -199h4l182 199h188l-286 -306h-172z" />
    <glyph glyph-name="uni01E9" unicode="&#x1e9;" horiz-adv-x="1062" 
d="M785 1086h255l-454 -468l470 -618h-250l-375 486l-94 -92v-394h-217v1508h217v-891zM-144 1918h188l182 -199h4l182 199h188l-286 -306h-172z" />
    <glyph glyph-name="uni01EA" unicode="&#x1ea;" horiz-adv-x="1513" 
d="M1121 -423q-43 -17 -116 -17q-109 0 -176 58q-68 59 -68 153q0 132 110 218v4q-52 -17 -114 -17q-316 0 -496 199q-181 200 -181 547q0 345 181 545q182 200 496 200q313 0 493 -200q181 -199 181 -545q0 -383 -249 -608q-30 -27 -92 -77q-55 -45 -79 -67
q-78 -75 -78 -151q0 -51 33 -82t87 -31q42 0 68 8v-137zM430 1122q-121 -147 -121 -400q0 -255 120 -402t328 -147q206 0 326 147q119 148 119 402t-119 401q-120 147 -326 147q-207 0 -327 -148z" />
    <glyph glyph-name="uni01EB" unicode="&#x1eb;" horiz-adv-x="1152" 
d="M609 -378q-65 61 -65 160q0 110 103 204v3q-32 -2 -72 -2q-236 0 -375 150t-139 406t139 406q139 151 375 151t374 -151q139 -150 139 -406q0 -286 -192 -460q-181 -167 -181 -268q0 -50 32 -80q33 -30 86 -30q42 0 80 9v-134q-55 -20 -134 -20q-104 0 -170 62zM791 267
q77 99 77 276q0 178 -77 277q-78 100 -216 100t-216 -100t-78 -277t78 -276q78 -100 216 -100t216 100z" />
    <glyph glyph-name="uni01EC" unicode="&#x1ec;" horiz-adv-x="1513" 
d="M1121 -423q-43 -17 -116 -17q-109 0 -176 58q-68 59 -68 153q0 132 110 218v4q-52 -17 -114 -17q-316 0 -496 199q-181 200 -181 547q0 345 181 545q182 200 496 200q313 0 493 -200q181 -199 181 -545q0 -383 -249 -608q-30 -27 -92 -77q-55 -45 -79 -67
q-78 -75 -78 -151q0 -51 33 -82t87 -31q42 0 68 8v-137zM430 1122q-121 -147 -121 -400q0 -255 120 -402t328 -147q206 0 326 147q119 148 119 402t-119 401q-120 147 -326 147q-207 0 -327 -148zM1083 1636h-654v119h654v-119z" />
    <glyph glyph-name="uni01ED" unicode="&#x1ed;" horiz-adv-x="1152" 
d="M898 1312h-646v119h646v-119zM609 -378q-65 61 -65 160q0 110 103 204v3q-32 -2 -72 -2q-236 0 -375 150t-139 406t139 406q139 151 375 151t374 -151q139 -150 139 -406q0 -286 -192 -460q-181 -167 -181 -268q0 -50 32 -80q33 -30 86 -30q42 0 80 9v-134
q-55 -20 -134 -20q-104 0 -170 62zM791 267q77 99 77 276q0 178 -77 277q-78 100 -216 100t-216 -100t-78 -277t78 -276q78 -100 216 -100t216 100z" />
    <glyph glyph-name="uni01F1" unicode="&#x1f1;" horiz-adv-x="2686" 
d="M1507 153l790 1089v8h-766v193h1041v-153l-787 -1089v-7h806v-194h-1084v153zM649 1443q323 0 503 -189t180 -530q0 -342 -180 -533t-503 -191h-517v1443h517zM356 194h272q230 0 353 136q123 137 123 392t-123 392q-123 136 -353 136h-272v-1056z" />
    <glyph glyph-name="uni01F2" unicode="&#x1f2;" horiz-adv-x="2428" 
d="M1501 141l584 769v3h-581v173h828v-149l-570 -760v-4h576v-173h-837v141zM649 1443q323 0 503 -189t180 -530q0 -342 -180 -533t-503 -191h-517v1443h517zM356 194h272q230 0 353 136q123 137 123 392t-123 392q-123 136 -353 136h-272v-1056z" />
    <glyph glyph-name="uni01F3" unicode="&#x1f3;" horiz-adv-x="2215" 
d="M1288 141l584 769v3h-581v173h828v-149l-570 -760v-4h576v-173h-837v141zM188 141q-127 152 -127 403q0 249 127 402q126 151 329 151q243 0 342 -191h5v602h216v-1508h-210v184h-4q-101 -195 -347 -195q-205 0 -331 152zM363 812q-80 -101 -80 -269q0 -169 80 -269
q79 -101 211 -101q131 0 211 102t80 268t-80 268q-81 102 -211 102q-131 0 -211 -101z" />
    <glyph glyph-name="uni01F4" unicode="&#x1f4;" horiz-adv-x="1462" 
d="M658 1551l231 303h225l-280 -303h-176zM1375 600q0 -293 -164 -459q-165 -165 -458 -165q-310 0 -491 202q-182 203 -182 550q0 341 181 540q180 199 489 199q241 0 409 -131q167 -131 205 -347h-230q-40 134 -141 208t-242 74q-207 0 -324 -143q-118 -144 -118 -398
q0 -259 120 -408q120 -150 326 -150q175 0 286 102q111 103 113 267v25h-373v181h594v-147z" />
    <glyph glyph-name="uni01F5" unicode="&#x1f5;" horiz-adv-x="1192" 
d="M482 1255l215 303h225l-262 -303h-178zM784 282q80 100 80 264q0 165 -80 266q-81 101 -213 101q-131 0 -210 -100q-78 -100 -78 -267q0 -166 78 -265q79 -98 210 -98q132 0 213 99zM248 -307q-128 84 -144 223h219q18 -63 88 -100t170 -37q129 0 206 63t77 169v179h-5
q-101 -187 -345 -187q-204 0 -328 148q-125 149 -125 396q0 251 125 401q124 149 333 149q240 0 347 -191h4v180h210v-1058q0 -194 -137 -307q-136 -112 -371 -112q-196 0 -324 84z" />
    <glyph glyph-name="uni01F8" unicode="&#x1f8;" horiz-adv-x="1443" 
d="M354 1856h225l231 -303h-176zM132 0v1443h203l748 -1064h8v1064h218v-1443h-202l-748 1063h-9v-1063h-218z" />
    <glyph glyph-name="uni01F9" unicode="&#x1f9;" horiz-adv-x="1168" 
d="M492 1255l-262 303h225l215 -303h-178zM110 1086h207v-183h4q101 195 353 195q180 0 284 -107q103 -108 103 -295v-696h-217v655q0 124 -63 190q-63 67 -182 67q-123 0 -197 -78q-75 -79 -75 -207v-627h-217v1086z" />
    <glyph glyph-name="Aringacute" unicode="&#x1fa;" horiz-adv-x="1336" 
d="M940 390h-550l-132 -390h-233l521 1443h242l521 -1443h-237zM447 570h436l-215 633h-6zM524 1542q-59 59 -59 142t59 141q59 59 143 59t143 -58q59 -59 59 -142t-59 -142q-59 -58 -143 -58t-143 58zM744 1607q32 31 32 77q0 45 -32 77q-31 31 -77 31t-77 -31
q-32 -32 -32 -77q0 -46 32 -77q31 -32 77 -32t77 32zM919 2114l-175 -188h-146l119 188h202z" />
    <glyph glyph-name="aringacute" unicode="&#x1fb;" horiz-adv-x="1092" 
d="M689 231q81 70 81 177v85l-264 -18q-225 -14 -225 -160q0 -70 56 -111q56 -42 150 -42q121 0 202 69zM164 77q-102 89 -102 234q0 142 107 223q106 81 308 94l293 17v84q0 93 -60 143q-59 49 -168 49q-88 0 -149 -42q-60 -42 -74 -113h-203q5 144 127 239t305 95
q199 0 317 -97q119 -97 119 -258v-745h-207v181h-5q-45 -88 -138 -140t-205 -52q-163 0 -265 88zM399 1253q-60 59 -60 144q0 86 60 145q60 60 146 60t145 -60q60 -59 60 -145q0 -85 -60 -144q-60 -60 -145 -60q-86 0 -146 60zM467 1320q32 -32 78 -32q45 0 77 32t32 77
q0 46 -32 78t-77 32q-46 0 -78 -32t-32 -78q0 -45 32 -77zM595 1876h186l-165 -203h-146z" />
    <glyph glyph-name="AEacute" unicode="&#x1fc;" horiz-adv-x="1997" 
d="M1329 1551l231 303h225l-280 -303h-176zM514 607h449v656h-151zM963 428h-527l-196 -428h-227l661 1443h1189v-193h-685v-430h648v-186h-648v-441h685v-193h-900v428z" />
    <glyph glyph-name="aeacute" unicode="&#x1fd;" horiz-adv-x="1796" 
d="M808 1255l215 303h225l-262 -303h-178zM875 204h-9q-131 -215 -406 -215q-181 0 -290 87q-108 87 -108 231q0 143 107 225q107 83 307 93l293 15v74q0 92 -65 150q-64 57 -168 57q-97 0 -156 -42q-60 -42 -67 -113h-206q9 148 125 240q117 94 298 94q133 0 231 -52
q97 -52 138 -145h8q115 197 362 197q213 0 339 -145q125 -145 125 -391v-75h-755v-14q0 -142 80 -227t214 -85q192 0 242 155h207q-24 -149 -149 -240t-304 -91q-281 0 -393 217zM1064 846q-76 -77 -85 -204h536q-3 130 -73 205q-69 76 -185 76q-117 0 -193 -77zM685 233
q84 71 84 175v80l-266 -15q-222 -12 -222 -158q0 -70 54 -111q54 -42 144 -42q122 0 206 71z" />
    <glyph glyph-name="Oslashacute" unicode="&#x1fe;" horiz-adv-x="1513" 
d="M870 1551h-176l231 303h225zM508 248q104 -75 248 -75q205 0 326 148q120 148 120 400q0 216 -89 357zM1033 1173q-112 97 -277 97q-206 0 -326 -148q-121 -148 -121 -401q0 -240 110 -386zM1250 1266q182 -201 182 -545t-182 -545q-182 -200 -494 -200q-215 0 -374 99
l-94 -129l-101 73l98 134q-205 202 -205 568q0 344 182 545t494 201q238 0 404 -120l108 147l101 -65z" />
    <glyph glyph-name="oslashacute" unicode="&#x1ff;" horiz-adv-x="1152" 
d="M682 1255h-178l215 303h225zM429 204q63 -37 146 -37q138 0 216 99q77 99 77 277q0 149 -55 244zM729 878q-67 42 -154 42q-138 0 -216 -100t-78 -277q0 -154 59 -250zM932 967q156 -150 156 -424q0 -256 -139 -406q-138 -150 -374 -150q-141 0 -252 57l-61 -93l-104 67
l64 97q-161 150 -161 428q0 255 140 406q139 151 374 151q150 0 260 -62l65 98l102 -62z" />
    <glyph glyph-name="uni0200" unicode="&#x200;" horiz-adv-x="1336" 
d="M940 390h-550l-132 -390h-233l521 1443h242l521 -1443h-237zM447 570h436l-215 633h-6zM475 1854h217l231 -303h-169zM134 1854h217l231 -303h-168z" />
    <glyph glyph-name="uni0201" unicode="&#x201;" horiz-adv-x="1092" 
d="M689 231q81 70 81 177v85l-264 -18q-225 -14 -225 -160q0 -70 56 -111q56 -42 150 -42q121 0 202 69zM164 77q-102 89 -102 234q0 142 107 223q106 81 308 94l293 17v84q0 93 -60 143q-59 49 -168 49q-88 0 -149 -42q-60 -42 -74 -113h-203q5 144 127 239t305 95
q199 0 317 -97q119 -97 119 -258v-745h-207v181h-5q-45 -88 -138 -140t-205 -52q-163 0 -265 88zM298 1255l-247 303h215l194 -303h-162zM633 1255l-247 303h216l193 -303h-162z" />
    <glyph glyph-name="uni0202" unicode="&#x202;" horiz-adv-x="1336" 
d="M940 390h-550l-132 -390h-233l521 1443h242l521 -1443h-237zM447 570h436l-215 633h-6zM342 1547q1 134 90 219q90 87 235 87t235 -87q89 -85 90 -219h-140q0 80 -52 134q-53 54 -133 54t-133 -54q-52 -54 -52 -134h-140z" />
    <glyph glyph-name="uni0203" unicode="&#x203;" horiz-adv-x="1092" 
d="M689 231q81 70 81 177v85l-264 -18q-225 -14 -225 -160q0 -70 56 -111q56 -42 150 -42q121 0 202 69zM164 77q-102 89 -102 234q0 142 107 223q106 81 308 94l293 17v84q0 93 -60 143q-59 49 -168 49q-88 0 -149 -42q-60 -42 -74 -113h-203q5 144 127 239t305 95
q199 0 317 -97q119 -97 119 -258v-745h-207v181h-5q-45 -88 -138 -140t-205 -52q-163 0 -265 88zM209 1251q1 139 92 226q93 88 243 88t243 -88q91 -87 92 -226h-143q-1 82 -55 137q-55 56 -137 56t-137 -56q-54 -55 -55 -137h-143z" />
    <glyph glyph-name="uni0204" unicode="&#x204;" horiz-adv-x="1146" 
d="M398 1854h217l231 -303h-169zM57 1854h217l231 -303h-168zM1048 0h-916v1443h916v-193h-692v-422h655v-186h-655v-448h692v-194z" />
    <glyph glyph-name="uni0205" unicode="&#x205;" horiz-adv-x="1113" 
d="M368 845q-78 -78 -87 -203h551q-4 127 -78 204t-192 77q-117 0 -194 -78zM1038 318q-23 -146 -153 -239q-130 -92 -313 -92q-236 0 -374 149q-137 148 -137 403t137 408t365 153q224 0 355 -145q131 -144 131 -391v-76h-769v-13q0 -141 81 -226q81 -86 215 -86
q95 0 164 42t91 113h207zM317 1255l-247 303h215l194 -303h-162zM652 1255l-247 303h216l193 -303h-162z" />
    <glyph glyph-name="uni0206" unicode="&#x206;" horiz-adv-x="1146" 
d="M1048 0h-916v1443h916v-193h-692v-422h655v-186h-655v-448h692v-194zM265 1547q1 134 90 219q90 87 235 87t235 -87q89 -85 90 -219h-140q0 80 -52 134q-53 54 -133 54t-133 -54q-52 -54 -52 -134h-140z" />
    <glyph glyph-name="uni0207" unicode="&#x207;" horiz-adv-x="1113" 
d="M368 845q-78 -78 -87 -203h551q-4 127 -78 204t-192 77q-117 0 -194 -78zM1038 318q-23 -146 -153 -239q-130 -92 -313 -92q-236 0 -374 149q-137 148 -137 403t137 408t365 153q224 0 355 -145q131 -144 131 -391v-76h-769v-13q0 -141 81 -226q81 -86 215 -86
q95 0 164 42t91 113h207zM228 1251q1 139 92 226q93 88 243 88t243 -88q91 -87 92 -226h-143q-1 82 -55 137q-55 56 -137 56t-137 -56q-54 -55 -55 -137h-143z" />
    <glyph glyph-name="uni0208" unicode="&#x208;" horiz-adv-x="490" 
d="M133 0v1443h224v-1443h-224zM53 1854h217l231 -303h-169zM-288 1854h217l231 -303h-168z" />
    <glyph glyph-name="uni0209" unicode="&#x209;" horiz-adv-x="455" 
d="M119 1086h217v-1086h-217v1086zM-18 1255l-247 303h215l194 -303h-162zM317 1255l-247 303h216l193 -303h-162z" />
    <glyph glyph-name="uni020A" unicode="&#x20a;" horiz-adv-x="490" 
d="M133 0v1443h224v-1443h-224zM-80 1547q1 134 90 219q90 87 235 87t235 -87q89 -85 90 -219h-140q0 80 -52 134q-53 54 -133 54t-133 -54q-52 -54 -52 -134h-140z" />
    <glyph glyph-name="uni020B" unicode="&#x20b;" horiz-adv-x="455" 
d="M119 1086h217v-1086h-217v1086zM-107 1251q1 139 92 226q93 88 243 88t243 -88q91 -87 92 -226h-143q-1 82 -55 137q-55 56 -137 56t-137 -56q-54 -55 -55 -137h-143z" />
    <glyph glyph-name="uni020C" unicode="&#x20c;" horiz-adv-x="1513" 
d="M564 1854h217l231 -303h-169zM223 1854h217l231 -303h-168zM1250 1266q182 -201 182 -545t-182 -545q-182 -200 -494 -200t-494 200q-182 201 -182 545t182 545t494 201q311 0 494 -201zM430 1122q-121 -148 -121 -401q0 -252 121 -400q120 -148 326 -148q205 0 326 148
q120 148 120 400q0 253 -120 401q-121 148 -326 148q-206 0 -326 -148z" />
    <glyph glyph-name="uni020D" unicode="&#x20d;" horiz-adv-x="1152" 
d="M200 137q-139 150 -139 406q0 255 140 406q139 151 374 151t374 -150q139 -151 139 -407t-139 -406q-138 -150 -374 -150t-375 150zM791 266q77 99 77 277t-77 277q-78 100 -216 100t-216 -100t-78 -277t78 -277q78 -99 216 -99t216 99zM329 1255l-247 303h215l194 -303
h-162zM664 1255l-247 303h216l193 -303h-162z" />
    <glyph glyph-name="uni020E" unicode="&#x20e;" horiz-adv-x="1513" 
d="M431 1547q1 134 90 219q90 87 235 87t235 -87q89 -85 90 -219h-140q0 80 -52 134q-53 54 -133 54t-133 -54q-52 -54 -52 -134h-140zM1250 1266q182 -201 182 -545t-182 -545q-182 -200 -494 -200t-494 200q-182 201 -182 545t182 545t494 201q311 0 494 -201zM430 1122
q-121 -148 -121 -401q0 -252 121 -400q120 -148 326 -148q205 0 326 148q120 148 120 400q0 253 -120 401q-121 148 -326 148q-206 0 -326 -148z" />
    <glyph glyph-name="uni020F" unicode="&#x20f;" horiz-adv-x="1152" 
d="M200 137q-139 150 -139 406q0 255 140 406q139 151 374 151t374 -150q139 -151 139 -407t-139 -406q-138 -150 -374 -150t-375 150zM791 266q77 99 77 277t-77 277q-78 100 -216 100t-216 -100t-78 -277t78 -277q78 -99 216 -99t216 99zM240 1251q1 139 92 226
q93 88 243 88t243 -88q91 -87 92 -226h-143q-1 82 -55 137q-55 56 -137 56t-137 -56q-54 -55 -55 -137h-143z" />
    <glyph glyph-name="uni0210" unicode="&#x210;" horiz-adv-x="1265" 
d="M371 1854h217l231 -303h-169zM30 1854h217l231 -303h-168zM356 736h322q130 0 201 68q72 68 72 192q0 121 -75 190q-74 69 -204 69h-316v-519zM356 0h-224v1443h567q222 0 352 -120q130 -119 130 -321q0 -147 -74 -257q-75 -111 -206 -155l324 -590h-259l-294 555h-316
v-555z" />
    <glyph glyph-name="uni0211" unicode="&#x211;" horiz-adv-x="688" 
d="M111 1086h207v-183h4q25 91 96 142q70 52 166 52q45 0 72 -8v-203q-36 14 -95 14q-107 0 -170 -69q-63 -68 -63 -183v-648h-217v1086zM133 1255l-247 303h215l194 -303h-162zM468 1255l-247 303h216l193 -303h-162z" />
    <glyph glyph-name="uni0212" unicode="&#x212;" horiz-adv-x="1265" 
d="M356 736h322q130 0 201 68q72 68 72 192q0 121 -75 190q-74 69 -204 69h-316v-519zM356 0h-224v1443h567q222 0 352 -120q130 -119 130 -321q0 -147 -74 -257q-75 -111 -206 -155l324 -590h-259l-294 555h-316v-555zM238 1547q1 134 90 219q90 87 235 87t235 -87
q89 -85 90 -219h-140q0 80 -52 134q-53 54 -133 54t-133 -54q-52 -54 -52 -134h-140z" />
    <glyph glyph-name="uni0213" unicode="&#x213;" horiz-adv-x="688" 
d="M110 1086h207v-183h4q25 91 96 142q70 52 166 52q45 0 72 -8v-203q-36 14 -95 14q-107 0 -170 -69q-63 -68 -63 -183v-648h-217v1086zM43 1251q1 139 92 226q93 88 243 88t243 -88q91 -87 92 -226h-143q-1 82 -55 137q-55 56 -137 56t-137 -56q-54 -55 -55 -137h-143z
" />
    <glyph glyph-name="uni0214" unicode="&#x214;" horiz-adv-x="1434" 
d="M524 1854h217l231 -303h-169zM183 1854h217l231 -303h-168zM356 526q0 -158 94 -253q97 -98 266 -98t267 98q94 95 94 253v917h223v-936q0 -237 -156 -382q-160 -149 -428 -149t-428 149q-156 145 -156 382v936h224v-917z" />
    <glyph glyph-name="uni0215" unicode="&#x215;" horiz-adv-x="1168" 
d="M1056 0h-207v186h-4q-97 -198 -351 -198q-178 0 -283 108q-106 108 -106 294v696h217v-655q0 -125 64 -191q64 -65 182 -65q122 0 196 78q75 78 75 207v626h217v-1086zM335 1255l-247 303h215l194 -303h-162zM670 1255l-247 303h216l193 -303h-162z" />
    <glyph glyph-name="uni0216" unicode="&#x216;" horiz-adv-x="1434" 
d="M356 526q0 -158 94 -253q97 -98 266 -98t267 98q94 95 94 253v917h223v-936q0 -237 -156 -382q-160 -149 -428 -149t-428 149q-156 145 -156 382v936h224v-917zM391 1547q1 134 90 219q90 87 235 87t235 -87q89 -85 90 -219h-140q0 80 -52 134q-53 54 -133 54t-133 -54
q-52 -54 -52 -134h-140z" />
    <glyph glyph-name="uni0217" unicode="&#x217;" horiz-adv-x="1168" 
d="M1056 0h-207v186h-4q-97 -198 -351 -198q-178 0 -283 108q-106 108 -106 294v696h217v-655q0 -125 64 -191q64 -65 182 -65q122 0 196 78q75 78 75 207v626h217v-1086zM246 1251q1 139 92 226q93 88 243 88t243 -88q91 -87 92 -226h-143q-1 82 -55 137q-55 56 -137 56
t-137 -56q-54 -55 -55 -137h-143z" />
    <glyph glyph-name="uni0218" unicode="&#x218;" horiz-adv-x="1244" 
d="M289 402q12 -107 107 -172t238 -65q136 0 225 63q88 63 88 160q0 84 -63 137q-63 54 -203 88l-187 45q-388 94 -388 389q0 186 147 303q146 117 378 117q228 0 372 -117q144 -116 149 -303h-218q-10 107 -93 170q-82 61 -213 61q-130 0 -212 -60q-81 -60 -81 -156
q0 -76 61 -125q61 -48 201 -83l159 -39q222 -52 321 -147q98 -94 98 -253q0 -202 -150 -321q-150 -118 -407 -118q-241 0 -390 115q-150 116 -160 311h221zM443 -526l102 360h190l-133 -360h-159z" />
    <glyph glyph-name="uni0219" unicode="&#x219;" horiz-adv-x="1018" 
d="M209 1010q117 89 304 89q178 0 295 -91q116 -90 120 -232h-204q-7 72 -65 114t-151 42q-92 0 -149 -39q-56 -40 -56 -104q0 -98 169 -139l180 -43q164 -40 232 -106t68 -186q0 -145 -125 -237q-125 -91 -322 -91q-189 0 -310 90q-120 89 -132 237h214q26 -161 239 -161
q101 0 161 39q59 39 59 105q0 52 -36 82q-35 30 -121 52l-194 48q-293 72 -293 298q0 143 117 233zM328 -526l102 360h190l-133 -360h-159z" />
    <glyph glyph-name="uni021A" unicode="&#x21a;" horiz-adv-x="1222" 
d="M434 -526l102 360h190l-133 -360h-159zM498 0v1250h-450v193h1123v-193h-449v-1250h-224z" />
    <glyph glyph-name="uni021B" unicode="&#x21b;" horiz-adv-x="672" 
d="M211 -526l102 360h190l-133 -360h-159zM391 1330v-244h208v-171h-208v-607q0 -138 133 -138q39 0 74 5v-171q-44 -11 -122 -11q-163 0 -232 68q-69 67 -69 225v629h-150v171h150v244h216z" />
    <glyph glyph-name="uni021E" unicode="&#x21e;" horiz-adv-x="1454" 
d="M1097 0v639h-741v-639h-224v1443h224v-610h741v610h224v-1443h-224zM354 1853h188l182 -199h4l182 199h188l-286 -306h-172z" />
    <glyph glyph-name="uni021F" unicode="&#x21f;" horiz-adv-x="1195" 
d="M120 1508h215v-605h5q99 195 353 195q179 0 288 -110q108 -110 108 -294v-694h-216v652q0 122 -68 191t-187 69q-126 0 -203 -80q-78 -80 -78 -210v-622h-217v1508zM-143 1918h188l182 -199h4l182 199h188l-286 -306h-172z" />
    <glyph glyph-name="uni0226" unicode="&#x226;" horiz-adv-x="1336" 
d="M940 390h-550l-132 -390h-233l521 1443h242l521 -1443h-237zM447 570h436l-215 633h-6zM574 1615q-38 38 -38 92q0 55 38 93t93 38t93 -38t38 -93q0 -54 -38 -92q-38 -39 -93 -39t-93 39z" />
    <glyph glyph-name="uni0227" unicode="&#x227;" horiz-adv-x="1092" 
d="M689 231q81 70 81 177v85l-264 -18q-225 -14 -225 -160q0 -70 56 -111q56 -42 150 -42q121 0 202 69zM164 77q-102 89 -102 234q0 142 107 223q106 81 308 94l293 17v84q0 93 -60 143q-59 49 -168 49q-88 0 -149 -42q-60 -42 -74 -113h-203q5 144 127 239t305 95
q199 0 317 -97q119 -97 119 -258v-745h-207v181h-5q-45 -88 -138 -140t-205 -52q-163 0 -265 88zM449 1301q-39 39 -39 93q0 55 39 94q40 39 95 39t94 -39t39 -94q0 -54 -39 -93t-94 -39t-95 39z" />
    <glyph glyph-name="uni0228" unicode="&#x228;" horiz-adv-x="1146" 
d="M356 1250v-422h655v-186h-655v-448h692v-194h-381l-51 -132q200 0 200 -154q0 -80 -62 -130q-63 -49 -164 -50q-85 -2 -145 17v105q37 -14 118 -14q115 0 115 66q0 63 -141 63h-55v83l59 146h-409v1443h916v-193h-692z" />
    <glyph glyph-name="uni0229" unicode="&#x229;" horiz-adv-x="1113" 
d="M832 642q-4 127 -78 204t-192 77q-117 0 -194 -78q-78 -78 -87 -203h551zM280 488v-13q0 -141 81 -226q81 -86 215 -86q95 0 164 42t91 113h207q-21 -131 -130 -221q-108 -89 -266 -106l-47 -123q200 0 200 -154q0 -80 -62 -130q-63 -49 -164 -50q-85 -2 -145 17v105
q37 -14 118 -14q115 0 115 66q0 63 -141 63h-55v83l55 135q-212 18 -333 164q-122 147 -122 386q0 255 137 408t365 153q224 0 355 -145q131 -144 131 -391v-76h-769z" />
    <glyph glyph-name="uni022A" unicode="&#x22a;" horiz-adv-x="1513" 
d="M1250 1266q182 -201 182 -545t-182 -545q-182 -200 -494 -200t-494 200q-182 201 -182 545t182 545t494 201q311 0 494 -201zM430 1122q-121 -148 -121 -401q0 -252 121 -400q120 -148 326 -148q205 0 326 148q120 148 120 400q0 253 -120 401q-121 148 -326 148
q-206 0 -326 -148zM641 1766q31 -32 31 -76q0 -45 -31 -76q-32 -32 -77 -32q-46 0 -78 32q-32 31 -32 76t32 76q32 32 78 32q45 0 77 -32zM1083 2042v-119h-654v119h654zM1026 1766q32 -31 32 -76t-32 -76q-32 -32 -78 -32q-45 0 -76 32q-32 31 -32 76q0 44 32 76
q31 32 76 32q46 0 78 -32z" />
    <glyph glyph-name="uni022B" unicode="&#x22b;" horiz-adv-x="1152" 
d="M295 1293q-34 33 -34 80t34 80q33 33 81 33q49 0 81 -33q33 -32 33 -80q0 -47 -33 -80t-81 -33t-81 33zM693 1293q-33 33 -33 80t33 80t81 33q49 0 82 -33t33 -80t-33 -80q-34 -33 -82 -33t-81 33zM898 1658h-646v119h646v-119zM200 137q-139 150 -139 406q0 255 140 406
q139 151 374 151t374 -150q139 -151 139 -407t-139 -406q-138 -150 -374 -150t-375 150zM791 266q77 99 77 277t-77 277q-78 100 -216 100t-216 -100t-78 -277t78 -277q78 -99 216 -99t216 99z" />
    <glyph glyph-name="uni022C" unicode="&#x22c;" horiz-adv-x="1513" 
d="M737 1609q-74 73 -106 73q-67 0 -69 -131h-130q0 121 52 190q51 68 139 68q78 0 154 -73q75 -74 103 -74q63 0 63 133h130q0 -118 -52 -190q-52 -70 -137 -70q-73 0 -147 74zM1083 1923h-654v119h654v-119zM1250 1266q182 -201 182 -545t-182 -545q-182 -200 -494 -200
t-494 200q-182 201 -182 545t182 545t494 201q311 0 494 -201zM430 1122q-121 -148 -121 -401q0 -252 121 -400q120 -148 326 -148q205 0 326 148q120 148 120 400q0 253 -120 401q-121 148 -326 148q-206 0 -326 -148z" />
    <glyph glyph-name="uni022D" unicode="&#x22d;" horiz-adv-x="1152" 
d="M564 1321q-74 73 -106 73q-67 0 -69 -130h-129q0 120 52 189q51 68 139 68q78 0 153 -73t103 -73q63 0 63 132h130q0 -118 -53 -189q-52 -70 -136 -70q-73 0 -147 73zM898 1658h-646v119h646v-119zM200 137q-139 150 -139 406q0 255 140 406q139 151 374 151t374 -150
q139 -151 139 -407t-139 -406q-138 -150 -374 -150t-375 150zM791 266q77 99 77 277t-77 277q-78 100 -216 100t-216 -100t-78 -277t78 -277q78 -99 216 -99t216 99z" />
    <glyph glyph-name="uni022E" unicode="&#x22e;" horiz-adv-x="1513" 
d="M663 1615q-38 38 -38 92q0 55 38 93t93 38t93 -38t38 -93q0 -54 -38 -92q-38 -39 -93 -39t-93 39zM1250 1266q182 -201 182 -545t-182 -545q-182 -200 -494 -200t-494 200q-182 201 -182 545t182 545t494 201q311 0 494 -201zM430 1122q-121 -148 -121 -401
q0 -252 121 -400q120 -148 326 -148q205 0 326 148q120 148 120 400q0 253 -120 401q-121 148 -326 148q-206 0 -326 -148z" />
    <glyph glyph-name="uni022F" unicode="&#x22f;" horiz-adv-x="1152" 
d="M480 1301q-39 39 -39 93q0 55 39 94q40 39 95 39t94 -39t39 -94q0 -54 -39 -93t-94 -39t-95 39zM200 137q-139 150 -139 406q0 255 140 406q139 151 374 151t374 -150q139 -151 139 -407t-139 -406q-138 -150 -374 -150t-375 150zM791 266q77 99 77 277t-77 277
q-78 100 -216 100t-216 -100t-78 -277t78 -277q78 -99 216 -99t216 99z" />
    <glyph glyph-name="uni0230" unicode="&#x230;" horiz-adv-x="1513" 
d="M668 1603q-36 36 -36 87q0 50 36 86q36 35 88 35t88 -35q36 -36 36 -86q0 -51 -36 -87t-88 -36t-88 36zM1083 1923h-654v119h654v-119zM1250 1266q182 -201 182 -545t-182 -545q-182 -200 -494 -200t-494 200q-182 201 -182 545t182 545t494 201q311 0 494 -201z
M430 1122q-121 -148 -121 -401q0 -252 121 -400q120 -148 326 -148q205 0 326 148q120 148 120 400q0 253 -120 401q-121 148 -326 148q-206 0 -326 -148z" />
    <glyph glyph-name="uni0231" unicode="&#x231;" horiz-adv-x="1152" 
d="M200 137q-139 150 -139 406q0 255 140 406q139 151 374 151t374 -150q139 -151 139 -407t-139 -406q-138 -150 -374 -150t-375 150zM791 266q77 99 77 277t-77 277q-78 100 -216 100t-216 -100t-78 -277t78 -277q78 -99 216 -99t216 99zM482 1296q-39 39 -39 93
q0 53 39 92t93 39t93 -39t39 -92q0 -54 -39 -93q-39 -38 -93 -38t-93 38zM898 1660h-646v119h646v-119z" />
    <glyph glyph-name="uni0232" unicode="&#x232;" horiz-adv-x="1293" 
d="M533 0v591l-508 852h250l368 -637h7l368 637h248l-509 -852v-591h-224zM972 1636h-654v119h654v-119z" />
    <glyph glyph-name="uni0233" unicode="&#x233;" horiz-adv-x="1066" 
d="M131 -389v176q20 -5 69 -5q78 0 123 36q46 37 74 123l17 56l-394 1089h233l279 -888h5l279 888h228l-407 -1136q-70 -195 -161 -270q-90 -75 -257 -75q-54 0 -88 6zM856 1312h-646v119h646v-119z" />
    <glyph glyph-name="uni0237" unicode="&#x237;" horiz-adv-x="454" 
d="M334 -65q0 -166 -86 -246q-86 -79 -266 -79q-42 0 -47 1v172l30 -1q85 0 119 35q35 35 35 119v1150h215v-1151z" />
    <glyph glyph-name="circumflex" unicode="&#x2c6;" horiz-adv-x="1008" 
d="M855 1251h-185l-164 194h-6l-164 -194h-185l273 307h158z" />
    <glyph glyph-name="caron" unicode="&#x2c7;" horiz-adv-x="1008" 
d="M424 1251l-273 307h185l164 -194h6l164 194h185l-273 -307h-158z" />
    <glyph glyph-name="breve" unicode="&#x2d8;" horiz-adv-x="1000" 
d="M307 1557q1 -82 55 -137q55 -56 137 -56t137 56q54 55 55 137h143q-1 -139 -92 -226q-93 -88 -243 -88t-243 88q-91 87 -92 226h143z" />
    <glyph glyph-name="dotaccent" unicode="&#x2d9;" horiz-adv-x="916" 
d="M362 1301q-39 39 -39 93q0 55 39 94q40 39 95 39t94 -39t39 -94q0 -54 -39 -93t-94 -39t-95 39z" />
    <glyph glyph-name="ring" unicode="&#x2da;" horiz-adv-x="1042" 
d="M374 1256q-61 60 -61 144q0 85 61 145q61 61 146 61t146 -61q61 -60 61 -145q0 -84 -61 -144q-61 -61 -146 -61t-146 61zM598 1323q33 32 33 77q0 46 -33 78q-32 33 -78 33t-78 -33q-33 -32 -33 -78q0 -45 33 -77q32 -33 78 -33t78 33z" />
    <glyph glyph-name="ogonek" unicode="&#x2db;" horiz-adv-x="1000" 
d="M677 -449q-54 -18 -125 -18q-100 0 -161 53t-61 141q0 154 170 273h128q-137 -111 -137 -220q0 -47 31 -76q32 -28 84 -28q33 0 71 9v-134z" />
    <glyph glyph-name="tilde" unicode="&#x2dc;" horiz-adv-x="1008" 
d="M487 1331q-74 73 -106 73q-67 0 -69 -130h-129q0 120 52 189q51 68 139 68q78 0 153 -73t103 -73q63 0 63 132h130q0 -118 -53 -189q-52 -70 -136 -70q-73 0 -147 73z" />
    <glyph glyph-name="hungarumlaut" unicode="&#x2dd;" horiz-adv-x="1000" 
d="M662 1558h215l-247 -303h-162zM327 1558h215l-247 -303h-162z" />
    <glyph glyph-name="gravecomb" unicode="&#x300;" 
d="M-93 1255l-262 303h225l215 -303h-178z" />
    <glyph glyph-name="acutecomb" unicode="&#x301;" 
d="M-91 1255l215 303h225l-262 -303h-178z" />
    <glyph glyph-name="uni0302" unicode="&#x302;" 
d="M352 1251h-185l-164 194h-6l-164 -194h-185l273 307h158z" />
    <glyph glyph-name="tildecomb" unicode="&#x303;" 
d="M-11 1331q-74 73 -106 73q-67 0 -69 -130h-129q0 120 52 189q51 68 139 68q78 0 153 -73t103 -73q63 0 63 132h130q0 -118 -53 -189q-52 -70 -136 -70q-73 0 -147 73z" />
    <glyph glyph-name="uni0304" unicode="&#x304;" 
d="M323 1312h-646v119h646v-119z" />
    <glyph glyph-name="uni0306" unicode="&#x306;" 
d="M-193 1557q1 -82 55 -137q55 -56 137 -56t137 56q54 55 55 137h143q-1 -139 -92 -226q-93 -88 -243 -88t-243 88q-91 87 -92 226h143z" />
    <glyph glyph-name="uni0307" unicode="&#x307;" 
d="M-95 1301q-39 39 -39 93q0 55 39 94q40 39 95 39t94 -39t39 -94q0 -54 -39 -93t-94 -39t-95 39z" />
    <glyph glyph-name="uni0308" unicode="&#x308;" 
d="M-287 1295q-35 35 -35 84t35 84q36 35 86 35t85 -35q35 -34 35 -84q0 -49 -35 -84t-85 -35t-86 35zM116 1295q-35 35 -35 84t35 84q36 35 86 35t85 -35q35 -34 35 -84q0 -49 -35 -84t-85 -35t-86 35z" />
    <glyph glyph-name="hookabovecomb" unicode="&#x309;" 
d="M-128 1565q61 26 139 26q93 0 149 -51q55 -50 55 -135q0 -66 -46 -122q-46 -57 -125 -87l-70 91q94 35 94 108q0 33 -27 55t-67 22q-50 0 -102 -23v116z" />
    <glyph glyph-name="uni030A" unicode="&#x30a;" 
d="M-146 1254q-61 60 -61 144q0 85 61 145q61 61 146 61t146 -61q61 -60 61 -145q0 -84 -61 -144q-61 -61 -146 -61t-146 61zM78 1321q33 32 33 77q0 46 -33 78q-32 33 -78 33t-78 -33q-33 -32 -33 -78q0 -45 33 -77q32 -33 78 -33t78 33z" />
    <glyph glyph-name="uni030B" unicode="&#x30b;" 
d="M278 1558h215l-247 -303h-162zM-57 1558h215l-247 -303h-162z" />
    <glyph glyph-name="uni030C" unicode="&#x30c;" 
d="M-79 1251l-273 307h185l164 -194h6l164 194h185l-273 -307h-158z" />
    <glyph glyph-name="uni030F" unicode="&#x30f;" 
d="M-246 1255l-247 303h215l194 -303h-162zM89 1255l-247 303h216l193 -303h-162z" />
    <glyph glyph-name="uni0311" unicode="&#x311;" 
d="M-335 1251q1 139 92 226q93 88 243 88t243 -88q91 -87 92 -226h-143q-1 82 -55 137q-55 56 -137 56t-137 -56q-54 -55 -55 -137h-143z" />
    <glyph glyph-name="uni031B" unicode="&#x31b;" 
d="M0 1113q37 -35 91 -35q57 1 82 37q25 37 25 119v155h182v-205q0 -121 -68 -194q-68 -74 -178 -74q-84 0 -134 39v158z" />
    <glyph glyph-name="dotbelowcomb" unicode="&#x323;" 
d="M-93 -377q-38 38 -38 92q0 55 38 93t93 38t93 -38t38 -93q0 -54 -38 -92q-38 -39 -93 -39t-93 39z" />
    <glyph glyph-name="uni0324" unicode="&#x324;" 
d="M-287 -366q-35 35 -35 84t35 84q36 35 86 35t85 -35q35 -34 35 -84q0 -49 -35 -84t-85 -35t-86 35zM116 -366q-35 35 -35 84t35 84q36 35 86 35t85 -35q35 -34 35 -84q0 -49 -35 -84t-85 -35t-86 35z" />
    <glyph glyph-name="uni0325" unicode="&#x325;" 
d="M-146 -505q-61 60 -61 144q0 85 61 145q61 61 146 61t146 -61q61 -60 61 -145q0 -84 -61 -144q-61 -61 -146 -61t-146 61zM78 -438q33 32 33 77q0 46 -33 78q-32 33 -78 33t-78 -33q-33 -32 -33 -78q0 -45 33 -77q32 -33 78 -33t78 33z" />
    <glyph glyph-name="uni0326" unicode="&#x326;" 
d="M-176 -526l102 360h190l-133 -360h-159z" />
    <glyph glyph-name="uni0327" unicode="&#x327;" 
d="M-108 -146l63 155l122 -9l-51 -132q200 0 200 -154q0 -80 -62 -130q-63 -49 -164 -50q-85 -2 -145 17v105q37 -14 118 -14q115 0 115 66q0 63 -141 63h-55v83z" />
    <glyph glyph-name="uni0328" unicode="&#x328;" 
d="M137 -449q-54 -18 -125 -18q-100 0 -161 53t-61 141q0 154 170 273h128q-137 -111 -137 -220q0 -47 31 -76q32 -28 84 -28q33 0 71 9v-134z" />
    <glyph glyph-name="uni032D" unicode="&#x32d;" 
d="M86 -164l286 -306h-188l-182 200h-4l-182 -200h-188l286 306h172z" />
    <glyph glyph-name="uni032E" unicode="&#x32e;" 
d="M-185 -189q0 -80 52 -134q53 -54 133 -54t133 54q52 54 52 134h140q-1 -134 -90 -219q-90 -87 -235 -87t-235 87q-89 85 -90 219h140z" />
    <glyph glyph-name="uni0330" unicode="&#x330;" 
d="M-14 -349q-74 73 -106 73q-67 0 -69 -130h-129q0 120 52 189q51 68 139 68q78 0 153 -73t103 -73q63 0 63 132h130q0 -118 -53 -189q-52 -70 -136 -70q-73 0 -147 73z" />
    <glyph glyph-name="uni0331" unicode="&#x331;" 
d="M327 -342h-654v119h654v-119z" />
    <glyph glyph-name="uni037E" unicode="&#x37e;" horiz-adv-x="560" 
d="M176 756q-38 38 -38 93t38 93t93 38q56 0 93 -38q38 -37 38 -93q0 -55 -38 -93q-37 -38 -93 -38q-55 0 -93 38zM59 -262l93 488h219l-146 -488h-166z" />
    <glyph glyph-name="tonos" unicode="&#x384;" horiz-adv-x="893" 
d="M360 1570h252l-155 -315h-176z" />
    <glyph glyph-name="dieresistonos" unicode="&#x385;" horiz-adv-x="1243" 
d="M234 1295q-35 35 -35 84q0 50 35 84q35 35 85 35t85 -35q35 -34 35 -84q0 -49 -35 -84t-85 -35t-85 35zM837 1295q-35 35 -35 84t35 84q36 35 86 35t85 -35q35 -34 35 -84q0 -49 -35 -84t-85 -35t-86 35zM504 1255l29 315h240l-114 -315h-155z" />
    <glyph glyph-name="Alphatonos" unicode="&#x386;" horiz-adv-x="1383" 
d="M972 390h-550l-132 -390h-233l521 1443h242l521 -1443h-237zM479 570h436l-215 633h-6zM99 1127l78 316h251l-157 -316h-172z" />
    <glyph glyph-name="anoteleia" unicode="&#x387;" horiz-adv-x="558" 
d="M185 876q-38 38 -38 93t38 93t93 38q56 0 93 -38q38 -37 38 -93q0 -55 -38 -93t-93 -38t-93 38z" />
    <glyph glyph-name="Epsilontonos" unicode="&#x388;" horiz-adv-x="1523" 
d="M53 1127l78 316h251l-157 -316h-172zM1420 0h-916v1443h916v-193h-692v-422h655v-186h-655v-448h692v-194z" />
    <glyph glyph-name="Etatonos" unicode="&#x389;" horiz-adv-x="1835" 
d="M53 1127l78 316h251l-157 -316h-172zM1469 0v639h-741v-639h-224v1443h224v-610h741v610h224v-1443h-224z" />
    <glyph glyph-name="Iotatonos" unicode="&#x38a;" horiz-adv-x="870" 
d="M504 0v1443h224v-1443h-224zM53 1127l78 316h251l-157 -316h-172z" />
    <glyph glyph-name="Omicrontonos" unicode="&#x38c;" horiz-adv-x="1724" 
d="M1461 1266q182 -201 182 -545t-182 -545q-182 -200 -494 -200t-494 200q-182 201 -182 545t182 545t494 201q311 0 494 -201zM641 1122q-121 -148 -121 -401q0 -252 121 -400q120 -148 326 -148q205 0 326 148q120 148 120 400q0 253 -120 401q-121 148 -326 148
q-206 0 -326 -148zM34 1127l78 316h251l-157 -316h-172z" />
    <glyph glyph-name="Upsilontonos" unicode="&#x38e;" horiz-adv-x="1692" 
d="M37 1127l78 316h251l-157 -316h-172zM932 0v591l-508 852h250l368 -637h7l368 637h248l-509 -852v-591h-224z" />
    <glyph glyph-name="Omegatonos" unicode="&#x38f;" horiz-adv-x="1757" 
d="M1310 1141q-120 129 -326 129t-327 -129q-120 -129 -120 -350q0 -353 317 -560v-231h-544v190h304v7q-144 95 -223 252q-81 159 -81 353q0 296 186 480q187 185 488 185q300 0 487 -185q186 -184 186 -480q0 -194 -81 -353q-79 -157 -223 -252v-7h304v-190h-544v231
q317 207 317 560q0 221 -120 350zM34 1127l78 316h251l-157 -316h-172z" />
    <glyph glyph-name="iotadieresistonos" unicode="&#x390;" horiz-adv-x="607" 
d="M184 64q-77 70 -77 229v793h215v-743q0 -173 155 -173q44 0 83 8l10 -174q-52 -11 -130 -11q-178 0 -256 71zM-135 1295q-35 35 -35 84q0 50 35 84q35 35 85 35t85 -35q35 -34 35 -84q0 -49 -35 -84t-85 -35t-85 35zM468 1295q-35 35 -35 84t35 84q36 35 86 35t85 -35
q35 -34 35 -84q0 -49 -35 -84t-85 -35t-86 35zM135 1255l29 315h240l-114 -315h-155z" />
    <glyph glyph-name="Alpha" unicode="&#x391;" horiz-adv-x="1336" 
d="M940 390h-550l-132 -390h-233l521 1443h242l521 -1443h-237zM447 570h436l-215 633h-6z" />
    <glyph glyph-name="Beta" unicode="&#x392;" horiz-adv-x="1283" 
d="M132 0v1443h591q191 0 307 -98q116 -99 116 -262q0 -115 -74 -205q-74 -91 -182 -109v-8q147 -17 237 -113q91 -97 91 -240q0 -191 -131 -299q-131 -109 -362 -109h-593zM356 829h265q146 0 224 58t78 165q0 100 -66 154q-67 54 -189 54h-312v-431zM680 183
q309 0 309 239q0 236 -322 236h-311v-475h324z" />
    <glyph glyph-name="Gamma" unicode="&#x393;" horiz-adv-x="1080" 
d="M136 0v1443h881v-193h-657v-1250h-224z" />
    <glyph glyph-name="uni0394" unicode="&#x394;" horiz-adv-x="1333" 
d="M53 0v143l491 1300h242l491 -1300v-143h-1224zM296 193h731v8l-362 1012h-6l-363 -1012v-8z" />
    <glyph glyph-name="Epsilon" unicode="&#x395;" horiz-adv-x="1150" 
d="M1048 0h-916v1443h916v-193h-692v-422h655v-186h-655v-448h692v-194z" />
    <glyph glyph-name="Zeta" unicode="&#x396;" horiz-adv-x="1274" 
d="M94 153l790 1089v8h-766v193h1041v-153l-787 -1089v-7h806v-194h-1084v153z" />
    <glyph glyph-name="Eta" unicode="&#x397;" horiz-adv-x="1462" 
d="M1097 0v639h-741v-639h-224v1443h224v-610h741v610h224v-1443h-224z" />
    <glyph glyph-name="Theta" unicode="&#x398;" horiz-adv-x="1536" 
d="M481 625v186h572v-186h-572zM1273 1265q181 -199 181 -544q0 -344 -182 -544q-184 -201 -505 -201q-320 0 -504 201q-183 200 -183 544q0 345 182 544q184 202 505 202q322 0 506 -202zM430 1123q-122 -147 -122 -402q0 -254 122 -401q123 -147 337 -147q215 0 338 147
q121 146 121 401t-121 402q-122 147 -338 147q-214 0 -337 -147z" />
    <glyph glyph-name="Iota" unicode="&#x399;" horiz-adv-x="497" 
d="M132 0v1443h224v-1443h-224z" />
    <glyph glyph-name="Kappa" unicode="&#x39a;" horiz-adv-x="1297" 
d="M132 0v1443h224v-687h9l603 687h266l-572 -639l620 -804h-278l-500 650l-148 -169v-481h-224z" />
    <glyph glyph-name="Lambda" unicode="&#x39b;" horiz-adv-x="1299" 
d="M650 1195h-6l-386 -1195h-233l503 1443h241l503 -1443h-236z" />
    <glyph glyph-name="Mu" unicode="&#x39c;" horiz-adv-x="1734" 
d="M1592 0h-205v1062h-7l-435 -1051h-166l-436 1051h-7v-1062h-204v1443h259l467 -1139h8l466 1139h260v-1443z" />
    <glyph glyph-name="Nu" unicode="&#x39d;" horiz-adv-x="1451" 
d="M132 0v1443h203l748 -1064h8v1064h218v-1443h-202l-748 1063h-9v-1063h-218z" />
    <glyph glyph-name="Xi" unicode="&#x39e;" horiz-adv-x="1264" 
d="M1165 1443v-197h-1069v197h1069zM183 638v189h895v-189h-895zM1165 197v-197h-1069v197h1069z" />
    <glyph glyph-name="Omicron" unicode="&#x39f;" horiz-adv-x="1513" 
d="M1250 1266q182 -201 182 -545t-182 -545q-182 -200 -494 -200t-494 200q-182 201 -182 545t182 545t494 201q311 0 494 -201zM430 1122q-121 -148 -121 -401q0 -252 121 -400q120 -148 326 -148q205 0 326 148q120 148 120 400q0 253 -120 401q-121 148 -326 148
q-206 0 -326 -148z" />
    <glyph glyph-name="Pi" unicode="&#x3a0;" horiz-adv-x="1442" 
d="M1081 0v1250h-721v-1250h-224v1443h1168v-1443h-223z" />
    <glyph glyph-name="Rho" unicode="&#x3a1;" horiz-adv-x="1241" 
d="M697 1443q210 0 343 -132t133 -342q0 -211 -135 -344q-135 -132 -348 -132h-334v-493h-224v1443h565zM356 681h282q146 0 226 75q80 76 80 212q0 137 -80 211q-80 75 -226 75h-282v-573z" />
    <glyph glyph-name="Sigma" unicode="&#x3a3;" horiz-adv-x="1248" 
d="M367 194h784v-194h-1057v148l406 576l-388 551v168h1012v-193h-733v-8l350 -502v-7l-374 -532v-7z" />
    <glyph glyph-name="Tau" unicode="&#x3a4;" horiz-adv-x="1227" 
d="M498 0v1250h-450v193h1123v-193h-449v-1250h-224z" />
    <glyph glyph-name="Upsilon" unicode="&#x3a5;" horiz-adv-x="1293" 
d="M533 0v591l-508 852h250l368 -637h7l368 637h248l-509 -852v-591h-224z" />
    <glyph glyph-name="Phi" unicode="&#x3a6;" horiz-adv-x="1669" 
d="M1265 1042q-117 121 -324 131v-913q207 11 324 131q117 121 117 326q0 204 -117 325zM402 391q117 -120 324 -131v913q-207 -10 -324 -131t-117 -325q0 -205 117 -326zM726 -75v146q-303 14 -484 189q-182 176 -182 457q0 280 182 456q181 176 484 190v148h215v-148
q303 -14 484 -190t181 -456q0 -281 -181 -457q-181 -175 -484 -189v-146h-215z" />
    <glyph glyph-name="Chi" unicode="&#x3a7;" horiz-adv-x="1338" 
d="M522 723v7l-474 713h267l356 -558h8l360 558h253l-489 -721v-6l480 -716h-262l-359 550h-7l-364 -550h-248z" />
    <glyph glyph-name="Psi" unicode="&#x3a8;" horiz-adv-x="1584" 
d="M682 0v328q-267 2 -426 159q-160 155 -160 413v543h218v-540q0 -178 95 -275q94 -98 273 -105v920h218v-920q179 7 273 105q95 97 95 275v540h218v-543q0 -258 -159 -414q-160 -157 -427 -158v-328h-218z" />
    <glyph glyph-name="uni03A9" unicode="&#x3a9;" horiz-adv-x="1545" 
d="M1098 1141q-120 129 -326 129t-327 -129q-120 -129 -120 -350q0 -353 317 -560v-231h-544v190h304v7q-144 95 -223 252q-81 159 -81 353q0 296 186 480q187 185 488 185q300 0 487 -185q186 -184 186 -480q0 -194 -81 -353q-79 -157 -223 -252v-7h304v-190h-544v231
q317 207 317 560q0 221 -120 350z" />
    <glyph glyph-name="Iotadieresis" unicode="&#x3aa;" horiz-adv-x="464" 
d="M116 0v1443h224v-1443h-224zM-59 1611q-35 35 -35 84t35 84q36 35 86 35t85 -35q35 -34 35 -84q0 -49 -35 -84t-85 -35t-86 35zM344 1611q-35 35 -35 84t35 84q36 35 86 35t85 -35q35 -34 35 -84q0 -49 -35 -84t-85 -35t-86 35z" />
    <glyph glyph-name="Upsilondieresis" unicode="&#x3ab;" horiz-adv-x="1293" 
d="M533 0v591l-508 852h250l368 -637h7l368 637h248l-509 -852v-591h-224zM358 1611q-35 35 -35 84t35 84q36 35 86 35t85 -35q35 -34 35 -84q0 -49 -35 -84t-85 -35t-86 35zM761 1611q-35 35 -35 84t35 84q36 35 86 35t85 -35q35 -34 35 -84q0 -49 -35 -84t-85 -35t-86 35z
" />
    <glyph glyph-name="alphatonos" unicode="&#x3ac;" horiz-adv-x="1269" 
d="M767 275q80 102 80 269q0 164 -80 267q-81 103 -209 103q-123 0 -198 -102q-75 -101 -75 -268q0 -170 72 -270q73 -100 197 -100q132 0 213 101zM187 142q-124 152 -124 403q0 250 125 401q125 152 330 152q107 0 196 -50q91 -51 138 -141h3v180h210v-782q0 -71 21 -102
q21 -30 71 -30q28 0 55 9l10 -172q-47 -12 -112 -12q-214 0 -253 174q-4 4 -5 7h-3q-47 -86 -137 -138q-89 -51 -194 -51q-206 0 -331 152zM562 1570h252l-155 -315h-176z" />
    <glyph glyph-name="epsilontonos" unicode="&#x3ad;" horiz-adv-x="1108" 
d="M546 1570h252l-155 -315h-176zM201 71q-121 83 -121 224q0 189 197 248v4q-177 63 -177 237q0 141 126 229q126 87 329 87q220 0 346 -97q121 -94 138 -265h-214q-19 95 -76 137q-62 45 -191 45q-117 0 -182 -39q-66 -39 -66 -109q0 -65 62 -102t170 -37h152v-170h-151
q-113 0 -177 -39q-64 -40 -64 -108q0 -149 245 -149q250 0 291 182h219q-25 -166 -164 -263q-141 -99 -357 -99q-212 0 -335 84z" />
    <glyph glyph-name="etatonos" unicode="&#x3ae;" horiz-adv-x="1281" 
d="M956 -355v996q0 271 -243 271q-117 0 -191 -79q-75 -80 -75 -205v-628h-217v782q0 132 -97 132q-34 0 -62 -8v171q64 13 119 13q185 0 235 -145q7 -19 11 -42h4q101 195 347 195q181 0 284 -107q102 -107 102 -297v-1049h-217zM547 1570h252l-155 -315h-176z" />
    <glyph glyph-name="iotatonos" unicode="&#x3af;" horiz-adv-x="607" 
d="M183 65q-77 70 -77 229v793h215v-743q0 -173 155 -173q44 0 83 8l10 -174q-52 -11 -130 -11q-178 0 -256 71zM206 1570h252l-155 -315h-176z" />
    <glyph glyph-name="upsilondieresistonos" unicode="&#x3b0;" horiz-adv-x="1131" 
d="M149 1295q-35 35 -35 84q0 50 35 84q35 35 85 35t85 -35q35 -34 35 -84q0 -49 -35 -84t-85 -35t-85 35zM752 1295q-35 35 -35 84t35 84q36 35 86 35t85 -35q35 -34 35 -84q0 -49 -35 -84t-85 -35t-86 35zM419 1255l29 315h240l-114 -315h-155zM221 104q-115 116 -115 333
v649h210v-631q0 -279 238 -279q271 0 271 385q0 274 -88 525h212q92 -222 92 -506q0 -281 -127 -436q-128 -156 -359 -156q-218 0 -334 116z" />
    <glyph glyph-name="alpha" unicode="&#x3b1;" horiz-adv-x="1270" 
d="M767 274q80 102 80 269q0 164 -80 267q-81 103 -209 103q-123 0 -198 -102q-75 -101 -75 -268q0 -170 72 -270q73 -100 197 -100q132 0 213 101zM187 141q-124 152 -124 403q0 250 125 401q125 152 330 152q107 0 196 -50q91 -51 138 -141h3v180h210v-782q0 -71 21 -102
q21 -30 71 -30q28 0 55 9l10 -172q-47 -12 -112 -12q-214 0 -253 174q-4 4 -5 7h-3q-47 -86 -137 -138q-89 -51 -194 -51q-206 0 -331 152z" />
    <glyph glyph-name="beta" unicode="&#x3b2;" horiz-adv-x="1209" 
d="M495 895h82q258 0 258 228q0 98 -65 156t-173 58q-272 0 -272 -324v-469q0 -176 86 -273q87 -98 242 -98q126 0 199 74q72 72 72 189q0 138 -89 212q-90 75 -259 75h-81v172zM110 1011q0 246 125 378q125 131 359 131q208 0 328 -100t120 -276q0 -229 -223 -315v-4
q326 -74 326 -393q0 -196 -123 -319q-123 -124 -323 -124q-125 0 -222 49q-98 50 -146 140h-4v-533h-217v1366z" />
    <glyph glyph-name="gamma" unicode="&#x3b3;" horiz-adv-x="1125" 
d="M931 450q-86 -192 -299 -481v-316h-213v312l-383 1121h227l282 -910h5q279 399 279 739q0 81 -10 171h205q10 -70 10 -171q0 -237 -103 -465z" />
    <glyph glyph-name="delta" unicode="&#x3b4;" horiz-adv-x="1139" 
d="M201 126q-140 139 -140 372q0 200 113 332q109 128 289 149v3q-231 105 -231 267q0 129 105 201q102 70 279 70q212 0 356 -71l-10 -175q-180 72 -338 72q-173 0 -173 -104q0 -42 38 -76q39 -34 158 -94q224 -118 324 -247q103 -133 103 -316q0 -238 -139 -381
q-139 -141 -365 -141q-230 0 -369 139zM774 251q79 92 79 253q0 168 -81 260q-75 86 -204 86q-138 0 -215 -100q-73 -94 -73 -253q0 -154 77 -246q77 -91 208 -91q132 0 209 91z" />
    <glyph glyph-name="epsilon" unicode="&#x3b5;" horiz-adv-x="1111" 
d="M201 71q-121 83 -121 224q0 189 197 248v4q-177 63 -177 237q0 141 126 229q126 87 329 87q220 0 346 -97q121 -94 138 -265h-214q-19 95 -76 137q-62 45 -191 45q-117 0 -182 -39q-66 -39 -66 -109q0 -65 62 -102t170 -37h152v-170h-151q-113 0 -177 -39
q-64 -40 -64 -108q0 -149 245 -149q250 0 291 182h219q-25 -166 -164 -263q-141 -99 -357 -99q-212 0 -335 84z" />
    <glyph glyph-name="zeta" unicode="&#x3b6;" horiz-adv-x="922" 
d="M666 -336q57 103 57 187q0 66 -41 104q-46 42 -176 84q-244 78 -345 197q-99 116 -99 318q0 414 522 767v5h-437v182h758v-170q-623 -370 -623 -762q0 -142 66 -215q66 -75 248 -135q189 -64 263 -140q70 -73 70 -194q0 -127 -87 -263z" />
    <glyph glyph-name="eta" unicode="&#x3b7;" horiz-adv-x="1281" 
d="M956 -355v996q0 271 -243 271q-117 0 -191 -79q-75 -80 -75 -205v-628h-217v782q0 132 -97 132q-34 0 -62 -8v171q64 13 119 13q185 0 235 -145q7 -19 11 -42h4q101 195 347 195q181 0 284 -107q102 -107 102 -297v-1049h-217z" />
    <glyph glyph-name="theta" unicode="&#x3b8;" horiz-adv-x="1213" 
d="M218 185q-130 196 -130 571q0 373 133 569q133 195 385 195q251 0 385 -197q133 -198 133 -569q0 -374 -133 -570q-132 -197 -385 -197q-256 0 -388 198zM826 289q73 124 79 388h-599q6 -264 79 -388q73 -125 221 -125t220 125zM904 853q-18 489 -298 489
q-281 0 -299 -489h597z" />
    <glyph glyph-name="iota" unicode="&#x3b9;" horiz-adv-x="607" 
d="M183 64q-77 70 -77 229v793h215v-743q0 -173 155 -173q44 0 83 8l10 -174q-52 -11 -130 -11q-178 0 -256 71z" />
    <glyph glyph-name="kappa" unicode="&#x3ba;" horiz-adv-x="1146" 
d="M110 1086h213v-552h3l321 373q92 108 153 145q61 38 147 38q60 0 108 -12v-172q-22 8 -74 8q-47 0 -84 -24q-39 -26 -105 -103l-123 -142l425 -645h-236l-326 506l-209 -227v-279h-213v1086z" />
    <glyph glyph-name="lambda" unicode="&#x3bb;" horiz-adv-x="1146" 
d="M460 1025l-47 128q-44 120 -83 156q-36 35 -114 35q-36 0 -67 -9v171q61 14 108 14q139 0 211 -67q71 -68 141 -265l317 -902q24 -66 53 -91q28 -23 81 -23q27 0 56 9l10 -172q-43 -12 -111 -12q-112 0 -170 45q-62 48 -107 179l-187 547h-3l-299 -768h-217z" />
    <glyph glyph-name="uni03BC" unicode="&#x3bc;" horiz-adv-x="1268" 
d="M110 1086h217v-650q0 -126 61 -193t175 -67q124 0 198 77q75 77 75 207v626h217v-783q0 -71 21 -101t69 -30q32 0 57 9l10 -172q-44 -12 -116 -12q-191 0 -240 157q-6 21 -8 36h-3q-44 -94 -123 -148q-80 -54 -174 -54q-71 0 -130 32q-60 32 -86 84h-3v-459h-217v1441z
" />
    <glyph glyph-name="nu" unicode="&#x3bd;" horiz-adv-x="1108" 
d="M36 1086h227l282 -910h5q257 369 257 739q0 82 -10 171h211q10 -80 10 -171q0 -234 -82 -441q-82 -206 -280 -474h-249z" />
    <glyph glyph-name="xi" unicode="&#x3be;" horiz-adv-x="957" 
d="M666 -336q57 101 57 191q0 64 -44 103q-50 43 -189 87q-241 77 -340 178q-88 89 -88 226q0 125 77 213q78 89 219 119v3q-120 42 -175 106q-58 67 -58 172q0 198 234 261v3h-230v182h771v-161l-113 -12q-241 -27 -347 -86q-108 -61 -108 -175q0 -96 84 -138
q80 -41 256 -41h153v-178h-160q-384 0 -384 -232q0 -86 67 -142q70 -58 250 -118q184 -62 259 -137q72 -74 72 -196q0 -127 -87 -263z" />
    <glyph glyph-name="omicron" unicode="&#x3bf;" horiz-adv-x="1145" 
d="M201 138q-139 152 -139 405q0 256 138 406q137 151 372 151q234 0 372 -150q137 -151 137 -407q0 -253 -139 -405q-138 -151 -370 -151q-233 0 -371 151zM784 267q76 98 76 276q0 174 -77 274t-211 100t-211 -100q-77 -99 -77 -274q0 -178 75 -276q76 -98 213 -98t212 98
z" />
    <glyph glyph-name="pi" unicode="&#x3c0;" horiz-adv-x="1395" 
d="M262 908h-196v178h1243v-178h-219v-611q0 -125 98 -125q25 0 55 9l10 -172q-51 -12 -115 -12q-136 0 -195 63q-61 64 -61 210v638h-412v-908h-208v908z" />
    <glyph glyph-name="rho" unicode="&#x3c1;" horiz-adv-x="1166" 
d="M802 274q79 102 79 284q0 167 -78 263t-213 96q-136 0 -213 -99q-76 -98 -76 -271q0 -172 76 -273t206 -101q140 0 219 101zM85 533q0 259 138 413q137 154 368 154t371 -149q140 -150 140 -396q0 -261 -124 -413q-124 -153 -337 -153q-111 0 -202 51t-134 138h-5v-533
h-215v888z" />
    <glyph glyph-name="sigma1" unicode="&#x3c2;" horiz-adv-x="1075" 
d="M666 -336q57 103 57 187q0 66 -41 104q-46 42 -176 84q-242 78 -343 199t-101 334q0 238 133 383q135 145 361 145q205 0 326 -100q119 -100 142 -284h-209q-38 202 -249 202q-133 0 -209 -93q-75 -91 -75 -244q0 -142 67 -218q68 -77 247 -137q189 -64 263 -140
q70 -73 70 -194q0 -127 -87 -263z" />
    <glyph glyph-name="sigma" unicode="&#x3c3;" horiz-adv-x="1288" 
d="M199 137q-139 149 -139 395q0 253 150 403q149 151 400 151h614v-178h-312v-4q157 -117 157 -372q0 -245 -138 -395q-139 -149 -366 -149q-228 0 -366 149zM779 267q79 100 79 269t-74 267q-73 98 -201 98q-138 0 -219 -99q-82 -100 -82 -269q0 -168 77 -266
q77 -99 207 -99q134 0 213 99z" />
    <glyph glyph-name="tau" unicode="&#x3c4;" horiz-adv-x="1060" 
d="M475 63q-79 69 -79 229v616h-338v178h953v-178h-401v-565q0 -91 40 -132q41 -41 130 -41q55 0 92 8l10 -174q-63 -11 -141 -11q-187 0 -266 70z" />
    <glyph glyph-name="upsilon" unicode="&#x3c5;" horiz-adv-x="1131" 
d="M221 104q-115 116 -115 333v649h210v-631q0 -279 238 -279q271 0 271 385q0 274 -88 525h212q92 -222 92 -506q0 -281 -127 -436q-128 -156 -359 -156q-218 0 -334 116z" />
    <glyph glyph-name="phi" unicode="&#x3c6;" horiz-adv-x="1477" 
d="M637 -13q-265 11 -423 161q-160 151 -160 395q0 248 157 399q159 153 426 157v291h202v-291q267 -4 425 -157q158 -151 158 -399q0 -244 -160 -395q-159 -150 -423 -161v-342h-202v342zM837 161q173 12 272 114q100 102 100 268q0 170 -96 271q-99 105 -276 112v-765z
M638 926q-177 -7 -276 -112q-96 -101 -96 -271q0 -166 100 -268q99 -102 272 -114v765z" />
    <glyph glyph-name="chi" unicode="&#x3c7;" horiz-adv-x="1172" 
d="M492 361l-221 439q-35 69 -70 93q-30 21 -86 21q-32 0 -60 -8v172q63 12 112 12q103 0 161 -41q59 -41 118 -158l173 -346h3l283 541h222l-411 -734l210 -414q37 -72 67 -96q31 -25 83 -25q35 0 57 9l8 -172q-44 -12 -104 -12q-109 0 -163 36q-56 36 -112 147l-174 344
h-3l-273 -524h-222z" />
    <glyph glyph-name="psi" unicode="&#x3c8;" horiz-adv-x="1466" 
d="M620 -12q-244 2 -379 119q-135 118 -135 330v649h210v-614q0 -295 304 -295v1213h206v-1213q334 3 334 384q0 290 -98 525h216q98 -205 98 -500q0 -284 -145 -441q-144 -157 -405 -157v-343h-206v343z" />
    <glyph glyph-name="omega" unicode="&#x3c9;" horiz-adv-x="1575" 
d="M185 123q-97 134 -97 388q0 334 156 575h225q-165 -274 -165 -576q0 -335 192 -335q86 0 137 69q50 69 50 188v343h206v-343q0 -119 51 -188q50 -69 137 -69q192 0 192 335q0 305 -165 576h225q156 -241 156 -575q0 -254 -98 -388q-99 -136 -289 -136q-220 0 -309 238h-6
q-89 -238 -309 -238q-190 0 -289 136z" />
    <glyph glyph-name="iotadieresis" unicode="&#x3ca;" horiz-adv-x="607" 
d="M-59 1295q-35 35 -35 84t35 84q36 35 86 35t85 -35q35 -34 35 -84q0 -49 -35 -84t-85 -35t-86 35zM344 1295q-35 35 -35 84t35 84q36 35 86 35t85 -35q35 -34 35 -84q0 -49 -35 -84t-85 -35t-86 35zM184 64q-77 70 -77 229v793h215v-743q0 -173 155 -173q44 0 83 8
l10 -174q-52 -11 -130 -11q-178 0 -256 71z" />
    <glyph glyph-name="upsilondieresis" unicode="&#x3cb;" horiz-adv-x="1131" 
d="M255 1295q-35 35 -35 84t35 84q36 35 86 35t85 -35q35 -34 35 -84q0 -49 -35 -84t-85 -35t-86 35zM658 1295q-35 35 -35 84t35 84q36 35 86 35t85 -35q35 -34 35 -84q0 -49 -35 -84t-85 -35t-86 35zM221 104q-115 116 -115 333v649h210v-631q0 -279 238 -279
q271 0 271 385q0 274 -88 525h212q92 -222 92 -506q0 -281 -127 -436q-128 -156 -359 -156q-218 0 -334 116z" />
    <glyph glyph-name="omicrontonos" unicode="&#x3cc;" horiz-adv-x="1145" 
d="M201 138q-139 152 -139 405q0 256 138 406q137 151 372 151q234 0 372 -150q137 -151 137 -407q0 -253 -139 -405q-138 -151 -370 -151q-233 0 -371 151zM784 267q76 98 76 276q0 174 -77 274t-211 100t-211 -100q-77 -99 -77 -274q0 -178 75 -276q76 -98 213 -98t212 98
zM568 1570h252l-155 -315h-176z" />
    <glyph glyph-name="upsilontonos" unicode="&#x3cd;" horiz-adv-x="1131" 
d="M514 1570h252l-155 -315h-176zM221 104q-115 116 -115 333v649h210v-631q0 -279 238 -279q271 0 271 385q0 274 -88 525h212q92 -222 92 -506q0 -281 -127 -436q-128 -156 -359 -156q-218 0 -334 116z" />
    <glyph glyph-name="omegatonos" unicode="&#x3ce;" horiz-adv-x="1575" 
d="M185 123q-97 134 -97 388q0 334 156 575h225q-165 -274 -165 -576q0 -335 192 -335q86 0 137 69q50 69 50 188v343h206v-343q0 -119 51 -188q50 -69 137 -69q192 0 192 335q0 305 -165 576h225q156 -241 156 -575q0 -254 -98 -388q-99 -136 -289 -136q-220 0 -309 238h-6
q-89 -238 -309 -238q-190 0 -289 136zM772 1570h252l-155 -315h-176z" />
    <glyph glyph-name="uni0401" unicode="&#x401;" horiz-adv-x="1170" 
d="M313 1611q-35 35 -35 84t35 84q36 35 86 35t85 -35q35 -34 35 -84q0 -49 -35 -84t-85 -35t-86 35zM716 1611q-35 35 -35 84t35 84q36 35 86 35t85 -35q35 -34 35 -84q0 -49 -35 -84t-85 -35t-86 35zM1058 0h-916v1443h916v-193h-692v-422h655v-186h-655v-448h692v-194z
" />
    <glyph glyph-name="uni0402" unicode="&#x402;" horiz-adv-x="1701" 
d="M985 -17v189q38 -15 124 -15q118 0 186 72q68 73 68 201t-79 204q-79 77 -211 77q-108 0 -204 -55q-96 -54 -135 -138v-518h-224v1250h-450v193h1124v-193h-450v-480h8q132 137 359 137q222 0 355 -131q131 -129 131 -339q0 -214 -126 -342q-127 -129 -340 -129
q-93 0 -136 17z" />
    <glyph glyph-name="uni0403" unicode="&#x403;" horiz-adv-x="1094" 
d="M507 1546l231 303h225l-280 -303h-176zM146 0v1443h882v-195h-657v-1248h-225z" />
    <glyph glyph-name="uni0404" unicode="&#x404;" horiz-adv-x="1442" 
d="M1361 427q-47 -215 -206 -334q-160 -120 -403 -120q-305 0 -483 202q-179 202 -179 547q0 342 180 545q179 203 482 203q238 0 406 -132q167 -133 203 -349h-225q-35 128 -139 205q-105 77 -245 77q-176 0 -292 -119q-117 -120 -134 -322h613v-188h-616q10 -216 129 -344
q117 -126 301 -126q144 0 245 67q100 67 138 188h225z" />
    <glyph glyph-name="uni0405" unicode="&#x405;" horiz-adv-x="1263" 
d="M298 402q12 -107 107 -172t238 -65q136 0 225 63q88 63 88 160q0 84 -63 137q-63 54 -203 88l-187 45q-388 94 -388 389q0 186 147 303q146 117 378 117q228 0 372 -117q144 -116 149 -303h-218q-10 107 -93 170q-82 61 -213 61q-130 0 -212 -60q-81 -60 -81 -156
q0 -76 61 -125q61 -48 201 -83l159 -39q222 -52 321 -147q98 -94 98 -253q0 -202 -150 -321q-150 -118 -407 -118q-241 0 -390 115q-150 116 -160 311h221z" />
    <glyph glyph-name="uni0406" unicode="&#x406;" horiz-adv-x="533" 
d="M142 0v1443h224v-1443h-224z" />
    <glyph glyph-name="uni0407" unicode="&#x407;" horiz-adv-x="533" 
d="M143 0v1443h224v-1443h-224zM-32 1611q-35 35 -35 84t35 84q36 35 86 35t85 -35q35 -34 35 -84q0 -49 -35 -84t-85 -35t-86 35zM371 1611q-35 35 -35 84t35 84q36 35 86 35t85 -35q35 -34 35 -84q0 -49 -35 -84t-85 -35t-86 35z" />
    <glyph glyph-name="uni0408" unicode="&#x408;" horiz-adv-x="1080" 
d="M267 370q2 -90 62 -146q59 -56 153 -56q227 0 227 253v1022h224v-1023q0 -214 -119 -333t-330 -119q-195 0 -316 111t-121 291h220z" />
    <glyph glyph-name="uni0409" unicode="&#x409;" horiz-adv-x="2179" 
d="M526 551q-17 -278 -101 -412q-95 -149 -289 -149q-52 0 -83 11v198q28 -7 58 -7q109 0 158 105q38 83 48 265l49 881h915v-517h326q213 0 347 -129q135 -129 135 -334q0 -206 -132 -335q-133 -128 -343 -128h-557v1250h-489zM1555 190q146 0 225 71q80 71 80 202
q0 132 -80 203t-226 71h-273v-547h274z" />
    <glyph glyph-name="uni040A" unicode="&#x40a;" horiz-adv-x="2180" 
d="M1578 190q144 0 223 62q78 61 78 174q0 106 -79 164t-223 58h-279v-458h280zM370 0h-224v1443h224v-607h704v607h224v-607h327q213 0 347 -114q135 -114 135 -296q0 -189 -133 -307q-132 -119 -343 -119h-557v645h-704v-645z" />
    <glyph glyph-name="uni040B" unicode="&#x40b;" horiz-adv-x="1717" 
d="M864 656q-91 -54 -130 -138v-518h-224v1250h-450v193h1124v-193h-450v-479h8q131 136 354 136q225 0 356 -139q130 -137 130 -368v-400h-224v385q0 155 -77 240q-78 86 -219 86q-105 0 -198 -55z" />
    <glyph glyph-name="uni040C" unicode="&#x40c;" horiz-adv-x="1307" 
d="M724 1546h-176l231 303h225zM1293 0h-293l-622 677h-8v-677h-224v1443h224v-646h8l588 646h268l-635 -688z" />
    <glyph glyph-name="uni040E" unicode="&#x40e;" horiz-adv-x="1262" 
d="M460 1846q1 -82 51 -134q51 -54 130 -54t130 54q50 52 51 134h142q0 -135 -90 -219t-233 -84t-233 84t-90 219h142zM216 2v193q36 -9 83 -9q147 0 224 135l-488 1122h238l365 -887h8l353 887h234l-442 -1030q-101 -236 -204 -328q-106 -96 -275 -96q-68 0 -96 13z" />
    <glyph glyph-name="uni040F" unicode="&#x40f;" horiz-adv-x="1463" 
d="M146 0v1443h224v-1250h722v1250h223v-1443h-480v-285h-209v285h-480z" />
    <glyph glyph-name="uni0410" unicode="&#x410;" horiz-adv-x="1356" 
d="M950 390h-550l-132 -390h-233l521 1443h242l521 -1443h-237zM457 570h436l-215 633h-6z" />
    <glyph glyph-name="uni0411" unicode="&#x411;" horiz-adv-x="1279" 
d="M1038 122q-133 -122 -343 -122h-549v1443h884v-193h-660v-370h320q212 0 346 -122t134 -317q0 -196 -132 -319zM638 190q145 0 224 65t79 186t-80 187q-79 65 -224 65h-267v-503h268z" />
    <glyph glyph-name="uni0412" unicode="&#x412;" horiz-adv-x="1303" 
d="M142 0v1443h591q191 0 307 -98q116 -99 116 -262q0 -115 -74 -205q-74 -91 -182 -109v-8q147 -17 237 -113q91 -97 91 -240q0 -191 -131 -299q-131 -109 -362 -109h-593zM366 829h265q146 0 224 58t78 165q0 100 -66 154q-67 54 -189 54h-312v-431zM690 183
q309 0 309 239q0 236 -322 236h-311v-475h324z" />
    <glyph glyph-name="uni0413" unicode="&#x413;" horiz-adv-x="1094" 
d="M146 0v1443h882v-195h-657v-1248h-225z" />
    <glyph glyph-name="uni0414" unicode="&#x414;" horiz-adv-x="1509" 
d="M490 558q-16 -258 -99 -356v-8h660v1056h-517zM233 -285h-206v479h105q133 77 150 374l53 875h940v-1249h180v-479h-205v285h-1017v-285z" />
    <glyph glyph-name="uni0415" unicode="&#x415;" horiz-adv-x="1170" 
d="M1058 0h-916v1443h916v-193h-692v-422h655v-186h-655v-448h692v-194z" />
    <glyph glyph-name="uni0416" unicode="&#x416;" horiz-adv-x="2002" 
d="M1982 0h-288l-578 677h-8v-677h-221v677h-8l-582 -677h-279l645 751l-596 692h269l543 -646h8v646h221v-646h8l545 646h264l-594 -688z" />
    <glyph glyph-name="uni0417" unicode="&#x417;" horiz-adv-x="1222" 
d="M409 831h194q124 0 201 66q78 66 78 170t-72 164q-73 60 -197 60q-126 0 -204 -62q-77 -61 -87 -169h-212q11 194 148 306t362 112q213 0 348 -108q135 -109 135 -280q0 -121 -74 -213q-75 -91 -195 -120v-8q145 -18 229 -114t84 -243q0 -182 -152 -305
q-152 -122 -379 -122q-235 0 -384 116t-159 307h216q10 -106 99 -170q88 -63 227 -63q135 0 219 69q83 69 83 179q0 113 -82 177q-81 64 -226 64h-200v187z" />
    <glyph glyph-name="uni0418" unicode="&#x418;" horiz-adv-x="1484" 
d="M1114 1086h-15l-735 -1086h-218v1443h222v-1089h15l735 1089h218v-1443h-222v1086z" />
    <glyph glyph-name="uni0419" unicode="&#x419;" horiz-adv-x="1484" 
d="M557 1846q1 -82 51 -134q51 -54 130 -54t130 54q50 52 51 134h142q0 -135 -90 -219t-233 -84t-233 84t-90 219h142zM1114 1086h-15l-735 -1086h-218v1443h222v-1089h15l735 1089h218v-1443h-222v1086z" />
    <glyph glyph-name="uni041A" unicode="&#x41a;" horiz-adv-x="1319" 
d="M1293 0h-293l-622 677h-8v-677h-224v1443h224v-646h8l588 646h268l-635 -688z" />
    <glyph glyph-name="uni041B" unicode="&#x41b;" horiz-adv-x="1423" 
d="M1051 0v1250h-488l-43 -699q-17 -289 -108 -423q-93 -138 -281 -138q-49 0 -84 11v198q28 -7 59 -7q100 0 148 89q47 86 58 281l48 881h915v-1443h-224z" />
    <glyph glyph-name="uni041C" unicode="&#x41c;" horiz-adv-x="1754" 
d="M1602 0h-205v1062h-7l-435 -1051h-166l-436 1051h-7v-1062h-204v1443h259l467 -1139h8l466 1139h260v-1443z" />
    <glyph glyph-name="uni041D" unicode="&#x41d;" horiz-adv-x="1482" 
d="M1107 0v639h-741v-639h-224v1443h224v-610h741v610h224v-1443h-224z" />
    <glyph glyph-name="uni041E" unicode="&#x41e;" horiz-adv-x="1535" 
d="M1260 1266q182 -201 182 -545t-182 -545q-182 -200 -494 -200t-494 200q-182 201 -182 545t182 545t494 201q311 0 494 -201zM440 1122q-121 -148 -121 -401q0 -252 121 -400q120 -148 326 -148q205 0 326 148q120 148 120 400q0 253 -120 401q-121 148 -326 148
q-206 0 -326 -148z" />
    <glyph glyph-name="uni041F" unicode="&#x41f;" horiz-adv-x="1463" 
d="M1093 0v1248h-722v-1248h-225v1443h1169v-1443h-222z" />
    <glyph glyph-name="uni0420" unicode="&#x420;" horiz-adv-x="1260" 
d="M707 1443q210 0 343 -132t133 -342q0 -211 -135 -344q-135 -132 -348 -132h-334v-493h-224v1443h565zM366 681h282q146 0 226 75q80 76 80 212q0 137 -80 211q-80 75 -226 75h-282v-573z" />
    <glyph glyph-name="uni0421" unicode="&#x421;" horiz-adv-x="1442" 
d="M269 175q-179 202 -179 547q0 342 180 545q179 203 482 203q238 0 406 -132q167 -133 203 -349h-225q-35 128 -139 205q-105 77 -245 77q-197 0 -314 -149q-118 -150 -118 -400q0 -253 117 -401q117 -149 316 -149q144 0 245 67q100 67 138 188h225q-47 -215 -206 -334
q-160 -120 -403 -120q-305 0 -483 202z" />
    <glyph glyph-name="uni0422" unicode="&#x422;" horiz-adv-x="1247" 
d="M508 0v1250h-450v193h1123v-193h-449v-1250h-224z" />
    <glyph glyph-name="uni0423" unicode="&#x423;" horiz-adv-x="1262" 
d="M216 2v193q36 -9 83 -9q147 0 224 135l-488 1122h238l365 -887h8l353 887h234l-442 -1030q-101 -236 -204 -328q-106 -96 -275 -96q-68 0 -96 13z" />
    <glyph glyph-name="uni0424" unicode="&#x424;" horiz-adv-x="1680" 
d="M730 1132q-195 -8 -309 -116q-114 -110 -114 -290q0 -182 114 -292q113 -108 309 -115v813zM1257 1016q-114 109 -309 116v-813q195 8 309 117t114 289q0 182 -114 291zM729 128q-298 8 -472 168q-176 161 -176 430q0 267 176 428q175 160 472 169v144h221v-144
q297 -8 471 -168q175 -161 175 -430q0 -267 -175 -428q-174 -160 -471 -169v-152h-221v152z" />
    <glyph glyph-name="uni0425" unicode="&#x425;" horiz-adv-x="1358" 
d="M532 723v7l-474 713h267l356 -558h8l360 558h253l-489 -721v-6l480 -716h-262l-359 550h-7l-364 -550h-248z" />
    <glyph glyph-name="uni0426" unicode="&#x426;" horiz-adv-x="1550" 
d="M1291 -285v285h-1145v1443h224v-1250h722v1250h224v-1250h180v-478h-205z" />
    <glyph glyph-name="uni0427" unicode="&#x427;" horiz-adv-x="1401" 
d="M1030 0v661h-8q-142 -139 -370 -139q-238 0 -383 146q-146 146 -146 386v389h224v-371q0 -163 87 -256q87 -94 239 -94q121 0 218 54q96 53 139 144v523h224v-1443h-224z" />
    <glyph glyph-name="uni0428" unicode="&#x428;" horiz-adv-x="1929" 
d="M146 1443h224v-1250h481v1250h224v-1250h482v1250h224v-1443h-1635v1443z" />
    <glyph glyph-name="uni0429" unicode="&#x429;" horiz-adv-x="2015" 
d="M1756 -285v285h-1610v1443h224v-1250h481v1250h224v-1250h482v1250h224v-1250h180v-478h-205z" />
    <glyph glyph-name="uni042A" unicode="&#x42a;" horiz-adv-x="1530" 
d="M424 0v1250h-332v193h556v-517h326q213 0 347 -129q135 -129 135 -334q0 -206 -132 -335q-133 -128 -343 -128h-557zM922 190q146 0 225 71q80 71 80 202q0 132 -80 203t-225 71h-274v-547h274z" />
    <glyph glyph-name="uni042B" unicode="&#x42b;" horiz-adv-x="1731" 
d="M1355 0v1443h224v-1443h-224zM146 1443h224v-517h326q213 0 348 -129t135 -334t-133 -334q-132 -129 -343 -129h-557v1443zM644 190q146 0 225 71q80 71 80 202q0 132 -80 203t-225 71h-274v-547h274z" />
    <glyph glyph-name="uni042C" unicode="&#x42c;" horiz-adv-x="1252" 
d="M146 1443h224v-517h326q213 0 348 -129t135 -334t-133 -334q-132 -129 -343 -129h-557v1443zM644 190q146 0 225 71q80 71 80 202q0 132 -80 203t-225 71h-274v-547h274z" />
    <glyph glyph-name="uni042D" unicode="&#x42d;" horiz-adv-x="1442" 
d="M288 93q-163 120 -209 334h225q38 -121 141 -188q102 -67 247 -67q183 0 298 126q117 128 127 344h-616v188h613q-16 202 -131 322q-115 119 -290 119q-141 0 -247 -77q-107 -77 -142 -205h-225q36 216 206 349q169 132 408 132q301 0 479 -203q177 -202 177 -545
q0 -345 -176 -547q-177 -202 -480 -202q-243 0 -405 120z" />
    <glyph glyph-name="uni042E" unicode="&#x42e;" horiz-adv-x="2031" 
d="M812 146q-175 180 -196 493h-246v-639h-224v1443h224v-610h248q29 301 204 473t455 172q306 0 484 -204q177 -203 177 -552t-176 -552q-178 -205 -485 -205q-289 0 -465 181zM959 1129q-118 -151 -118 -407t116 -407q117 -152 319 -152q200 0 317 152q116 151 116 407
q0 257 -116 407q-117 151 -317 151t-317 -151z" />
    <glyph glyph-name="uni042F" unicode="&#x42f;" horiz-adv-x="1320" 
d="M950 1254h-294q-143 0 -221 -69q-79 -69 -79 -194q0 -126 79 -195q78 -69 221 -69h294v527zM311 0h-257l402 572q-150 39 -239 150q-91 114 -91 270q0 201 134 326q135 125 351 125h562v-1443h-223v543h-261z" />
    <glyph glyph-name="uni0430" unicode="&#x430;" horiz-adv-x="1102" 
d="M699 231q81 70 81 177v85l-264 -18q-225 -14 -225 -160q0 -70 56 -111q56 -42 150 -42q121 0 202 69zM174 77q-102 89 -102 234q0 142 107 223q106 81 308 94l293 17v84q0 93 -60 143q-59 49 -168 49q-88 0 -149 -42q-60 -42 -74 -113h-203q5 144 127 239t305 95
q199 0 317 -97q119 -97 119 -258v-745h-207v181h-5q-45 -88 -138 -140t-205 -52q-163 0 -265 88z" />
    <glyph glyph-name="uni0431" unicode="&#x431;" horiz-adv-x="1193" 
d="M214 145q-133 166 -133 488q0 456 138 660q138 202 450 214l94 3q197 9 284 54v-180q-57 -51 -272 -59l-93 -3q-213 -7 -306 -115q-86 -100 -119 -346h8q108 198 372 198q220 0 351 -143q130 -142 130 -384q0 -256 -138 -405q-139 -148 -378 -148q-255 0 -388 166z
M819 258q78 96 78 272q0 167 -78 259t-219 92t-219 -92t-78 -259q0 -176 78 -272q77 -96 219 -96q141 0 219 96z" />
    <glyph glyph-name="uni0432" unicode="&#x432;" horiz-adv-x="1081" 
d="M333 927v-288h217q191 0 191 145q0 143 -168 143h-240zM333 485v-325h259q195 0 195 161q0 164 -222 164h-232zM120 1086h495q157 0 248 -74q90 -74 90 -202q0 -85 -53 -152q-53 -68 -131 -83v-8q104 -14 168 -83q64 -70 64 -171q0 -144 -102 -228q-103 -85 -279 -85
h-500v1086z" />
    <glyph glyph-name="uni0433" unicode="&#x433;" horiz-adv-x="906" 
d="M335 914v-914h-215v1086h717v-172h-502z" />
    <glyph glyph-name="uni0434" unicode="&#x434;" horiz-adv-x="1260" 
d="M843 915h-383l-31 -423q-15 -215 -86 -312v-8h500v743zM19 -285v457h88q108 68 126 329l40 585h784v-914h170v-457h-200v285h-809v-285h-199z" />
    <glyph glyph-name="uni0435" unicode="&#x435;" horiz-adv-x="1131" 
d="M378 845q-78 -78 -87 -203h551q-4 127 -78 204t-192 77q-117 0 -194 -78zM1048 318q-23 -146 -153 -239q-130 -92 -313 -92q-236 0 -374 149q-137 148 -137 403t137 408t365 153q224 0 355 -145q131 -144 131 -391v-76h-769v-13q0 -141 81 -226q81 -86 215 -86
q95 0 164 42t91 113h207z" />
    <glyph glyph-name="uni0436" unicode="&#x436;" horiz-adv-x="1617" 
d="M1595 0h-269l-406 505h-8v-505h-213v505h-8l-406 -505h-265l465 572l-454 514h259l401 -467h8v467h213v-467h8l401 467h257l-452 -511z" />
    <glyph glyph-name="uni0437" unicode="&#x437;" horiz-adv-x="1025" 
d="M196 66q-122 87 -137 235h214q34 -147 233 -147q107 0 167 46q59 45 59 120q0 161 -226 161h-159v161h156q195 0 195 147q0 66 -47 104q-50 41 -143 41q-91 0 -149 -37t-69 -102h-208q17 144 130 228q115 84 295 84q192 0 299 -82q103 -80 103 -217q0 -83 -48 -147
q-48 -65 -128 -84v-8q213 -50 213 -247q0 -155 -120 -248q-120 -94 -320 -94q-190 0 -310 86z" />
    <glyph glyph-name="uni0438" unicode="&#x438;" horiz-adv-x="1196" 
d="M120 0v1086h213v-768h8l519 768h213v-1086h-213v771h-8l-519 -771h-213z" />
    <glyph glyph-name="uni0439" unicode="&#x439;" horiz-adv-x="1196" 
d="M413 1563q1 -86 51 -141q52 -57 135 -57q84 0 136 57q50 55 51 141h146q0 -142 -92 -229q-92 -88 -241 -88q-148 0 -240 88q-92 87 -92 229h146zM120 0v1086h213v-768h8l519 768h213v-1086h-213v771h-8l-519 -771h-213z" />
    <glyph glyph-name="uni043A" unicode="&#x43a;" horiz-adv-x="1074" 
d="M1052 0h-271l-438 505h-8v-505h-215v1086h215v-467h8l433 467h258l-484 -511z" />
    <glyph glyph-name="uni043B" unicode="&#x43b;" horiz-adv-x="1155" 
d="M442 492q-17 -249 -87 -366q-81 -136 -251 -136q-45 0 -74 11v191q27 -8 57 -8q76 0 114 87q33 75 43 230l39 585h750v-1086h-215v914h-345z" />
    <glyph glyph-name="uni043C" unicode="&#x43c;" horiz-adv-x="1494" 
d="M120 0v1086h270l355 -804h8l357 804h262v-1086h-209v757h-8l-330 -716h-159l-329 716h-8v-757h-209z" />
    <glyph glyph-name="uni043D" unicode="&#x43d;" horiz-adv-x="1181" 
d="M844 476h-509v-476h-215v1086h215v-438h509v438h215v-1086h-215v476z" />
    <glyph glyph-name="uni043E" unicode="&#x43e;" horiz-adv-x="1174" 
d="M210 137q-139 150 -139 406q0 255 140 406q139 151 374 151t374 -150q139 -151 139 -407t-139 -406q-138 -150 -374 -150t-375 150zM801 266q77 99 77 277t-77 277q-78 100 -216 100t-216 -100t-78 -277t78 -277q78 -99 216 -99t216 99z" />
    <glyph glyph-name="uni043F" unicode="&#x43f;" horiz-adv-x="1171" 
d="M834 914h-499v-914h-215v1086h929v-1086h-215v914z" />
    <glyph glyph-name="uni0440" unicode="&#x440;" horiz-adv-x="1213" 
d="M1013 946q126 -151 126 -403q0 -251 -125 -403q-124 -151 -329 -151q-242 0 -344 189h-4v-533h-217v1441h209v-180h5q46 88 139 139q94 52 207 52q208 0 333 -151zM837 274q80 101 80 269t-80 269t-212 101q-129 0 -209 -102t-81 -268q1 -166 81 -268q79 -102 209 -102
q132 0 212 101z" />
    <glyph glyph-name="uni0441" unicode="&#x441;" horiz-adv-x="1108" 
d="M835 740q-21 80 -85 127q-68 50 -168 50q-132 0 -211 -101q-80 -103 -80 -273q0 -174 81 -275q79 -99 211 -99q204 0 254 174h209q-25 -161 -150 -258q-126 -98 -314 -98q-232 0 -370 149q-140 150 -140 407q0 253 139 405t369 152q192 0 320 -106q121 -99 144 -254h-209
z" />
    <glyph glyph-name="uni0442" unicode="&#x442;" horiz-adv-x="984" 
d="M941 914h-343v-914h-214v914h-343v172h900v-172z" />
    <glyph glyph-name="uni0443" unicode="&#x443;" horiz-adv-x="1086" 
d="M141 -389v176q20 -5 69 -5q78 0 123 36q46 37 74 123l17 56l-394 1089h233l279 -888h5l279 888h228l-407 -1136q-70 -195 -161 -270q-90 -75 -257 -75q-54 0 -88 6z" />
    <glyph glyph-name="uni0444" unicode="&#x444;" horiz-adv-x="1495" 
d="M643 925q-162 -4 -257 -105q-96 -103 -96 -277t96 -276q94 -101 257 -106v764zM1108 820q-95 100 -257 105v-764q162 4 256 105q96 103 96 277t-95 277zM642 -14q-259 5 -414 155q-156 151 -156 402t156 403q155 149 414 154v348h210v-348q260 -5 414 -154
q155 -151 155 -403q0 -251 -156 -403q-154 -149 -413 -154v-341h-210v341z" />
    <glyph glyph-name="uni0445" unicode="&#x445;" horiz-adv-x="1052" 
d="M519 403l-244 -403h-235l361 542l-357 544h243l241 -395h5l239 395h238l-358 -536l354 -550h-239l-243 403h-5z" />
    <glyph glyph-name="uni0446" unicode="&#x446;" horiz-adv-x="1244" 
d="M1012 -285v285h-892v1086h215v-914h491v914h215v-914h170v-457h-199z" />
    <glyph glyph-name="uni0447" unicode="&#x447;" horiz-adv-x="1111" 
d="M774 0v487h-8q-113 -115 -295 -115q-175 0 -276 108q-100 105 -100 285v321h214v-306q0 -103 54 -163t149 -60q177 0 262 128v401h215v-1086h-215z" />
    <glyph glyph-name="uni0448" unicode="&#x448;" horiz-adv-x="1637" 
d="M120 1086h215v-914h375v914h215v-914h375v914h214v-1086h-1394v1086z" />
    <glyph glyph-name="uni0449" unicode="&#x449;" horiz-adv-x="1715" 
d="M1483 -285v285h-1363v1086h215v-914h375v914h215v-914h375v914h214v-914h168v-457h-199z" />
    <glyph glyph-name="uni044A" unicode="&#x44a;" horiz-adv-x="1231" 
d="M329 0v914h-288v172h503v-337h207q188 0 300 -101t112 -273t-112 -274q-111 -101 -300 -101h-422zM544 579v-408h190q98 0 157 56q58 56 58 148q0 93 -59 149q-58 55 -156 55h-190z" />
    <glyph glyph-name="uni044B" unicode="&#x44b;" horiz-adv-x="1418" 
d="M1081 1086h215v-1086h-215v1086zM335 579v-408h190q98 0 157 56q58 56 58 148q0 93 -59 149q-58 55 -156 55h-190zM120 1086h215v-337h207q189 0 301 -101t112 -273t-112 -274q-112 -101 -301 -101h-422v1086z" />
    <glyph glyph-name="uni044C" unicode="&#x44c;" horiz-adv-x="1022" 
d="M335 579v-408h190q98 0 157 56q58 56 58 148q0 93 -59 149q-58 55 -156 55h-190zM120 1086h215v-337h207q189 0 301 -101t112 -273t-112 -274q-112 -101 -301 -101h-422v1086z" />
    <glyph glyph-name="uni044D" unicode="&#x44d;" horiz-adv-x="1108" 
d="M269 343q49 -174 255 -174q121 0 200 83q80 84 89 229h-461v161h456q-16 126 -94 201q-77 74 -188 74q-101 0 -170 -50q-64 -47 -85 -127h-209q23 155 144 254q129 106 322 106q229 0 367 -152q139 -152 139 -405q0 -257 -139 -407q-137 -149 -369 -149q-189 0 -315 97
q-125 97 -151 259h209z" />
    <glyph glyph-name="uni044E" unicode="&#x44e;" horiz-adv-x="1601" 
d="M670 111q-134 132 -151 365h-184v-476h-215v1086h215v-438h187q27 216 158 338q132 121 341 121q235 0 370 -150q135 -151 135 -414q0 -264 -135 -414t-370 -150q-218 0 -351 132zM1231 262q74 99 74 281t-74 282t-210 100t-210 -100q-75 -100 -75 -282t74 -281
q75 -100 211 -100t210 100z" />
    <glyph glyph-name="uni044F" unicode="&#x44f;" horiz-adv-x="1062" 
d="M728 542v373h-199q-98 0 -155 -51q-58 -52 -58 -141q0 -80 58 -130q59 -51 155 -51h199zM728 376h-171l-264 -376h-245l297 412q-114 34 -178 114q-65 82 -65 195q0 169 113 267t304 98h421v-1086h-212v376z" />
    <glyph glyph-name="uni0451" unicode="&#x451;" horiz-adv-x="1131" 
d="M378 845q-78 -78 -87 -203h551q-4 127 -78 204t-192 77q-117 0 -194 -78zM1048 318q-23 -146 -153 -239q-130 -92 -313 -92q-236 0 -374 149q-137 148 -137 403t137 408t365 153q224 0 355 -145q131 -144 131 -391v-76h-769v-13q0 -141 81 -226q81 -86 215 -86
q95 0 164 42t91 113h207zM286 1295q-35 35 -35 84t35 84q36 35 86 35t85 -35q35 -34 35 -84q0 -49 -35 -84t-85 -35t-86 35zM689 1295q-35 35 -35 84t35 84q36 35 86 35t85 -35q35 -34 35 -84q0 -49 -35 -84t-85 -35t-86 35z" />
    <glyph glyph-name="uni0452" unicode="&#x452;" horiz-adv-x="1235" 
d="M1117 -68q0 -322 -354 -322q-43 0 -47 1v172l30 -1q86 0 121 36q34 35 34 118v716q0 122 -68 191t-187 69q-126 0 -203 -79q-78 -80 -78 -211v-622h-216v1245h-111v134h111v177h214v-177h250v-134h-250v-336h7q98 189 352 189q178 0 286 -110q109 -110 109 -294v-762z
" />
    <glyph glyph-name="uni0453" unicode="&#x453;" horiz-adv-x="917" 
d="M373 1255l215 303h225l-262 -303h-178zM335 914v-914h-215v1086h717v-172h-502z" />
    <glyph glyph-name="uni0454" unicode="&#x454;" horiz-adv-x="1108" 
d="M1046 343q-26 -162 -150 -259q-126 -97 -314 -97q-232 0 -370 149q-140 150 -140 407q0 253 139 405t369 152q192 0 320 -106q121 -99 144 -254h-209q-21 80 -85 127q-68 50 -169 50q-112 0 -189 -74q-78 -74 -94 -201h456v-161h-461q9 -145 89 -229q79 -83 200 -83
q206 0 255 174h209z" />
    <glyph glyph-name="uni0455" unicode="&#x455;" horiz-adv-x="1037" 
d="M219 1010q117 89 304 89q178 0 295 -91q116 -90 120 -232h-204q-7 72 -65 114t-151 42q-92 0 -149 -39q-56 -40 -56 -104q0 -98 169 -139l180 -43q164 -40 232 -106t68 -186q0 -145 -125 -237q-125 -91 -322 -91q-189 0 -310 90q-120 89 -132 237h214q26 -161 239 -161
q101 0 161 39q59 39 59 105q0 52 -36 82q-35 30 -121 52l-194 48q-293 72 -293 298q0 143 117 233z" />
    <glyph glyph-name="uni0456" unicode="&#x456;" horiz-adv-x="475" 
d="M126 1086h217v-1086h-217v1086zM145 1278q-37 36 -37 88q0 53 37 89t90 36t90 -36t37 -89q0 -52 -37 -88q-37 -37 -90 -37t-90 37z" />
    <glyph glyph-name="uni0457" unicode="&#x457;" horiz-adv-x="478" 
d="M128 1086h217v-1086h-217v1086zM-50 1295q-35 35 -35 84t35 84q36 35 86 35t85 -35q35 -34 35 -84q0 -49 -35 -84t-85 -35t-86 35zM353 1295q-35 35 -35 84t35 84q36 35 86 35t85 -35q35 -34 35 -84q0 -49 -35 -84t-85 -35t-86 35z" />
    <glyph glyph-name="uni0458" unicode="&#x458;" horiz-adv-x="488" 
d="M346 -65q0 -325 -353 -325q-43 0 -48 1v172l31 -1q84 0 119 35q34 35 34 119v1150h217v-1151zM148 1278q-37 36 -37 88q0 53 37 89t90 36t90 -36t37 -89q0 -52 -37 -88q-37 -37 -90 -37t-90 37z" />
    <glyph glyph-name="uni0459" unicode="&#x459;" horiz-adv-x="1719" 
d="M442 492q-17 -249 -87 -366q-81 -136 -251 -136q-45 0 -74 11v191q27 -8 57 -8q76 0 114 87q33 75 43 230l39 585h750v-337h206q189 0 301 -101t112 -273t-112 -274q-112 -101 -301 -101h-421v914h-345zM1033 579v-408h190q98 0 157 56q58 56 58 148q0 93 -59 149
q-58 55 -156 55h-190z" />
    <glyph glyph-name="uni045A" unicode="&#x45a;" horiz-adv-x="1728" 
d="M1041 512v-342h204q92 0 148 47q55 47 55 124t-55 124q-56 47 -148 47h-204zM826 509h-491v-509h-215v1086h215v-407h491v407h215v-405h215q185 0 295 -92t110 -248q0 -157 -110 -249t-295 -92h-430v509z" />
    <glyph glyph-name="uni045B" unicode="&#x45b;" horiz-adv-x="1235" 
d="M370 909q98 189 352 189q178 0 286 -110q109 -110 109 -294v-694h-216v652q0 122 -68 191t-187 69q-126 0 -203 -79q-78 -80 -78 -211v-622h-216v1245h-111v134h111v177h214v-177h250v-134h-250v-336h7z" />
    <glyph glyph-name="uni045C" unicode="&#x45c;" horiz-adv-x="1074" 
d="M630 1255h-178l215 303h225zM1052 0h-271l-438 505h-8v-505h-215v1086h215v-467h8l433 467h258l-484 -511z" />
    <glyph glyph-name="uni045E" unicode="&#x45e;" horiz-adv-x="1086" 
d="M357 1563q1 -86 51 -141q52 -57 135 -57q84 0 136 57q50 55 51 141h146q0 -142 -92 -229q-92 -88 -241 -88q-148 0 -240 88q-92 87 -92 229h146zM141 -389v176q20 -5 69 -5q78 0 123 36q46 37 74 123l17 56l-394 1089h233l279 -888h5l279 888h228l-407 -1136
q-70 -195 -161 -270q-90 -75 -257 -75q-54 0 -88 6z" />
    <glyph glyph-name="uni045F" unicode="&#x45f;" horiz-adv-x="1171" 
d="M684 0v-285h-199v285h-365v1086h215v-914h499v914h215v-1086h-365z" />
    <glyph glyph-name="uni0490" unicode="&#x490;" horiz-adv-x="1094" 
d="M371 0h-225v1443h673v285h209v-480h-657v-1248z" />
    <glyph glyph-name="uni0491" unicode="&#x491;" horiz-adv-x="906" 
d="M335 914v-914h-215v1086h517v285h200v-457h-502z" />
    <glyph glyph-name="uni0E3F" unicode="&#xe3f;" horiz-adv-x="1270" 
d="M642 183q281 11 281 239q0 221 -281 235v-474zM505 183v475h-167v-475h167zM338 829h167v431h-167v-431zM642 834q218 29 218 210q0 93 -57 149q-57 55 -161 65v-424zM827 756q146 -16 236 -111q89 -95 89 -237q0 -191 -131 -299q-131 -109 -361 -109h-18v-136h-137v136
h-389v1443h389v153h137v-153h4q203 0 319 -97q116 -96 116 -263q0 -113 -74 -203q-73 -89 -180 -107v-17z" />
    <glyph glyph-name="uni1E00" unicode="&#x1e00;" horiz-adv-x="1336" 
d="M940 390h-550l-132 -390h-233l521 1443h242l521 -1443h-237zM447 570h436l-215 633h-6zM521 -505q-61 60 -61 144q0 85 61 145q61 61 146 61t146 -61q61 -60 61 -145q0 -84 -61 -144q-61 -61 -146 -61t-146 61zM745 -438q33 32 33 77q0 46 -33 78q-32 33 -78 33t-78 -33
q-33 -32 -33 -78q0 -45 33 -77q32 -33 78 -33t78 33z" />
    <glyph glyph-name="uni1E01" unicode="&#x1e01;" horiz-adv-x="1092" 
d="M689 231q81 70 81 177v85l-264 -18q-225 -14 -225 -160q0 -70 56 -111q56 -42 150 -42q121 0 202 69zM164 77q-102 89 -102 234q0 142 107 223q106 81 308 94l293 17v84q0 93 -60 143q-59 49 -168 49q-88 0 -149 -42q-60 -42 -74 -113h-203q5 144 127 239t305 95
q199 0 317 -97q119 -97 119 -258v-745h-207v181h-5q-45 -88 -138 -140t-205 -52q-163 0 -265 88zM385 -505q-61 60 -61 144q0 85 61 145q61 61 146 61t146 -61q61 -60 61 -145q0 -84 -61 -144q-61 -61 -146 -61t-146 61zM609 -438q33 32 33 77q0 46 -33 78q-32 33 -78 33
t-78 -33q-33 -32 -33 -78q0 -45 33 -77q32 -33 78 -33t78 33z" />
    <glyph glyph-name="uni1E02" unicode="&#x1e02;" horiz-adv-x="1279" 
d="M490 1615q-38 38 -38 92q0 55 38 93t93 38t93 -38t38 -93q0 -54 -38 -92q-38 -39 -93 -39t-93 39zM132 0v1443h591q191 0 307 -98q116 -99 116 -262q0 -115 -74 -205q-74 -91 -182 -109v-8q147 -17 237 -113q91 -97 91 -240q0 -191 -131 -299q-131 -109 -362 -109h-593z
M356 829h265q146 0 224 58t78 165q0 100 -66 154q-67 54 -189 54h-312v-431zM680 183q309 0 309 239q0 236 -322 236h-311v-475h324z" />
    <glyph glyph-name="uni1E03" unicode="&#x1e03;" horiz-adv-x="1201" 
d="M135 1680q-38 38 -38 92q0 55 38 93t93 38t93 -38t38 -93q0 -54 -38 -92q-38 -39 -93 -39t-93 39zM333 184h-5v-184h-209v1508h217v-602h4q103 191 344 191q206 0 330 -151t124 -403t-124 -403q-125 -151 -332 -151q-244 0 -349 195zM415 811q-80 -103 -80 -268
q0 -166 80 -268q81 -102 212 -102t210 101q79 100 79 269t-79 269q-79 101 -210 101t-212 -102z" />
    <glyph glyph-name="uni1E04" unicode="&#x1e04;" horiz-adv-x="1279" 
d="M490 -377q-38 38 -38 92q0 55 38 93t93 38t93 -38t38 -93q0 -54 -38 -92q-38 -39 -93 -39t-93 39zM132 0v1443h591q191 0 307 -98q116 -99 116 -262q0 -115 -74 -205q-74 -91 -182 -109v-8q147 -17 237 -113q91 -97 91 -240q0 -191 -131 -299q-131 -109 -362 -109h-593z
M356 829h265q146 0 224 58t78 165q0 100 -66 154q-67 54 -189 54h-312v-431zM680 183q309 0 309 239q0 236 -322 236h-311v-475h324z" />
    <glyph glyph-name="uni1E05" unicode="&#x1e05;" horiz-adv-x="1201" 
d="M532 -377q-38 38 -38 92q0 55 38 93t93 38t93 -38t38 -93q0 -54 -38 -92q-38 -39 -93 -39t-93 39zM333 184h-5v-184h-209v1508h217v-602h4q103 191 344 191q206 0 330 -151t124 -403t-124 -403q-125 -151 -332 -151q-244 0 -349 195zM415 811q-80 -103 -80 -268
q0 -166 80 -268q81 -102 212 -102t210 101q79 100 79 269t-79 269q-79 101 -210 101t-212 -102z" />
    <glyph glyph-name="uni1E06" unicode="&#x1e06;" horiz-adv-x="1279" 
d="M132 0v1443h591q191 0 307 -98q116 -99 116 -262q0 -115 -74 -205q-74 -91 -182 -109v-8q147 -17 237 -113q91 -97 91 -240q0 -191 -131 -299q-131 -109 -362 -109h-593zM356 829h265q146 0 224 58t78 165q0 100 -66 154q-67 54 -189 54h-312v-431zM680 183
q309 0 309 239q0 236 -322 236h-311v-475h324zM910 -342h-654v119h654v-119z" />
    <glyph glyph-name="uni1E07" unicode="&#x1e07;" horiz-adv-x="1201" 
d="M952 -342h-654v119h654v-119zM333 184h-5v-184h-209v1508h217v-602h4q103 191 344 191q206 0 330 -151t124 -403t-124 -403q-125 -151 -332 -151q-244 0 -349 195zM415 811q-80 -103 -80 -268q0 -166 80 -268q81 -102 212 -102t210 101q79 100 79 269t-79 269
q-79 101 -210 101t-212 -102z" />
    <glyph glyph-name="uni1E08" unicode="&#x1e08;" horiz-adv-x="1424" 
d="M825 1553h-176l231 303h225zM1354 449q-38 -208 -182 -331t-366 -140l-43 -110q200 0 200 -154q0 -80 -62 -130q-63 -49 -164 -50q-85 -2 -145 17v105q37 -14 118 -14q115 0 115 66q0 63 -141 63h-55v83l51 124q-278 21 -439 219q-161 199 -161 525q0 342 179 544
q179 201 482 201q246 0 414 -138q170 -139 198 -364h-222q-30 139 -136 222q-107 84 -254 84q-197 0 -314 -149q-118 -150 -118 -400q0 -253 117 -401q117 -149 316 -149q150 0 253 73q102 73 136 204h223z" />
    <glyph glyph-name="uni1E09" unicode="&#x1e09;" horiz-adv-x="1089" 
d="M652 1255h-178l215 303h225zM1040 365q-17 -155 -125 -256q-107 -100 -275 -118l-47 -123q200 0 200 -154q0 -80 -62 -130q-63 -49 -164 -50q-85 -2 -145 17v105q37 -14 118 -14q115 0 115 66q0 63 -141 63h-55v83l55 136q-208 19 -330 165q-123 149 -123 388
q0 253 139 405t370 152q201 0 331 -114q122 -107 137 -271h-207q-16 90 -81 144q-70 58 -178 58q-132 0 -211 -101q-80 -103 -80 -273q0 -174 81 -275q79 -99 211 -99q220 0 260 196h207z" />
    <glyph glyph-name="uni1E0A" unicode="&#x1e0a;" horiz-adv-x="1413" 
d="M490 1615q-38 38 -38 92q0 55 38 93t93 38t93 -38t38 -93q0 -54 -38 -92q-38 -39 -93 -39t-93 39zM649 1443q323 0 503 -189t180 -530q0 -342 -180 -533t-503 -191h-517v1443h517zM356 194h272q230 0 353 136q123 137 123 392t-123 392q-123 136 -353 136h-272v-1056z
" />
    <glyph glyph-name="uni1E0B" unicode="&#x1e0b;" horiz-adv-x="1200" 
d="M881 1680q-38 38 -38 92q0 55 38 93t93 38t93 -38t38 -93q0 -54 -38 -92q-38 -39 -93 -39t-93 39zM188 141q-127 152 -127 403q0 249 127 402q126 151 329 151q243 0 342 -191h5v602h216v-1508h-210v184h-4q-101 -195 -347 -195q-205 0 -331 152zM363 812
q-80 -101 -80 -269q0 -169 80 -269q79 -101 211 -101q131 0 211 102t80 268t-80 268q-81 102 -211 102q-131 0 -211 -101z" />
    <glyph glyph-name="uni1E0C" unicode="&#x1e0c;" horiz-adv-x="1413" 
d="M490 -377q-38 38 -38 92q0 55 38 93t93 38t93 -38t38 -93q0 -54 -38 -92q-38 -39 -93 -39t-93 39zM649 1443q323 0 503 -189t180 -530q0 -342 -180 -533t-503 -191h-517v1443h517zM356 194h272q230 0 353 136q123 137 123 392t-123 392q-123 136 -353 136h-272v-1056z
" />
    <glyph glyph-name="uni1E0D" unicode="&#x1e0d;" horiz-adv-x="1200" 
d="M457 -377q-38 38 -38 92q0 55 38 93t93 38t93 -38t38 -93q0 -54 -38 -92q-38 -39 -93 -39t-93 39zM188 141q-127 152 -127 403q0 249 127 402q126 151 329 151q243 0 342 -191h5v602h216v-1508h-210v184h-4q-101 -195 -347 -195q-205 0 -331 152zM363 812
q-80 -101 -80 -269q0 -169 80 -269q79 -101 211 -101q131 0 211 102t80 268t-80 268q-81 102 -211 102q-131 0 -211 -101z" />
    <glyph glyph-name="uni1E0E" unicode="&#x1e0e;" horiz-adv-x="1413" 
d="M910 -342h-654v119h654v-119zM649 1443q323 0 503 -189t180 -530q0 -342 -180 -533t-503 -191h-517v1443h517zM356 194h272q230 0 353 136q123 137 123 392t-123 392q-123 136 -353 136h-272v-1056z" />
    <glyph glyph-name="uni1E0F" unicode="&#x1e0f;" horiz-adv-x="1200" 
d="M877 -342h-654v119h654v-119zM188 141q-127 152 -127 403q0 249 127 402q126 151 329 151q243 0 342 -191h5v602h216v-1508h-210v184h-4q-101 -195 -347 -195q-205 0 -331 152zM363 812q-80 -101 -80 -269q0 -169 80 -269q79 -101 211 -101q131 0 211 102t80 268t-80 268
q-81 102 -211 102q-131 0 -211 -101z" />
    <glyph glyph-name="uni1E10" unicode="&#x1e10;" horiz-adv-x="1413" 
d="M407 -526l102 360h190l-133 -360h-159zM649 1443q323 0 503 -189t180 -530q0 -342 -180 -533t-503 -191h-517v1443h517zM356 194h272q230 0 353 136q123 137 123 392t-123 392q-123 136 -353 136h-272v-1056z" />
    <glyph glyph-name="uni1E11" unicode="&#x1e11;" horiz-adv-x="1200" 
d="M374 -526l102 360h190l-133 -360h-159zM188 141q-127 152 -127 403q0 249 127 402q126 151 329 151q243 0 342 -191h5v602h216v-1508h-210v184h-4q-101 -195 -347 -195q-205 0 -331 152zM363 812q-80 -101 -80 -269q0 -169 80 -269q79 -101 211 -101q131 0 211 102
t80 268t-80 268q-81 102 -211 102q-131 0 -211 -101z" />
    <glyph glyph-name="uni1E12" unicode="&#x1e12;" horiz-adv-x="1413" 
d="M649 1443q323 0 503 -189t180 -530q0 -342 -180 -533t-503 -191h-517v1443h517zM356 194h272q230 0 353 136q123 137 123 392t-123 392q-123 136 -353 136h-272v-1056zM669 -164l286 -306h-188l-182 200h-4l-182 -200h-188l286 306h172z" />
    <glyph glyph-name="uni1E13" unicode="&#x1e13;" horiz-adv-x="1200" 
d="M188 141q-127 152 -127 403q0 249 127 402q126 151 329 151q243 0 342 -191h5v602h216v-1508h-210v184h-4q-101 -195 -347 -195q-205 0 -331 152zM363 812q-80 -101 -80 -269q0 -169 80 -269q79 -101 211 -101q131 0 211 102t80 268t-80 268q-81 102 -211 102
q-131 0 -211 -101zM636 -164l286 -306h-188l-182 200h-4l-182 -200h-188l286 306h172z" />
    <glyph glyph-name="uni1E14" unicode="&#x1e14;" horiz-adv-x="1146" 
d="M263 1755h654v-119h-654v119zM511 1863l-237 218h212l188 -218h-163zM1048 0h-916v1443h916v-193h-692v-422h655v-186h-655v-448h692v-194z" />
    <glyph glyph-name="uni1E15" unicode="&#x1e15;" horiz-adv-x="1113" 
d="M368 845q-78 -78 -87 -203h551q-4 127 -78 204t-192 77q-117 0 -194 -78zM1038 318q-23 -146 -153 -239q-130 -92 -313 -92q-236 0 -374 149q-137 148 -137 403t137 408t365 153q224 0 355 -145q131 -144 131 -391v-76h-769v-13q0 -141 81 -226q81 -86 215 -86
q95 0 164 42t91 113h207zM479 1602l-205 262h212l163 -262h-170zM886 1312h-646v119h646v-119z" />
    <glyph glyph-name="uni1E16" unicode="&#x1e16;" horiz-adv-x="1146" 
d="M263 1636v119h654v-119h-654zM694 2081h212l-237 -218h-163zM1048 0h-916v1443h916v-193h-692v-422h655v-186h-655v-448h692v-194z" />
    <glyph glyph-name="uni1E17" unicode="&#x1e17;" horiz-adv-x="1113" 
d="M368 845q-78 -78 -87 -203h551q-4 127 -78 204t-192 77q-117 0 -194 -78zM1038 318q-23 -146 -153 -239q-130 -92 -313 -92q-236 0 -374 149q-137 148 -137 403t137 408t365 153q224 0 355 -145q131 -144 131 -391v-76h-769v-13q0 -141 81 -226q81 -86 215 -86
q95 0 164 42t91 113h207zM644 1864h212l-206 -261h-174zM886 1312h-646v119h646v-119z" />
    <glyph glyph-name="uni1E18" unicode="&#x1e18;" horiz-adv-x="1146" 
d="M1048 0h-916v1443h916v-193h-692v-422h655v-186h-655v-448h692v-194zM676 -164l286 -306h-188l-182 200h-4l-182 -200h-188l286 306h172z" />
    <glyph glyph-name="uni1E19" unicode="&#x1e19;" horiz-adv-x="1113" 
d="M368 845q-78 -78 -87 -203h551q-4 127 -78 204t-192 77q-117 0 -194 -78zM1038 318q-23 -146 -153 -239q-130 -92 -313 -92q-236 0 -374 149q-137 148 -137 403t137 408t365 153q224 0 355 -145q131 -144 131 -391v-76h-769v-13q0 -141 81 -226q81 -86 215 -86
q95 0 164 42t91 113h207zM655 -164l286 -306h-188l-182 200h-4l-182 -200h-188l286 306h172z" />
    <glyph glyph-name="uni1E1A" unicode="&#x1e1a;" horiz-adv-x="1146" 
d="M576 -349q-74 73 -106 73q-67 0 -69 -130h-129q0 120 52 189q51 68 139 68q78 0 153 -73t103 -73q63 0 63 132h130q0 -118 -53 -189q-52 -70 -136 -70q-73 0 -147 73zM1048 0h-916v1443h916v-193h-692v-422h655v-186h-655v-448h692v-194z" />
    <glyph glyph-name="uni1E1B" unicode="&#x1e1b;" horiz-adv-x="1113" 
d="M555 -349q-74 73 -106 73q-67 0 -69 -130h-129q0 120 52 189q51 68 139 68q78 0 153 -73t103 -73q63 0 63 132h130q0 -118 -53 -189q-52 -70 -136 -70q-73 0 -147 73zM368 845q-78 -78 -87 -203h551q-4 127 -78 204t-192 77q-117 0 -194 -78zM1038 318
q-23 -146 -153 -239q-130 -92 -313 -92q-236 0 -374 149q-137 148 -137 403t137 408t365 153q224 0 355 -145q131 -144 131 -391v-76h-769v-13q0 -141 81 -226q81 -86 215 -86q95 0 164 42t91 113h207z" />
    <glyph glyph-name="uni1E1C" unicode="&#x1e1c;" horiz-adv-x="1146" 
d="M915 1853q-1 -134 -90 -219q-90 -87 -235 -87t-235 87q-89 85 -90 219h140q0 -80 52 -134q53 -54 133 -54t133 54q52 54 52 134h140zM356 1250v-422h655v-186h-655v-448h692v-194h-381l-51 -132q200 0 200 -154q0 -80 -62 -130q-63 -49 -164 -50q-85 -2 -145 17v105
q37 -14 118 -14q115 0 115 66q0 63 -141 63h-55v83l59 146h-409v1443h916v-193h-692z" />
    <glyph glyph-name="uni1E1D" unicode="&#x1e1d;" horiz-adv-x="1113" 
d="M897 1557q-1 -139 -92 -226q-93 -88 -243 -88t-243 88q-91 87 -92 226h143q1 -82 55 -137q55 -56 137 -56t137 56q54 55 55 137h143zM832 642q-4 127 -78 204t-192 77q-117 0 -194 -78q-78 -78 -87 -203h551zM280 488v-13q0 -141 81 -226q81 -86 215 -86q95 0 164 42
t91 113h207q-21 -131 -130 -221q-108 -89 -266 -106l-47 -123q200 0 200 -154q0 -80 -62 -130q-63 -49 -164 -50q-85 -2 -145 17v105q37 -14 118 -14q115 0 115 66q0 63 -141 63h-55v83l55 135q-212 18 -333 164q-122 147 -122 386q0 255 137 408t365 153q224 0 355 -145
q131 -144 131 -391v-76h-769z" />
    <glyph glyph-name="uni1E1E" unicode="&#x1e1e;" horiz-adv-x="1096" 
d="M485 1615q-38 38 -38 92q0 55 38 93t93 38t93 -38t38 -93q0 -54 -38 -92q-38 -39 -93 -39t-93 39zM132 0v1443h901v-193h-677v-457h620v-189h-620v-604h-224z" />
    <glyph glyph-name="uni1E1F" unicode="&#x1e1f;" horiz-adv-x="667" 
d="M298 1646q-38 38 -38 92q0 55 38 93t93 38t93 -38t38 -93q0 -54 -38 -92q-38 -39 -93 -39t-93 39zM175 915h-150v171h150v100q0 153 74 222q74 70 238 70q52 0 110 -10v-165q-35 8 -81 8q-67 0 -96 -31q-30 -31 -31 -101v-93h209v-171h-207v-915h-216v915z" />
    <glyph glyph-name="uni1E20" unicode="&#x1e20;" horiz-adv-x="1462" 
d="M1375 600q0 -293 -164 -459q-165 -165 -458 -165q-310 0 -491 202q-182 203 -182 550q0 341 181 540q180 199 489 199q241 0 409 -131q167 -131 205 -347h-230q-40 134 -141 208t-242 74q-207 0 -324 -143q-118 -144 -118 -398q0 -259 120 -408q120 -150 326 -150
q175 0 286 102q111 103 113 267v25h-373v181h594v-147zM1073 1636h-654v119h654v-119z" />
    <glyph glyph-name="uni1E21" unicode="&#x1e21;" horiz-adv-x="1192" 
d="M896 1312h-646v119h646v-119zM784 282q80 100 80 264q0 165 -80 266q-81 101 -213 101q-131 0 -210 -100q-78 -100 -78 -267q0 -166 78 -265q79 -98 210 -98q132 0 213 99zM248 -307q-128 84 -144 223h219q18 -63 88 -100t170 -37q129 0 206 63t77 169v179h-5
q-101 -187 -345 -187q-204 0 -328 148q-125 149 -125 396q0 251 125 401q124 149 333 149q240 0 347 -191h4v180h210v-1058q0 -194 -137 -307q-136 -112 -371 -112q-196 0 -324 84z" />
    <glyph glyph-name="uni1E22" unicode="&#x1e22;" horiz-adv-x="1454" 
d="M1097 0v639h-741v-639h-224v1443h224v-610h741v610h224v-1443h-224zM633 1615q-38 38 -38 92q0 55 38 93t93 38t93 -38t38 -93q0 -54 -38 -92q-38 -39 -93 -39t-93 39z" />
    <glyph glyph-name="uni1E23" unicode="&#x1e23;" horiz-adv-x="1195" 
d="M119 1508h215v-605h5q99 195 353 195q179 0 288 -110q108 -110 108 -294v-694h-216v652q0 122 -68 191t-187 69q-126 0 -203 -80q-78 -80 -78 -210v-622h-217v1508zM135 1680q-38 38 -38 92q0 55 38 93t93 38t93 -38t38 -93q0 -54 -38 -92q-38 -39 -93 -39t-93 39z" />
    <glyph glyph-name="uni1E24" unicode="&#x1e24;" horiz-adv-x="1454" 
d="M1097 0v639h-741v-639h-224v1443h224v-610h741v610h224v-1443h-224zM633 -377q-38 38 -38 92q0 55 38 93t93 38t93 -38t38 -93q0 -54 -38 -92q-38 -39 -93 -39t-93 39z" />
    <glyph glyph-name="uni1E25" unicode="&#x1e25;" horiz-adv-x="1195" 
d="M119 1508h215v-605h5q99 195 353 195q179 0 288 -110q108 -110 108 -294v-694h-216v652q0 122 -68 191t-187 69q-126 0 -203 -80q-78 -80 -78 -210v-622h-217v1508zM510 -377q-38 38 -38 92q0 55 38 93t93 38t93 -38t38 -93q0 -54 -38 -92q-38 -39 -93 -39t-93 39z" />
    <glyph glyph-name="uni1E26" unicode="&#x1e26;" horiz-adv-x="1454" 
d="M1097 0v639h-741v-639h-224v1443h224v-610h741v610h224v-1443h-224zM439 1611q-35 35 -35 84t35 84q36 35 86 35t85 -35q35 -34 35 -84q0 -49 -35 -84t-85 -35t-86 35zM842 1611q-35 35 -35 84t35 84q36 35 86 35t85 -35q35 -34 35 -84q0 -49 -35 -84t-85 -35t-86 35z
" />
    <glyph glyph-name="uni1E27" unicode="&#x1e27;" horiz-adv-x="1195" 
d="M120 1508h215v-605h5q99 195 353 195q179 0 288 -110q108 -110 108 -294v-694h-216v652q0 122 -68 191t-187 69q-126 0 -203 -80q-78 -80 -78 -210v-622h-217v1508zM-58 1676q-35 35 -35 84t35 84q36 35 86 35t85 -35q35 -34 35 -84q0 -49 -35 -84t-85 -35t-86 35z
M345 1676q-35 35 -35 84t35 84q36 35 86 35t85 -35q35 -34 35 -84q0 -49 -35 -84t-85 -35t-86 35z" />
    <glyph glyph-name="uni1E28" unicode="&#x1e28;" horiz-adv-x="1454" 
d="M1321 1443v-1443h-224v639h-741v-639h-54l-51 -132q200 0 200 -154q0 -80 -62 -130q-63 -49 -164 -50q-85 -2 -145 17v105q37 -14 118 -14q115 0 115 66q0 63 -141 63h-55v83l59 146h-44v1443h224v-610h741v610h224z" />
    <glyph glyph-name="uni1E29" unicode="&#x1e29;" horiz-adv-x="1195" 
d="M339 903q99 195 353 195q179 0 288 -110q108 -110 108 -294v-694h-216v652q0 122 -68 191t-187 69q-126 0 -203 -80q-78 -80 -78 -210v-622h-45l-51 -132q200 0 200 -154q0 -80 -62 -130q-63 -49 -164 -50q-85 -2 -145 17v105q37 -14 118 -14q115 0 115 66q0 63 -141 63
h-55v83l59 146h-46v1508h215v-605h5z" />
    <glyph glyph-name="uni1E2A" unicode="&#x1e2a;" horiz-adv-x="1454" 
d="M541 -189q0 -80 52 -134q53 -54 133 -54t133 54q52 54 52 134h140q-1 -134 -90 -219q-90 -87 -235 -87t-235 87q-89 85 -90 219h140zM1097 0v639h-741v-639h-224v1443h224v-610h741v610h224v-1443h-224z" />
    <glyph glyph-name="uni1E2B" unicode="&#x1e2b;" horiz-adv-x="1195" 
d="M418 -189q0 -80 52 -134q53 -54 133 -54t133 54q52 54 52 134h140q-1 -134 -90 -219q-90 -87 -235 -87t-235 87q-89 85 -90 219h140zM119 1508h215v-605h5q99 195 353 195q179 0 288 -110q108 -110 108 -294v-694h-216v652q0 122 -68 191t-187 69q-126 0 -203 -80
q-78 -80 -78 -210v-622h-217v1508z" />
    <glyph glyph-name="uni1E2C" unicode="&#x1e2c;" horiz-adv-x="490" 
d="M133 0v1443h224v-1443h-224zM231 -349q-74 73 -106 73q-67 0 -69 -130h-129q0 120 52 189q51 68 139 68q78 0 153 -73t103 -73q63 0 63 132h130q0 -118 -53 -189q-52 -70 -136 -70q-73 0 -147 73z" />
    <glyph glyph-name="uni1E2D" unicode="&#x1e2d;" horiz-adv-x="455" 
d="M119 1086h217v-1086h-217v1086zM138 1278q-37 36 -37 88q0 53 37 89t90 36t90 -36t37 -89q0 -52 -37 -88q-37 -37 -90 -37t-90 37zM214 -349q-74 73 -106 73q-67 0 -69 -130h-129q0 120 52 189q51 68 139 68q78 0 153 -73t103 -73q63 0 63 132h130q0 -118 -53 -189
q-52 -70 -136 -70q-73 0 -147 73z" />
    <glyph glyph-name="uni1E2E" unicode="&#x1e2e;" horiz-adv-x="490" 
d="M133 0v1443h224v-1443h-224zM349 2081h212l-237 -218h-163zM-25 1614q-32 31 -32 76t32 76q32 32 78 32q45 0 77 -32q31 -32 31 -76q0 -45 -31 -76q-32 -32 -77 -32q-46 0 -78 32zM361 1614q-32 31 -32 76q0 44 32 76q31 32 76 32q46 0 78 -32q32 -31 32 -76t-32 -76
q-32 -32 -78 -32q-45 0 -76 32z" />
    <glyph glyph-name="uni1E2F" unicode="&#x1e2f;" horiz-adv-x="455" 
d="M309 1864h212l-206 -261h-174zM-59 1295q-35 35 -35 84t35 84q36 35 86 35t85 -35q35 -34 35 -84q0 -49 -35 -84t-85 -35t-86 35zM344 1295q-35 35 -35 84t35 84q36 35 86 35t85 -35q35 -34 35 -84q0 -49 -35 -84t-85 -35t-86 35zM119 1086h217v-1086h-217v1086z" />
    <glyph glyph-name="uni1E30" unicode="&#x1e30;" horiz-adv-x="1293" 
d="M540 1551l231 303h225l-280 -303h-176zM132 0v1443h224v-687h9l603 687h266l-572 -639l620 -804h-278l-500 650l-148 -169v-481h-224z" />
    <glyph glyph-name="uni1E31" unicode="&#x1e31;" horiz-adv-x="1062" 
d="M139 1616l231 303h225l-280 -303h-176zM784 1086h255l-454 -468l470 -618h-250l-375 486l-94 -92v-394h-217v1508h217v-891z" />
    <glyph glyph-name="uni1E32" unicode="&#x1e32;" horiz-adv-x="1293" 
d="M535 -377q-38 38 -38 92q0 55 38 93t93 38t93 -38t38 -93q0 -54 -38 -92q-38 -39 -93 -39t-93 39zM132 0v1443h224v-687h9l603 687h266l-572 -639l620 -804h-278l-500 650l-148 -169v-481h-224z" />
    <glyph glyph-name="uni1E33" unicode="&#x1e33;" horiz-adv-x="1062" 
d="M472 -377q-38 38 -38 92q0 55 38 93t93 38t93 -38t38 -93q0 -54 -38 -92q-38 -39 -93 -39t-93 39zM784 1086h255l-454 -468l470 -618h-250l-375 486l-94 -92v-394h-217v1508h217v-891z" />
    <glyph glyph-name="uni1E34" unicode="&#x1e34;" horiz-adv-x="1293" 
d="M132 0v1443h224v-687h9l603 687h266l-572 -639l620 -804h-278l-500 650l-148 -169v-481h-224zM955 -342h-654v119h654v-119z" />
    <glyph glyph-name="uni1E35" unicode="&#x1e35;" horiz-adv-x="1062" 
d="M784 1086h255l-454 -468l470 -618h-250l-375 486l-94 -92v-394h-217v1508h217v-891zM892 -342h-654v119h654v-119z" />
    <glyph glyph-name="uni1E36" unicode="&#x1e36;" horiz-adv-x="1088" 
d="M483 -377q-38 38 -38 92q0 55 38 93t93 38t93 -38t38 -93q0 -54 -38 -92q-38 -39 -93 -39t-93 39zM1028 0h-896v1443h224v-1249h672v-194z" />
    <glyph glyph-name="uni1E37" unicode="&#x1e37;" horiz-adv-x="457" 
d="M135 -377q-38 38 -38 92q0 55 38 93t93 38t93 -38t38 -93q0 -54 -38 -92q-38 -39 -93 -39t-93 39zM119 1508h217v-1508h-217v1508z" />
    </font>
</defs>
</svg>
