<?xml version="1.0" standalone="no"?>
<!DOCTYPE svg PUBLIC "-//W3C//DTD SVG 1.1//EN" "http://www.w3.org/Graphics/SVG/1.1/DTD/svg11.dtd" >
<svg>
<metadata>
Created by FontForge 20090622 at Sat Apr 27 14:00:54 2019
 By deploy user
&#194;&#169; 2014 Apple Inc. All rights reserved.
</metadata>
<defs>
<font id="SFUIDisplay-Bold" horiz-adv-x="0" >
  <font-face 
    font-family="SFUIDisplay Display"
    font-weight="700"
    font-stretch="normal"
    units-per-em="2048"
    panose-1="0 0 8 0 0 0 0 0 0 0"
    ascent="1638"
    descent="-410"
    x-height="1101"
    cap-height="1443"
    bbox="-583 -882 2640 2178"
    underline-thickness="50"
    underline-position="-75"
    unicode-range="U+0020-U+FB02"
  />
<missing-glyph horiz-adv-x="1293" 
d="M119 1365h1053v-1365h-1053v1365zM533 236q34 -30 87 -30q55 0 89 30q33 29 33 77q0 49 -33 78q-34 30 -89 30q-54 0 -87 -30t-33 -78q0 -47 33 -77zM507 888q1 59 34 95q34 35 91 35q54 0 87 -30t33 -80q0 -38 -20 -66q-21 -27 -83 -72q-128 -90 -118 -221l1 -18h166v15
q0 48 19 76t88 77q133 96 133 218q0 113 -81 182q-81 68 -215 68q-143 0 -225 -76q-83 -76 -79 -203h169z" />
    <glyph glyph-name=".notdef" horiz-adv-x="1293" 
d="M119 1365h1053v-1365h-1053v1365zM533 236q34 -30 87 -30q55 0 89 30q33 29 33 77q0 49 -33 78q-34 30 -89 30q-54 0 -87 -30t-33 -78q0 -47 33 -77zM507 888q1 59 34 95q34 35 91 35q54 0 87 -30t33 -80q0 -38 -20 -66q-21 -27 -83 -72q-128 -90 -118 -221l1 -18h166v15
q0 48 19 76t88 77q133 96 133 218q0 113 -81 182q-81 68 -215 68q-143 0 -225 -76q-83 -76 -79 -203h169z" />
    <glyph glyph-name="glyph1" 
 />
    <glyph glyph-name="glyph2" 
 />
    <glyph glyph-name="space" unicode=" " horiz-adv-x="440" 
 />
    <glyph glyph-name="exclam" unicode="!" horiz-adv-x="648" 
d="M473 1443l-24 -968h-252l-24 968h300zM207 21q-47 45 -47 111t47 112q48 45 116 45t116 -45q47 -46 47 -112t-47 -111q-48 -46 -116 -46t-116 46z" />
    <glyph glyph-name="quotedbl" unicode="&#x22;" horiz-adv-x="929" 
d="M107 868v575h250v-575h-250zM570 868v575h250v-575h-250z" />
    <glyph glyph-name="numbersign" unicode="#" horiz-adv-x="1271" 
d="M1002 861l-53 -260h210l-40 -216h-212l-77 -385h-222l77 385h-234l-78 -385h-220l76 385h-206l41 216h208l52 260h-199l41 214h201l75 369h220l-73 -369h234l74 369h222l-74 -369h217l-40 -214h-220zM475 582h262l61 297h-263z" />
    <glyph glyph-name="dollar" unicode="$" horiz-adv-x="1326" 
d="M599 -137v128q-236 14 -370 125q-135 112 -136 296h286q5 -78 65 -131t155 -63v390l-106 25q-370 86 -370 403q0 184 126 296q125 113 350 131v137h141v-138q210 -19 336 -133q125 -113 128 -286h-278q-2 71 -54 124t-132 64v-373l107 -21q384 -84 384 -406
q0 -190 -128 -305q-127 -114 -363 -134v-129h-141zM740 583v-366q98 6 153 54t55 128q0 143 -208 184zM599 887v345q-82 -5 -134 -52q-53 -48 -53 -119q0 -134 187 -174z" />
    <glyph glyph-name="percent" unicode="%" horiz-adv-x="1621" 
d="M1486 81q-89 -102 -240 -102t-240 102q-89 101 -89 273q0 171 89 271q88 100 240 100t241 -100q88 -100 88 -271q0 -172 -89 -273zM1323 208q28 53 28 146q0 196 -105 196q-49 0 -77 -52q-28 -53 -28 -145t28 -145q28 -54 77 -54t77 54zM613 839q-89 -102 -240 -102
t-240 102q-89 101 -89 273q0 171 89 271q88 100 240 100t241 -100q88 -100 88 -271q0 -172 -89 -273zM450 966q28 53 28 146q0 196 -105 196q-49 0 -77 -52q-28 -53 -28 -145t28 -145q28 -54 77 -54t77 54zM146 0l1054 1443h256l-1053 -1443h-257z" />
    <glyph glyph-name="ampersand" unicode="&#x26;" horiz-adv-x="1437" 
d="M1017 120q-170 -146 -447 -146q-229 0 -366 110t-137 294q0 237 267 384l65 35q-179 185 -179 330t116 240q117 95 293 95q177 0 290 -92q112 -93 112 -238q0 -216 -292 -375l274 -296q52 92 52 273v76h243v-93q0 -267 -122 -436l269 -281h-327zM340 401q0 -97 72 -156
t188 -59q172 0 264 100l-331 358q-12 -5 -40 -21q-153 -97 -153 -222zM788 1112q0 69 -44 113q-44 43 -114 43t-115 -44t-45 -112q0 -89 134 -219q184 96 184 219z" />
    <glyph glyph-name="quotesingle" unicode="'" horiz-adv-x="466" 
d="M107 868v575h250v-575h-250z" />
    <glyph glyph-name="parenleft" unicode="(" horiz-adv-x="710" 
d="M402 -277q-270 339 -270 877q0 485 280 843h269q-98 -113 -167 -323q-81 -246 -81 -518q0 -451 245 -879h-276z" />
    <glyph glyph-name="parenright" unicode=")" horiz-adv-x="710" 
d="M30 -277q245 428 245 879q0 272 -81 518q-69 209 -166 323h268q281 -357 281 -843q0 -540 -272 -877h-275z" />
    <glyph glyph-name="asterisk" unicode="*" horiz-adv-x="994" 
d="M557 979l39 -289h-200l39 289l-231 -179l-99 173l271 111l-271 110l99 174l233 -182l-41 293h200l-40 -293l232 182l99 -174l-270 -110l270 -111l-99 -173z" />
    <glyph glyph-name="plus" unicode="+" horiz-adv-x="1326" 
d="M793 14h-262v437h-408v255h408v432h262v-432h408v-255h-408v-437z" />
    <glyph glyph-name="comma" unicode="," horiz-adv-x="578" 
d="M88 -271l83 541h274l-136 -541h-221z" />
    <glyph glyph-name="hyphen" unicode="-" horiz-adv-x="905" 
d="M123 451v255h657v-255h-657z" />
    <glyph glyph-name="period" unicode="." horiz-adv-x="569" 
d="M170 35q-47 47 -47 114q0 68 47 114q47 47 114 47q68 0 114 -47q47 -46 47 -114q0 -67 -47 -114t-114 -47t-114 47z" />
    <glyph glyph-name="slash" unicode="/" horiz-adv-x="687" 
d="M0 -293l415 1737h272l-420 -1737h-267z" />
    <glyph glyph-name="zero" unicode="0" horiz-adv-x="1333" 
d="M238 171q-156 202 -156 553q0 349 157 551q156 201 427 201t427 -201t156 -550q0 -350 -155 -553q-156 -204 -428 -204t-428 203zM869 344q73 135 73 380q0 243 -74 377q-73 133 -202 133t-202 -133q-75 -135 -75 -377q0 -244 74 -380q73 -134 203 -134t203 134z" />
    <glyph glyph-name="one" unicode="1" horiz-adv-x="983" 
d="M462 1166h-6l-368 -254v272l373 259h300v-1443h-299v1166z" />
    <glyph glyph-name="two" unicode="2" horiz-adv-x="1235" 
d="M84 1009q0 205 148 335q149 131 385 131q227 0 371 -118q142 -117 142 -299q0 -123 -80 -245q-57 -87 -199 -228l-352 -339v-6h651v-240h-1049v203l544 524q110 110 150 177q41 67 41 142q0 82 -64 138q-66 56 -165 56q-105 0 -174 -66q-69 -65 -69 -165v-5h-280v5z" />
    <glyph glyph-name="three" unicode="3" horiz-adv-x="1290" 
d="M452 848h175q103 0 167 56t64 145t-60 141q-62 53 -173 53q-105 0 -170 -57t-71 -152h-278q8 201 153 321t379 120q226 0 365 -106q140 -106 140 -279q0 -131 -83 -223q-81 -90 -215 -114v-6q163 -14 258 -106q96 -93 96 -242q0 -193 -159 -313q-158 -118 -409 -118
q-243 0 -393 123q-149 121 -160 322h289q7 -92 78 -147q72 -55 190 -55q113 0 185 58t72 149q0 99 -70 156q-70 56 -192 56h-178v218z" />
    <glyph glyph-name="four" unicode="4" horiz-adv-x="1327" 
d="M789 257h-718v257q176 336 579 929h426v-944h188v-242h-188v-257h-287v257zM336 490h459v739h-6q-310 -454 -453 -731v-8z" />
    <glyph glyph-name="five" unicode="5" horiz-adv-x="1280" 
d="M272 93q-151 124 -158 320h279q13 -92 86 -149q74 -57 179 -57q118 0 193 75q74 74 74 192q0 120 -74 196t-191 76q-173 0 -253 -133h-270l71 830h918v-240h-681l-33 -395h6q96 158 321 158q207 0 341 -137q133 -136 133 -347q0 -229 -154 -372q-155 -142 -403 -142
q-232 0 -384 125z" />
    <glyph glyph-name="six" unicode="6" horiz-adv-x="1317" 
d="M204 233q-121 185 -121 477q0 357 163 562q161 204 442 204q206 0 353 -111t177 -288h-297q-22 72 -86 116t-149 44q-152 0 -236 -137q-85 -139 -80 -382h6q44 107 145 170q103 65 239 65q206 0 341 -135q136 -136 136 -341q0 -223 -156 -366q-156 -144 -398 -144
q-323 0 -479 266zM867 284q76 75 76 184q0 112 -74 185q-75 73 -188 73t-188 -73q-76 -73 -76 -182q0 -110 76 -187q76 -76 187 -76q110 0 187 76z" />
    <glyph glyph-name="seven" unicode="7" horiz-adv-x="1172" 
d="M797 1197v6h-734v240h1032v-243l-602 -1200h-317z" />
    <glyph glyph-name="eight" unicode="8" horiz-adv-x="1336" 
d="M243 86q-161 117 -161 305q0 142 94 244q94 101 245 126v6q-126 29 -203 119q-78 89 -78 208q0 166 148 273q148 108 379 108q232 0 379 -108q147 -107 147 -274q0 -117 -77 -207q-77 -89 -203 -119v-6q152 -26 245 -127q94 -102 94 -244q0 -188 -162 -305
q-163 -117 -423 -117q-262 0 -424 118zM861 252q75 63 75 161t-75 161q-75 64 -194 64t-195 -64q-75 -63 -75 -161t75 -161q76 -64 195 -64t194 64zM831 914q64 57 64 143q0 87 -64 144q-64 56 -164 56t-164 -57q-64 -56 -64 -143t64 -143t164 -56t164 56z" />
    <glyph glyph-name="nine" unicode="9" horiz-adv-x="1321" 
d="M275 80q-148 111 -178 288h298q22 -73 87 -117q66 -44 153 -44q151 0 234 136q84 138 78 384h-6q-40 -108 -140 -171q-104 -65 -244 -65q-205 0 -341 135q-138 136 -138 341q0 222 157 366q157 143 399 143q327 0 481 -264q121 -186 121 -478q0 -359 -160 -562
q-161 -204 -446 -204q-207 0 -355 112zM824 791q76 74 76 183q0 110 -76 186q-76 75 -186 75q-111 0 -188 -75t-77 -184q0 -111 75 -184q75 -74 188 -74t188 73z" />
    <glyph glyph-name="colon" unicode=":" horiz-adv-x="569" 
d="M170 35q-47 47 -47 114q0 68 47 114q47 47 114 47q68 0 114 -47q47 -46 47 -114q0 -67 -47 -114t-114 -47t-114 47zM170 750q-47 47 -47 114q0 68 47 114q47 47 114 47q68 0 114 -47q47 -46 47 -114q0 -67 -47 -114t-114 -47t-114 47z" />
    <glyph glyph-name="semicolon" unicode=";" horiz-adv-x="569" 
d="M170 750q-47 47 -47 114q0 68 47 114q47 47 114 47q68 0 114 -47q47 -46 47 -114q0 -67 -47 -114t-114 -47t-114 47zM54 -271l82 541h276l-137 -541h-221z" />
    <glyph glyph-name="less" unicode="&#x3c;" horiz-adv-x="1326" 
d="M482 587v-10l657 -309v-291l-953 489v225l953 506v-291z" />
    <glyph glyph-name="equal" unicode="=" horiz-adv-x="1326" 
d="M138 220v251h1048v-251h-1048zM138 687v251h1048v-251h-1048z" />
    <glyph glyph-name="greater" unicode="&#x3e;" horiz-adv-x="1326" 
d="M186 1197l953 -505v-226l-953 -488v291l656 308v10l-656 320v290z" />
    <glyph glyph-name="question" unicode="?" horiz-adv-x="1093" 
d="M53 1038q4 189 130 301q130 117 356 117q213 0 345 -108q130 -107 130 -279q0 -213 -214 -339q-100 -58 -135 -104t-35 -120v-53h-265l-2 58q-10 116 33 193q42 73 147 135q97 58 132 104q36 46 36 117q0 72 -52 118q-53 46 -138 46q-86 0 -139 -51q-53 -50 -58 -135
h-271zM386 21q-48 45 -48 111t48 112q47 45 115 45t116 -45q48 -46 48 -112t-48 -111q-48 -46 -116 -46t-115 46z" />
    <glyph glyph-name="at" unicode="@" horiz-adv-x="1810" 
d="M768 779q-45 -61 -45 -171q0 -109 45 -171q44 -62 123 -62q81 0 128 63q47 62 47 170t-47 171q-47 62 -127 62q-79 0 -124 -62zM1506 1244q226 -206 226 -538q0 -237 -105 -377q-106 -141 -288 -141q-94 0 -159 42q-66 43 -82 115h-14q-63 -154 -241 -154
q-156 0 -251 116q-96 117 -96 307q0 182 94 296q93 113 243 113q174 0 237 -142h14v120h203v-535q0 -113 95 -113q75 0 120 89q46 92 46 249q0 272 -173 436q-172 163 -457 163q-289 0 -472 -189q-183 -190 -183 -491q0 -311 192 -491q187 -176 501 -176q178 0 273 35v-160
q-125 -37 -288 -37q-385 0 -621 223q-241 228 -241 611q0 371 236 603q235 231 610 231q357 0 581 -205z" />
    <glyph glyph-name="A" unicode="A" horiz-adv-x="1413" 
d="M954 350h-507l-110 -350h-310l501 1443h355l502 -1443h-321zM512 576h377l-185 591h-7z" />
    <glyph glyph-name="B" unicode="B" horiz-adv-x="1319" 
d="M119 0v1443h637q203 0 322 -97t119 -263q0 -118 -78 -207q-77 -89 -193 -106v-8q148 -11 244 -108q96 -99 96 -241q0 -191 -134 -302t-365 -111h-648zM421 843h226q121 0 187 51q66 50 66 142q0 87 -58 135q-58 47 -164 47h-257v-375zM690 225q268 0 268 212
q0 207 -275 207h-262v-419h269z" />
    <glyph glyph-name="C" unicode="C" horiz-adv-x="1459" 
d="M258 174q-184 200 -184 548q0 347 185 547q183 199 498 199q262 0 439 -150q178 -152 195 -393h-294q-21 133 -114 213q-94 80 -226 80q-171 0 -273 -133q-102 -135 -102 -362q0 -231 101 -364q101 -134 275 -134q134 0 225 74t115 202h294q-25 -241 -197 -384
q-172 -142 -438 -142q-316 0 -499 199z" />
    <glyph glyph-name="D" unicode="D" horiz-adv-x="1438" 
d="M675 1443q326 0 506 -186q182 -188 182 -530q0 -343 -182 -535q-181 -192 -506 -192h-556v1443h556zM421 250h218q203 0 309 121q107 122 107 355q0 226 -108 347t-308 121h-218v-944z" />
    <glyph glyph-name="E" unicode="E" horiz-adv-x="1174" 
d="M1075 0h-956v1443h956v-249h-654v-348h617v-232h-617v-364h654v-250z" />
    <glyph glyph-name="F" unicode="F" horiz-adv-x="1123" 
d="M119 0v1443h945v-249h-643v-387h587v-239h-587v-568h-302z" />
    <glyph glyph-name="G" unicode="G" horiz-adv-x="1489" 
d="M1409 606q0 -295 -169 -463q-170 -168 -471 -168q-324 0 -509 200q-186 200 -186 551q0 346 185 544q184 198 503 198q252 0 427 -136t207 -355h-303q-33 113 -120 177q-88 64 -210 64q-179 0 -280 -129t-101 -359q0 -234 106 -369q105 -135 286 -135q148 0 242 83
q93 83 98 217l1 23h-314v220h608v-163z" />
    <glyph glyph-name="H" unicode="H" horiz-adv-x="1494" 
d="M1071 0v608h-650v-608h-302v1443h302v-586h650v586h302v-1443h-302z" />
    <glyph glyph-name="I" unicode="I" horiz-adv-x="542" 
d="M119 0v1443h302v-1443h-302z" />
    <glyph glyph-name="J" unicode="J" horiz-adv-x="1143" 
d="M323 425q2 -88 54 -141q53 -53 138 -53q194 0 194 223v989h302v-991q0 -229 -131 -356q-129 -126 -362 -126q-221 0 -355 124q-133 124 -133 331h293z" />
    <glyph glyph-name="K" unicode="K" horiz-adv-x="1353" 
d="M119 0v1443h302v-658h9l542 658h336l-534 -640l571 -803h-361l-428 603l-135 -162v-441h-302z" />
    <glyph glyph-name="L" unicode="L" horiz-adv-x="1112" 
d="M1052 0h-933v1443h302v-1193h631v-250z" />
    <glyph glyph-name="M" unicode="M" horiz-adv-x="1768" 
d="M1647 0h-269v974h-8l-392 -960h-190l-392 960h-8v-974h-269v1443h350l410 -1023h8l410 1023h350v-1443z" />
    <glyph glyph-name="N" unicode="N" horiz-adv-x="1463" 
d="M119 0v1443h252l674 -940h8v940h289v-1443h-250l-675 945h-9v-945h-289z" />
    <glyph glyph-name="O" unicode="O" horiz-adv-x="1541" 
d="M1278 1267q188 -201 188 -546q0 -344 -188 -545t-508 -201q-321 0 -508 201q-188 201 -188 545q0 345 188 546q187 201 508 201t508 -201zM488 1082q-106 -134 -106 -361q0 -226 105 -360q105 -133 283 -133q177 0 282 133q105 134 105 360q0 227 -105 361t-282 134
t-282 -134z" />
    <glyph glyph-name="P" unicode="P" horiz-adv-x="1280" 
d="M721 1443q223 0 361 -136q139 -136 139 -358q0 -221 -143 -358q-143 -136 -372 -136h-285v-455h-302v1443h602zM421 691h219q130 0 202 67t72 190t-72 190q-71 66 -201 66h-220v-513z" />
    <glyph glyph-name="Q" unicode="Q" horiz-adv-x="1541" 
d="M1125 -136l-103 151q-114 -40 -252 -40q-322 0 -508 199q-188 201 -188 547q0 344 188 546q187 201 508 201q320 0 508 -201q187 -202 187 -546q0 -391 -230 -581l183 -276h-293zM873 239l-158 236h273l63 -86q106 122 106 332q0 227 -105 363q-105 135 -282 135
q-178 0 -283 -135q-105 -136 -105 -363t105 -361q105 -135 283 -135q53 0 103 14z" />
    <glyph glyph-name="R" unicode="R" horiz-adv-x="1316" 
d="M421 747h265q114 0 178 61q63 61 63 169q0 105 -66 168q-66 62 -178 62h-262v-460zM421 0h-302v1443h596q247 0 386 -123q136 -122 136 -337q0 -141 -69 -250q-70 -112 -193 -160l304 -573h-342l-269 528h-247v-528z" />
    <glyph glyph-name="S" unicode="S" horiz-adv-x="1293" 
d="M356 411q10 -88 94 -143q83 -54 204 -54q120 0 196 52q75 51 75 131q0 70 -56 113t-187 72l-188 41q-397 85 -397 403q0 198 155 321q154 121 397 121q250 0 400 -119q148 -118 152 -315h-283q-7 91 -81 144q-73 52 -187 52q-112 0 -180 -49q-69 -49 -69 -129
q0 -66 56 -108q55 -40 180 -69l175 -37q217 -46 316 -144q99 -97 99 -262q0 -210 -158 -333q-158 -124 -427 -124q-261 0 -415 116q-155 117 -162 320h291z" />
    <glyph glyph-name="T" unicode="T" horiz-adv-x="1242" 
d="M469 0v1194h-422v249h1147v-249h-423v-1194h-302z" />
    <glyph glyph-name="U" unicode="U" horiz-adv-x="1449" 
d="M421 540q0 -141 79 -222q80 -84 224 -84q143 0 223 84q79 81 79 222v903h302v-933q0 -240 -164 -387q-165 -148 -440 -148q-276 0 -441 148q-164 147 -164 387v933h302v-903z" />
    <glyph glyph-name="V" unicode="V" horiz-adv-x="1389" 
d="M512 0l-485 1443h338l330 -1132h7l330 1132h329l-485 -1443h-364z" />
    <glyph glyph-name="W" unicode="W" horiz-adv-x="1977" 
d="M709 0h-285l-382 1443h313l227 -1045h8l270 1045h255l270 -1045h8l228 1045h313l-383 -1443h-285l-274 986h-9z" />
    <glyph glyph-name="X" unicode="X" horiz-adv-x="1404" 
d="M500 723v8l-455 712h355l306 -520h8l309 520h337l-472 -718v-7l466 -718h-344l-316 505h-8l-318 -505h-326z" />
    <glyph glyph-name="Y" unicode="Y" horiz-adv-x="1362" 
d="M529 0v539l-502 904h329l323 -616h7l324 616h324l-503 -904v-539h-302z" />
    <glyph glyph-name="Z" unicode="Z" horiz-adv-x="1292" 
d="M88 197l733 989v8h-716v249h1077v-196l-730 -990v-7h750v-250h-1114v197z" />
    <glyph glyph-name="bracketleft" unicode="[" horiz-adv-x="755" 
d="M721 1444v-215h-294v-1255h307v-214h-587v1684h574z" />
    <glyph glyph-name="backslash" unicode="\" horiz-adv-x="687" 
d="M0 1444h272l415 -1738h-266z" />
    <glyph glyph-name="bracketright" unicode="]" horiz-adv-x="755" 
d="M607 -240h-587v214h307v1255h-294v215h574v-1684z" />
    <glyph glyph-name="asciicircum" unicode="^" horiz-adv-x="978" 
d="M290 823h-256l326 611h259l324 -611h-263l-184 377h-17z" />
    <glyph glyph-name="underscore" unicode="_" horiz-adv-x="857" 
d="M-46 -325v218h949v-218h-949z" />
    <glyph glyph-name="grave" unicode="`" horiz-adv-x="1010" 
d="M519 1263l-263 310h273l221 -310h-231z" />
    <glyph glyph-name="a" unicode="a" horiz-adv-x="1147" 
d="M691 257q71 58 71 147v81l-231 -16q-187 -12 -187 -137q0 -61 48 -96q47 -36 127 -36q103 0 172 57zM159 78q-106 93 -106 239q0 149 112 234q110 83 322 96l275 17v73q0 79 -51 122q-51 42 -142 42q-78 0 -131 -38q-52 -37 -63 -98h-267q6 158 136 256q131 99 337 99
q212 0 340 -100t128 -265v-755h-282v170h-6q-44 -85 -138 -135q-91 -48 -199 -48q-161 0 -265 91z" />
    <glyph glyph-name="b" unicode="b" horiz-adv-x="1252" 
d="M399 188h-6v-188h-287v1512h292v-599h6q97 201 340 201q209 0 329 -150q120 -151 120 -413t-120 -413t-328 -151q-249 0 -346 201zM465 788q-68 -90 -69 -238q1 -148 69 -237q69 -90 181 -90q113 0 181 89q67 89 67 239q0 149 -68 238q-67 89 -180 89q-112 0 -181 -90z
" />
    <glyph glyph-name="c" unicode="c" horiz-adv-x="1142" 
d="M821 695q-12 88 -70 140q-60 55 -153 55q-113 0 -179 -90q-66 -91 -66 -249q0 -160 66 -250q66 -89 180 -89q193 0 223 188h272q-13 -192 -147 -305q-135 -114 -351 -114q-248 0 -393 152q-146 154 -146 418q0 261 146 415q145 154 391 154q218 0 355 -121
q133 -117 144 -304h-272z" />
    <glyph glyph-name="d" unicode="d" horiz-adv-x="1249" 
d="M180 139q-123 153 -123 413q0 258 123 410t329 152q118 0 208 -55q87 -53 129 -146h6v599h292v-1512h-288v188h-5q-41 -92 -131 -146q-92 -55 -212 -55q-206 0 -328 152zM424 790q-68 -89 -68 -239q0 -151 68 -240q67 -88 181 -88q113 0 181 89t68 238t-68 239
q-68 89 -181 89q-114 0 -181 -88z" />
    <glyph glyph-name="e" unicode="e" horiz-adv-x="1164" 
d="M422 836q-66 -66 -74 -172h475q-4 108 -68 173t-166 65q-100 0 -167 -66zM1096 336q-24 -160 -161 -257q-137 -98 -338 -98q-251 0 -396 151q-144 151 -144 414t143 418q144 156 386 156q238 0 378 -148q141 -148 141 -399v-90h-760v-18q0 -119 71 -193q71 -73 186 -73
q83 0 143 37q61 36 82 100h269z" />
    <glyph glyph-name="f" unicode="f" horiz-adv-x="734" 
d="M176 880h-149v221h149v98q0 159 82 229q83 70 274 70q68 0 135 -10v-203q-37 7 -80 7q-66 0 -95 -26t-30 -84v-81h206v-221h-200v-880h-292v880z" />
    <glyph glyph-name="g" unicode="g" horiz-adv-x="1244" 
d="M785 319q68 86 68 233q0 149 -68 237q-68 89 -182 89q-113 0 -180 -88t-67 -237t67 -235q66 -85 180 -85t182 86zM244 -315q-140 89 -151 237h288q14 -54 77 -87q62 -32 149 -32q112 0 178 54q67 54 67 146v197h-6q-40 -89 -131 -141t-210 -52q-203 0 -324 146
q-124 149 -124 401q0 259 122 409q122 151 331 151q117 0 208 -55q89 -53 133 -146h5v188h288v-1076q0 -196 -148 -312q-147 -116 -396 -116q-218 0 -356 88z" />
    <glyph glyph-name="h" unicode="h" horiz-adv-x="1247" 
d="M106 1512h287v-608h6q95 213 356 213q183 0 290 -111t107 -302v-704h-292v643q0 108 -59 170q-60 61 -164 61q-107 0 -173 -69t-66 -180v-625h-292v1512z" />
    <glyph glyph-name="i" unicode="i" horiz-adv-x="500" 
d="M103 1101h292v-1101h-292v1101zM138 1265q-46 44 -46 109t46 109q46 43 111 43q66 0 112 -43q46 -44 46 -109t-46 -109t-112 -44q-65 0 -111 44z" />
    <glyph glyph-name="j" unicode="j" horiz-adv-x="500" 
d="M396 -37q0 -339 -391 -339q-60 0 -78 3v216q6 -1 37 -1q76 0 108 30q32 29 32 98v1131h292v-1138zM139 1265q-46 44 -46 109t46 109q46 43 111 43q66 0 112 -43q46 -44 46 -109t-46 -109t-112 -44q-65 0 -111 44z" />
    <glyph glyph-name="k" unicode="k" horiz-adv-x="1126" 
d="M783 1101h332l-424 -473l444 -628h-336l-322 452l-79 -85v-367h-292v1512h292v-856h4z" />
    <glyph glyph-name="l" unicode="l" horiz-adv-x="505" 
d="M106 1512h292v-1512h-292v1512z" />
    <glyph glyph-name="m" unicode="m" horiz-adv-x="1811" 
d="M98 1101h282v-200h6q35 100 120 158q84 58 194 58q119 0 199 -58q80 -59 108 -167h6q38 104 130 164q92 61 212 61q162 0 262 -101q99 -102 99 -268v-748h-292v675q0 200 -184 200q-86 0 -139 -58q-53 -57 -53 -151v-666h-282v686q0 88 -48 139q-48 50 -133 50
q-86 0 -141 -60q-54 -59 -54 -153v-662h-292v1101z" />
    <glyph glyph-name="n" unicode="n" horiz-adv-x="1227" 
d="M98 1101h282v-197h6q97 213 354 213q183 0 288 -109q104 -109 104 -302v-706h-292v645q0 110 -56 169q-57 60 -160 60q-105 0 -169 -68q-65 -68 -65 -178v-628h-292v1101z" />
    <glyph glyph-name="o" unicode="o" horiz-adv-x="1201" 
d="M203 133q-146 152 -146 418q0 263 147 417q147 152 396 152q250 0 396 -152q147 -153 147 -417q0 -267 -146 -419q-145 -151 -397 -151q-251 0 -397 152zM781 296q65 91 65 255q0 162 -66 254q-65 91 -180 91q-116 0 -181 -91q-66 -92 -66 -254q0 -164 66 -255
q65 -90 181 -90t181 90z" />
    <glyph glyph-name="p" unicode="p" horiz-adv-x="1244" 
d="M1065 964q121 -151 121 -413t-120 -413q-121 -151 -328 -151q-247 0 -342 198h-6v-531h-292v1447h288v-188h6q44 93 135 147t207 54q210 0 331 -150zM819 312q68 89 68 239q0 148 -68 238q-69 89 -182 89q-112 0 -180 -90t-68 -238t68 -238q68 -89 180 -89q114 0 182 89z
" />
    <glyph glyph-name="q" unicode="q" horiz-adv-x="1244" 
d="M719 1059q89 -53 132 -146h5v188h288v-1447h-292v531h-6q-40 -90 -130 -143q-93 -55 -211 -55q-206 0 -327 152q-121 153 -121 413q0 259 122 411q122 151 331 151q118 0 209 -55zM785 312q68 89 68 238t-68 238q-69 90 -182 90t-180 -88q-67 -89 -67 -239
q0 -151 67 -240q66 -88 180 -88t182 89z" />
    <glyph glyph-name="r" unicode="r" horiz-adv-x="759" 
d="M98 1101h282v-197h6q57 210 262 210q49 0 82 -11v-259q-39 18 -105 18q-111 0 -173 -65t-62 -181v-616h-292v1101z" />
    <glyph glyph-name="s" unicode="s" horiz-adv-x="1078" 
d="M205 1026q126 94 335 94q204 0 329 -96q125 -95 128 -253h-270q-5 65 -56 104q-51 38 -135 38q-79 0 -127 -32q-48 -33 -48 -86q0 -81 147 -115l207 -45q166 -38 237 -107q72 -69 72 -192q0 -160 -134 -258q-134 -97 -351 -97q-215 0 -347 97q-129 94 -140 255h285
q22 -145 210 -145q87 0 137 32q50 31 50 85q0 43 -31 68q-32 25 -107 43l-203 46q-314 71 -314 315q0 155 126 249z" />
    <glyph glyph-name="t" unicode="t" horiz-adv-x="741" 
d="M468 1346v-245h204v-221h-204v-535q0 -126 131 -126q43 0 73 5v-216q-60 -12 -141 -12q-191 0 -273 70t-82 231v583h-149v221h149v245h292z" />
    <glyph glyph-name="u" unicode="u" horiz-adv-x="1227" 
d="M1127 0h-282v199h-6q-87 -215 -346 -215q-181 0 -289 110q-111 111 -111 301v706h292v-645q0 -110 59 -170q57 -59 160 -59t167 68t64 179v627h292v-1101z" />
    <glyph glyph-name="v" unicode="v" horiz-adv-x="1106" 
d="M718 0h-328l-382 1101h312l234 -840h6l233 840h305z" />
    <glyph glyph-name="w" unicode="w" horiz-adv-x="1654" 
d="M1340 0h-310l-203 784h-6l-201 -784h-307l-294 1101h294l170 -822h6l199 822h280l200 -822h6l171 822h288z" />
    <glyph glyph-name="x" unicode="x" horiz-adv-x="1104" 
d="M541 385l-211 -385h-308l348 549l-345 552h329l202 -375h6l201 375h317l-346 -545l344 -556h-319l-212 385h-6z" />
    <glyph glyph-name="y" unicode="y" horiz-adv-x="1136" 
d="M128 -398v226q15 -3 66 -3q162 0 195 126l10 42l-386 1108h320l238 -864h6l239 864h308l-381 -1123q-70 -210 -184 -295q-113 -85 -320 -85q-89 0 -111 4z" />
    <glyph glyph-name="z" unicode="z" horiz-adv-x="1059" 
d="M77 168l553 704v5h-545v224h883v-186l-521 -685v-6h534v-224h-904v168z" />
    <glyph glyph-name="braceleft" unicode="{" horiz-adv-x="837" 
d="M360 595q207 -18 207 -248v-266q0 -118 47 -162q46 -45 168 -45h44v-212h-104q-228 0 -330 90q-103 90 -103 292v225q0 117 -36 162q-37 45 -132 45v269q95 0 131 46q37 45 37 163v191q0 197 102 285t331 88h104v-212h-44q-123 0 -169 -45q-46 -44 -46 -162v-242
q0 -213 -207 -232v-30z" />
    <glyph glyph-name="bar" unicode="|" horiz-adv-x="603" 
d="M164 -293v1736h273v-1736h-273z" />
    <glyph glyph-name="braceright" unicode="}" horiz-adv-x="837" 
d="M478 625q-209 19 -209 232v242q0 118 -46 162q-46 45 -168 45h-45v212h105q229 0 331 -87q101 -88 101 -286v-191q0 -118 37 -163q37 -46 132 -46v-269q-95 0 -132 -45t-37 -162v-225q0 -202 -102 -292t-330 -90h-105v212h45q122 0 168 45q46 44 46 162v266
q0 230 209 248v30z" />
    <glyph glyph-name="asciitilde" unicode="~" horiz-adv-x="1199" 
d="M421 706q-111 0 -116 -178h-228q-9 195 78 310q86 114 243 114q130 0 260 -130q78 -81 137 -81q111 0 116 178h228q9 -195 -78 -309q-86 -115 -243 -115q-128 0 -257 129q-82 82 -140 82z" />
    <glyph glyph-name="uni00A0" unicode="&#xa0;" horiz-adv-x="440" 
 />
    <glyph glyph-name="exclamdown" unicode="&#xa1;" horiz-adv-x="648" 
d="M197 645h252l24 -969h-300zM207 878q-47 46 -47 111q0 67 47 112q48 45 116 45t116 -45q47 -45 47 -112q0 -65 -47 -111q-48 -45 -116 -45t-116 45z" />
    <glyph glyph-name="cent" unicode="&#xa2;" horiz-adv-x="1326" 
d="M1211 542q-14 -162 -128 -272q-113 -109 -288 -135v-182h-242v187q-202 38 -320 187q-119 151 -119 376q0 222 120 372q118 149 319 186v187h242v-183q174 -26 289 -139q116 -115 127 -274h-272q-17 86 -86 139q-68 52 -165 52q-124 0 -202 -92q-79 -94 -79 -248
q0 -156 79 -252q78 -93 201 -93q216 0 252 184h272z" />
    <glyph glyph-name="sterling" unicode="&#xa3;" horiz-adv-x="1326" 
d="M1229 248v-248h-1124v232q134 20 219 111q84 91 84 215q0 32 -7 76h-292v207h224q-59 148 -59 244q0 187 147 291q146 104 411 104q207 0 330 -50v-236q-117 51 -292 51q-139 0 -216 -54q-77 -53 -77 -150q0 -76 45 -200h414v-207h-349q4 -38 4 -57q0 -102 -52 -192
q-48 -82 -124 -129v-8h714z" />
    <glyph glyph-name="currency" unicode="&#xa4;" horiz-adv-x="1351" 
d="M510 484q69 -70 165 -70t165 70q69 69 69 165t-69 166t-165 70t-165 -70t-69 -166t69 -165zM1065 874q60 -104 60 -225t-60 -225l149 -149l-166 -166l-150 150q-103 -60 -223 -60t-224 60l-150 -150l-166 166l150 150q-60 104 -60 224t60 224l-150 150l166 166l149 -149
q106 60 225 60q120 0 224 -60l149 149l166 -166z" />
    <glyph glyph-name="yen" unicode="&#xa5;" horiz-adv-x="1326" 
d="M815 212v-212h-302v212h-271v166h271v136h-271v166h195l-427 763h327l323 -613h9l320 613h327l-425 -763h195v-166h-271v-136h271v-166h-271z" />
    <glyph glyph-name="brokenbar" unicode="&#xa6;" horiz-adv-x="604" 
d="M165 774v669h273v-669h-273zM165 -293v670h273v-670h-273z" />
    <glyph glyph-name="section" unicode="&#xa7;" horiz-adv-x="994" 
d="M553 413q59 8 99 49t40 94q0 102 -141 141l-109 37q-58 -8 -99 -50t-41 -93q0 -101 142 -142zM187 -192q-121 92 -128 240h253q7 -57 60 -92q52 -35 127 -35q78 0 126 36t48 94q0 82 -149 127l-175 58q-158 51 -230 122q-71 71 -71 178q0 94 57 165q58 71 158 102v18
q-205 95 -205 274q0 151 120 243t318 92q184 0 301 -89q118 -89 129 -237h-251q-7 55 -57 88q-50 34 -124 34q-77 0 -124 -36q-47 -35 -47 -93q0 -80 147 -128l171 -58q160 -53 232 -123t72 -173q0 -98 -63 -174q-64 -76 -168 -104v-18q223 -83 223 -266q0 -151 -122 -244
t-320 -93q-187 0 -308 92z" />
    <glyph glyph-name="dieresis" unicode="&#xa8;" horiz-adv-x="1010" 
d="M199 1298q-39 38 -39 92t39 93q39 38 96 38t96 -38q39 -39 39 -93t-39 -92q-39 -39 -96 -39t-96 39zM618 1298q-39 38 -39 92t39 93q39 38 96 38t96 -38q39 -39 39 -93t-39 -92q-39 -39 -96 -39t-96 39z" />
    <glyph glyph-name="copyright" unicode="&#xa9;" horiz-adv-x="1697" 
d="M289 90q-230 230 -230 560q0 331 230 561q230 228 559 228q330 0 559 -228q229 -229 229 -561q0 -330 -229 -560q-229 -229 -559 -229q-329 0 -559 229zM1291 206q181 181 181 444q0 264 -181 445t-443 181q-261 0 -443 -181t-182 -445q0 -263 182 -444t443 -181t443 181
zM1027 760q-12 58 -53 93q-44 36 -109 36q-84 0 -133 -63t-49 -174q0 -113 49 -177q48 -63 133 -63q137 0 162 122h188q-14 -129 -107 -205q-94 -77 -244 -77q-177 0 -280 107t-103 293q0 183 103 290t278 107q149 0 246 -81q92 -79 107 -208h-188z" />
    <glyph glyph-name="ordfeminine" unicode="&#xaa;" horiz-adv-x="964" 
d="M372 758q34 -27 93 -27q69 0 115 42q45 42 45 106v67l-155 -12q-132 -9 -132 -101q0 -47 34 -75zM161 620q-78 74 -78 197q0 245 347 268l193 11v70q1 47 -34 75q-36 27 -97 27q-115 0 -132 -78h-245q9 128 112 201t274 73q176 0 277 -81t101 -222v-598h-250v107h-15
q-72 -124 -247 -124q-129 0 -206 74z" />
    <glyph glyph-name="guillemotleft" unicode="&#xab;" horiz-adv-x="1356" 
d="M896 562l346 -411h-275l-344 411v8l348 411h271l-346 -409v-10zM385 562l346 -411h-275l-344 411v8l348 411h271l-346 -409v-10z" />
    <glyph glyph-name="logicalnot" unicode="&#xac;" horiz-adv-x="1326" 
d="M1184 66h-255v394h-789v248h1044v-642z" />
    <glyph glyph-name="registered" unicode="&#xae;" horiz-adv-x="1133" 
d="M222 670q-143 141 -143 341t142 342q143 141 345 141t344 -141t142 -342q0 -200 -142 -341t-344 -141t-344 141zM818 760q103 103 103 251q0 149 -103 252q-104 104 -252 104t-252 -104q-104 -103 -104 -252q0 -148 104 -251q104 -104 252 -104t252 104zM371 799v443h232
q74 0 120 -39q45 -39 45 -103q0 -109 -93 -133l116 -168h-143l-96 151h-62v-151h-119zM490 1037h86q66 0 66 56q0 55 -64 55h-88v-111z" />
    <glyph glyph-name="macron" unicode="&#xaf;" horiz-adv-x="1000" 
d="M834 1298h-669v143h669v-143z" />
    <glyph glyph-name="degree" unicode="&#xb0;" horiz-adv-x="719" 
d="M144 902q-87 87 -87 215t87 214q87 87 214 87q128 0 215 -87q87 -86 87 -214q0 -127 -87 -215q-87 -87 -215 -87q-127 0 -214 87zM453 1022q38 40 38 95q0 56 -38 95q-39 39 -94 39q-54 0 -93 -39q-40 -40 -40 -95t40 -95q39 -40 93 -40q56 0 94 40z" />
    <glyph glyph-name="plusminus" unicode="&#xb1;" horiz-adv-x="1326" 
d="M163 75v218h996v-218h-996zM786 412h-248v239h-375v216h375v240h248v-240h375v-216h-375v-239z" />
    <glyph glyph-name="uni00B2" unicode="&#xb2;" horiz-adv-x="668" 
d="M30 1574q0 112 81 178q81 67 217 67q129 0 208 -58q78 -59 78 -154q0 -103 -128 -211l-146 -125v-4h282v-172h-578v153l290 248q57 53 57 92q0 28 -20 45q-21 18 -54 18t-55 -22t-22 -55v-5h-210v5z" />
    <glyph glyph-name="uni00B3" unicode="&#xb3;" horiz-adv-x="696" 
d="M254 1527h87q34 0 56 18q21 17 21 45q0 63 -80 63q-37 0 -60 -21q-22 -21 -24 -55h-205q-2 110 79 176q80 66 215 66q129 0 208 -54t79 -142q0 -61 -40 -105q-41 -44 -107 -55v-5q79 -9 125 -53q45 -45 45 -114q0 -100 -84 -158q-85 -59 -228 -59q-133 0 -217 67
q-83 67 -88 177h219q3 -66 85 -66q37 0 59 18q23 17 23 45q0 64 -84 64h-84v148z" />
    <glyph glyph-name="acute" unicode="&#xb4;" horiz-adv-x="1010" 
d="M258 1263l221 310h273l-263 -310h-231z" />
    <glyph glyph-name="paragraph" unicode="&#xb6;" horiz-adv-x="1473" 
d="M633 -255v710h-20q-225 0 -375 142q-149 141 -149 348q0 216 147 357t378 141h299v-1698h-280zM1082 1443h280v-1698h-280v1698z" />
    <glyph glyph-name="periodcentered" unicode="&#xb7;" horiz-adv-x="632" 
d="M202 515q-47 47 -47 114q0 68 47 114q47 47 114 47q68 0 114 -47q47 -46 47 -114q0 -67 -47 -114t-114 -47t-114 47z" />
    <glyph glyph-name="cedilla" unicode="&#xb8;" horiz-adv-x="1010" 
d="M372 -127l63 139l145 -12l-49 -116q88 0 136 -42q49 -41 49 -117q0 -86 -64 -136q-64 -49 -177 -50q-88 0 -140 16v120q40 -14 111 -14q107 0 107 55q0 31 -29 43q-28 13 -96 13h-56v101z" />
    <glyph glyph-name="uni00B9" unicode="&#xb9;" horiz-adv-x="551" 
d="M229 1606h-4l-172 -112v190l174 114h230v-703h-228v511z" />
    <glyph glyph-name="ordmasculine" unicode="&#xba;" horiz-adv-x="1039" 
d="M390 808q45 -68 128 -68t129 68q45 68 45 192q0 123 -46 191q-45 68 -128 68q-82 0 -127 -68q-46 -69 -46 -192q0 -124 45 -191zM193 659q-117 123 -117 341q0 215 119 340q118 124 323 124q206 0 325 -124q118 -124 118 -340q0 -219 -117 -341q-117 -123 -326 -123
q-208 0 -325 123z" />
    <glyph glyph-name="guillemotright" unicode="&#xbb;" horiz-adv-x="1356" 
d="M112 981h271l348 -411v-8l-344 -411h-275l346 411v10zM623 981h271l348 -411v-8l-344 -411h-275l346 411v10z" />
    <glyph glyph-name="onequarter" unicode="&#xbc;" horiz-adv-x="1625" 
d="M1288 96h-344v190q88 173 244 417h318v-432h80v-175h-80v-96h-218v96zM1132 261h163v294h-4q-103 -176 -159 -290v-4zM239 1254h-4l-172 -112v190l174 114h230v-703h-228v511zM112 0l1054 1443h256l-1053 -1443h-257z" />
    <glyph glyph-name="onehalf" unicode="&#xbd;" horiz-adv-x="1622" 
d="M993 479q0 112 81 178q81 67 217 67q129 0 208 -58q78 -59 78 -154q0 -103 -128 -211l-146 -125v-4h282v-172h-578v153l290 248q57 53 57 92q0 28 -20 45q-21 18 -54 18t-55 -22t-22 -55v-5h-210v5zM239 1254h-4l-172 -112v190l174 114h230v-703h-228v511zM112 0
l1054 1443h256l-1053 -1443h-257z" />
    <glyph glyph-name="threequarters" unicode="&#xbe;" horiz-adv-x="1715" 
d="M254 1175h87q34 0 56 18q21 17 21 45q0 63 -80 63q-37 0 -60 -21q-22 -21 -24 -55h-205q-2 110 79 176q80 66 215 66q129 0 208 -54t79 -142q0 -61 -40 -105q-41 -44 -107 -55v-5q79 -9 125 -53q45 -45 45 -114q0 -100 -84 -158q-85 -59 -228 -59q-133 0 -217 67
q-83 67 -88 177h219q3 -66 85 -66q37 0 59 18q23 17 23 45q0 64 -84 64h-84v148zM1378 96h-344v190q88 173 244 417h318v-432h80v-175h-80v-96h-218v96zM1222 261h163v294h-4q-103 -176 -159 -290v-4zM217 0l1054 1443h256l-1053 -1443h-257z" />
    <glyph glyph-name="questiondown" unicode="&#xbf;" horiz-adv-x="1093" 
d="M1039 80q-4 -189 -130 -302q-130 -116 -355 -116q-214 0 -346 108q-130 107 -130 280q0 211 214 338q100 59 135 105t35 119v53h264l2 -58q10 -116 -33 -192q-41 -74 -147 -136q-97 -58 -132 -104q-36 -46 -36 -116q0 -73 53 -119t138 -46t139 51q52 50 57 135h272z
M468 878q-48 46 -48 111q0 66 48 112q47 45 116 45q68 0 115 -45q48 -46 48 -112q0 -65 -48 -111q-47 -45 -115 -45t-116 45z" />
    <glyph glyph-name="Agrave" unicode="&#xc0;" horiz-adv-x="1413" 
d="M954 350h-507l-110 -350h-310l501 1443h355l502 -1443h-321zM512 576h377l-185 591h-7zM318 1868h273l232 -310h-227z" />
    <glyph glyph-name="Aacute" unicode="&#xc1;" horiz-adv-x="1413" 
d="M954 350h-507l-110 -350h-310l501 1443h355l502 -1443h-321zM512 576h377l-185 591h-7zM587 1553l232 310h273l-277 -310h-228z" />
    <glyph glyph-name="Acircumflex" unicode="&#xc2;" horiz-adv-x="1413" 
d="M954 350h-507l-110 -350h-310l501 1443h355l502 -1443h-321zM512 576h377l-185 591h-7zM820 1861l274 -318h-222l-163 197h-6l-163 -197h-222l274 318h228z" />
    <glyph glyph-name="Atilde" unicode="&#xc3;" horiz-adv-x="1413" 
d="M954 350h-507l-110 -350h-310l501 1443h355l502 -1443h-321zM512 576h377l-185 591h-7zM693 1609q-76 68 -105 68q-67 0 -69 -119h-158q0 126 61 200q59 71 154 71q80 0 157 -67q77 -68 104 -68q63 0 65 122h158q0 -125 -62 -201q-59 -74 -152 -74q-76 0 -153 68z" />
    <glyph glyph-name="Adieresis" unicode="&#xc4;" horiz-adv-x="1413" 
d="M954 350h-507l-110 -350h-310l501 1443h355l502 -1443h-321zM512 576h377l-185 591h-7zM401 1600q-39 38 -39 92t39 93q39 38 96 38t96 -38q39 -39 39 -93t-39 -92q-39 -39 -96 -39t-96 39zM820 1600q-39 38 -39 92t39 93q39 38 96 38t96 -38q39 -39 39 -93t-39 -92
q-39 -39 -96 -39t-96 39z" />
    <glyph glyph-name="Aring" unicode="&#xc5;" horiz-adv-x="1413" 
d="M954 350h-507l-110 -350h-310l501 1443h355l502 -1443h-321zM512 576h377l-185 591h-7zM551 1577q-66 64 -66 153t66 153q65 64 155 64q91 0 156 -64t65 -153t-65 -153t-156 -64q-90 0 -155 64zM778 1659q30 30 30 71t-30 71t-72 30q-41 0 -72 -30q-30 -30 -30 -71
t30 -71q31 -29 72 -29q42 0 72 29z" />
    <glyph glyph-name="AE" unicode="&#xc6;" horiz-adv-x="2039" 
d="M574 599h391v612h-136zM965 373h-479l-158 -373h-301l613 1443h1270v-249h-669v-353h632v-232h-632v-360h669v-249h-945v373z" />
    <glyph glyph-name="Ccedilla" unicode="&#xc7;" horiz-adv-x="1459" 
d="M1392 501q-24 -224 -176 -365q-151 -139 -389 -158l-40 -94q88 0 136 -42q49 -41 49 -117q0 -86 -64 -136q-64 -49 -177 -50q-88 0 -140 16v120q40 -14 111 -14q107 0 107 55q0 31 -29 43q-28 13 -96 13h-56v101l48 106q-281 26 -441 221q-161 197 -161 522
q0 347 185 547q183 199 498 199q262 0 439 -150q178 -152 195 -393h-294q-21 133 -114 213q-94 80 -226 80q-171 0 -273 -133q-102 -135 -102 -362q0 -231 101 -364q101 -134 275 -134q134 0 225 74t115 202h294z" />
    <glyph glyph-name="Egrave" unicode="&#xc8;" horiz-adv-x="1174" 
d="M209 1868h273l232 -310h-227zM1075 0h-956v1443h956v-249h-654v-348h617v-232h-617v-364h654v-250z" />
    <glyph glyph-name="Eacute" unicode="&#xc9;" horiz-adv-x="1174" 
d="M478 1553l232 310h273l-277 -310h-228zM1075 0h-956v1443h956v-249h-654v-348h617v-232h-617v-364h654v-250z" />
    <glyph glyph-name="Ecircumflex" unicode="&#xca;" horiz-adv-x="1174" 
d="M711 1861l274 -318h-222l-163 197h-6l-163 -197h-222l274 318h228zM1075 0h-956v1443h956v-249h-654v-348h617v-232h-617v-364h654v-250z" />
    <glyph glyph-name="Edieresis" unicode="&#xcb;" horiz-adv-x="1174" 
d="M292 1600q-39 38 -39 92t39 93q39 38 96 38t96 -38q39 -39 39 -93t-39 -92q-39 -39 -96 -39t-96 39zM711 1600q-39 38 -39 92t39 93q39 38 96 38t96 -38q39 -39 39 -93t-39 -92q-39 -39 -96 -39t-96 39zM1075 0h-956v1443h956v-249h-654v-348h617v-232h-617v-364h654
v-250z" />
    <glyph glyph-name="Igrave" unicode="&#xcc;" horiz-adv-x="542" 
d="M120 0v1443h302v-1443h-302zM-117 1868h273l232 -310h-227z" />
    <glyph glyph-name="Iacute" unicode="&#xcd;" horiz-adv-x="542" 
d="M119 0v1443h302v-1443h-302zM151 1553l232 310h273l-277 -310h-228z" />
    <glyph glyph-name="Icircumflex" unicode="&#xce;" horiz-adv-x="542" 
d="M120 0v1443h302v-1443h-302zM385 1861l274 -318h-222l-163 197h-6l-163 -197h-222l274 318h228z" />
    <glyph glyph-name="Idieresis" unicode="&#xcf;" horiz-adv-x="542" 
d="M120 0v1443h302v-1443h-302zM-34 1600q-39 38 -39 92t39 93q39 38 96 38t96 -38q39 -39 39 -93t-39 -92q-39 -39 -96 -39t-96 39zM385 1600q-39 38 -39 92t39 93q39 38 96 38t96 -38q39 -39 39 -93t-39 -92q-39 -39 -96 -39t-96 39z" />
    <glyph glyph-name="Eth" unicode="&#xd0;" horiz-adv-x="1479" 
d="M639 250q203 0 309 121q107 122 107 355q0 226 -108 347t-308 121h-218v-351h265v-221h-265v-372h218zM675 1443q326 0 506 -186q182 -188 182 -530q0 -343 -182 -535q-181 -192 -506 -192h-556v622h-87v221h87v600h556z" />
    <glyph glyph-name="Ntilde" unicode="&#xd1;" horiz-adv-x="1463" 
d="M718 1609q-76 68 -105 68q-67 0 -69 -119h-158q0 126 61 200q59 71 154 71q80 0 157 -67q77 -68 104 -68q63 0 65 122h158q0 -125 -62 -201q-59 -74 -152 -74q-76 0 -153 68zM119 0v1443h252l674 -940h8v940h289v-1443h-250l-675 945h-9v-945h-289z" />
    <glyph glyph-name="Ograve" unicode="&#xd2;" horiz-adv-x="1541" 
d="M382 1868h273l232 -310h-227zM1278 1267q188 -201 188 -546q0 -344 -188 -545t-508 -201q-321 0 -508 201q-188 201 -188 545q0 345 188 546q187 201 508 201t508 -201zM488 1082q-106 -134 -106 -361q0 -226 105 -360q105 -133 283 -133q177 0 282 133q105 134 105 360
q0 227 -105 361t-282 134t-282 -134z" />
    <glyph glyph-name="Oacute" unicode="&#xd3;" horiz-adv-x="1541" 
d="M651 1553l232 310h273l-277 -310h-228zM1278 1267q188 -201 188 -546q0 -344 -188 -545t-508 -201q-321 0 -508 201q-188 201 -188 545q0 345 188 546q187 201 508 201t508 -201zM488 1082q-106 -134 -106 -361q0 -226 105 -360q105 -133 283 -133q177 0 282 133
q105 134 105 360q0 227 -105 361t-282 134t-282 -134z" />
    <glyph glyph-name="Ocircumflex" unicode="&#xd4;" horiz-adv-x="1541" 
d="M884 1861l274 -318h-222l-163 197h-6l-163 -197h-222l274 318h228zM1278 1267q188 -201 188 -546q0 -344 -188 -545t-508 -201q-321 0 -508 201q-188 201 -188 545q0 345 188 546q187 201 508 201t508 -201zM488 1082q-106 -134 -106 -361q0 -226 105 -360
q105 -133 283 -133q177 0 282 133q105 134 105 360q0 227 -105 361t-282 134t-282 -134z" />
    <glyph glyph-name="Otilde" unicode="&#xd5;" horiz-adv-x="1541" 
d="M1278 1267q188 -201 188 -546q0 -344 -188 -545t-508 -201q-321 0 -508 201q-188 201 -188 545q0 345 188 546q187 201 508 201t508 -201zM488 1082q-106 -134 -106 -361q0 -226 105 -360q105 -133 283 -133q177 0 282 133q105 134 105 360q0 227 -105 361t-282 134
t-282 -134zM757 1609q-76 68 -105 68q-67 0 -69 -119h-158q0 126 61 200q59 71 154 71q80 0 157 -67q77 -68 104 -68q63 0 65 122h158q0 -125 -62 -201q-59 -74 -152 -74q-76 0 -153 68z" />
    <glyph glyph-name="Odieresis" unicode="&#xd6;" horiz-adv-x="1541" 
d="M465 1600q-39 38 -39 92t39 93q39 38 96 38t96 -38q39 -39 39 -93t-39 -92q-39 -39 -96 -39t-96 39zM884 1600q-39 38 -39 92t39 93q39 38 96 38t96 -38q39 -39 39 -93t-39 -92q-39 -39 -96 -39t-96 39zM1278 1267q188 -201 188 -546q0 -344 -188 -545t-508 -201
q-321 0 -508 201q-188 201 -188 545q0 345 188 546q187 201 508 201t508 -201zM488 1082q-106 -134 -106 -361q0 -226 105 -360q105 -133 283 -133q177 0 282 133q105 134 105 360q0 227 -105 361t-282 134t-282 -134z" />
    <glyph glyph-name="multiply" unicode="&#xd7;" horiz-adv-x="1327" 
d="M358 105l-175 175l304 304l-304 305l175 175l305 -304l304 304l175 -175l-304 -305l304 -304l-175 -175l-304 304z" />
    <glyph glyph-name="Oslash" unicode="&#xd8;" horiz-adv-x="1541" 
d="M575 282q85 -54 195 -54q177 0 282 133q105 134 105 360q0 194 -77 320zM997 1139q-94 77 -227 77q-177 0 -282 -134q-106 -134 -106 -361q0 -223 101 -355zM1249 1296q217 -203 217 -575q0 -344 -188 -545t-508 -201q-197 0 -347 78l-80 -120l-102 68l80 120
q-247 200 -247 600q0 345 188 546q187 201 508 201q220 0 381 -98l90 136l108 -60z" />
    <glyph glyph-name="Ugrave" unicode="&#xd9;" horiz-adv-x="1449" 
d="M336 1868h273l232 -310h-227zM421 540q0 -141 79 -222q80 -84 224 -84q143 0 223 84q79 81 79 222v903h302v-933q0 -240 -164 -387q-165 -148 -440 -148q-276 0 -441 148q-164 147 -164 387v933h302v-903z" />
    <glyph glyph-name="Uacute" unicode="&#xda;" horiz-adv-x="1449" 
d="M605 1553l232 310h273l-277 -310h-228zM421 540q0 -141 79 -222q80 -84 224 -84q143 0 223 84q79 81 79 222v903h302v-933q0 -240 -164 -387q-165 -148 -440 -148q-276 0 -441 148q-164 147 -164 387v933h302v-903z" />
    <glyph glyph-name="Ucircumflex" unicode="&#xdb;" horiz-adv-x="1449" 
d="M838 1861l274 -318h-222l-163 197h-6l-163 -197h-222l274 318h228zM421 540q0 -141 79 -222q80 -84 224 -84q143 0 223 84q79 81 79 222v903h302v-933q0 -240 -164 -387q-165 -148 -440 -148q-276 0 -441 148q-164 147 -164 387v933h302v-903z" />
    <glyph glyph-name="Udieresis" unicode="&#xdc;" horiz-adv-x="1449" 
d="M419 1600q-39 38 -39 92t39 93q39 38 96 38t96 -38q39 -39 39 -93t-39 -92q-39 -39 -96 -39t-96 39zM838 1600q-39 38 -39 92t39 93q39 38 96 38t96 -38q39 -39 39 -93t-39 -92q-39 -39 -96 -39t-96 39zM421 540q0 -141 79 -222q80 -84 224 -84q143 0 223 84
q79 81 79 222v903h302v-933q0 -240 -164 -387q-165 -148 -440 -148q-276 0 -441 148q-164 147 -164 387v933h302v-903z" />
    <glyph glyph-name="Yacute" unicode="&#xdd;" horiz-adv-x="1362" 
d="M529 0v539l-502 904h329l323 -616h7l324 616h324l-503 -904v-539h-302zM561 1553l232 310h273l-277 -310h-228z" />
    <glyph glyph-name="Thorn" unicode="&#xde;" horiz-adv-x="1330" 
d="M454 1443v-235h307q209 0 340 -121q135 -126 135 -336t-140 -335q-135 -122 -350 -122h-294v-294h-302v1443h304zM452 531h226q117 0 183 55q68 57 68 164t-68 163q-65 55 -182 55h-227v-437z" />
    <glyph glyph-name="germandbls" unicode="&#xdf;" horiz-adv-x="1360" 
d="M147 0v1081q0 185 135 293q135 109 365 109q219 0 357 -105q137 -105 137 -272q0 -122 -59 -211t-159 -118v-12q154 -14 244 -113q91 -99 91 -253q0 -191 -131 -302q-130 -112 -353 -112q-115 0 -181 16v233q51 -17 128 -17q113 0 177 53t64 146q0 97 -72 151
q-73 54 -202 54h-72v238h50q89 0 141 53q52 54 52 146q0 86 -57 137q-56 52 -150 52q-104 0 -159 -58q-55 -57 -55 -166v-1023h-291z" />
    <glyph glyph-name="agrave" unicode="&#xe0;" horiz-adv-x="1147" 
d="M691 257q71 58 71 147v81l-231 -16q-187 -12 -187 -137q0 -61 48 -96q47 -36 127 -36q103 0 172 57zM159 78q-106 93 -106 239q0 149 112 234q110 83 322 96l275 17v73q0 79 -51 122q-51 42 -142 42q-78 0 -131 -38q-52 -37 -63 -98h-267q6 158 136 256q131 99 337 99
q212 0 340 -100t128 -265v-755h-282v170h-6q-44 -85 -138 -135q-91 -48 -199 -48q-161 0 -265 91zM465 1263l-263 310h273l221 -310h-231z" />
    <glyph glyph-name="aacute" unicode="&#xe1;" horiz-adv-x="1147" 
d="M691 257q71 58 71 147v81l-231 -16q-187 -12 -187 -137q0 -61 48 -96q47 -36 127 -36q103 0 172 57zM159 78q-106 93 -106 239q0 149 112 234q110 83 322 96l275 17v73q0 79 -51 122q-51 42 -142 42q-78 0 -131 -38q-52 -37 -63 -98h-267q6 158 136 256q131 99 337 99
q212 0 340 -100t128 -265v-755h-282v170h-6q-44 -85 -138 -135q-91 -48 -199 -48q-161 0 -265 91zM458 1263l221 310h273l-263 -310h-231z" />
    <glyph glyph-name="acircumflex" unicode="&#xe2;" horiz-adv-x="1147" 
d="M691 257q71 58 71 147v81l-231 -16q-187 -12 -187 -137q0 -61 48 -96q47 -36 127 -36q103 0 172 57zM159 78q-106 93 -106 239q0 149 112 234q110 83 322 96l275 17v73q0 79 -51 122q-51 42 -142 42q-78 0 -131 -38q-52 -37 -63 -98h-267q6 158 136 256q131 99 337 99
q212 0 340 -100t128 -265v-755h-282v170h-6q-44 -85 -138 -135q-91 -48 -199 -48q-161 0 -265 91zM952 1253h-223l-149 189h-7l-148 -189h-224l266 318h219z" />
    <glyph glyph-name="atilde" unicode="&#xe3;" horiz-adv-x="1147" 
d="M691 257q71 58 71 147v81l-231 -16q-187 -12 -187 -137q0 -61 48 -96q47 -36 127 -36q103 0 172 57zM159 78q-106 93 -106 239q0 149 112 234q110 83 322 96l275 17v73q0 79 -51 122q-51 42 -142 42q-78 0 -131 -38q-52 -37 -63 -98h-267q6 158 136 256q131 99 337 99
q212 0 340 -100t128 -265v-755h-282v170h-6q-44 -85 -138 -135q-91 -48 -199 -48q-161 0 -265 91zM566 1326q-76 68 -105 68q-67 0 -69 -119h-158q0 126 61 200q59 71 154 71q80 0 157 -67q77 -68 104 -68q63 0 65 122h158q0 -125 -62 -201q-59 -74 -152 -74q-76 0 -153 68z
" />
    <glyph glyph-name="adieresis" unicode="&#xe4;" horiz-adv-x="1147" 
d="M691 257q71 58 71 147v81l-231 -16q-187 -12 -187 -137q0 -61 48 -96q47 -36 127 -36q103 0 172 57zM159 78q-106 93 -106 239q0 149 112 234q110 83 322 96l275 17v73q0 79 -51 122q-51 42 -142 42q-78 0 -131 -38q-52 -37 -63 -98h-267q6 158 136 256q131 99 337 99
q212 0 340 -100t128 -265v-755h-282v170h-6q-44 -85 -138 -135q-91 -48 -199 -48q-161 0 -265 91zM272 1298q-39 38 -39 92t39 93q39 38 96 38t96 -38q39 -39 39 -93t-39 -92q-39 -39 -96 -39t-96 39zM691 1298q-39 38 -39 92t39 93q39 38 96 38t96 -38q39 -39 39 -93
t-39 -92q-39 -39 -96 -39t-96 39z" />
    <glyph glyph-name="aring" unicode="&#xe5;" horiz-adv-x="1147" 
d="M691 257q71 58 71 147v81l-231 -16q-187 -12 -187 -137q0 -61 48 -96q47 -36 127 -36q103 0 172 57zM159 78q-106 93 -106 239q0 149 112 234q110 83 322 96l275 17v73q0 79 -51 122q-51 42 -142 42q-78 0 -131 -38q-52 -37 -63 -98h-267q6 158 136 256q131 99 337 99
q212 0 340 -100t128 -265v-755h-282v170h-6q-44 -85 -138 -135q-91 -48 -199 -48q-161 0 -265 91zM422 1274q-66 64 -66 153t66 153q65 64 155 64q91 0 156 -64t65 -153t-65 -153t-156 -64q-90 0 -155 64zM649 1356q30 30 30 71t-30 71t-72 30q-41 0 -72 -30
q-30 -30 -30 -71t30 -71q31 -29 72 -29q42 0 72 29z" />
    <glyph glyph-name="ae" unicode="&#xe6;" horiz-adv-x="1844" 
d="M1041 36q-107 55 -160 152h-9q-121 -201 -405 -201q-186 0 -300 91q-114 90 -114 237q0 149 111 234t322 97l276 15v67q0 77 -54 125t-142 48q-83 0 -136 -37q-52 -37 -59 -99h-268q8 159 134 257q125 98 322 98q266 0 362 -168h9q115 168 352 168q230 0 366 -149
q137 -148 137 -398v-89h-751v-19q0 -120 70 -193t185 -73q173 0 218 137h269q-25 -161 -158 -258q-134 -97 -333 -97q-137 0 -244 55zM1110 836q-65 -65 -73 -172h466q-4 109 -65 174q-62 64 -162 64t-166 -66zM691 259q71 59 71 145v78l-233 -14q-185 -11 -185 -136
q0 -61 46 -96q46 -36 124 -36q105 0 177 59z" />
    <glyph glyph-name="ccedilla" unicode="&#xe7;" horiz-adv-x="1142" 
d="M1094 400q-12 -175 -126 -286t-301 -130l-42 -100q88 0 136 -42q49 -41 49 -117q0 -86 -64 -136q-64 -49 -177 -50q-88 0 -140 16v120q40 -14 111 -14q107 0 107 55q0 31 -29 43q-28 13 -96 13h-56v101l51 112q-214 25 -336 174q-124 150 -124 392q0 261 146 415
q145 154 391 154q218 0 355 -121q133 -117 144 -304h-272q-12 88 -70 140q-60 55 -153 55q-113 0 -179 -90q-66 -91 -66 -249q0 -160 66 -250q66 -89 180 -89q193 0 223 188h272z" />
    <glyph glyph-name="egrave" unicode="&#xe8;" horiz-adv-x="1164" 
d="M473 1263l-263 310h273l221 -310h-231zM422 836q-66 -66 -74 -172h475q-4 108 -68 173t-166 65q-100 0 -167 -66zM1096 336q-24 -160 -161 -257q-137 -98 -338 -98q-251 0 -396 151q-144 151 -144 414t143 418q144 156 386 156q238 0 378 -148q141 -148 141 -399v-90
h-760v-18q0 -119 71 -193q71 -73 186 -73q83 0 143 37q61 36 82 100h269z" />
    <glyph glyph-name="eacute" unicode="&#xe9;" horiz-adv-x="1164" 
d="M466 1263l221 310h273l-263 -310h-231zM422 836q-66 -66 -74 -172h475q-4 108 -68 173t-166 65q-100 0 -167 -66zM1096 336q-24 -160 -161 -257q-137 -98 -338 -98q-251 0 -396 151q-144 151 -144 414t143 418q144 156 386 156q238 0 378 -148q141 -148 141 -399v-90
h-760v-18q0 -119 71 -193q71 -73 186 -73q83 0 143 37q61 36 82 100h269z" />
    <glyph glyph-name="ecircumflex" unicode="&#xea;" horiz-adv-x="1164" 
d="M960 1253h-223l-149 189h-7l-148 -189h-224l266 318h219zM422 836q-66 -66 -74 -172h475q-4 108 -68 173t-166 65q-100 0 -167 -66zM1096 336q-24 -160 -161 -257q-137 -98 -338 -98q-251 0 -396 151q-144 151 -144 414t143 418q144 156 386 156q238 0 378 -148
q141 -148 141 -399v-90h-760v-18q0 -119 71 -193q71 -73 186 -73q83 0 143 37q61 36 82 100h269z" />
    <glyph glyph-name="edieresis" unicode="&#xeb;" horiz-adv-x="1164" 
d="M422 836q-66 -66 -74 -172h475q-4 108 -68 173t-166 65q-100 0 -167 -66zM1096 336q-24 -160 -161 -257q-137 -98 -338 -98q-251 0 -396 151q-144 151 -144 414t143 418q144 156 386 156q238 0 378 -148q141 -148 141 -399v-90h-760v-18q0 -119 71 -193q71 -73 186 -73
q83 0 143 37q61 36 82 100h269zM280 1298q-39 38 -39 92t39 93q39 38 96 38t96 -38q39 -39 39 -93t-39 -92q-39 -39 -96 -39t-96 39zM699 1298q-39 38 -39 92t39 93q39 38 96 38t96 -38q39 -39 39 -93t-39 -92q-39 -39 -96 -39t-96 39z" />
    <glyph glyph-name="igrave" unicode="&#xec;" horiz-adv-x="500" 
d="M138 1263l-263 310h273l221 -310h-231zM104 1101h292v-1101h-292v1101z" />
    <glyph glyph-name="iacute" unicode="&#xed;" horiz-adv-x="500" 
d="M130 1263l221 310h273l-263 -310h-231zM103 1101h292v-1101h-292v1101z" />
    <glyph glyph-name="icircumflex" unicode="&#xee;" horiz-adv-x="500" 
d="M625 1253h-223l-149 189h-7l-148 -189h-224l266 318h219zM104 1101h292v-1101h-292v1101z" />
    <glyph glyph-name="idieresis" unicode="&#xef;" horiz-adv-x="500" 
d="M104 1101h292v-1101h-292v1101zM-55 1298q-39 38 -39 92t39 93q39 38 96 38t96 -38q39 -39 39 -93t-39 -92q-39 -39 -96 -39t-96 39zM364 1298q-39 38 -39 92t39 93q39 38 96 38t96 -38q39 -39 39 -93t-39 -92q-39 -39 -96 -39t-96 39z" />
    <glyph glyph-name="eth" unicode="&#xf0;" horiz-adv-x="1253" 
d="M228 133q-149 151 -149 402q0 235 131 378q129 141 336 141q186 0 274 -130h17q-44 146 -171 288l-285 -95l-55 140l228 76q-79 72 -242 184h363q63 -48 119 -104l265 89l57 -141l-202 -66q250 -298 250 -694q0 -284 -150 -452q-148 -167 -394 -167q-244 0 -392 151z
M445 763q-67 -85 -67 -230t67 -230t182 -85t183 85q67 84 67 230q0 144 -68 230q-68 85 -182 85q-115 0 -182 -85z" />
    <glyph glyph-name="ntilde" unicode="&#xf1;" horiz-adv-x="1227" 
d="M603 1326q-76 68 -105 68q-67 0 -69 -119h-158q0 126 61 200q59 71 154 71q80 0 157 -67q77 -68 104 -68q63 0 65 122h158q0 -125 -62 -201q-59 -74 -152 -74q-76 0 -153 68zM98 1101h282v-197h6q97 213 354 213q183 0 288 -109q104 -109 104 -302v-706h-292v645
q0 110 -56 169q-57 60 -160 60q-105 0 -169 -68q-65 -68 -65 -178v-628h-292v1101z" />
    <glyph glyph-name="ograve" unicode="&#xf2;" horiz-adv-x="1201" 
d="M488 1263l-263 310h273l221 -310h-231zM203 133q-146 152 -146 418q0 263 147 417q147 152 396 152q250 0 396 -152q147 -153 147 -417q0 -267 -146 -419q-145 -151 -397 -151q-251 0 -397 152zM781 296q65 91 65 255q0 162 -66 254q-65 91 -180 91q-116 0 -181 -91
q-66 -92 -66 -254q0 -164 66 -255q65 -90 181 -90t181 90z" />
    <glyph glyph-name="oacute" unicode="&#xf3;" horiz-adv-x="1201" 
d="M481 1263l221 310h273l-263 -310h-231zM203 133q-146 152 -146 418q0 263 147 417q147 152 396 152q250 0 396 -152q147 -153 147 -417q0 -267 -146 -419q-145 -151 -397 -151q-251 0 -397 152zM781 296q65 91 65 255q0 162 -66 254q-65 91 -180 91q-116 0 -181 -91
q-66 -92 -66 -254q0 -164 66 -255q65 -90 181 -90t181 90z" />
    <glyph glyph-name="ocircumflex" unicode="&#xf4;" horiz-adv-x="1201" 
d="M975 1253h-223l-149 189h-7l-148 -189h-224l266 318h219zM203 133q-146 152 -146 418q0 263 147 417q147 152 396 152q250 0 396 -152q147 -153 147 -417q0 -267 -146 -419q-145 -151 -397 -151q-251 0 -397 152zM781 296q65 91 65 255q0 162 -66 254q-65 91 -180 91
q-116 0 -181 -91q-66 -92 -66 -254q0 -164 66 -255q65 -90 181 -90t181 90z" />
    <glyph glyph-name="otilde" unicode="&#xf5;" horiz-adv-x="1201" 
d="M589 1326q-76 68 -105 68q-67 0 -69 -119h-158q0 126 61 200q59 71 154 71q80 0 157 -67q77 -68 104 -68q63 0 65 122h158q0 -125 -62 -201q-59 -74 -152 -74q-76 0 -153 68zM203 133q-146 152 -146 418q0 263 147 417q147 152 396 152q250 0 396 -152q147 -153 147 -417
q0 -267 -146 -419q-145 -151 -397 -151q-251 0 -397 152zM781 296q65 91 65 255q0 162 -66 254q-65 91 -180 91q-116 0 -181 -91q-66 -92 -66 -254q0 -164 66 -255q65 -90 181 -90t181 90z" />
    <glyph glyph-name="odieresis" unicode="&#xf6;" horiz-adv-x="1201" 
d="M295 1298q-39 38 -39 92t39 93q39 38 96 38t96 -38q39 -39 39 -93t-39 -92q-39 -39 -96 -39t-96 39zM714 1298q-39 38 -39 92t39 93q39 38 96 38t96 -38q39 -39 39 -93t-39 -92q-39 -39 -96 -39t-96 39zM203 133q-146 152 -146 418q0 263 147 417q147 152 396 152
q250 0 396 -152q147 -153 147 -417q0 -267 -146 -419q-145 -151 -397 -151q-251 0 -397 152zM781 296q65 91 65 255q0 162 -66 254q-65 91 -180 91q-116 0 -181 -91q-66 -92 -66 -254q0 -164 66 -255q65 -90 181 -90t181 90z" />
    <glyph glyph-name="divide" unicode="&#xf7;" horiz-adv-x="1326" 
d="M542 854q-46 44 -46 114q0 71 46 115q47 44 121 44t121 -44q46 -44 46 -115q0 -70 -46 -114q-47 -44 -121 -44t-121 44zM542 76q-46 44 -46 114q0 71 46 115q47 44 121 44t121 -44q46 -44 46 -115q0 -70 -46 -114q-47 -44 -121 -44t-121 44zM123 470v218h1079v-218h-1079
z" />
    <glyph glyph-name="oslash" unicode="&#xf8;" horiz-adv-x="1201" 
d="M482 237q53 -31 118 -31q116 0 181 90q65 91 65 255q0 122 -38 206zM728 857q-54 39 -128 39q-116 0 -181 -91q-66 -92 -66 -254q0 -133 45 -220zM961 1001q182 -154 182 -450q0 -267 -146 -419q-145 -151 -397 -151q-137 0 -248 48l-62 -99l-104 64l62 98
q-191 152 -191 459q0 263 147 417q147 152 396 152q145 0 259 -54l64 102l106 -59z" />
    <glyph glyph-name="ugrave" unicode="&#xf9;" horiz-adv-x="1227" 
d="M499 1263l-263 310h273l221 -310h-231zM1127 0h-282v199h-6q-87 -215 -346 -215q-181 0 -289 110q-111 111 -111 301v706h292v-645q0 -110 59 -170q57 -59 160 -59t167 68t64 179v627h292v-1101z" />
    <glyph glyph-name="uacute" unicode="&#xfa;" horiz-adv-x="1227" 
d="M492 1263l221 310h273l-263 -310h-231zM1127 0h-282v199h-6q-87 -215 -346 -215q-181 0 -289 110q-111 111 -111 301v706h292v-645q0 -110 59 -170q57 -59 160 -59t167 68t64 179v627h292v-1101z" />
    <glyph glyph-name="ucircumflex" unicode="&#xfb;" horiz-adv-x="1227" 
d="M986 1253h-223l-149 189h-7l-148 -189h-224l266 318h219zM1127 0h-282v199h-6q-87 -215 -346 -215q-181 0 -289 110q-111 111 -111 301v706h292v-645q0 -110 59 -170q57 -59 160 -59t167 68t64 179v627h292v-1101z" />
    <glyph glyph-name="udieresis" unicode="&#xfc;" horiz-adv-x="1227" 
d="M1127 0h-282v199h-6q-87 -215 -346 -215q-181 0 -289 110q-111 111 -111 301v706h292v-645q0 -110 59 -170q57 -59 160 -59t167 68t64 179v627h292v-1101zM306 1298q-39 38 -39 92t39 93q39 38 96 38t96 -38q39 -39 39 -93t-39 -92q-39 -39 -96 -39t-96 39zM725 1298
q-39 38 -39 92t39 93q39 38 96 38t96 -38q39 -39 39 -93t-39 -92q-39 -39 -96 -39t-96 39z" />
    <glyph glyph-name="yacute" unicode="&#xfd;" horiz-adv-x="1136" 
d="M128 -398v226q15 -3 66 -3q162 0 195 126l10 42l-386 1108h320l238 -864h6l239 864h308l-381 -1123q-70 -210 -184 -295q-113 -85 -320 -85q-89 0 -111 4zM450 1263l221 310h273l-263 -310h-231z" />
    <glyph glyph-name="thorn" unicode="&#xfe;" horiz-adv-x="1253" 
d="M1073 968q119 -151 119 -417t-119 -417q-118 -152 -326 -152q-246 0 -333 186h-17v-514h-291v1853h287v-587h18q96 199 334 199q209 0 328 -151zM827 307q66 88 66 244q0 155 -66 244q-66 88 -183 88q-116 0 -183 -89q-67 -90 -68 -244q1 -155 68 -243q67 -89 183 -89
q117 0 183 89z" />
    <glyph glyph-name="ydieresis" unicode="&#xff;" horiz-adv-x="1136" 
d="M128 -398v226q15 -3 66 -3q162 0 195 126l10 42l-386 1108h320l238 -864h6l239 864h308l-381 -1123q-70 -210 -184 -295q-113 -85 -320 -85q-89 0 -111 4zM264 1298q-39 38 -39 92t39 93q39 38 96 38t96 -38q39 -39 39 -93t-39 -92q-39 -39 -96 -39t-96 39zM683 1298
q-39 38 -39 92t39 93q39 38 96 38t96 -38q39 -39 39 -93t-39 -92q-39 -39 -96 -39t-96 39z" />
    <glyph glyph-name="Amacron" unicode="&#x100;" horiz-adv-x="1413" 
d="M954 350h-507l-110 -350h-310l501 1443h355l502 -1443h-321zM512 576h377l-185 591h-7zM1052 1624h-692v143h692v-143z" />
    <glyph glyph-name="amacron" unicode="&#x101;" horiz-adv-x="1147" 
d="M691 257q71 58 71 147v81l-231 -16q-187 -12 -187 -137q0 -61 48 -96q47 -36 127 -36q103 0 172 57zM159 78q-106 93 -106 239q0 149 112 234q110 83 322 96l275 17v73q0 79 -51 122q-51 42 -142 42q-78 0 -131 -38q-52 -37 -63 -98h-267q6 158 136 256q131 99 337 99
q212 0 340 -100t128 -265v-755h-282v170h-6q-44 -85 -138 -135q-91 -48 -199 -48q-161 0 -265 91zM912 1298h-669v143h669v-143z" />
    <glyph glyph-name="Abreve" unicode="&#x102;" horiz-adv-x="1413" 
d="M954 350h-507l-110 -350h-310l501 1443h355l502 -1443h-321zM512 576h377l-185 591h-7zM531 1860q2 -75 49 -123q49 -49 126 -49t126 49q47 48 49 123h178q-2 -137 -96 -225q-97 -92 -257 -92t-257 92q-94 88 -96 225h178z" />
    <glyph glyph-name="abreve" unicode="&#x103;" horiz-adv-x="1147" 
d="M691 257q71 58 71 147v81l-231 -16q-187 -12 -187 -137q0 -61 48 -96q47 -36 127 -36q103 0 172 57zM159 78q-106 93 -106 239q0 149 112 234q110 83 322 96l275 17v73q0 79 -51 122q-51 42 -142 42q-78 0 -131 -38q-52 -37 -63 -98h-267q6 158 136 256q131 99 337 99
q212 0 340 -100t128 -265v-755h-282v170h-6q-44 -85 -138 -135q-91 -48 -199 -48q-161 0 -265 91zM397 1570q2 -76 51 -125q50 -50 128 -50q79 0 129 50q48 49 50 125h180q-2 -140 -97 -229q-99 -93 -262 -93q-162 0 -261 93q-95 89 -97 229h179z" />
    <glyph glyph-name="Aogonek" unicode="&#x104;" horiz-adv-x="1413" 
d="M1054 -390q-70 63 -70 163q0 146 151 238h-74l-107 339h-507l-110 -350h-310l501 1443h355l499 -1436h-53q-145 -72 -145 -184q0 -49 33 -79q32 -30 83 -30q28 0 61 5v-155q-48 -17 -126 -17q-111 0 -181 63zM512 576h377l-182 584h-12z" />
    <glyph glyph-name="aogonek" unicode="&#x105;" horiz-adv-x="1147" 
d="M747 -392q-69 62 -69 160q0 150 160 244h-71v158h-6q-44 -83 -135 -133q-92 -50 -202 -50q-163 0 -267 93q-104 92 -104 237q0 149 111 233t323 97l275 17v73q0 78 -51 121q-50 43 -142 43q-77 0 -130 -37t-64 -99h-267q6 158 137 257q131 98 336 98q212 0 340 -100
t128 -265v-745h-29q-145 -72 -145 -187q0 -49 32 -79t84 -30q28 0 58 5v-155q-49 -17 -123 -17q-110 0 -179 61zM693 258q69 58 69 146v81l-231 -16q-187 -12 -187 -137q0 -60 47 -96q48 -36 128 -36q104 0 174 58z" />
    <glyph glyph-name="Cacute" unicode="&#x106;" horiz-adv-x="1459" 
d="M625 1554l232 310h273l-277 -310h-228zM258 174q-184 200 -184 548q0 347 185 547q183 199 498 199q262 0 439 -150q178 -152 195 -393h-294q-21 133 -114 213q-94 80 -226 80q-171 0 -273 -133q-102 -135 -102 -362q0 -231 101 -364q101 -134 275 -134q134 0 225 74
t115 202h294q-25 -241 -197 -384q-172 -142 -438 -142q-316 0 -499 199z" />
    <glyph glyph-name="cacute" unicode="&#x107;" horiz-adv-x="1142" 
d="M821 695q-12 88 -70 140q-60 55 -153 55q-113 0 -179 -90q-66 -91 -66 -249q0 -160 66 -250q66 -89 180 -89q193 0 223 188h272q-13 -192 -147 -305q-135 -114 -351 -114q-248 0 -393 152q-146 154 -146 418q0 261 146 415q145 154 391 154q218 0 355 -121
q133 -117 144 -304h-272zM462 1263l221 310h273l-263 -310h-231z" />
    <glyph glyph-name="Ccircumflex" unicode="&#x108;" horiz-adv-x="1459" 
d="M258 174q-184 200 -184 548q0 347 185 547q183 199 498 199q262 0 439 -150q178 -152 195 -393h-294q-21 133 -114 213q-94 80 -226 80q-171 0 -273 -133q-102 -135 -102 -362q0 -231 101 -364q101 -134 275 -134q134 0 225 74t115 202h294q-25 -241 -197 -384
q-172 -142 -438 -142q-316 0 -499 199zM858 1862l274 -318h-222l-163 197h-6l-163 -197h-222l274 318h228z" />
    <glyph glyph-name="ccircumflex" unicode="&#x109;" horiz-adv-x="1142" 
d="M956 1253h-223l-149 189h-7l-148 -189h-224l266 318h219zM821 695q-12 88 -70 140q-60 55 -153 55q-113 0 -179 -90q-66 -91 -66 -249q0 -160 66 -250q66 -89 180 -89q193 0 223 188h272q-13 -192 -147 -305q-135 -114 -351 -114q-248 0 -393 152q-146 154 -146 418
q0 261 146 415q145 154 391 154q218 0 355 -121q133 -117 144 -304h-272z" />
    <glyph glyph-name="Cdotaccent" unicode="&#x10a;" horiz-adv-x="1459" 
d="M638 1606q-43 43 -43 105t43 105t106 43t106 -43t43 -105t-43 -105q-43 -44 -106 -44t-106 44zM258 174q-184 200 -184 548q0 347 185 547q183 199 498 199q262 0 439 -150q178 -152 195 -393h-294q-21 133 -114 213q-94 80 -226 80q-171 0 -273 -133
q-102 -135 -102 -362q0 -231 101 -364q101 -134 275 -134q134 0 225 74t115 202h294q-25 -241 -197 -384q-172 -142 -438 -142q-316 0 -499 199z" />
    <glyph glyph-name="cdotaccent" unicode="&#x10b;" horiz-adv-x="1142" 
d="M821 695q-12 88 -70 140q-60 55 -153 55q-113 0 -179 -90q-66 -91 -66 -249q0 -160 66 -250q66 -89 180 -89q193 0 223 188h272q-13 -192 -147 -305q-135 -114 -351 -114q-248 0 -393 152q-146 154 -146 418q0 261 146 415q145 154 391 154q218 0 355 -121
q133 -117 144 -304h-272zM473 1307q-44 43 -44 104q0 62 44 105q44 44 107 44t107 -44q43 -43 43 -105q0 -61 -43 -104q-44 -44 -107 -44t-107 44z" />
    <glyph glyph-name="Ccaron" unicode="&#x10c;" horiz-adv-x="1459" 
d="M258 174q-184 200 -184 548q0 347 185 547q183 199 498 199q262 0 439 -150q178 -152 195 -393h-294q-21 133 -114 213q-94 80 -226 80q-171 0 -273 -133q-102 -135 -102 -362q0 -231 101 -364q101 -134 275 -134q134 0 225 74t115 202h294q-25 -241 -197 -384
q-172 -142 -438 -142q-316 0 -499 199zM356 1862h222l163 -197h6l163 197h222l-274 -318h-228z" />
    <glyph glyph-name="ccaron" unicode="&#x10d;" horiz-adv-x="1142" 
d="M471 1253l-266 318h224l148 -188h7l149 188h223l-266 -318h-219zM821 695q-12 88 -70 140q-60 55 -153 55q-113 0 -179 -90q-66 -91 -66 -249q0 -160 66 -250q66 -89 180 -89q193 0 223 188h272q-13 -192 -147 -305q-135 -114 -351 -114q-248 0 -393 152
q-146 154 -146 418q0 261 146 415q145 154 391 154q218 0 355 -121q133 -117 144 -304h-272z" />
    <glyph glyph-name="Dcaron" unicode="&#x10e;" horiz-adv-x="1438" 
d="M255 1861h222l163 -197h6l163 197h222l-274 -318h-228zM675 1443q326 0 506 -186q182 -188 182 -530q0 -343 -182 -535q-181 -192 -506 -192h-556v1443h556zM421 250h218q203 0 309 121q107 122 107 355q0 226 -108 347t-308 121h-218v-944z" />
    <glyph glyph-name="dcaron" unicode="&#x10f;" horiz-adv-x="1449" 
d="M1513 1507l-40 -503h-177v503h217zM180 139q-123 153 -123 413q0 258 123 410t329 152q118 0 208 -55q87 -53 129 -146h6v599h292v-1512h-288v188h-5q-41 -92 -131 -146q-92 -55 -212 -55q-206 0 -328 152zM424 790q-68 -89 -68 -239q0 -151 68 -240q67 -88 181 -88
q113 0 181 89t68 238t-68 239q-68 89 -181 89q-114 0 -181 -88z" />
    <glyph glyph-name="Dcroat" unicode="&#x110;" horiz-adv-x="1517" 
d="M692 250q203 0 309 121q107 122 107 355q0 226 -108 347t-308 121h-218v-351h265v-221h-265v-372h218zM728 1443q326 0 506 -186q182 -188 182 -530q0 -343 -182 -535q-181 -192 -506 -192h-556v622h-88v221h88v600h556z" />
    <glyph glyph-name="dcroat" unicode="&#x111;" horiz-adv-x="1295" 
d="M811 307q66 88 66 243q0 154 -67 243q-67 90 -183 90t-183 -88q-66 -89 -66 -244q0 -157 66 -245t183 -88t184 89zM1259 1262h-94v-1262h-287v173h-18q-95 -191 -335 -191q-207 0 -326 153q-120 152 -120 417q0 263 121 415t328 152q112 0 200 -52q86 -51 129 -142h17
v337h-223v150h223v144h291v-144h94v-150z" />
    <glyph glyph-name="Emacron" unicode="&#x112;" horiz-adv-x="1174" 
d="M1075 0h-956v1443h956v-249h-654v-348h617v-232h-617v-364h654v-250zM943 1624h-692v143h692v-143z" />
    <glyph glyph-name="emacron" unicode="&#x113;" horiz-adv-x="1164" 
d="M422 836q-66 -66 -74 -172h475q-4 108 -68 173t-166 65q-100 0 -167 -66zM1096 336q-24 -160 -161 -257q-137 -98 -338 -98q-251 0 -396 151q-144 151 -144 414t143 418q144 156 386 156q238 0 378 -148q141 -148 141 -399v-90h-760v-18q0 -119 71 -193q71 -73 186 -73
q83 0 143 37q61 36 82 100h269zM920 1298h-669v143h669v-143z" />
    <glyph glyph-name="Ebreve" unicode="&#x114;" horiz-adv-x="1174" 
d="M1075 0h-956v1443h956v-249h-654v-348h617v-232h-617v-364h654v-250zM422 1860q2 -75 49 -123q49 -49 126 -49t126 49q47 48 49 123h178q-2 -137 -96 -225q-97 -92 -257 -92t-257 92q-94 88 -96 225h178z" />
    <glyph glyph-name="ebreve" unicode="&#x115;" horiz-adv-x="1164" 
d="M422 836q-66 -66 -74 -172h475q-4 108 -68 173t-166 65q-100 0 -167 -66zM1096 336q-24 -160 -161 -257q-137 -98 -338 -98q-251 0 -396 151q-144 151 -144 414t143 418q144 156 386 156q238 0 378 -148q141 -148 141 -399v-90h-760v-18q0 -119 71 -193q71 -73 186 -73
q83 0 143 37q61 36 82 100h269zM405 1570q2 -76 51 -125q50 -50 128 -50q79 0 129 50q48 49 50 125h180q-2 -140 -97 -229q-99 -93 -262 -93q-162 0 -261 93q-95 89 -97 229h179z" />
    <glyph glyph-name="Edotaccent" unicode="&#x116;" horiz-adv-x="1174" 
d="M491 1605q-43 43 -43 105t43 105t106 43t106 -43t43 -105t-43 -105q-43 -44 -106 -44t-106 44zM1075 0h-956v1443h956v-249h-654v-348h617v-232h-617v-364h654v-250z" />
    <glyph glyph-name="edotaccent" unicode="&#x117;" horiz-adv-x="1164" 
d="M477 1307q-44 43 -44 104q0 62 44 105q44 44 107 44t107 -44q43 -43 43 -105q0 -61 -43 -104q-44 -44 -107 -44t-107 44zM422 836q-66 -66 -74 -172h475q-4 108 -68 173t-166 65q-100 0 -167 -66zM1096 336q-24 -160 -161 -257q-137 -98 -338 -98q-251 0 -396 151
q-144 151 -144 414t143 418q144 156 386 156q238 0 378 -148q141 -148 141 -399v-90h-760v-18q0 -119 71 -193q71 -73 186 -73q83 0 143 37q61 36 82 100h269z" />
    <glyph glyph-name="Eogonek" unicode="&#x118;" horiz-adv-x="1174" 
d="M119 0v1443h956v-249h-654v-348h617v-232h-617v-364h654v-221q-189 -86 -189 -213q0 -46 32 -74t85 -28q44 0 72 8v-154q-47 -21 -137 -21q-116 0 -185 59t-69 157q0 145 145 237h-710z" />
    <glyph glyph-name="eogonek" unicode="&#x119;" horiz-adv-x="1164" 
d="M581 -397q-68 59 -68 154q0 130 122 224v2q-9 -2 -38 -2q-251 0 -396 151q-144 151 -144 414t143 418q144 156 386 156q238 0 378 -148q141 -148 141 -399v-90h-760v-18q0 -119 71 -193q71 -73 186 -73q83 0 144 37q60 37 81 100h269q-20 -150 -211 -299
q-92 -72 -126 -111q-49 -56 -49 -110q0 -45 32 -73q31 -28 82 -28q42 0 73 9v-158q-47 -22 -139 -22q-109 0 -177 59zM422 836q-66 -66 -74 -172h475q-4 108 -68 173t-166 65q-100 0 -167 -66z" />
    <glyph glyph-name="Ecaron" unicode="&#x11a;" horiz-adv-x="1174" 
d="M209 1861h222l163 -197h6l163 197h222l-274 -318h-228zM1075 0h-956v1443h956v-249h-654v-348h617v-232h-617v-364h654v-250z" />
    <glyph glyph-name="ecaron" unicode="&#x11b;" horiz-adv-x="1164" 
d="M475 1253l-266 318h224l148 -188h7l149 188h223l-266 -318h-219zM422 836q-66 -66 -74 -172h475q-4 108 -68 173t-166 65q-100 0 -167 -66zM1096 336q-24 -160 -161 -257q-137 -98 -338 -98q-251 0 -396 151q-144 151 -144 414t143 418q144 156 386 156q238 0 378 -148
q141 -148 141 -399v-90h-760v-18q0 -119 71 -193q71 -73 186 -73q83 0 143 37q61 36 82 100h269z" />
    <glyph glyph-name="Gcircumflex" unicode="&#x11c;" horiz-adv-x="1489" 
d="M864 1861l274 -318h-222l-163 197h-6l-163 -197h-222l274 318h228zM1409 606q0 -295 -169 -463q-170 -168 -471 -168q-324 0 -509 200q-186 200 -186 551q0 346 185 544q184 198 503 198q252 0 427 -136t207 -355h-303q-33 113 -120 177q-88 64 -210 64q-179 0 -280 -129
t-101 -359q0 -234 106 -369q105 -135 286 -135q148 0 242 83q93 83 98 217l1 23h-314v220h608v-163z" />
    <glyph glyph-name="gcircumflex" unicode="&#x11d;" horiz-adv-x="1244" 
d="M983 1253h-223l-149 189h-7l-148 -189h-224l266 318h219zM785 319q68 86 68 233q0 149 -68 237q-68 89 -182 89q-113 0 -180 -88t-67 -237t67 -235q66 -85 180 -85t182 86zM244 -315q-140 89 -151 237h288q14 -54 77 -87q62 -32 149 -32q112 0 178 54q67 54 67 146v197
h-6q-40 -89 -131 -141t-210 -52q-203 0 -324 146q-124 149 -124 401q0 259 122 409q122 151 331 151q117 0 208 -55q89 -53 133 -146h5v188h288v-1076q0 -196 -148 -312q-147 -116 -396 -116q-218 0 -356 88z" />
    <glyph glyph-name="Gbreve" unicode="&#x11e;" horiz-adv-x="1489" 
d="M1409 606q0 -295 -169 -463q-170 -168 -471 -168q-324 0 -509 200q-186 200 -186 551q0 346 185 544q184 198 503 198q252 0 427 -136t207 -355h-303q-33 113 -120 177q-88 64 -210 64q-179 0 -280 -129t-101 -359q0 -234 106 -369q105 -135 286 -135q148 0 242 83
q93 83 98 217l1 23h-314v220h608v-163zM575 1860q2 -75 49 -123q49 -49 126 -49t126 49q47 48 49 123h178q-2 -137 -96 -225q-97 -92 -257 -92t-257 92q-94 88 -96 225h178z" />
    <glyph glyph-name="gbreve" unicode="&#x11f;" horiz-adv-x="1244" 
d="M428 1570q2 -76 51 -125q50 -50 128 -50q79 0 129 50q48 49 50 125h180q-2 -140 -97 -229q-99 -93 -262 -93q-162 0 -261 93q-95 89 -97 229h179zM785 319q68 86 68 233q0 149 -68 237q-68 89 -182 89q-113 0 -180 -88t-67 -237t67 -235q66 -85 180 -85t182 86zM244 -315
q-140 89 -151 237h288q14 -54 77 -87q62 -32 149 -32q112 0 178 54q67 54 67 146v197h-6q-40 -89 -131 -141t-210 -52q-203 0 -324 146q-124 149 -124 401q0 259 122 409q122 151 331 151q117 0 208 -55q89 -53 133 -146h5v188h288v-1076q0 -196 -148 -312
q-147 -116 -396 -116q-218 0 -356 88z" />
    <glyph glyph-name="Gdotaccent" unicode="&#x120;" horiz-adv-x="1489" 
d="M644 1605q-43 43 -43 105t43 105t106 43t106 -43t43 -105t-43 -105q-43 -44 -106 -44t-106 44zM1409 606q0 -295 -169 -463q-170 -168 -471 -168q-324 0 -509 200q-186 200 -186 551q0 346 185 544q184 198 503 198q252 0 427 -136t207 -355h-303q-33 113 -120 177
q-88 64 -210 64q-179 0 -280 -129t-101 -359q0 -234 106 -369q105 -135 286 -135q148 0 242 83q93 83 98 217l1 23h-314v220h608v-163z" />
    <glyph glyph-name="gdotaccent" unicode="&#x121;" horiz-adv-x="1244" 
d="M500 1307q-44 43 -44 104q0 62 44 105q44 44 107 44t107 -44q43 -43 43 -105q0 -61 -43 -104q-44 -44 -107 -44t-107 44zM785 319q68 86 68 233q0 149 -68 237q-68 89 -182 89q-113 0 -180 -88t-67 -237t67 -235q66 -85 180 -85t182 86zM244 -315q-140 89 -151 237h288
q14 -54 77 -87q62 -32 149 -32q112 0 178 54q67 54 67 146v197h-6q-40 -89 -131 -141t-210 -52q-203 0 -324 146q-124 149 -124 401q0 259 122 409q122 151 331 151q117 0 208 -55q89 -53 133 -146h5v188h288v-1076q0 -196 -148 -312q-147 -116 -396 -116q-218 0 -356 88z
" />
    <glyph glyph-name="uni0122" unicode="&#x122;" horiz-adv-x="1489" 
d="M511 -500l121 345h256l-160 -345h-217zM1409 606q0 -295 -169 -463q-170 -168 -471 -168q-324 0 -509 200q-186 200 -186 551q0 346 185 544q184 198 503 198q252 0 427 -136t207 -355h-303q-33 113 -120 177q-88 64 -210 64q-179 0 -280 -129t-101 -359q0 -234 106 -369
q105 -135 286 -135q148 0 242 83q93 83 98 217l1 23h-314v220h608v-163z" />
    <glyph glyph-name="uni0123" unicode="&#x123;" horiz-adv-x="1244" 
d="M370 -882l121 345h256l-160 -345h-217zM785 319q68 86 68 233q0 149 -68 237q-68 89 -182 89q-113 0 -180 -88t-67 -237t67 -235q66 -85 180 -85t182 86zM244 -315q-140 89 -151 237h288q14 -54 77 -87q62 -32 149 -32q112 0 178 54q67 54 67 146v197h-6
q-40 -89 -131 -141t-210 -52q-203 0 -324 146q-124 149 -124 401q0 259 122 409q122 151 331 151q117 0 208 -55q89 -53 133 -146h5v188h288v-1076q0 -196 -148 -312q-147 -116 -396 -116q-218 0 -356 88z" />
    <glyph glyph-name="Hcircumflex" unicode="&#x124;" horiz-adv-x="1494" 
d="M1071 0v608h-650v-608h-302v1443h302v-586h650v586h302v-1443h-302zM860 1861l274 -318h-222l-163 197h-6l-163 -197h-222l274 318h228z" />
    <glyph glyph-name="hcircumflex" unicode="&#x125;" horiz-adv-x="1247" 
d="M107 1512h287v-608h6q95 213 356 213q183 0 290 -111t107 -302v-704h-292v643q0 108 -59 170q-60 61 -164 61q-107 0 -173 -69t-66 -180v-625h-292v1512zM366 1930l274 -318h-222l-163 197h-6l-163 -197h-222l274 318h228z" />
    <glyph glyph-name="Hbar" unicode="&#x126;" horiz-adv-x="1536" 
d="M1092 1052h-650v-195h650v195zM1500 1052h-106v-1052h-302v608h-650v-608h-302v1052h-105v211h105v180h302v-180h650v180h302v-180h106v-211z" />
    <glyph glyph-name="hbar" unicode="&#x127;" horiz-adv-x="1291" 
d="M426 919q43 94 137 146q92 52 214 52q182 0 289 -110q108 -111 108 -303v-704h-292v643q0 109 -60 171q-60 61 -163 61q-106 0 -173 -69t-67 -181v-625h-292v1242h-90v150h90v165h287v-165h231v-150h-231v-323h12z" />
    <glyph glyph-name="Itilde" unicode="&#x128;" horiz-adv-x="542" 
d="M120 0v1443h302v-1443h-302zM258 1609q-76 68 -105 68q-67 0 -69 -119h-158q0 126 61 200q59 71 154 71q80 0 157 -67q77 -68 104 -68q63 0 65 122h158q0 -125 -62 -201q-59 -74 -152 -74q-76 0 -153 68z" />
    <glyph glyph-name="itilde" unicode="&#x129;" horiz-adv-x="500" 
d="M104 1101h292v-1101h-292v1101zM239 1326q-76 68 -105 68q-67 0 -69 -119h-158q0 126 61 200q59 71 154 71q80 0 157 -67q77 -68 104 -68q63 0 65 122h158q0 -125 -62 -201q-59 -74 -152 -74q-76 0 -153 68z" />
    <glyph glyph-name="Imacron" unicode="&#x12a;" horiz-adv-x="542" 
d="M120 0v1443h302v-1443h-302zM617 1624h-692v143h692v-143z" />
    <glyph glyph-name="imacron" unicode="&#x12b;" horiz-adv-x="500" 
d="M104 1101h292v-1101h-292v1101zM585 1298h-669v143h669v-143z" />
    <glyph glyph-name="Ibreve" unicode="&#x12c;" horiz-adv-x="542" 
d="M120 0v1443h302v-1443h-302zM96 1860q2 -75 49 -123q49 -49 126 -49t126 49q47 48 49 123h178q-2 -137 -96 -225q-97 -92 -257 -92t-257 92q-94 88 -96 225h178z" />
    <glyph glyph-name="ibreve" unicode="&#x12d;" horiz-adv-x="500" 
d="M104 1101h292v-1101h-292v1101zM70 1570q2 -76 51 -125q50 -50 128 -50q79 0 129 50q48 49 50 125h180q-2 -140 -97 -229q-99 -93 -262 -93q-162 0 -261 93q-95 89 -97 229h179z" />
    <glyph glyph-name="Iogonek" unicode="&#x12e;" horiz-adv-x="542" 
d="M93 -392q-69 62 -69 160q0 148 154 244h-59v1431h302v-1436h-54q-146 -74 -146 -184q0 -49 32 -79t83 -30q28 0 58 5v-155q-51 -17 -122 -17q-110 0 -179 61z" />
    <glyph glyph-name="iogonek" unicode="&#x12f;" horiz-adv-x="500" 
d="M138 1265q-46 44 -46 109t46 109q46 43 111 43q66 0 112 -43q46 -44 46 -109t-46 -109t-112 -44q-65 0 -111 44zM93 -392q-69 62 -69 160q0 154 156 244h-77v1089h292v-1091h-29q-145 -72 -145 -187q0 -49 32 -79t83 -30q34 0 58 5v-155q-49 -17 -122 -17q-110 0 -179 61
z" />
    <glyph glyph-name="Idotaccent" unicode="&#x130;" horiz-adv-x="542" 
d="M119 0v1443h302v-1443h-302zM164 1605q-43 43 -43 105t43 105t106 43t106 -43t43 -105t-43 -105q-43 -44 -106 -44t-106 44z" />
    <glyph glyph-name="dotlessi" unicode="&#x131;" horiz-adv-x="500" 
d="M103 1101h292v-1101h-292v1101z" />
    <glyph glyph-name="IJ" unicode="&#x132;" horiz-adv-x="1685" 
d="M119 0v1443h302v-1443h-302zM865 425q2 -88 54 -141q53 -53 138 -53q194 0 194 223v989h302v-991q0 -229 -131 -356q-129 -126 -362 -126q-221 0 -355 124q-133 124 -133 331h293z" />
    <glyph glyph-name="ij" unicode="&#x133;" horiz-adv-x="1000" 
d="M103 1101h292v-1101h-292v1101zM138 1265q-46 44 -46 109t46 109q46 43 111 43q66 0 112 -43q46 -44 46 -109t-46 -109t-112 -44q-65 0 -111 44zM895 -37q0 -339 -391 -339q-60 0 -78 3v216q6 -1 37 -1q76 0 108 30q32 29 32 98v1131h292v-1138zM638 1265q-46 44 -46 109
t46 109q46 43 111 43q66 0 112 -43q46 -44 46 -109t-46 -109t-112 -44q-65 0 -111 44z" />
    <glyph glyph-name="Jcircumflex" unicode="&#x134;" horiz-adv-x="1143" 
d="M323 425q2 -88 54 -141q53 -53 138 -53q194 0 194 223v989h302v-991q0 -229 -131 -356q-129 -126 -362 -126q-221 0 -355 124q-133 124 -133 331h293zM978 1861l274 -318h-222l-163 197h-6l-163 -197h-222l274 318h228z" />
    <glyph glyph-name="jcircumflex" unicode="&#x135;" horiz-adv-x="499" 
d="M395 -37q0 -339 -390 -339q-60 0 -78 3v216q6 -1 36 -1q76 0 109 30q32 29 32 98v1131h291v-1138zM625 1253h-223l-149 189h-7l-148 -189h-224l266 318h219z" />
    <glyph glyph-name="uni0136" unicode="&#x136;" horiz-adv-x="1353" 
d="M119 0v1443h302v-658h9l542 658h336l-534 -640l571 -803h-361l-428 603l-135 -162v-441h-302zM426 -500l121 345h256l-160 -345h-217z" />
    <glyph glyph-name="uni0137" unicode="&#x137;" horiz-adv-x="1126" 
d="M783 1101h332l-424 -473l444 -628h-336l-322 452l-79 -85v-367h-292v1512h292v-856h4zM345 -500l121 345h256l-160 -345h-217z" />
    <glyph glyph-name="Lacute" unicode="&#x139;" horiz-adv-x="1112" 
d="M151 1553l232 310h273l-277 -310h-228zM1052 0h-933v1443h302v-1193h631v-250z" />
    <glyph glyph-name="lacute" unicode="&#x13a;" horiz-adv-x="505" 
d="M133 1622l232 310h273l-277 -310h-228zM106 1512h292v-1512h-292v1512z" />
    <glyph glyph-name="uni013B" unicode="&#x13b;" horiz-adv-x="1112" 
d="M337 -500l121 345h256l-160 -345h-217zM1052 0h-933v1443h302v-1193h631v-250z" />
    <glyph glyph-name="uni013C" unicode="&#x13c;" horiz-adv-x="505" 
d="M14 -500l121 345h256l-160 -345h-217zM107 1512h292v-1512h-292v1512z" />
    <glyph glyph-name="Lcaron" unicode="&#x13d;" horiz-adv-x="1112" 
d="M920 1443l-50 -503h-196v503h246zM1052 0h-933v1443h302v-1193h631v-250z" />
    <glyph glyph-name="lcaron" unicode="&#x13e;" horiz-adv-x="714" 
d="M767 1507l-40 -503h-176v503h216zM106 1512h292v-1512h-292v1512z" />
    <glyph glyph-name="Lslash" unicode="&#x141;" horiz-adv-x="1128" 
d="M1068 250v-250h-933v638l-97 -49v199l97 49v606h302v-454l293 148v-200l-293 -147v-540h631z" />
    <glyph glyph-name="lslash" unicode="&#x142;" horiz-adv-x="549" 
d="M537 882l-138 -72v-810h-292v658l-99 -52v200l99 51v655h292v-503l138 72v-199z" />
    <glyph glyph-name="Nacute" unicode="&#x143;" horiz-adv-x="1463" 
d="M612 1553l232 310h273l-277 -310h-228zM119 0v1443h252l674 -940h8v940h289v-1443h-250l-675 945h-9v-945h-289z" />
    <glyph glyph-name="nacute" unicode="&#x144;" horiz-adv-x="1227" 
d="M495 1263l221 310h273l-263 -310h-231zM98 1101h282v-197h6q97 213 354 213q183 0 288 -109q104 -109 104 -302v-706h-292v645q0 110 -56 169q-57 60 -160 60q-105 0 -169 -68q-65 -68 -65 -178v-628h-292v1101z" />
    <glyph glyph-name="uni0145" unicode="&#x145;" horiz-adv-x="1463" 
d="M492 -500l121 345h256l-160 -345h-217zM119 0v1443h252l674 -940h8v940h289v-1443h-250l-675 945h-9v-945h-289z" />
    <glyph glyph-name="uni0146" unicode="&#x146;" horiz-adv-x="1227" 
d="M375 -500l121 345h256l-160 -345h-217zM98 1101h282v-197h6q97 213 354 213q183 0 288 -109q104 -109 104 -302v-706h-292v645q0 110 -56 169q-57 60 -160 60q-105 0 -169 -68q-65 -68 -65 -178v-628h-292v1101z" />
    <glyph glyph-name="Ncaron" unicode="&#x147;" horiz-adv-x="1463" 
d="M343 1861h222l163 -197h6l163 197h222l-274 -318h-228zM119 0v1443h252l674 -940h8v940h289v-1443h-250l-675 945h-9v-945h-289z" />
    <glyph glyph-name="ncaron" unicode="&#x148;" horiz-adv-x="1227" 
d="M504 1253l-266 318h224l148 -188h7l149 188h223l-266 -318h-219zM98 1101h282v-197h6q97 213 354 213q183 0 288 -109q104 -109 104 -302v-706h-292v645q0 110 -56 169q-57 60 -160 60q-105 0 -169 -68q-65 -68 -65 -178v-628h-292v1101z" />
    <glyph glyph-name="Omacron" unicode="&#x14c;" horiz-adv-x="1541" 
d="M1278 1267q188 -201 188 -546q0 -344 -188 -545t-508 -201q-321 0 -508 201q-188 201 -188 545q0 345 188 546q187 201 508 201t508 -201zM488 1082q-106 -134 -106 -361q0 -226 105 -360q105 -133 283 -133q177 0 282 133q105 134 105 360q0 227 -105 361t-282 134
t-282 -134zM1116 1624h-692v143h692v-143z" />
    <glyph glyph-name="omacron" unicode="&#x14d;" horiz-adv-x="1201" 
d="M935 1298h-669v143h669v-143zM203 133q-146 152 -146 418q0 263 147 417q147 152 396 152q250 0 396 -152q147 -153 147 -417q0 -267 -146 -419q-145 -151 -397 -151q-251 0 -397 152zM781 296q65 91 65 255q0 162 -66 254q-65 91 -180 91q-116 0 -181 -91
q-66 -92 -66 -254q0 -164 66 -255q65 -90 181 -90t181 90z" />
    <glyph glyph-name="Obreve" unicode="&#x14e;" horiz-adv-x="1541" 
d="M1278 1267q188 -201 188 -546q0 -344 -188 -545t-508 -201q-321 0 -508 201q-188 201 -188 545q0 345 188 546q187 201 508 201t508 -201zM488 1082q-106 -134 -106 -361q0 -226 105 -360q105 -133 283 -133q177 0 282 133q105 134 105 360q0 227 -105 361t-282 134
t-282 -134zM595 1860q2 -75 49 -123q49 -49 126 -49t126 49q47 48 49 123h178q-2 -137 -96 -225q-97 -92 -257 -92t-257 92q-94 88 -96 225h178z" />
    <glyph glyph-name="obreve" unicode="&#x14f;" horiz-adv-x="1201" 
d="M420 1570q2 -76 51 -125q50 -50 128 -50q79 0 129 50q48 49 50 125h180q-2 -140 -97 -229q-99 -93 -262 -93q-162 0 -261 93q-95 89 -97 229h179zM203 133q-146 152 -146 418q0 263 147 417q147 152 396 152q250 0 396 -152q147 -153 147 -417q0 -267 -146 -419
q-145 -151 -397 -151q-251 0 -397 152zM781 296q65 91 65 255q0 162 -66 254q-65 91 -180 91q-116 0 -181 -91q-66 -92 -66 -254q0 -164 66 -255q65 -90 181 -90t181 90z" />
    <glyph glyph-name="Ohungarumlaut" unicode="&#x150;" horiz-adv-x="1541" 
d="M853 1553l232 310h268l-278 -310h-222zM458 1553l231 310h269l-278 -310h-222zM1278 1267q188 -201 188 -546q0 -344 -188 -545t-508 -201q-321 0 -508 201q-188 201 -188 545q0 345 188 546q187 201 508 201t508 -201zM488 1082q-106 -134 -106 -361q0 -226 105 -360
q105 -133 283 -133q177 0 282 133q105 134 105 360q0 227 -105 361t-282 134t-282 -134z" />
    <glyph glyph-name="ohungarumlaut" unicode="&#x151;" horiz-adv-x="1201" 
d="M864 1573h252l-233 -310h-208zM494 1573h251l-233 -310h-208zM203 133q-146 152 -146 418q0 263 147 417q147 152 396 152q250 0 396 -152q147 -153 147 -417q0 -267 -146 -419q-145 -151 -397 -151q-251 0 -397 152zM781 296q65 91 65 255q0 162 -66 254q-65 91 -180 91
q-116 0 -181 -91q-66 -92 -66 -254q0 -164 66 -255q65 -90 181 -90t181 90z" />
    <glyph glyph-name="OE" unicode="&#x152;" horiz-adv-x="2216" 
d="M493 1084q-106 -136 -106 -363q0 -226 106 -361t285 -135t285 135t106 361q0 227 -107 363q-106 135 -284 135t-285 -135zM1202 236q-54 -121 -183 -194q-130 -74 -289 -74q-290 0 -470 207q-181 209 -181 546q0 339 182 547q181 207 473 207q159 0 282 -71t186 -200v239
h916v-249h-644v-348h606v-232h-606v-364h644v-250h-916v236z" />
    <glyph glyph-name="oe" unicode="&#x153;" horiz-adv-x="1944" 
d="M999 177h-14q-133 -196 -395 -196q-244 0 -388 154q-145 154 -145 413q0 260 145 416q144 156 385 156q265 0 398 -197h14q56 92 160 144q104 53 229 53q225 0 362 -150q136 -150 136 -397v-90h-750v-27q0 -115 71 -186t186 -71q81 0 139 34q58 35 76 93h269
q-23 -151 -157 -248t-320 -97q-281 0 -401 196zM1601 664q-4 108 -66 174q-62 65 -161 65q-100 0 -166 -67q-66 -66 -72 -172h465zM411 301q64 -89 179 -89q116 0 180 89q65 89 65 249t-65 250t-180 90t-179 -91q-65 -90 -65 -250q0 -159 65 -248z" />
    <glyph glyph-name="Racute" unicode="&#x154;" horiz-adv-x="1316" 
d="M496 1553l232 310h273l-277 -310h-228zM421 747h265q114 0 178 61q63 61 63 169q0 105 -66 168q-66 62 -178 62h-262v-460zM421 0h-302v1443h596q247 0 386 -123q136 -122 136 -337q0 -141 -69 -250q-70 -112 -193 -160l304 -573h-342l-269 528h-247v-528z" />
    <glyph glyph-name="racute" unicode="&#x155;" horiz-adv-x="759" 
d="M283 1263l221 310h273l-263 -310h-231zM98 1101h282v-197h6q57 210 262 210q49 0 82 -11v-259q-39 18 -105 18q-111 0 -173 -65t-62 -181v-616h-292v1101z" />
    <glyph glyph-name="uni0156" unicode="&#x156;" horiz-adv-x="1316" 
d="M421 747h265q114 0 178 61q63 61 63 169q0 105 -66 168q-66 62 -178 62h-262v-460zM421 0h-302v1443h596q247 0 386 -123q136 -122 136 -337q0 -141 -69 -250q-70 -112 -193 -160l304 -573h-342l-269 528h-247v-528zM376 -500l121 345h256l-160 -345h-217z" />
    <glyph glyph-name="uni0157" unicode="&#x157;" horiz-adv-x="759" 
d="M99 1101h282v-197h6q57 210 262 210q49 0 82 -11v-259q-39 18 -105 18q-111 0 -173 -65t-62 -181v-616h-292v1101zM8 -500l121 345h256l-160 -345h-217z" />
    <glyph glyph-name="Rcaron" unicode="&#x158;" horiz-adv-x="1316" 
d="M421 747h265q114 0 178 61q63 61 63 169q0 105 -66 168q-66 62 -178 62h-262v-460zM421 0h-302v1443h596q247 0 386 -123q136 -122 136 -337q0 -141 -69 -250q-70 -112 -193 -160l304 -573h-342l-269 528h-247v-528zM227 1861h222l163 -197h6l163 197h222l-274 -318h-228
z" />
    <glyph glyph-name="rcaron" unicode="&#x159;" horiz-adv-x="759" 
d="M292 1253l-266 318h224l148 -188h7l149 188h223l-266 -318h-219zM98 1101h282v-197h6q57 210 262 210q49 0 82 -11v-259q-39 18 -105 18q-111 0 -173 -65t-62 -181v-616h-292v1101z" />
    <glyph glyph-name="Sacute" unicode="&#x15a;" horiz-adv-x="1293" 
d="M534 1553l232 310h273l-277 -310h-228zM356 411q10 -88 94 -143q83 -54 204 -54q120 0 196 52q75 51 75 131q0 70 -56 113t-187 72l-188 41q-397 85 -397 403q0 198 155 321q154 121 397 121q250 0 400 -119q148 -118 152 -315h-283q-7 91 -81 144q-73 52 -187 52
q-112 0 -180 -49q-69 -49 -69 -129q0 -66 56 -108q55 -40 180 -69l175 -37q217 -46 316 -144q99 -97 99 -262q0 -210 -158 -333q-158 -124 -427 -124q-261 0 -415 116q-155 117 -162 320h291z" />
    <glyph glyph-name="sacute" unicode="&#x15b;" horiz-adv-x="1078" 
d="M205 1026q126 94 335 94q204 0 329 -96q125 -95 128 -253h-270q-5 65 -56 104q-51 38 -135 38q-79 0 -127 -32q-48 -33 -48 -86q0 -81 147 -115l207 -45q166 -38 237 -107q72 -69 72 -192q0 -160 -134 -258q-134 -97 -351 -97q-215 0 -347 97q-129 94 -140 255h285
q22 -145 210 -145q87 0 137 32q50 31 50 85q0 43 -31 68q-32 25 -107 43l-203 46q-314 71 -314 315q0 155 126 249zM423 1263l221 310h273l-263 -310h-231z" />
    <glyph glyph-name="Scircumflex" unicode="&#x15c;" horiz-adv-x="1293" 
d="M356 411q10 -88 94 -143q83 -54 204 -54q120 0 196 52q75 51 75 131q0 70 -56 113t-187 72l-188 41q-397 85 -397 403q0 198 155 321q154 121 397 121q250 0 400 -119q148 -118 152 -315h-283q-7 91 -81 144q-73 52 -187 52q-112 0 -180 -49q-69 -49 -69 -129
q0 -66 56 -108q55 -40 180 -69l175 -37q217 -46 316 -144q99 -97 99 -262q0 -210 -158 -333q-158 -124 -427 -124q-261 0 -415 116q-155 117 -162 320h291zM767 1861l274 -318h-222l-163 197h-6l-163 -197h-222l274 318h228z" />
    <glyph glyph-name="scircumflex" unicode="&#x15d;" horiz-adv-x="1078" 
d="M917 1253h-223l-149 189h-7l-148 -189h-224l266 318h219zM205 1026q126 94 335 94q204 0 329 -96q125 -95 128 -253h-270q-5 65 -56 104q-51 38 -135 38q-79 0 -127 -32q-48 -33 -48 -86q0 -81 147 -115l207 -45q166 -38 237 -107q72 -69 72 -192q0 -160 -134 -258
q-134 -97 -351 -97q-215 0 -347 97q-129 94 -140 255h285q22 -145 210 -145q87 0 137 32q50 31 50 85q0 43 -31 68q-32 25 -107 43l-203 46q-314 71 -314 315q0 155 126 249z" />
    <glyph glyph-name="Scedilla" unicode="&#x15e;" horiz-adv-x="1293" 
d="M812 838q217 -46 316 -144q99 -97 99 -262q0 -192 -134 -313q-133 -120 -365 -140l-40 -95q88 0 136 -42q49 -41 49 -117q0 -86 -64 -136q-64 -49 -177 -50q-88 0 -140 16v120q40 -14 111 -14q107 0 107 55q0 31 -29 43q-28 13 -96 13h-56v101l47 104q-233 15 -368 130
q-137 115 -143 304h291q10 -88 94 -143q83 -54 204 -54q120 0 196 52q75 51 75 131q0 70 -56 113t-187 72l-188 41q-397 85 -397 403q0 198 155 321q154 121 397 121q250 0 400 -119q148 -118 152 -315h-283q-7 91 -81 144q-73 52 -187 52q-112 0 -180 -49q-69 -49 -69 -129
q0 -66 56 -108q55 -40 180 -69z" />
    <glyph glyph-name="scedilla" unicode="&#x15f;" horiz-adv-x="1078" 
d="M715 635q166 -38 237 -107q72 -69 72 -192q0 -144 -110 -238q-109 -94 -292 -113l-43 -101q88 0 136 -42q49 -41 49 -117q0 -86 -64 -136q-64 -49 -177 -50q-88 0 -140 16v120q40 -14 111 -14q107 0 107 55q0 31 -29 43q-28 13 -96 13h-56v101l50 111q-186 15 -297 109
q-110 93 -121 240h285q22 -145 210 -145q87 0 137 32q50 31 50 85q0 43 -31 68q-32 25 -107 43l-203 46q-314 71 -314 315q0 155 126 249t335 94q204 0 329 -96q125 -95 128 -253h-270q-5 65 -56 104q-51 38 -135 38q-79 0 -127 -32q-48 -33 -48 -86q0 -81 147 -115z" />
    <glyph glyph-name="Scaron" unicode="&#x160;" horiz-adv-x="1293" 
d="M356 411q10 -88 94 -143q83 -54 204 -54q120 0 196 52q75 51 75 131q0 70 -56 113t-187 72l-188 41q-397 85 -397 403q0 198 155 321q154 121 397 121q250 0 400 -119q148 -118 152 -315h-283q-7 91 -81 144q-73 52 -187 52q-112 0 -180 -49q-69 -49 -69 -129
q0 -66 56 -108q55 -40 180 -69l175 -37q217 -46 316 -144q99 -97 99 -262q0 -210 -158 -333q-158 -124 -427 -124q-261 0 -415 116q-155 117 -162 320h291zM265 1861h222l163 -197h6l163 197h222l-274 -318h-228z" />
    <glyph glyph-name="scaron" unicode="&#x161;" horiz-adv-x="1078" 
d="M432 1253l-266 318h224l148 -188h7l149 188h223l-266 -318h-219zM205 1026q126 94 335 94q204 0 329 -96q125 -95 128 -253h-270q-5 65 -56 104q-51 38 -135 38q-79 0 -127 -32q-48 -33 -48 -86q0 -81 147 -115l207 -45q166 -38 237 -107q72 -69 72 -192
q0 -160 -134 -258q-134 -97 -351 -97q-215 0 -347 97q-129 94 -140 255h285q22 -145 210 -145q87 0 137 32q50 31 50 85q0 43 -31 68q-32 25 -107 43l-203 46q-314 71 -314 315q0 155 126 249z" />
    <glyph glyph-name="uni0162" unicode="&#x162;" horiz-adv-x="1242" 
d="M712 0l-49 -116q88 0 136 -42q49 -41 49 -117q0 -86 -64 -136q-64 -49 -177 -50q-88 0 -140 16v120q40 -14 111 -14q107 0 107 55q0 31 -29 43q-28 13 -96 13h-56v101l58 127h-93v1194h-422v249h1147v-249h-423v-1194h-59z" />
    <glyph glyph-name="uni0163" unicode="&#x163;" horiz-adv-x="741" 
d="M468 880v-535q0 -126 131 -126q43 0 73 5v-216q-60 -12 -141 -12h-8l-47 -112q88 0 136 -42q49 -41 49 -117q0 -86 -64 -136q-64 -49 -177 -50q-88 0 -140 16v120q40 -14 111 -14q107 0 107 55q0 31 -29 43q-28 13 -96 13h-56v101l62 137q-107 24 -155 93q-48 68 -48 194
v583h-149v221h149v245h292v-245h204v-221h-204z" />
    <glyph glyph-name="Tcaron" unicode="&#x164;" horiz-adv-x="1242" 
d="M232 1861h222l163 -197h6l163 197h222l-274 -318h-228zM469 0v1194h-422v249h1147v-249h-423v-1194h-302z" />
    <glyph glyph-name="tcaron" unicode="&#x165;" horiz-adv-x="835" 
d="M834 1744l-40 -503h-177v503h217zM468 1346v-245h204v-221h-204v-535q0 -126 131 -126q43 0 73 5v-216q-60 -12 -141 -12q-191 0 -273 70t-82 231v583h-149v221h149v245h292z" />
    <glyph glyph-name="Tbar" unicode="&#x166;" horiz-adv-x="1298" 
d="M781 1194v-394h301v-211h-301v-589h-302v589h-265v211h265v394h-422v249h1147v-249h-423z" />
    <glyph glyph-name="tbar" unicode="&#x167;" horiz-adv-x="792" 
d="M468 493v-148q0 -126 131 -126q43 0 73 5v-216q-60 -12 -141 -12q-191 0 -273 70t-82 231v196h-139v160h139v227h-149v221h149v245h292v-245h204v-221h-204v-227h232v-160h-232z" />
    <glyph glyph-name="Utilde" unicode="&#x168;" horiz-adv-x="1449" 
d="M421 540q0 -141 79 -222q80 -84 224 -84q143 0 223 84q79 81 79 222v903h302v-933q0 -240 -164 -387q-165 -148 -440 -148q-276 0 -441 148q-164 147 -164 387v933h302v-903zM711 1609q-76 68 -105 68q-67 0 -69 -119h-158q0 126 61 200q59 71 154 71q80 0 157 -67
q77 -68 104 -68q63 0 65 122h158q0 -125 -62 -201q-59 -74 -152 -74q-76 0 -153 68z" />
    <glyph glyph-name="utilde" unicode="&#x169;" horiz-adv-x="1227" 
d="M1127 0h-282v199h-6q-87 -215 -346 -215q-181 0 -289 110q-111 111 -111 301v706h292v-645q0 -110 59 -170q57 -59 160 -59t167 68t64 179v627h292v-1101zM600 1326q-76 68 -105 68q-67 0 -69 -119h-158q0 126 61 200q59 71 154 71q80 0 157 -67q77 -68 104 -68
q63 0 65 122h158q0 -125 -62 -201q-59 -74 -152 -74q-76 0 -153 68z" />
    <glyph glyph-name="Umacron" unicode="&#x16a;" horiz-adv-x="1449" 
d="M421 540q0 -141 79 -222q80 -84 224 -84q143 0 223 84q79 81 79 222v903h302v-933q0 -240 -164 -387q-165 -148 -440 -148q-276 0 -441 148q-164 147 -164 387v933h302v-903zM1070 1624h-692v143h692v-143z" />
    <glyph glyph-name="umacron" unicode="&#x16b;" horiz-adv-x="1227" 
d="M1127 0h-282v199h-6q-87 -215 -346 -215q-181 0 -289 110q-111 111 -111 301v706h292v-645q0 -110 59 -170q57 -59 160 -59t167 68t64 179v627h292v-1101zM946 1298h-669v143h669v-143z" />
    <glyph glyph-name="Ubreve" unicode="&#x16c;" horiz-adv-x="1449" 
d="M421 540q0 -141 79 -222q80 -84 224 -84q143 0 223 84q79 81 79 222v903h302v-933q0 -240 -164 -387q-165 -148 -440 -148q-276 0 -441 148q-164 147 -164 387v933h302v-903zM549 1860q2 -75 49 -123q49 -49 126 -49t126 49q47 48 49 123h178q-2 -137 -96 -225
q-97 -92 -257 -92t-257 92q-94 88 -96 225h178z" />
    <glyph glyph-name="ubreve" unicode="&#x16d;" horiz-adv-x="1227" 
d="M1127 0h-282v199h-6q-87 -215 -346 -215q-181 0 -289 110q-111 111 -111 301v706h292v-645q0 -110 59 -170q57 -59 160 -59t167 68t64 179v627h292v-1101zM431 1570q2 -76 51 -125q50 -50 128 -50q79 0 129 50q48 49 50 125h180q-2 -140 -97 -229q-99 -93 -262 -93
q-162 0 -261 93q-95 89 -97 229h179z" />
    <glyph glyph-name="Uring" unicode="&#x16e;" horiz-adv-x="1449" 
d="M569 1577q-66 64 -66 153t66 153q65 64 155 64q91 0 156 -64t65 -153t-65 -153t-156 -64q-90 0 -155 64zM796 1659q30 30 30 71t-30 71t-72 30q-41 0 -72 -30q-30 -30 -30 -71t30 -71q31 -29 72 -29q42 0 72 29zM421 540q0 -141 79 -222q80 -84 224 -84q143 0 223 84
q79 81 79 222v903h302v-933q0 -240 -164 -387q-165 -148 -440 -148q-276 0 -441 148q-164 147 -164 387v933h302v-903z" />
    <glyph glyph-name="uring" unicode="&#x16f;" horiz-adv-x="1227" 
d="M1127 0h-282v199h-6q-87 -215 -346 -215q-181 0 -289 110q-111 111 -111 301v706h292v-645q0 -110 59 -170q57 -59 160 -59t167 68t64 179v627h292v-1101zM456 1274q-66 64 -66 153t66 153q65 64 155 64q91 0 156 -64t65 -153t-65 -153t-156 -64q-90 0 -155 64zM683 1356
q30 30 30 71t-30 71t-72 30q-41 0 -72 -30q-30 -30 -30 -71t30 -71q31 -29 72 -29q42 0 72 29z" />
    <glyph glyph-name="Uhungarumlaut" unicode="&#x170;" horiz-adv-x="1449" 
d="M421 540q0 -141 79 -222q80 -84 224 -84q143 0 223 84q79 81 79 222v903h302v-933q0 -240 -164 -387q-165 -148 -440 -148q-276 0 -441 148q-164 147 -164 387v933h302v-903zM807 1553l232 310h268l-278 -310h-222zM412 1553l231 310h269l-278 -310h-222z" />
    <glyph glyph-name="uhungarumlaut" unicode="&#x171;" horiz-adv-x="1227" 
d="M875 1573h252l-233 -310h-208zM505 1573h251l-233 -310h-208zM1127 0h-282v199h-6q-87 -215 -346 -215q-181 0 -289 110q-111 111 -111 301v706h292v-645q0 -110 59 -170q57 -59 160 -59t167 68t64 179v627h292v-1101z" />
    <glyph glyph-name="Uogonek" unicode="&#x172;" horiz-adv-x="1449" 
d="M766 -398q-69 58 -69 151q0 134 124 231v2q-38 -11 -97 -11q-274 0 -439 146q-166 147 -166 389v933h302v-903q0 -143 81 -225q81 -81 222 -81t222 81q80 82 80 225v903h302v-933q0 -256 -217 -435q-151 -123 -149 -122q-68 -66 -68 -138q0 -45 33 -74t85 -29q34 0 69 7
v-155q-55 -20 -134 -20q-112 0 -181 58z" />
    <glyph glyph-name="uogonek" unicode="&#x173;" horiz-adv-x="1227" 
d="M1127 -436q-49 -17 -122 -17q-110 0 -179 61q-69 62 -69 160q0 150 160 244h-72v187h-6q-87 -215 -346 -215q-182 0 -291 112t-109 299v706h292v-645q0 -109 58 -169q57 -60 161 -60q103 0 167 68q64 69 64 179v627h292v-1091h-29q-144 -73 -144 -187q0 -49 32 -79
t83 -30q28 0 58 5v-155z" />
    <glyph glyph-name="Wcircumflex" unicode="&#x174;" horiz-adv-x="1977" 
d="M1102 1861l274 -318h-222l-163 197h-6l-163 -197h-222l274 318h228zM709 0h-285l-382 1443h313l227 -1045h8l270 1045h255l270 -1045h8l228 1045h313l-383 -1443h-285l-274 986h-9z" />
    <glyph glyph-name="wcircumflex" unicode="&#x175;" horiz-adv-x="1654" 
d="M1201 1253h-223l-149 189h-7l-148 -189h-224l266 318h219zM1340 0h-310l-203 784h-6l-201 -784h-307l-294 1101h294l170 -822h6l199 822h280l200 -822h6l171 822h288z" />
    <glyph glyph-name="Ycircumflex" unicode="&#x176;" horiz-adv-x="1362" 
d="M529 0v539l-502 904h329l323 -616h7l324 616h324l-503 -904v-539h-302zM794 1861l274 -318h-222l-163 197h-6l-163 -197h-222l274 318h228z" />
    <glyph glyph-name="ycircumflex" unicode="&#x177;" horiz-adv-x="1136" 
d="M128 -398v226q15 -3 66 -3q162 0 195 126l10 42l-386 1108h320l238 -864h6l239 864h308l-381 -1123q-70 -210 -184 -295q-113 -85 -320 -85q-89 0 -111 4zM944 1253h-223l-149 189h-7l-148 -189h-224l266 318h219z" />
    <glyph glyph-name="Ydieresis" unicode="&#x178;" horiz-adv-x="1362" 
d="M529 0v539l-502 904h329l323 -616h7l324 616h324l-503 -904v-539h-302zM375 1600q-39 38 -39 92t39 93q39 38 96 38t96 -38q39 -39 39 -93t-39 -92q-39 -39 -96 -39t-96 39zM794 1600q-39 38 -39 92t39 93q39 38 96 38t96 -38q39 -39 39 -93t-39 -92q-39 -39 -96 -39
t-96 39z" />
    <glyph glyph-name="Zacute" unicode="&#x179;" horiz-adv-x="1292" 
d="M526 1553l232 310h273l-277 -310h-228zM88 197l733 989v8h-716v249h1077v-196l-730 -990v-7h750v-250h-1114v197z" />
    <glyph glyph-name="zacute" unicode="&#x17a;" horiz-adv-x="1059" 
d="M410 1263l221 310h273l-263 -310h-231zM77 168l553 704v5h-545v224h883v-186l-521 -685v-6h534v-224h-904v168z" />
    <glyph glyph-name="Zdotaccent" unicode="&#x17b;" horiz-adv-x="1292" 
d="M539 1605q-43 43 -43 105t43 105t106 43t106 -43t43 -105t-43 -105q-43 -44 -106 -44t-106 44zM88 197l733 989v8h-716v249h1077v-196l-730 -990v-7h750v-250h-1114v197z" />
    <glyph glyph-name="zdotaccent" unicode="&#x17c;" horiz-adv-x="1059" 
d="M421 1307q-44 43 -44 104q0 62 44 105q44 44 107 44t107 -44q43 -43 43 -105q0 -61 -43 -104q-44 -44 -107 -44t-107 44zM77 168l553 704v5h-545v224h883v-186l-521 -685v-6h534v-224h-904v168z" />
    <glyph glyph-name="Zcaron" unicode="&#x17d;" horiz-adv-x="1292" 
d="M88 197l733 989v8h-716v249h1077v-196l-730 -990v-7h750v-250h-1114v197zM257 1861h222l163 -197h6l163 197h222l-274 -318h-228z" />
    <glyph glyph-name="zcaron" unicode="&#x17e;" horiz-adv-x="1059" 
d="M419 1253l-266 318h224l148 -188h7l149 188h223l-266 -318h-219zM77 168l553 704v5h-545v224h883v-186l-521 -685v-6h534v-224h-904v168z" />
    <glyph glyph-name="florin" unicode="&#x192;" horiz-adv-x="1326" 
d="M1259 1190q-74 36 -169 36q-199 0 -230 -198l-24 -156h350v-210h-382l-43 -278q-64 -408 -479 -408q-134 0 -216 40v239q79 -43 179 -43t151 48t68 157l38 245h-318v210h350l29 187q32 205 152 303q121 98 341 98q126 0 203 -36v-234z" />
    <glyph glyph-name="Ohorn" unicode="&#x1a0;" horiz-adv-x="1593" 
d="M488 1082q-106 -134 -106 -361q0 -226 105 -360q105 -133 283 -133q177 0 282 133q105 134 105 360q0 227 -105 361t-282 134t-282 -134zM1277 176q-189 -201 -508 -201q-320 0 -507 202q-188 202 -188 545t186 544q186 202 503 202q162 0 316 -71q153 -71 197 -71
q93 0 93 128v181h231v-270q0 -102 -46 -162t-123 -60q-41 0 -61 10l-4 -5q100 -184 100 -431q0 -340 -189 -541z" />
    <glyph glyph-name="ohorn" unicode="&#x1a1;" horiz-adv-x="1326" 
d="M781 297q65 91 65 254q0 162 -65 254q-65 91 -181 91q-115 0 -181 -92t-66 -253q0 -163 65 -254q66 -91 182 -91t181 91zM998 132q-146 -151 -400 -151q-250 0 -396 152q-145 152 -145 413q0 262 144 418q145 156 387 156q151 0 288 -74q137 -75 167 -75q91 0 91 129v144
h222v-201q0 -122 -62 -195q-63 -72 -168 -72q-6 0 -18 2l-3 -2q-2 -3 -3 -3q41 -105 41 -227q0 -263 -145 -414z" />
    <glyph glyph-name="Uhorn" unicode="&#x1af;" horiz-adv-x="1657" 
d="M1330 1389q42 -22 80 -16q70 6 70 123v147h223v-204q0 -130 -71 -203q-71 -74 -196 -74q-80 0 -108 22v-674q0 -242 -165 -389q-165 -146 -439 -146t-439 146q-166 147 -166 389v933h302v-903q0 -142 81 -224q81 -81 222 -81t222 81q80 81 80 224v903h304v-54z" />
    <glyph glyph-name="uhorn" unicode="&#x1b0;" horiz-adv-x="1465" 
d="M839 199q-87 -215 -346 -215q-182 0 -291 112t-109 299v706h292v-645q0 -109 57 -169q58 -60 162 -60q103 0 167 68q64 69 64 179v627h292v-50q45 -17 78 -9q37 4 52 31q16 27 16 89v147h222v-200q0 -134 -66 -207q-66 -72 -188 -72q-85 0 -114 19v-849h-282v199h-6z" />
    <glyph glyph-name="uni01C4" unicode="&#x1c4;" horiz-adv-x="2730" 
d="M675 1443q326 0 506 -186q182 -188 182 -530q0 -343 -182 -535q-181 -192 -506 -192h-556v1443h556zM421 250h218q203 0 309 121q107 122 107 355q0 226 -108 347t-308 121h-218v-944zM1526 197l733 989v8h-716v249h1077v-196l-730 -990v-7h750v-250h-1114v197z
M1695 1861h222l163 -197h6l163 197h222l-274 -318h-228z" />
    <glyph glyph-name="uni01C5" unicode="&#x1c5;" horiz-adv-x="2497" 
d="M675 1443q326 0 506 -186q182 -188 182 -530q0 -343 -182 -535q-181 -192 -506 -192h-556v1443h556zM421 250h218q203 0 309 121q107 122 107 355q0 226 -108 347t-308 121h-218v-944zM1857 1253l-266 318h224l148 -188h7l149 188h223l-266 -318h-219zM1515 168l553 704
v5h-545v224h883v-186l-521 -685v-6h534v-224h-904v168z" />
    <glyph glyph-name="uni01C6" unicode="&#x1c6;" horiz-adv-x="2308" 
d="M180 139q-123 153 -123 413q0 258 123 410t329 152q118 0 208 -55q87 -53 129 -146h6v599h292v-1512h-288v188h-5q-41 -92 -131 -146q-92 -55 -212 -55q-206 0 -328 152zM424 790q-68 -89 -68 -239q0 -151 68 -240q67 -88 181 -88q113 0 181 89t68 238t-68 239
q-68 89 -181 89q-114 0 -181 -88zM1668 1253l-266 318h224l148 -188h7l149 188h223l-266 -318h-219zM1326 168l553 704v5h-545v224h883v-186l-521 -685v-6h534v-224h-904v168z" />
    <glyph glyph-name="uni01C7" unicode="&#x1c7;" horiz-adv-x="2255" 
d="M1435 425q2 -88 54 -141q53 -53 138 -53q194 0 194 223v989h302v-991q0 -229 -131 -356q-129 -126 -362 -126q-221 0 -355 124q-133 124 -133 331h293zM1052 0h-933v1443h302v-1193h631v-250z" />
    <glyph glyph-name="uni01C8" unicode="&#x1c8;" horiz-adv-x="1612" 
d="M1507 -37q0 -339 -391 -339q-60 0 -78 3v216q6 -1 37 -1q76 0 108 30q32 29 32 98v1131h292v-1138zM1250 1265q-46 44 -46 109t46 109q46 43 111 43q66 0 112 -43q46 -44 46 -109t-46 -109t-112 -44q-65 0 -111 44zM1052 0h-933v1443h302v-1193h631v-250z" />
    <glyph glyph-name="uni01C9" unicode="&#x1c9;" horiz-adv-x="1005" 
d="M900 -37q0 -339 -391 -339q-60 0 -78 3v216q6 -1 37 -1q76 0 108 30q32 29 32 98v1131h292v-1138zM643 1265q-46 44 -46 109t46 109q46 43 111 43q66 0 112 -43q46 -44 46 -109t-46 -109t-112 -44q-65 0 -111 44zM106 1512h292v-1512h-292v1512z" />
    <glyph glyph-name="uni01CA" unicode="&#x1ca;" horiz-adv-x="2606" 
d="M1786 425q2 -88 54 -141q53 -53 138 -53q194 0 194 223v989h302v-991q0 -229 -131 -356q-129 -126 -362 -126q-221 0 -355 124q-133 124 -133 331h293zM119 0v1443h252l674 -940h8v940h289v-1443h-250l-675 945h-9v-945h-289z" />
    <glyph glyph-name="uni01CB" unicode="&#x1cb;" horiz-adv-x="1963" 
d="M1858 -37q0 -339 -391 -339q-60 0 -78 3v216q6 -1 37 -1q76 0 108 30q32 29 32 98v1131h292v-1138zM1601 1265q-46 44 -46 109t46 109q46 43 111 43q66 0 112 -43q46 -44 46 -109t-46 -109t-112 -44q-65 0 -111 44zM119 0v1443h252l674 -940h8v940h289v-1443h-250
l-675 945h-9v-945h-289z" />
    <glyph glyph-name="uni01CC" unicode="&#x1cc;" horiz-adv-x="1727" 
d="M1622 -37q0 -339 -391 -339q-60 0 -78 3v216q6 -1 37 -1q76 0 108 30q32 29 32 98v1131h292v-1138zM1365 1265q-46 44 -46 109t46 109q46 43 111 43q66 0 112 -43q46 -44 46 -109t-46 -109t-112 -44q-65 0 -111 44zM98 1101h282v-197h6q97 213 354 213q183 0 288 -109
q104 -109 104 -302v-706h-292v645q0 110 -56 169q-57 60 -160 60q-105 0 -169 -68q-65 -68 -65 -178v-628h-292v1101z" />
    <glyph glyph-name="uni01CD" unicode="&#x1cd;" horiz-adv-x="1413" 
d="M954 350h-507l-110 -350h-310l501 1443h355l502 -1443h-321zM512 576h377l-185 591h-7zM318 1861h222l163 -197h6l163 197h222l-274 -318h-228z" />
    <glyph glyph-name="uni01CE" unicode="&#x1ce;" horiz-adv-x="1147" 
d="M691 257q71 58 71 147v81l-231 -16q-187 -12 -187 -137q0 -61 48 -96q47 -36 127 -36q103 0 172 57zM159 78q-106 93 -106 239q0 149 112 234q110 83 322 96l275 17v73q0 79 -51 122q-51 42 -142 42q-78 0 -131 -38q-52 -37 -63 -98h-267q6 158 136 256q131 99 337 99
q212 0 340 -100t128 -265v-755h-282v170h-6q-44 -85 -138 -135q-91 -48 -199 -48q-161 0 -265 91zM467 1253l-266 318h224l148 -188h7l149 188h223l-266 -318h-219z" />
    <glyph glyph-name="uni01CF" unicode="&#x1cf;" horiz-adv-x="542" 
d="M120 0v1443h302v-1443h-302zM-117 1861h222l163 -197h6l163 197h222l-274 -318h-228z" />
    <glyph glyph-name="uni01D0" unicode="&#x1d0;" horiz-adv-x="500" 
d="M140 1253l-266 318h224l148 -188h7l149 188h223l-266 -318h-219zM104 1101h292v-1101h-292v1101z" />
    <glyph glyph-name="uni01D1" unicode="&#x1d1;" horiz-adv-x="1541" 
d="M382 1861h222l163 -197h6l163 197h222l-274 -318h-228zM1278 1267q188 -201 188 -546q0 -344 -188 -545t-508 -201q-321 0 -508 201q-188 201 -188 545q0 345 188 546q187 201 508 201t508 -201zM488 1082q-106 -134 -106 -361q0 -226 105 -360q105 -133 283 -133
q177 0 282 133q105 134 105 360q0 227 -105 361t-282 134t-282 -134z" />
    <glyph glyph-name="uni01D2" unicode="&#x1d2;" horiz-adv-x="1201" 
d="M490 1253l-266 318h224l148 -188h7l149 188h223l-266 -318h-219zM203 133q-146 152 -146 418q0 263 147 417q147 152 396 152q250 0 396 -152q147 -153 147 -417q0 -267 -146 -419q-145 -151 -397 -151q-251 0 -397 152zM781 296q65 91 65 255q0 162 -66 254
q-65 91 -180 91q-116 0 -181 -91q-66 -92 -66 -254q0 -164 66 -255q65 -90 181 -90t181 90z" />
    <glyph glyph-name="uni01D3" unicode="&#x1d3;" horiz-adv-x="1449" 
d="M336 1861h222l163 -197h6l163 197h222l-274 -318h-228zM421 540q0 -141 79 -222q80 -84 224 -84q143 0 223 84q79 81 79 222v903h302v-933q0 -240 -164 -387q-165 -148 -440 -148q-276 0 -441 148q-164 147 -164 387v933h302v-903z" />
    <glyph glyph-name="uni01D4" unicode="&#x1d4;" horiz-adv-x="1227" 
d="M501 1253l-266 318h224l148 -188h7l149 188h223l-266 -318h-219zM1127 0h-282v199h-6q-87 -215 -346 -215q-181 0 -289 110q-111 111 -111 301v706h292v-645q0 -110 59 -170q57 -59 160 -59t167 68t64 179v627h292v-1101z" />
    <glyph glyph-name="uni01D5" unicode="&#x1d5;" horiz-adv-x="1449" 
d="M421 540q0 -141 79 -222q80 -84 224 -84q143 0 223 84q79 81 79 222v903h302v-933q0 -240 -164 -387q-165 -148 -440 -148q-276 0 -441 148q-164 147 -164 387v933h302v-903zM611 1777q37 -37 37 -88q0 -52 -37 -88q-37 -37 -91 -37q-55 0 -92 37q-37 36 -37 88t37 88
t92 36q54 0 91 -36zM1070 2073v-143h-692v143h692zM1020 1777q37 -36 37 -88t-37 -88q-37 -37 -92 -37q-54 0 -91 37q-37 36 -37 88q0 51 37 88q37 36 91 36q55 0 92 -36z" />
    <glyph glyph-name="uni01D6" unicode="&#x1d6;" horiz-adv-x="1227" 
d="M1127 0h-282v199h-6q-87 -215 -346 -215q-181 0 -289 110q-111 111 -111 301v706h292v-645q0 -110 59 -170q57 -59 160 -59t167 68t64 179v627h292v-1101zM317 1295q-37 36 -37 87q0 52 37 88t91 36t91 -36t37 -88q0 -51 -37 -87q-37 -37 -91 -37t-91 37zM723 1295
q-37 36 -37 87q0 52 37 88t91 36t91 -36t37 -88q0 -51 -37 -87q-37 -37 -91 -37t-91 37zM946 1659h-669v143h669v-143z" />
    <glyph glyph-name="uni01D7" unicode="&#x1d7;" horiz-adv-x="1449" 
d="M806 2130h254l-237 -243h-211zM428 1601q-37 36 -37 88t37 88t92 36q54 0 91 -36q37 -37 37 -88q0 -52 -37 -88q-37 -37 -91 -37q-55 0 -92 37zM837 1601q-37 36 -37 88q0 51 37 88q37 36 91 36q55 0 92 -36t37 -88t-37 -88q-37 -37 -92 -37q-54 0 -91 37zM421 540
q0 -141 79 -222q80 -84 224 -84q143 0 223 84q79 81 79 222v903h302v-933q0 -240 -164 -387q-165 -148 -440 -148q-276 0 -441 148q-164 147 -164 387v933h302v-903z" />
    <glyph glyph-name="uni01D8" unicode="&#x1d8;" horiz-adv-x="1227" 
d="M684 1891h255l-218 -269h-219zM306 1298q-39 38 -39 92t39 93q39 38 96 38t96 -38q39 -39 39 -93t-39 -92q-39 -39 -96 -39t-96 39zM725 1298q-39 38 -39 92t39 93q39 38 96 38t96 -38q39 -39 39 -93t-39 -92q-39 -39 -96 -39t-96 39zM1127 0h-282v199h-6
q-87 -215 -346 -215q-181 0 -289 110q-111 111 -111 301v706h292v-645q0 -110 59 -170q57 -59 160 -59t167 68t64 179v627h292v-1101z" />
    <glyph glyph-name="uni01D9" unicode="&#x1d9;" horiz-adv-x="1449" 
d="M357 2142h225l133 -136h18l133 136h225l-257 -254h-220zM611 1777q37 -37 37 -88q0 -52 -37 -88q-37 -37 -91 -37q-55 0 -92 37q-37 36 -37 88t37 88t92 36q54 0 91 -36zM1020 1777q37 -36 37 -88t-37 -88q-37 -37 -92 -37q-54 0 -91 37q-37 36 -37 88q0 51 37 88
q37 36 91 36q55 0 92 -36zM421 540q0 -141 79 -222q80 -84 224 -84q143 0 223 84q79 81 79 222v903h302v-933q0 -240 -164 -387q-165 -148 -440 -148q-276 0 -441 148q-164 147 -164 387v933h302v-903z" />
    <glyph glyph-name="uni01DA" unicode="&#x1da;" horiz-adv-x="1227" 
d="M315 1296q-38 37 -38 89q0 53 38 89q38 37 93 37t93 -37q37 -36 37 -89q0 -52 -37 -89q-38 -38 -93 -38t-93 38zM722 1296q-38 37 -38 89q0 53 38 89q37 37 92 37t93 -37q38 -36 38 -89q0 -52 -38 -89q-38 -38 -93 -38q-54 0 -92 38zM490 1603l-258 297h222l153 -180h8
l153 180h222l-258 -297h-242zM1127 0h-282v199h-6q-87 -215 -346 -215q-181 0 -289 110q-111 111 -111 301v706h292v-645q0 -110 59 -170q57 -59 160 -59t167 68t64 179v627h292v-1101z" />
    <glyph glyph-name="uni01DB" unicode="&#x1db;" horiz-adv-x="1449" 
d="M625 1887l-237 243h254l194 -243h-211zM428 1601q-37 36 -37 88t37 88t92 36q54 0 91 -36q37 -37 37 -88q0 -52 -37 -88q-37 -37 -91 -37q-55 0 -92 37zM837 1601q-37 36 -37 88q0 51 37 88q37 36 91 36q55 0 92 -36t37 -88t-37 -88q-37 -37 -92 -37q-54 0 -91 37z
M421 540q0 -141 79 -222q80 -84 224 -84q143 0 223 84q79 81 79 222v903h302v-933q0 -240 -164 -387q-165 -148 -440 -148q-276 0 -441 148q-164 147 -164 387v933h302v-903z" />
    <glyph glyph-name="uni01DC" unicode="&#x1dc;" horiz-adv-x="1227" 
d="M508 1634l-221 266h265l173 -266h-217zM306 1298q-39 38 -39 92t39 93q39 38 96 38t96 -38q39 -39 39 -93t-39 -92q-39 -39 -96 -39t-96 39zM725 1298q-39 38 -39 92t39 93q39 38 96 38t96 -38q39 -39 39 -93t-39 -92q-39 -39 -96 -39t-96 39zM1127 0h-282v199h-6
q-87 -215 -346 -215q-181 0 -289 110q-111 111 -111 301v706h292v-645q0 -110 59 -170q57 -59 160 -59t167 68t64 179v627h292v-1101z" />
    <glyph glyph-name="uni01DE" unicode="&#x1de;" horiz-adv-x="1413" 
d="M954 350h-507l-110 -350h-310l501 1443h355l502 -1443h-321zM512 576h377l-185 591h-7zM593 1777q37 -37 37 -88q0 -52 -37 -88q-37 -37 -91 -37q-55 0 -92 37q-37 36 -37 88t37 88t92 36q54 0 91 -36zM1052 2073v-143h-692v143h692zM1002 1777q37 -36 37 -88t-37 -88
q-37 -37 -92 -37q-54 0 -91 37q-37 36 -37 88q0 51 37 88q37 36 91 36q55 0 92 -36z" />
    <glyph glyph-name="uni01DF" unicode="&#x1df;" horiz-adv-x="1147" 
d="M691 257q71 58 71 147v81l-231 -16q-187 -12 -187 -137q0 -61 48 -96q47 -36 127 -36q103 0 172 57zM159 78q-106 93 -106 239q0 149 112 234q110 83 322 96l275 17v73q0 79 -51 122q-51 42 -142 42q-78 0 -131 -38q-52 -37 -63 -98h-267q6 158 136 256q131 99 337 99
q212 0 340 -100t128 -265v-755h-282v170h-6q-44 -85 -138 -135q-91 -48 -199 -48q-161 0 -265 91zM283 1295q-37 36 -37 87q0 52 37 88t91 36t91 -36t37 -88q0 -51 -37 -87q-37 -37 -91 -37t-91 37zM689 1295q-37 36 -37 87q0 52 37 88t91 36t91 -36t37 -88q0 -51 -37 -87
q-37 -37 -91 -37t-91 37zM912 1659h-669v143h669v-143z" />
    <glyph glyph-name="uni01E0" unicode="&#x1e0;" horiz-adv-x="1413" 
d="M954 350h-507l-110 -350h-310l501 1443h355l502 -1443h-321zM512 576h377l-185 591h-7zM607 1594q-39 39 -39 95q0 55 39 93q40 39 99 39t99 -39q39 -38 39 -93q0 -56 -39 -95q-40 -39 -99 -39t-99 39zM1052 1930h-692v143h692v-143z" />
    <glyph glyph-name="uni01E1" unicode="&#x1e1;" horiz-adv-x="1147" 
d="M691 257q71 58 71 147v81l-231 -16q-187 -12 -187 -137q0 -61 48 -96q47 -36 127 -36q103 0 172 57zM159 78q-106 93 -106 239q0 149 112 234q110 83 322 96l275 17v73q0 79 -51 122q-51 42 -142 42q-78 0 -131 -38q-52 -37 -63 -98h-267q6 158 136 256q131 99 337 99
q212 0 340 -100t128 -265v-755h-282v170h-6q-44 -85 -138 -135q-91 -48 -199 -48q-161 0 -265 91zM471 1295q-44 43 -44 104t44 104q44 44 106 44t106 -44q44 -43 44 -104t-44 -104t-106 -43t-106 43zM912 1664h-669v143h669v-143z" />
    <glyph glyph-name="uni01E2" unicode="&#x1e2;" horiz-adv-x="2039" 
d="M574 599h391v612h-136zM965 373h-479l-158 -373h-301l613 1443h1270v-249h-669v-353h632v-232h-632v-360h669v-249h-945v373zM1793 1624h-692v143h692v-143z" />
    <glyph glyph-name="uni01E3" unicode="&#x1e3;" horiz-adv-x="1844" 
d="M1041 36q-107 55 -160 152h-9q-121 -201 -405 -201q-186 0 -300 91q-114 90 -114 237q0 149 111 234t322 97l276 15v67q0 77 -54 125t-142 48q-83 0 -136 -37q-52 -37 -59 -99h-268q8 159 134 257q125 98 322 98q266 0 362 -168h9q115 168 352 168q230 0 366 -149
q137 -148 137 -398v-89h-751v-19q0 -120 70 -193t185 -73q173 0 218 137h269q-25 -161 -158 -258q-134 -97 -333 -97q-137 0 -244 55zM1110 836q-65 -65 -73 -172h466q-4 109 -65 174q-62 64 -162 64t-166 -66zM691 259q71 59 71 145v78l-233 -14q-185 -11 -185 -136
q0 -61 46 -96q46 -36 124 -36q105 0 177 59zM1253 1298h-669v143h669v-143z" />
    <glyph glyph-name="Gcaron" unicode="&#x1e6;" horiz-adv-x="1489" 
d="M362 1861h222l163 -197h6l163 197h222l-274 -318h-228zM1409 606q0 -295 -169 -463q-170 -168 -471 -168q-324 0 -509 200q-186 200 -186 551q0 346 185 544q184 198 503 198q252 0 427 -136t207 -355h-303q-33 113 -120 177q-88 64 -210 64q-179 0 -280 -129t-101 -359
q0 -234 106 -369q105 -135 286 -135q148 0 242 83q93 83 98 217l1 23h-314v220h608v-163z" />
    <glyph glyph-name="gcaron" unicode="&#x1e7;" horiz-adv-x="1244" 
d="M498 1253l-266 318h224l148 -188h7l149 188h223l-266 -318h-219zM785 319q68 86 68 233q0 149 -68 237q-68 89 -182 89q-113 0 -180 -88t-67 -237t67 -235q66 -85 180 -85t182 86zM244 -315q-140 89 -151 237h288q14 -54 77 -87q62 -32 149 -32q112 0 178 54
q67 54 67 146v197h-6q-40 -89 -131 -141t-210 -52q-203 0 -324 146q-124 149 -124 401q0 259 122 409q122 151 331 151q117 0 208 -55q89 -53 133 -146h5v188h288v-1076q0 -196 -148 -312q-147 -116 -396 -116q-218 0 -356 88z" />
    <glyph glyph-name="uni01E8" unicode="&#x1e8;" horiz-adv-x="1353" 
d="M119 0v1443h302v-658h9l542 658h336l-534 -640l571 -803h-361l-428 603l-135 -162v-441h-302zM277 1861h222l163 -197h6l163 197h222l-274 -318h-228z" />
    <glyph glyph-name="uni01E9" unicode="&#x1e9;" horiz-adv-x="1126" 
d="M784 1101h332l-424 -473l444 -628h-336l-322 452l-79 -85v-367h-292v1512h292v-856h4zM-136 1930h222l163 -197h6l163 197h222l-274 -318h-228z" />
    <glyph glyph-name="uni01EA" unicode="&#x1ea;" horiz-adv-x="1541" 
d="M1125 -436q-49 -20 -131 -20q-115 0 -184 58q-69 57 -69 152q0 141 122 229v3q-40 -11 -93 -11q-323 0 -510 200q-186 200 -186 547q0 345 187 546q187 200 509 200t508 -200q187 -200 187 -546q0 -394 -264 -616q-33 -28 -97 -76q-60 -44 -84 -65q-82 -73 -82 -148
q0 -47 32 -76t85 -29q41 0 70 8v-156zM487 1082q-105 -133 -105 -360q0 -228 104 -361q105 -133 284 -133t283 133t104 361q0 227 -104 361q-105 133 -283 133t-283 -134z" />
    <glyph glyph-name="uni01EB" unicode="&#x1eb;" horiz-adv-x="1201" 
d="M618 -393q-69 62 -69 162q0 119 120 212v2q-12 -2 -69 -2q-253 0 -398 153q-145 152 -145 417q0 262 146 416q146 153 397 153t397 -153t146 -416q0 -289 -206 -471q-113 -100 -152 -155q-39 -54 -39 -111q0 -47 32 -75t84 -28q43 0 77 9v-154q-59 -22 -143 -22
q-110 0 -178 63zM781 297q65 91 65 254q0 162 -65 254q-65 91 -181 91q-115 0 -181 -92t-66 -253q0 -163 65 -254q66 -91 182 -91t181 91z" />
    <glyph glyph-name="uni01EC" unicode="&#x1ec;" horiz-adv-x="1541" 
d="M1125 -436q-49 -20 -131 -20q-115 0 -184 58q-69 57 -69 152q0 141 122 229v3q-40 -11 -93 -11q-323 0 -510 200q-186 200 -186 547q0 345 187 546q187 200 509 200t508 -200q187 -200 187 -546q0 -394 -264 -616q-33 -28 -97 -76q-60 -44 -84 -65q-82 -73 -82 -148
q0 -47 32 -76t85 -29q41 0 70 8v-156zM487 1082q-105 -133 -105 -360q0 -228 104 -361q105 -133 284 -133t283 133t104 361q0 227 -104 361q-105 133 -283 133t-283 -134zM1116 1624h-692v143h692v-143z" />
    <glyph glyph-name="uni01ED" unicode="&#x1ed;" horiz-adv-x="1201" 
d="M935 1298h-669v143h669v-143zM618 -393q-69 62 -69 162q0 119 120 212v2q-12 -2 -69 -2q-253 0 -398 153q-145 152 -145 417q0 262 146 416q146 153 397 153t397 -153t146 -416q0 -289 -206 -471q-113 -100 -152 -155q-39 -54 -39 -111q0 -47 32 -75t84 -28q43 0 77 9
v-154q-59 -22 -143 -22q-110 0 -178 63zM781 297q65 91 65 254q0 162 -65 254q-65 91 -181 91q-115 0 -181 -92t-66 -253q0 -163 65 -254q66 -91 182 -91t181 91z" />
    <glyph glyph-name="uni01F1" unicode="&#x1f1;" horiz-adv-x="2730" 
d="M1526 197l733 989v8h-716v249h1077v-196l-730 -990v-7h750v-250h-1114v197zM675 1443q326 0 506 -186q182 -188 182 -530q0 -343 -182 -535q-181 -192 -506 -192h-556v1443h556zM421 250h218q203 0 309 121q107 122 107 355q0 226 -108 347t-308 121h-218v-944z" />
    <glyph glyph-name="uni01F2" unicode="&#x1f2;" horiz-adv-x="2497" 
d="M1515 168l553 704v5h-545v224h883v-186l-521 -685v-6h534v-224h-904v168zM675 1443q326 0 506 -186q182 -188 182 -530q0 -343 -182 -535q-181 -192 -506 -192h-556v1443h556zM421 250h218q203 0 309 121q107 122 107 355q0 226 -108 347t-308 121h-218v-944z" />
    <glyph glyph-name="uni01F3" unicode="&#x1f3;" horiz-adv-x="2308" 
d="M1326 168l553 704v5h-545v224h883v-186l-521 -685v-6h534v-224h-904v168zM180 139q-123 153 -123 413q0 258 123 410t329 152q118 0 208 -55q87 -53 129 -146h6v599h292v-1512h-288v188h-5q-41 -92 -131 -146q-92 -55 -212 -55q-206 0 -328 152zM424 790
q-68 -89 -68 -239q0 -151 68 -240q67 -88 181 -88q113 0 181 89t68 238t-68 239q-68 89 -181 89q-114 0 -181 -88z" />
    <glyph glyph-name="uni01F4" unicode="&#x1f4;" horiz-adv-x="1489" 
d="M631 1553l232 310h273l-277 -310h-228zM1409 606q0 -295 -169 -463q-170 -168 -471 -168q-324 0 -509 200q-186 200 -186 551q0 346 185 544q184 198 503 198q252 0 427 -136t207 -355h-303q-33 113 -120 177q-88 64 -210 64q-179 0 -280 -129t-101 -359q0 -234 106 -369
q105 -135 286 -135q148 0 242 83q93 83 98 217l1 23h-314v220h608v-163z" />
    <glyph glyph-name="uni01F5" unicode="&#x1f5;" horiz-adv-x="1244" 
d="M489 1263l221 310h273l-263 -310h-231zM785 319q68 86 68 233q0 149 -68 237q-68 89 -182 89q-113 0 -180 -88t-67 -237t67 -235q66 -85 180 -85t182 86zM244 -315q-140 89 -151 237h288q14 -54 77 -87q62 -32 149 -32q112 0 178 54q67 54 67 146v197h-6
q-40 -89 -131 -141t-210 -52q-203 0 -324 146q-124 149 -124 401q0 259 122 409q122 151 331 151q117 0 208 -55q89 -53 133 -146h5v188h288v-1076q0 -196 -148 -312q-147 -116 -396 -116q-218 0 -356 88z" />
    <glyph glyph-name="uni01F8" unicode="&#x1f8;" horiz-adv-x="1463" 
d="M343 1868h273l232 -310h-227zM119 0v1443h252l674 -940h8v940h289v-1443h-250l-675 945h-9v-945h-289z" />
    <glyph glyph-name="uni01F9" unicode="&#x1f9;" horiz-adv-x="1227" 
d="M502 1263l-263 310h273l221 -310h-231zM98 1101h282v-197h6q97 213 354 213q183 0 288 -109q104 -109 104 -302v-706h-292v645q0 110 -56 169q-57 60 -160 60q-105 0 -169 -68q-65 -68 -65 -178v-628h-292v1101z" />
    <glyph glyph-name="Aringacute" unicode="&#x1fa;" horiz-adv-x="1413" 
d="M954 350h-507l-110 -350h-310l501 1443h355l502 -1443h-321zM512 576h377l-185 591h-7zM559 1555q-60 58 -60 144t60 144q59 58 147 58t147 -58t59 -144t-59 -144t-147 -58t-147 58zM773 1633q27 27 27 66q0 40 -27 66q-27 27 -67 27t-67 -27q-27 -26 -27 -66
q0 -39 27 -66t67 -27t67 27zM977 2148l-170 -193h-197l118 193h249z" />
    <glyph glyph-name="aringacute" unicode="&#x1fb;" horiz-adv-x="1147" 
d="M691 257q71 58 71 147v81l-231 -16q-187 -12 -187 -137q0 -61 48 -96q47 -36 127 -36q103 0 172 57zM159 78q-106 93 -106 239q0 149 112 234q110 83 322 96l275 17v73q0 79 -51 122q-51 42 -142 42q-78 0 -131 -38q-52 -37 -63 -98h-267q6 158 136 256q131 99 337 99
q212 0 340 -100t128 -265v-755h-282v170h-6q-44 -85 -138 -135q-91 -48 -199 -48q-161 0 -265 91zM423 1272q-63 61 -63 151q0 91 63 152q62 62 156 62q93 0 156 -62q62 -61 62 -152q0 -90 -62 -151q-63 -62 -156 -62t-156 62zM509 1355q29 -28 70 -28t69 28t28 68
q0 41 -28 69t-69 28t-70 -28q-28 -28 -28 -69q0 -40 28 -68zM619 1925h236l-174 -213h-195z" />
    <glyph glyph-name="AEacute" unicode="&#x1fc;" horiz-adv-x="2039" 
d="M1328 1553l232 310h273l-277 -310h-228zM574 599h391v612h-136zM965 373h-479l-158 -373h-301l613 1443h1270v-249h-669v-353h632v-232h-632v-360h669v-249h-945v373z" />
    <glyph glyph-name="aeacute" unicode="&#x1fd;" horiz-adv-x="1844" 
d="M799 1263l221 310h273l-263 -310h-231zM1041 36q-107 55 -160 152h-9q-121 -201 -405 -201q-186 0 -300 91q-114 90 -114 237q0 149 111 234t322 97l276 15v67q0 77 -54 125t-142 48q-83 0 -136 -37q-52 -37 -59 -99h-268q8 159 134 257q125 98 322 98q266 0 362 -168h9
q115 168 352 168q230 0 366 -149q137 -148 137 -398v-89h-751v-19q0 -120 70 -193t185 -73q173 0 218 137h269q-25 -161 -158 -258q-134 -97 -333 -97q-137 0 -244 55zM1110 836q-65 -65 -73 -172h466q-4 109 -65 174q-62 64 -162 64t-166 -66zM691 259q71 59 71 145v78
l-233 -14q-185 -11 -185 -136q0 -61 46 -96q46 -36 124 -36q105 0 177 59z" />
    <glyph glyph-name="Oslashacute" unicode="&#x1fe;" horiz-adv-x="1541" 
d="M904 1553h-228l232 310h273zM575 282q85 -54 195 -54q177 0 282 133q105 134 105 360q0 194 -77 320zM997 1139q-94 77 -227 77q-177 0 -282 -134q-106 -134 -106 -361q0 -223 101 -355zM1249 1296q217 -203 217 -575q0 -344 -188 -545t-508 -201q-197 0 -347 78
l-80 -120l-102 68l80 120q-247 200 -247 600q0 345 188 546q187 201 508 201q220 0 381 -98l90 136l108 -60z" />
    <glyph glyph-name="oslashacute" unicode="&#x1ff;" horiz-adv-x="1201" 
d="M734 1263h-231l221 310h273zM482 237q53 -31 118 -31q116 0 181 90q65 91 65 255q0 122 -38 206zM728 857q-54 39 -128 39q-116 0 -181 -91q-66 -92 -66 -254q0 -133 45 -220zM961 1001q182 -154 182 -450q0 -267 -146 -419q-145 -151 -397 -151q-137 0 -248 48l-62 -99
l-104 64l62 98q-191 152 -191 459q0 263 147 417q147 152 396 152q145 0 259 -54l64 102l106 -59z" />
    <glyph glyph-name="uni0200" unicode="&#x200;" horiz-adv-x="1413" 
d="M954 350h-507l-110 -350h-310l501 1443h355l502 -1443h-321zM512 576h377l-185 591h-7zM518 1863h269l231 -310h-222zM123 1863h268l232 -310h-222z" />
    <glyph glyph-name="uni0201" unicode="&#x201;" horiz-adv-x="1147" 
d="M691 257q71 58 71 147v81l-231 -16q-187 -12 -187 -137q0 -61 48 -96q47 -36 127 -36q103 0 172 57zM159 78q-106 93 -106 239q0 149 112 234q110 83 322 96l275 17v73q0 79 -51 122q-51 42 -142 42q-78 0 -131 -38q-52 -37 -63 -98h-267q6 158 136 256q131 99 337 99
q212 0 340 -100t128 -265v-755h-282v170h-6q-44 -85 -138 -135q-91 -48 -199 -48q-161 0 -265 91zM294 1263l-233 310h252l189 -310h-208zM664 1263l-233 310h252l189 -310h-208z" />
    <glyph glyph-name="uni0202" unicode="&#x202;" horiz-adv-x="1413" 
d="M954 350h-507l-110 -350h-310l501 1443h355l502 -1443h-321zM512 576h377l-185 591h-7zM353 1543q2 137 96 225q97 92 257 92t257 -92q94 -88 96 -225h-178q-2 75 -49 123q-49 49 -126 49t-126 -49q-47 -48 -49 -123h-178z" />
    <glyph glyph-name="uni0203" unicode="&#x203;" horiz-adv-x="1147" 
d="M691 257q71 58 71 147v81l-231 -16q-187 -12 -187 -137q0 -61 48 -96q47 -36 127 -36q103 0 172 57zM159 78q-106 93 -106 239q0 149 112 234q110 83 322 96l275 17v73q0 79 -51 122q-51 42 -142 42q-78 0 -131 -38q-52 -37 -63 -98h-267q6 158 136 256q131 99 337 99
q212 0 340 -100t128 -265v-755h-282v170h-6q-44 -85 -138 -135q-91 -48 -199 -48q-161 0 -265 91zM218 1253q2 140 97 229q99 93 262 93t262 -93q95 -89 97 -229h-180q-2 76 -50 126q-51 50 -129 50t-128 -50q-49 -50 -51 -126h-180z" />
    <glyph glyph-name="uni0204" unicode="&#x204;" horiz-adv-x="1174" 
d="M409 1863h269l231 -310h-222zM14 1863h268l232 -310h-222zM1075 0h-956v1443h956v-249h-654v-348h617v-232h-617v-364h654v-250z" />
    <glyph glyph-name="uni0205" unicode="&#x205;" horiz-adv-x="1164" 
d="M422 836q-66 -66 -74 -172h475q-4 108 -68 173t-166 65q-100 0 -167 -66zM1096 336q-24 -160 -161 -257q-137 -98 -338 -98q-251 0 -396 151q-144 151 -144 414t143 418q144 156 386 156q238 0 378 -148q141 -148 141 -399v-90h-760v-18q0 -119 71 -193q71 -73 186 -73
q83 0 143 37q61 36 82 100h269zM302 1263l-233 310h252l189 -310h-208zM672 1263l-233 310h252l189 -310h-208z" />
    <glyph glyph-name="uni0206" unicode="&#x206;" horiz-adv-x="1174" 
d="M1075 0h-956v1443h956v-249h-654v-348h617v-232h-617v-364h654v-250zM244 1543q2 137 96 225q97 92 257 92t257 -92q94 -88 96 -225h-178q-2 75 -49 123q-49 49 -126 49t-126 -49q-47 -48 -49 -123h-178z" />
    <glyph glyph-name="uni0207" unicode="&#x207;" horiz-adv-x="1164" 
d="M422 836q-66 -66 -74 -172h475q-4 108 -68 173t-166 65q-100 0 -167 -66zM1096 336q-24 -160 -161 -257q-137 -98 -338 -98q-251 0 -396 151q-144 151 -144 414t143 418q144 156 386 156q238 0 378 -148q141 -148 141 -399v-90h-760v-18q0 -119 71 -193q71 -73 186 -73
q83 0 143 37q61 36 82 100h269zM226 1253q2 140 97 229q99 93 262 93t262 -93q95 -89 97 -229h-180q-2 76 -50 126q-51 50 -129 50t-128 -50q-49 -50 -51 -126h-180z" />
    <glyph glyph-name="uni0208" unicode="&#x208;" horiz-adv-x="542" 
d="M120 0v1443h302v-1443h-302zM83 1863h269l231 -310h-222zM-312 1863h268l232 -310h-222z" />
    <glyph glyph-name="uni0209" unicode="&#x209;" horiz-adv-x="500" 
d="M104 1101h292v-1101h-292v1101zM-33 1263l-233 310h252l189 -310h-208zM337 1263l-233 310h252l189 -310h-208z" />
    <glyph glyph-name="uni020A" unicode="&#x20a;" horiz-adv-x="542" 
d="M120 0v1443h302v-1443h-302zM-82 1543q2 137 96 225q97 92 257 92t257 -92q94 -88 96 -225h-178q-2 75 -49 123q-49 49 -126 49t-126 -49q-47 -48 -49 -123h-178z" />
    <glyph glyph-name="uni020B" unicode="&#x20b;" horiz-adv-x="500" 
d="M104 1101h292v-1101h-292v1101zM-109 1253q2 140 97 229q99 93 262 93t262 -93q95 -89 97 -229h-180q-2 76 -50 126q-51 50 -129 50t-128 -50q-49 -50 -51 -126h-180z" />
    <glyph glyph-name="uni020C" unicode="&#x20c;" horiz-adv-x="1541" 
d="M582 1863h269l231 -310h-222zM187 1863h268l232 -310h-222zM1278 1267q188 -201 188 -546q0 -344 -188 -545t-508 -201q-321 0 -508 201q-188 201 -188 545q0 345 188 546q187 201 508 201t508 -201zM488 1082q-106 -134 -106 -361q0 -226 105 -360q105 -133 283 -133
q177 0 282 133q105 134 105 360q0 227 -105 361t-282 134t-282 -134z" />
    <glyph glyph-name="uni020D" unicode="&#x20d;" horiz-adv-x="1201" 
d="M203 133q-146 152 -146 418q0 263 147 417q147 152 396 152q250 0 396 -152q147 -153 147 -417q0 -267 -146 -419q-145 -151 -397 -151q-251 0 -397 152zM781 296q65 91 65 255q0 162 -66 254q-65 91 -180 91q-116 0 -181 -91q-66 -92 -66 -254q0 -164 66 -255
q65 -90 181 -90t181 90zM317 1263l-233 310h252l189 -310h-208zM687 1263l-233 310h252l189 -310h-208z" />
    <glyph glyph-name="uni020E" unicode="&#x20e;" horiz-adv-x="1541" 
d="M417 1543q2 137 96 225q97 92 257 92t257 -92q94 -88 96 -225h-178q-2 75 -49 123q-49 49 -126 49t-126 -49q-47 -48 -49 -123h-178zM1278 1267q188 -201 188 -546q0 -344 -188 -545t-508 -201q-321 0 -508 201q-188 201 -188 545q0 345 188 546q187 201 508 201
t508 -201zM488 1082q-106 -134 -106 -361q0 -226 105 -360q105 -133 283 -133q177 0 282 133q105 134 105 360q0 227 -105 361t-282 134t-282 -134z" />
    <glyph glyph-name="uni020F" unicode="&#x20f;" horiz-adv-x="1201" 
d="M203 133q-146 152 -146 418q0 263 147 417q147 152 396 152q250 0 396 -152q147 -153 147 -417q0 -267 -146 -419q-145 -151 -397 -151q-251 0 -397 152zM781 296q65 91 65 255q0 162 -66 254q-65 91 -180 91q-116 0 -181 -91q-66 -92 -66 -254q0 -164 66 -255
q65 -90 181 -90t181 90zM241 1253q2 140 97 229q99 93 262 93t262 -93q95 -89 97 -229h-180q-2 76 -50 126q-51 50 -129 50t-128 -50q-49 -50 -51 -126h-180z" />
    <glyph glyph-name="uni0210" unicode="&#x210;" horiz-adv-x="1316" 
d="M427 1863h269l231 -310h-222zM32 1863h268l232 -310h-222zM421 747h265q114 0 178 61q63 61 63 169q0 105 -66 168q-66 62 -178 62h-262v-460zM421 0h-302v1443h596q247 0 386 -123q136 -122 136 -337q0 -141 -69 -250q-70 -112 -193 -160l304 -573h-342l-269 528h-247
v-528z" />
    <glyph glyph-name="uni0211" unicode="&#x211;" horiz-adv-x="759" 
d="M99 1101h282v-197h6q57 210 262 210q49 0 82 -11v-259q-39 18 -105 18q-111 0 -173 -65t-62 -181v-616h-292v1101zM120 1263l-233 310h252l189 -310h-208zM490 1263l-233 310h252l189 -310h-208z" />
    <glyph glyph-name="uni0212" unicode="&#x212;" horiz-adv-x="1316" 
d="M421 747h265q114 0 178 61q63 61 63 169q0 105 -66 168q-66 62 -178 62h-262v-460zM421 0h-302v1443h596q247 0 386 -123q136 -122 136 -337q0 -141 -69 -250q-70 -112 -193 -160l304 -573h-342l-269 528h-247v-528zM262 1543q2 137 96 225q97 92 257 92t257 -92
q94 -88 96 -225h-178q-2 75 -49 123q-49 49 -126 49t-126 -49q-47 -48 -49 -123h-178z" />
    <glyph glyph-name="uni0213" unicode="&#x213;" horiz-adv-x="759" 
d="M98 1101h282v-197h6q57 210 262 210q49 0 82 -11v-259q-39 18 -105 18q-111 0 -173 -65t-62 -181v-616h-292v1101zM43 1253q2 140 97 229q99 93 262 93t262 -93q95 -89 97 -229h-180q-2 76 -50 126q-51 50 -129 50t-128 -50q-49 -50 -51 -126h-180z" />
    <glyph glyph-name="uni0214" unicode="&#x214;" horiz-adv-x="1449" 
d="M536 1863h269l231 -310h-222zM141 1863h268l232 -310h-222zM421 540q0 -141 79 -222q80 -84 224 -84q143 0 223 84q79 81 79 222v903h302v-933q0 -240 -164 -387q-165 -148 -440 -148q-276 0 -441 148q-164 147 -164 387v933h302v-903z" />
    <glyph glyph-name="uni0215" unicode="&#x215;" horiz-adv-x="1227" 
d="M1127 0h-282v199h-6q-87 -215 -346 -215q-181 0 -289 110q-111 111 -111 301v706h292v-645q0 -110 59 -170q57 -59 160 -59t167 68t64 179v627h292v-1101zM328 1263l-233 310h252l189 -310h-208zM698 1263l-233 310h252l189 -310h-208z" />
    <glyph glyph-name="uni0216" unicode="&#x216;" horiz-adv-x="1449" 
d="M421 540q0 -141 79 -222q80 -84 224 -84q143 0 223 84q79 81 79 222v903h302v-933q0 -240 -164 -387q-165 -148 -440 -148q-276 0 -441 148q-164 147 -164 387v933h302v-903zM371 1543q2 137 96 225q97 92 257 92t257 -92q94 -88 96 -225h-178q-2 75 -49 123
q-49 49 -126 49t-126 -49q-47 -48 -49 -123h-178z" />
    <glyph glyph-name="uni0217" unicode="&#x217;" horiz-adv-x="1227" 
d="M1127 0h-282v199h-6q-87 -215 -346 -215q-181 0 -289 110q-111 111 -111 301v706h292v-645q0 -110 59 -170q57 -59 160 -59t167 68t64 179v627h292v-1101zM252 1253q2 140 97 229q99 93 262 93t262 -93q95 -89 97 -229h-180q-2 76 -50 126q-51 50 -129 50t-128 -50
q-49 -50 -51 -126h-180z" />
    <glyph glyph-name="uni0218" unicode="&#x218;" horiz-adv-x="1293" 
d="M356 411q10 -88 94 -143q83 -54 204 -54q120 0 196 52q75 51 75 131q0 70 -56 113t-187 72l-188 41q-397 85 -397 403q0 198 155 321q154 121 397 121q250 0 400 -119q148 -118 152 -315h-283q-7 91 -81 144q-73 52 -187 52q-112 0 -180 -49q-69 -49 -69 -129
q0 -66 56 -108q55 -40 180 -69l175 -37q217 -46 316 -144q99 -97 99 -262q0 -210 -158 -333q-158 -124 -427 -124q-261 0 -415 116q-155 117 -162 320h291zM406 -500l121 345h256l-160 -345h-217z" />
    <glyph glyph-name="uni0219" unicode="&#x219;" horiz-adv-x="1078" 
d="M205 1026q126 94 335 94q204 0 329 -96q125 -95 128 -253h-270q-5 65 -56 104q-51 38 -135 38q-79 0 -127 -32q-48 -33 -48 -86q0 -81 147 -115l207 -45q166 -38 237 -107q72 -69 72 -192q0 -160 -134 -258q-134 -97 -351 -97q-215 0 -347 97q-129 94 -140 255h285
q22 -145 210 -145q87 0 137 32q50 31 50 85q0 43 -31 68q-32 25 -107 43l-203 46q-314 71 -314 315q0 155 126 249zM297 -500l121 345h256l-160 -345h-217z" />
    <glyph glyph-name="uni021A" unicode="&#x21a;" horiz-adv-x="1242" 
d="M381 -500l121 345h256l-160 -345h-217zM469 0v1194h-422v249h1147v-249h-423v-1194h-302z" />
    <glyph glyph-name="uni021B" unicode="&#x21b;" horiz-adv-x="741" 
d="M184 -500l121 345h256l-160 -345h-217zM468 1346v-245h204v-221h-204v-535q0 -126 131 -126q43 0 73 5v-216q-60 -12 -141 -12q-191 0 -273 70t-82 231v583h-149v221h149v245h292z" />
    <glyph glyph-name="uni021E" unicode="&#x21e;" horiz-adv-x="1494" 
d="M1071 0v608h-650v-608h-302v1443h302v-586h650v586h302v-1443h-302zM358 1861h222l163 -197h6l163 197h222l-274 -318h-228z" />
    <glyph glyph-name="uni021F" unicode="&#x21f;" horiz-adv-x="1247" 
d="M107 1512h287v-608h6q95 213 356 213q183 0 290 -111t107 -302v-704h-292v643q0 108 -59 170q-60 61 -164 61q-107 0 -173 -69t-66 -180v-625h-292v1512zM-136 1930h222l163 -197h6l163 197h222l-274 -318h-228z" />
    <glyph glyph-name="uni0226" unicode="&#x226;" horiz-adv-x="1413" 
d="M954 350h-507l-110 -350h-310l501 1443h355l502 -1443h-321zM512 576h377l-185 591h-7zM600 1605q-43 43 -43 105t43 105t106 43t106 -43t43 -105t-43 -105q-43 -44 -106 -44t-106 44z" />
    <glyph glyph-name="uni0227" unicode="&#x227;" horiz-adv-x="1147" 
d="M691 257q71 58 71 147v81l-231 -16q-187 -12 -187 -137q0 -61 48 -96q47 -36 127 -36q103 0 172 57zM159 78q-106 93 -106 239q0 149 112 234q110 83 322 96l275 17v73q0 79 -51 122q-51 42 -142 42q-78 0 -131 -38q-52 -37 -63 -98h-267q6 158 136 256q131 99 337 99
q212 0 340 -100t128 -265v-755h-282v170h-6q-44 -85 -138 -135q-91 -48 -199 -48q-161 0 -265 91zM469 1307q-44 43 -44 104q0 62 44 105q44 44 107 44t107 -44q43 -43 43 -105q0 -61 -43 -104q-44 -44 -107 -44t-107 44z" />
    <glyph glyph-name="uni0228" unicode="&#x228;" horiz-adv-x="1174" 
d="M421 1194v-348h617v-232h-617v-364h654v-250h-386l-49 -116q88 0 136 -42q49 -41 49 -117q0 -86 -64 -136q-64 -49 -177 -50q-88 0 -140 16v120q40 -14 111 -14q107 0 107 55q0 31 -29 43q-28 13 -96 13h-56v101l58 127h-420v1443h956v-249h-654z" />
    <glyph glyph-name="uni0229" unicode="&#x229;" horiz-adv-x="1164" 
d="M823 664q-4 108 -68 173t-166 65q-100 0 -167 -66q-66 -66 -74 -172h475zM345 483v-18q0 -119 71 -193q71 -73 186 -73q83 0 143 37q61 36 82 100h269q-22 -143 -136 -238q-113 -94 -285 -113l-43 -101q88 0 136 -42q49 -41 49 -117q0 -86 -64 -136q-64 -49 -177 -50
q-88 0 -140 16v120q40 -14 111 -14q107 0 107 55q0 31 -29 43q-28 13 -96 13h-56v101l51 112q-219 22 -343 170t-124 391q0 263 143 418q144 156 386 156q238 0 378 -148q141 -148 141 -399v-90h-760z" />
    <glyph glyph-name="uni022A" unicode="&#x22a;" horiz-adv-x="1541" 
d="M1278 1267q188 -201 188 -546q0 -344 -188 -545t-508 -201q-321 0 -508 201q-188 201 -188 545q0 345 188 546q187 201 508 201t508 -201zM488 1082q-106 -134 -106 -361q0 -226 105 -360q105 -133 283 -133q177 0 282 133q105 134 105 360q0 227 -105 361t-282 134
t-282 -134zM657 1777q37 -37 37 -88q0 -52 -37 -88q-37 -37 -91 -37q-55 0 -92 37q-37 36 -37 88t37 88t92 36q54 0 91 -36zM1116 2073v-143h-692v143h692zM1066 1777q37 -36 37 -88t-37 -88q-37 -37 -92 -37q-54 0 -91 37q-37 36 -37 88q0 51 37 88q37 36 91 36
q55 0 92 -36z" />
    <glyph glyph-name="uni022B" unicode="&#x22b;" horiz-adv-x="1201" 
d="M306 1295q-37 36 -37 87q0 52 37 88t91 36t91 -36t37 -88q0 -51 -37 -87q-37 -37 -91 -37t-91 37zM712 1295q-37 36 -37 87q0 52 37 88t91 36t91 -36t37 -88q0 -51 -37 -87q-37 -37 -91 -37t-91 37zM935 1659h-669v143h669v-143zM203 133q-146 152 -146 418
q0 263 147 417q147 152 396 152q250 0 396 -152q147 -153 147 -417q0 -267 -146 -419q-145 -151 -397 -151q-251 0 -397 152zM781 296q65 91 65 255q0 162 -66 254q-65 91 -180 91q-116 0 -181 -91q-66 -92 -66 -254q0 -164 66 -255q65 -90 181 -90t181 90z" />
    <glyph glyph-name="uni022C" unicode="&#x22c;" horiz-adv-x="1541" 
d="M751 1604q-77 68 -106 68q-67 0 -69 -119h-158q0 126 61 201q58 71 153 71q80 0 158 -68q78 -69 105 -69q63 0 65 122h158q0 -125 -61 -201q-59 -73 -152 -73q-77 0 -154 68zM1116 1930h-692v143h692v-143zM1278 1267q188 -201 188 -546q0 -344 -188 -545t-508 -201
q-321 0 -508 201q-188 201 -188 545q0 345 188 546q187 201 508 201t508 -201zM488 1082q-106 -134 -106 -361q0 -226 105 -360q105 -133 283 -133q177 0 282 133q105 134 105 360q0 227 -105 361t-282 134t-282 -134z" />
    <glyph glyph-name="uni022D" unicode="&#x22d;" horiz-adv-x="1201" 
d="M589 1320q-76 68 -105 68q-67 0 -69 -119h-158q0 126 61 200q59 71 154 71q80 0 157 -67q77 -68 104 -68q63 0 65 122h158q0 -125 -62 -201q-59 -74 -152 -74q-76 0 -153 68zM935 1659h-669v143h669v-143zM203 133q-146 152 -146 418q0 263 147 417q147 152 396 152
q250 0 396 -152q147 -153 147 -417q0 -267 -146 -419q-145 -151 -397 -151q-251 0 -397 152zM781 296q65 91 65 255q0 162 -66 254q-65 91 -180 91q-116 0 -181 -91q-66 -92 -66 -254q0 -164 66 -255q65 -90 181 -90t181 90z" />
    <glyph glyph-name="uni022E" unicode="&#x22e;" horiz-adv-x="1541" 
d="M664 1605q-43 43 -43 105t43 105t106 43t106 -43t43 -105t-43 -105q-43 -44 -106 -44t-106 44zM1278 1267q188 -201 188 -546q0 -344 -188 -545t-508 -201q-321 0 -508 201q-188 201 -188 545q0 345 188 546q187 201 508 201t508 -201zM488 1082q-106 -134 -106 -361
q0 -226 105 -360q105 -133 283 -133q177 0 282 133q105 134 105 360q0 227 -105 361t-282 134t-282 -134z" />
    <glyph glyph-name="uni022F" unicode="&#x22f;" horiz-adv-x="1201" 
d="M492 1307q-44 43 -44 104q0 62 44 105q44 44 107 44t107 -44q43 -43 43 -105q0 -61 -43 -104q-44 -44 -107 -44t-107 44zM203 133q-146 152 -146 418q0 263 147 417q147 152 396 152q250 0 396 -152q147 -153 147 -417q0 -267 -146 -419q-145 -151 -397 -151
q-251 0 -397 152zM781 296q65 91 65 255q0 162 -66 254q-65 91 -180 91q-116 0 -181 -91q-66 -92 -66 -254q0 -164 66 -255q65 -90 181 -90t181 90z" />
    <glyph glyph-name="uni0230" unicode="&#x230;" horiz-adv-x="1541" 
d="M671 1594q-39 39 -39 95q0 55 39 93q40 39 99 39t99 -39q39 -38 39 -93q0 -56 -39 -95q-40 -39 -99 -39t-99 39zM1116 1930h-692v143h692v-143zM1278 1267q188 -201 188 -546q0 -344 -188 -545t-508 -201q-321 0 -508 201q-188 201 -188 545q0 345 188 546
q187 201 508 201t508 -201zM488 1082q-106 -134 -106 -361q0 -226 105 -360q105 -133 283 -133q177 0 282 133q105 134 105 360q0 227 -105 361t-282 134t-282 -134z" />
    <glyph glyph-name="uni0231" unicode="&#x231;" horiz-adv-x="1201" 
d="M203 133q-146 152 -146 418q0 263 147 417q147 152 396 152q250 0 396 -152q147 -153 147 -417q0 -267 -146 -419q-145 -151 -397 -151q-251 0 -397 152zM781 296q65 91 65 255q0 162 -66 254q-65 91 -180 91q-116 0 -181 -91q-66 -92 -66 -254q0 -164 66 -255
q65 -90 181 -90t181 90zM494 1295q-44 43 -44 104t44 104q44 44 106 44t106 -44q44 -43 44 -104t-44 -104t-106 -43t-106 43zM935 1664h-669v143h669v-143z" />
    <glyph glyph-name="uni0232" unicode="&#x232;" horiz-adv-x="1362" 
d="M529 0v539l-502 904h329l323 -616h7l324 616h324l-503 -904v-539h-302zM1026 1624h-692v143h692v-143z" />
    <glyph glyph-name="uni0233" unicode="&#x233;" horiz-adv-x="1136" 
d="M128 -398v226q15 -3 66 -3q162 0 195 126l10 42l-386 1108h320l238 -864h6l239 864h308l-381 -1123q-70 -210 -184 -295q-113 -85 -320 -85q-89 0 -111 4zM904 1298h-669v143h669v-143z" />
    <glyph glyph-name="uni0237" unicode="&#x237;" horiz-adv-x="499" 
d="M395 -37q0 -339 -390 -339q-60 0 -78 3v216q6 -1 36 -1q76 0 109 30q32 29 32 98v1131h291v-1138z" />
    <glyph glyph-name="circumflex" unicode="&#x2c6;" horiz-adv-x="1011" 
d="M880 1253h-223l-149 189h-7l-148 -189h-224l266 318h219z" />
    <glyph glyph-name="caron" unicode="&#x2c7;" horiz-adv-x="1011" 
d="M395 1253l-266 318h224l148 -188h7l149 188h223l-266 -318h-219z" />
    <glyph glyph-name="breve" unicode="&#x2d8;" horiz-adv-x="1000" 
d="M320 1570q2 -76 51 -125q50 -50 128 -50q79 0 129 50q48 49 50 125h180q-2 -140 -97 -229q-99 -93 -262 -93q-162 0 -261 93q-95 89 -97 229h179z" />
    <glyph glyph-name="dotaccent" unicode="&#x2d9;" horiz-adv-x="949" 
d="M366 1307q-44 43 -44 104q0 62 44 105q44 44 107 44t107 -44q43 -43 43 -105q0 -61 -43 -104q-44 -44 -107 -44t-107 44z" />
    <glyph glyph-name="ring" unicode="&#x2da;" horiz-adv-x="1032" 
d="M360 1275q-66 64 -66 153t66 153q65 64 155 64q91 0 156 -64t65 -153t-65 -153t-156 -64q-90 0 -155 64zM587 1357q30 30 30 71t-30 71t-72 30q-41 0 -72 -30q-30 -30 -30 -71t30 -71q31 -29 72 -29q42 0 72 29z" />
    <glyph glyph-name="ogonek" unicode="&#x2db;" horiz-adv-x="1000" 
d="M693 -450q-57 -20 -138 -20q-106 0 -172 57q-66 58 -66 150q0 154 168 263h155q-133 -97 -133 -202q0 -46 32 -75q31 -28 83 -28q37 0 71 9v-154z" />
    <glyph glyph-name="tilde" unicode="&#x2dc;" horiz-adv-x="1011" 
d="M487 1326q-76 68 -105 68q-67 0 -69 -119h-158q0 126 61 200q59 71 154 71q80 0 157 -67q77 -68 104 -68q63 0 65 122h158q0 -125 -62 -201q-59 -74 -152 -74q-76 0 -153 68z" />
    <glyph glyph-name="hungarumlaut" unicode="&#x2dd;" horiz-adv-x="1000" 
d="M657 1573h252l-233 -310h-208zM287 1573h251l-233 -310h-208z" />
    <glyph glyph-name="gravecomb" unicode="&#x300;" 
d="M-112 1263l-263 310h273l221 -310h-231z" />
    <glyph glyph-name="acutecomb" unicode="&#x301;" 
d="M-119 1263l221 310h273l-263 -310h-231z" />
    <glyph glyph-name="uni0302" unicode="&#x302;" 
d="M375 1253h-223l-149 189h-7l-148 -189h-224l266 318h219z" />
    <glyph glyph-name="tildecomb" unicode="&#x303;" 
d="M-11 1326q-76 68 -105 68q-67 0 -69 -119h-158q0 126 61 200q59 71 154 71q80 0 157 -67q77 -68 104 -68q63 0 65 122h158q0 -125 -62 -201q-59 -74 -152 -74q-76 0 -153 68z" />
    <glyph glyph-name="uni0304" unicode="&#x304;" 
d="M335 1298h-669v143h669v-143z" />
    <glyph glyph-name="uni0306" unicode="&#x306;" 
d="M-180 1570q2 -76 51 -125q50 -50 128 -50q79 0 129 50q48 49 50 125h180q-2 -140 -97 -229q-99 -93 -262 -93q-162 0 -261 93q-95 89 -97 229h179z" />
    <glyph glyph-name="uni0307" unicode="&#x307;" 
d="M-108 1307q-44 43 -44 104q0 62 44 105q44 44 107 44t107 -44q43 -43 43 -105q0 -61 -43 -104q-44 -44 -107 -44t-107 44z" />
    <glyph glyph-name="uni0308" unicode="&#x308;" 
d="M-305 1298q-39 38 -39 92t39 93q39 38 96 38t96 -38q39 -39 39 -93t-39 -92q-39 -39 -96 -39t-96 39zM114 1298q-39 38 -39 92t39 93q39 38 96 38t96 -38q39 -39 39 -93t-39 -92q-39 -39 -96 -39t-96 39z" />
    <glyph glyph-name="hookabovecomb" unicode="&#x309;" 
d="M-152 1619q64 27 150 27q106 0 170 -56q63 -56 63 -150q0 -150 -189 -232l-85 104q96 42 96 114q0 35 -29 57q-28 22 -74 22q-52 0 -102 -21v135z" />
    <glyph glyph-name="uni030A" unicode="&#x30a;" 
d="M-155 1274q-66 64 -66 153t66 153q65 64 155 64q91 0 156 -64t65 -153t-65 -153t-156 -64q-90 0 -155 64zM72 1356q30 30 30 71t-30 71t-72 30q-41 0 -72 -30q-30 -30 -30 -71t30 -71q31 -29 72 -29q42 0 72 29z" />
    <glyph glyph-name="uni030B" unicode="&#x30b;" 
d="M264 1573h252l-233 -310h-208zM-106 1573h251l-233 -310h-208z" />
    <glyph glyph-name="uni030C" unicode="&#x30c;" 
d="M-110 1253l-266 318h224l148 -188h7l149 188h223l-266 -318h-219z" />
    <glyph glyph-name="uni030F" unicode="&#x30f;" 
d="M-283 1263l-233 310h252l189 -310h-208zM87 1263l-233 310h252l189 -310h-208z" />
    <glyph glyph-name="uni0311" unicode="&#x311;" 
d="M-359 1253q2 140 97 229q99 93 262 93t262 -93q95 -89 97 -229h-180q-2 76 -50 126q-51 50 -129 50t-128 -50q-49 -50 -51 -126h-180z" />
    <glyph glyph-name="uni031B" unicode="&#x31b;" 
d="M0 1117q32 -23 71 -21q81 4 81 126v152h222v-207q0 -125 -66 -198q-66 -74 -178 -74q-85 0 -130 29v193z" />
    <glyph glyph-name="dotbelowcomb" unicode="&#x323;" 
d="M-106 -414q-43 43 -43 105t43 105t106 43t106 -43t43 -105t-43 -105q-43 -44 -106 -44t-106 44z" />
    <glyph glyph-name="uni0324" unicode="&#x324;" 
d="M-305 -391q-39 38 -39 92t39 93q39 38 96 38t96 -38q39 -39 39 -93t-39 -92q-39 -39 -96 -39t-96 39zM114 -391q-39 38 -39 92t39 93q39 38 96 38t96 -38q39 -39 39 -93t-39 -92q-39 -39 -96 -39t-96 39z" />
    <glyph glyph-name="uni0325" unicode="&#x325;" 
d="M-155 -516q-66 64 -66 153t66 153q65 64 155 64q91 0 156 -64t65 -153t-65 -153t-156 -64q-90 0 -155 64zM72 -434q30 30 30 71t-30 71t-72 30q-41 0 -72 -30q-30 -30 -30 -71t30 -71q31 -29 72 -29q42 0 72 29z" />
    <glyph glyph-name="uni0326" unicode="&#x326;" 
d="M-239 -500l121 345h256l-160 -345h-217z" />
    <glyph glyph-name="uni0327" unicode="&#x327;" 
d="M-116 -127l63 139l145 -12l-49 -116q88 0 136 -42q49 -41 49 -117q0 -86 -64 -136q-64 -49 -177 -50q-88 0 -140 16v120q40 -14 111 -14q107 0 107 55q0 31 -29 43q-28 13 -96 13h-56v101z" />
    <glyph glyph-name="uni0328" unicode="&#x328;" 
d="M176 -450q-57 -20 -138 -20q-106 0 -172 57q-66 58 -66 150q0 154 168 263h155q-133 -97 -133 -202q0 -46 32 -75q31 -28 83 -28q37 0 71 9v-154z" />
    <glyph glyph-name="uni032D" unicode="&#x32d;" 
d="M114 -160l274 -318h-222l-163 197h-6l-163 -197h-222l274 318h228z" />
    <glyph glyph-name="uni032E" unicode="&#x32e;" 
d="M-175 -176q2 -75 49 -123q49 -49 126 -49t126 49q47 48 49 123h178q-2 -137 -96 -225q-97 -92 -257 -92t-257 92q-94 88 -96 225h178z" />
    <glyph glyph-name="uni0330" unicode="&#x330;" 
d="M-13 -367q-76 68 -105 68q-67 0 -69 -119h-158q0 126 61 200q59 71 154 71q80 0 157 -67q77 -68 104 -68q63 0 65 122h158q0 -125 -62 -201q-59 -74 -152 -74q-76 0 -153 68z" />
    <glyph glyph-name="uni0331" unicode="&#x331;" 
d="M346 -373h-692v143h692v-143z" />
    <glyph glyph-name="uni037E" unicode="&#x37e;" horiz-adv-x="631" 
d="M172 750q-47 47 -47 114q0 68 47 114q47 47 114 47q68 0 114 -47q47 -46 47 -114q0 -67 -47 -114t-114 -47t-114 47zM56 -271l82 541h276l-137 -541h-221z" />
    <glyph glyph-name="tonos" unicode="&#x384;" horiz-adv-x="890" 
d="M332 1588h306l-155 -325h-232z" />
    <glyph glyph-name="dieresistonos" unicode="&#x385;" horiz-adv-x="1303" 
d="M214 1298q-39 38 -39 92t39 93q39 38 96 38t96 -38q39 -39 39 -93t-39 -92q-39 -39 -96 -39t-96 39zM896 1298q-39 38 -39 92t39 93q39 38 96 38t96 -38q39 -39 39 -93t-39 -92q-39 -39 -96 -39t-96 39zM515 1263l26 325h292l-126 -325h-192z" />
    <glyph glyph-name="Alphatonos" unicode="&#x386;" horiz-adv-x="1545" 
d="M1042 350h-507l-110 -350h-310l501 1443h355l502 -1443h-321zM600 576h377l-185 591h-7zM92 1118l76 325h306l-160 -325h-222z" />
    <glyph glyph-name="anoteleia" unicode="&#x387;" horiz-adv-x="626" 
d="M199 848q-47 47 -47 114q0 68 47 114q47 47 114 47q68 0 114 -47q47 -46 47 -114q0 -67 -47 -114t-114 -47t-114 47z" />
    <glyph glyph-name="Epsilontonos" unicode="&#x388;" horiz-adv-x="1613" 
d="M44 1118l76 325h306l-160 -325h-222zM1503 0h-956v1443h956v-249h-654v-348h617v-232h-617v-364h654v-250z" />
    <glyph glyph-name="Etatonos" unicode="&#x389;" horiz-adv-x="1944" 
d="M44 1118l76 325h306l-160 -325h-222zM1499 0v608h-650v-608h-302v1443h302v-586h650v586h302v-1443h-302z" />
    <glyph glyph-name="Iotatonos" unicode="&#x38a;" horiz-adv-x="992" 
d="M547 0v1443h302v-1443h-302zM44 1118l76 325h306l-160 -325h-222z" />
    <glyph glyph-name="Omicrontonos" unicode="&#x38c;" horiz-adv-x="1804" 
d="M1541 1267q188 -201 188 -546q0 -344 -188 -545t-508 -201q-321 0 -508 201q-188 201 -188 545q0 345 188 546q187 201 508 201t508 -201zM751 1082q-106 -134 -106 -361q0 -226 105 -360q105 -133 283 -133q177 0 282 133q105 134 105 360q0 227 -105 361t-282 134
t-282 -134zM32 1118l76 325h306l-160 -325h-222z" />
    <glyph glyph-name="Upsilontonos" unicode="&#x38e;" horiz-adv-x="1810" 
d="M34 1118l76 325h306l-160 -325h-222zM977 0v539l-502 904h329l323 -616h7l324 616h324l-503 -904v-539h-302z" />
    <glyph glyph-name="Omegatonos" unicode="&#x38f;" horiz-adv-x="1834" 
d="M1334 1102q-106 114 -287 114t-287 -114q-108 -115 -108 -314q0 -319 274 -489v-299h-577v239h292v8q-136 82 -213 228q-79 150 -79 335q0 293 193 476q194 182 505 182q312 0 506 -182q193 -183 193 -476q0 -185 -80 -335q-77 -145 -212 -228v-8h292v-239h-577v299
q273 170 273 489q0 199 -108 314zM32 1118l76 325h306l-160 -325h-222z" />
    <glyph glyph-name="iotadieresistonos" unicode="&#x390;" horiz-adv-x="658" 
d="M184 68q-87 71 -87 233v800h291v-734q0 -148 146 -148q43 0 84 7l10 -217q-58 -13 -156 -13q-200 0 -288 72zM-159 1298q-39 38 -39 92t39 93q39 38 96 38t96 -38q39 -39 39 -93t-39 -92q-39 -39 -96 -39t-96 39zM523 1298q-39 38 -39 92t39 93q39 38 96 38t96 -38
q39 -39 39 -93t-39 -92q-39 -39 -96 -39t-96 39zM142 1263l26 325h292l-126 -325h-192z" />
    <glyph glyph-name="Alpha" unicode="&#x391;" horiz-adv-x="1413" 
d="M954 350h-507l-110 -350h-310l501 1443h355l502 -1443h-321zM512 576h377l-185 591h-7z" />
    <glyph glyph-name="Beta" unicode="&#x392;" horiz-adv-x="1331" 
d="M119 0v1443h637q203 0 322 -97t119 -263q0 -118 -78 -207q-77 -89 -193 -106v-8q148 -11 244 -108q96 -99 96 -241q0 -191 -134 -302t-365 -111h-648zM421 843h226q121 0 187 51q66 50 66 142q0 87 -58 135q-58 47 -164 47h-257v-375zM690 225q268 0 268 212
q0 207 -275 207h-262v-419h269z" />
    <glyph glyph-name="Gamma" unicode="&#x393;" horiz-adv-x="1114" 
d="M130 0v1443h925v-249h-623v-1194h-302z" />
    <glyph glyph-name="uni0394" unicode="&#x394;" horiz-adv-x="1394" 
d="M52 0v172l467 1271h355l467 -1271v-172h-1289zM369 249h633v8l-311 920h-7l-315 -920v-8z" />
    <glyph glyph-name="Epsilon" unicode="&#x395;" horiz-adv-x="1185" 
d="M1075 0h-956v1443h956v-249h-654v-348h617v-232h-617v-364h654v-250z" />
    <glyph glyph-name="Zeta" unicode="&#x396;" horiz-adv-x="1293" 
d="M88 197l733 989v8h-716v249h1077v-196l-730 -990v-7h750v-250h-1114v197z" />
    <glyph glyph-name="Eta" unicode="&#x397;" horiz-adv-x="1516" 
d="M1071 0v608h-650v-608h-302v1443h302v-586h650v586h302v-1443h-302z" />
    <glyph glyph-name="Theta" unicode="&#x398;" horiz-adv-x="1586" 
d="M536 603v228h511v-228h-511zM1322 1265q188 -199 188 -543t-190 -544q-193 -203 -528 -203t-527 203q-191 200 -191 544t188 543q191 203 530 203t530 -203zM488 1084q-109 -131 -109 -362q0 -232 109 -362q109 -132 304 -132t304 132q109 130 109 362q0 231 -109 362
q-109 132 -304 132q-194 0 -304 -132z" />
    <glyph glyph-name="Iota" unicode="&#x399;" horiz-adv-x="564" 
d="M119 0v1443h302v-1443h-302z" />
    <glyph glyph-name="Kappa" unicode="&#x39a;" horiz-adv-x="1364" 
d="M119 0v1443h302v-658h9l542 658h336l-534 -640l571 -803h-361l-428 603l-135 -162v-441h-302z" />
    <glyph glyph-name="Lambda" unicode="&#x39b;" horiz-adv-x="1383" 
d="M689 1162h-7l-345 -1162h-310l486 1443h355l486 -1443h-320z" />
    <glyph glyph-name="Mu" unicode="&#x39c;" horiz-adv-x="1790" 
d="M1647 0h-269v974h-8l-392 -960h-190l-392 960h-8v-974h-269v1443h350l410 -1023h8l410 1023h350v-1443z" />
    <glyph glyph-name="Nu" unicode="&#x39d;" horiz-adv-x="1485" 
d="M119 0v1443h252l674 -940h8v940h289v-1443h-250l-675 945h-9v-945h-289z" />
    <glyph glyph-name="Xi" unicode="&#x39e;" horiz-adv-x="1283" 
d="M1184 1443v-255h-1087v255h1087zM184 609v238h913v-238h-913zM1184 255v-255h-1087v255h1087z" />
    <glyph glyph-name="Omicron" unicode="&#x39f;" horiz-adv-x="1541" 
d="M1278 1267q188 -201 188 -546q0 -344 -188 -545t-508 -201q-321 0 -508 201q-188 201 -188 545q0 345 188 546q187 201 508 201t508 -201zM488 1082q-106 -134 -106 -361q0 -226 105 -360q105 -133 283 -133q177 0 282 133q105 134 105 360q0 227 -105 361t-282 134
t-282 -134z" />
    <glyph glyph-name="Pi" unicode="&#x3a0;" horiz-adv-x="1496" 
d="M1062 0v1194h-630v-1194h-302v1443h1234v-1443h-302z" />
    <glyph glyph-name="Rho" unicode="&#x3a1;" horiz-adv-x="1291" 
d="M721 1443q223 0 361 -136q139 -136 139 -358q0 -221 -143 -358q-143 -136 -372 -136h-285v-455h-302v1443h602zM421 691h219q130 0 202 67t72 190t-72 190q-71 66 -201 66h-220v-513z" />
    <glyph glyph-name="Sigma" unicode="&#x3a3;" horiz-adv-x="1274" 
d="M459 250h724v-250h-1094v184l382 540l-361 506v213h1047v-249h-670v-8l312 -448v-7l-340 -474v-7z" />
    <glyph glyph-name="Tau" unicode="&#x3a4;" horiz-adv-x="1258" 
d="M469 0v1194h-422v249h1147v-249h-423v-1194h-302z" />
    <glyph glyph-name="Upsilon" unicode="&#x3a5;" horiz-adv-x="1362" 
d="M529 0v539l-502 904h329l323 -616h7l324 616h324l-503 -904v-539h-302z" />
    <glyph glyph-name="Phi" unicode="&#x3a6;" horiz-adv-x="1777" 
d="M1318 1017q-104 113 -292 127v-860q188 14 292 127q105 113 105 303t-105 303zM457 411q104 -113 292 -127v860q-188 -14 -292 -127q-105 -113 -105 -303t105 -303zM749 -106v151q-311 15 -501 198q-192 184 -192 471q0 288 192 472q190 183 501 197v152h277v-152
q311 -14 502 -197q191 -184 191 -472q0 -287 -191 -471q-191 -183 -502 -198v-151h-277z" />
    <glyph glyph-name="Chi" unicode="&#x3a7;" horiz-adv-x="1405" 
d="M500 723v8l-455 712h355l306 -520h8l309 520h337l-472 -718v-7l466 -718h-344l-316 505h-8l-318 -505h-326z" />
    <glyph glyph-name="Psi" unicode="&#x3a8;" horiz-adv-x="1666" 
d="M689 0v309q-278 5 -439 166q-160 160 -160 428v540h287v-542q0 -325 312 -346v888h287v-888q311 21 311 346v542h287v-540q0 -269 -160 -429q-161 -161 -438 -165v-309h-287z" />
    <glyph glyph-name="uni03A9" unicode="&#x3a9;" horiz-adv-x="1572" 
d="M1072 1102q-106 114 -287 114t-287 -114q-108 -115 -108 -314q0 -319 274 -489v-299h-577v239h292v8q-136 82 -213 228q-79 150 -79 335q0 293 193 476q194 182 505 182q312 0 506 -182q193 -183 193 -476q0 -185 -80 -335q-77 -145 -212 -228v-8h292v-239h-577v299
q273 170 273 489q0 199 -108 314z" />
    <glyph glyph-name="Iotadieresis" unicode="&#x3aa;" horiz-adv-x="472" 
d="M74 0v1443h302v-1443h-302zM-80 1600q-39 38 -39 92t39 93q39 38 96 38t96 -38q39 -39 39 -93t-39 -92q-39 -39 -96 -39t-96 39zM339 1600q-39 38 -39 92t39 93q39 38 96 38t96 -38q39 -39 39 -93t-39 -92q-39 -39 -96 -39t-96 39z" />
    <glyph glyph-name="Upsilondieresis" unicode="&#x3ab;" horiz-adv-x="1362" 
d="M529 0v539l-502 904h329l323 -616h7l324 616h324l-503 -904v-539h-302zM375 1600q-39 38 -39 92t39 93q39 38 96 38t96 -38q39 -39 39 -93t-39 -92q-39 -39 -96 -39t-96 39zM794 1600q-39 38 -39 92t39 93q39 38 96 38t96 -38q39 -39 39 -93t-39 -92q-39 -39 -96 -39
t-96 39z" />
    <glyph glyph-name="alphatonos" unicode="&#x3ac;" horiz-adv-x="1341" 
d="M775 313q68 89 68 238q0 147 -68 238t-179 91q-106 0 -171 -90q-64 -89 -64 -238q0 -152 63 -240q62 -88 170 -88q113 0 181 89zM184 140q-122 151 -122 413q0 259 123 411q122 151 332 151q106 0 194 -52q92 -55 135 -149h5v188h288v-761q0 -69 20 -97q20 -29 67 -29
q33 0 56 9l10 -212q-59 -17 -144 -17q-223 0 -279 169q-9 16 -11 21h-5q-106 -197 -334 -197q-212 0 -335 152zM577 1588h306l-155 -325h-232z" />
    <glyph glyph-name="epsilontonos" unicode="&#x3ad;" horiz-adv-x="1173" 
d="M546 1588h306l-155 -325h-232zM206 67q-132 85 -132 232q0 92 53 160q53 67 148 96v6q-179 65 -179 237q0 145 136 234q135 88 355 88q238 0 374 -100q135 -98 155 -281h-286q-18 81 -71 118q-56 39 -164 39q-100 0 -156 -32q-57 -33 -57 -92q0 -113 202 -113h146v-208
h-145q-100 0 -156 -31q-56 -32 -56 -89q0 -125 207 -125q220 0 262 165h298q-24 -176 -180 -283t-391 -107q-230 0 -363 86z" />
    <glyph glyph-name="etatonos" unicode="&#x3ae;" horiz-adv-x="1342" 
d="M952 -346v983q0 114 -56 176q-56 61 -159 61q-101 0 -165 -68q-65 -69 -65 -177v-629h-292v760q0 128 -94 128q-32 0 -66 -10v213q65 16 150 16q211 0 275 -157q8 -23 14 -46h6q95 213 354 213q184 0 287 -109t103 -304v-1050h-292zM550 1588h306l-155 -325h-232z" />
    <glyph glyph-name="iotatonos" unicode="&#x3af;" horiz-adv-x="658" 
d="M183 70q-87 71 -87 233v800h291v-734q0 -148 146 -148q43 0 84 7l10 -217q-58 -13 -156 -13q-200 0 -288 72zM203 1588h306l-155 -325h-232z" />
    <glyph glyph-name="upsilondieresistonos" unicode="&#x3b0;" horiz-adv-x="1174" 
d="M119 1298q-39 38 -39 92t39 93q39 38 96 38t96 -38q39 -39 39 -93t-39 -92q-39 -39 -96 -39t-96 39zM801 1298q-39 38 -39 92t39 93q39 38 96 38t96 -38q39 -39 39 -93t-39 -92q-39 -39 -96 -39t-96 39zM420 1263l26 325h292l-126 -325h-192zM96 454v647h276v-612
q0 -134 50 -197q51 -63 158 -63q230 0 230 351q0 259 -84 521h281q88 -218 88 -511q0 -291 -135 -448q-135 -158 -385 -158q-479 0 -479 470z" />
    <glyph glyph-name="alpha" unicode="&#x3b1;" horiz-adv-x="1343" 
d="M775 312q68 89 68 238q0 147 -68 238t-179 91q-106 0 -171 -90q-64 -89 -64 -238q0 -152 63 -240q62 -88 170 -88q113 0 181 89zM184 139q-122 151 -122 413q0 259 123 411q122 151 332 151q106 0 194 -52q92 -55 135 -149h5v188h288v-761q0 -69 20 -97q20 -29 67 -29
q33 0 56 9l10 -212q-59 -17 -144 -17q-223 0 -279 169q-9 16 -11 21h-5q-106 -197 -334 -197q-212 0 -335 152z" />
    <glyph glyph-name="beta" unicode="&#x3b2;" horiz-adv-x="1260" 
d="M527 909h72q107 0 166 51q58 52 58 146q0 88 -56 139q-55 51 -149 51q-230 0 -230 -278v-464q0 -159 73 -245t209 -86q107 0 170 62q61 61 61 161q0 119 -76 184q-78 66 -223 66h-75v213zM98 980q0 268 132 407q133 139 390 139q219 0 344 -101q125 -102 125 -281
q0 -227 -219 -314v-5q329 -74 329 -400q0 -198 -121 -318t-321 -120q-124 0 -219 51q-97 53 -142 147h-6v-531h-292v1326z" />
    <glyph glyph-name="gamma" unicode="&#x3b3;" horiz-adv-x="1179" 
d="M996 455q-88 -202 -301 -493v-303h-286v282l-395 1160h304l256 -867h6q236 353 236 690q0 91 -11 177h281q11 -80 11 -176q0 -240 -101 -470z" />
    <glyph glyph-name="delta" unicode="&#x3b4;" horiz-adv-x="1183" 
d="M200 119q-143 137 -143 375q0 190 108 320q106 126 281 156v5q-214 99 -214 269q0 134 109 209q108 73 300 73q234 0 380 -67l-10 -214q-171 67 -332 67q-143 0 -143 -88q0 -35 29 -63q30 -29 119 -76q239 -133 341 -271q97 -131 97 -305q0 -241 -146 -385
q-145 -143 -385 -143q-248 0 -391 138zM759 275q63 82 63 229q0 150 -65 233q-62 80 -170 80q-114 0 -177 -88q-61 -85 -61 -229q0 -142 63 -225q63 -82 173 -82q111 0 174 82z" />
    <glyph glyph-name="epsilon" unicode="&#x3b5;" horiz-adv-x="1183" 
d="M206 67q-132 85 -132 232q0 92 53 160q53 67 148 96v6q-179 65 -179 237q0 145 136 234q135 88 355 88q238 0 374 -100q135 -98 155 -281h-286q-18 81 -71 118q-56 39 -164 39q-100 0 -156 -32q-57 -33 -57 -92q0 -113 202 -113h146v-208h-145q-100 0 -156 -31
q-56 -32 -56 -89q0 -125 207 -125q220 0 262 165h298q-24 -176 -180 -283t-391 -107q-230 0 -363 86z" />
    <glyph glyph-name="zeta" unicode="&#x3b6;" horiz-adv-x="990" 
d="M643 -346q67 111 67 201q0 66 -40 104q-42 40 -161 80q-249 82 -352 201q-98 112 -98 299q0 364 477 736v6h-395v231h823v-200q-611 -382 -611 -724q0 -120 57 -181q59 -64 231 -124q195 -70 271 -150q72 -78 72 -211q0 -153 -112 -314z" />
    <glyph glyph-name="eta" unicode="&#x3b7;" horiz-adv-x="1342" 
d="M952 -346v983q0 114 -56 176q-56 61 -159 61q-101 0 -165 -68q-65 -69 -65 -177v-629h-292v760q0 128 -94 128q-32 0 -66 -10v213q65 16 150 16q211 0 275 -157q8 -23 14 -46h6q95 213 354 213q184 0 287 -109t103 -304v-1050h-292z" />
    <glyph glyph-name="theta" unicode="&#x3b8;" horiz-adv-x="1255" 
d="M77 757q0 376 141 573q140 196 409 196q268 0 409 -197q140 -198 140 -573q0 -775 -549 -775q-550 0 -550 776zM818 309q62 110 66 345h-515q4 -235 66 -345t192 -110q129 0 191 110zM884 870q-12 439 -257 439q-246 0 -258 -439h515z" />
    <glyph glyph-name="iota" unicode="&#x3b9;" horiz-adv-x="658" 
d="M183 68q-87 71 -87 233v800h291v-734q0 -148 146 -148q43 0 84 7l10 -217q-58 -13 -156 -13q-200 0 -288 72z" />
    <glyph glyph-name="kappa" unicode="&#x3ba;" horiz-adv-x="1211" 
d="M98 1101h286v-507h5l282 326q95 111 158 148q65 39 158 39q81 0 132 -16v-213q-24 10 -73 10q-45 0 -78 -20q-32 -21 -87 -84l-137 -152l413 -632h-308l-298 462l-167 -181v-281h-286v1101z" />
    <glyph glyph-name="lambda" unicode="&#x3bb;" horiz-adv-x="1195" 
d="M460 1037l-36 96q-39 104 -79 140q-40 34 -118 34q-47 0 -75 -10v212q58 17 135 17q157 0 237 -74q81 -75 161 -300l288 -819q25 -69 55 -95q29 -24 82 -24q32 0 57 9l10 -212q-53 -17 -144 -17q-122 0 -187 46q-70 49 -110 172l-160 480h-5l-265 -692h-287z" />
    <glyph glyph-name="uni03BC" unicode="&#x3bc;" horiz-adv-x="1344" 
d="M98 1101h292v-639q0 -112 56 -173q55 -61 157 -61q104 0 168 68q64 67 64 178v627h292v-761q0 -69 20 -98q20 -28 66 -28q35 0 57 9l10 -212q-58 -17 -148 -17q-207 0 -271 163q-5 13 -10 34h-5q-37 -96 -111 -151q-75 -56 -169 -56q-121 0 -171 80h-5v-410h-292v1447z
" />
    <glyph glyph-name="nu" unicode="&#x3bd;" horiz-adv-x="1168" 
d="M14 1101h304l256 -867h6q222 337 222 690q0 93 -11 177h284q12 -88 12 -176q0 -234 -81 -439q-80 -202 -282 -486h-335z" />
    <glyph glyph-name="xi" unicode="&#x3be;" horiz-adv-x="1015" 
d="M643 -346q67 109 67 204q0 65 -43 103q-45 41 -176 85q-250 85 -346 182q-86 86 -86 223q0 120 75 204q74 82 204 110v5q-216 78 -216 260q0 191 233 246v5h-229v231h824v-203l-130 -16q-230 -27 -323 -77t-93 -146q0 -80 70 -116q67 -35 213 -35h186v-221h-200
q-320 0 -320 -185q0 -76 60 -124q62 -49 234 -108q188 -66 263 -146q74 -79 74 -212q0 -154 -112 -315z" />
    <glyph glyph-name="omicron" unicode="&#x3bf;" horiz-adv-x="1201" 
d="M204 134q-145 153 -145 417q0 263 146 416q145 153 395 153t395 -153t145 -416q0 -264 -145 -417t-395 -153q-251 0 -396 153zM778 301q63 89 63 250q0 158 -64 248q-65 91 -177 91t-177 -91q-65 -90 -65 -248q0 -161 64 -250q63 -89 178 -89t178 89z" />
    <glyph glyph-name="pi" unicode="&#x3c0;" horiz-adv-x="1485" 
d="M274 872h-205v229h1330v-229h-228v-537q0 -121 104 -121q23 0 56 9l10 -212q-56 -17 -150 -17q-163 0 -231 67q-68 68 -68 231v580h-339v-872h-279v872z" />
    <glyph glyph-name="rho" unicode="&#x3c1;" horiz-adv-x="1226" 
d="M799 312q67 89 67 250q0 153 -66 241q-66 87 -181 87q-118 0 -183 -89q-65 -88 -65 -246q0 -155 64 -244q64 -88 177 -88q120 0 187 89zM79 533q0 271 148 430q146 157 396 157t396 -152t146 -410q0 -265 -123 -418t-336 -153q-111 0 -199 53q-89 53 -131 145h-6v-531
h-291v879z" />
    <glyph glyph-name="sigma1" unicode="&#x3c2;" horiz-adv-x="1134" 
d="M643 -346q67 111 67 201q0 66 -40 104q-42 41 -161 81q-242 81 -345 203q-105 124 -105 334q0 248 142 395q143 148 384 148q220 0 350 -112q129 -112 146 -313h-271q-30 195 -216 195q-114 0 -178 -78q-63 -76 -63 -209q0 -121 60 -190q63 -72 228 -130
q195 -69 271 -149q72 -78 72 -211q0 -154 -112 -315z" />
    <glyph glyph-name="sigma" unicode="&#x3c3;" horiz-adv-x="1345" 
d="M199 130q-145 149 -145 400q0 258 158 415q158 156 418 156h654v-229h-289v-6q130 -111 130 -340q0 -247 -147 -396q-146 -149 -390 -149t-389 149zM770 298q67 90 67 244q0 148 -63 234q-62 86 -168 86q-117 0 -185 -88t-68 -239q0 -150 66 -239q65 -88 172 -88
q113 0 179 90z" />
    <glyph glyph-name="tau" unicode="&#x3c4;" horiz-adv-x="1107" 
d="M473 67q-88 70 -88 233v572h-328v229h1014v-229h-396v-505q0 -148 154 -148q46 0 88 7l10 -217q-67 -13 -161 -13q-205 0 -293 71z" />
    <glyph glyph-name="upsilon" unicode="&#x3c5;" horiz-adv-x="1174" 
d="M96 454v647h276v-612q0 -134 50 -197q51 -63 158 -63q230 0 230 351q0 259 -84 521h281q88 -218 88 -511q0 -291 -135 -448q-135 -158 -385 -158q-479 0 -479 470z" />
    <glyph glyph-name="phi" unicode="&#x3c6;" horiz-adv-x="1554" 
d="M643 -19q-266 10 -430 160q-169 156 -169 410q0 256 168 412q164 152 431 159v273h266v-273q268 -7 432 -159q167 -155 167 -412q0 -254 -169 -410q-164 -150 -430 -160v-327h-266v327zM904 204q151 10 237 100q87 92 87 247q0 158 -85 249t-239 98v-694zM648 898
q-154 -7 -239 -98t-85 -249q0 -155 87 -247q86 -90 237 -100v694z" />
    <glyph glyph-name="chi" unicode="&#x3c7;" horiz-adv-x="1230" 
d="M488 364l-212 406q-38 73 -74 98q-30 20 -83 20q-33 0 -61 -10v213q64 16 139 16q114 0 180 -42t124 -154l155 -302h5l258 492h291l-421 -742l193 -370q37 -70 68 -95q32 -27 84 -27q34 0 61 10l5 -213q-56 -16 -139 -16q-116 0 -177 38q-62 38 -117 144l-147 285h-5
l-236 -461h-292z" />
    <glyph glyph-name="psi" unicode="&#x3c8;" horiz-adv-x="1559" 
d="M632 -16q-258 2 -397 123q-139 122 -139 348v646h276v-586q0 -156 61 -221q59 -65 199 -65v1166h276v-1164q287 2 287 349q0 273 -91 521h284q92 -207 92 -507q0 -293 -149 -451q-149 -159 -423 -159v-330h-276v330z" />
    <glyph glyph-name="omega" unicode="&#x3c9;" horiz-adv-x="1629" 
d="M77 521q0 335 154 580h293q-163 -288 -163 -587q0 -288 164 -288q73 0 114 55q41 54 41 152v354h266v-354q0 -98 41 -152q41 -55 115 -55q164 0 164 288q0 299 -163 587h293q154 -245 154 -580q0 -540 -414 -540q-225 0 -319 244h-7q-94 -244 -320 -244q-413 0 -413 540z
" />
    <glyph glyph-name="iotadieresis" unicode="&#x3ca;" horiz-adv-x="658" 
d="M-53 1298q-39 38 -39 92t39 93q39 38 96 38t96 -38q39 -39 39 -93t-39 -92q-39 -39 -96 -39t-96 39zM366 1298q-39 38 -39 92t39 93q39 38 96 38t96 -38q39 -39 39 -93t-39 -92q-39 -39 -96 -39t-96 39zM184 68q-87 71 -87 233v800h291v-734q0 -148 146 -148q43 0 84 7
l10 -217q-58 -13 -156 -13q-200 0 -288 72z" />
    <glyph glyph-name="upsilondieresis" unicode="&#x3cb;" horiz-adv-x="1174" 
d="M258 1298q-39 38 -39 92t39 93q39 38 96 38t96 -38q39 -39 39 -93t-39 -92q-39 -39 -96 -39t-96 39zM677 1298q-39 38 -39 92t39 93q39 38 96 38t96 -38q39 -39 39 -93t-39 -92q-39 -39 -96 -39t-96 39zM96 454v647h276v-612q0 -134 50 -197q51 -63 158 -63
q230 0 230 351q0 259 -84 521h281q88 -218 88 -511q0 -291 -135 -448q-135 -158 -385 -158q-479 0 -479 470z" />
    <glyph glyph-name="omicrontonos" unicode="&#x3cc;" horiz-adv-x="1201" 
d="M204 134q-145 153 -145 417q0 263 146 416q145 153 395 153t395 -153t145 -416q0 -264 -145 -417t-395 -153q-251 0 -396 153zM778 301q63 89 63 250q0 158 -64 248q-65 91 -177 91t-177 -91q-65 -90 -65 -248q0 -161 64 -250q63 -89 178 -89t178 89zM566 1588h306
l-155 -325h-232z" />
    <glyph glyph-name="upsilontonos" unicode="&#x3cd;" horiz-adv-x="1174" 
d="M505 1588h306l-155 -325h-232zM96 454v647h276v-612q0 -134 50 -197q51 -63 158 -63q230 0 230 351q0 259 -84 521h281q88 -218 88 -511q0 -291 -135 -448q-135 -158 -385 -158q-479 0 -479 470z" />
    <glyph glyph-name="omegatonos" unicode="&#x3ce;" horiz-adv-x="1629" 
d="M77 521q0 335 154 580h293q-163 -288 -163 -587q0 -288 164 -288q73 0 114 55q41 54 41 152v354h266v-354q0 -98 41 -152q41 -55 115 -55q164 0 164 288q0 299 -163 587h293q154 -245 154 -580q0 -540 -414 -540q-225 0 -319 244h-7q-94 -244 -320 -244q-413 0 -413 540z
M758 1588h306l-155 -325h-232z" />
    <glyph glyph-name="uni0401" unicode="&#x401;" horiz-adv-x="1205" 
d="M302 1600q-39 38 -39 92t39 93q39 38 96 38t96 -38q39 -39 39 -93t-39 -92q-39 -39 -96 -39t-96 39zM721 1600q-39 38 -39 92t39 93q39 38 96 38t96 -38q39 -39 39 -93t-39 -92q-39 -39 -96 -39t-96 39zM1085 0h-956v1443h956v-249h-654v-348h617v-232h-617v-364h654
v-250z" />
    <glyph glyph-name="uni0402" unicode="&#x402;" horiz-adv-x="1743" 
d="M987 -50v237q36 -12 118 -12q109 0 171 62q63 63 63 174q0 110 -69 174q-69 65 -187 65q-97 0 -179 -46q-81 -45 -117 -117v-487h-302v1194h-423v249h1148v-249h-423v-409h8q130 122 348 122q234 0 369 -136q130 -130 130 -342q0 -225 -136 -359q-137 -137 -373 -137
q-105 0 -146 17z" />
    <glyph glyph-name="uni0403" unicode="&#x403;" horiz-adv-x="1134" 
d="M498 1538l232 310h273l-277 -310h-228zM140 0v1443h930v-250h-627v-1193h-303z" />
    <glyph glyph-name="uni0404" unicode="&#x404;" horiz-adv-x="1479" 
d="M1402 472q-35 -232 -205 -367q-171 -137 -428 -137q-315 0 -499 202q-184 203 -184 552q0 348 185 551q184 202 498 202q253 0 428 -144q175 -145 204 -375h-297q-29 119 -119 191q-92 71 -216 71q-148 0 -248 -99q-101 -100 -119 -270h566v-234h-568q13 -180 116 -286
q100 -104 254 -104q127 0 216 66q88 65 119 181h297z" />
    <glyph glyph-name="uni0405" unicode="&#x405;" horiz-adv-x="1314" 
d="M366 411q10 -88 94 -143q83 -54 204 -54q120 0 196 52q75 51 75 131q0 70 -56 113t-187 72l-188 41q-397 85 -397 403q0 198 155 321q154 121 397 121q250 0 400 -119q148 -118 152 -315h-283q-7 91 -81 144q-73 52 -187 52q-112 0 -180 -49q-69 -49 -69 -129
q0 -66 56 -108q55 -40 180 -69l175 -37q217 -46 316 -144q99 -97 99 -262q0 -210 -158 -333q-158 -124 -427 -124q-261 0 -415 116q-155 117 -162 320h291z" />
    <glyph glyph-name="uni0406" unicode="&#x406;" horiz-adv-x="628" 
d="M129 0v1443h302v-1443h-302z" />
    <glyph glyph-name="uni0407" unicode="&#x407;" horiz-adv-x="628" 
d="M130 0v1443h302v-1443h-302zM-24 1600q-39 38 -39 92t39 93q39 38 96 38t96 -38q39 -39 39 -93t-39 -92q-39 -39 -96 -39t-96 39zM395 1600q-39 38 -39 92t39 93q39 38 96 38t96 -38q39 -39 39 -93t-39 -92q-39 -39 -96 -39t-96 39z" />
    <glyph glyph-name="uni0408" unicode="&#x408;" horiz-adv-x="1163" 
d="M333 425q2 -88 54 -141q53 -53 138 -53q194 0 194 223v989h302v-991q0 -229 -131 -356q-129 -126 -362 -126q-221 0 -355 124q-133 124 -133 331h293z" />
    <glyph glyph-name="uni0409" unicode="&#x409;" horiz-adv-x="2226" 
d="M595 570q-15 -283 -108 -425q-105 -158 -319 -158q-71 0 -109 14v264q37 -8 67 -8q102 0 147 95q35 76 44 238l43 853h993v-484h279q229 0 372 -132q143 -133 143 -347q0 -215 -138 -348q-138 -132 -361 -132h-597v1194h-421zM1568 241q129 0 200 61q71 63 71 178
q0 116 -72 179q-71 62 -201 62h-213v-480h215z" />
    <glyph glyph-name="uni040A" unicode="&#x40a;" horiz-adv-x="2227" 
d="M1594 241q124 0 192 53q68 52 68 148q0 91 -68 140q-68 50 -193 50h-229v-391h230zM442 0h-302v1443h302v-576h620v576h302v-576h280q230 0 372 -118q143 -118 143 -309q0 -197 -138 -319q-138 -121 -362 -121h-597v623h-620v-623z" />
    <glyph glyph-name="uni040B" unicode="&#x40b;" horiz-adv-x="1753" 
d="M899 603q-76 -45 -112 -116v-487h-302v1194h-423v249h1148v-249h-423v-408h8q127 121 339 121q234 0 365 -144q128 -139 128 -376v-387h-302v369q0 133 -66 207t-187 74q-94 0 -173 -47z" />
    <glyph glyph-name="uni040C" unicode="&#x40c;" horiz-adv-x="1377" 
d="M806 1538h-228l232 310h273zM1371 0h-377l-544 634h-8v-634h-302v1443h302v-611h8l533 611h341l-598 -683z" />
    <glyph glyph-name="uni040E" unicode="&#x40e;" horiz-adv-x="1336" 
d="M507 1838q1 -76 49 -122q47 -46 122 -46t122 46q48 46 49 122h176q0 -140 -97 -225q-95 -85 -250 -85t-250 85q-97 85 -97 225h176zM224 2v246q30 -9 88 -9q136 0 204 105l-479 1099h320l317 -802h8l302 802h318l-442 -1030q-98 -228 -206 -323q-118 -103 -305 -103
q-101 0 -125 15z" />
    <glyph glyph-name="uni040F" unicode="&#x40f;" horiz-adv-x="1521" 
d="M140 0v1443h302v-1194h635v1194h302v-1443h-478v-285h-283v285h-478z" />
    <glyph glyph-name="uni0410" unicode="&#x410;" horiz-adv-x="1433" 
d="M964 350h-507l-110 -350h-310l501 1443h355l502 -1443h-321zM522 576h377l-185 591h-7z" />
    <glyph glyph-name="uni0411" unicode="&#x411;" horiz-adv-x="1318" 
d="M1093 125q-138 -125 -361 -125h-592v1443h959v-249h-657v-293h280q227 0 368 -123q142 -123 142 -323q0 -204 -139 -330zM657 241q127 0 196 55q70 55 70 159t-70 161q-69 55 -197 55h-214v-430h215z" />
    <glyph glyph-name="uni0412" unicode="&#x412;" horiz-adv-x="1351" 
d="M129 0v1443h637q203 0 322 -97t119 -263q0 -118 -78 -207q-77 -89 -193 -106v-8q148 -11 244 -108q96 -99 96 -241q0 -191 -134 -302t-365 -111h-648zM431 843h226q121 0 187 51q66 50 66 142q0 87 -58 135q-58 47 -164 47h-257v-375zM700 225q268 0 268 212
q0 207 -275 207h-262v-419h269z" />
    <glyph glyph-name="uni0413" unicode="&#x413;" horiz-adv-x="1134" 
d="M140 0v1443h930v-250h-627v-1193h-303z" />
    <glyph glyph-name="uni0414" unicode="&#x414;" horiz-adv-x="1561" 
d="M545 605q-17 -255 -96 -347v-8h589v945h-455zM298 -285h-274v535h101q72 49 104 141q28 81 38 237l50 815h1023v-1193h180v-535h-273v285h-949v-285z" />
    <glyph glyph-name="uni0415" unicode="&#x415;" horiz-adv-x="1205" 
d="M1085 0h-956v1443h956v-249h-654v-348h617v-232h-617v-364h654v-250z" />
    <glyph glyph-name="uni0416" unicode="&#x416;" horiz-adv-x="2064" 
d="M2046 0h-370l-492 634h-8v-634h-294v634h-8l-495 -634h-362l590 754l-556 689h342l481 -611h8v611h294v-611h8l482 611h336l-552 -684z" />
    <glyph glyph-name="uni0417" unicode="&#x417;" horiz-adv-x="1286" 
d="M444 855h191q108 0 176 55q67 55 67 144t-64 140t-175 51q-112 0 -181 -56t-75 -151h-279q7 204 154 323q146 119 389 119q232 0 375 -108q144 -109 144 -283q0 -122 -75 -213t-197 -117v-8q146 -16 232 -112q86 -95 86 -240q0 -190 -161 -313q-162 -123 -411 -123
q-248 0 -403 122q-155 123 -165 325h289q7 -93 83 -148t199 -55q116 0 188 59q71 58 71 153q0 94 -70 148q-70 53 -194 53h-194v235z" />
    <glyph glyph-name="uni0418" unicode="&#x418;" horiz-adv-x="1541" 
d="M1098 976h-12l-655 -976h-291v1443h301v-977h12l655 977h291v-1443h-301v976z" />
    <glyph glyph-name="uni0419" unicode="&#x419;" horiz-adv-x="1541" 
d="M593 1838q1 -76 49 -122q47 -46 122 -46t122 46q48 46 49 122h176q0 -140 -97 -225q-95 -85 -250 -85t-250 85q-97 85 -97 225h176zM1098 976h-12l-655 -976h-291v1443h301v-977h12l655 977h291v-1443h-301v976z" />
    <glyph glyph-name="uni041A" unicode="&#x41a;" horiz-adv-x="1393" 
d="M1371 0h-377l-544 634h-8v-634h-302v1443h302v-611h8l533 611h341l-598 -683z" />
    <glyph glyph-name="uni041B" unicode="&#x41b;" horiz-adv-x="1480" 
d="M1036 0v1194h-421l-35 -624q-16 -290 -113 -431q-104 -152 -314 -152q-69 0 -109 14v264q37 -8 67 -8q97 0 142 85q40 77 49 248l43 853h993v-1443h-302z" />
    <glyph glyph-name="uni041C" unicode="&#x41c;" horiz-adv-x="1810" 
d="M1657 0h-269v974h-8l-392 -960h-190l-392 960h-8v-974h-269v1443h350l410 -1023h8l410 1023h350v-1443z" />
    <glyph glyph-name="uni041D" unicode="&#x41d;" horiz-adv-x="1536" 
d="M1081 0v608h-650v-608h-302v1443h302v-586h650v586h302v-1443h-302z" />
    <glyph glyph-name="uni041E" unicode="&#x41e;" horiz-adv-x="1566" 
d="M1288 1267q188 -201 188 -546q0 -344 -188 -545t-508 -201q-321 0 -508 201q-188 201 -188 545q0 345 188 546q187 201 508 201t508 -201zM498 1082q-106 -134 -106 -361q0 -226 105 -360q105 -133 283 -133q177 0 282 133q105 134 105 360q0 227 -105 361t-282 134
t-282 -134z" />
    <glyph glyph-name="uni041F" unicode="&#x41f;" horiz-adv-x="1521" 
d="M1078 0v1193h-635v-1193h-303v1443h1239v-1443h-301z" />
    <glyph glyph-name="uni0420" unicode="&#x420;" horiz-adv-x="1310" 
d="M731 1443q223 0 361 -136q139 -136 139 -358q0 -221 -143 -358q-143 -136 -372 -136h-285v-455h-302v1443h602zM431 691h219q130 0 202 67t72 190t-72 190q-71 66 -201 66h-220v-513z" />
    <glyph glyph-name="uni0421" unicode="&#x421;" horiz-adv-x="1479" 
d="M270 170q-184 203 -184 552q0 348 185 551q184 202 498 202q253 0 428 -144q175 -145 204 -375h-297q-29 119 -119 191q-92 71 -216 71q-171 0 -272 -133q-102 -134 -102 -362q0 -231 101 -364q101 -134 274 -134q127 0 216 66q88 65 119 181h297q-35 -232 -205 -367
q-171 -137 -428 -137q-315 0 -499 202z" />
    <glyph glyph-name="uni0422" unicode="&#x422;" horiz-adv-x="1278" 
d="M479 0v1194h-422v249h1147v-249h-423v-1194h-302z" />
    <glyph glyph-name="uni0423" unicode="&#x423;" horiz-adv-x="1336" 
d="M224 2v246q30 -9 88 -9q136 0 204 105l-479 1099h320l317 -802h8l302 802h318l-442 -1030q-98 -228 -206 -323q-118 -103 -305 -103q-101 0 -125 15z" />
    <glyph glyph-name="uni0424" unicode="&#x424;" horiz-adv-x="1781" 
d="M745 1082q-168 -8 -266 -103q-99 -96 -99 -254q0 -160 99 -256q98 -95 266 -102v715zM1300 980q-99 94 -265 102v-715q166 8 265 102q99 97 99 255q0 159 -99 256zM741 124q-304 9 -482 167q-182 162 -182 434q0 270 182 431q178 158 482 168v149h297v-149
q304 -9 482 -167q182 -161 182 -433q0 -271 -182 -432q-179 -158 -482 -168v-154h-297v154z" />
    <glyph glyph-name="uni0425" unicode="&#x425;" horiz-adv-x="1425" 
d="M510 723v8l-455 712h355l306 -520h8l309 520h337l-472 -718v-7l466 -718h-344l-316 505h-8l-318 -505h-326z" />
    <glyph glyph-name="uni0426" unicode="&#x426;" horiz-adv-x="1600" 
d="M1286 -285v285h-1146v1443h302v-1194h635v1194h302v-1194h180v-534h-273z" />
    <glyph glyph-name="uni0427" unicode="&#x427;" horiz-adv-x="1463" 
d="M1019 0v621h-8q-139 -123 -358 -123q-239 0 -385 146q-146 147 -146 389v410h302v-381q0 -143 76 -224t212 -81q106 0 188 44q81 45 119 122v520h302v-1443h-302z" />
    <glyph glyph-name="uni0428" unicode="&#x428;" horiz-adv-x="2008" 
d="M140 1443h302v-1194h410v1194h302v-1194h410v1194h302v-1443h-1726v1443z" />
    <glyph glyph-name="uni0429" unicode="&#x429;" horiz-adv-x="2087" 
d="M1773 -285v285h-1633v1443h302v-1194h410v1194h302v-1194h410v1194h302v-1194h180v-534h-273z" />
    <glyph glyph-name="uni042A" unicode="&#x42a;" horiz-adv-x="1579" 
d="M414 0v1195h-335v248h637v-484h280q229 0 372 -132q143 -133 143 -347q0 -215 -139 -348q-138 -132 -361 -132h-597zM931 241q130 0 200 61q71 62 71 178t-71 179q-71 62 -201 62h-214v-480h215z" />
    <glyph glyph-name="uni042B" unicode="&#x42b;" horiz-adv-x="1839" 
d="M1384 0v1443h302v-1443h-302zM140 1443h302v-484h280q229 0 372 -132q143 -133 143 -347q0 -215 -139 -348q-138 -132 -361 -132h-597v1443zM657 241q130 0 200 61q71 62 71 178t-71 179q-71 62 -201 62h-214v-480h215z" />
    <glyph glyph-name="uni042C" unicode="&#x42c;" horiz-adv-x="1305" 
d="M140 1443h302v-484h280q229 0 372 -132q143 -133 143 -347q0 -215 -139 -348q-138 -132 -361 -132h-597v1443zM657 241q130 0 200 61q71 62 71 178t-71 179q-71 62 -201 62h-214v-480h215z" />
    <glyph glyph-name="uni042D" unicode="&#x42d;" horiz-adv-x="1479" 
d="M283 105q-173 136 -208 367h297q32 -116 122 -181q91 -66 219 -66q152 0 252 104q100 106 113 286h-569v234h566q-16 170 -116 270q-98 99 -245 99q-126 0 -219 -71q-94 -72 -122 -191h-297q28 230 207 375q177 144 431 144q312 0 495 -202q182 -203 182 -551
q0 -349 -182 -552q-181 -202 -495 -202q-258 0 -431 137z" />
    <glyph glyph-name="uni042E" unicode="&#x42e;" horiz-adv-x="2102" 
d="M862 136q-179 171 -209 472h-211v-608h-302v1443h302v-586h213q35 291 215 457q179 166 461 166q315 0 499 -204t184 -554t-184 -555q-183 -204 -499 -204q-288 0 -469 173zM1056 1088q-103 -136 -103 -366t102 -366q102 -137 275 -137q172 0 274 137q102 136 102 366
t-102 366t-274 136q-171 0 -274 -136z" />
    <glyph glyph-name="uni042F" unicode="&#x42f;" horiz-adv-x="1380" 
d="M938 1206h-249q-121 0 -189 -61q-69 -62 -69 -169q0 -109 68 -169q68 -61 190 -61h249v460zM388 0h-334l380 563q-142 44 -226 153q-86 111 -86 261q0 210 142 337q143 129 382 129h592v-1443h-300v521h-207z" />
    <glyph glyph-name="uni0430" unicode="&#x430;" horiz-adv-x="1149" 
d="M701 257q71 58 71 147v81l-231 -16q-187 -12 -187 -137q0 -61 48 -96q47 -36 127 -36q103 0 172 57zM169 78q-106 93 -106 239q0 149 112 234q110 83 322 96l275 17v73q0 79 -51 122q-51 42 -142 42q-78 0 -131 -38q-52 -37 -63 -98h-267q6 158 136 256q131 99 337 99
q212 0 340 -100t128 -265v-755h-282v170h-6q-44 -85 -138 -135q-91 -48 -199 -48q-161 0 -265 91z" />
    <glyph glyph-name="uni0431" unicode="&#x431;" horiz-adv-x="1244" 
d="M221 143q-144 169 -144 491q0 459 153 671q145 201 456 212l125 4q220 8 289 46v-228q-45 -42 -271 -48l-118 -4q-201 -7 -294 -110q-86 -96 -114 -320h8q106 206 372 206q223 0 356 -142q134 -142 134 -383q0 -260 -146 -411t-397 -151q-267 0 -409 167zM808 291
q66 85 66 240q0 148 -66 231q-66 82 -183 82q-118 0 -183 -82q-66 -83 -66 -231q0 -155 65 -240q65 -84 184 -84q118 0 183 84z" />
    <glyph glyph-name="uni0432" unicode="&#x432;" horiz-adv-x="1151" 
d="M394 914v-259h175q172 0 172 130q0 129 -156 129h-191zM394 483v-295h206q183 0 183 148q0 147 -198 147h-191zM108 1101h554q170 0 267 -74t97 -204q0 -88 -57 -156q-56 -68 -141 -82v-8q110 -14 178 -84q69 -72 69 -174q0 -146 -108 -232q-110 -87 -295 -87h-564v1101z
" />
    <glyph glyph-name="uni0433" unicode="&#x433;" horiz-adv-x="938" 
d="M399 880v-880h-291v1101h764v-221h-473z" />
    <glyph glyph-name="uni0434" unicode="&#x434;" horiz-adv-x="1328" 
d="M845 881h-336l-25 -356q-15 -196 -82 -295v-8h443v659zM19 -285v507h85q104 58 122 321l36 558h873v-879h164v-507h-266v285h-748v-285h-266z" />
    <glyph glyph-name="uni0435" unicode="&#x435;" horiz-adv-x="1179" 
d="M432 836q-66 -66 -74 -172h475q-4 108 -68 173t-166 65q-100 0 -167 -66zM1106 336q-24 -160 -161 -257q-137 -98 -338 -98q-251 0 -396 151q-144 151 -144 414t143 418q144 156 386 156q238 0 378 -148q141 -148 141 -399v-90h-760v-18q0 -119 71 -193q71 -73 186 -73
q83 0 143 37q61 36 82 100h269z" />
    <glyph glyph-name="uni0436" unicode="&#x436;" horiz-adv-x="1708" 
d="M1695 0h-348l-343 476h-8v-476h-288v476h-8l-344 -476h-343l424 583l-411 518h336l338 -446h8v446h288v-446h8l337 446h333l-406 -511z" />
    <glyph glyph-name="uni0437" unicode="&#x437;" horiz-adv-x="1103" 
d="M206 75q-131 98 -147 270h280q38 -142 210 -142q90 0 140 37q49 37 49 100q0 129 -188 129h-153v192h145q164 0 164 120q0 56 -40 89q-43 34 -122 34q-167 0 -188 -131h-275q16 164 139 258t323 94q215 0 332 -83q115 -82 115 -230q0 -83 -45 -145q-45 -63 -122 -84v-8
q206 -52 206 -245q0 -163 -129 -258t-351 -95q-213 0 -343 98z" />
    <glyph glyph-name="uni0438" unicode="&#x438;" horiz-adv-x="1254" 
d="M108 0v1101h286v-697h8l456 697h286v-1101h-286v705h-8l-456 -705h-286z" />
    <glyph glyph-name="uni0439" unicode="&#x439;" horiz-adv-x="1254" 
d="M454 1587q2 -81 48 -132q48 -52 126 -52q77 0 125 52q46 51 48 132h179q0 -148 -97 -238q-97 -91 -255 -91t-255 91q-97 90 -97 238h178zM108 0v1101h286v-697h8l456 697h286v-1101h-286v705h-8l-456 -705h-286z" />
    <glyph glyph-name="uni043A" unicode="&#x43a;" horiz-adv-x="1153" 
d="M1140 0h-353l-380 476h-8v-476h-291v1101h291v-446h8l374 446h334l-445 -511z" />
    <glyph glyph-name="uni043B" unicode="&#x43b;" horiz-adv-x="1215" 
d="M502 525q-15 -263 -94 -391q-91 -147 -283 -147q-58 0 -93 14v247q32 -8 63 -8q74 0 110 86q30 71 38 217l32 558h830v-1101h-291v880h-289z" />
    <glyph glyph-name="uni043C" unicode="&#x43c;" horiz-adv-x="1565" 
d="M108 0v1101h377l295 -728h8l294 728h373v-1101h-275v739h-8l-289 -679h-203l-290 679h-8v-739h-274z" />
    <glyph glyph-name="uni043D" unicode="&#x43d;" horiz-adv-x="1241" 
d="M840 454h-441v-454h-291v1101h291v-425h441v425h291v-1101h-291v454z" />
    <glyph glyph-name="uni043E" unicode="&#x43e;" horiz-adv-x="1226" 
d="M213 133q-146 152 -146 418q0 263 147 417q147 152 396 152q250 0 396 -152q147 -153 147 -417q0 -267 -146 -419q-145 -151 -397 -151q-251 0 -397 152zM791 296q65 91 65 255q0 162 -66 254q-65 91 -180 91q-116 0 -181 -91q-66 -92 -66 -254q0 -164 66 -255
q65 -90 181 -90t181 90z" />
    <glyph glyph-name="uni043F" unicode="&#x43f;" horiz-adv-x="1231" 
d="M830 880h-431v-880h-291v1101h1013v-1101h-291v880z" />
    <glyph glyph-name="uni0440" unicode="&#x440;" horiz-adv-x="1267" 
d="M1075 964q121 -151 121 -413t-120 -413q-121 -151 -328 -151q-247 0 -342 198h-6v-531h-292v1447h288v-188h6q44 93 135 147t207 54q210 0 331 -150zM829 312q68 89 68 239q0 148 -68 238q-69 89 -182 89q-112 0 -180 -90t-68 -238t68 -238q68 -89 180 -89q114 0 182 89z
" />
    <glyph glyph-name="uni0441" unicode="&#x441;" horiz-adv-x="1161" 
d="M823 727q-18 75 -73 118q-58 45 -142 45q-113 0 -179 -90q-66 -91 -66 -249q0 -160 66 -250q66 -89 180 -89q176 0 216 161h273q-21 -180 -153 -286t-339 -106q-247 0 -391 152q-146 154 -146 418q0 261 145 415t390 154q207 0 341 -111q131 -107 152 -282h-274z" />
    <glyph glyph-name="uni0442" unicode="&#x442;" horiz-adv-x="1041" 
d="M995 880h-330v-880h-291v880h-330v221h951v-221z" />
    <glyph glyph-name="uni0443" unicode="&#x443;" horiz-adv-x="1156" 
d="M137 -398v226q15 -3 66 -3q162 0 195 126l10 42l-386 1108h320l238 -864h6l239 864h308l-381 -1123q-70 -210 -184 -295q-113 -85 -320 -85q-89 0 -111 4z" />
    <glyph glyph-name="uni0444" unicode="&#x444;" horiz-adv-x="1614" 
d="M666 896q-139 -5 -220 -95q-82 -93 -82 -250q0 -159 82 -251q80 -90 220 -94v690zM1166 802q-80 89 -220 94v-690q138 4 219 95q83 93 83 250q0 159 -82 251zM664 -16q-274 7 -434 157q-161 152 -161 410q0 256 163 409q160 151 432 157v339h285v-339q274 -7 433 -156
q161 -152 161 -411q0 -256 -162 -409q-161 -151 -432 -157v-330h-285v330z" />
    <glyph glyph-name="uni0445" unicode="&#x445;" horiz-adv-x="1124" 
d="M551 385l-211 -385h-308l348 549l-345 552h329l202 -375h6l201 375h317l-346 -545l344 -556h-319l-212 385h-6z" />
    <glyph glyph-name="uni0446" unicode="&#x446;" horiz-adv-x="1311" 
d="M1016 -285v285h-908v1101h291v-879h426v879h291v-879h166v-507h-266z" />
    <glyph glyph-name="uni0447" unicode="&#x447;" horiz-adv-x="1185" 
d="M784 0v480h-8q-107 -129 -305 -129q-175 0 -279 110q-105 110 -105 296v344h291v-303q0 -96 50 -150q49 -54 134 -54q148 0 222 111v396h291v-1101h-291z" />
    <glyph glyph-name="uni0448" unicode="&#x448;" horiz-adv-x="1723" 
d="M108 1101h291v-879h316v879h291v-879h316v879h291v-1101h-1505v1101z" />
    <glyph glyph-name="uni0449" unicode="&#x449;" horiz-adv-x="1801" 
d="M1507 -285v285h-1399v1101h291v-879h316v879h291v-879h316v879h291v-879h160v-507h-266z" />
    <glyph glyph-name="uni044A" unicode="&#x44a;" horiz-adv-x="1321" 
d="M329 0v880h-285v221h576v-320h214q195 0 311 -106q115 -106 115 -285t-115 -284q-116 -106 -311 -106h-505zM620 564v-345h168q83 0 133 48q50 47 50 125q0 77 -50 125q-50 47 -133 47h-168z" />
    <glyph glyph-name="uni044B" unicode="&#x44b;" horiz-adv-x="1549" 
d="M1148 1101h291v-1101h-291v1101zM399 564v-345h168q83 0 133 48q50 47 50 125q0 77 -50 125q-50 47 -133 47h-168zM108 1101h291v-320h214q195 0 311 -106q115 -106 115 -285t-115 -284q-116 -106 -311 -106h-505v1101z" />
    <glyph glyph-name="uni044C" unicode="&#x44c;" horiz-adv-x="1100" 
d="M399 564v-345h168q83 0 133 48q50 47 50 125q0 77 -50 125q-50 47 -133 47h-168zM108 1101h291v-320h214q195 0 311 -106q115 -106 115 -285t-115 -284q-116 -106 -311 -106h-505v1101z" />
    <glyph glyph-name="uni044D" unicode="&#x44d;" horiz-adv-x="1161" 
d="M334 372q42 -160 221 -160q99 0 164 67q67 69 76 190h-402v192h398q-15 106 -80 168q-63 61 -155 61q-86 0 -145 -45q-56 -43 -75 -118h-273q21 175 153 282q135 111 344 111q243 0 386 -154q144 -154 144 -415q0 -264 -144 -418q-143 -152 -388 -152q-209 0 -342 106
q-133 105 -154 285h272z" />
    <glyph glyph-name="uni044E" unicode="&#x44e;" horiz-adv-x="1701" 
d="M726 102q-140 126 -165 352h-162v-454h-291v1101h291v-425h165q33 212 172 330q140 119 356 119q249 0 393 -152q145 -154 145 -422q0 -271 -144 -424q-142 -151 -394 -151q-226 0 -366 126zM1268 297q63 90 63 254q0 163 -63 253q-64 90 -177 90t-177 -90
q-63 -90 -63 -253q0 -164 63 -254t177 -90t177 90z" />
    <glyph glyph-name="uni044F" unicode="&#x44f;" horiz-adv-x="1138" 
d="M743 564v319h-182q-81 0 -129 -44q-48 -45 -48 -119q0 -69 48 -112q49 -44 129 -44h182zM743 358h-126l-246 -358h-324l290 402q-114 36 -177 117q-65 84 -65 201q0 175 119 278t319 103h495v-1101h-285v358z" />
    <glyph glyph-name="uni0451" unicode="&#x451;" horiz-adv-x="1179" 
d="M432 836q-66 -66 -74 -172h475q-4 108 -68 173t-166 65q-100 0 -167 -66zM1106 336q-24 -160 -161 -257q-137 -98 -338 -98q-251 0 -396 151q-144 151 -144 414t143 418q144 156 386 156q238 0 378 -148q141 -148 141 -399v-90h-760v-18q0 -119 71 -193q71 -73 186 -73
q83 0 143 37q61 36 82 100h269zM290 1298q-39 38 -39 92t39 93q39 38 96 38t96 -38q39 -39 39 -93t-39 -92q-39 -39 -96 -39t-96 39zM709 1298q-39 38 -39 92t39 93q39 38 96 38t96 -38q39 -39 39 -93t-39 -92q-39 -39 -96 -39t-96 39z" />
    <glyph glyph-name="uni0452" unicode="&#x452;" horiz-adv-x="1291" 
d="M1184 -39q0 -337 -392 -337q-60 0 -78 3v216q6 -1 37 -1q77 0 109 30q32 29 32 98v673q0 109 -60 171q-60 61 -163 61q-106 0 -173 -69t-67 -181v-625h-292v1242h-90v150h90v165h287v-165h231v-150h-231v-323h12q43 94 137 146q92 52 214 52q182 0 289 -110
q108 -111 108 -303v-743z" />
    <glyph glyph-name="uni0453" unicode="&#x453;" horiz-adv-x="954" 
d="M367 1263l221 310h273l-263 -310h-231zM399 880v-880h-291v1101h764v-221h-473z" />
    <glyph glyph-name="uni0454" unicode="&#x454;" horiz-adv-x="1161" 
d="M1098 372q-22 -180 -153 -285q-133 -106 -339 -106q-247 0 -391 152q-146 154 -146 418q0 261 145 415t390 154q207 0 341 -111q131 -107 152 -282h-274q-19 75 -74 118q-58 45 -144 45q-93 0 -157 -61q-65 -62 -79 -168h397v-192h-401q9 -121 76 -190q65 -67 165 -67
q177 0 219 160h273z" />
    <glyph glyph-name="uni0455" unicode="&#x455;" horiz-adv-x="1098" 
d="M215 1026q126 94 335 94q204 0 329 -96q125 -95 128 -253h-270q-5 65 -56 104q-51 38 -135 38q-79 0 -127 -32q-48 -33 -48 -86q0 -81 147 -115l207 -45q166 -38 237 -107q72 -69 72 -192q0 -160 -134 -258q-134 -97 -351 -97q-215 0 -347 97q-129 94 -140 255h285
q22 -145 210 -145q87 0 137 32q50 31 50 85q0 43 -31 68q-32 25 -107 43l-203 46q-314 71 -314 315q0 155 126 249z" />
    <glyph glyph-name="uni0456" unicode="&#x456;" horiz-adv-x="520" 
d="M108 1101h292v-1101h-292v1101zM143 1265q-46 44 -46 109t46 109q46 43 111 43q66 0 112 -43q46 -44 46 -109t-46 -109t-112 -44q-65 0 -111 44z" />
    <glyph glyph-name="uni0457" unicode="&#x457;" horiz-adv-x="527" 
d="M113 1101h292v-1101h-292v1101zM-46 1298q-39 38 -39 92t39 93q39 38 96 38t96 -38q39 -39 39 -93t-39 -92q-39 -39 -96 -39t-96 39zM373 1298q-39 38 -39 92t39 93q39 38 96 38t96 -38q39 -39 39 -93t-39 -92q-39 -39 -96 -39t-96 39z" />
    <glyph glyph-name="uni0458" unicode="&#x458;" horiz-adv-x="532" 
d="M407 -37q0 -339 -391 -339q-60 0 -78 3v216q6 -1 37 -1q76 0 108 30q32 29 32 98v1131h292v-1138zM150 1265q-46 44 -46 109t46 109q46 43 111 43q66 0 112 -43q46 -44 46 -109t-46 -109t-112 -44q-65 0 -111 44z" />
    <glyph glyph-name="uni0459" unicode="&#x459;" horiz-adv-x="1806" 
d="M502 525q-15 -263 -94 -391q-91 -147 -283 -147q-58 0 -93 14v247q32 -8 63 -8q74 0 110 86q30 71 38 217l32 558h830v-320h214q195 0 311 -106q115 -106 115 -285t-115 -284q-116 -106 -311 -106h-505v880h-289zM1105 564v-345h168q83 0 133 48q49 47 49 125
q0 77 -50 125q-50 47 -132 47h-168z" />
    <glyph glyph-name="uni045A" unicode="&#x45a;" horiz-adv-x="1817" 
d="M1116 502v-285h187q76 0 122 40q45 39 45 102t-46 103t-121 40h-187zM825 494h-426v-494h-291v1101h291v-390h426v390h291v-385h219q193 0 307 -97t114 -261t-114 -261t-307 -97h-510v494z" />
    <glyph glyph-name="uni045B" unicode="&#x45b;" horiz-adv-x="1291" 
d="M436 919q43 94 137 146q92 52 214 52q182 0 289 -110q108 -111 108 -303v-704h-292v643q0 109 -60 171q-60 61 -163 61q-106 0 -173 -69t-67 -181v-625h-292v1242h-90v150h90v165h287v-165h231v-150h-231v-323h12z" />
    <glyph glyph-name="uni045C" unicode="&#x45c;" horiz-adv-x="1153" 
d="M713 1263h-231l221 310h273zM1140 0h-353l-380 476h-8v-476h-291v1101h291v-446h8l374 446h334l-445 -511z" />
    <glyph glyph-name="uni045E" unicode="&#x45e;" horiz-adv-x="1156" 
d="M409 1587q2 -81 48 -132q48 -52 126 -52q77 0 125 52q46 51 48 132h179q0 -148 -97 -238q-97 -91 -255 -91t-255 91q-97 90 -97 238h178zM137 -398v226q15 -3 66 -3q162 0 195 126l10 42l-386 1108h320l238 -864h6l239 864h308l-381 -1123q-70 -210 -184 -295
q-113 -85 -320 -85q-89 0 -111 4z" />
    <glyph glyph-name="uni045F" unicode="&#x45f;" horiz-adv-x="1231" 
d="M748 0v-285h-266v285h-374v1101h291v-879h431v879h291v-1101h-373z" />
    <glyph glyph-name="uni0490" unicode="&#x490;" horiz-adv-x="1134" 
d="M443 0h-303v1443h647v285h283v-535h-627v-1193z" />
    <glyph glyph-name="uni0491" unicode="&#x491;" horiz-adv-x="938" 
d="M399 880v-880h-291v1101h498v285h266v-506h-473z" />
    <glyph glyph-name="uni0E3F" unicode="&#xe3f;" horiz-adv-x="1326" 
d="M682 226q230 12 230 211q0 193 -230 206v-417zM542 225v419h-142v-419h142zM400 843h142v376h-142v-376zM682 848q181 28 181 183q0 79 -47 127q-48 48 -134 58v-368zM890 757q144 -11 237 -108t93 -236q0 -191 -133 -302q-134 -111 -365 -111h-40v-136h-140v136h-438
v1443h438v147h140v-147h22q209 0 329 -96q118 -96 118 -264q0 -115 -75 -203t-186 -105v-18z" />
    <glyph glyph-name="uni1E00" unicode="&#x1e00;" horiz-adv-x="1413" 
d="M954 350h-507l-110 -350h-310l501 1443h355l502 -1443h-321zM512 576h377l-185 591h-7zM551 -516q-66 64 -66 153t66 153q65 64 155 64q91 0 156 -64t65 -153t-65 -153t-156 -64q-90 0 -155 64zM778 -434q30 30 30 71t-30 71t-72 30q-41 0 -72 -30q-30 -30 -30 -71
t30 -71q31 -29 72 -29q42 0 72 29z" />
    <glyph glyph-name="uni1E01" unicode="&#x1e01;" horiz-adv-x="1147" 
d="M691 257q71 58 71 147v81l-231 -16q-187 -12 -187 -137q0 -61 48 -96q47 -36 127 -36q103 0 172 57zM159 78q-106 93 -106 239q0 149 112 234q110 83 322 96l275 17v73q0 79 -51 122q-51 42 -142 42q-78 0 -131 -38q-52 -37 -63 -98h-267q6 158 136 256q131 99 337 99
q212 0 340 -100t128 -265v-755h-282v170h-6q-44 -85 -138 -135q-91 -48 -199 -48q-161 0 -265 91zM411 -516q-66 64 -66 153t66 153q65 64 155 64q91 0 156 -64t65 -153t-65 -153t-156 -64q-90 0 -155 64zM638 -434q30 30 30 71t-30 71t-72 30q-41 0 -72 -30
q-30 -30 -30 -71t30 -71q31 -29 72 -29q42 0 72 29z" />
    <glyph glyph-name="uni1E02" unicode="&#x1e02;" horiz-adv-x="1319" 
d="M519 1605q-43 43 -43 105t43 105t106 43t106 -43t43 -105t-43 -105q-43 -44 -106 -44t-106 44zM119 0v1443h637q203 0 322 -97t119 -263q0 -118 -78 -207q-77 -89 -193 -106v-8q148 -11 244 -108q96 -99 96 -241q0 -191 -134 -302t-365 -111h-648zM421 843h226
q121 0 187 51q66 50 66 142q0 87 -58 135q-58 47 -164 47h-257v-375zM690 225q268 0 268 212q0 207 -275 207h-262v-419h269z" />
    <glyph glyph-name="uni1E03" unicode="&#x1e03;" horiz-adv-x="1252" 
d="M146 1674q-43 43 -43 105t43 105t106 43t106 -43t43 -105t-43 -105q-43 -44 -106 -44t-106 44zM399 188h-6v-188h-287v1512h292v-599h6q97 201 340 201q209 0 329 -150q120 -151 120 -413t-120 -413t-328 -151q-249 0 -346 201zM465 788q-68 -90 -69 -238q1 -148 69 -237
q69 -90 181 -90q113 0 181 89q67 89 67 239q0 149 -68 238q-67 89 -180 89q-112 0 -181 -90z" />
    <glyph glyph-name="uni1E04" unicode="&#x1e04;" horiz-adv-x="1319" 
d="M519 -414q-43 43 -43 105t43 105t106 43t106 -43t43 -105t-43 -105q-43 -44 -106 -44t-106 44zM119 0v1443h637q203 0 322 -97t119 -263q0 -118 -78 -207q-77 -89 -193 -106v-8q148 -11 244 -108q96 -99 96 -241q0 -191 -134 -302t-365 -111h-648zM421 843h226
q121 0 187 51q66 50 66 142q0 87 -58 135q-58 47 -164 47h-257v-375zM690 225q268 0 268 212q0 207 -275 207h-262v-419h269z" />
    <glyph glyph-name="uni1E05" unicode="&#x1e05;" horiz-adv-x="1252" 
d="M535 -414q-43 43 -43 105t43 105t106 43t106 -43t43 -105t-43 -105q-43 -44 -106 -44t-106 44zM399 188h-6v-188h-287v1512h292v-599h6q97 201 340 201q209 0 329 -150q120 -151 120 -413t-120 -413t-328 -151q-249 0 -346 201zM465 788q-68 -90 -69 -238q1 -148 69 -237
q69 -90 181 -90q113 0 181 89q67 89 67 239q0 149 -68 238q-67 89 -180 89q-112 0 -181 -90z" />
    <glyph glyph-name="uni1E06" unicode="&#x1e06;" horiz-adv-x="1319" 
d="M119 0v1443h637q203 0 322 -97t119 -263q0 -118 -78 -207q-77 -89 -193 -106v-8q148 -11 244 -108q96 -99 96 -241q0 -191 -134 -302t-365 -111h-648zM421 843h226q121 0 187 51q66 50 66 142q0 87 -58 135q-58 47 -164 47h-257v-375zM690 225q268 0 268 212
q0 207 -275 207h-262v-419h269zM971 -373h-692v143h692v-143z" />
    <glyph glyph-name="uni1E07" unicode="&#x1e07;" horiz-adv-x="1252" 
d="M987 -373h-692v143h692v-143zM399 188h-6v-188h-287v1512h292v-599h6q97 201 340 201q209 0 329 -150q120 -151 120 -413t-120 -413t-328 -151q-249 0 -346 201zM465 788q-68 -90 -69 -238q1 -148 69 -237q69 -90 181 -90q113 0 181 89q67 89 67 239q0 149 -68 238
q-67 89 -180 89q-112 0 -181 -90z" />
    <glyph glyph-name="uni1E08" unicode="&#x1e08;" horiz-adv-x="1459" 
d="M853 1554h-228l232 310h273zM1392 501q-24 -224 -176 -365q-151 -139 -389 -158l-40 -94q88 0 136 -42q49 -41 49 -117q0 -86 -64 -136q-64 -49 -177 -50q-88 0 -140 16v120q40 -14 111 -14q107 0 107 55q0 31 -29 43q-28 13 -96 13h-56v101l48 106q-281 26 -441 221
q-161 197 -161 522q0 347 185 547q183 199 498 199q262 0 439 -150q178 -152 195 -393h-294q-21 133 -114 213q-94 80 -226 80q-171 0 -273 -133q-102 -135 -102 -362q0 -231 101 -364q101 -134 275 -134q134 0 225 74t115 202h294z" />
    <glyph glyph-name="uni1E09" unicode="&#x1e09;" horiz-adv-x="1142" 
d="M693 1263h-231l221 310h273zM1094 400q-12 -175 -126 -286t-301 -130l-42 -100q88 0 136 -42q49 -41 49 -117q0 -86 -64 -136q-64 -49 -177 -50q-88 0 -140 16v120q40 -14 111 -14q107 0 107 55q0 31 -29 43q-28 13 -96 13h-56v101l51 112q-214 25 -336 174
q-124 150 -124 392q0 261 146 415q145 154 391 154q218 0 355 -121q133 -117 144 -304h-272q-12 88 -70 140q-60 55 -153 55q-113 0 -179 -90q-66 -91 -66 -249q0 -160 66 -250q66 -89 180 -89q193 0 223 188h272z" />
    <glyph glyph-name="uni1E0A" unicode="&#x1e0a;" horiz-adv-x="1438" 
d="M537 1605q-43 43 -43 105t43 105t106 43t106 -43t43 -105t-43 -105q-43 -44 -106 -44t-106 44zM675 1443q326 0 506 -186q182 -188 182 -530q0 -343 -182 -535q-181 -192 -506 -192h-556v1443h556zM421 250h218q203 0 309 121q107 122 107 355q0 226 -108 347t-308 121
h-218v-944z" />
    <glyph glyph-name="uni1E0B" unicode="&#x1e0b;" horiz-adv-x="1249" 
d="M899 1674q-43 43 -43 105t43 105t106 43t106 -43t43 -105t-43 -105q-43 -44 -106 -44t-106 44zM180 139q-123 153 -123 413q0 258 123 410t329 152q118 0 208 -55q87 -53 129 -146h6v599h292v-1512h-288v188h-5q-41 -92 -131 -146q-92 -55 -212 -55q-206 0 -328 152z
M424 790q-68 -89 -68 -239q0 -151 68 -240q67 -88 181 -88q113 0 181 89t68 238t-68 239q-68 89 -181 89q-114 0 -181 -88z" />
    <glyph glyph-name="uni1E0C" unicode="&#x1e0c;" horiz-adv-x="1438" 
d="M537 -414q-43 43 -43 105t43 105t106 43t106 -43t43 -105t-43 -105q-43 -44 -106 -44t-106 44zM675 1443q326 0 506 -186q182 -188 182 -530q0 -343 -182 -535q-181 -192 -506 -192h-556v1443h556zM421 250h218q203 0 309 121q107 122 107 355q0 226 -108 347t-308 121
h-218v-944z" />
    <glyph glyph-name="uni1E0D" unicode="&#x1e0d;" horiz-adv-x="1249" 
d="M488 -414q-43 43 -43 105t43 105t106 43t106 -43t43 -105t-43 -105q-43 -44 -106 -44t-106 44zM180 139q-123 153 -123 413q0 258 123 410t329 152q118 0 208 -55q87 -53 129 -146h6v599h292v-1512h-288v188h-5q-41 -92 -131 -146q-92 -55 -212 -55q-206 0 -328 152z
M424 790q-68 -89 -68 -239q0 -151 68 -240q67 -88 181 -88q113 0 181 89t68 238t-68 239q-68 89 -181 89q-114 0 -181 -88z" />
    <glyph glyph-name="uni1E0E" unicode="&#x1e0e;" horiz-adv-x="1438" 
d="M989 -373h-692v143h692v-143zM675 1443q326 0 506 -186q182 -188 182 -530q0 -343 -182 -535q-181 -192 -506 -192h-556v1443h556zM421 250h218q203 0 309 121q107 122 107 355q0 226 -108 347t-308 121h-218v-944z" />
    <glyph glyph-name="uni1E0F" unicode="&#x1e0f;" horiz-adv-x="1249" 
d="M940 -373h-692v143h692v-143zM180 139q-123 153 -123 413q0 258 123 410t329 152q118 0 208 -55q87 -53 129 -146h6v599h292v-1512h-288v188h-5q-41 -92 -131 -146q-92 -55 -212 -55q-206 0 -328 152zM424 790q-68 -89 -68 -239q0 -151 68 -240q67 -88 181 -88
q113 0 181 89t68 238t-68 239q-68 89 -181 89q-114 0 -181 -88z" />
    <glyph glyph-name="uni1E10" unicode="&#x1e10;" horiz-adv-x="1438" 
d="M404 -500l121 345h256l-160 -345h-217zM675 1443q326 0 506 -186q182 -188 182 -530q0 -343 -182 -535q-181 -192 -506 -192h-556v1443h556zM421 250h218q203 0 309 121q107 122 107 355q0 226 -108 347t-308 121h-218v-944z" />
    <glyph glyph-name="uni1E11" unicode="&#x1e11;" horiz-adv-x="1249" 
d="M355 -500l121 345h256l-160 -345h-217zM180 139q-123 153 -123 413q0 258 123 410t329 152q118 0 208 -55q87 -53 129 -146h6v599h292v-1512h-288v188h-5q-41 -92 -131 -146q-92 -55 -212 -55q-206 0 -328 152zM424 790q-68 -89 -68 -239q0 -151 68 -240q67 -88 181 -88
q113 0 181 89t68 238t-68 239q-68 89 -181 89q-114 0 -181 -88z" />
    <glyph glyph-name="uni1E12" unicode="&#x1e12;" horiz-adv-x="1438" 
d="M675 1443q326 0 506 -186q182 -188 182 -530q0 -343 -182 -535q-181 -192 -506 -192h-556v1443h556zM421 250h218q203 0 309 121q107 122 107 355q0 226 -108 347t-308 121h-218v-944zM757 -160l274 -318h-222l-163 197h-6l-163 -197h-222l274 318h228z" />
    <glyph glyph-name="uni1E13" unicode="&#x1e13;" horiz-adv-x="1249" 
d="M180 139q-123 153 -123 413q0 258 123 410t329 152q118 0 208 -55q87 -53 129 -146h6v599h292v-1512h-288v188h-5q-41 -92 -131 -146q-92 -55 -212 -55q-206 0 -328 152zM424 790q-68 -89 -68 -239q0 -151 68 -240q67 -88 181 -88q113 0 181 89t68 238t-68 239
q-68 89 -181 89q-114 0 -181 -88zM708 -160l274 -318h-222l-163 197h-6l-163 -197h-222l274 318h228z" />
    <glyph glyph-name="uni1E14" unicode="&#x1e14;" horiz-adv-x="1174" 
d="M251 1767h692v-143h-692v143zM498 1887l-237 243h254l194 -243h-211zM1075 0h-956v1443h956v-249h-654v-348h617v-232h-617v-364h654v-250z" />
    <glyph glyph-name="uni1E15" unicode="&#x1e15;" horiz-adv-x="1164" 
d="M422 836q-66 -66 -74 -172h475q-4 108 -68 173t-166 65q-100 0 -167 -66zM1096 336q-24 -160 -161 -257q-137 -98 -338 -98q-251 0 -396 151q-144 151 -144 414t143 418q144 156 386 156q238 0 378 -148q141 -148 141 -399v-90h-760v-18q0 -119 71 -193q71 -73 186 -73
q83 0 143 37q61 36 82 100h269zM485 1619l-216 272h255l167 -272h-206zM920 1298h-669v143h669v-143z" />
    <glyph glyph-name="uni1E16" unicode="&#x1e16;" horiz-adv-x="1174" 
d="M251 1624v143h692v-143h-692zM679 2130h254l-237 -243h-211zM1075 0h-956v1443h956v-249h-654v-348h617v-232h-617v-364h654v-250z" />
    <glyph glyph-name="uni1E17" unicode="&#x1e17;" horiz-adv-x="1164" 
d="M422 836q-66 -66 -74 -172h475q-4 108 -68 173t-166 65q-100 0 -167 -66zM1096 336q-24 -160 -161 -257q-137 -98 -338 -98q-251 0 -396 151q-144 151 -144 414t143 418q144 156 386 156q238 0 378 -148q141 -148 141 -399v-90h-760v-18q0 -119 71 -193q71 -73 186 -73
q83 0 143 37q61 36 82 100h269zM658 1891h255l-218 -269h-219zM920 1298h-669v143h669v-143z" />
    <glyph glyph-name="uni1E18" unicode="&#x1e18;" horiz-adv-x="1174" 
d="M1075 0h-956v1443h956v-249h-654v-348h617v-232h-617v-364h654v-250zM711 -160l274 -318h-222l-163 197h-6l-163 -197h-222l274 318h228z" />
    <glyph glyph-name="uni1E19" unicode="&#x1e19;" horiz-adv-x="1164" 
d="M422 836q-66 -66 -74 -172h475q-4 108 -68 173t-166 65q-100 0 -167 -66zM1096 336q-24 -160 -161 -257q-137 -98 -338 -98q-251 0 -396 151q-144 151 -144 414t143 418q144 156 386 156q238 0 378 -148q141 -148 141 -399v-90h-760v-18q0 -119 71 -193q71 -73 186 -73
q83 0 143 37q61 36 82 100h269zM703 -160l274 -318h-222l-163 197h-6l-163 -197h-222l274 318h228z" />
    <glyph glyph-name="uni1E1A" unicode="&#x1e1a;" horiz-adv-x="1174" 
d="M584 -367q-76 68 -105 68q-67 0 -69 -119h-158q0 126 61 200q59 71 154 71q80 0 157 -67q77 -68 104 -68q63 0 65 122h158q0 -125 -62 -201q-59 -74 -152 -74q-76 0 -153 68zM1075 0h-956v1443h956v-249h-654v-348h617v-232h-617v-364h654v-250z" />
    <glyph glyph-name="uni1E1B" unicode="&#x1e1b;" horiz-adv-x="1164" 
d="M576 -367q-76 68 -105 68q-67 0 -69 -119h-158q0 126 61 200q59 71 154 71q80 0 157 -67q77 -68 104 -68q63 0 65 122h158q0 -125 -62 -201q-59 -74 -152 -74q-76 0 -153 68zM422 836q-66 -66 -74 -172h475q-4 108 -68 173t-166 65q-100 0 -167 -66zM1096 336
q-24 -160 -161 -257q-137 -98 -338 -98q-251 0 -396 151q-144 151 -144 414t143 418q144 156 386 156q238 0 378 -148q141 -148 141 -399v-90h-760v-18q0 -119 71 -193q71 -73 186 -73q83 0 143 37q61 36 82 100h269z" />
    <glyph glyph-name="uni1E1C" unicode="&#x1e1c;" horiz-adv-x="1174" 
d="M950 1860q-2 -137 -96 -225q-97 -92 -257 -92t-257 92q-94 88 -96 225h178q2 -75 49 -123q49 -49 126 -49t126 49q47 48 49 123h178zM421 1194v-348h617v-232h-617v-364h654v-250h-386l-49 -116q88 0 136 -42q49 -41 49 -117q0 -86 -64 -136q-64 -49 -177 -50
q-88 0 -140 16v120q40 -14 111 -14q107 0 107 55q0 31 -29 43q-28 13 -96 13h-56v101l58 127h-420v1443h956v-249h-654z" />
    <glyph glyph-name="uni1E1D" unicode="&#x1e1d;" horiz-adv-x="1164" 
d="M943 1570q-2 -140 -97 -229q-99 -93 -262 -93q-162 0 -261 93q-95 89 -97 229h179q2 -76 51 -125q50 -50 128 -50q79 0 129 50q48 49 50 125h180zM823 664q-4 108 -68 173t-166 65q-100 0 -167 -66q-66 -66 -74 -172h475zM345 483v-18q0 -119 71 -193q71 -73 186 -73
q83 0 143 37q61 36 82 100h269q-22 -143 -136 -238q-113 -94 -285 -113l-43 -101q88 0 136 -42q49 -41 49 -117q0 -86 -64 -136q-64 -49 -177 -50q-88 0 -140 16v120q40 -14 111 -14q107 0 107 55q0 31 -29 43q-28 13 -96 13h-56v101l51 112q-219 22 -343 170t-124 391
q0 263 143 418q144 156 386 156q238 0 378 -148q141 -148 141 -399v-90h-760z" />
    <glyph glyph-name="uni1E1E" unicode="&#x1e1e;" horiz-adv-x="1123" 
d="M473 1605q-43 43 -43 105t43 105t106 43t106 -43t43 -105t-43 -105q-43 -44 -106 -44t-106 44zM119 0v1443h945v-249h-643v-387h587v-239h-587v-568h-302z" />
    <glyph glyph-name="uni1E1F" unicode="&#x1e1f;" horiz-adv-x="734" 
d="M330 1656q-43 43 -43 105t43 105t106 43t106 -43t43 -105t-43 -105q-43 -44 -106 -44t-106 44zM176 880h-149v221h149v98q0 159 82 229q83 70 274 70q68 0 135 -10v-203q-37 7 -80 7q-66 0 -95 -26t-30 -84v-81h206v-221h-200v-880h-292v880z" />
    <glyph glyph-name="uni1E20" unicode="&#x1e20;" horiz-adv-x="1489" 
d="M1409 606q0 -295 -169 -463q-170 -168 -471 -168q-324 0 -509 200q-186 200 -186 551q0 346 185 544q184 198 503 198q252 0 427 -136t207 -355h-303q-33 113 -120 177q-88 64 -210 64q-179 0 -280 -129t-101 -359q0 -234 106 -369q105 -135 286 -135q148 0 242 83
q93 83 98 217l1 23h-314v220h608v-163zM1096 1624h-692v143h692v-143z" />
    <glyph glyph-name="uni1E21" unicode="&#x1e21;" horiz-adv-x="1244" 
d="M943 1298h-669v143h669v-143zM785 319q68 86 68 233q0 149 -68 237q-68 89 -182 89q-113 0 -180 -88t-67 -237t67 -235q66 -85 180 -85t182 86zM244 -315q-140 89 -151 237h288q14 -54 77 -87q62 -32 149 -32q112 0 178 54q67 54 67 146v197h-6q-40 -89 -131 -141
t-210 -52q-203 0 -324 146q-124 149 -124 401q0 259 122 409q122 151 331 151q117 0 208 -55q89 -53 133 -146h5v188h288v-1076q0 -196 -148 -312q-147 -116 -396 -116q-218 0 -356 88z" />
    <glyph glyph-name="uni1E22" unicode="&#x1e22;" horiz-adv-x="1494" 
d="M1071 0v608h-650v-608h-302v1443h302v-586h650v586h302v-1443h-302zM640 1605q-43 43 -43 105t43 105t106 43t106 -43t43 -105t-43 -105q-43 -44 -106 -44t-106 44z" />
    <glyph glyph-name="uni1E23" unicode="&#x1e23;" horiz-adv-x="1247" 
d="M106 1512h287v-608h6q95 213 356 213q183 0 290 -111t107 -302v-704h-292v643q0 108 -59 170q-60 61 -164 61q-107 0 -173 -69t-66 -180v-625h-292v1512zM145 1674q-43 43 -43 105t43 105t106 43t106 -43t43 -105t-43 -105q-43 -44 -106 -44t-106 44z" />
    <glyph glyph-name="uni1E24" unicode="&#x1e24;" horiz-adv-x="1494" 
d="M1071 0v608h-650v-608h-302v1443h302v-586h650v586h302v-1443h-302zM640 -414q-43 43 -43 105t43 105t106 43t106 -43t43 -105t-43 -105q-43 -44 -106 -44t-106 44z" />
    <glyph glyph-name="uni1E25" unicode="&#x1e25;" horiz-adv-x="1247" 
d="M106 1512h287v-608h6q95 213 356 213q183 0 290 -111t107 -302v-704h-292v643q0 108 -59 170q-60 61 -164 61q-107 0 -173 -69t-66 -180v-625h-292v1512zM520 -414q-43 43 -43 105t43 105t106 43t106 -43t43 -105t-43 -105q-43 -44 -106 -44t-106 44z" />
    <glyph glyph-name="uni1E26" unicode="&#x1e26;" horiz-adv-x="1494" 
d="M1071 0v608h-650v-608h-302v1443h302v-586h650v586h302v-1443h-302zM441 1600q-39 38 -39 92t39 93q39 38 96 38t96 -38q39 -39 39 -93t-39 -92q-39 -39 -96 -39t-96 39zM860 1600q-39 38 -39 92t39 93q39 38 96 38t96 -38q39 -39 39 -93t-39 -92q-39 -39 -96 -39t-96 39
z" />
    <glyph glyph-name="uni1E27" unicode="&#x1e27;" horiz-adv-x="1247" 
d="M107 1512h287v-608h6q95 213 356 213q183 0 290 -111t107 -302v-704h-292v643q0 108 -59 170q-60 61 -164 61q-107 0 -173 -69t-66 -180v-625h-292v1512zM-53 1669q-39 38 -39 92t39 93q39 38 96 38t96 -38q39 -39 39 -93t-39 -92q-39 -39 -96 -39t-96 39zM366 1669
q-39 38 -39 92t39 93q39 38 96 38t96 -38q39 -39 39 -93t-39 -92q-39 -39 -96 -39t-96 39z" />
    <glyph glyph-name="uni1E28" unicode="&#x1e28;" horiz-adv-x="1494" 
d="M1373 1443v-1443h-302v608h-650v-608h-110l-49 -116q88 0 136 -42q49 -41 49 -117q0 -86 -64 -136q-64 -49 -177 -50q-88 0 -140 16v120q40 -14 111 -14q107 0 107 55q0 31 -29 43q-28 13 -96 13h-56v101l58 127h-42v1443h302v-586h650v586h302z" />
    <glyph glyph-name="uni1E29" unicode="&#x1e29;" horiz-adv-x="1247" 
d="M399 904q95 213 356 213q183 0 290 -111t107 -302v-704h-292v643q0 108 -59 170q-60 61 -164 61q-107 0 -173 -69t-66 -180v-625h-94l-49 -116q88 0 136 -42q49 -41 49 -117q0 -86 -64 -136q-64 -49 -177 -50q-88 0 -140 16v120q40 -14 111 -14q107 0 107 55q0 31 -29 43
q-28 13 -96 13h-56v101l58 127h-48v1512h287v-608h6z" />
    <glyph glyph-name="uni1E2A" unicode="&#x1e2a;" horiz-adv-x="1494" 
d="M571 -176q2 -75 49 -123q49 -49 126 -49t126 49q47 48 49 123h178q-2 -137 -96 -225q-97 -92 -257 -92t-257 92q-94 88 -96 225h178zM1071 0v608h-650v-608h-302v1443h302v-586h650v586h302v-1443h-302z" />
    <glyph glyph-name="uni1E2B" unicode="&#x1e2b;" horiz-adv-x="1247" 
d="M451 -176q2 -75 49 -123q49 -49 126 -49t126 49q47 48 49 123h178q-2 -137 -96 -225q-97 -92 -257 -92t-257 92q-94 88 -96 225h178zM106 1512h287v-608h6q95 213 356 213q183 0 290 -111t107 -302v-704h-292v643q0 108 -59 170q-60 61 -164 61q-107 0 -173 -69t-66 -180
v-625h-292v1512z" />
    <glyph glyph-name="uni1E2C" unicode="&#x1e2c;" horiz-adv-x="542" 
d="M120 0v1443h302v-1443h-302zM258 -367q-76 68 -105 68q-67 0 -69 -119h-158q0 126 61 200q59 71 154 71q80 0 157 -67q77 -68 104 -68q63 0 65 122h158q0 -125 -62 -201q-59 -74 -152 -74q-76 0 -153 68z" />
    <glyph glyph-name="uni1E2D" unicode="&#x1e2d;" horiz-adv-x="500" 
d="M104 1101h292v-1101h-292v1101zM139 1265q-46 44 -46 109t46 109q46 43 111 43q66 0 112 -43q46 -44 46 -109t-46 -109t-112 -44q-65 0 -111 44zM237 -367q-76 68 -105 68q-67 0 -69 -119h-158q0 126 61 200q59 71 154 71q80 0 157 -67q77 -68 104 -68q63 0 65 122h158
q0 -125 -62 -201q-59 -74 -152 -74q-76 0 -153 68z" />
    <glyph glyph-name="uni1E2E" unicode="&#x1e2e;" horiz-adv-x="542" 
d="M120 0v1443h302v-1443h-302zM353 2130h254l-237 -243h-211zM-25 1601q-37 36 -37 88t37 88t92 36q54 0 91 -36q37 -37 37 -88q0 -52 -37 -88q-37 -37 -91 -37q-55 0 -92 37zM384 1601q-37 36 -37 88q0 51 37 88q37 36 91 36q55 0 92 -36t37 -88t-37 -88q-37 -37 -92 -37
q-54 0 -91 37z" />
    <glyph glyph-name="uni1E2F" unicode="&#x1e2f;" horiz-adv-x="500" 
d="M323 1891h255l-218 -269h-219zM-55 1298q-39 38 -39 92t39 93q39 38 96 38t96 -38q39 -39 39 -93t-39 -92q-39 -39 -96 -39t-96 39zM364 1298q-39 38 -39 92t39 93q39 38 96 38t96 -38q39 -39 39 -93t-39 -92q-39 -39 -96 -39t-96 39zM104 1101h292v-1101h-292v1101z" />
    </font>
</defs>
</svg>
