<svg xmlns="http://www.w3.org/2000/svg" xmlns:xlink="http://www.w3.org/1999/xlink" viewBox="0 0 425.93 246.53"><defs><style>.cls-1{fill:url(#Безымянный_градиент_328);}.cls-2{fill:url(#Безымянный_градиент_314);}.cls-3{fill:url(#Безымянный_градиент_314-2);}.cls-4{fill:url(#Безымянный_градиент_314-3);}.cls-5{fill:url(#Безымянный_градиент_298);}.cls-6{fill:url(#Безымянный_градиент_133);}.cls-7{fill:url(#Безымянный_градиент_279);}</style><linearGradient id="Безымянный_градиент_328" x1="147.33" y1="-10.08" x2="218.4" y2="255.18" gradientUnits="userSpaceOnUse"><stop offset="0.07" stop-color="#00fff1"/><stop offset="0.17" stop-color="#04f9f1"/><stop offset="0.31" stop-color="#0ee7f2"/><stop offset="0.47" stop-color="#1fcbf2"/><stop offset="0.64" stop-color="#37a3f4"/><stop offset="0.83" stop-color="#5571f5"/><stop offset="0.93" stop-color="#6851f6"/></linearGradient><linearGradient id="Безымянный_градиент_314" x1="138.78" y1="224.25" x2="160.97" y2="250.7" gradientUnits="userSpaceOnUse"><stop offset="0.38" stop-color="#6851f6"/><stop offset="0.56" stop-color="#6754f6"/><stop offset="0.72" stop-color="#645ff5"/><stop offset="0.87" stop-color="#5f71f3"/><stop offset="1" stop-color="#5988f1"/></linearGradient><linearGradient id="Безымянный_градиент_314-2" x1="90" y1="233.84" x2="105.15" y2="251.89" xlink:href="#Безымянный_градиент_314"/><linearGradient id="Безымянный_градиент_314-3" x1="82.72" y1="146.65" x2="167.16" y2="247.28" xlink:href="#Безымянный_градиент_314"/><linearGradient id="Безымянный_градиент_298" x1="244.91" y1="-2.01" x2="350.56" y2="103.64" gradientUnits="userSpaceOnUse"><stop offset="0.38" stop-color="#6851f6"/><stop offset="0.73" stop-color="#6753f6"/><stop offset="0.86" stop-color="#625af5"/><stop offset="0.95" stop-color="#5965f3"/><stop offset="1" stop-color="#5170f1"/></linearGradient><linearGradient id="Безымянный_градиент_133" x1="375.66" y1="75.69" x2="365.96" y2="102.36" gradientUnits="userSpaceOnUse"><stop offset="0.02" stop-color="#00fff1"/><stop offset="0.21" stop-color="#02fcf1"/><stop offset="0.35" stop-color="#08f2f1"/><stop offset="0.49" stop-color="#12e1f2"/><stop offset="0.61" stop-color="#20caf3"/><stop offset="0.73" stop-color="#32acf3"/><stop offset="0.84" stop-color="#4887f4"/><stop offset="0.95" stop-color="#625cf6"/><stop offset="0.97" stop-color="#6851f6"/></linearGradient><linearGradient id="Безымянный_градиент_279" x1="394.9" y1="54.37" x2="344.14" y2="193.83" gradientUnits="userSpaceOnUse"><stop offset="0.24" stop-color="#00fff1"/><stop offset="0.4" stop-color="#03fcf1"/><stop offset="0.53" stop-color="#0bf1f2"/><stop offset="0.65" stop-color="#18e0f2"/><stop offset="0.77" stop-color="#2cc8f3"/><stop offset="0.88" stop-color="#44a9f4"/><stop offset="0.98" stop-color="#6383f6"/><stop offset="1" stop-color="#687cf6"/></linearGradient></defs><title>logo</title><g id="Слой_2" data-name="Слой 2"><g id="Слой_6" data-name="Слой 6"><path class="cls-1" d="M404.55,176.61a123.28,123.28,0,0,1-191.23,40.31q-2.57-2.19-5-4.51a122.89,122.89,0,0,1-38.16-89.16,46.95,46.95,0,1,0-93.89,0v85.11A38,38,0,0,1,67.22,233l0,.06a39.29,39.29,0,0,1-5,4.94A38.1,38.1,0,0,1,0,208.36V121.13A123.29,123.29,0,0,1,76.28,9.26c2.12-.87,4.28-1.69,6.46-2.44A123.36,123.36,0,0,1,203.33,29.58c1.71,1.46,3.38,3,5,4.51a122.91,122.91,0,0,1,38.15,89.16c0,.61,0,1.21,0,1.81a46.63,46.63,0,0,0,4.37,18.09l.15.3c.14.31.29.61.44.91a46.06,46.06,0,0,0,5.14,8l0,0c14.05,18.73,39.89,33.15,60.3,38.28a116.93,116.93,0,0,0,28,3.21,126.15,126.15,0,0,0,31.29-3.82C387.69,187.11,397.25,182.52,404.55,176.61Z"/><path class="cls-2" d="M187,228.9a122.77,122.77,0,0,1-74.17,17.16c3.44.29,6.93.44,10.45.44.87,0,1.73,0,2.59,0,.42,0,.84,0,1.27,0,.76,0,1.51,0,2.26-.08.6,0,1.2-.06,1.8-.11a.09.09,0,0,0,.07,0c.94-.06,1.88-.13,2.81-.21.5,0,1-.08,1.5-.14s1-.1,1.46-.15l.81-.1q.73-.07,1.47-.18l1.57-.22c.39,0,.78-.1,1.16-.17s.89-.13,1.34-.21c.63-.1,1.26-.2,1.88-.32s1-.17,1.42-.27c2.18-.41,4.35-.89,6.49-1.43l1.43-.36c.68-.18,1.36-.36,2-.56s1.46-.41,2.19-.63l.24-.07,1.93-.61c.61-.19,1.21-.38,1.81-.6s1-.35,1.57-.54c2.22-.78,4.4-1.62,6.56-2.53l1.48-.64c.49-.2,1-.41,1.45-.64s.91-.41,1.37-.63a.82.82,0,0,0,.19-.09l1.31-.62c1.21-.57,2.41-1.18,3.6-1.81l1.54-.82,1.53-.84,1.75-1s0,0,0,0l1.74-1Z"/><path class="cls-3" d="M103.06,244.82a122.93,122.93,0,0,1-20-5.11v.07c.79.27,1.58.54,2.38.79s1.36.44,2.05.64a120,120,0,0,0,13.85,3.34l1.5.26c1.24.21,2.48.39,3.73.56.62.09,1.25.17,1.87.24,1.26.15,2.51.28,3.78.39C109.15,245.73,106.11,245.33,103.06,244.82Z"/><path class="cls-4" d="M203.33,216.92c-.74.63-1.48,1.25-2.23,1.86s-1.5,1.21-2.26,1.8q-1.8,1.39-3.63,2.72c-.63.46-1.27.92-1.92,1.36s-1,.71-1.55,1-1.23.82-1.85,1.22l-1.2.76c-.6.38-1.21.75-1.81,1.11l-1.74,1s0,0,0,0l-1.75,1-1.53.84-1.54.82c-1.19.63-2.39,1.24-3.6,1.81l-1.31.62a.82.82,0,0,1-.19.09c-.46.22-.91.43-1.37.63s-1,.44-1.45.64l-1.48.64c-2.16.91-4.34,1.75-6.56,2.53-.52.19-1,.37-1.57.54s-1.2.41-1.81.6l-1.93.61-.24.07c-.73.22-1.45.43-2.19.63s-1.35.38-2,.56l-1.43.36c-2.14.54-4.31,1-6.49,1.43-.47.1-.94.18-1.42.27s-1.25.22-1.88.32c-.45.08-.89.15-1.34.21s-.77.13-1.16.17l-1.57.22q-.73.11-1.47.18l-.81.1c-.49.05-1,.11-1.46.15s-1,.1-1.5.14c-.93.08-1.87.15-2.81.21a.09.09,0,0,1-.07,0c-.6.05-1.2.08-1.8.11-.75,0-1.5.07-2.26.08-.43,0-.85,0-1.27,0-.86,0-1.72,0-2.59,0-3.52,0-7-.15-10.45-.44l-.61-.06c-3-.27-6.06-.67-9.11-1.18a122.93,122.93,0,0,1-20-5.11c-3.35-1.15-6.62-2.45-9.81-3.87a44.27,44.27,0,0,0,9.54-27.48V146.64a46.84,46.84,0,0,0,32.84,22.91l1,.16,1,.14c.32,0,.65.09,1,.11l.18,0c.41,0,.83.08,1.25.1l.87,0,.88,0h.06c.5,0,1,0,1.5,0a47,47,0,0,0,41.79-25.81A129.64,129.64,0,0,0,203.33,216.92Z"/><path class="cls-5" d="M391.58,48.7c-16,25.86-36.41,49.49-52,65.93a47,47,0,0,0-88.09-12.5,129.63,129.63,0,0,0-38.16-72.55A123.26,123.26,0,0,1,391.58,48.7Z"/><path class="cls-6" d="M380.23,77.35c-6.39,8.55-12.79,16.38-18.84,23.35C367.58,93.52,374,85.66,380.23,77.35Z"/><path class="cls-7" d="M425.31,154.44s-4.85-.16-12.7-.77c-4.23,13.92-17.75,24.49-38.12,29.8-17.63,4.59-39,4.82-55.87.59a115.92,115.92,0,0,1-32.5-14.44,46.29,46.29,0,0,0,7.3.57,46.94,46.94,0,0,0,43.88-30.27c-3.54-1.18-7-2.45-10.31-3.82a374.8,374.8,0,0,0,28.77-29l1.59-1.78c.47-.52.93-1.05,1.4-1.59.88-1,1.76-2,2.64-3,6-7,12.45-14.8,18.84-23.35q1.8-2.4,3.59-4.87c.62-.86,1.24-1.72,1.86-2.6q1.5-2.09,3-4.21c.15-.23.31-.45.47-.68q2-2.88,3.91-5.82c1-1.46,1.92-3,2.87-4.44l0,0,.06.08C397.87,57.15,430.81,98.38,425.31,154.44Z"/></g></g></svg>