<svg xmlns="http://www.w3.org/2000/svg" xmlns:xlink="http://www.w3.org/1999/xlink" preserveAspectRatio="xMidYMid" width="26" height="23.5" viewBox="0 0 26 23.5">
  <defs>
    <style>
      .cls-1 {
        fill: #1d76ea;
        fill-rule: evenodd;
      }
    </style>
  </defs>
  <path d="M25.994,22.650 C25.994,23.122 25.606,23.505 25.128,23.505 L18.196,23.505 C18.043,23.504 17.894,23.463 17.763,23.386 C17.632,23.463 17.482,23.504 17.329,23.505 L10.398,23.505 C9.919,23.505 9.531,23.122 9.531,22.650 L9.531,20.941 C9.532,20.790 9.574,20.643 9.652,20.514 C9.574,20.384 9.532,20.237 9.531,20.086 L9.531,18.377 C9.531,17.905 9.919,17.522 10.398,17.522 L11.988,17.522 C10.896,17.006 10.074,16.062 9.719,14.921 C9.018,12.664 10.304,10.274 12.592,9.582 C14.880,8.891 17.303,10.160 18.004,12.417 C18.067,12.402 18.131,12.394 18.196,12.394 L25.128,12.394 C25.606,12.394 25.994,12.776 25.994,13.248 L25.994,14.958 C25.993,15.108 25.952,15.256 25.874,15.385 C25.952,15.514 25.993,15.662 25.994,15.812 L25.994,17.522 C25.993,17.672 25.952,17.820 25.874,17.949 C25.952,18.079 25.993,18.226 25.994,18.377 L25.994,20.086 C25.993,20.237 25.952,20.384 25.874,20.514 C25.952,20.643 25.993,20.790 25.994,20.941 L25.994,22.650 ZM13.864,10.257 C11.949,10.257 10.398,11.787 10.398,13.676 C10.400,15.563 11.950,17.092 13.864,17.095 C15.778,17.095 17.329,15.564 17.329,13.676 C17.329,11.787 15.778,10.257 13.864,10.257 ZM17.329,16.229 C16.912,16.779 16.367,17.223 15.739,17.522 L17.329,17.522 L17.329,16.229 ZM17.329,18.377 L16.896,18.377 L16.896,19.231 L16.030,19.231 L16.030,18.377 L15.163,18.377 L15.163,19.231 L14.297,19.231 L14.297,18.377 L13.430,18.377 L13.430,19.231 L12.564,19.231 L12.564,18.377 L11.697,18.377 L11.697,19.231 L10.831,19.231 L10.831,18.377 L10.398,18.377 L10.398,20.086 L17.329,20.086 L17.329,18.377 ZM17.329,20.941 L16.896,20.941 L16.896,21.796 L16.030,21.796 L16.030,20.941 L15.163,20.941 L15.163,21.796 L14.297,21.796 L14.297,20.941 L13.430,20.941 L13.430,21.796 L12.564,21.796 L12.564,20.941 L11.697,20.941 L11.697,21.796 L10.831,21.796 L10.831,20.941 L10.398,20.941 L10.398,22.650 L13.430,22.650 L17.329,22.650 L17.329,20.941 ZM25.128,13.248 L24.694,13.248 L24.694,14.103 L23.828,14.103 L23.828,13.248 L22.961,13.248 L22.961,14.103 L22.095,14.103 L22.095,13.248 L21.229,13.248 L21.229,14.103 L20.362,14.103 L20.362,13.248 L19.496,13.248 L19.496,14.103 L18.629,14.103 L18.629,13.248 L18.196,13.248 L18.196,14.958 L25.128,14.958 L25.128,13.248 ZM25.128,15.812 L24.694,15.812 L24.694,16.667 L23.828,16.667 L23.828,15.812 L22.961,15.812 L22.961,16.667 L22.095,16.667 L22.095,15.812 L21.229,15.812 L21.229,16.667 L20.362,16.667 L20.362,15.812 L19.496,15.812 L19.496,16.667 L18.629,16.667 L18.629,15.812 L18.196,15.812 L18.196,17.522 L25.128,17.522 L25.128,15.812 ZM25.128,18.377 L24.694,18.377 L24.694,19.231 L23.828,19.231 L23.828,18.377 L22.961,18.377 L22.961,19.231 L22.095,19.231 L22.095,18.377 L21.229,18.377 L21.229,19.231 L20.362,19.231 L20.362,18.377 L19.496,18.377 L19.496,19.231 L18.629,19.231 L18.629,18.377 L18.196,18.377 L18.196,20.086 L25.128,20.086 L25.128,18.377 ZM25.128,20.941 L24.694,20.941 L24.694,21.796 L23.828,21.796 L23.828,20.941 L22.961,20.941 L22.961,21.796 L22.095,21.796 L22.095,20.941 L21.229,20.941 L21.229,21.796 L20.362,21.796 L20.362,20.941 L19.496,20.941 L19.496,21.796 L18.629,21.796 L18.629,20.941 L18.196,20.941 L18.196,22.650 L25.128,22.650 L25.128,20.941 ZM13.864,12.394 C13.624,12.394 13.430,12.585 13.430,12.821 C13.430,13.057 13.624,13.248 13.864,13.248 C14.415,13.247 14.906,13.590 15.089,14.102 C15.327,14.769 14.972,15.499 14.297,15.734 L14.297,16.240 L13.430,16.240 L13.430,15.734 C12.913,15.553 12.566,15.072 12.564,14.530 L13.430,14.530 C13.430,14.766 13.624,14.958 13.864,14.958 C14.103,14.958 14.297,14.766 14.297,14.530 C14.297,14.294 14.103,14.103 13.864,14.103 C13.313,14.104 12.821,13.762 12.638,13.249 C12.400,12.583 12.755,11.852 13.430,11.617 L13.430,11.112 L14.297,11.112 L14.297,11.617 C14.814,11.798 15.161,12.280 15.163,12.821 L14.297,12.821 C14.297,12.585 14.103,12.394 13.864,12.394 ZM20.795,6.410 L20.795,8.120 L19.929,8.120 L19.929,6.838 L18.629,6.838 L18.629,5.983 L20.362,5.983 C20.601,5.983 20.795,6.174 20.795,6.410 ZM16.896,10.257 L16.896,9.402 L17.763,9.402 L17.763,10.257 L16.896,10.257 ZM4.766,13.676 L3.033,13.676 C2.793,13.676 2.599,13.484 2.599,13.248 L2.599,11.539 L3.466,11.539 L3.466,12.821 L4.766,12.821 L4.766,13.676 ZM2.599,8.120 L2.599,6.410 C2.599,6.174 2.793,5.983 3.033,5.983 L4.766,5.983 L4.766,6.838 L3.466,6.838 L3.466,8.120 L2.599,8.120 ZM6.499,9.402 L6.499,10.257 L5.632,10.257 L5.632,9.402 L6.499,9.402 ZM8.853,11.783 C8.447,11.211 8.230,10.528 8.231,9.829 C8.231,8.508 9.003,7.305 10.213,6.739 C11.943,5.930 14.009,6.658 14.829,8.364 L14.047,8.731 C13.614,7.838 12.701,7.268 11.697,7.265 C11.166,7.265 10.648,7.426 10.212,7.725 C9.034,8.534 8.743,10.132 9.564,11.294 L8.853,11.783 ZM22.528,4.701 C22.528,4.465 22.334,4.274 22.095,4.274 L1.300,4.274 C1.060,4.274 0.866,4.465 0.866,4.701 L0.866,14.958 C0.866,15.194 1.060,15.385 1.300,15.385 L9.098,15.385 L9.098,16.240 L1.300,16.240 C0.582,16.240 0.000,15.666 0.000,14.958 L0.000,1.282 C0.000,0.574 0.582,0.000 1.300,0.000 L22.095,0.000 C22.813,0.000 23.395,0.574 23.395,1.282 L23.395,11.539 L22.528,11.539 L22.528,4.701 ZM22.528,1.282 C22.528,1.046 22.334,0.855 22.095,0.855 L1.300,0.855 C1.060,0.855 0.866,1.046 0.866,1.282 L0.866,1.788 C1.005,1.738 1.152,1.711 1.300,1.709 L22.095,1.709 C22.243,1.711 22.390,1.738 22.528,1.788 L22.528,1.282 ZM22.528,2.992 C22.528,2.756 22.334,2.564 22.095,2.564 L1.300,2.564 C1.060,2.564 0.866,2.756 0.866,2.992 L0.866,3.498 C1.005,3.447 1.152,3.420 1.300,3.419 L22.095,3.419 C22.243,3.420 22.390,3.447 22.528,3.498 L22.528,2.992 Z" class="cls-1"/>
</svg>
