<svg xmlns="http://www.w3.org/2000/svg" xmlns:xlink="http://www.w3.org/1999/xlink" preserveAspectRatio="xMidYMid" width="24" height="24" viewBox="0 0 24 24">
  <defs>
    <style>
      .cls-1 {
        fill: #1d76ea;
        fill-rule: evenodd;
      }
    </style>
  </defs>
  <path d="M24.000,23.197 C24.000,23.639 23.642,23.997 23.200,23.997 L16.800,23.997 C16.607,23.995 16.422,23.922 16.280,23.792 C14.799,24.203 13.214,23.987 11.897,23.195 C9.247,21.602 8.390,18.162 9.984,15.512 C11.578,12.862 15.019,12.006 17.670,13.600 L23.200,13.600 C23.642,13.600 24.000,13.958 24.000,14.400 L24.000,15.999 C23.999,16.140 23.961,16.278 23.889,16.399 C23.961,16.520 23.999,16.658 24.000,16.799 L24.000,18.399 C23.999,18.539 23.961,18.678 23.889,18.798 C23.961,18.920 23.999,19.058 24.000,19.198 L24.000,20.798 C23.999,20.939 23.961,21.077 23.889,21.198 C23.961,21.319 23.999,21.457 24.000,21.598 L24.000,23.197 ZM14.800,13.600 C12.149,13.600 10.000,15.748 10.000,18.399 C10.003,21.048 12.150,23.195 14.800,23.197 C17.451,23.197 19.600,21.049 19.600,18.399 C19.600,15.748 17.451,13.600 14.800,13.600 ZM23.200,14.400 L22.800,14.400 L22.800,15.199 L22.000,15.199 L22.000,14.400 L21.200,14.400 L21.200,15.199 L20.400,15.199 L20.400,14.400 L18.712,14.400 C19.183,14.862 19.569,15.403 19.852,15.999 L23.200,15.999 L23.200,14.400 ZM23.200,16.799 L22.800,16.799 L22.800,17.599 L22.000,17.599 L22.000,16.799 L21.200,16.799 L21.200,17.599 L20.400,17.599 L20.400,16.799 L20.164,16.799 C20.320,17.318 20.400,17.857 20.400,18.399 L23.200,18.399 L23.200,16.799 ZM23.200,19.198 L22.800,19.198 L22.800,19.998 L22.000,19.998 L22.000,19.198 L21.200,19.198 L21.200,19.998 L20.400,19.998 L20.400,19.198 L20.336,19.198 C20.257,19.753 20.093,20.292 19.852,20.798 L23.200,20.798 L23.200,19.198 ZM23.200,21.598 L22.800,21.598 L22.800,22.398 L22.000,22.398 L22.000,21.598 L21.200,21.598 L21.200,22.398 L20.400,22.398 L20.400,21.598 L19.390,21.598 C18.935,22.246 18.349,22.791 17.670,23.197 L23.200,23.197 L23.200,21.598 ZM16.473,21.373 C16.047,21.373 15.687,21.240 15.411,20.964 C15.135,20.688 14.993,20.354 14.993,19.944 C14.993,19.534 15.135,19.200 15.411,18.924 C15.687,18.648 16.047,18.515 16.473,18.515 C16.899,18.515 17.259,18.648 17.535,18.924 C17.811,19.200 17.953,19.534 17.953,19.944 C17.953,20.354 17.811,20.688 17.535,20.964 C17.259,21.240 16.899,21.373 16.473,21.373 ZM16.950,19.459 C16.824,19.334 16.665,19.267 16.473,19.267 C16.281,19.267 16.114,19.334 15.988,19.459 C15.746,19.718 15.746,20.170 15.988,20.429 C16.114,20.554 16.281,20.621 16.473,20.621 C16.665,20.621 16.824,20.554 16.950,20.429 C17.209,20.170 17.209,19.718 16.950,19.459 ZM12.577,21.323 L16.072,15.472 L16.916,15.472 L13.421,21.323 L12.577,21.323 ZM13.003,18.281 C12.577,18.281 12.217,18.147 11.942,17.871 C11.666,17.595 11.524,17.261 11.524,16.851 C11.524,16.442 11.666,16.107 11.942,15.832 C12.217,15.556 12.577,15.422 13.003,15.422 C13.430,15.422 13.789,15.556 14.065,15.832 C14.341,16.107 14.483,16.442 14.483,16.851 C14.483,17.261 14.341,17.595 14.065,17.871 C13.789,18.147 13.430,18.281 13.003,18.281 ZM13.480,16.366 C13.355,16.241 13.196,16.174 13.003,16.174 C12.811,16.174 12.644,16.241 12.518,16.366 C12.276,16.626 12.276,17.077 12.518,17.336 C12.644,17.461 12.811,17.528 13.003,17.528 C13.196,17.528 13.355,17.461 13.480,17.336 C13.739,17.077 13.739,16.626 13.480,16.366 ZM9.766,13.931 L9.200,13.365 L8.634,13.931 L8.069,13.365 L8.634,12.800 L8.069,12.235 L8.634,11.669 L9.200,12.235 L9.766,11.669 L10.331,12.235 L9.766,12.800 L10.331,13.365 L9.766,13.931 ZM9.200,20.798 L9.200,21.598 L2.400,21.598 C1.958,21.598 1.600,21.240 1.600,20.798 L1.600,10.401 C1.600,9.959 1.958,9.601 2.400,9.601 L16.000,9.601 C16.442,9.601 16.800,9.959 16.800,10.401 L16.800,12.400 L16.000,12.400 L16.000,10.401 L12.000,10.401 L12.000,12.800 L11.200,12.800 L11.200,10.401 L7.200,10.401 L7.200,15.199 L9.200,15.199 L9.200,15.999 L7.200,15.999 L7.200,20.798 L9.200,20.798 ZM6.400,10.401 L2.400,10.401 L2.400,15.199 L6.400,15.199 L6.400,10.401 ZM6.400,15.999 L2.400,15.999 L2.400,20.798 L6.400,20.798 L6.400,15.999 ZM5.600,18.798 L3.200,18.798 L3.200,17.999 L5.600,17.999 L5.600,18.798 ZM4.000,11.600 L4.800,11.600 L4.800,12.400 L5.600,12.400 L5.600,13.200 L4.800,13.200 L4.800,14.000 L4.000,14.000 L4.000,13.200 L3.200,13.200 L3.200,12.400 L4.000,12.400 L4.000,11.600 ZM17.600,8.001 L0.800,8.001 L0.800,21.998 C0.800,22.660 1.337,23.197 2.000,23.197 L10.800,23.197 L10.800,23.997 L2.000,23.997 C0.896,23.996 0.001,23.101 0.000,21.998 L0.000,2.003 C0.001,0.899 0.896,0.004 2.000,0.003 L16.400,0.003 C17.504,0.004 18.399,0.899 18.400,2.003 L18.400,12.800 L17.600,12.800 L17.600,8.001 ZM17.600,2.003 C17.600,1.340 17.063,0.803 16.400,0.803 L2.000,0.803 C1.337,0.803 0.800,1.340 0.800,2.003 L0.800,7.201 L17.600,7.201 L17.600,2.003 ZM2.400,1.603 L16.000,1.603 C16.442,1.603 16.800,1.961 16.800,2.403 L16.800,5.602 C16.800,6.043 16.442,6.402 16.000,6.402 L2.400,6.402 C1.958,6.402 1.600,6.043 1.600,5.602 L1.600,2.403 C1.600,1.961 1.958,1.603 2.400,1.603 ZM2.400,5.602 L16.000,5.602 L16.000,2.403 L2.400,2.403 L2.400,5.602 ZM10.400,3.602 L11.200,3.602 L11.200,4.402 L10.400,4.402 L10.400,3.602 ZM8.800,3.602 L9.600,3.602 L9.600,4.402 L8.800,4.402 L8.800,3.602 ZM7.200,3.602 L8.000,3.602 L8.000,4.402 L7.200,4.402 L7.200,3.602 Z" class="cls-1"/>
</svg>
