<svg xmlns="http://www.w3.org/2000/svg" xmlns:xlink="http://www.w3.org/1999/xlink" preserveAspectRatio="xMidYMid" width="26" height="25" viewBox="0 0 26 25">
  <defs>
    <style>
      .cls-1 {
        fill: #1d76ea;
        fill-rule: evenodd;
      }
    </style>
  </defs>
  <path d="M18.633,25.004 C14.565,25.004 11.267,21.722 11.267,17.674 C11.267,13.626 14.565,10.344 18.633,10.344 C22.700,10.349 25.995,13.628 26.000,17.674 C26.000,21.722 22.702,25.004 18.633,25.004 ZM18.633,11.206 C15.043,11.206 12.133,14.102 12.133,17.674 C12.133,21.246 15.043,24.142 18.633,24.142 C22.221,24.138 25.129,21.244 25.133,17.674 C25.133,14.102 22.223,11.206 18.633,11.206 ZM23.400,18.105 L23.400,17.243 L24.267,17.243 L24.267,18.105 L23.400,18.105 ZM18.782,18.960 C18.182,19.027 17.613,18.673 17.413,18.105 L15.600,18.105 L15.600,17.243 L17.413,17.243 C17.544,16.878 17.833,16.590 18.200,16.460 L18.200,13.794 L19.067,13.794 L19.067,16.460 C19.637,16.659 19.993,17.225 19.925,17.823 C19.857,18.420 19.383,18.892 18.782,18.960 ZM18.633,17.243 C18.394,17.243 18.200,17.436 18.200,17.674 C18.200,17.912 18.394,18.105 18.633,18.105 C18.873,18.105 19.067,17.912 19.067,17.674 C19.067,17.436 18.873,17.243 18.633,17.243 ZM18.200,12.069 L19.067,12.069 L19.067,12.931 L18.200,12.931 L18.200,12.069 ZM19.067,23.279 L18.200,23.279 L18.200,22.417 L19.067,22.417 L19.067,23.279 ZM13.000,17.243 L13.867,17.243 L13.867,18.105 L13.000,18.105 L13.000,17.243 ZM15.600,9.913 L15.600,9.482 C15.600,9.006 15.988,8.619 16.467,8.619 L18.200,8.619 C18.679,8.619 19.067,9.006 19.067,9.482 L19.067,9.913 L18.200,9.913 L18.200,9.482 L16.467,9.482 L16.467,9.913 L15.600,9.913 ZM5.200,12.069 L3.467,12.069 C2.988,12.069 2.600,11.683 2.600,11.206 L2.600,9.482 C2.600,9.006 2.988,8.619 3.467,8.619 L5.200,8.619 C5.678,8.619 6.067,9.006 6.067,9.482 L6.067,11.206 C6.067,11.683 5.678,12.069 5.200,12.069 ZM5.200,9.482 L3.467,9.482 L3.467,11.206 L5.200,11.206 L5.200,9.482 ZM6.067,16.381 C6.067,16.857 5.678,17.243 5.200,17.243 L3.467,17.243 C2.988,17.243 2.600,16.857 2.600,16.381 L2.600,14.656 C2.600,14.180 2.988,13.794 3.467,13.794 L5.200,13.794 C5.678,13.794 6.067,14.180 6.067,14.656 L6.067,16.381 ZM5.200,14.656 L3.467,14.656 L3.467,16.381 L5.200,16.381 L5.200,14.656 ZM9.533,12.069 L7.800,12.069 C7.321,12.069 6.933,11.683 6.933,11.206 L6.933,9.482 C6.933,9.006 7.321,8.619 7.800,8.619 L9.533,8.619 C10.012,8.619 10.400,9.006 10.400,9.482 L10.400,11.206 C10.400,11.683 10.012,12.069 9.533,12.069 ZM9.533,9.482 L7.800,9.482 L7.800,11.206 L9.533,11.206 L9.533,9.482 ZM10.400,16.381 C10.400,16.857 10.012,17.243 9.533,17.243 L7.800,17.243 C7.321,17.243 6.933,16.857 6.933,16.381 L6.933,14.656 C6.933,14.180 7.321,13.794 7.800,13.794 L9.533,13.794 C10.012,13.794 10.400,14.180 10.400,14.656 L10.400,16.381 ZM9.533,14.656 L7.800,14.656 L7.800,16.381 L9.533,16.381 L9.533,14.656 ZM20.800,6.032 L0.867,6.032 L0.867,18.537 C0.867,19.251 1.449,19.830 2.167,19.830 L10.833,19.830 L10.833,20.692 L2.167,20.692 C0.970,20.691 0.001,19.727 -0.000,18.537 L-0.000,3.876 C0.001,2.686 0.970,1.722 2.167,1.721 L5.200,1.721 L5.200,1.289 C5.200,0.575 5.782,-0.004 6.500,-0.004 C7.218,-0.004 7.800,0.575 7.800,1.289 L7.800,1.721 L13.867,1.721 L13.867,1.289 C13.867,0.575 14.449,-0.004 15.167,-0.004 C15.885,-0.004 16.467,0.575 16.467,1.289 L16.467,1.721 L19.500,1.721 C20.696,1.722 21.665,2.686 21.667,3.876 L21.667,9.913 L20.800,9.913 L20.800,6.032 ZM6.933,1.289 C6.933,1.051 6.739,0.858 6.500,0.858 C6.261,0.858 6.067,1.051 6.067,1.289 L6.067,3.014 C6.067,3.252 6.261,3.445 6.500,3.445 C6.739,3.445 6.933,3.252 6.933,3.014 L6.933,1.289 ZM15.600,1.289 C15.600,1.051 15.406,0.858 15.167,0.858 C14.927,0.858 14.733,1.051 14.733,1.289 L14.733,3.014 C14.733,3.252 14.927,3.445 15.167,3.445 C15.406,3.445 15.600,3.252 15.600,3.014 L15.600,1.289 ZM20.800,3.876 C20.800,3.162 20.218,2.583 19.500,2.583 L16.467,2.583 L16.467,3.014 C16.467,3.729 15.885,4.308 15.167,4.308 C14.449,4.308 13.867,3.729 13.867,3.014 L13.867,2.583 L7.800,2.583 L7.800,3.014 C7.800,3.729 7.218,4.308 6.500,4.308 C5.782,4.308 5.200,3.729 5.200,3.014 L5.200,2.583 L2.167,2.583 C1.449,2.583 0.867,3.162 0.867,3.876 L0.867,5.170 L20.800,5.170 L20.800,3.876 ZM12.133,8.619 L13.867,8.619 C14.345,8.619 14.733,9.006 14.733,9.482 L14.733,10.775 L13.867,10.775 L13.867,9.482 L12.133,9.482 L12.133,11.206 L13.000,11.206 L13.000,12.069 L12.133,12.069 C11.655,12.069 11.267,11.683 11.267,11.206 L11.267,9.482 C11.267,9.006 11.655,8.619 12.133,8.619 Z" class="cls-1"/>
</svg>
