<svg xmlns="http://www.w3.org/2000/svg" xmlns:xlink="http://www.w3.org/1999/xlink" preserveAspectRatio="xMidYMid" width="26" height="26.312" viewBox="0 0 26 26.312">
  <defs>
    <style>
      .cls-1 {
        fill: #1d76ea;
        fill-rule: evenodd;
      }
    </style>
  </defs>
  <path d="M25.126,18.060 L15.672,23.521 C15.606,23.559 15.530,23.579 15.454,23.579 L10.519,23.579 L10.626,23.868 C10.626,23.868 10.626,23.868 10.626,23.869 C10.708,24.095 10.591,24.346 10.364,24.428 L6.259,25.922 C6.259,25.922 6.259,25.922 6.259,25.922 C6.032,26.004 5.782,25.887 5.700,25.660 L5.550,25.250 L2.677,26.296 C2.677,26.296 2.677,26.296 2.677,26.296 C2.450,26.378 2.200,26.261 2.118,26.034 L0.026,20.287 C0.026,20.287 0.026,20.286 0.026,20.286 C-0.056,20.059 0.061,19.809 0.288,19.727 L3.159,18.680 L3.010,18.270 C3.010,18.270 3.009,18.269 3.009,18.269 C2.927,18.042 3.045,17.792 3.272,17.710 L7.377,16.216 C7.377,16.216 7.377,16.216 7.377,16.216 C7.604,16.134 7.854,16.251 7.936,16.478 L8.423,17.816 L11.311,16.208 C11.376,16.172 11.449,16.153 11.523,16.153 L18.074,16.153 C18.537,16.152 18.982,16.337 19.308,16.665 C19.455,16.815 19.571,16.991 19.653,17.184 L23.379,15.033 C24.216,14.557 25.280,14.842 25.766,15.673 C25.919,15.938 25.999,16.240 26.000,16.546 C26.003,17.172 25.669,17.751 25.126,18.060 ZM0.999,20.401 L2.790,25.326 L5.254,24.430 L3.461,19.504 L0.999,20.401 ZM7.264,17.185 L3.981,18.381 L6.370,24.953 L9.653,23.754 L7.264,17.185 ZM25.007,16.110 C24.766,15.692 24.232,15.549 23.814,15.790 L19.799,18.108 C19.696,18.984 18.955,19.645 18.074,19.648 L13.270,19.648 L13.270,18.774 L18.074,18.774 C18.556,18.774 18.947,18.383 18.947,17.900 C18.949,17.804 18.931,17.709 18.896,17.619 C18.856,17.492 18.785,17.377 18.691,17.283 C18.528,17.119 18.305,17.026 18.074,17.027 L11.637,17.027 L8.725,18.647 L10.201,22.706 L15.337,22.706 L24.690,17.304 C24.960,17.148 25.126,16.859 25.124,16.546 C25.124,16.393 25.084,16.243 25.007,16.110 ZM22.441,14.843 L3.226,14.843 C2.503,14.843 1.916,14.256 1.916,13.532 L1.916,1.301 C1.916,0.577 2.503,-0.010 3.226,-0.010 L22.441,-0.010 C23.164,-0.010 23.751,0.577 23.751,1.301 L23.751,13.532 C23.751,14.256 23.164,14.843 22.441,14.843 ZM22.877,1.301 C22.877,1.060 22.682,0.864 22.441,0.864 L3.226,0.864 C2.985,0.864 2.790,1.060 2.790,1.301 L2.790,1.818 C2.929,1.766 3.077,1.739 3.226,1.738 L22.441,1.738 C22.590,1.739 22.737,1.766 22.877,1.818 L22.877,1.301 ZM22.877,3.048 C22.877,2.807 22.682,2.611 22.441,2.611 L3.226,2.611 C2.985,2.611 2.790,2.807 2.790,3.048 L2.790,3.565 C2.929,3.514 3.077,3.486 3.226,3.485 L22.441,3.485 C22.590,3.486 22.737,3.514 22.877,3.565 L22.877,3.048 ZM22.877,4.795 C22.877,4.554 22.682,4.359 22.441,4.359 L3.226,4.359 C2.985,4.359 2.790,4.554 2.790,4.795 L2.790,13.532 C2.790,13.773 2.985,13.969 3.226,13.969 L22.441,13.969 C22.682,13.969 22.877,13.773 22.877,13.532 L22.877,4.795 ZM21.131,12.658 L19.384,12.658 L19.384,11.785 L20.694,11.785 L20.694,10.474 L21.567,10.474 L21.567,12.222 C21.567,12.463 21.372,12.658 21.131,12.658 ZM20.694,6.543 L19.384,6.543 L19.384,5.669 L21.131,5.669 C21.372,5.669 21.567,5.865 21.567,6.106 L21.567,7.853 L20.694,7.853 L20.694,6.543 ZM17.200,8.727 L18.074,8.727 L18.074,9.601 L17.200,9.601 L17.200,8.727 ZM12.833,12.222 C11.146,12.220 9.779,10.852 9.777,9.164 C9.777,7.475 11.145,6.106 12.833,6.106 C14.522,6.106 15.890,7.475 15.890,9.164 C15.890,10.853 14.522,12.222 12.833,12.222 ZM12.833,6.980 C11.628,6.981 10.651,7.958 10.650,9.164 C10.650,10.370 11.628,11.348 12.833,11.348 C14.039,11.348 15.017,10.370 15.017,9.164 C15.017,7.958 14.039,6.980 12.833,6.980 ZM7.593,8.727 L8.467,8.727 L8.467,9.601 L7.593,9.601 L7.593,8.727 ZM4.100,12.222 L4.100,10.474 L4.973,10.474 L4.973,11.785 L6.283,11.785 L6.283,12.658 L4.536,12.658 C4.295,12.658 4.100,12.463 4.100,12.222 ZM4.973,7.853 L4.100,7.853 L4.100,6.106 C4.100,5.865 4.295,5.669 4.536,5.669 L6.283,5.669 L6.283,6.543 L4.973,6.543 L4.973,7.853 Z" class="cls-1"/>
</svg>
