<svg xmlns="http://www.w3.org/2000/svg" xmlns:xlink="http://www.w3.org/1999/xlink" preserveAspectRatio="xMidYMid" width="26" height="23.812" viewBox="0 0 26 23.812">
  <defs>
    <style>
      .cls-1 {
        fill: #1d76ea;
        fill-rule: evenodd;
      }
    </style>
  </defs>
  <path d="M20.367,23.823 C17.255,23.823 14.733,21.301 14.733,18.189 C14.733,15.078 17.255,12.556 20.367,12.556 C23.476,12.560 25.996,15.080 26.000,18.189 C26.000,21.301 23.478,23.823 20.367,23.823 ZM20.367,13.423 C17.734,13.423 15.600,15.557 15.600,18.189 C15.600,20.822 17.734,22.956 20.367,22.956 C22.998,22.953 25.130,20.821 25.133,18.189 C25.133,15.557 22.999,13.423 20.367,13.423 ZM21.377,21.050 L21.089,20.233 C21.659,20.031 22.119,19.600 22.358,19.043 C22.829,17.943 22.319,16.670 21.219,16.199 L21.609,16.874 L20.858,17.307 L19.991,15.806 C19.872,15.599 19.943,15.334 20.150,15.214 L21.651,14.347 L22.084,15.098 L21.560,15.401 L21.559,15.401 C22.339,15.735 22.944,16.380 23.226,17.179 C23.785,18.759 22.957,20.492 21.377,21.050 ZM19.875,19.072 L20.742,20.574 C20.862,20.781 20.791,21.046 20.583,21.165 L19.082,22.032 L18.649,21.282 L19.174,20.978 C18.394,20.645 17.789,20.000 17.507,19.200 C16.948,17.621 17.776,15.888 19.356,15.329 L19.645,16.146 C19.074,16.348 18.614,16.779 18.376,17.335 C17.905,18.436 18.415,19.709 19.515,20.180 L19.125,19.505 L19.875,19.072 ZM21.667,8.223 L21.667,10.823 L20.800,10.823 L20.800,8.656 L18.633,8.656 L18.633,7.789 L21.233,7.789 C21.473,7.789 21.667,7.983 21.667,8.223 ZM16.900,12.556 L16.900,11.689 L17.767,11.689 L17.767,12.556 L16.900,12.556 ZM5.633,16.456 L3.033,16.456 C2.794,16.456 2.600,16.262 2.600,16.023 L2.600,13.423 L3.467,13.423 L3.467,15.589 L5.633,15.589 L5.633,16.456 ZM2.600,10.823 L2.600,8.223 C2.600,7.983 2.794,7.789 3.033,7.789 L5.633,7.789 L5.633,8.656 L3.467,8.656 L3.467,10.823 L2.600,10.823 ZM7.367,11.689 L7.367,12.556 L6.500,12.556 L6.500,11.689 L7.367,11.689 ZM9.100,12.123 C9.100,10.447 10.458,9.089 12.133,9.089 C13.808,9.091 15.165,10.448 15.167,12.123 C15.167,13.798 13.809,15.156 12.133,15.156 C10.458,15.156 9.100,13.798 9.100,12.123 ZM14.300,12.123 C14.300,10.926 13.330,9.956 12.133,9.956 C10.937,9.956 9.967,10.926 9.967,12.123 C9.967,13.319 10.937,14.289 12.133,14.289 C13.329,14.288 14.299,13.319 14.300,12.123 ZM23.400,6.489 C23.400,6.250 23.206,6.056 22.967,6.056 L1.300,6.056 C1.061,6.056 0.867,6.250 0.867,6.489 L0.867,17.756 C0.867,17.995 1.061,18.189 1.300,18.189 L13.867,18.189 L13.867,19.056 L1.300,19.056 C0.582,19.056 -0.000,18.474 -0.000,17.756 L-0.000,1.289 C-0.000,0.571 0.582,-0.011 1.300,-0.011 L22.967,-0.011 C23.685,-0.011 24.267,0.571 24.267,1.289 L24.267,12.556 L23.400,12.556 L23.400,6.489 ZM23.400,1.289 C23.400,1.050 23.206,0.856 22.967,0.856 L1.300,0.856 C1.061,0.856 0.867,1.050 0.867,1.289 L0.867,2.669 C1.005,2.618 1.152,2.591 1.300,2.589 L22.967,2.589 C23.115,2.591 23.261,2.618 23.400,2.669 L23.400,1.289 ZM23.400,3.889 C23.400,3.650 23.206,3.456 22.967,3.456 L1.300,3.456 C1.061,3.456 0.867,3.650 0.867,3.889 L0.867,5.269 C1.005,5.218 1.152,5.191 1.300,5.189 L22.967,5.189 C23.115,5.191 23.261,5.218 23.400,5.269 L23.400,3.889 Z" class="cls-1"/>
</svg>
