<svg xmlns="http://www.w3.org/2000/svg" preserveAspectRatio="xMidYMid" width="25" height="25"><path d="M8.333 14.583H2.5v-.833h5.833v.833zm0-1.666H7.5v-.834h.833v.834zm0-3.334H6.667V8.75h1.666v.833zm-1.666 3.334h-.834v-.834h.834v.834zm-2.5 0v-.834H5v.834h-.833zm0-4.167h1.666v.833H4.167V8.75zm-.834 4.167H2.5v-.834h.833v.834zM2.5 3.333c0-.46.373-.833.833-.833h3.334c.46 0 .833.373.833.833v2.5a.833.833 0 0 1-.833.834H3.333a.833.833 0 0 1-.833-.834v-2.5zm.833 2.5h3.334v-2.5H3.333v2.5zm20.834 10V2.083c0-.69-.56-1.25-1.25-1.25H2.083c-.69 0-1.25.56-1.25 1.25V15c0 .69.56 1.25 1.25 1.25H10v.833H2.083A2.085 2.085 0 0 1 0 15V2.083A2.085 2.085 0 0 1 2.083 0h20.834A2.085 2.085 0 0 1 25 2.083v13.75h-.833zm-15-7.083h1.666v.833H9.167V8.75zm2.5 0h1.666v.833h-1.666V8.75zM22.5 12.5h-.833v-.833h.833v.833zm-6.667-7.917c0-1.15.933-2.083 2.084-2.083.45.001.887.15 1.245.423a2.081 2.081 0 0 1 2.518 0 2.084 2.084 0 0 1-2.518 3.32 2.068 2.068 0 0 1-1.245.424 2.084 2.084 0 0 1-2.084-2.084zm3.884 1.029a1.234 1.234 0 0 0 1.403.005 1.247 1.247 0 1 0-1.403-2.063 2.014 2.014 0 0 1 0 2.058zm-.55-1.029a1.25 1.25 0 1 0-2.5 0 1.25 1.25 0 0 0 2.5 0zm-.834 7.084h.834v.833h-.834v-.833zm2.5.833H20v-.833h.833v.833zm-1.666-3.75h1.666v.833h-1.666V8.75zm-5.484 5.559l.484.576V10a1.666 1.666 0 1 1 3.333 0v3.333h2.917a2.92 2.92 0 0 1 2.916 2.917v3.333a2.082 2.082 0 0 1-1.25 1.907v3.093c0 .23-.186.417-.416.417h-5.834a.417.417 0 0 1-.416-.417V21.49a2.082 2.082 0 0 1-1.153-1.306l-3.133-3.737a1.666 1.666 0 1 1 2.552-2.138zm2.567 9.858h5v-2.5h-5v2.5zM15 19.583c0 .691.56 1.25 1.25 1.25h5c.69 0 1.25-.559 1.25-1.25V16.25a2.076 2.076 0 0 0-.833-1.656v1.239h-.834v-1.625a2.074 2.074 0 0 0-.416-.041h-.834v1.25h-.833v-1.25H17.5v1.25h-.833V10A.833.833 0 0 0 15 10v9.583zm-3.229-3.672l2.398 2.86V16.18l-1.125-1.337a.855.855 0 0 0-1.172-.103.826.826 0 0 0-.101 1.171z" fill="#1d76ea" fill-rule="evenodd"/></svg>