<svg xmlns="http://www.w3.org/2000/svg" preserveAspectRatio="xMidYMid" width="26" height="25"><path d="M18.633 25.004c-4.068 0-7.366-3.282-7.366-7.33s3.298-7.33 7.366-7.33c4.067.005 7.363 3.284 7.367 7.33 0 4.048-3.298 7.33-7.367 7.33zm0-13.798c-3.589 0-6.5 2.896-6.5 6.468s2.911 6.468 6.5 6.468c3.588-.004 6.496-2.898 6.5-6.468 0-3.572-2.91-6.468-6.5-6.468zm4.767 6.899v-.862h.867v.862H23.4zm-4.617.855a1.298 1.298 0 0 1-1.37-.855H15.6v-.862h1.813c.131-.365.42-.653.787-.783v-2.666h.867v2.666a1.29 1.29 0 0 1-.284 2.5zm-.15-1.717a.432.432 0 0 0-.433.431c0 .238.194.431.433.431.24 0 .434-.193.434-.431a.432.432 0 0 0-.434-.431zm-.433-5.174h.867v.862H18.2v-.862zm.867 11.21H18.2v-.862h.867v.862zM13 17.243h.867v.862H13v-.862zm2.6-7.33v-.431c0-.476.388-.863.867-.863H18.2c.479 0 .867.387.867.863v.431H18.2v-.431h-1.733v.431H15.6zM5.2 12.069H3.467a.865.865 0 0 1-.867-.863V9.482c0-.476.388-.863.867-.863H5.2c.479 0 .867.387.867.863v1.724a.865.865 0 0 1-.867.863zm0-2.587H3.467v1.724H5.2V9.482zm.867 6.899a.864.864 0 0 1-.867.862H3.467a.864.864 0 0 1-.867-.862v-1.725c0-.476.388-.862.867-.862H5.2c.479 0 .867.386.867.862v1.725zM5.2 14.656H3.467v1.725H5.2v-1.725zm4.333-2.587H7.8a.865.865 0 0 1-.867-.863V9.482c0-.476.388-.863.867-.863h1.733c.479 0 .867.387.867.863v1.724a.865.865 0 0 1-.867.863zm0-2.587H7.8v1.724h1.733V9.482zm.867 6.899a.864.864 0 0 1-.867.862H7.8a.864.864 0 0 1-.867-.862v-1.725c0-.476.388-.862.867-.862h1.733c.479 0 .867.386.867.862v1.725zm-.867-1.725H7.8v1.725h1.733v-1.725zM20.8 6.032H.867v12.505c0 .714.582 1.293 1.3 1.293h8.666v.862H2.167A2.163 2.163 0 0 1 0 18.537V3.876a2.163 2.163 0 0 1 2.167-2.155H5.2v-.432c0-.714.582-1.293 1.3-1.293.718 0 1.3.579 1.3 1.293v.432h6.067v-.432c0-.714.582-1.293 1.3-1.293.718 0 1.3.579 1.3 1.293v.432H19.5a2.164 2.164 0 0 1 2.167 2.155v6.037H20.8V6.032zM6.933 1.289a.432.432 0 0 0-.866 0v1.725a.432.432 0 0 0 .866 0V1.289zm8.667 0a.432.432 0 0 0-.433-.431.432.432 0 0 0-.434.431v1.725c0 .238.194.431.434.431a.432.432 0 0 0 .433-.431V1.289zm5.2 2.587c0-.714-.582-1.293-1.3-1.293h-3.033v.431c0 .714-.582 1.294-1.3 1.294-.718 0-1.3-.58-1.3-1.294v-.431H7.8v.431c0 .714-.582 1.294-1.3 1.294-.718 0-1.3-.58-1.3-1.294v-.431H2.167c-.718 0-1.3.579-1.3 1.293V5.17H20.8V3.876zm-8.667 4.743h1.734c.478 0 .866.387.866.863v1.293h-.866V9.482h-1.734v1.724H13v.863h-.867a.864.864 0 0 1-.866-.863V9.482c0-.476.388-.863.866-.863z" fill="#da2121" fill-rule="evenodd"/></svg>