<svg xmlns="http://www.w3.org/2000/svg" preserveAspectRatio="xMidYMid" width="26" height="23.5"><path d="M25.994 22.65a.86.86 0 0 1-.866.855h-6.932a.864.864 0 0 1-.433-.119.868.868 0 0 1-.434.119h-6.931a.861.861 0 0 1-.867-.855v-1.709a.841.841 0 0 1 .121-.428.835.835 0 0 1-.121-.427v-1.709c0-.472.388-.855.867-.855h1.59a4.291 4.291 0 0 1-2.269-2.601c-.701-2.257.585-4.647 2.873-5.339 2.288-.691 4.711.578 5.412 2.835a.827.827 0 0 1 .192-.023h6.932a.86.86 0 0 1 .866.854v1.71a.837.837 0 0 1-.12.427.837.837 0 0 1 .12.427v1.71a.837.837 0 0 1-.12.427.84.84 0 0 1 .12.428v1.709a.834.834 0 0 1-.12.427.84.84 0 0 1 .12.428v1.709zm-12.13-12.393c-1.915 0-3.466 1.53-3.466 3.419.002 1.887 1.552 3.416 3.466 3.419 1.914 0 3.465-1.531 3.465-3.419 0-1.889-1.551-3.419-3.465-3.419zm3.465 5.972c-.417.55-.962.993-1.59 1.293h1.59v-1.293zm0 2.148h-.433v.854h-.866v-.854h-.867v.854h-.866v-.854h-.867v.854h-.866v-.854h-.867v.854h-.866v-.854h-.433v1.709h6.931v-1.709zm0 2.564h-.433v.855h-.866v-.855h-.867v.855h-.866v-.855h-.867v.855h-.866v-.855h-.867v.855h-.866v-.855h-.433v1.709h6.931v-1.709zm7.799-7.693h-.434v.855h-.866v-.855h-.867v.855h-.866v-.855h-.866v.855h-.867v-.855h-.866v.855h-.867v-.855h-.433v1.71h6.932v-1.71zm0 2.564h-.434v.855h-.866v-.855h-.867v.855h-.866v-.855h-.866v.855h-.867v-.855h-.866v.855h-.867v-.855h-.433v1.71h6.932v-1.71zm0 2.565h-.434v.854h-.866v-.854h-.867v.854h-.866v-.854h-.866v.854h-.867v-.854h-.866v.854h-.867v-.854h-.433v1.709h6.932v-1.709zm0 2.564h-.434v.855h-.866v-.855h-.867v.855h-.866v-.855h-.866v.855h-.867v-.855h-.866v.855h-.867v-.855h-.433v1.709h6.932v-1.709zm-11.264-8.547a.43.43 0 0 0-.434.427.43.43 0 0 0 .434.427 1.296 1.296 0 0 1 1.225.854 1.275 1.275 0 0 1-.792 1.632v.506h-.867v-.506a1.284 1.284 0 0 1-.866-1.204h.866c0 .236.194.428.434.428a.43.43 0 0 0 .433-.428.43.43 0 0 0-.433-.427 1.297 1.297 0 0 1-1.226-.854 1.276 1.276 0 0 1 .792-1.632v-.506h.867v.506c.517.181.864.663.866 1.204h-.866a.43.43 0 0 0-.433-.427zm6.931-5.984v1.71h-.866V6.838h-1.3v-.855h1.733a.43.43 0 0 1 .433.427zm-3.899 3.847v-.855h.867v.855h-.867zm-12.13 3.419H3.033a.431.431 0 0 1-.434-.428v-1.709h.867v1.282h1.3v.855zM2.599 8.12V6.41a.43.43 0 0 1 .434-.427h1.733v.855h-1.3V8.12h-.867zm3.9 1.282v.855h-.867v-.855h.867zm2.354 2.381a3.368 3.368 0 0 1-.622-1.954c0-1.321.772-2.524 1.982-3.09 1.73-.809 3.796-.081 4.616 1.625l-.782.367a2.617 2.617 0 0 0-3.835-1.006 2.541 2.541 0 0 0-.648 3.569l-.711.489zm13.675-7.082a.43.43 0 0 0-.433-.427H1.3a.43.43 0 0 0-.434.427v10.257a.43.43 0 0 0 .434.427h7.798v.855H1.3c-.718 0-1.3-.574-1.3-1.282V1.282C0 .574.582 0 1.3 0h20.795c.718 0 1.3.574 1.3 1.282v10.257h-.867V4.701zm0-3.419a.43.43 0 0 0-.433-.427H1.3a.43.43 0 0 0-.434.427v.506c.139-.051.286-.077.434-.079h20.795a1.3 1.3 0 0 1 .433.079v-.506zm0 1.71a.43.43 0 0 0-.433-.428H1.3a.431.431 0 0 0-.434.428v.506c.139-.051.286-.078.434-.079h20.795c.148.001.295.028.433.079v-.506z" fill="#1d76ea" fill-rule="evenodd"/></svg>