<svg xmlns="http://www.w3.org/2000/svg" preserveAspectRatio="xMidYMid" width="24" height="24"><path d="M24 23.197a.8.8 0 0 1-.8.8h-6.4a.782.782 0 0 1-.52-.205A5.6 5.6 0 1 1 17.67 13.6h5.53a.8.8 0 0 1 .8.8v1.599a.793.793 0 0 1-.111.4c.072.121.11.259.111.4v1.6a.792.792 0 0 1-.111.399c.072.122.11.26.111.4v1.6a.793.793 0 0 1-.111.4c.072.121.11.259.111.4v1.599zM14.8 13.6a4.8 4.8 0 0 0-4.8 4.799 4.799 4.799 0 1 0 4.8-4.799zm8.4.8h-.4v.799H22V14.4h-.8v.799h-.8V14.4h-1.688a5.611 5.611 0 0 1 1.14 1.599H23.2V14.4zm0 2.399h-.4v.8H22v-.8h-.8v.8h-.8v-.8h-.236c.156.519.236 1.058.236 1.6h2.8v-1.6zm0 2.399h-.4v.8H22v-.8h-.8v.8h-.8v-.8h-.064a5.535 5.535 0 0 1-.484 1.6H23.2v-1.6zm0 2.4h-.4v.8H22v-.8h-.8v.8h-.8v-.8h-1.01a5.637 5.637 0 0 1-1.72 1.599h5.53v-1.599zm-6.727-.225c-.426 0-.786-.133-1.062-.409a1.38 1.38 0 0 1-.418-1.02c0-.41.142-.744.418-1.02s.636-.409 1.062-.409c.426 0 .786.133 1.062.409.276.276.418.61.418 1.02 0 .41-.142.744-.418 1.02s-.636.409-1.062.409zm.477-1.914a.653.653 0 0 0-.477-.192.672.672 0 0 0-.485.192.739.739 0 0 0 0 .97.672.672 0 0 0 .485.192.653.653 0 0 0 .477-.192.703.703 0 0 0 0-.97zm-4.373 1.864l3.495-5.851h.844l-3.495 5.851h-.844zm.426-3.042c-.426 0-.786-.134-1.061-.41a1.38 1.38 0 0 1-.418-1.02c0-.409.142-.744.418-1.019.275-.276.635-.41 1.061-.41.427 0 .786.134 1.062.41.276.275.418.61.418 1.019 0 .41-.142.744-.418 1.02s-.635.41-1.062.41zm.477-1.915a.65.65 0 0 0-.477-.192.672.672 0 0 0-.485.192.739.739 0 0 0 0 .97.672.672 0 0 0 .485.192.65.65 0 0 0 .477-.192.703.703 0 0 0 0-.97zm-3.714-2.435l-.566-.566-.566.566-.565-.566.565-.565-.565-.566.565-.565.566.565.566-.565.565.565-.565.566.565.565-.565.566zM9.2 20.798v.8H2.4a.8.8 0 0 1-.8-.8V10.401a.8.8 0 0 1 .8-.8H16a.8.8 0 0 1 .8.8V12.4H16v-1.999h-4V12.8h-.8v-2.399h-4v4.798h2v.8h-2v4.799h2zM6.4 10.401h-4v4.798h4v-4.798zm0 5.598h-4v4.799h4v-4.799zm-.8 2.799H3.2v-.799h2.4v.799zM4 11.6h.8v.8h.8v.8h-.8v.8H4v-.8h-.8v-.8H4v-.8zm13.6-3.599H.8v13.997A1.2 1.2 0 0 0 2 23.197h8.8v.8H2a2.002 2.002 0 0 1-2-1.999V2.003a2.002 2.002 0 0 1 2-2h14.4a2.002 2.002 0 0 1 2 2V12.8h-.8V8.001zm0-5.998a1.2 1.2 0 0 0-1.2-1.2H2a1.2 1.2 0 0 0-1.2 1.2v5.198h16.8V2.003zm-15.2-.4H16a.8.8 0 0 1 .8.8v3.199a.8.8 0 0 1-.8.8H2.4a.8.8 0 0 1-.8-.8V2.403a.8.8 0 0 1 .8-.8zm0 3.999H16V2.403H2.4v3.199zm8-2h.8v.8h-.8v-.8zm-1.6 0h.8v.8h-.8v-.8zm-1.6 0H8v.8h-.8v-.8z" fill="#1d76ea" fill-rule="evenodd"/></svg>