<svg xmlns="http://www.w3.org/2000/svg" viewBox="0 0 512.08 512"><defs><style>.cls-1{fill:#fff;}.cls-2{fill:#58abfb;}.cls-3{fill:#107be8;}</style></defs><title>1</title><g id="Слой_2" data-name="Слой 2"><g id="Слой_1-2" data-name="Слой 1"><g id="_5-App_Development" data-name=" 5-App Development"><g id="_Group_" data-name=" Group "><rect class="cls-1" x="130.84" y="307.2" width="34.13" height="34.13" rx="5.69" ry="5.69"/><rect class="cls-1" x="130.84" y="364.09" width="34.13" height="34.13" rx="5.69" ry="5.69"/><rect class="cls-1" x="130.84" y="420.98" width="34.13" height="34.13" rx="5.69" ry="5.69"/><rect class="cls-1" x="73.95" y="420.98" width="34.13" height="34.13" rx="5.69" ry="5.69"/><rect class="cls-1" x="73.95" y="364.09" width="34.13" height="34.13" rx="5.69" ry="5.69"/><rect class="cls-1" x="73.95" y="307.2" width="34.13" height="34.13" rx="5.69" ry="5.69"/><path class="cls-1" d="M193.42,261.69v22.76H45.51V261.69A5.69,5.69,0,0,1,51.2,256H187.73A5.69,5.69,0,0,1,193.42,261.69Z"/><path class="cls-2" d="M45.51,391.45v-107H193.42V477.87H45.51Zm119.47,58V426.67a5.69,5.69,0,0,0-5.69-5.69H136.53a5.69,5.69,0,0,0-5.69,5.69v22.76a5.69,5.69,0,0,0,5.69,5.69h22.76A5.69,5.69,0,0,0,165,449.42Zm0-56.89V369.78a5.69,5.69,0,0,0-5.69-5.69H136.53a5.69,5.69,0,0,0-5.69,5.69v22.76a5.69,5.69,0,0,0,5.69,5.69h22.76A5.69,5.69,0,0,0,165,392.53Zm0-56.89V312.89a5.69,5.69,0,0,0-5.69-5.69H136.53a5.69,5.69,0,0,0-5.69,5.69v22.76a5.69,5.69,0,0,0,5.69,5.69h22.76A5.69,5.69,0,0,0,165,335.64ZM108.09,449.42V426.67A5.69,5.69,0,0,0,102.4,421H79.64A5.69,5.69,0,0,0,74,426.67v22.76a5.69,5.69,0,0,0,5.69,5.69H102.4A5.69,5.69,0,0,0,108.09,449.42Zm0-56.89V369.78a5.69,5.69,0,0,0-5.69-5.69H79.64A5.69,5.69,0,0,0,74,369.78v22.76a5.69,5.69,0,0,0,5.69,5.69H102.4A5.69,5.69,0,0,0,108.09,392.53Zm0-56.89V312.89a5.69,5.69,0,0,0-5.69-5.69H79.64A5.69,5.69,0,0,0,74,312.89v22.76a5.69,5.69,0,0,0,5.69,5.69H102.4A5.69,5.69,0,0,0,108.09,335.64Z"/><path class="cls-1" d="M193.42,498.4v2.22a5.69,5.69,0,0,1-5.69,5.69H51.2a5.69,5.69,0,0,1-5.69-5.69V477.87H193.42Z"/><rect class="cls-2" x="284.44" y="438.04" width="45.51" height="22.76"/><rect class="cls-2" x="284.44" y="392.53" width="28.44" height="22.76"/><rect class="cls-2" x="335.64" y="278.76" width="28.44" height="22.76"/><rect class="cls-2" x="329.95" y="210.49" width="22.76" height="22.76"/><path class="cls-1" d="M256,460.8V210.49H91V176.36H421V443.73l.23.28A250.55,250.55,0,0,1,193.42,498.4V460.8ZM364.09,301.51V278.76H335.64v22.76Zm-11.38-68.27V210.49H330v22.76ZM330,460.8V438H284.44V460.8Zm-17.07-45.51V392.53H284.44v22.76Zm-5.69-182V210.49H284.44v22.76Z"/><rect class="cls-2" x="284.44" y="210.49" width="22.76" height="22.76"/><path class="cls-1" d="M193.42,460.8V261.69a5.69,5.69,0,0,0-5.69-5.69H91V210.49H256V460.8Z"/><circle class="cls-1" cx="170.66" cy="142.22" r="11.38"/><path class="cls-1" d="M421,119.47v56.89H358.4V108.09h51.2A11.41,11.41,0,0,1,421,119.47Z"/><path class="cls-2" d="M358.4,108.09v68.27H91V119.47a11.41,11.41,0,0,1,11.38-11.38ZM182,142.22a11.38,11.38,0,1,0-11.38,11.38A11.38,11.38,0,0,0,182,142.22Zm-45.51,0a11.38,11.38,0,1,0-11.38,11.38A11.38,11.38,0,0,0,136.53,142.22Z"/><circle class="cls-1" cx="125.15" cy="142.22" r="11.38"/><path class="cls-1" d="M421,443.73V119.47a11.41,11.41,0,0,0-11.38-11.38H102.4A11.41,11.41,0,0,0,91,119.47V256H51.2a5.69,5.69,0,0,0-5.69,5.69V391.45c-74.82-116.24-41.24-271.13,75-346s271.13-41.24,346,75A250.31,250.31,0,0,1,421.2,444Z"/><path class="cls-3" d="M256,0C114.64,0,0,114.55,0,255.91A256,256,0,0,0,39.82,393.06V500.62A11.38,11.38,0,0,0,51.2,512H187.73a11.38,11.38,0,0,0,10.35-6.72c137.69,32,275.27-53.65,307.28-191.35S451.71,38.67,314,6.65A256,256,0,0,0,256,0ZM415.29,170.67h-51.2V113.78H409.6a5.69,5.69,0,0,1,5.69,5.69Zm-62.58,0h-256v-51.2a5.69,5.69,0,0,1,5.69-5.69H352.71Zm-165,91v17.07H51.2V261.69ZM51.2,290.13H187.73v182H51.2Zm0,210.49V483.56H187.73v17.07Zm147.91-6.77V261.69a11.38,11.38,0,0,0-11.38-11.38h-91V182H415.29V441.56A243.87,243.87,0,0,1,199.11,493.85Zm227.56-62.63V119.47A17.07,17.07,0,0,0,409.6,102.4H102.4a17.07,17.07,0,0,0-17.07,17.07V250.31H51.2a11.38,11.38,0,0,0-11.38,11.38V370.35C-23.37,250.93,22.21,102.91,141.62,39.72S409.06,22.1,472.25,141.51A244.62,244.62,0,0,1,426.66,431.22Z"/><path class="cls-3" d="M125.15,159.29a17.07,17.07,0,1,0-17.07-17.07A17.07,17.07,0,0,0,125.15,159.29Zm0-22.76a5.69,5.69,0,1,1-5.69,5.69A5.69,5.69,0,0,1,125.15,136.53Z"/><path class="cls-3" d="M170.66,159.29a17.07,17.07,0,1,0-17.07-17.07A17.07,17.07,0,0,0,170.66,159.29Zm0-22.76a5.69,5.69,0,1,1-5.69,5.69A5.69,5.69,0,0,1,170.66,136.53Z"/><rect class="cls-3" x="375.46" y="125.16" width="28.44" height="11.38"/><rect class="cls-3" x="375.46" y="147.91" width="28.44" height="11.38"/><rect class="cls-3" x="250.31" y="204.8" width="11.38" height="273.07"/><path class="cls-3" d="M284.44,238.93H307.2a5.69,5.69,0,0,0,5.69-5.69V210.49a5.69,5.69,0,0,0-5.69-5.69H284.44a5.69,5.69,0,0,0-5.69,5.69v22.76A5.69,5.69,0,0,0,284.44,238.93Zm5.69-22.76h11.38v11.38H290.13Z"/><path class="cls-3" d="M330,238.93h22.76a5.69,5.69,0,0,0,5.69-5.69V210.49a5.69,5.69,0,0,0-5.69-5.69H330a5.69,5.69,0,0,0-5.69,5.69v22.76A5.69,5.69,0,0,0,330,238.93Zm5.69-22.76H347v11.38H335.64Z"/><rect class="cls-3" x="278.75" y="250.31" width="91.02" height="11.38"/><rect class="cls-3" x="278.75" y="273.07" width="39.82" height="11.38"/><rect class="cls-3" x="278.75" y="295.82" width="39.82" height="11.38"/><rect class="cls-3" x="278.75" y="318.58" width="73.96" height="11.38"/><rect class="cls-3" x="278.75" y="341.33" width="45.51" height="11.38"/><path class="cls-3" d="M335.64,273.07a5.69,5.69,0,0,0-5.69,5.69v22.76a5.69,5.69,0,0,0,5.69,5.69h28.44a5.69,5.69,0,0,0,5.69-5.69V278.76a5.69,5.69,0,0,0-5.69-5.69Zm22.76,22.76H341.33V284.44H358.4Z"/><path class="cls-3" d="M284.44,421h28.44a5.69,5.69,0,0,0,5.69-5.69V392.53a5.69,5.69,0,0,0-5.69-5.69H284.44a5.69,5.69,0,0,0-5.69,5.69v22.76A5.69,5.69,0,0,0,284.44,421Zm5.69-22.76H307.2V409.6H290.13Z"/><path class="cls-3" d="M330,432.36H284.44a5.69,5.69,0,0,0-5.69,5.69V460.8a5.69,5.69,0,0,0,5.69,5.69H330a5.69,5.69,0,0,0,5.69-5.69V438A5.69,5.69,0,0,0,330,432.36Zm-5.69,22.76H290.13V443.73h34.13Z"/><rect class="cls-3" x="278.75" y="364.09" width="91.02" height="11.38"/><rect class="cls-3" x="329.95" y="386.84" width="56.89" height="11.38"/><rect class="cls-3" x="329.95" y="409.6" width="56.89" height="11.38"/><path class="cls-3" d="M102.4,301.51H79.64a11.38,11.38,0,0,0-11.38,11.38v22.76A11.38,11.38,0,0,0,79.64,347H102.4a11.38,11.38,0,0,0,11.38-11.38V312.89A11.38,11.38,0,0,0,102.4,301.51Zm0,34.13H79.64V312.89H102.4Z"/><path class="cls-3" d="M159.29,301.51H136.53a11.38,11.38,0,0,0-11.38,11.38v22.76A11.38,11.38,0,0,0,136.53,347h22.76a11.38,11.38,0,0,0,11.38-11.38V312.89A11.38,11.38,0,0,0,159.29,301.51Zm0,34.13H136.53V312.89h22.76Z"/><path class="cls-3" d="M102.4,358.4H79.64a11.38,11.38,0,0,0-11.38,11.38v22.76a11.38,11.38,0,0,0,11.38,11.38H102.4a11.38,11.38,0,0,0,11.38-11.38V369.78A11.38,11.38,0,0,0,102.4,358.4Zm0,34.13H79.64V369.78H102.4Z"/><path class="cls-3" d="M159.29,358.4H136.53a11.38,11.38,0,0,0-11.38,11.38v22.76a11.38,11.38,0,0,0,11.38,11.38h22.76a11.38,11.38,0,0,0,11.38-11.38V369.78A11.38,11.38,0,0,0,159.29,358.4Zm0,34.13H136.53V369.78h22.76Z"/><path class="cls-3" d="M102.4,415.29H79.64a11.38,11.38,0,0,0-11.38,11.38v22.76A11.38,11.38,0,0,0,79.64,460.8H102.4a11.38,11.38,0,0,0,11.38-11.38V426.67A11.38,11.38,0,0,0,102.4,415.29Zm0,34.13H79.64V426.67H102.4Z"/><path class="cls-3" d="M159.29,415.29H136.53a11.38,11.38,0,0,0-11.38,11.38v22.76a11.38,11.38,0,0,0,11.38,11.38h22.76a11.38,11.38,0,0,0,11.38-11.38V426.67A11.38,11.38,0,0,0,159.29,415.29Zm0,34.13H136.53V426.67h22.76Z"/><rect class="cls-3" x="108.09" y="204.8" width="130.84" height="11.38"/><rect class="cls-3" x="147.91" y="227.56" width="91.02" height="11.38"/><rect class="cls-3" x="210.49" y="256" width="28.44" height="11.38"/><rect class="cls-3" x="210.49" y="284.44" width="28.44" height="11.38"/><rect class="cls-3" x="210.49" y="312.89" width="28.44" height="11.38"/><rect class="cls-3" x="210.49" y="341.33" width="28.44" height="11.38"/><rect class="cls-3" x="210.49" y="369.78" width="28.44" height="11.38"/><rect class="cls-3" x="210.49" y="398.22" width="28.44" height="11.38"/><rect class="cls-3" x="210.49" y="426.67" width="28.44" height="11.38"/><rect class="cls-3" x="210.49" y="455.11" width="28.44" height="11.38"/></g></g></g></g></svg>