<svg xmlns="http://www.w3.org/2000/svg" viewBox="0 0 483.01 479.56"><defs><style>.cls-1{fill:#bddbff;}.cls-2{fill:#3d9ae2;}</style></defs><title>2</title><g id="Слой_2" data-name="Слой 2"><g id="Слой_1-2" data-name="Слой 1"><path class="cls-1" d="M87.92,311.72H8V471.57H87.92Z"/><path class="cls-1" d="M191.83,55.95h24l16-16,8,16h48a48,48,0,0,0-95.91,0Z"/><path class="cls-1" d="M335.69,215.8v55.95a8,8,0,0,1-8,8H151.86a8,8,0,0,1-8-8V215.8a79.09,79.09,0,0,1,8-34.77,80.05,80.05,0,0,1,39.09-38l48.83,48.83L288.62,143a80.05,80.05,0,0,1,39.09,38A79.09,79.09,0,0,1,335.69,215.8Z"/><path class="cls-2" d="M479.3,334.17a39.86,39.86,0,0,0-53.06-19.3L322.68,363.08a40,40,0,0,0-34.94-59.36H167.85a55.84,55.84,0,0,0-50.52,32H95.91v-24a8,8,0,0,0-8-8H8a8,8,0,0,0-8,8V471.57a8,8,0,0,0,8,8H87.92a8,8,0,0,0,8-8v-16H304.63a40.25,40.25,0,0,0,16.9-3.74L460,387.29A40.14,40.14,0,0,0,479.3,334.17ZM79.93,463.58H16V319.71H79.93Zm373.32-90.77L314.77,437.36a24.15,24.15,0,0,1-10.14,2.24H95.91V351.68h26.78a8,8,0,0,0,7.54-5.37,39.8,39.8,0,0,1,37.61-26.6H287.74a24,24,0,0,1,0,48H215.8v16h91.72a40.15,40.15,0,0,0,16.86-3.74L433,329.34a23.88,23.88,0,0,1,31.76,11.51A24.45,24.45,0,0,1,467,351,24.12,24.12,0,0,1,453.24,372.81Z"/><path class="cls-2" d="M295.73,71.93v-16a55.95,55.95,0,1,0-111.9,0v16a55.95,55.95,0,1,0,111.9,0ZM239.78,16a40,40,0,0,1,39.16,32H244.72L239,36.39a8,8,0,0,0-12.79-2.08L212.49,48H200.62A40,40,0,0,1,239.78,16Zm0,95.91a40,40,0,0,1-40-40v-8h16a8,8,0,0,0,5.65-2.34l8.14-8.14,3,6.07a8,8,0,0,0,7.15,4.42h40v8A40,40,0,0,1,239.78,111.9Z"/><path class="cls-2" d="M151.86,287.74H327.7a16,16,0,0,0,16-16V215.8a87.57,87.57,0,0,0-8.79-38.25,88.5,88.5,0,0,0-79.13-49.67h-32a88,88,0,0,0-87.92,87.92v55.95A16,16,0,0,0,151.86,287.74ZM320.51,184.55a70.75,70.75,0,0,1,7.19,31.26v55.95H247.77V195.13L290,152.87A72.26,72.26,0,0,1,320.51,184.55Zm-64.74-40.68a71,71,0,0,1,18.18,2.49l-34.17,34.17-34.16-34.17a71,71,0,0,1,18.17-2.49ZM151.86,215.8a70.58,70.58,0,0,1,7.19-31.28,72.19,72.19,0,0,1,30.47-31.66l42.27,42.27v76.62H151.86Z"/><path class="cls-2" d="M271.75,199.82h32v16h-32Z"/></g></g></svg>