<svg xmlns="http://www.w3.org/2000/svg" viewBox="0 0 480 448"><defs><style>.cls-1{fill:#bddbff;}.cls-2{fill:#3d9ae2;}</style></defs><title>4</title><g id="Слой_2" data-name="Слой 2"><g id="Слой_1-2" data-name="Слой 1"><path class="cls-1" d="M8,280v48.16A15.88,15.88,0,0,0,23.84,344H456.16A15.88,15.88,0,0,0,472,328.16V280Z"/><path class="cls-1" d="M168,408H312l-8-64H176Z"/><path class="cls-1" d="M152,408v32H328V408Z"/><path class="cls-1" d="M116.43,71.15,120,64a29,29,0,0,0,25.89,16H168V72a32,32,0,0,0-32-32H120A32,32,0,0,0,88,72v8h14.11A16,16,0,0,0,116.43,71.15Z"/><path class="cls-1" d="M152,152l-24,56v40h64a8,8,0,0,0,8-8V200A48,48,0,0,0,152,152Z"/><path class="cls-1" d="M104,152a48,48,0,0,0-48,48v40a8,8,0,0,0,8,8h64V208Z"/><path class="cls-2" d="M176,96V72a40,40,0,0,0-40-40H120A40,40,0,0,0,80,72V96a48,48,0,0,0,96,0ZM120,48h16a24,24,0,0,1,24,24H145.89A20.81,20.81,0,0,1,127.2,60.43a8.33,8.33,0,0,0-14.32,0l-3.57,7.15A7.94,7.94,0,0,1,102.15,72H96A24,24,0,0,1,120,48Zm8,80A32,32,0,0,1,96,96V88h6.11a23.82,23.82,0,0,0,19.08-9.43A36.74,36.74,0,0,0,145.89,88H160v8A32,32,0,0,1,128,128Z"/><path class="cls-2" d="M64,256H192a16,16,0,0,0,16-16V200a56.07,56.07,0,0,0-56-56H104a56.07,56.07,0,0,0-56,56v40A16,16,0,0,0,64,256Zm128-56v40H136V209.6l21.05-49.12A39.92,39.92,0,0,1,192,200Zm-52.14-40L128,187.69,116.14,160ZM64,200a39.92,39.92,0,0,1,34.95-39.49L120,209.6V240H64Z"/><path class="cls-2" d="M160,200h16v16H160Z"/><path class="cls-2" d="M392,67.31V128h16V67.31l9,9L428.28,65,405.66,42.34a8,8,0,0,0-11.31,0L371.72,65,383,76.28Z"/><path class="cls-2" d="M400,248a8,8,0,0,0,5.66-2.34L428.28,223,417,211.72l-9,9V160H392v60.69l-9-9L371.72,223l22.63,22.63A8,8,0,0,0,400,248Z"/><path class="cls-2" d="M240,48h48V64H240Z"/><path class="cls-2" d="M240,80h96V96H240Z"/><path class="cls-2" d="M240,128h48v16H240Z"/><path class="cls-2" d="M240,160h96v16H240Z"/><path class="cls-2" d="M240,208h48v16H240Z"/><path class="cls-2" d="M240,240h96v16H240Z"/><path class="cls-2" d="M304,128h16v16H304Z"/><path class="cls-2" d="M304,208h32v16H304Z"/><path class="cls-2" d="M456,0H24A24,24,0,0,0,0,24V328a24,24,0,0,0,24,24H166.94l-6,48H152a8,8,0,0,0-8,8v24H112v16H368V432H336V408a8,8,0,0,0-8-8h-8.94l-6-48H456a24,24,0,0,0,24-24V24A24,24,0,0,0,456,0ZM24,16H456a8,8,0,0,1,8,8V272H16V24A8,8,0,0,1,24,16ZM320,432H160V416H320Zm-17.06-32H177.06l6-48H296.94ZM456,336H24a8,8,0,0,1-8-8V288H464v40A8,8,0,0,1,456,336Z"/><path class="cls-2" d="M400,304h32v16H400Z"/></g></g></svg>