<svg xmlns="http://www.w3.org/2000/svg" viewBox="0 0 480 480"><defs><style>.cls-1{fill:#bddbff}.cls-2{fill:#3d9ae2}</style></defs><g id="Слой_2" data-name="Слой 2"><g id="Слой_1-2" data-name="Слой 1"><path class="cls-1" d="M471.84 96H416a16.05 16.05 0 0 1-16-16V8zM224 184H8v80l8.48 5.68-.48.72V424a16.05 16.05 0 0 0 16 16h272a16.05 16.05 0 0 0 16-16V270.4l-.48-.72L328 264v-80zm-24 152a8 8 0 0 1-8 8h-48a8 8 0 0 1-8-8v-40h64z"/><path class="cls-2" d="M478.2 91.2L406.2 3a8 8 0 0 0-6.2-3H136a24 24 0 0 0-24 24v104h16V24a8 8 0 0 1 8-8h256v64a24 24 0 0 0 24 24h48v352a8 8 0 0 1-8 8H136a8 8 0 0 1-6.94-4l-13.85 8A24.1 24.1 0 0 0 136 480h320a24 24 0 0 0 24-24V96.24a8 8 0 0 0-1.8-5.04zM408 80V30.48L454.95 88H416a8 8 0 0 1-8-8z"/><path class="cls-2" d="M328 424V273.6l4.44-3A8 8 0 0 0 336 264v-80a8 8 0 0 0-8-8h-96v-24a8 8 0 0 0-8-8H112a8 8 0 0 0-8 8v24H8a8 8 0 0 0-8 8v80a8 8 0 0 0 3.56 6.66L8 273.6V424a24 24 0 0 0 24 24h272a24 24 0 0 0 24-24zM120 160h96v16h-96zM16 192h304v67.72L277.6 288H58.4L16 259.72zm128 112h48v32h-48zM24 424V284.28l27.56 18.4A8 8 0 0 0 56 304h72v32a16 16 0 0 0 16 16h48a16 16 0 0 0 16-16v-32h72a8.06 8.06 0 0 0 4.44-1.34L312 284.28V424a8 8 0 0 1-8 8H32a8 8 0 0 1-8-8z"/><path class="cls-2" d="M160 312h16v16h-16zM168 48h16v16h-16zM200 48h48v16h-48zM168 80h80v16h-80zM424 136a8 8 0 0 0-8-8H248v16h160v96h-56v16h64a8 8 0 0 0 8-8zM360 288h64v16h-64zM360 320h64v16h-64zM360 352h64v16h-64zM360 384h64v16h-64z"/></g></g></svg>