<svg xmlns="http://www.w3.org/2000/svg" viewBox="0 0 504 504"><path d="M252 364c30.4-27.2 49.6-67.2 49.6-112s-19.2-84-49.6-112c-26.4-24-62.4-39.2-100.8-39.2C68 100.8 0 168.8 0 252s68 150.4 151.2 150.4c38.4.8 74.4-14.4 100.8-38.4z" fill="#07a9e2"/><path d="M0 252c0 83.2 68 150.4 151.2 150.4 39.2 0 74.4-14.4 100.8-39.2 30.4-27.2 49.6-67.2 49.6-112S282.4 168 252 140c-26.4-24-62.4-39.2-100.8-39.2" fill="#009ddd"/><path d="M252 140c-26.4-24-62.4-39.2-100.8-39.2H144C96.8 135.2 66.4 190.4 66.4 252s30.4 116.8 76.8 150.4h7.2c39.2 0 74.4-14.4 100.8-39.2 30.4-27.2 49.6-67.2 49.6-112S282.4 168 252 140z" fill="#0284cc"/><path d="M353.6 100.8c-39.2 0-74.4 14.4-101.6 39.2-5.6 4.8-10.4 10.4-15.2 16h30.4c4 4.8 8 10.4 11.2 16h-53.6c-3.2 5.6-6.4 10.4-8.8 16h71.2c2.4 5.6 4.8 10.4 6.4 16h-83.2c-1.6 5.6-3.2 10.4-4.8 16h92.8c2.4 10.4 3.2 20.8 3.2 32 0 16.8-2.4 32.8-8 48h-83.2c1.6 5.6 4 10.4 6.4 16H288c-2.4 5.6-5.6 11.2-8.8 16h-53.6c3.2 5.6 7.2 11.2 11.2 16h30.4c-4.8 5.6-9.6 11.2-15.2 16 27.2 24 62.4 39.2 101.6 39.2 83.2 0 150.4-67.2 150.4-150.4 0-84-67.2-152-150.4-152z" fill="#ff2957"/><path d="M353.6 100.8c-39.2 0-74.4 14.4-101.6 39.2-5.6 4.8-10.4 10.4-15.2 16h30.4c4 4.8 8 10.4 11.2 16h-53.6c-3.2 5.6-6.4 10.4-8.8 16h71.2c2.4 5.6 4.8 10.4 6.4 16h-83.2c-1.6 5.6-3.2 10.4-4.8 16h92.8c2.4 10.4 3.2 20.8 3.2 32 0 16.8-2.4 32.8-8 48h-83.2c1.6 5.6 4 10.4 6.4 16H288c-2.4 5.6-5.6 11.2-8.8 16h-53.6c3.2 5.6 7.2 11.2 11.2 16h30.4c-4.8 5.6-9.6 11.2-15.2 16 27.2 24 62.4 39.2 101.6 39.2 83.2 0 150.4-67.2 150.4-150.4" fill="#ed1c2e"/><path d="M252 364c30.4-27.2 49.6-67.2 49.6-112s-19.2-84-49.6-112v224z" fill="#0466b5"/><path d="M452 284.8c0-2.4 2.4-4.8 4.8-4.8s4.8 2.4 4.8 4.8-2.4 4.8-4.8 4.8-4.8-2.4-4.8-4.8zm4.8 4c2.4 0 3.2-1.6 3.2-4s-1.6-3.2-3.2-3.2c-2.4 0-4 1.6-4 3.2s2.4 4 4 4zm0-2.4h-.8v-4H458.4l.8.8c0 .8 0 .8-.8.8l.8 1.6h-.8l-.8-1.6h-.8v2.4zm0-2.4h.8v-.8h-.8v.8z" fill="#fff"/><path d="M252 140c-5.6 4.8-10.4 10.4-15.2 16h30.4c4 4.8 8 10.4 11.2 16h-53.6c-3.2 5.6-6.4 10.4-8.8 16h71.2c2.4 5.6 4.8 10.4 6.4 16h-83.2c-1.6 5.6-3.2 10.4-4.8 16h92.8c2.4 10.4 3.2 20.8 3.2 32 0 16.8-2.4 32.8-8 48h-83.2c1.6 5.6 4 10.4 6.4 16H288c-2.4 5.6-5.6 11.2-8.8 16h-53.6c3.2 5.6 7.2 11.2 11.2 16h30.4c-4.8 5.6-9.6 11.2-15.2 16 27.2 24 62.4 39.2 101.6 39.2h7.2c46.4-33.6 76.8-88.8 76.8-150.4S407.2 136 360.8 102.4h-7.2C314.4 100.8 279.2 116 252 140z" fill="#d1094b"/><path fill="#fff" d="M132 289.6h-19.2l11.2-58.4-25.6 58.4H81.6l-3.2-58.4-11.2 58.4H50.4l14.4-76.8h29.6l1.6 48 20.8-48h30.4z"/><g fill="#dce5e5"><path d="M113.6 256l11.2-24.8-8.8 46.4c.8 4 1.6 8.8 3.2 12.8H132l14.4-76.8h-28c-3.2 12-5.6 25.6-5.6 39.2.8.8.8 1.6.8 3.2zM341.6 288.8c-5.6 1.6-8.8 2.4-13.6 2.4-9.6 0-14.4-4.8-14.4-13.6 0-1.6 0-3.2.8-5.6l.8-6.4.8-4.8 8.8-47.2h18.4l-2.4 14.4h9.6l-2.4 14.4h-9.6l-4.8 25.6c0 .8-.8 2.4-.8 2.4 0 3.2 2.4 4.8 6.4 4.8 2.4 0 4 0 4.8-.8l-2.4 14.4zM396.8 228c-1.6-.8-1.6-.8-2.4-.8s-1.6 0-1.6-.8h-2.4c-6.4 0-10.4 2.4-16 10.4l1.6-9.6h-16.8L348 289.6h19.2c6.4-38.4 9.6-44.8 18.4-44.8h2.4l2.4.8 6.4-17.6zM267.2 247.2c0 8 4.8 13.6 14.4 16.8 8 3.2 8.8 4 8.8 7.2 0 4-3.2 5.6-11.2 5.6-5.6 0-11.2-.8-16.8-2.4l-2.4 14.4h.8l3.2.8h4.8c4.8.8 8 .8 10.4.8 20 0 29.6-6.4 29.6-20.8 0-8.8-4-13.6-13.6-17.6-8-3.2-8.8-4-8.8-6.4 0-3.2 3.2-4.8 9.6-4.8 3.2 0 8.8 0 13.6.8l2.4-14.4c-4.8-.8-12-.8-16.8-.8-20.8 0-28 9.6-28 20.8zM192.8 289.6h-15.2v-6.4c-4.8 4.8-11.2 7.2-20 7.2-10.4 0-16.8-7.2-16.8-16.8 0-15.2 12-24 32.8-24h8c.8-2.4.8-3.2.8-4 0-4-3.2-5.6-12-5.6-5.6 0-11.2.8-15.2 1.6l-2.4.8h-1.6l2.4-13.6c9.6-2.4 15.2-3.2 22.4-3.2 16 0 24.8 6.4 24.8 18.4 0 3.2 0 5.6-1.6 12.8l-4 22.4-.8 4-.8 3.2v2.4l-.8.8zm-13.6-28h-4c-10.4 0-16 3.2-16 9.6 0 4 2.4 6.4 6.4 6.4 8 0 13.6-6.4 13.6-16zM254.4 288c-6.4 1.6-12.8 2.4-19.2 2.4-20.8 0-32-9.6-32-28 0-21.6 13.6-36.8 32.8-36.8 15.2 0 24.8 8.8 24.8 22.4 0 4.8-.8 8.8-2.4 15.2h-37.6v2.4c0 7.2 5.6 11.2 16 11.2 7.2 0 12.8-.8 19.2-4l-1.6 15.2zm-9.6-36.8V248c0-4.8-3.2-8-8.8-8s-10.4 4-12 11.2h20.8z"/></g><g fill="#fff"><path d="M455.2 261.6c-3.2 20.8-17.6 29.6-36.8 29.6-20.8 0-29.6-12.8-29.6-28.8 0-21.6 14.4-36.8 36.8-36.8 19.2 0 29.6 12.8 29.6 28v8zm-20-8c0-6.4-2.4-12-10.4-12-9.6 0-15.2 11.2-15.2 21.6 0 8 4 13.6 10.4 13.6 4 0 12.8-5.6 14.4-15.2.8-3.2.8-5.6.8-8z"/><path d="M389.6 269.6c.8-5.6 1.6-12 1.6-17.6v-1.6c-.8 4-1.6 8-1.6 12.8-.8 1.6-.8 4 0 6.4z"/></g></svg>