<svg xmlns="http://www.w3.org/2000/svg" viewBox="0 0 504 504"><path d="M504 252c0 83.2-67.2 151.2-151.2 151.2-83.2 0-151.2-68-151.2-151.2 0-83.2 67.2-151.2 150.4-151.2 84.8 0 152 68 152 151.2z" fill="#ffb600"/><path d="M352.8 100.8c83.2 0 151.2 68 151.2 151.2 0 83.2-67.2 151.2-151.2 151.2-83.2 0-151.2-68-151.2-151.2" fill="#f7981d"/><path d="M352.8 100.8c83.2 0 151.2 68 151.2 151.2 0 83.2-67.2 151.2-151.2 151.2" fill="#ff8500"/><path d="M149.6 100.8C67.2 101.6 0 168.8 0 252s67.2 151.2 151.2 151.2c39.2 0 74.4-15.2 101.6-39.2 5.6-4.8 10.4-10.4 15.2-16h-31.2c-4-4.8-8-10.4-11.2-15.2h53.6c3.2-4.8 6.4-10.4 8.8-16h-71.2c-2.4-4.8-4.8-10.4-6.4-16h83.2c4.8-15.2 8-31.2 8-48 0-11.2-1.6-21.6-3.2-32h-92.8c.8-5.6 2.4-10.4 4-16h83.2c-1.6-5.6-4-11.2-6.4-16H216c2.4-5.6 5.6-10.4 8.8-16h53.6c-3.2-5.6-7.2-11.2-12-16h-29.6c4.8-5.6 9.6-10.4 15.2-15.2-26.4-24.8-62.4-39.2-101.6-39.2 0-1.6 0-1.6-.8-1.6z" fill="#ff5050"/><path d="M0 252c0 83.2 67.2 151.2 151.2 151.2 39.2 0 74.4-15.2 101.6-39.2 5.6-4.8 10.4-10.4 15.2-16h-31.2c-4-4.8-8-10.4-11.2-15.2h53.6c3.2-4.8 6.4-10.4 8.8-16h-71.2c-2.4-4.8-4.8-10.4-6.4-16h83.2c4.8-15.2 8-31.2 8-48 0-11.2-1.6-21.6-3.2-32h-92.8c.8-5.6 2.4-10.4 4-16h83.2c-1.6-5.6-4-11.2-6.4-16H216c2.4-5.6 5.6-10.4 8.8-16h53.6c-3.2-5.6-7.2-11.2-12-16h-29.6c4.8-5.6 9.6-10.4 15.2-15.2-26.4-24.8-62.4-39.2-101.6-39.2h-.8" fill="#e52836"/><path d="M151.2 403.2c39.2 0 74.4-15.2 101.6-39.2 5.6-4.8 10.4-10.4 15.2-16h-31.2c-4-4.8-8-10.4-11.2-15.2h53.6c3.2-4.8 6.4-10.4 8.8-16h-71.2c-2.4-4.8-4.8-10.4-6.4-16h83.2c4.8-15.2 8-31.2 8-48 0-11.2-1.6-21.6-3.2-32h-92.8c.8-5.6 2.4-10.4 4-16h83.2c-1.6-5.6-4-11.2-6.4-16H216c2.4-5.6 5.6-10.4 8.8-16h53.6c-3.2-5.6-7.2-11.2-12-16h-29.6c4.8-5.6 9.6-10.4 15.2-15.2-26.4-24.8-62.4-39.2-101.6-39.2h-.8" fill="#cb2026"/><g fill="#fff"><path d="M204.8 290.4l2.4-13.6c-.8 0-2.4.8-4 .8-5.6 0-6.4-3.2-5.6-4.8l4.8-28h8.8l2.4-15.2h-8l1.6-9.6h-16s-9.6 52.8-9.6 59.2c0 9.6 5.6 13.6 12.8 13.6 4.8 0 8.8-1.6 10.4-2.4zM210.4 264.8c0 22.4 15.2 28 28 28 12 0 16.8-2.4 16.8-2.4l3.2-15.2s-8.8 4-16.8 4c-17.6 0-14.4-12.8-14.4-12.8H260s2.4-10.4 2.4-14.4c0-10.4-5.6-23.2-23.2-23.2-16.8-1.6-28.8 16-28.8 36zm28-23.2c8.8 0 7.2 10.4 7.2 11.2H228c0-.8 1.6-11.2 10.4-11.2zM340 290.4l3.2-17.6s-8 4-13.6 4c-11.2 0-16-8.8-16-18.4 0-19.2 9.6-29.6 20.8-29.6 8 0 14.4 4.8 14.4 4.8l2.4-16.8s-9.6-4-18.4-4c-18.4 0-36.8 16-36.8 46.4 0 20 9.6 33.6 28.8 33.6 6.4 0 15.2-2.4 15.2-2.4zM116.8 227.2c-11.2 0-19.2 3.2-19.2 3.2L95.2 244s7.2-3.2 17.6-3.2c5.6 0 10.4.8 10.4 5.6 0 3.2-.8 4-.8 4h-7.2c-13.6 0-28.8 5.6-28.8 24 0 14.4 9.6 17.6 15.2 17.6 11.2 0 16-7.2 16.8-7.2l-.8 6.4H132l6.4-44c0-19.2-16-20-21.6-20zm3.2 36c0 2.4-1.6 15.2-11.2 15.2-4.8 0-6.4-4-6.4-6.4 0-4 2.4-9.6 14.4-9.6 2.4.8 3.2.8 3.2.8zM153.6 292c4 0 24 .8 24-20.8 0-20-19.2-16-19.2-24 0-4 3.2-5.6 8.8-5.6 2.4 0 11.2.8 11.2.8l2.4-14.4s-5.6-1.6-15.2-1.6c-12 0-24 4.8-24 20.8 0 18.4 20 16.8 20 24 0 4.8-5.6 5.6-9.6 5.6-7.2 0-14.4-2.4-14.4-2.4l-2.4 14.4c.8 1.6 4.8 3.2 18.4 3.2zM472.8 214.4l-3.2 21.6s-6.4-8-15.2-8c-14.4 0-27.2 17.6-27.2 38.4 0 12.8 6.4 26.4 20 26.4 9.6 0 15.2-6.4 15.2-6.4l-.8 5.6h16l12-76.8-16.8-.8zm-7.2 42.4c0 8.8-4 20-12.8 20-5.6 0-8.8-4.8-8.8-12.8 0-12.8 5.6-20.8 12.8-20.8 5.6 0 8.8 4 8.8 13.6zM29.6 291.2l9.6-57.6 1.6 57.6H52l20.8-57.6-8.8 57.6h16.8l12.8-76.8H67.2l-16 47.2-.8-47.2H27.2l-12.8 76.8h15.2zM277.6 291.2c4.8-26.4 5.6-48 16.8-44 1.6-10.4 4-14.4 5.6-18.4h-3.2c-7.2 0-12.8 9.6-12.8 9.6l1.6-8.8h-15.2L260 292h17.6v-.8zM376.8 227.2c-11.2 0-19.2 3.2-19.2 3.2l-2.4 13.6s7.2-3.2 17.6-3.2c5.6 0 10.4.8 10.4 5.6 0 3.2-.8 4-.8 4h-7.2c-13.6 0-28.8 5.6-28.8 24 0 14.4 9.6 17.6 15.2 17.6 11.2 0 16-7.2 16.8-7.2l-.8 6.4H392l6.4-44c.8-19.2-16-20-21.6-20zm4 36c0 2.4-1.6 15.2-11.2 15.2-4.8 0-6.4-4-6.4-6.4 0-4 2.4-9.6 14.4-9.6 2.4.8 2.4.8 3.2.8zM412 291.2c4.8-26.4 5.6-48 16.8-44 1.6-10.4 4-14.4 5.6-18.4h-3.2c-7.2 0-12.8 9.6-12.8 9.6l1.6-8.8h-15.2L394.4 292H412v-.8z"/></g><g fill="#dce5e5"><path d="M180 279.2c0 9.6 5.6 13.6 12.8 13.6 5.6 0 10.4-1.6 12-2.4l2.4-13.6c-.8 0-2.4.8-4 .8-5.6 0-6.4-3.2-5.6-4.8l4.8-28h8.8l2.4-15.2h-8l1.6-9.6M218.4 264.8c0 22.4 7.2 28 20 28 12 0 16.8-2.4 16.8-2.4l3.2-15.2s-8.8 4-16.8 4c-17.6 0-14.4-12.8-14.4-12.8H260s2.4-10.4 2.4-14.4c0-10.4-5.6-23.2-23.2-23.2-16.8-1.6-20.8 16-20.8 36zm20-23.2c8.8 0 10.4 10.4 10.4 11.2H228c0-.8 1.6-11.2 10.4-11.2zM340 290.4l3.2-17.6s-8 4-13.6 4c-11.2 0-16-8.8-16-18.4 0-19.2 9.6-29.6 20.8-29.6 8 0 14.4 4.8 14.4 4.8l2.4-16.8s-9.6-4-18.4-4c-18.4 0-28.8 16-28.8 46.4 0 20 1.6 33.6 20.8 33.6 6.4 0 15.2-2.4 15.2-2.4zM95.2 244.8s7.2-3.2 17.6-3.2c5.6 0 10.4.8 10.4 5.6 0 3.2-.8 4-.8 4h-7.2c-13.6 0-28.8 5.6-28.8 24 0 14.4 9.6 17.6 15.2 17.6 11.2 0 16-7.2 16.8-7.2l-.8 6.4H132l6.4-44c0-18.4-16-19.2-22.4-19.2m12 34.4c0 2.4-9.6 15.2-19.2 15.2-4.8 0-6.4-4-6.4-6.4 0-4 2.4-9.6 14.4-9.6 2.4.8 11.2.8 11.2.8zM136 290.4s4.8 1.6 18.4 1.6c4 0 24 .8 24-20.8 0-20-19.2-16-19.2-24 0-4 3.2-5.6 8.8-5.6 2.4 0 11.2.8 11.2.8l2.4-14.4s-5.6-1.6-15.2-1.6c-12 0-16 4.8-16 20.8 0 18.4 12 16.8 12 24 0 4.8-5.6 5.6-9.6 5.6M469.6 236s-6.4-8-15.2-8c-14.4 0-19.2 17.6-19.2 38.4 0 12.8-1.6 26.4 12 26.4 9.6 0 15.2-6.4 15.2-6.4l-.8 5.6h16l12-76.8m-20.8 41.6c0 8.8-7.2 20-16 20-5.6 0-8.8-4.8-8.8-12.8 0-12.8 5.6-20.8 12.8-20.8 5.6 0 12 4 12 13.6zM29.6 291.2l9.6-57.6 1.6 57.6H52l20.8-57.6-8.8 57.6h16.8l12.8-76.8h-20l-22.4 47.2-.8-47.2h-8.8l-27.2 76.8h15.2zM260.8 291.2h16.8c4.8-26.4 5.6-48 16.8-44 1.6-10.4 4-14.4 5.6-18.4h-3.2c-7.2 0-12.8 9.6-12.8 9.6l1.6-8.8M355.2 244.8s7.2-3.2 17.6-3.2c5.6 0 10.4.8 10.4 5.6 0 3.2-.8 4-.8 4h-7.2c-13.6 0-28.8 5.6-28.8 24 0 14.4 9.6 17.6 15.2 17.6 11.2 0 16-7.2 16.8-7.2l-.8 6.4H392l6.4-44c0-18.4-16-19.2-22.4-19.2m12 34.4c0 2.4-9.6 15.2-19.2 15.2-4.8 0-6.4-4-6.4-6.4 0-4 2.4-9.6 14.4-9.6 3.2.8 11.2.8 11.2.8zM395.2 291.2H412c4.8-26.4 5.6-48 16.8-44 1.6-10.4 4-14.4 5.6-18.4h-3.2c-7.2 0-12.8 9.6-12.8 9.6l1.6-8.8"/></g></svg>