<svg xmlns="http://www.w3.org/2000/svg" viewBox="0 0 496 496"><path d="M194.4 274h2.4c2.4 0 4-.8 4.8-2.4l7.2-10.4h18.4l-4 6.4h22.4l-3.2 10.4H216c-3.2 4.8-6.4 6.4-11.2 6.4h-13.6l3.2-10.4m-3.2 14.4h48l-3.2 11.2h-19.2l-3.2 11.2h19.2l-3.2 11.2h-19.2l-4.8 16c-.8 2.4 0 4 4 3.2h15.2l-3.2 10.4H192c-5.6 0-7.2-3.2-5.6-9.6l5.6-20.8h-12l3.2-11.2h12l3.2-11.2h-11.2l4-10.4zm77.6-27.2l-.8 6.4s8.8-7.2 17.6-7.2H316l-12 43.2c-.8 4.8-4.8 7.2-12.8 7.2h-34.4l-8 29.6c-.8 1.6 0 2.4 1.6 2.4h7.2l-2.4 8.8h-17.6c-6.4 0-9.6-1.6-8-6.4l23.2-84.8h16v.8zm25.6 12h-27.2l-3.2 11.2s4.8-3.2 12-3.2h16l2.4-8zm-9.6 26.4c2.4 0 3.2-.8 3.2-2.4l1.6-6.4h-27.2l-2.4 8.8h24.8zm-18.4 13.6h16v7.2h4c2.4 0 3.2-.8 3.2-2.4l1.6-4.8H304l-1.6 6.4c-1.6 5.6-5.6 8-12 8.8h-8.8v12c0 1.6 1.6 3.2 4.8 3.2h8l-2.4 9.6h-19.2c-5.6 0-8-2.4-8-8l1.6-32z" fill="#009da5"/><g fill="#02cccc"><path d="M212.8 282l3.2-3.2h26.4l3.2-10.4h-22.4l4-6.4h-18.4l-7.2 9.6c-.8 1.6-2.4 2.4-4.8 2.4h-2.4l-.8 2.4c6.4 1.6 12.8 4 19.2 5.6zM268 267.6l.8-6.4h-16l-7.2 25.6c4 0 8.8.8 12.8.8 18.4 0 35.2-2.4 52-7.2l5.6-19.2h-30.4c-8.8 0-17.6 6.4-17.6 6.4zm24 13.6h-16c-8 0-12 3.2-12 3.2l3.2-11.2h27.2l-2.4 8z"/></g><path d="M332.8 274l4-12.8h18.4l-.8 4.8s9.6-4.8 16-4.8h23.2l-4 12.8h-3.2l-17.6 60.8h3.2l-3.2 12h-4l-1.6 5.6h-17.6l1.6-5.6H312l3.2-12h3.2L336 274h-3.2m20 0l-4.8 16.8s8-3.2 15.2-4c1.6-5.6 3.2-12.8 3.2-12.8h-13.6zm-6.4 24.8l-4.8 17.6s8.8-4 15.2-4.8l3.2-12.8h-13.6zm3.2 36l3.2-12.8h-13.6l-3.2 12.8h13.6zm44.8-74.4H412l.8 6.4c0 1.6.8 2.4 3.2 2.4h3.2l-3.2 11.2h-12.8c-4.8 0-7.2-1.6-8-5.6l-.8-14.4zm-4.8 24h56l-3.2 11.2h-17.6l-3.2 11.2h17.6l-3.2 12h-20l-4.8 7.2h9.6l2.4 13.6c0 1.6 1.6 2.4 3.2 2.4h3.2l-3.2 11.2H416c-5.6 0-8.8-1.6-8.8-5.6l-2.4-12.8-8.8 13.6c-2.4 4-5.6 5.6-9.6 5.6h-16.8l3.2-11.2h4.8c2.4 0 4-.8 5.6-3.2l13.6-20h-17.6l3.2-12h19.2l3.2-11.2h-19.2l4-12z" fill="#009da5"/><path d="M355.2 262h-18.4l-3.2 10.4c7.2-3.2 14.4-6.4 21.6-10.4z" fill="#02cccc"/><path d="M74.4 204.4c-2.4 10.4-7.2 18.4-14.4 24-8 5.6-17.6 8.8-29.6 8.8-11.2 0-20-3.2-24.8-8.8-4-4-5.6-9.6-5.6-16 0-2.4 0-5.6.8-8.8L13.6 142h19.2L20 202.8c0 1.6-.8 3.2-.8 4.8 0 3.2.8 5.6 2.4 8 2.4 3.2 6.4 4.8 11.2 4.8 5.6 0 11.2-1.6 14.4-4 4-3.2 6.4-7.2 7.2-12.8l12.8-60.8H88l-13.6 61.6" fill="#ff7f29"/><g fill="#ea2227"><path d="M74.4 204.4c-2.4 10.4-7.2 18.4-14.4 24-8 5.6-17.6 8.8-29.6 8.8-11.2 0-20-3.2-24.8-8.8-4-4-5.6-9.6-5.6-16 0-2.4 0-5.6.8-8.8l28-61.6h4L20 202.8c0 1.6-.8 3.2-.8 4.8 0 3.2.8 5.6 2.4 8 2.4 3.2 6.4 4.8 11.2 4.8 5.6 0 11.2-1.6 14.4-4 4-3.2 6.4-7.2 7.2-12.8l28-60.8H88l-13.6 61.6M92.8 180.4h13.6l-1.6 8 1.6-2.4c4.8-4.8 9.6-7.2 16-7.2 5.6 0 9.6 1.6 12.8 4.8 2.4 3.2 3.2 8 2.4 13.6l-7.2 37.6H116l6.4-34.4c.8-3.2.8-6.4-.8-8-.8-1.6-3.2-2.4-6.4-2.4-4 0-6.4.8-8.8 3.2s-4 5.6-4.8 9.6l-6.4 32H80.8l12-54.4"/></g><path d="M249.6 180.4h13.6l-1.6 8 1.6-2.4c4.8-4.8 9.6-7.2 16-7.2 5.6 0 9.6 1.6 12.8 4.8 2.4 3.2 3.2 8 2.4 13.6l-7.2 37.6h-14.4l7.2-34.4c.8-3.2.8-6.4-.8-8-.8-1.6-3.2-2.4-6.4-2.4-4 0-6.4.8-8.8 3.2s-4 5.6-4.8 9.6l-6.4 32h-14.4l11.2-54.4" fill="#a5002f"/><g fill="#ea2227"><path d="M156 180.4h15.2l-12 55.2H144l12-55.2m4.8-20H176l-3.2 13.6h-15.2l3.2-13.6zM184.8 231.6c-4-4-5.6-8.8-5.6-15.2v-4c0-1.6 0-2.4.8-4 1.6-8.8 5.6-16 11.2-21.6 5.6-5.6 12.8-8 21.6-8 7.2 0 12 1.6 16 5.6s5.6 8.8 5.6 16v4c0 1.6 0 2.4-.8 4-1.6 8.8-5.6 16-11.2 20.8-5.6 4.8-12.8 8-21.6 8-6.4 0-12-2.4-16-5.6m28.8-11.2c2.4-3.2 4.8-7.2 5.6-12.8 0-.8 0-1.6.8-3.2V202c0-3.2-.8-6.4-2.4-8-1.6-1.6-4-3.2-7.2-3.2-4 0-8 1.6-10.4 4.8s-4.8 7.2-5.6 13.6c0 .8 0 1.6-.8 2.4v2.4c0 3.2.8 6.4 2.4 8 1.6 1.6 4 2.4 7.2 2.4 4.8 0 8-.8 10.4-4"/></g><path d="M317.6 146h40c8 0 13.6 1.6 17.6 4.8s6.4 8 6.4 15.2v4c0 1.6-.8 3.2-.8 4.8-1.6 8.8-5.6 15.2-12 20.8-6.4 4.8-13.6 8-22.4 8h-21.6l-6.4 32H300l17.6-89.6m9.6 41.6h17.6c4.8 0 8-.8 11.2-3.2 2.4-2.4 4-5.6 5.6-9.6v-2.4-1.6c0-3.2-.8-5.6-3.2-7.2-2.4-1.6-5.6-2.4-10.4-2.4h-15.2l-5.6 26.4z" fill="#1398e2"/><path d="M332.8 146h24c8 0 13.6 1.6 17.6 4.8s6.4 8 6.4 15.2v4c0 1.6-.8 3.2-.8 4.8-1.6 8.8-5.6 15.2-12 20.8-6.4 4.8-13.6 8-22.4 8H324l-6.4 32h-18.4l33.6-89.6m-5.6 41.6h17.6c4.8 0 8-.8 11.2-3.2 2.4-2.4 4-5.6 5.6-9.6v-2.4-1.6c0-3.2-.8-5.6-3.2-7.2-2.4-1.6-5.6-2.4-10.4-2.4h-15.2l-5.6 26.4z" fill="#0872b9"/><path d="M463.2 246c-5.6 12.8-11.2 20-14.4 23.2-3.2 3.2-9.6 11.2-25.6 10.4l1.6-9.6c12.8-4 20-22.4 24-30.4l-4.8-59.2H463.2l.8 37.6 16-37.6h16L463.2 246" fill="#055093"/><path d="M418.4 184.4l-6.4 4.8c-6.4-5.6-12.8-8.8-24.8-3.2-16 7.2-29.6 64.8 14.4 45.6l2.4 3.2 17.6.8 11.2-52-14.4.8M408 213.2c-3.2 8-8.8 13.6-13.6 12-4.8-1.6-6.4-9.6-4-17.6 3.2-8 8.8-13.6 13.6-12 5.6 1.6 7.2 9.6 4 17.6" fill="#0872b9"/><path d="M389.6 235.6c3.2-.8 7.2-1.6 12-3.2l2.4 3.2 17.6.8 11.2-52h-4c-8 20-22.4 37.6-39.2 51.2z" fill="#055093"/><path d="M228.8 184.4c-4-4-9.6-5.6-16-5.6h-4c-1.6 4.8-4 9.6-6.4 14.4 2.4-1.6 4.8-2.4 8-2.4s5.6.8 7.2 3.2c1.6 1.6 2.4 4.8 2.4 8v2.4c0 .8 0 1.6-.8 3.2-.8 5.6-3.2 10.4-5.6 12.8-2.4 3.2-6.4 4-10.4 4-3.2 0-5.6-.8-7.2-2.4-1.6-1.6-2.4-4.8-2.4-8v-2.4c0-.8 0-1.6.8-2.4 0-1.6.8-2.4.8-3.2-4 6.4-9.6 12.8-15.2 18.4.8 3.2 2.4 5.6 4.8 8 4 4 9.6 5.6 16 5.6 8 0 15.2-2.4 21.6-8 5.6-4.8 9.6-12 11.2-20.8 0-1.6.8-2.4.8-4v-4c0-8-1.6-12.8-5.6-16.8z" fill="#a5002f"/></svg>