<svg xmlns="http://www.w3.org/2000/svg" viewBox="0 0 480 480">
	<path
		fill="#bddbff"
		d="M472 312v32a32.09 32.09 0 0 1-32 32H104a32.09 32.09 0 0 1-32-32v-32zM328 376l8 64H208l8-64zM352 440v32H192v-32zM376 48a8 8 0 0 1-8-8V8H240a8 8 0 0 0-8 8v264h176V48zM72 232H8v32a16.05 16.05 0 0 0 16 16h144a16.05 16.05 0 0 0 16-16v-32zM168 8a16.05 16.05 0 0 1 16 16v8H8v-8A16.05 16.05 0 0 1 24 8z"
	/>
	<path fill="#3d9ae2" d="M440 64h-8v16h8a24 24 0 0 1 24 24v200H64v40a40 40 0 0 0 40 40h102.94l-6 48H192a8 8 0 0 0-8 8v24h-32v16h240v-16h-32v-24a8 8 0 0 0-8-8h-8.94l-6-48H440a40 40 0 0 0 40-40V104a40 40 0 0 0-40-40zm-96 400H200v-16h144zm-17.06-32H217.06l6-48h97.88zM440 368H104a24 24 0 0 1-24-24v-24h384v24a24 24 0 0 1-24 24z" />
	<path fill="#3d9ae2" d="M432 336h16v16h-16zM192 264V24a24 24 0 0 0-24-24H24A24 24 0 0 0 0 24v240a24 24 0 0 0 24 24h144a24 24 0 0 0 24-24zm-16-40H16V40h160zM24 16h144a8 8 0 0 1 8 8H16a8 8 0 0 1 8-8zm-8 248v-24h160v24a8 8 0 0 1-8 8H24a8 8 0 0 1-8-8z" />
	<path fill="#3d9ae2" d="M80 248h32v16H80zM88 136h16v16H88zM120 136h16v16h-16zM56 136h16v16H56zM264 32h32v16h-32zM264 64h64v16h-64zM264 104h64v16h-64zM264 136h112v16H264zM264 168h112v16H264zM264 200h112v16H264zM264 232h112v16H264zM344 104h32v16h-32z" />
	<path fill="#3d9ae2" d="M432 288v-16h-16V48a8 8 0 0 0-2.35-5.66l-40.07-40A8 8 0 0 0 367.93 0H240a16 16 0 0 0-16 16v256h-16v16zM376 27.36L388.66 40H376zM240 16h120v24a16 16 0 0 0 16 16h24v216H240z" />
</svg>