<svg xmlns="http://www.w3.org/2000/svg" viewBox="0 0 480 480">
	<path
		fill="#bddbff"
		d="M472 280v-80l-54-6.72a185.75 185.75 0 0 0-16.8-41.92 70.32 70.32 0 0 1-9.2.64 63.91 63.91 0 0 1-64-64 70.32 70.32 0 0 1 .64-9.2A185.93 185.93 0 0 0 286.72 62L280 8h-80l-6.72 54a185.93 185.93 0 0 0-41.92 16.8A70.32 70.32 0 0 1 152 88a63.91 63.91 0 0 1-64 64 70.32 70.32 0 0 1-9.2-.64A185.93 185.93 0 0 0 62 193.28L8 200v80l54 6.72a184.2 184.2 0 0 0 19.12 46.08l-33.44 43 56.56 56.56 43-33.44A184.2 184.2 0 0 0 193.28 418l6.72 54h80l6.72-54a184.2 184.2 0 0 0 46.08-19.12l43 33.44 56.56-56.56-33.44-43A184.2 184.2 0 0 0 418 286.72zm-160 75.36a135.16 135.16 0 0 1-32 14.72 138.08 138.08 0 0 1-80 0 136.14 136.14 0 1 1 112-14.72z"
	/>
	<path
		fill="#bddbff"
		d="M280 370.08a138.08 138.08 0 0 1-80 0 135.16 135.16 0 0 1-32-14.72v-51.2a32 32 0 0 1 23.2-30.8l21.2-6.08L240 288l27.6-20.72 21.2 6.08a32 32 0 0 1 23.2 30.8v51.2a135.16 135.16 0 0 1-32 14.72zM280 192v8h-6.08a7.75 7.75 0 0 1-1.92-.16 15.66 15.66 0 0 1-12.4-8.72L256 184l-11.92 7.92a47.66 47.66 0 0 1-26.64 8.08H200v-8a40 40 0 1 1 80 0z"
	/>
	<path fill="#3d9ae2" d="M473 192.06L424.27 186c-1.26-4.28-2.67-8.55-4.23-12.76l-15 5.6a172.66 172.66 0 0 1 5.21 16.5 8 8 0 0 0 6.75 5.9l47 5.85v65.88l-47 5.88a8 8 0 0 0-6.75 5.9 174.7 174.7 0 0 1-18.25 44 8 8 0 0 0 .59 9l29.12 37.43-46.61 46.57-37.43-29.11a8 8 0 0 0-9-.57 175.3 175.3 0 0 1-44 18.27 8 8 0 0 0-5.91 6.75l-5.87 47h-65.83l-5.88-47a8 8 0 0 0-5.91-6.75 175 175 0 0 1-44-18.25 8 8 0 0 0-9 .59l-37.43 29.09-46.53-46.66 29.12-37.43a8 8 0 0 0 .57-9 174.77 174.77 0 0 1-18.27-44 8 8 0 0 0-6.75-5.9l-47-5.88v-65.84l47-5.88a8 8 0 0 0 6.75-5.9A171.53 171.53 0 0 1 75 178.79l-15-5.6c-1.56 4.21-3 8.48-4.23 12.76L7 192a8 8 0 0 0-7 8v80a8 8 0 0 0 7 7.94L55.73 294a190.56 190.56 0 0 0 15.79 38l-30.17 38.8a8 8 0 0 0 .65 10.63L98.57 438a8 8 0 0 0 10.58.66l38.79-30.17a191.12 191.12 0 0 0 38 15.79l6.12 48.72a8 8 0 0 0 7.94 7h80a8 8 0 0 0 7.94-7l6.06-48.73a191.12 191.12 0 0 0 38-15.79l38.79 30.17a8 8 0 0 0 10.58-.66L438 381.43a8 8 0 0 0 .66-10.57l-30.17-38.8a190.56 190.56 0 0 0 15.79-38l48.72-6.12a8 8 0 0 0 7-7.94v-80a8 8 0 0 0-7-7.94zM195.28 69.75a8 8 0 0 0 5.9-6.75l5.88-47h65.87l5.88 47a8 8 0 0 0 5.9 6.75 167 167 0 0 1 16.5 5.25l5.6-15c-4.18-1.6-8.46-3-12.8-4.24L287.92 7A8 8 0 0 0 280 0h-80a8 8 0 0 0-7.94 7L186 55.73q-6.47 1.9-12.8 4.24l5.6 15a171.33 171.33 0 0 1 16.48-5.22z" />
	<path fill="#3d9ae2" d="M232 48h16v16h-16zM416 232h16v16h-16zM232 416h16v16h-16zM48 232h16v16H48zM98.58 370.11l11.31-11.32 11.31 11.31-11.3 11.33zM358.8 370.11l11.31-11.31 11.32 11.31-11.32 11.32zM356.46 155.29l-12.95 9.42A127.81 127.81 0 0 1 320 339.76v-35.6a40.16 40.16 0 0 0-29-38.5L264 258v-10.21A39.82 39.82 0 0 0 280 216v-8a8 8 0 0 0 8-8v-8a48 48 0 1 0-96 0v8a8 8 0 0 0 8 8v8a39.82 39.82 0 0 0 16 31.79V258l-27 7.71a40.16 40.16 0 0 0-29 38.5v35.6a127.81 127.81 0 0 1-23.52-175.05l-12.95-9.42a144 144 0 1 0 232.93 0zM240 160a32 32 0 0 1 32 31.78 8 8 0 0 1-5.28-4.21l-3.56-7.13a8 8 0 0 0-11.6-3.09l-11.9 7.94a39.9 39.9 0 0 1-22.19 6.71H208a32 32 0 0 1 32-32zm-22.53 48a55.83 55.83 0 0 0 31.05-9.41l4.38-2.92a23.63 23.63 0 0 0 11.09 10V216a24 24 0 1 1-48 0v-8zM240 256a39.87 39.87 0 0 0 8-.8v8.8a7.93 7.93 0 0 0 2.76 5.92L240 278l-10.76-8.08A7.93 7.93 0 0 0 232 264v-8.8a39.87 39.87 0 0 0 8 .8zm-32 107.79V304h-16v54.57a127.76 127.76 0 0 1-16-7.89v-46.52A24.13 24.13 0 0 1 193.41 281l17.39-5 24.4 18.31a8 8 0 0 0 9.6 0L269.19 276l17.4 5A24.11 24.11 0 0 1 304 304.16v46.52a127.76 127.76 0 0 1-16 7.89V304h-16v59.79a123.56 123.56 0 0 1-64 0zM167.38 134.59a128.06 128.06 0 0 1 145.25 0l9.09-13.17a144.07 144.07 0 0 0-163.44 0zM392 112a8 8 0 0 1-8-8h-16a24 24 0 0 0 16 22.53V136h16v-9.47A23.94 23.94 0 0 0 392 80a8 8 0 1 1 8-8h16a24 24 0 0 0-16-22.53V40h-16v9.47A23.94 23.94 0 0 0 392 96a8 8 0 1 1 0 16z" />
	<path fill="#3d9ae2" d="M88 160a71.58 71.58 0 0 0 44.89-15.8l37.46 37.46 11.31-11.31-37.46-37.46A71.93 71.93 0 1 0 88 160zm0-128a56 56 0 1 1-56 56 56 56 0 0 1 56-56z" />
	<path fill="#3d9ae2" d="M88 112a8 8 0 0 1-8-8H64a24 24 0 0 0 16 22.53V136h16v-9.47A23.94 23.94 0 0 0 88 80a8 8 0 1 1 8-8h16a24 24 0 0 0-16-22.53V40H80v9.47A23.94 23.94 0 0 0 88 96a8 8 0 1 1 0 16zM298.34 170.34l11.31 11.31 37.46-37.46a72.19 72.19 0 1 0-11.31-11.31zM392 32a56 56 0 1 1-56 56 56 56 0 0 1 56-56zM304 232h32v16h-32zM144 232h32v16h-32zM149.61 206.68l6.76-14.5 29 13.52-6.76 14.5zM294.63 205.71l29-13.54 6.77 14.5-29 13.54z" />
</svg>