<svg xmlns="http://www.w3.org/2000/svg" viewBox="0 0 480 480">
	<path
		fill="#bddbff"
		d="M400 32l-16 17.12L400 64h-48V32zM288 8l-16 17.12L288 40h-48V8zM128 32l-16 17.12L128 64H80V32zM384 200h48v160h-48zM320 200v192h-48V200zM208 200v192h-48V200zM48 200h48v160H48zM352 95.2L249.52 74 240 72 80 105.12 8 120v48h464v-48zM240 144a24 24 0 0 1 0-48 24.37 24.37 0 0 1 4.88.48A24 24 0 0 1 240 144z"
	/>
	<path fill="#3d9ae2" d="M240 88a32 32 0 1 0 32 32 32 32 0 0 0-32-32zm0 48a16 16 0 1 1 16-16 16 16 0 0 1-16 16z" />
	<path fill="#3d9ae2" d="M448 200v-24h24a8 8 0 0 0 8-8v-48a8 8 0 0 0-6.4-7.83L360 88.66V72h40a8 8 0 0 0 5.45-13.86l-10.13-9.39 10.53-11.28A8 8 0 0 0 400 24h-48a8 8 0 0 0-8 8v53.34l-96-19.85V48h40a8 8 0 0 0 5.45-13.86l-10.13-9.39 10.53-11.28A8 8 0 0 0 288 0h-48a8 8 0 0 0-8 8v57.49L88 95.28V72h40a8 8 0 0 0 5.45-13.86l-10.13-9.39 10.53-11.28A8 8 0 0 0 128 24H80a8 8 0 0 0-8 8v66.59L6.4 112.18A8 8 0 0 0 0 120v48a8 8 0 0 0 8 8h24v24a8 8 0 0 0 8 8v144a8 8 0 0 0-8 8v24h-8a8 8 0 0 0-8 8v24H8a8 8 0 0 0-8 8v48a8 8 0 0 0 8 8h464a8 8 0 0 0 8-8v-48a8 8 0 0 0-8-8h-8v-24a8 8 0 0 0-8-8h-8v-24a8 8 0 0 0-8-8V208a8 8 0 0 0 8-8zM360 40h21.6l-3.44 3.69a8 8 0 0 0 .4 11.33l1.07 1H360zM88 40h21.6l-3.44 3.69a8 8 0 0 0 .4 11.33l1.07 1H88zm344 152h-48v-16h48zm-56 160a8 8 0 0 0-8 8v24h-40V208a8 8 0 0 0 8-8v-24h32v24a8 8 0 0 0 8 8zm-193 64l6.4-16h101.19l6.4 16zm120.37 16l12.8 32H163.82l12.8-32zM104 352V208a8 8 0 0 0 8-8v-24h32v24a8 8 0 0 0 8 8v176h-40v-24a8 8 0 0 0-8-8zm216-160h-48v-16h48zm-56 16v176h-48V208a8 8 0 0 0 8-8v-24h32v24a8 8 0 0 0 8 8zm-56-16h-48v-16h48zm-40 16h32v176h-32zm112 176V208h32v176zM248 16h21.6l-3.44 3.69a8 8 0 0 0 .4 11.33l1.07 1H248zM16 126.51l224-46.34 224 46.34V160H16zM96 176v16H48v-16zm-40 32h32v144H56zm-8 160h48v16H48zm-16 32h140.18l-6.4 16H32zm-16 32h143.38l-12.8 32H16zm448 32H333.41l-12.8-32H464zm-149.79-48l-6.4-16H448v16zM384 384v-16h48v16zm40-32h-32V208h32z" />
</svg>